<svg width="36" height="36" viewBox="0 0 36 36" fill="none" xmlns="http://www.w3.org/2000/svg">
<g clip-path="url(#clip0)">
<path d="M2.41816 17.9999V10.4703C2.41084 9.31944 2.89628 8.50156 3.88347 7.91431L16.4447 0.472437C17.4943 -0.154188 18.4697 -0.159251 19.5255 0.467937L32.1407 7.934C33.107 8.50381 33.5852 9.34025 33.5863 10.4512L33.5874 25.5222C33.5874 26.6304 33.1262 27.4741 32.1564 28.0456L19.5002 35.5437C18.4877 36.1434 17.5292 36.1625 16.5167 35.555L3.89191 28.0889C2.88278 27.4961 2.40128 26.6568 2.41028 25.4846L2.41816 17.9999ZM21.2096 17.8998L21.2062 14.4432C21.2006 13.7936 20.8203 13.3756 20.2387 13.3317C19.5603 13.2755 19.0687 13.7064 19.0507 14.4005L19.0417 16.6674C19.0327 17.1567 18.7132 17.4116 18.2711 17.3142C17.9066 17.2344 17.8098 16.9739 17.8121 16.6364L17.8155 13.6327C17.8172 13.2086 17.7013 12.8486 17.3233 12.6157C16.5538 12.1421 15.6617 12.6269 15.6369 13.5494L15.629 15.9867C15.6234 16.4334 15.4209 16.6471 15.0407 16.6606C14.6469 16.6741 14.3955 16.4384 14.369 15.9856L14.3634 15.1419C14.3437 14.6727 14.1058 14.3544 13.6738 14.2081C12.9425 13.9516 12.2366 14.4376 12.2225 15.224L12.2135 17.3784C12.2045 17.7699 11.9733 17.9842 11.6184 17.9949C11.2539 18.0061 11.0233 17.807 10.9715 17.4251C10.9563 17.3137 10.9715 17.1972 10.958 17.0859C10.8905 16.5262 10.4225 16.1004 9.88928 16.1071C9.34928 16.1127 8.8374 16.5402 8.8239 17.0892L8.82503 20.4896C8.84022 21.0521 9.3504 21.4722 9.88703 21.4717C10.4327 21.47 10.886 21.0588 10.9558 20.4929C10.9727 20.3624 10.922 20.1987 10.9839 20.1031C11.1077 19.913 11.2618 19.6773 11.4536 19.6154C11.6201 19.5614 11.9064 19.6683 12.0442 19.8027C12.168 19.9226 12.2062 20.174 12.209 20.3697L12.2203 23.7132C12.2315 24.5277 13.0708 25.0295 13.7908 24.6661C14.2003 24.4591 14.3724 24.1171 14.3679 23.6491L14.3634 19.2279C14.3645 18.5405 14.5693 18.2322 15.017 18.239C15.4445 18.2446 15.6358 18.5315 15.6358 19.1941L15.6386 21.1775C15.6521 21.866 16.0807 22.3025 16.7096 22.3149C17.3576 22.3222 17.8031 21.8649 17.8155 21.1505L17.82 19.6205C17.829 19.157 18.0596 18.9022 18.4398 18.9095C18.8201 18.9168 19.0428 19.1694 19.049 19.6323L19.0563 21.389C19.0777 22.0246 19.5423 22.4577 20.1515 22.4482C20.7798 22.4381 21.2045 21.9948 21.2107 21.3024L21.2135 17.8992L21.2096 17.8998ZM24.633 19.1013L24.6313 17.1764C24.6234 16.5222 24.2173 16.0919 23.6036 16.0683C22.9623 16.043 22.4786 16.4159 22.4707 17.0656L22.478 21.1409C22.4949 21.7726 23.0147 22.1883 23.6075 22.1546C24.2263 22.1186 24.6228 21.6866 24.6324 21.0279L24.6335 19.103L24.633 19.1013ZM25.8941 19.6368L25.8952 20.1453C25.9233 20.7269 26.3216 21.1297 26.8931 21.1612C27.4989 21.1949 27.9787 20.8265 28.0361 20.2342C28.0735 19.8402 28.0732 19.4435 28.035 19.0496C27.9787 18.4646 27.4725 18.0686 26.8987 18.1034C26.339 18.1372 25.9278 18.5546 25.8941 19.1272C25.884 19.2959 25.893 19.4664 25.893 19.6357L25.8941 19.6368Z" fill="white"/>
<path d="M21.2092 17.9062L21.2064 21.3065C21.1991 21.9984 20.7755 22.4428 20.1472 22.4523C19.538 22.4625 19.0784 22.0293 19.052 21.3932L19.0447 19.6365C19.0391 19.1741 18.8163 18.9198 18.4355 18.9137C18.0547 18.9075 17.8246 19.1612 17.8156 19.6247L17.8111 21.1547C17.7988 21.8634 17.3533 22.3263 16.7053 22.319C16.0764 22.3117 15.6478 21.869 15.6343 21.1817L15.6371 19.1983C15.6359 18.5357 15.4514 18.2488 15.0183 18.2432C14.5711 18.2375 14.3658 18.5447 14.3647 19.232L14.3692 23.6533C14.3737 24.1213 14.2016 24.4633 13.7921 24.6703C13.0721 25.0337 12.2339 24.5319 12.2216 23.7174L12.2103 20.3739C12.2075 20.1793 12.1698 19.9267 12.0455 19.8069C11.906 19.673 11.6208 19.5667 11.4549 19.6196C11.2636 19.6758 11.1095 19.9166 10.9852 20.1073C10.9289 20.2029 10.9728 20.366 10.9571 20.4971C10.8868 21.0624 10.4339 21.4747 9.88832 21.4758C9.3517 21.4775 8.84095 21.05 8.82632 20.4937L8.8252 17.0934C8.83982 16.5444 9.35001 16.118 9.89057 16.1113C10.4249 16.1057 10.8918 16.5309 10.9593 17.09C10.9728 17.2014 10.9576 17.3178 10.9728 17.4292C11.0291 17.8106 11.2541 18.0097 11.6197 17.999C11.9741 17.9878 12.2058 17.774 12.2148 17.3825L12.2238 15.2282C12.2384 14.4418 12.9438 13.9569 13.6751 14.2123C14.1071 14.3642 14.3501 14.6769 14.3647 15.146L14.3703 15.9898C14.3962 16.437 14.6431 16.6738 15.0419 16.6648C15.4216 16.6513 15.6241 16.437 15.6303 15.9909L15.6382 13.5536C15.6635 12.6311 16.5551 12.1462 17.3246 12.6198C17.7037 12.8527 17.8196 13.2127 17.8168 13.6368L17.8134 16.6406C17.8117 16.977 17.909 17.238 18.2724 17.3184C18.7151 17.4163 19.0346 17.1609 19.043 16.6715L19.052 14.4047C19.07 13.7105 19.5616 13.2797 20.24 13.3359C20.8205 13.3798 21.2002 13.7972 21.2075 14.4474L21.2109 17.9068L21.2092 17.9062ZM24.6326 19.1083L24.6309 21.0332C24.6208 21.6913 24.2203 22.1244 23.606 22.1598C23.0131 22.1936 22.4923 21.7785 22.4765 21.1462L22.4692 17.0709C22.4844 16.4212 22.9625 16.0483 23.6021 16.0736C24.2208 16.0978 24.6219 16.5281 24.6298 17.1817L24.6326 19.1066V19.1083ZM25.8937 19.6427L25.8954 19.1342C25.928 18.5604 26.3454 18.1442 26.9 18.1104C27.4794 18.0755 27.9811 18.4715 28.0363 19.0565C28.0734 19.448 28.0756 19.844 28.0374 20.2412C27.98 20.8335 27.5002 21.2013 26.8944 21.1682C26.3229 21.1367 25.9241 20.7333 25.8965 20.1523C25.8875 19.9835 25.8948 19.8131 25.8948 19.6438L25.8937 19.6427Z" fill="#0351C1"/>
</g>
<defs>
<clipPath id="clip0">
<rect width="36" height="36" fill="white"/>
</clipPath>
</defs>
</svg>
