<svg width="30" height="30" viewBox="0 0 30 30" fill="none" xmlns="http://www.w3.org/2000/svg">
<g clip-path="url(#clip0)">
<path d="M27.1764 11.8713L6.55091 0.485421C5.34371 -0.180039 3.91344 -0.161293 2.72686 0.541657C1.60776 1.20337 0.94043 2.35246 0.94043 3.61589V26.384C0.94043 27.6493 1.60964 28.7984 2.72874 29.4601C3.33796 29.82 4.01092 30 4.68575 30C5.32497 30 5.96418 29.8388 6.55279 29.5126L27.1783 18.1304C28.3574 17.4781 29.0622 16.3084 29.0603 14.9981C29.0603 13.6896 28.3555 12.5218 27.1764 11.8713ZM26.2691 16.4902L5.64551 27.8724C5.02504 28.2135 4.29022 28.2042 3.681 27.8443C3.12989 27.52 2.81496 26.9876 2.81496 26.384V3.61589C2.81496 3.01229 3.12989 2.47993 3.67725 2.15563C3.99217 1.97005 4.33896 1.8782 4.68575 1.8782C5.01379 1.8782 5.34184 1.96068 5.64364 2.12564L26.271 13.5134C26.8409 13.8284 27.1839 14.3851 27.1839 14.9999C27.1839 15.6148 26.8428 16.1734 26.2691 16.4902Z" fill="white"/>
<path d="M22.9546 19.0546L3.38447 1.00093C3.00394 0.652269 2.41159 0.674763 2.05917 1.05529C1.70864 1.43582 1.73113 2.02818 2.11166 2.37872L21.6818 20.4305C21.8618 20.5973 22.0905 20.6798 22.3173 20.6798C22.5703 20.6798 22.8215 20.5805 23.0071 20.378C23.3595 19.9975 23.3351 19.4051 22.9546 19.0546Z" fill="white"/>
<path d="M21.9103 9.01634C21.5447 8.6508 20.9505 8.6508 20.585 9.01634L2.02708 27.5724C1.66155 27.9379 1.66155 28.5321 2.02708 28.8977C2.21078 29.0795 2.45073 29.1713 2.69067 29.1713C2.93061 29.1713 3.17055 29.0795 3.35238 28.8977L21.9103 10.3416C22.2758 9.9761 22.2758 9.38187 21.9103 9.01634Z" fill="white"/>
</g>
<defs>
<clipPath id="clip0">
<rect width="30" height="30" fill="white"/>
</clipPath>
</defs>
</svg>
