<svg width="36" height="36" viewBox="0 0 36 36" fill="none" xmlns="http://www.w3.org/2000/svg">
<path d="M18 36C8.0835 36.027 0.0255 28.0065 0 18.0915V18C0 8.025 8.0265 0 18 0C27.9735 0 36 8.025 36 18C36 27.9735 27.9735 36 18 36ZM18 28.8735L19.35 27.525L18 22.35L16.65 27.525L18 28.8735ZM16.275 28.7985L15.6 31.35L17.175 29.772L16.275 28.7985ZM19.725 28.7985L18.825 29.7L20.4 31.2765L19.725 28.7985ZM21 33.4515L18 30.45L15 33.4515C15.975 33.6015 16.95 33.75 18 33.75C19.05 33.75 20.025 33.675 21 33.4515ZM18 2.25C9.3015 2.25 2.25 9.3015 2.25 18C2.238 24.702 6.4875 30.669 12.8265 32.8485L16.2015 20.3235C15.435 19.7655 14.988 18.8715 15 17.9235C15 16.272 16.35 14.922 18 14.922C19.65 14.922 21 16.272 21 17.9235C21 18.897 20.5485 19.7235 19.7985 20.3235L23.1735 32.8485C29.514 30.669 33.7635 24.7005 33.75 18C33.75 9.3015 26.6985 2.25 18 2.25ZM28.275 25.8C27.8925 26.2785 27.204 26.3775 26.7015 26.025C26.232 25.7145 26.1015 25.083 26.4105 24.6135C26.4315 24.582 26.4525 24.5535 26.4765 24.5235C26.4765 24.5235 28.5015 21.825 28.5015 17.9985C28.5015 14.172 26.4765 11.4735 26.4765 11.4735C26.118 11.04 26.1795 10.395 26.613 10.038C26.643 10.014 26.6715 9.9915 26.703 9.972C27.2055 9.6195 27.894 9.7185 28.2765 10.197C28.4265 10.3485 30.7515 13.422 30.7515 17.997C30.7515 22.572 28.4235 25.65 28.275 25.8ZM22.7985 22.875C22.3485 22.425 22.425 21.6 22.875 21.15C22.875 21.15 24 19.9515 24 18C24 16.0485 22.875 14.9235 22.875 14.85C22.425 14.3985 22.425 13.6485 22.7985 13.125C23.1465 12.6705 23.7975 12.5895 24.252 12.9375C24.2955 12.9705 24.336 13.008 24.375 13.0485C24.4515 13.125 26.25 15 26.25 18C26.25 21 24.4515 22.875 24.375 22.9515C23.9235 23.4 23.25 23.3265 22.7985 22.875ZM13.2015 22.875C12.75 23.3265 12.0765 23.4 11.625 22.9515C11.5485 22.7985 9.75 21 9.75 18C9.75 15 11.5485 13.2015 11.625 13.0485C12.0765 12.6 12.8265 12.6 13.2015 13.125C13.6515 13.575 13.575 14.4 13.125 14.85C13.125 14.9235 12 16.0485 12 18C12 19.9515 13.125 21.15 13.125 21.15C13.575 21.6 13.6515 22.3485 13.2015 22.875ZM9.2985 26.0265C8.796 26.3775 8.1075 26.28 7.7235 25.8015C7.5765 25.65 5.25 22.575 5.25 18C5.25 13.425 7.5765 10.35 7.7235 10.2C8.1075 9.7215 8.796 9.621 9.2985 9.975C9.768 10.284 9.8985 10.917 9.5895 11.3865C9.57 11.4165 9.5475 11.4465 9.525 11.475C9.525 11.475 7.5 14.1735 7.5 18C7.5 21.8265 9.525 24.525 9.525 24.525C9.9 24.975 9.75 25.65 9.2985 26.0265Z" fill="white"/>
</svg>
