<svg width="36" height="16" viewBox="0 0 36 16" fill="none" xmlns="http://www.w3.org/2000/svg">
<path d="M0.551059 13.7728C0.539099 13.8553 0.481512 13.9143 0.40665 13.9143C0.331787 13.9143 0.2742 13.8553 0.262683 13.771L0 11.7592L0.262683 9.71378C0.273757 9.62856 0.331344 9.56963 0.40665 9.56963C0.481069 9.56963 0.538656 9.62856 0.551059 9.71378L0.863798 11.7614L0.551059 13.7728ZM1.88928 14.995C1.87688 15.0825 1.81486 15.1437 1.73823 15.1437C1.66381 15.1437 1.59869 15.0825 1.5885 14.995L1.23501 11.7587L1.5885 8.44992C1.59913 8.3647 1.66381 8.30123 1.73823 8.30123C1.81486 8.30123 1.87688 8.36334 1.88928 8.44992L2.2915 11.7587L1.88928 14.995ZM3.33337 15.543C3.32319 15.6482 3.24611 15.723 3.15353 15.723C3.05784 15.723 2.9821 15.6482 2.97279 15.543L2.63746 11.7614L2.97279 7.83612C2.98121 7.72959 3.05784 7.65343 3.15353 7.65343C3.24611 7.65343 3.32274 7.72959 3.33337 7.83612L3.71389 11.7614L3.33337 15.543ZM4.79164 15.6632C4.78101 15.7838 4.68887 15.8749 4.57946 15.8749C4.46739 15.8749 4.37569 15.7838 4.36639 15.6632L4.04966 11.7614L4.36639 7.72823C4.37569 7.60674 4.46739 7.51562 4.57946 7.51562C4.68887 7.51562 4.78101 7.60674 4.79164 7.72823L5.15089 11.7614L4.79164 15.6632ZM6.25788 15.6945C6.25035 15.8345 6.1436 15.9383 6.01735 15.9383C5.88712 15.9383 5.7839 15.8345 5.77504 15.6945L5.47559 11.761L5.77504 8.01927C5.78435 7.8801 5.88712 7.77628 6.01735 7.77628C6.14581 7.77628 6.25035 7.8801 6.25788 8.01745L6.5972 11.761L6.25788 15.6945ZM7.7383 15.6967V15.6945C7.72944 15.8495 7.60939 15.9719 7.46499 15.9719C7.32013 15.9719 7.20009 15.849 7.19167 15.6967L6.91216 11.7633L7.19167 5.67559C7.20009 5.52056 7.32013 5.39816 7.46499 5.39816C7.60984 5.39816 7.72988 5.52101 7.7383 5.67332L8.05503 11.7633L7.7383 15.6967ZM9.20764 15.6945V15.6922C9.19878 15.8635 9.06633 16 8.90243 16C8.74164 16 8.60874 15.8635 8.60077 15.6922L8.33676 11.7841L8.60077 4.30384C8.60874 4.13248 8.74164 3.99694 8.90243 3.99694C9.06633 3.99694 9.19878 4.13248 9.20764 4.30384L9.50488 11.7841L9.20764 15.6945ZM10.7319 15.6342V15.6319C10.7253 15.8227 10.5786 15.971 10.3984 15.971C10.2181 15.971 10.0714 15.8228 10.0648 15.6342L9.81983 11.766C9.81983 11.766 10.0648 3.66239 10.0648 3.66012C10.0719 3.47154 10.2181 3.32058 10.3984 3.32058C10.5786 3.32058 10.7257 3.47154 10.7319 3.66012L11.0088 11.766L10.7319 15.6342ZM12.2473 15.6083C12.2402 15.816 12.0812 15.9787 11.8832 15.9787C11.6848 15.9787 11.5257 15.816 11.5186 15.6101L11.2901 11.7651L11.5186 3.38858C11.5257 3.18005 11.6848 3.01777 11.8832 3.01777C12.0812 3.01777 12.2407 3.18005 12.2473 3.38858L12.5011 11.7651L12.2473 15.6083ZM13.7725 15.5743V15.5721C13.7654 15.7965 13.594 15.9746 13.3765 15.9746C13.1621 15.9746 12.9871 15.7965 12.9831 15.5743L12.7731 11.766L12.9809 3.60346C12.9871 3.37589 13.1616 3.2 13.3765 3.2C13.594 3.2 13.7654 3.37589 13.7725 3.60346L14.0081 11.766L13.7725 15.5743ZM15.31 15.5517V15.5485C15.3065 15.7928 15.1178 15.981 14.8848 15.981C14.65 15.981 14.464 15.7928 14.4569 15.5517L14.2673 11.7655L14.4573 3.90174C14.4644 3.65785 14.6505 3.46701 14.8852 3.46701C15.1182 3.46701 15.3069 3.65785 15.3105 3.90174L15.5253 11.7678L15.31 15.5517ZM16.8786 15.1523L16.8596 15.5231C16.8573 15.6523 16.8042 15.7693 16.7231 15.8536C16.6398 15.9365 16.5256 15.9896 16.4046 15.9896C16.2638 15.9896 16.1397 15.9234 16.0547 15.8191C15.9918 15.7434 15.9528 15.6455 15.9484 15.5426C15.947 15.5381 15.947 15.5322 15.947 15.5258C15.947 15.5258 15.7721 11.7696 15.7721 11.7633L15.9448 2.49599L15.947 2.40714C15.9484 2.24485 16.0325 2.10024 16.1583 2.01728C16.2288 1.96923 16.312 1.94113 16.4051 1.94113C16.4963 1.94113 16.5827 1.97014 16.6549 2.02136C16.7776 2.10523 16.8578 2.24621 16.86 2.40759L17.0523 11.7678L16.8786 15.1523ZM18.4029 15.4746V15.4701C18.3998 15.7439 18.1805 15.9669 17.9156 15.9669C17.6498 15.9669 17.431 15.7439 17.4283 15.4723L17.3278 13.6454L17.229 11.7696L17.4283 1.61247V1.56124C17.4288 1.40711 17.4997 1.2693 17.6091 1.17637C17.6928 1.10611 17.8004 1.06349 17.9156 1.06349C18.0073 1.06349 18.0924 1.08933 18.165 1.13285C18.3037 1.2217 18.4007 1.37901 18.4051 1.55897L18.6208 11.7691L18.4029 15.4746ZM31.5738 15.9769C31.5738 15.9769 19.311 15.9769 19.2981 15.9769C19.0332 15.9492 18.8237 15.7334 18.8193 15.4556V1.07437C18.8237 0.809633 18.9127 0.673183 19.2459 0.542173C20.1057 0.201275 21.0793 0 22.08 0C26.162 0 29.5069 3.20453 29.8617 7.2867C30.3871 7.0623 30.9674 6.93447 31.5738 6.93447C34.0181 6.93447 36 8.96353 36 11.4668C36 13.9696 34.0181 15.9769 31.5738 15.9769Z" fill="white"/>
</svg>
