<svg width="36" height="23" viewBox="0 0 36 23" fill="none" xmlns="http://www.w3.org/2000/svg">
<path d="M35.1004 4.77499C28.0418 1.60647 20.5093 0 12.7117 0C8.83477 0 4.96337 0.407766 1.20462 1.21219C0.381944 1.38791 -0.142044 2.1975 0.0340731 3.02017C0.209793 3.84284 1.01938 4.36762 1.84205 4.19111C5.39176 3.43151 9.04897 3.04635 12.7117 3.04635C20.0765 3.04635 27.1894 4.56318 33.8525 7.55439C34.0552 7.64523 34.267 7.68846 34.4757 7.68846C35.0572 7.68846 35.6125 7.35328 35.866 6.78844C36.2107 6.0209 35.8675 5.11969 35.1004 4.77499Z" fill="white"/>
<path d="M28.7762 19.1259C23.7145 16.838 18.3092 15.6777 12.7111 15.6777C9.7322 15.6777 6.7636 16.0149 3.88662 16.6793C3.06712 16.8685 2.55622 17.6864 2.74543 18.5059C2.93464 19.3258 3.75295 19.8367 4.57245 19.6475C7.22451 19.0347 9.96266 18.7241 12.7111 18.7241C17.8736 18.7241 22.8565 19.7931 27.5216 21.9017C27.7251 21.9941 27.9381 22.0374 28.1479 22.0374C28.7282 22.0374 29.2824 21.7042 29.537 21.1413C29.8833 20.375 29.543 19.4726 28.7762 19.1259Z" fill="white"/>
<path d="M31.9887 11.8364C25.9127 9.10108 19.4269 7.71436 12.7114 7.71436C9.27634 7.71436 5.8488 8.08682 2.524 8.82143C1.70252 9.0031 1.18369 9.81626 1.36536 10.6373C1.54703 11.4588 2.36018 11.9781 3.18127 11.796C6.29068 11.109 9.49728 10.7607 12.7114 10.7607C18.9925 10.7607 25.0579 12.057 30.7384 14.6143C30.9411 14.7055 31.1537 14.7487 31.3628 14.7487C31.9435 14.7487 32.4984 14.4147 32.7527 13.8503C33.0978 13.0835 32.7558 12.1819 31.9887 11.8364Z" fill="white"/>
</svg>
