<svg width="165" height="47" viewBox="0 0 165 47" fill="none" xmlns="http://www.w3.org/2000/svg">
<path d="M148.898 11.9239C150.185 13.0921 151.369 14.3408 152.442 15.6607L152.144 15.8545C151.079 14.5328 149.902 13.2827 148.621 12.1137L148.898 11.9239Z" fill="#337AB7"/>
<path d="M140.039 5.92342C141.667 6.74735 143.223 7.66379 144.7 8.66701L144.464 8.91825C142.993 7.92238 141.441 7.01552 139.817 6.20368L140.039 5.92342Z" fill="#337AB7"/>
<path d="M129.521 2.18607C131.373 2.60488 133.184 3.12767 134.943 3.75115L134.789 4.04362C133.043 3.42305 131.245 2.9021 129.406 2.48401L129.521 2.18607Z" fill="#337AB7"/>
<path d="M118.006 1.07832C119.956 1.0085 121.9 1.06609 123.822 1.25058L123.762 1.56343C121.857 1.37578 119.929 1.31506 117.995 1.38178L118.006 1.07832Z" fill="#337AB7"/>
<path d="M112.185 1.76114L112.241 2.06469C110.335 2.42258 108.464 2.9376 106.654 3.60234L106.527 3.31826C108.36 2.64672 110.255 2.12523 112.185 1.76114Z" fill="#337AB7"/>
<path d="M101.285 5.79043L101.494 6.03418L100.696 6.54094C100.17 6.87138 99.6239 7.21191 99.1276 7.58082C98.3869 8.11464 97.647 8.69229 96.9282 9.30369L96.6795 9.08621C97.4054 8.47347 98.1514 7.8884 98.8982 7.34717C99.4089 6.97557 99.9611 6.62764 100.487 6.29721C100.76 6.12694 101.027 5.96408 101.285 5.79043Z" fill="#337AB7"/>
<path d="M89.4602 17.2482L92.9811 13.1123L92.6915 12.9396L89.1706 17.0756L89.4602 17.2482Z" fill="#337AB7"/>
<path d="M82.7242 25.7078L86.1414 21.5116L85.8471 21.3447L82.4298 25.5409L82.7242 25.7078Z" fill="#337AB7"/>
<path d="M78.6941 29.5129L78.9609 29.7082C77.6398 30.9973 76.2377 32.2511 74.8127 33.4214L74.564 33.2039C75.9902 32.0397 77.379 30.7946 78.6941 29.5129Z" fill="#337AB7"/>
<path d="M70.075 36.5659L70.2901 36.8022C68.7208 37.8685 67.093 38.8681 65.4131 39.7969L65.2306 39.5356C66.9004 38.6163 68.5174 37.625 70.075 36.5659Z" fill="#337AB7"/>
<path d="M60.06 42.0321L60.2017 42.3135C58.4059 43.0706 56.5621 43.7311 54.6816 44.291L54.5819 43.9955C56.4491 43.442 58.2791 42.7861 60.06 42.0321Z" fill="#337AB7"/>
<path d="M43.1717 45.9652L46.076 45.7505L48.9597 45.345L48.9947 45.6525L46.1039 46.0594L43.178 46.2781L43.1717 45.9652Z" fill="#337AB7"/>
<path d="M31.8279 44.7814C33.6507 45.2359 35.5217 45.5636 37.4234 45.7613L37.3544 46.0694C35.4368 45.8695 33.5502 45.5384 31.7124 45.0793L31.8279 44.7814Z" fill="#337AB7"/>
<path d="M21.7147 40.5853C23.2323 41.5272 24.8486 42.3524 26.5463 43.0519L26.3688 43.3363C24.6554 42.6286 23.0247 41.7934 21.4945 40.84L21.7147 40.5853Z" fill="#337AB7"/>
<path d="M14.2022 33.5487C15.1462 34.9356 16.2614 36.2266 17.53 37.4013L17.2516 37.6228C15.9704 36.4298 14.8442 35.1199 13.8909 33.7135L14.2022 33.5487Z" fill="#337AB7"/>
<path d="M10.6745 24.356L11.0334 24.3268C11.1063 25.9665 11.4194 27.5795 11.9655 29.1284L11.6202 29.2305C11.0624 27.6589 10.7446 26.0211 10.6745 24.356Z" fill="#337AB7"/>
<path d="M13.9249 14.748L14.2099 14.921C13.0337 16.2827 12.1718 17.8141 11.6742 19.4267L11.327 19.3595C11.8355 17.7085 12.7188 16.1407 13.9249 14.748Z" fill="#337AB7"/>
<path d="M22.2111 10.138C22.8609 10.0142 23.519 9.93994 24.1772 9.91602L24.1751 10.2242C22.2538 10.3133 20.3572 10.7939 18.6443 11.6257L18.4822 11.3544C19.6576 10.7938 20.9147 10.3837 22.2111 10.138Z" fill="#337AB7"/>
<path d="M29.7312 11.1927C31.3258 12.1367 32.4822 13.5209 33.0234 15.1335L32.6721 15.243C32.1599 13.6855 31.0508 12.3469 29.516 11.4338L29.7312 11.1927Z" fill="#337AB7"/>
<path d="M32.9622 20.07L33.3252 20.1029C32.9998 21.7808 32.2921 23.4072 31.2431 24.8884L30.9327 24.7389C31.9566 23.2941 32.6464 21.7071 32.9622 20.07Z" fill="#337AB7"/>
<path d="M26.8957 28.3308L27.071 28.5934C25.3272 29.4776 23.3919 30.0167 21.4164 30.1687L21.3969 29.8645C23.3173 29.7115 25.198 29.1869 26.8957 28.3308Z" fill="#337AB7"/>
<path d="M10.6437 27.4211C12.1983 28.3096 13.9133 28.9872 15.7324 29.4315L15.6169 29.7295C13.7632 29.2801 12.0159 28.5915 10.433 27.6866L10.6437 27.4211Z" fill="#337AB7"/>
<path d="M3.50716 20.2077C4.26369 21.6831 5.26876 23.0462 6.49225 24.256L6.2044 24.4667C4.97569 23.2289 3.96598 21.8398 3.20455 20.3395L3.50716 20.2077Z" fill="#337AB7"/>
<path d="M1 10.7053L1.36833 10.687C1.36731 12.3343 1.54019 13.9694 1.88484 15.5723L1.52556 15.6393C1.17828 14.0202 1.00239 12.369 1 10.7053Z" fill="#337AB7"/>
<path d="M2.44072 0.762512L2.7916 0.810182C2.3264 2.54278 1.9868 4.15146 1.74667 5.73532L1.38593 5.7146C1.63807 4.05462 1.99015 2.40171 2.44072 0.762512Z" fill="#337AB7"/>
<path d="M148.898 11.9239C150.185 13.0921 151.369 14.3408 152.442 15.6607L152.144 15.8545C151.079 14.5328 149.902 13.2827 148.621 12.1137L148.898 11.9239Z" stroke="#337AB7" stroke-width="0.5"/>
<path d="M140.039 5.92342C141.667 6.74735 143.223 7.66379 144.7 8.66701L144.464 8.91825C142.993 7.92238 141.441 7.01552 139.817 6.20368L140.039 5.92342Z" stroke="#337AB7" stroke-width="0.5"/>
<path d="M129.521 2.18607C131.373 2.60488 133.184 3.12767 134.943 3.75115L134.789 4.04362C133.043 3.42305 131.245 2.9021 129.406 2.48401L129.521 2.18607Z" stroke="#337AB7" stroke-width="0.5"/>
<path d="M118.006 1.07832C119.956 1.0085 121.9 1.06609 123.822 1.25058L123.762 1.56343C121.857 1.37578 119.929 1.31506 117.995 1.38178L118.006 1.07832Z" stroke="#337AB7" stroke-width="0.5"/>
<path d="M112.185 1.76114L112.241 2.06469C110.335 2.42258 108.464 2.9376 106.654 3.60234L106.527 3.31826C108.36 2.64672 110.255 2.12523 112.185 1.76114Z" stroke="#337AB7" stroke-width="0.5"/>
<path d="M101.285 5.79043L101.494 6.03418L100.696 6.54094C100.17 6.87138 99.6239 7.21191 99.1276 7.58082C98.3869 8.11464 97.647 8.69229 96.9282 9.30369L96.6795 9.08621C97.4054 8.47347 98.1514 7.8884 98.8982 7.34717C99.4089 6.97557 99.9611 6.62764 100.487 6.29721C100.76 6.12694 101.027 5.96408 101.285 5.79043Z" stroke="#337AB7" stroke-width="0.5"/>
<path d="M89.4602 17.2482L92.9811 13.1123L92.6915 12.9396L89.1706 17.0756L89.4602 17.2482Z" stroke="#337AB7" stroke-width="0.5"/>
<path d="M82.7242 25.7078L86.1414 21.5116L85.8471 21.3447L82.4298 25.5409L82.7242 25.7078Z" stroke="#337AB7" stroke-width="0.5"/>
<path d="M78.6941 29.5129L78.9609 29.7082C77.6398 30.9973 76.2377 32.2511 74.8127 33.4214L74.564 33.2039C75.9902 32.0397 77.379 30.7946 78.6941 29.5129Z" stroke="#337AB7" stroke-width="0.5"/>
<path d="M70.075 36.5659L70.2901 36.8022C68.7208 37.8685 67.093 38.8681 65.4131 39.7969L65.2306 39.5356C66.9004 38.6163 68.5174 37.625 70.075 36.5659Z" stroke="#337AB7" stroke-width="0.5"/>
<path d="M60.06 42.0321L60.2017 42.3135C58.4059 43.0706 56.5621 43.7311 54.6816 44.291L54.5819 43.9955C56.4491 43.442 58.2791 42.7861 60.06 42.0321Z" stroke="#337AB7" stroke-width="0.5"/>
<path d="M43.1717 45.9652L46.076 45.7505L48.9597 45.345L48.9947 45.6525L46.1039 46.0594L43.178 46.2781L43.1717 45.9652Z" stroke="#337AB7" stroke-width="0.5"/>
<path d="M31.8279 44.7814C33.6507 45.2359 35.5217 45.5636 37.4234 45.7613L37.3544 46.0694C35.4368 45.8695 33.5502 45.5384 31.7124 45.0793L31.8279 44.7814Z" stroke="#337AB7" stroke-width="0.5"/>
<path d="M21.7147 40.5853C23.2323 41.5272 24.8486 42.3524 26.5463 43.0519L26.3688 43.3363C24.6554 42.6286 23.0247 41.7934 21.4945 40.84L21.7147 40.5853Z" stroke="#337AB7" stroke-width="0.5"/>
<path d="M14.2022 33.5487C15.1462 34.9356 16.2614 36.2266 17.53 37.4013L17.2516 37.6228C15.9704 36.4298 14.8442 35.1199 13.8909 33.7135L14.2022 33.5487Z" stroke="#337AB7" stroke-width="0.5"/>
<path d="M10.6745 24.356L11.0334 24.3268C11.1063 25.9665 11.4194 27.5795 11.9655 29.1284L11.6202 29.2305C11.0624 27.6589 10.7446 26.0211 10.6745 24.356Z" stroke="#337AB7" stroke-width="0.5"/>
<path d="M13.9249 14.748L14.2099 14.921C13.0337 16.2827 12.1718 17.8141 11.6742 19.4267L11.327 19.3595C11.8355 17.7085 12.7188 16.1407 13.9249 14.748Z" stroke="#337AB7" stroke-width="0.5"/>
<path d="M22.2111 10.138C22.8609 10.0142 23.519 9.93994 24.1772 9.91602L24.1751 10.2242C22.2538 10.3133 20.3572 10.7939 18.6443 11.6257L18.4822 11.3544C19.6576 10.7938 20.9147 10.3837 22.2111 10.138Z" stroke="#337AB7" stroke-width="0.5"/>
<path d="M29.7312 11.1927C31.3258 12.1367 32.4822 13.5209 33.0234 15.1335L32.6721 15.243C32.1599 13.6855 31.0508 12.3469 29.516 11.4338L29.7312 11.1927Z" stroke="#337AB7" stroke-width="0.5"/>
<path d="M32.9622 20.07L33.3252 20.1029C32.9998 21.7808 32.2921 23.4072 31.2431 24.8884L30.9327 24.7389C31.9566 23.2941 32.6464 21.7071 32.9622 20.07Z" stroke="#337AB7" stroke-width="0.5"/>
<path d="M26.8957 28.3308L27.071 28.5934C25.3272 29.4776 23.3919 30.0167 21.4164 30.1687L21.3969 29.8645C23.3173 29.7115 25.198 29.1869 26.8957 28.3308Z" stroke="#337AB7" stroke-width="0.5"/>
<path d="M10.6437 27.4211C12.1983 28.3096 13.9133 28.9872 15.7324 29.4315L15.6169 29.7295C13.7632 29.2801 12.0159 28.5915 10.433 27.6866L10.6437 27.4211Z" stroke="#337AB7" stroke-width="0.5"/>
<path d="M3.50716 20.2077C4.26369 21.6831 5.26876 23.0462 6.49225 24.256L6.2044 24.4667C4.97569 23.2289 3.96598 21.8398 3.20455 20.3395L3.50716 20.2077Z" stroke="#337AB7" stroke-width="0.5"/>
<path d="M1 10.7053L1.36833 10.687C1.36731 12.3343 1.54019 13.9694 1.88484 15.5723L1.52556 15.6393C1.17828 14.0202 1.00239 12.369 1 10.7053Z" stroke="#337AB7" stroke-width="0.5"/>
<path d="M2.44072 0.762512L2.7916 0.810182C2.3264 2.54278 1.9868 4.15146 1.74667 5.73532L1.38593 5.7146C1.63807 4.05462 1.99015 2.40171 2.44072 0.762512Z" stroke="#337AB7" stroke-width="0.5"/>
<path d="M162.761 12.1802L150.801 6.68161C149.565 6.1132 148.102 6.6547 147.533 7.89109L144.15 15.2508C143.581 16.4872 144.123 17.9503 145.359 18.5187L157.319 24.0172C158.556 24.5856 160.019 24.0441 160.587 22.8077L163.971 15.4481C164.539 14.2117 163.998 12.7486 162.761 12.1802Z" fill="#4A90E2"/>
<path d="M164.501 14.3229L163.99 15.4933L154.078 15.3886L147.918 7.13439L148.097 6.75248C148.227 6.47231 148.463 6.25487 148.752 6.14756C149.042 6.04025 149.362 6.05177 149.643 6.17961L163.959 12.7645C164.097 12.831 164.221 12.9241 164.323 13.0385C164.425 13.1529 164.503 13.2863 164.554 13.4311C164.604 13.5759 164.625 13.7292 164.616 13.8823C164.607 14.0353 164.568 14.1851 164.501 14.3229V14.3229Z" fill="#7FD7E5"/>
<path d="M139.973 21.9968V37.0647C139.973 38.5097 138.798 39.6849 137.353 39.6849H121.517C120.072 39.6849 118.896 38.5097 118.896 37.0647V21.9968C118.896 20.552 120.072 19.3765 121.517 19.3765H137.353C138.798 19.3765 139.973 20.552 139.973 21.9968Z" fill="#FF671B"/>
<path d="M125.424 27.4269H123.122C122.907 27.4269 122.739 27.5956 122.739 27.8106V33.9478C122.739 34.1627 122.907 34.3314 123.122 34.3314H125.424C125.639 34.3314 125.807 34.1627 125.807 33.9478V27.8106C125.808 27.5956 125.639 27.4269 125.424 27.4269Z" fill="white"/>
<path d="M136.521 28.1539C136.521 27.5288 136.092 26.8962 135.272 26.8962H131.556C132.087 25.9466 132.243 24.6109 131.874 23.6336C131.603 22.9148 131.085 22.4953 130.415 22.4527L130.404 22.4518C129.968 22.425 129.59 22.7518 129.554 23.1874C129.458 24.1567 129.033 25.8712 128.425 26.4799C127.912 26.9924 127.474 27.2071 126.746 27.5627C126.641 27.6142 126.526 27.6703 126.404 27.7309C126.407 27.7572 126.408 27.7835 126.408 27.8105V33.8852C126.496 33.9153 126.582 33.9451 126.668 33.9743C127.868 34.388 128.905 34.7451 130.49 34.7451H133.495C134.315 34.7451 134.744 34.1123 134.744 33.4874C134.744 33.3019 134.706 33.116 134.631 32.9457C134.904 32.8966 135.143 32.7653 135.321 32.5643C135.522 32.3359 135.632 32.0323 135.632 31.7095C135.632 31.5247 135.595 31.3387 135.52 31.1689C136.179 31.0553 136.521 30.4903 136.521 29.9318C136.521 29.6079 136.406 29.2818 136.181 29.043C136.406 28.804 136.521 28.4778 136.521 28.1539Z" fill="white"/>
<path d="M139.973 43.1978L133.533 36.7576L139.973 36.7576L139.973 43.1978Z" fill="#FF671B"/>
<path d="M87.5338 19.8035L75.6398 35.3369L71.8511 31.0928L87.5338 19.8035Z" fill="#ABEFFF"/>
<path d="M87.8025 19.753L79.7354 43.4431L74.3985 36.0293L87.8025 19.753Z" fill="#7FD7E5"/>
<path d="M87.534 19.8035L63.6989 27.4324L71.0128 32.9037L87.534 19.8035Z" fill="#7FD7E5"/>
</svg>
