<svg width="40" height="40" viewBox="0 0 40 40" fill="none" xmlns="http://www.w3.org/2000/svg">
<path d="M18.0876 19.8663L0.382627 37.5713C-0.109248 38.0632 -0.109248 38.8601 0.382627 39.3519C0.628252 39.5982 0.950752 39.7207 1.27263 39.7207C1.59513 39.7207 1.917 39.5982 2.16263 39.3519L20.0008 21.5138L37.8389 39.3519C38.0851 39.5982 38.407 39.7207 38.7289 39.7207C39.0508 39.7207 39.3733 39.5982 39.6189 39.3519C40.1108 38.8601 40.1108 38.0632 39.6189 37.5713L21.9145 19.8663L39.6308 2.14882C40.1226 1.65694 40.1226 0.860068 39.6308 0.368193C39.1389 -0.123057 38.342 -0.123057 37.8508 0.368193L20.0014 18.2188L2.15013 0.368818C1.65825 -0.122432 0.862002 -0.122432 0.370127 0.368818C-0.121748 0.860693 -0.121748 1.65757 0.370127 2.14944L18.0876 19.8663Z" fill="#0351C1"/>
</svg>
