<svg width="20" height="20" viewBox="0 0 20 20" fill="none" xmlns="http://www.w3.org/2000/svg">
<path d="M14.9993 0.00416134L12.4058 0C9.49203 0 7.60905 1.9319 7.60905 4.92203V7.19141H5.00137C4.77604 7.19141 4.59357 7.37409 4.59357 7.59943V10.8875C4.59357 11.1128 4.77625 11.2953 5.00137 11.2953H7.60905V19.5922C7.60905 19.8175 7.79152 20 8.01685 20H11.4191C11.6445 20 11.8269 19.8173 11.8269 19.5922V11.2953H14.8759C15.1012 11.2953 15.2837 11.1128 15.2837 10.8875L15.285 7.59943C15.285 7.49123 15.2419 7.38762 15.1655 7.31105C15.0892 7.23448 14.9851 7.19141 14.877 7.19141H11.8269V5.26763C11.8269 4.34298 12.0473 3.87358 13.2518 3.87358L14.9989 3.87295C15.224 3.87295 15.4065 3.69027 15.4065 3.46514V0.411972C15.4065 0.187052 15.2242 0.00457747 14.9993 0.00416134Z" fill="white"/>
</svg>
