<svg width="20" height="20" viewBox="0 0 20 20" fill="none" xmlns="http://www.w3.org/2000/svg">
<path d="M20 12.1616V19.5557H15.7134V12.6568C15.7134 10.9238 15.0933 9.74103 13.5417 9.74103C12.3572 9.74103 11.6524 10.5381 11.3423 11.3092C11.2292 11.5848 11.2001 11.9685 11.2001 12.3543V19.5557H6.91198C6.91198 19.5557 6.96973 7.87126 6.91198 6.66066H11.1997V8.48848C11.191 8.50215 11.1797 8.5169 11.1715 8.53015H11.1997V8.48848C11.7693 7.61109 12.7867 6.35772 15.0638 6.35772C17.885 6.35767 20 8.20075 20 12.1616ZM2.42646 0.44458C0.959506 0.44458 0 1.40678 0 2.67211C0 3.90987 0.931746 4.90127 2.36954 4.90127H2.39818C3.89355 4.90127 4.82352 3.91006 4.82352 2.67211C4.79535 1.40678 3.89355 0.44458 2.42646 0.44458ZM0.254675 19.5557H4.54114V6.66066H0.254675V19.5557Z" fill="white"/>
</svg>
