<svg width="18" height="18" viewBox="0 0 18 18" fill="none" 
    xmlns="http://www.w3.org/2000/svg">
    <path opacity="0.8" d="M5.78336 5.05111C6.33348 4.09327 6.00295 2.87084 5.04512 2.32073C4.08728 1.77061 2.86485 2.10114 2.31473 3.05897C1.76462 4.01681 2.09514 5.23924 3.05298 5.78936C4.01082 6.33947 5.23325 6.00894 5.78336 5.05111Z" />
    <path opacity="0.4" d="M15.3625 15.3642C16.1436 14.5832 16.1436 13.3168 15.3625 12.5358C14.5815 11.7547 13.3151 11.7547 12.5341 12.5358C11.753 13.3168 11.753 14.5832 12.5341 15.3642C13.3151 16.1453 14.5815 16.1453 15.3625 15.3642Z" />
    <path opacity="0.1" d="M9 4C10.1046 4 11 3.10457 11 2C11 0.89543 10.1046 0 9 0C7.89543 0 7 0.89543 7 2C7 3.10457 7.89543 4 9 4Z"/>
    <path opacity="0.5" d="M9 18C10.1046 18 11 17.1046 11 16C11 14.8954 10.1046 14 9 14C7.89543 14 7 14.8954 7 16C7 17.1046 7.89543 18 9 18Z"/>
    <path opacity="0.2" d="M15.3621 5.46385C16.1432 4.6828 16.1432 3.41647 15.3621 2.63542C14.5811 1.85437 13.3148 1.85437 12.5337 2.63542C11.7527 3.41647 11.7527 4.6828 12.5337 5.46385C13.3148 6.2449 14.5811 6.2449 15.3621 5.46385Z" />
    <path opacity="0.6" d="M5.46212 15.3646C6.24317 14.5835 6.24317 13.3172 5.46212 12.5361C4.68107 11.7551 3.41474 11.7551 2.6337 12.5361C1.85265 13.3172 1.85265 14.5835 2.6337 15.3646C3.41474 16.1456 4.68107 16.1456 5.46212 15.3646Z" />
    <path opacity="0.3" d="M16 11C17.1046 11 18 10.1046 18 9C18 7.89543 17.1046 7 16 7C14.8954 7 14 7.89543 14 9C14 10.1046 14.8954 11 16 11Z"/>
    <path opacity="0.7" d="M2 11C3.10457 11 4 10.1046 4 9C4 7.89543 3.10457 7 2 7C0.89543 7 0 7.89543 0 9C0 10.1046 0.89543 11 2 11Z"/>
</svg>
