<svg width="140" height="140" viewBox="0 0 140 140" fill="none" xmlns="http://www.w3.org/2000/svg">
<path d="M110.645 13.0357V0H29.3548V13.0357C25.4352 15.8362 21.8066 19.0381 18.5386 22.5806H6.77419C3.03979 22.5806 0 25.6204 0 29.3548C0 33.0892 3.03979 36.129 6.77419 36.129H8.75662C3.03207 46.4645 0 58.0823 0 70C0 108.6 31.4034 140 70 140C108.597 140 140 108.6 140 70C140 47.3719 129.037 26.1827 110.645 13.0357ZM124.194 101.613H127.324C126.355 103.363 125.314 105.067 124.194 106.716V101.613ZM10.4094 97.0968C9.7346 95.6182 9.09731 94.1165 8.53059 92.5806H131.469C130.903 94.1165 130.265 95.6182 129.591 97.0968H10.4094ZM15.8065 106.716C14.6862 105.067 13.6454 103.363 12.6763 101.613H15.8065V106.716ZM15.8065 31.6129V27.0968H20.3226V31.6129H15.8065ZM24.8387 27.0968H62.5411L65.9282 29.3548L62.5411 31.6129H24.8387V27.0968ZM81.2903 33.871H96.9413C95.9181 42.0267 89.446 48.4966 81.2903 49.522V33.871ZM81.2903 29.3548V13.7038C89.446 14.727 95.9159 21.1991 96.9413 29.3548H81.2903ZM76.7742 45.2197C74.8822 43.7864 72.5513 42.9032 70 42.9032C68.4685 42.9032 67.012 43.2153 65.6801 43.7698C63.6933 41.589 62.2886 38.967 61.5576 36.129H63.9105L74.0718 29.3548L63.9105 22.5806H63.4199C66.2336 17.7282 71.1698 14.436 76.7742 13.727V45.2197ZM88.0645 88.0645H83.5484V83.5484H79.0323V88.0645H60.9677V83.5484H56.4516V88.0645H51.9355V81.8846C51.9355 79.8768 53.2839 78.0929 55.2101 77.5416L64.8267 74.794L70 79.9672L75.1733 74.794L84.7877 77.5416C86.7161 78.0929 88.0645 79.8768 88.0645 81.8846V88.0645ZM72.2581 71.3231L70 73.5811L67.7419 71.3231V69.7718C68.4718 69.9206 69.2282 70 70 70C70.7718 70 71.5282 69.9206 72.2581 69.7718V71.3231ZM70 65.4839C66.2656 65.4839 63.2258 62.4441 63.2258 58.7097V54.1936C63.2258 50.4591 66.2656 47.4194 70 47.4194C73.7344 47.4194 76.7742 50.4591 76.7742 54.1936V58.7097C76.7742 62.4441 73.7344 65.4839 70 65.4839ZM56.9059 36.129C57.2234 37.6892 57.7185 39.1975 58.3524 40.6452H42.9032V45.1613H60.9677V45.1459C61.2721 45.5494 61.5973 45.9408 61.9292 46.3245C60.9854 47.2904 60.2158 48.4238 59.6667 49.6774H42.9032V54.1936H58.7097V58.7097C58.7097 62.3834 60.5003 65.6217 63.2258 67.6835V70.5535L53.9697 73.1953C52.2585 73.6848 50.7976 74.6782 49.6774 75.9638C48.5572 74.6782 47.0963 73.6848 45.3851 73.1953L36.129 70.5557V67.6857C38.8546 65.6217 40.6452 62.3834 40.6452 58.7119V54.1958C40.6452 49.5782 37.8523 45.6111 33.871 43.8625V36.129H56.9059ZM36.129 54.1936V58.7097C36.129 62.4441 33.0892 65.4839 29.3548 65.4839C25.6204 65.4839 22.5806 62.4441 22.5806 58.7097V54.1936C22.5806 50.4591 25.6204 47.4194 29.3548 47.4194C33.0892 47.4194 36.129 50.4591 36.129 54.1936ZM29.3548 70C30.1266 70 30.883 69.9206 31.6129 69.7718V71.3231L29.3548 73.5811L27.0968 71.3231V69.7718C27.8267 69.9206 28.583 70 29.3548 70ZM24.1816 74.794L29.3548 79.9672L34.5281 74.794L44.1425 77.5416C46.0709 78.0929 47.4194 79.8768 47.4194 81.8846V88.0645H42.9032V83.5484H38.3871V88.0645H20.3226V83.5484H15.8065V88.0645H11.2903V81.8846C11.2903 79.8768 12.6388 78.0929 14.565 77.5416L24.1816 74.794ZM128.71 88.0645H124.194V83.5484H119.677V88.0645H101.613V83.5484H97.0968V88.0645H92.5806V81.8846C92.5806 79.8768 93.9291 78.0929 95.8553 77.5416L105.472 74.794L110.645 79.9672L115.818 74.794L125.433 77.5416C127.361 78.0929 128.71 79.8768 128.71 81.8846V88.0645ZM112.903 71.3231L110.645 73.5811L108.387 71.3231V69.7718C109.117 69.9206 109.873 70 110.645 70C111.417 70 112.173 69.9206 112.903 69.7718V71.3231ZM110.645 65.4839C106.911 65.4839 103.871 62.4441 103.871 58.7097V54.1936C103.871 50.4591 106.911 47.4194 110.645 47.4194C114.38 47.4194 117.419 50.4591 117.419 54.1936V58.7097C117.419 62.4441 114.38 65.4839 110.645 65.4839ZM106.129 4.51613V43.8603C102.148 45.6089 99.3548 49.576 99.3548 54.1936V58.7097C99.3548 62.3834 101.145 65.6217 103.871 67.6835V70.5535L94.6149 73.1953C92.9037 73.6848 91.4428 74.6782 90.3226 75.9638C89.2024 74.6782 87.7415 73.6848 86.0303 73.1953L76.7742 70.5557V67.6857C79.4997 65.6217 81.2903 62.3834 81.2903 58.7119V54.1958C81.2903 54.1572 81.2793 54.1208 81.2793 54.0833C92.6799 52.9498 101.613 43.3057 101.613 31.6129C101.613 19.1616 91.4836 9.03226 79.0323 9.03226C70.022 9.03226 61.9027 14.415 58.337 22.5806H33.871V4.51613H106.129ZM29.3548 18.6698V22.5806H24.8773C26.3128 21.2146 27.8013 19.9025 29.3548 18.6698ZM4.51613 29.3548C4.51613 28.1111 5.53049 27.0968 6.77419 27.0968H11.2903V31.6129H6.77419C5.53049 31.6129 4.51613 30.5985 4.51613 29.3548ZM13.9817 36.129H29.3548V42.9032C23.1297 42.9032 18.0645 47.9684 18.0645 54.1936V58.7097C18.0645 62.3834 19.8551 65.6217 22.5806 67.6835V70.5535L13.3246 73.1953C9.46777 74.2989 6.77419 77.8713 6.77419 81.8846V87.0237C5.31108 81.5924 4.51613 75.8888 4.51613 70C4.51613 58.0007 7.80399 46.3267 13.9817 36.129ZM70 135.484C50.1471 135.484 32.3428 126.592 20.3226 112.591V110.645H101.613V106.129H20.3226V101.613H119.677V106.129H106.129V110.645H119.677V112.591C107.657 126.592 89.8529 135.484 70 135.484ZM133.226 87.0237V81.8846C133.226 77.8735 130.532 74.3011 126.675 73.1975L117.419 70.5557V67.6857C120.145 65.6217 121.935 62.3834 121.935 58.7119V54.1958C121.935 47.9706 116.87 42.9054 110.645 42.9054V18.6654C126.271 31.0528 135.484 49.9255 135.484 70C135.484 75.8888 134.689 81.5924 133.226 87.0237ZM42.9032 13.5484H38.3871V9.03226H42.9032V13.5484ZM51.9355 13.5484H47.4194V9.03226H51.9355V13.5484ZM60.9677 13.5484H56.4516V9.03226H60.9677V13.5484Z" fill="#160A8B"/>
</svg>
