<svg width="160" height="160" viewBox="0 0 160 160" fill="none" xmlns="http://www.w3.org/2000/svg">
<g clip-path="url(#clip0)">
<path d="M117.419 117.419H121.935V121.935H117.419V117.419ZM108.387 121.935H112.903V117.419H108.387V121.935ZM99.3548 121.935H103.871V117.419H99.3548V121.935ZM88.0645 112.903H128.71V108.387H88.0645V112.903ZM108.387 103.871H128.71V99.3548H108.387V103.871ZM103.871 99.3548H88.0645V103.871H103.871V99.3548ZM140 70C140 77.2803 138.835 84.4172 136.645 91.2818C138.643 92.4605 140 94.6127 140 97.0968V124.194C140 127.928 136.96 130.968 133.226 130.968H82.0202C75.2052 136.796 66.6471 140 57.5806 140C47.512 140 38.0486 136.08 30.9282 128.96L11.0378 109.068C3.91964 101.951 0 92.488 0 82.4194C0 80.6916 0.157668 78.9915 0.383695 77.3089C0.133411 74.8954 0 72.4389 0 70C0 31.4034 31.4001 0 70 0C108.6 0 140 31.4034 140 70ZM70 4.51613C48.8329 4.51613 31.6129 21.7361 31.6129 42.9032C31.6129 51.0005 34.1488 58.509 38.4455 64.7099C38.7421 59.9964 41.8558 55.9885 46.4348 54.6158L60.9677 50.2552V46.8229C56.8783 43.9628 54.1936 39.2273 54.1936 33.871V22.4682C54.1936 15.0589 60.2202 9.03226 67.6295 9.03226H85.8064V33.871C85.8064 39.2295 83.1217 43.965 79.0323 46.8229V50.2552L93.5674 54.6158C98.1464 55.9885 101.261 59.9964 101.557 64.7099C105.851 58.509 108.387 51.0005 108.387 42.9032C108.387 21.7361 91.1672 4.51613 70 4.51613ZM81.2903 13.5484H67.6295C62.7109 13.5484 58.7097 17.5496 58.7097 22.4682V24.8387H76.2417C78.3509 24.8387 80.2285 23.7119 81.2903 21.9169V13.5484ZM58.7097 33.871C58.7097 40.0961 63.7749 45.1613 70 45.1613C76.2251 45.1613 81.2903 40.0961 81.2903 33.871V28.0362C79.7754 28.8741 78.0543 29.3548 76.2417 29.3548H58.7097V33.871ZM73.4367 58.466L77.5217 61.5278L78.8426 54.9135L77.4159 54.4846L73.4367 58.466ZM65.4839 49.0115V51.0005L70 55.5166L74.5161 51.0005V49.0115C73.085 49.4404 71.569 49.6774 70 49.6774C68.431 49.6774 66.915 49.4404 65.4839 49.0115ZM61.1552 54.9135L62.4761 61.5278L66.5611 58.466L62.5819 54.4868L61.1552 54.9135ZM47.7314 58.9423C44.8426 59.8067 42.9032 62.4154 42.9032 65.4298V70.065C49.8516 76.998 59.4319 81.2903 70 81.2903C80.5681 81.2903 90.1484 76.998 97.0968 70.065V65.4298C97.0968 62.4154 95.1573 59.8067 92.2686 58.9423L83.1867 56.2168L80.5428 69.4399L70 61.5323L59.4572 69.4399L56.8133 56.2168L47.7314 58.9423ZM4.80059 64.0384C6.4765 61.0493 8.54933 58.2576 11.04 55.7669L12.9298 53.8771C14.1625 52.6422 15.8715 51.9355 17.6202 51.9355C20.1462 51.9355 22.4208 53.3402 23.552 55.6026L33.173 74.8414C33.6317 75.7653 33.8732 76.7874 33.8732 77.8062V78.3277C33.8732 81.0555 32.2359 83.4734 29.7021 84.4878L25.0647 86.3412C23.5564 86.9465 22.5806 88.3854 22.5806 90.0083C22.5806 91.0635 22.9919 92.0547 23.7394 92.8023L47.1977 116.261C47.9431 117.008 48.9365 117.419 49.9917 117.419C51.6146 117.419 53.0535 116.444 53.6588 114.933L55.5122 110.298C56.5244 107.766 58.9445 106.129 61.6723 106.129H62.1938C63.2126 106.129 64.2347 106.368 65.1542 106.827L76.7742 112.636V97.0968C76.7742 93.3624 79.814 90.3226 83.5484 90.3226H97.0968V76.9032L115.883 90.3226H132.219C134.357 83.7788 135.484 76.9572 135.484 70C135.484 44.2329 120.518 21.9037 98.8289 11.2209C107.45 19.0734 112.903 30.3483 112.903 42.9032C112.903 66.5611 93.6579 85.8064 70 85.8064C46.3421 85.8064 27.0968 66.5611 27.0968 42.9032C27.0968 30.3483 32.5501 19.0734 41.1711 11.2209C21.1738 21.0701 6.9054 40.8216 4.80059 64.0384ZM83.5484 122.38C83.5484 121.574 83.1007 120.849 82.3764 120.488L63.1376 110.867C62.8487 110.722 62.5191 110.645 62.1938 110.645H61.6723C60.8002 110.645 60.0284 111.167 59.7075 111.975L58.9247 113.937L80.8813 125.915C80.9331 125.862 80.9904 125.82 81.0422 125.77L82.9321 123.879C83.3224 123.485 83.5484 122.938 83.5484 122.38ZM28.0251 80.2947C28.8333 79.9716 29.3548 79.1999 29.3548 78.3277V77.8062C29.3548 77.4787 29.2777 77.1513 29.1288 76.8536L19.51 57.6214C19.1505 56.9015 18.4262 56.4516 17.6202 56.4516C17.0623 56.4516 16.5176 56.6776 16.1229 57.0702L14.2331 58.96C14.1802 59.0118 14.1383 59.0691 14.0875 59.1209L26.0648 81.0775L28.0251 80.2947ZM57.5806 135.484C64.7341 135.484 71.5215 133.2 77.1766 129.037L57.0746 118.072C55.5354 120.455 52.9091 121.935 49.9917 121.935C47.7314 121.935 45.6034 121.052 44.0047 119.454L20.5464 95.9975C18.9477 94.3988 18.0645 92.2686 18.0645 90.0083C18.0645 87.0909 19.5453 84.4624 21.9257 82.9232L10.9607 62.8212C6.79955 68.4785 4.51613 75.2659 4.51613 82.4194C4.51613 91.2818 7.96607 99.6117 14.2331 105.879L34.1235 125.77C40.3883 132.034 48.7182 135.484 57.5806 135.484ZM135.484 97.0968C135.484 95.8509 134.472 94.8387 133.226 94.8387H114.439L101.613 85.6775V94.8387H83.5484C82.3025 94.8387 81.2903 95.8509 81.2903 97.0968V114.894L84.3974 116.448C86.6598 117.579 88.0645 119.854 88.0645 122.38C88.0645 123.859 87.5342 125.291 86.6279 126.452H133.226C134.472 126.452 135.484 125.439 135.484 124.194V97.0968Z" fill="#160A8B"/>
</g>
<defs>
<clipPath id="clip0">
<rect width="160" height="160" fill="white"/>
</clipPath>
</defs>
</svg>
