<svg width="140" height="140" viewBox="0 0 140 140" fill="none" xmlns="http://www.w3.org/2000/svg">
<g clip-path="url(#clip0)">
<path d="M110.618 13.0158C110.335 5.7918 104.388 0 97.0968 0C94.0868 0 91.3138 0.997826 89.0623 2.66491C82.8846 0.916236 76.4831 0 70 0C51.3666 0 33.9029 7.21853 20.7041 20.3226H12.7964L0.754158 29.3548L9.07305 35.5943C3.15445 46.0577 0 57.8971 0 70C0 70.5061 0.0275642 71.0022 0.03859 71.5039C0.0319745 71.7564 0 72.0034 0 72.2581C0 73.5679 0.114667 74.848 0.282258 76.1126C3.39151 111.858 33.4641 140 70 140C108.597 140 140 108.6 140 70C140 47.3609 129.028 26.1618 110.618 13.0158ZM97.0968 4.51613C102.078 4.51613 106.129 8.56697 106.129 13.5484V18.0645C106.129 23.0459 102.078 27.0968 97.0968 27.0968C92.1154 27.0968 88.0645 23.0459 88.0645 18.0645V13.5484C88.0645 8.56697 92.1154 4.51613 97.0968 4.51613ZM110.645 121.285C107.152 124.06 103.372 126.484 99.3548 128.509V83.5484H94.8387V130.577C91.2234 132.065 87.4504 133.241 83.5484 134.066V74.5161H110.645V121.285ZM110.645 45.1613V70H83.5484V45.1613H79.0323V50.8495L70.0628 58.025C68.7585 59.0735 66.6824 58.8265 65.6537 57.5057L52.4327 40.5095C52.1119 40.0983 51.9355 39.5812 51.9355 39.0619V38.4841C51.9355 38.4499 51.9465 38.4213 51.9487 38.3871H57.2763L66.6857 49.6774H71.2801L77.1017 39.9726C77.783 38.8369 78.9264 38.0596 80.2341 37.8424L84.6686 37.1026L89.2608 48.5826L97.0968 43.3597L104.935 48.5848L109.342 37.5679L114.547 38.8678C117.566 39.622 119.677 42.3255 119.677 45.4391V85.8064C119.677 87.0524 118.663 88.0645 117.419 88.0645C116.176 88.0645 115.161 87.0524 115.161 85.8064V45.1613H110.645ZM18.0645 24.8387H51.9355V33.871H18.0645V24.8387ZM56.4516 33.871V24.8387H63.2258C65.7165 24.8387 67.7419 26.8641 67.7419 29.3548C67.7419 31.8455 65.7165 33.871 63.2258 33.871H56.4516ZM91.3866 41.7378L89.2277 36.3418L89.5486 36.2867L93.5542 40.2934L91.3866 41.7378ZM104.564 36.3727L104.921 36.4609L102.809 41.7378L100.644 40.2934L104.564 36.3727ZM101.613 32.936L97.0968 37.4521L92.5806 32.936V30.8224C93.9963 31.3262 95.5113 31.6129 97.0968 31.6129C98.6823 31.6129 100.197 31.324 101.613 30.8224V32.936ZM70 4.51613C75.2879 4.51613 80.513 5.17767 85.597 6.41917C84.307 8.49531 83.5484 10.9309 83.5484 13.5484V18.0645C83.5484 22.0635 85.3004 25.6513 88.0645 28.1354V31.9602L79.4887 33.3902C76.8734 33.8258 74.5933 35.3793 73.2294 37.6506L68.7563 45.1095L63.1563 38.3871H63.2258C68.2072 38.3871 72.2581 34.3363 72.2581 29.3548C72.2581 24.3734 68.2072 20.3226 63.2258 20.3226H27.3515C39.2162 10.1006 54.155 4.51613 70 4.51613ZM13.5484 25.4032V33.3064L8.2803 29.3548L13.5484 25.4032ZM4.69034 74.5161H16.0093C16.9653 80.1767 21.4362 84.6454 27.0968 85.6036V96.9843C15.5848 95.9402 6.33868 87.0127 4.77634 75.654C4.74436 75.2747 4.71459 74.8954 4.69034 74.5161ZM29.3548 63.2258C34.3363 63.2258 38.3871 67.2766 38.3871 72.2581C38.3871 77.2395 34.3363 81.2903 29.3548 81.2903C24.3734 81.2903 20.3226 77.2395 20.3226 72.2581C20.3226 67.2766 24.3734 63.2258 29.3548 63.2258ZM31.6129 85.6036C37.2735 84.6477 41.7422 80.1767 42.7004 74.5161H54.0811C53.0017 86.4118 43.5107 95.9049 31.6151 96.9821V85.6036H31.6129ZM42.7004 70C41.7444 64.3394 37.2735 59.8707 31.6129 58.9126V47.5318C43.5085 48.6112 53.0017 58.1022 54.0789 69.9978H42.7004V70ZM27.0968 58.9126C21.4362 59.8685 16.9675 64.3394 16.0093 70H4.62859C5.70801 58.1044 15.1989 48.6112 27.0946 47.534V58.9126H27.0968ZM8.75 93.1341C14.0545 98.3702 21.3292 101.613 29.3548 101.613C45.5406 101.613 58.7097 88.4438 58.7097 72.2581C58.7097 56.0723 45.5406 42.9032 29.3548 42.9032C20.1737 42.9032 11.9717 47.1459 6.58455 53.7646C7.95725 48.3863 10.0146 43.2009 12.7126 38.3265L12.7964 38.3871H47.4326C47.4326 38.4213 47.4194 38.4499 47.4194 38.4841V39.0619C47.4194 40.5823 47.9343 42.0785 48.867 43.2825L62.088 60.2786C63.5444 62.1508 65.7408 63.2258 68.1146 63.2258C69.8423 63.2258 71.5381 62.6315 72.8832 61.5543L79.0323 56.6346V85.8064H60.9677V90.3226H79.0323V94.8387H60.9677V99.3548H79.0323V103.871H63.2258V108.387H79.0323V112.903H38.3871V117.419H79.0323V121.935H65.4839V126.452H79.0323V134.847C76.0763 135.256 73.0662 135.484 70 135.484C42.0344 135.484 18.1185 117.857 8.75 93.1341ZM115.161 117.352V92.165C115.87 92.4186 116.624 92.5806 117.419 92.5806C121.154 92.5806 124.194 89.5409 124.194 85.8064V45.4391C124.194 40.2482 120.677 35.7453 115.642 34.4851L106.129 32.108V28.1354C108.76 25.7737 110.456 22.4086 110.615 18.6423C126.26 31.0307 135.484 49.9123 135.484 70C135.484 88.6092 127.669 105.418 115.161 117.352ZM58.7097 108.387H38.3871V103.871H58.7097V108.387ZM38.3871 121.935H42.9032V126.452H38.3871V121.935ZM47.4194 121.935H51.9355V126.452H47.4194V121.935ZM56.4516 121.935H60.9677V126.452H56.4516V121.935Z" fill="#160A8B"/>
</g>
<defs>
<clipPath id="clip0">
<rect width="140" height="140" fill="white"/>
</clipPath>
</defs>
</svg>
