<svg width="140" height="140" viewBox="0 0 140 140" fill="none" xmlns="http://www.w3.org/2000/svg">
<path d="M115.161 103.871C108.936 103.871 103.871 108.936 103.871 115.161C103.871 121.386 108.936 126.452 115.161 126.452C121.386 126.452 126.452 121.386 126.452 115.161C126.452 108.936 121.386 103.871 115.161 103.871ZM115.161 121.935C111.427 121.935 108.387 118.896 108.387 115.161C108.387 111.427 111.427 108.387 115.161 108.387C118.896 108.387 121.935 111.427 121.935 115.161C121.935 118.896 118.896 121.935 115.161 121.935ZM60.9677 72.2581H65.4839V76.7742H60.9677V72.2581ZM74.5161 76.7742H70V72.2581H74.5161V76.7742ZM51.9355 72.2581H56.4516V76.7742H51.9355V72.2581ZM67.7419 9.03226H40.6452V31.6129H67.7419V9.03226ZM63.2258 27.0968H45.1613V13.5484H63.2258V27.0968ZM108.387 13.5484H72.2581V9.03226H108.387V13.5484ZM108.387 22.5806H72.2581V18.0645H108.387V22.5806ZM104.228 27.0968H108.387V31.6129H104.228V27.0968ZM99.4023 31.6129H72.2581V27.0968H99.4023V31.6129ZM140 15.8065H126.452V28.6867C123.776 25.035 120.766 21.639 117.419 18.5541V0H31.6129V11.4888C11.8052 24.498 0 46.2606 0 70C0 85.565 5.24603 100.757 14.7789 112.996L2.5315 125.243C0.898595 126.876 0 129.046 0 131.354C0 136.123 3.87884 140 8.64415 140C10.954 140 13.1239 139.101 14.7568 137.466L27.0042 125.221C39.2405 134.754 54.4372 140 70 140C80.0257 140 89.6677 137.91 98.7043 133.831L101.568 136.694L105.67 133.96C106.605 134.432 107.579 134.836 108.577 135.163L109.546 140H120.779L121.746 135.163C122.744 134.833 123.717 134.432 124.652 133.96L128.755 136.694L136.699 128.755L133.962 124.652C134.434 123.715 134.838 122.741 135.165 121.744L140 120.774V109.546L135.163 108.577C134.833 107.579 134.432 106.605 133.96 105.668L136.697 101.565L133.833 98.7043C137.91 89.6655 140 80.0213 140 70C140 66.9723 139.745 63.9524 139.361 60.9677H140V15.8065ZM130.968 20.3226H135.484V56.4516H130.968V20.3226ZM126.452 36.8336V56.4516H121.935V33.871H117.419V24.8387C120.884 28.4739 123.9 32.4983 126.452 36.8336ZM109.546 90.3226L108.579 95.1596C107.581 95.4892 106.608 95.8906 105.673 96.3625L101.57 93.6281L93.6259 101.568L96.3625 105.67C95.8906 106.608 95.487 107.581 95.1596 108.579L90.3226 109.548V112.903H78.0973L69.065 121.935H30.2898L39.5161 112.709L43.5648 116.758L46.7578 113.565L42.7092 109.516L47.6586 104.567C52.3258 106.993 57.6126 108.387 63.2258 108.387C81.9023 108.387 97.0968 93.1926 97.0968 74.5161C97.0968 69.6979 96.0692 65.12 94.2488 60.9677H112.903V90.3226H109.546ZM45.1613 126.452H54.1936V133.508C51.1086 132.741 48.0985 131.724 45.1613 130.52V126.452ZM40.6452 128.468C39.3739 127.831 38.1159 127.172 36.8876 126.452H40.6452V128.468ZM58.7097 126.452H67.7419V135.387C64.7044 135.281 61.6833 135.019 58.7097 134.497V126.452ZM72.2581 125.129L79.9672 117.419H81.2903V134.515C78.3255 135.027 75.3111 135.322 72.2581 135.423V125.129ZM63.2258 45.1613C79.4115 45.1613 92.5806 58.3304 92.5806 74.5161C92.5806 90.7019 79.4115 103.871 63.2258 103.871C47.0401 103.871 33.871 90.7019 33.871 74.5161C33.871 58.3304 47.0401 45.1613 63.2258 45.1613ZM99.3548 56.4516H94.8387V47.4194H99.3548V56.4516ZM43.696 102.143L39.5161 106.323L33.6769 100.484L37.5811 96.5797C39.3849 98.6734 41.4379 100.54 43.696 102.143ZM117.419 38.3871V56.4516H112.903V38.3871H117.419ZM112.903 4.51613V33.871H108.387V56.4516H103.871V42.9032H90.3226V54.2795C84.1405 46.0213 74.3133 40.6452 63.2258 40.6452C52.1384 40.6452 42.3111 46.0213 36.129 54.2795V4.51613H112.903ZM4.51613 70C4.51613 48.7943 14.5716 29.2556 31.6129 16.9399V62.4562C30.1763 66.2083 29.3548 70.2646 29.3548 74.5161C29.3548 81.308 31.3825 87.6268 34.8401 92.9357L30.4839 97.2908L26.4352 93.2422L23.2422 96.4352L27.2908 100.484L18.0281 109.747C9.32995 98.3769 4.51613 84.3698 4.51613 70ZM11.5638 134.275C10.7931 135.044 9.73239 135.484 8.64415 135.484C6.36734 135.484 4.51613 133.633 4.51613 131.354C4.51613 130.252 4.94503 129.214 5.72455 128.434L30.4839 103.677L36.3231 109.516L11.5638 134.275ZM85.8064 133.549V117.419H90.3226V120.774L95.1596 121.744C95.4892 122.741 95.8906 123.715 96.3625 124.652L93.6259 128.755L95.2886 130.416C92.1992 131.715 89.0337 132.749 85.8064 133.549ZM135.484 113.248V117.072L131.541 117.861L131.194 119.242C130.8 120.781 130.194 122.252 129.382 123.609L128.651 124.833L130.884 128.179L128.182 130.884L124.835 128.653L123.611 129.382C122.254 130.19 120.784 130.798 119.242 131.192L117.861 131.541L117.074 135.484H113.251L112.463 131.541L111.083 131.192C109.541 130.8 108.071 130.19 106.713 129.382L105.49 128.653L102.143 130.884L99.4408 128.179L101.674 124.833L100.943 123.609C100.134 122.25 99.5246 120.781 99.131 119.242L98.7837 117.861L94.8387 117.074V113.251L98.7815 112.461L99.1288 111.081C99.5224 109.541 100.129 108.071 100.94 106.713L101.671 105.49L99.4386 102.143L102.141 99.4386L105.487 101.669L106.711 100.94C108.068 100.132 109.538 99.5246 111.081 99.131L112.461 98.7815L113.248 94.8387H117.072L117.859 98.7815L119.24 99.131C120.781 99.5224 122.252 100.132 123.609 100.94L124.833 101.669L128.179 99.4386L130.882 102.143L128.649 105.49L129.38 106.713C130.188 108.073 130.798 109.541 131.192 111.081L131.539 112.461L135.484 113.248ZM135.484 70C135.484 78.7996 133.775 87.2905 130.414 95.2908L128.753 93.6281L124.65 96.3625C123.715 95.8906 122.741 95.487 121.744 95.1596L120.777 90.3226H117.419V60.9677H134.814C135.224 63.9458 135.484 66.9701 135.484 70ZM40.514 64.4993C40.3607 64.8466 40.2229 65.2038 40.0829 65.5611C39.9494 65.9017 39.8204 66.2446 39.7036 66.5931C39.5768 66.9701 39.4599 67.3494 39.3485 67.7353C39.2471 68.0937 39.1567 68.4531 39.0718 68.8169C38.9836 69.1874 38.8976 69.5579 38.827 69.935C38.7465 70.3705 38.6848 70.8082 38.6264 71.2492C38.5856 71.5623 38.5337 71.8722 38.504 72.1886C38.4323 72.9604 38.3871 73.7366 38.3871 74.5161C38.3871 88.2112 49.5308 99.3548 63.2258 99.3548C64.0075 99.3548 64.7837 99.3096 65.5566 99.238C65.8698 99.2082 66.1774 99.1564 66.4883 99.1156C66.9315 99.0571 67.3737 98.9954 67.8114 98.9127C68.1841 98.8421 68.5523 98.7561 68.9184 98.6701C69.2866 98.583 69.6527 98.4926 70.0176 98.3879C70.3947 98.2798 70.7696 98.1652 71.1401 98.0406C71.4995 97.9215 71.8512 97.7881 72.204 97.6503C72.5491 97.5146 72.892 97.3834 73.2316 97.2346C73.6374 97.056 74.0354 96.8553 74.4323 96.6546C74.6947 96.5212 74.9638 96.3966 75.2207 96.2544C75.8216 95.9225 76.4081 95.5653 76.9793 95.1838C77.0245 95.1551 77.0719 95.1276 77.1171 95.0989C77.7456 94.6766 78.3575 94.2268 78.9441 93.7461L78.9374 93.7372C80.2197 92.6865 81.394 91.5123 82.4469 90.23L82.4557 90.2366C82.9343 89.6522 83.3786 89.0469 83.7987 88.424C83.8604 88.3335 83.9122 88.2365 83.9729 88.1439C84.3202 87.6147 84.6521 87.0777 84.9575 86.5264C85.1107 86.2486 85.2463 85.9619 85.3886 85.6775C85.5782 85.3004 85.7679 84.9233 85.9399 84.5352C86.0931 84.1879 86.2309 83.8306 86.371 83.4734C86.5044 83.1327 86.6334 82.7898 86.7503 82.4414C86.877 82.0643 86.9939 81.685 87.1053 81.2991C87.2067 80.9408 87.2971 80.5814 87.3831 80.2175C87.4702 79.8471 87.5562 79.4766 87.6268 79.0995C87.7073 78.664 87.769 78.2263 87.8275 77.7864C87.8683 77.4721 87.9201 77.1623 87.9499 76.847C88.0193 76.0719 88.0645 75.2956 88.0645 74.5161C88.0645 60.8211 76.9208 49.6774 63.2258 49.6774C62.4441 49.6774 61.6679 49.7226 60.895 49.7943C60.5818 49.8241 60.2742 49.8759 59.9633 49.9167C59.5201 49.9751 59.0779 50.0369 58.6402 50.1195C58.2675 50.1901 57.8993 50.2761 57.5332 50.3621C57.165 50.4492 56.7989 50.5396 56.434 50.6444C56.0569 50.7524 55.682 50.8671 55.3116 50.9917C54.9521 51.1108 54.6004 51.2442 54.2476 51.382C53.9025 51.5176 53.5596 51.6488 53.22 51.7977C52.8142 51.9763 52.4162 52.1769 52.0193 52.3776C51.7569 52.511 51.4878 52.6356 51.2309 52.7778C50.63 53.1097 50.0435 53.467 49.4723 53.8484C49.4271 53.8771 49.3797 53.9047 49.3345 53.9333C48.7061 54.3556 48.0941 54.8055 47.5076 55.2862L47.5142 55.295C46.2319 56.3458 45.0576 57.52 44.0047 58.8023L43.9959 58.7957C43.5174 59.38 43.073 59.9854 42.6529 60.6083C42.5912 60.6987 42.5394 60.7957 42.4787 60.8884C42.1314 61.4176 41.7996 61.9545 41.4941 62.5058C41.3409 62.7837 41.2053 63.0703 41.063 63.3548C40.8756 63.7341 40.686 64.1112 40.514 64.4993ZM83.5484 74.5161C83.5484 75.16 83.5098 75.794 83.4514 76.4225C83.426 76.6772 83.3863 76.9297 83.3521 77.1855C83.3047 77.5482 83.2529 77.9098 83.1867 78.2671C83.1305 78.5714 83.0611 78.8724 82.9883 79.1745C82.9188 79.4744 82.8416 79.7754 82.7578 80.0709C82.6696 80.3807 82.5748 80.6872 82.4734 80.9926C82.3741 81.2837 82.2683 81.5704 82.1569 81.8548C82.0467 82.1393 81.9364 82.4238 81.814 82.7038C81.6696 83.0335 81.5097 83.3521 81.3465 83.673C81.2363 83.8913 81.1304 84.1151 81.0125 84.3323C80.7434 84.8152 80.4568 85.2893 80.1525 85.748C80.1227 85.7932 80.0984 85.8406 80.0687 85.8836C78.6122 88.0325 76.7566 89.8893 74.6087 91.348C74.536 91.3976 74.4599 91.4384 74.3849 91.4858C73.9516 91.7725 73.5095 92.0437 73.053 92.2962C72.8314 92.4186 72.601 92.5266 72.3749 92.6391C72.0618 92.8001 71.7454 92.9555 71.4223 93.1C71.1401 93.2245 70.8556 93.3348 70.5689 93.4451C70.2845 93.5564 70 93.6623 69.7111 93.7593C69.4035 93.8629 69.097 93.9578 68.785 94.046C68.4917 94.1298 68.194 94.2047 67.8952 94.2764C67.5931 94.3492 67.2899 94.4186 66.9834 94.4749C66.6261 94.5432 66.2656 94.5928 65.904 94.6402C65.6493 94.6733 65.3957 94.7141 65.1388 94.7395C64.5037 94.8001 63.8697 94.8387 63.2258 94.8387C52.0193 94.8387 42.9032 85.7205 42.9032 74.5161C42.9032 73.8722 42.9418 73.2383 43.0003 72.6098C43.0256 72.3551 43.0653 72.1026 43.0995 71.8468C43.1469 71.4841 43.1987 71.1224 43.2649 70.7652C43.3233 70.4609 43.3906 70.1577 43.4633 69.8556C43.5328 69.5557 43.61 69.2569 43.6938 68.9636C43.782 68.6538 43.8768 68.345 43.9804 68.0396C44.0797 67.7486 44.1855 67.4597 44.2991 67.1752C44.4093 66.8907 44.5196 66.6085 44.642 66.3306C44.7886 66.001 44.9485 65.6779 45.1117 65.3571C45.2219 65.1388 45.3267 64.9172 45.4458 64.7021C45.7126 64.2214 45.9992 63.7517 46.3013 63.2931C46.3333 63.2457 46.3598 63.196 46.3918 63.1486C47.8483 60.9997 49.705 59.143 51.8539 57.6865C51.9245 57.6391 51.9983 57.5983 52.0689 57.5531C52.5044 57.2642 52.9521 56.9908 53.4096 56.7383C53.6312 56.617 53.8595 56.5078 54.0855 56.3954C54.3986 56.2344 54.7151 56.0789 55.0403 55.9345C55.3204 55.8099 55.607 55.6997 55.8937 55.5894C56.1782 55.478 56.4626 55.3722 56.7537 55.273C57.0591 55.1693 57.3678 55.0745 57.6777 54.9863C57.9732 54.9025 58.272 54.8253 58.5719 54.7559C58.8751 54.6831 59.1772 54.6158 59.4815 54.5574C59.8387 54.489 60.2004 54.4394 60.5609 54.392C60.8167 54.3589 61.0692 54.3181 61.3272 54.2928C61.9479 54.2321 62.5819 54.1936 63.2258 54.1936C74.4323 54.1936 83.5484 63.3118 83.5484 74.5161Z" fill="#160A8B"/>
</svg>
