<svg width="140" height="140" viewBox="0 0 140 140" fill="none" xmlns="http://www.w3.org/2000/svg">
<g clip-path="url(#clip0)">
<path d="M133.96 15.3478L136.694 11.2451L128.755 3.30551L124.652 6.03988C123.715 5.56578 122.744 5.16444 121.744 4.83698L120.774 0H109.546L108.577 4.83698C107.577 5.16665 106.605 5.56578 105.668 6.03988L101.568 3.30551L98.7043 6.16888C89.6677 2.09047 80.0257 0 70 0C57.1539 0 44.7566 3.48853 33.871 10.0709V6.77419H20.3226V38.3871H20.381C18.9477 40.2791 18.0645 42.6099 18.0645 45.1613H13.5484V0H0V49.6774H3.06184C1.0706 56.2465 0 63.0582 0 70C0 95.5609 13.8196 118.878 36.129 131.235V135.484C36.129 137.975 38.1545 140 40.6452 140H99.3548C101.846 140 103.871 137.975 103.871 135.484V131.235C126.18 118.878 140 95.5609 140 70C140 59.9787 137.91 50.3346 133.833 41.2935L136.694 38.4323L133.96 34.3296C134.434 33.3925 134.836 32.4211 135.163 31.4211L140 30.4519V19.2255L135.163 18.2564C134.833 17.2563 134.434 16.285 133.96 15.3478ZM70 4.51613C78.804 4.51613 87.2949 6.2207 95.293 9.58134L93.6281 11.2451L96.3625 15.3478C95.8884 16.285 95.487 17.2563 95.1596 18.2564L90.3226 19.2255V30.4541L95.1596 31.4233C95.4892 32.4233 95.8884 33.3947 96.3625 34.3318L93.6281 38.4345L99.4475 44.2539C99.4221 44.556 99.3548 44.8493 99.3548 45.1613V49.6774C99.3548 53.3512 101.145 56.5894 103.871 58.6512V61.5212L94.6149 64.1652C92.9037 64.6525 91.4428 65.646 90.3226 66.9315C89.2024 65.646 87.7415 64.6525 86.0303 64.1652L76.7742 61.5234V58.6534C79.4997 56.5894 81.2903 53.3512 81.2903 49.6796V45.1635C81.2903 38.9384 76.2251 33.8732 70 33.8732C63.7749 33.8732 58.7097 38.9384 58.7097 45.1635H54.1936V20.3226H40.6452V45.1613C40.6452 40.5437 37.8523 36.5767 33.871 34.828V15.4161C44.5968 8.30015 57.0525 4.51613 70 4.51613ZM108.387 24.8387C108.387 21.1043 111.427 18.0645 115.161 18.0645C118.896 18.0645 121.935 21.1043 121.935 24.8387C121.935 28.5731 118.896 31.6129 115.161 31.6129C111.427 31.6129 108.387 28.5731 108.387 24.8387ZM117.419 45.1613V49.6774C117.419 53.4118 114.38 56.4516 110.645 56.4516C106.911 56.4516 103.871 53.4118 103.871 49.6774V45.1613C103.871 41.4269 106.911 38.3871 110.645 38.3871C114.38 38.3871 117.419 41.4269 117.419 45.1613ZM128.71 98.9932C127.382 101.682 125.876 104.278 124.194 106.759V74.5161H119.677V90.3226H101.613V74.5161H97.0968V94.8387H92.5806V72.8523C92.5806 70.8468 93.9269 69.0606 95.8575 68.5093L104.487 66.044C105.362 68.108 107.251 70 110.645 70C114.039 70 115.929 68.108 116.805 66.044L125.435 68.5093C127.363 69.0606 128.71 70.8468 128.71 72.8523V98.9932ZM60.9677 110.645V115.161H45.1613C42.6706 115.161 40.6452 113.136 40.6452 110.645V99.3548H99.3548V110.645C99.3548 113.136 97.3294 115.161 94.8387 115.161H79.0323V110.645H60.9677ZM74.5161 115.161V119.677H65.4839V115.161H74.5161ZM20.3226 90.3226V74.5161H15.8065V106.759C14.1239 104.278 12.6178 101.682 11.2903 98.9932V72.8523C11.2903 70.8468 12.6366 69.0606 14.5672 68.5093L23.197 66.044C24.0713 68.108 25.9611 70 29.3548 70C32.7486 70 34.6384 68.108 35.5149 66.044L44.1447 68.5093C46.0731 69.0606 47.4194 70.8468 47.4194 72.8523V94.8387H42.9032V74.5161H38.3871V90.3226H20.3226ZM36.129 45.1613V49.6774C36.129 53.4118 33.0892 56.4516 29.3548 56.4516C25.6204 56.4516 22.5806 53.4118 22.5806 49.6774V45.1613C22.5806 41.4269 25.6204 38.3871 29.3548 38.3871C33.0892 38.3871 36.129 41.4269 36.129 45.1613ZM49.6774 45.1613H45.1613V24.8387H49.6774V45.1613ZM40.6452 49.6774H58.7097C58.7097 53.3512 60.5003 56.5894 63.2258 58.6512V61.5212L53.9697 64.1652C52.2585 64.6525 50.7976 65.646 49.6774 66.9315C48.5572 65.646 47.0963 64.6525 45.3851 64.1652L36.129 61.5234V58.6534C38.8546 56.5894 40.6452 53.3512 40.6452 49.6774ZM88.0645 94.8387H85.8064V90.3226C85.8064 88.6588 84.8924 87.2177 83.5484 86.4338V74.5161H79.0323V85.8064H60.9677V74.5161H56.4516V86.4338C55.1076 87.2177 54.1936 88.6588 54.1936 90.3226V94.8387H51.9355V72.8523C51.9355 70.8468 53.2817 69.0606 55.2123 68.5093L63.8421 66.044C64.7165 68.108 66.6063 70 70 70C73.3937 70 75.2835 68.108 76.1601 66.044L84.7899 68.5093C86.7183 69.0606 88.0645 70.8468 88.0645 72.8523V94.8387ZM58.7097 90.3226H81.2903V94.8387H58.7097V90.3226ZM72.2581 63.1982C72.2305 64.2424 71.8181 65.4839 70 65.4839C68.1819 65.4839 67.7695 64.2424 67.7419 63.1982V60.7395C68.4718 60.8884 69.2282 60.9677 70 60.9677C70.7718 60.9677 71.5282 60.8884 72.2581 60.7395V63.1982ZM70 56.4516C66.2656 56.4516 63.2258 53.4118 63.2258 49.6774V45.1613C63.2258 41.4269 66.2656 38.3871 70 38.3871C73.7344 38.3871 76.7742 41.4269 76.7742 45.1613V49.6774C76.7742 53.4118 73.7344 56.4516 70 56.4516ZM29.3548 60.9677C30.1266 60.9677 30.883 60.8884 31.6129 60.7395V63.1982C31.5853 64.2424 31.173 65.4839 29.3548 65.4839C27.5367 65.4839 27.1243 64.2424 27.0968 63.1982V60.7395C27.8267 60.8884 28.583 60.9677 29.3548 60.9677ZM112.903 63.1982C112.876 64.2424 112.463 65.4839 110.645 65.4839C108.827 65.4839 108.415 64.2424 108.387 63.1982V60.7395C109.117 60.8884 109.873 60.9677 110.645 60.9677C111.417 60.9677 112.173 60.8884 112.903 60.7395V63.1982ZM29.3548 11.2903V33.871C27.7473 33.871 26.2246 34.2183 24.8387 34.828V11.2903H29.3548ZM4.51613 4.51613H9.03226V45.1613H4.51613V4.51613ZM7.78084 49.6774H18.0645C18.0645 53.3512 19.8551 56.5894 22.5806 58.6512V61.5212L13.3246 64.1652C9.46777 65.2667 6.77419 68.839 6.77419 72.8523V87.0259C5.30667 81.5505 4.51613 75.8392 4.51613 70C4.51613 63.0406 5.64516 56.2212 7.78084 49.6774ZM20.3226 112.641V94.8387H27.0968V119.449C24.6623 117.338 22.402 115.062 20.3226 112.641ZM31.6129 123.062V94.8387H38.3871V95.4661C37.0431 96.25 36.129 97.6911 36.129 99.3548V126.034C34.5777 125.097 33.0672 124.112 31.6129 123.062ZM40.6452 135.484V118.422C41.9793 119.199 43.5085 119.677 45.1613 119.677H60.9677V124.194H79.0323V119.677H94.8387C96.4915 119.677 98.0229 119.199 99.357 118.419V135.484H40.6452ZM103.871 110.645V99.3548C103.871 97.6911 102.957 96.25 101.613 95.4661V94.8387H108.387V123.062C106.933 124.112 105.422 125.097 103.871 126.034V110.645ZM112.903 119.449V94.8387H119.677V112.641C117.598 115.062 115.338 117.338 112.903 119.449ZM135.484 70C135.484 75.8392 134.693 81.5505 133.226 87.0259V72.8523C133.226 68.839 130.532 65.2689 126.675 64.1674L117.419 61.5234V58.6534C120.145 56.5894 121.935 53.3512 121.935 49.6796V45.1635C121.935 45.0279 121.899 44.8989 121.895 44.7644C122.838 44.4457 123.765 44.0863 124.652 43.6375L128.755 46.3719L130.416 44.7092C133.777 52.7095 135.484 61.2004 135.484 70ZM135.484 26.7517L131.541 27.5411L131.192 28.9215C130.8 30.464 130.19 31.9315 129.382 33.291L128.653 34.5149L130.884 37.8612L128.179 40.5658L124.833 38.3353L123.609 39.0641C122.726 39.5911 121.782 39.9991 120.813 40.3497C119.971 38.5789 118.699 37.0552 117.107 35.935C122.405 35.0022 126.452 30.3957 126.452 24.8387C126.452 18.6136 121.386 13.5484 115.161 13.5484C108.936 13.5484 103.871 18.6136 103.871 24.8387C103.871 28.6569 105.786 32.0242 108.697 34.0672C105.413 34.6428 102.64 36.6417 100.988 39.4037L99.4408 37.8568L101.671 34.5105L100.943 33.2866C100.134 31.9293 99.5268 30.4585 99.1332 28.9171L98.7837 27.5367L94.8387 26.7517V22.928L98.7815 22.1385L99.131 20.7581C99.5224 19.2156 100.132 17.7481 100.94 16.3886L101.669 15.1648L99.4386 11.8185L102.143 9.11385L105.49 11.3443L106.713 10.6155C108.071 9.80626 109.541 9.19985 111.083 8.80623L112.463 8.45672L113.248 4.51613H117.072L117.861 8.45892L119.242 8.80844C120.784 9.19985 122.252 9.80957 123.611 10.6178L124.835 11.3466L128.182 9.11605L130.886 11.8207L128.656 15.167L129.384 16.3908C130.194 17.7481 130.8 19.2189 131.194 20.7603L131.543 22.1407L135.484 22.9257V26.7517Z" fill="#160A8B"/>
</g>
<defs>
<clipPath id="clip0">
<rect width="140" height="140" fill="white"/>
</clipPath>
</defs>
</svg>
