<svg width="839" height="784" viewBox="0 0 839 784" fill="none" xmlns="http://www.w3.org/2000/svg">
<circle cx="27" cy="65" r="5" fill="#160A8B" fill-opacity="0.1"/>
<circle cx="125" cy="65" r="5" fill="#160A8B" fill-opacity="0.1"/>
<circle cx="321" cy="65" r="5" fill="#160A8B" fill-opacity="0.1"/>
<circle cx="223" cy="65" r="5" fill="#160A8B" fill-opacity="0.1"/>
<circle cx="419" cy="65" r="5" fill="#160A8B" fill-opacity="0.1"/>
<circle cx="811" cy="65" r="5" fill="#160A8B" fill-opacity="0.1"/>
<circle cx="713" cy="65" r="5" fill="#160A8B" fill-opacity="0.1"/>
<circle cx="615" cy="65" r="5" fill="#160A8B" fill-opacity="0.1"/>
<circle cx="517" cy="65" r="5" fill="#160A8B" fill-opacity="0.1"/>
<circle cx="27" cy="167" r="5" fill="#160A8B" fill-opacity="0.1"/>
<circle cx="125" cy="167" r="5" fill="#160A8B" fill-opacity="0.1"/>
<circle cx="321" cy="167" r="5" fill="#160A8B" fill-opacity="0.1"/>
<circle cx="223" cy="167" r="5" fill="#160A8B" fill-opacity="0.1"/>
<circle cx="419" cy="167" r="5" fill="#160A8B" fill-opacity="0.1"/>
<circle cx="811" cy="167" r="5" fill="#160A8B" fill-opacity="0.1"/>
<circle cx="713" cy="167" r="5" fill="#160A8B" fill-opacity="0.1"/>
<circle cx="615" cy="167" r="5" fill="#160A8B" fill-opacity="0.1"/>
<circle cx="517" cy="167" r="5" fill="#160A8B" fill-opacity="0.1"/>
<circle cx="16" cy="269" r="5" fill="#160A8B" fill-opacity="0.1"/>
<circle cx="114" cy="269" r="5" fill="#160A8B" fill-opacity="0.1"/>
<circle cx="310" cy="269" r="5" fill="#160A8B" fill-opacity="0.1"/>
<circle cx="212" cy="269" r="5" fill="#160A8B" fill-opacity="0.1"/>
<circle cx="408" cy="269" r="5" fill="#160A8B" fill-opacity="0.1"/>
<circle cx="800" cy="269" r="5" fill="#160A8B" fill-opacity="0.1"/>
<circle cx="702" cy="269" r="5" fill="#160A8B" fill-opacity="0.1"/>
<circle cx="604" cy="269" r="5" fill="#160A8B" fill-opacity="0.1"/>
<circle cx="506" cy="269" r="5" fill="#160A8B" fill-opacity="0.1"/>
<circle cx="16" cy="371" r="5" fill="#160A8B" fill-opacity="0.1"/>
<circle cx="114" cy="371" r="5" fill="#160A8B" fill-opacity="0.1"/>
<circle cx="310" cy="371" r="5" fill="#160A8B" fill-opacity="0.1"/>
<circle cx="212" cy="371" r="5" fill="#160A8B" fill-opacity="0.1"/>
<circle cx="408" cy="371" r="5" fill="#160A8B" fill-opacity="0.1"/>
<circle cx="800" cy="371" r="5" fill="#160A8B" fill-opacity="0.1"/>
<circle cx="702" cy="371" r="5" fill="#160A8B" fill-opacity="0.1"/>
<circle cx="604" cy="371" r="5" fill="#160A8B" fill-opacity="0.1"/>
<circle cx="506" cy="371" r="5" fill="#160A8B" fill-opacity="0.1"/>
<circle cx="16" cy="473" r="5" fill="#160A8B" fill-opacity="0.1"/>
<circle cx="114" cy="473" r="5" fill="#160A8B" fill-opacity="0.1"/>
<circle cx="310" cy="473" r="5" fill="#160A8B" fill-opacity="0.1"/>
<circle cx="212" cy="473" r="5" fill="#160A8B" fill-opacity="0.1"/>
<circle cx="408" cy="473" r="5" fill="#160A8B" fill-opacity="0.1"/>
<circle cx="800" cy="473" r="5" fill="#160A8B" fill-opacity="0.1"/>
<circle cx="702" cy="473" r="5" fill="#160A8B" fill-opacity="0.1"/>
<circle cx="604" cy="473" r="5" fill="#160A8B" fill-opacity="0.1"/>
<circle cx="506" cy="473" r="5" fill="#160A8B"/>
<circle cx="5" cy="575" r="5" fill="#160A8B" fill-opacity="0.1"/>
<circle cx="103" cy="575" r="5" fill="#160A8B" fill-opacity="0.1"/>
<circle cx="299" cy="575" r="5" fill="#160A8B" fill-opacity="0.1"/>
<circle cx="201" cy="575" r="5" fill="#160A8B" fill-opacity="0.1"/>
<circle cx="397" cy="575" r="5" fill="#160A8B" fill-opacity="0.1"/>
<circle cx="789" cy="575" r="5" fill="#160A8B" fill-opacity="0.1"/>
<circle cx="691" cy="575" r="5" fill="#160A8B" fill-opacity="0.1"/>
<circle cx="593" cy="575" r="5" fill="#160A8B" fill-opacity="0.1"/>
<circle cx="495" cy="575" r="5" fill="#160A8B" fill-opacity="0.1"/>
<circle cx="5" cy="677" r="5" fill="#160A8B" fill-opacity="0.1"/>
<circle cx="103" cy="677" r="5" fill="#160A8B" fill-opacity="0.1"/>
<circle cx="299" cy="677" r="5" fill="#160A8B" fill-opacity="0.1"/>
<circle cx="201" cy="677" r="5" fill="#160A8B" fill-opacity="0.1"/>
<circle cx="397" cy="677" r="5" fill="#160A8B" fill-opacity="0.1"/>
<circle cx="789" cy="677" r="5" fill="#160A8B" fill-opacity="0.1"/>
<circle cx="691" cy="677" r="5" fill="#160A8B" fill-opacity="0.1"/>
<circle cx="593" cy="677" r="5" fill="#160A8B" fill-opacity="0.1"/>
<circle cx="495" cy="677" r="5" fill="#160A8B" fill-opacity="0.1"/>
<circle cx="16" cy="779" r="5" fill="#160A8B" fill-opacity="0.1"/>
<circle cx="114" cy="779" r="5" fill="#160A8B" fill-opacity="0.1"/>
<circle cx="310" cy="779" r="5" fill="#160A8B" fill-opacity="0.1"/>
<circle cx="212" cy="779" r="5" fill="#160A8B" fill-opacity="0.1"/>
<circle cx="408" cy="779" r="5" fill="#160A8B" fill-opacity="0.1"/>
<circle cx="800" cy="779" r="5" fill="#160A8B" fill-opacity="0.1"/>
<circle cx="702" cy="779" r="5" fill="#160A8B" fill-opacity="0.1"/>
<circle cx="604" cy="779" r="5" fill="#160A8B" fill-opacity="0.1"/>
<circle cx="506" cy="779" r="5" fill="#160A8B" fill-opacity="0.1"/>
</svg>
