<svg width="730" height="826" viewBox="0 0 730 826" fill="none" xmlns="http://www.w3.org/2000/svg">
<circle cx="27" cy="107" r="5" fill="#160A8B" fill-opacity="0.1"/>
<circle cx="125" cy="107" r="5" fill="#160A8B" fill-opacity="0.1"/>
<circle cx="321" cy="107" r="5" fill="#160A8B" fill-opacity="0.1"/>
<circle cx="223" cy="107" r="5" fill="#160A8B" fill-opacity="0.1"/>
<circle cx="419" cy="107" r="5" fill="#160A8B" fill-opacity="0.1"/>
<circle cx="713" cy="107" r="5" fill="#160A8B" fill-opacity="0.1"/>
<circle cx="615" cy="107" r="5" fill="#160A8B" fill-opacity="0.1"/>
<circle cx="517" cy="107" r="5" fill="#160A8B" fill-opacity="0.1"/>
<circle cx="27" cy="5" r="5" fill="#160A8B" fill-opacity="0.1"/>
<circle cx="125" cy="5" r="5" fill="#160A8B" fill-opacity="0.1"/>
<circle cx="321" cy="5" r="5" fill="#160A8B" fill-opacity="0.1"/>
<circle cx="223" cy="5" r="5" fill="#160A8B" fill-opacity="0.1"/>
<circle cx="419" cy="5" r="5" fill="#160A8B" fill-opacity="0.1"/>
<circle cx="713" cy="5" r="5" fill="#160A8B" fill-opacity="0.1"/>
<circle cx="615" cy="5" r="5" fill="#160A8B" fill-opacity="0.1"/>
<circle cx="517" cy="5" r="5" fill="#160A8B" fill-opacity="0.1"/>
<circle cx="27" cy="209" r="5" fill="#160A8B" fill-opacity="0.1"/>
<circle cx="125" cy="209" r="5" fill="#160A8B" fill-opacity="0.1"/>
<circle cx="321" cy="209" r="5" fill="#160A8B" fill-opacity="0.1"/>
<circle cx="223" cy="209" r="5" fill="#160A8B" fill-opacity="0.1"/>
<circle cx="419" cy="209" r="5" fill="#160A8B" fill-opacity="0.1"/>
<circle cx="713" cy="209" r="5" fill="#160A8B" fill-opacity="0.1"/>
<circle cx="615" cy="209" r="5" fill="#160A8B" fill-opacity="0.1"/>
<circle cx="517" cy="209" r="5" fill="#160A8B" fill-opacity="0.1"/>
<circle cx="16" cy="311" r="5" fill="#160A8B" fill-opacity="0.1"/>
<circle cx="114" cy="311" r="5" fill="#160A8B" fill-opacity="0.1"/>
<circle cx="310" cy="311" r="5" fill="#160A8B" fill-opacity="0.1"/>
<circle cx="212" cy="311" r="5" fill="#160A8B" fill-opacity="0.1"/>
<circle cx="408" cy="311" r="5" fill="#160A8B" fill-opacity="0.1"/>
<circle cx="702" cy="311" r="5" fill="#160A8B" fill-opacity="0.1"/>
<circle cx="604" cy="311" r="5" fill="#160A8B" fill-opacity="0.1"/>
<circle cx="506" cy="311" r="5" fill="#160A8B" fill-opacity="0.1"/>
<circle cx="16" cy="413" r="5" fill="#160A8B" fill-opacity="0.1"/>
<circle cx="114" cy="413" r="5" fill="#160A8B" fill-opacity="0.1"/>
<circle cx="310" cy="413" r="5" fill="#160A8B" fill-opacity="0.1"/>
<circle cx="212" cy="413" r="5" fill="#160A8B"/>
<circle cx="408" cy="413" r="5" fill="#160A8B" fill-opacity="0.1"/>
<circle cx="702" cy="413" r="5" fill="#160A8B" fill-opacity="0.1"/>
<circle cx="604" cy="413" r="5" fill="#160A8B" fill-opacity="0.1"/>
<circle cx="506" cy="413" r="5" fill="#160A8B" fill-opacity="0.1"/>
<circle cx="16" cy="515" r="5" fill="#160A8B" fill-opacity="0.1"/>
<circle cx="114" cy="515" r="5" fill="#160A8B" fill-opacity="0.1"/>
<circle cx="310" cy="515" r="5" fill="#160A8B" fill-opacity="0.1"/>
<circle cx="212" cy="515" r="5" fill="#160A8B" fill-opacity="0.1"/>
<circle cx="408" cy="515" r="5" fill="#160A8B" fill-opacity="0.1"/>
<circle cx="702" cy="515" r="5" fill="#160A8B" fill-opacity="0.1"/>
<circle cx="604" cy="515" r="5" fill="#160A8B" fill-opacity="0.1"/>
<circle cx="506" cy="515" r="5" fill="#160A8B" fill-opacity="0.1"/>
<circle cx="5" cy="617" r="5" fill="#160A8B" fill-opacity="0.1"/>
<circle cx="103" cy="617" r="5" fill="#160A8B" fill-opacity="0.1"/>
<circle cx="299" cy="617" r="5" fill="#160A8B" fill-opacity="0.1"/>
<circle cx="201" cy="617" r="5" fill="#160A8B" fill-opacity="0.1"/>
<circle cx="397" cy="617" r="5" fill="#160A8B" fill-opacity="0.1"/>
<circle cx="691" cy="617" r="5" fill="#160A8B" fill-opacity="0.1"/>
<circle cx="593" cy="617" r="5" fill="#160A8B" fill-opacity="0.1"/>
<circle cx="495" cy="617" r="5" fill="#160A8B" fill-opacity="0.1"/>
<circle cx="5" cy="719" r="5" fill="#160A8B"/>
<circle cx="103" cy="719" r="5" fill="#160A8B" fill-opacity="0.1"/>
<circle cx="299" cy="719" r="5" fill="#160A8B" fill-opacity="0.1"/>
<circle cx="201" cy="719" r="5" fill="#160A8B" fill-opacity="0.1"/>
<circle cx="397" cy="719" r="5" fill="#160A8B" fill-opacity="0.1"/>
<circle cx="691" cy="719" r="5" fill="#160A8B" fill-opacity="0.1"/>
<circle cx="593" cy="719" r="5" fill="#160A8B" fill-opacity="0.1"/>
<circle cx="495" cy="719" r="5" fill="#160A8B" fill-opacity="0.1"/>
<circle cx="16" cy="821" r="5" fill="#160A8B" fill-opacity="0.1"/>
<circle cx="114" cy="821" r="5" fill="#160A8B" fill-opacity="0.1"/>
<circle cx="310" cy="821" r="5" fill="#160A8B" fill-opacity="0.1"/>
<circle cx="212" cy="821" r="5" fill="#160A8B" fill-opacity="0.1"/>
<circle cx="408" cy="821" r="5" fill="#160A8B" fill-opacity="0.1"/>
<circle cx="702" cy="821" r="5" fill="#160A8B" fill-opacity="0.1"/>
<circle cx="604" cy="821" r="5" fill="#160A8B" fill-opacity="0.1"/>
<circle cx="506" cy="821" r="5" fill="#160A8B" fill-opacity="0.1"/>
</svg>
