<svg width="772" height="418" viewBox="0 0 772 418" fill="none" xmlns="http://www.w3.org/2000/svg">
<circle cx="16" cy="107" r="5" fill="#160A8B" fill-opacity="0.1"/>
<circle cx="114" cy="107" r="5" fill="#160A8B" fill-opacity="0.1"/>
<circle cx="310" cy="107" r="5" fill="#160A8B" fill-opacity="0.1"/>
<circle cx="212" cy="107" r="5" fill="#160A8B" fill-opacity="0.1"/>
<circle cx="408" cy="107" r="5" fill="#160A8B" fill-opacity="0.1"/>
<circle cx="702" cy="107" r="5" fill="#160A8B"/>
<circle cx="604" cy="107" r="5" fill="#160A8B" fill-opacity="0.1"/>
<circle cx="506" cy="107" r="5" fill="#160A8B" fill-opacity="0.1"/>
<circle cx="16" cy="5" r="5" fill="#160A8B" fill-opacity="0.1"/>
<circle cx="114" cy="5" r="5" fill="#160A8B" fill-opacity="0.1"/>
<circle cx="310" cy="5" r="5" fill="#160A8B" fill-opacity="0.1"/>
<circle cx="212" cy="5" r="5" fill="#160A8B" fill-opacity="0.1"/>
<circle cx="408" cy="5" r="5" fill="#160A8B" fill-opacity="0.1"/>
<circle cx="702" cy="5" r="5" fill="#160A8B" fill-opacity="0.1"/>
<circle cx="604" cy="5" r="5" fill="#160A8B" fill-opacity="0.1"/>
<circle cx="506" cy="5" r="5" fill="#160A8B" fill-opacity="0.1"/>
<circle cx="16" cy="209" r="5" fill="#160A8B" fill-opacity="0.1"/>
<circle cx="114" cy="209" r="5" fill="#160A8B" fill-opacity="0.1"/>
<circle cx="310" cy="209" r="5" fill="#160A8B" fill-opacity="0.1"/>
<circle cx="212" cy="209" r="5" fill="#160A8B" fill-opacity="0.1"/>
<circle cx="408" cy="209" r="5" fill="#160A8B" fill-opacity="0.1"/>
<circle cx="702" cy="209" r="5" fill="#160A8B" fill-opacity="0.1"/>
<circle cx="604" cy="209" r="5" fill="#160A8B" fill-opacity="0.1"/>
<circle cx="506" cy="209" r="5" fill="#160A8B" fill-opacity="0.1"/>
<circle cx="5" cy="311" r="5" fill="#160A8B" fill-opacity="0.1"/>
<circle cx="103" cy="311" r="5" fill="#160A8B"/>
<circle cx="299" cy="311" r="5" fill="#160A8B" fill-opacity="0.1"/>
<circle cx="201" cy="311" r="5" fill="#160A8B" fill-opacity="0.1"/>
<circle cx="397" cy="311" r="5" fill="#160A8B" fill-opacity="0.1"/>
<circle cx="691" cy="311" r="5" fill="#160A8B" fill-opacity="0.1"/>
<circle cx="593" cy="311" r="5" fill="#160A8B" fill-opacity="0.1"/>
<circle cx="495" cy="311" r="5" fill="#160A8B" fill-opacity="0.1"/>
<circle cx="5" cy="413" r="5" fill="#160A8B" fill-opacity="0.1"/>
<circle cx="103" cy="413" r="5" fill="#160A8B" fill-opacity="0.1"/>
<circle cx="299" cy="413" r="5" fill="#160A8B" fill-opacity="0.1"/>
<circle cx="201" cy="413" r="5" fill="#160A8B" fill-opacity="0.1"/>
<circle cx="397" cy="413" r="5" fill="#160A8B" fill-opacity="0.1"/>
<circle cx="691" cy="413" r="5" fill="#160A8B" fill-opacity="0.1"/>
<circle cx="593" cy="413" r="5" fill="#160A8B" fill-opacity="0.1"/>
<circle cx="495" cy="413" r="5" fill="#160A8B" fill-opacity="0.1"/>
</svg>
