<svg width="418" height="292" viewBox="0 0 418 292" fill="none" xmlns="http://www.w3.org/2000/svg">
<ellipse rx="4.78346" ry="5" transform="matrix(0 -1 -1 0 311 286.491)" fill="#160A8B"/>
<ellipse rx="4.78346" ry="5" transform="matrix(0 -1 -1 0 311 192.735)" fill="#160A8B"/>
<ellipse rx="4.78346" ry="5" transform="matrix(0 -1 -1 0 311 5.22371)" fill="white" fill-opacity="0.1"/>
<ellipse rx="4.78345" ry="5" transform="matrix(0 -1 -1 0 311 98.9795)" fill="white" fill-opacity="0.1"/>
<ellipse rx="4.78346" ry="5" transform="matrix(0 -1 -1 0 413 286.491)" fill="#160A8B"/>
<ellipse rx="4.78346" ry="5" transform="matrix(0 -1 -1 0 413 192.735)" fill="#160A8B"/>
<ellipse rx="4.78346" ry="5" transform="matrix(0 -1 -1 0 413 5.22371)" fill="white" fill-opacity="0.1"/>
<ellipse rx="4.78345" ry="5" transform="matrix(0 -1 -1 0 413 98.9795)" fill="white" fill-opacity="0.1"/>
<ellipse rx="4.78346" ry="5" transform="matrix(0 -1 -1 0 209 286.491)" fill="#160A8B"/>
<ellipse rx="4.78346" ry="5" transform="matrix(0 -1 -1 0 209 192.735)" fill="#160A8B"/>
<ellipse rx="4.78346" ry="5" transform="matrix(0 -1 -1 0 209 5.22371)" fill="white" fill-opacity="0.1"/>
<ellipse rx="4.78345" ry="5" transform="matrix(0 -1 -1 0 209 98.9795)" fill="white" fill-opacity="0.1"/>
<ellipse rx="4.78346" ry="5" transform="matrix(0 -1 -1 0 107 286.491)" fill="#160A8B"/>
<ellipse rx="4.78346" ry="5" transform="matrix(0 -1 -1 0 107 192.735)" fill="#160A8B"/>
<ellipse rx="4.78346" ry="5" transform="matrix(0 -1 -1 0 107 5.22371)" fill="white" fill-opacity="0.1"/>
<ellipse rx="4.78345" ry="5" transform="matrix(0 -1 -1 0 107 98.9795)" fill="white" fill-opacity="0.1"/>
<ellipse rx="4.78346" ry="5" transform="matrix(0 -1 -1 0 5 286.491)" fill="#160A8B"/>
<ellipse rx="4.78346" ry="5" transform="matrix(0 -1 -1 0 5 192.735)" fill="#160A8B"/>
<ellipse rx="4.78346" ry="5" transform="matrix(0 -1 -1 0 5 5.22371)" fill="white" fill-opacity="0.1"/>
<ellipse rx="4.78345" ry="5" transform="matrix(0 -1 -1 0 5 98.9795)" fill="white" fill-opacity="0.1"/>
</svg>
