<svg width="926" height="418" viewBox="0 0 926 418" fill="none" xmlns="http://www.w3.org/2000/svg">
<circle r="5" transform="matrix(-1 0 0 1 910 107)" fill="#160A8B" fill-opacity="0.1"/>
<circle r="5" transform="matrix(-1 0 0 1 812 107)" fill="#160A8B" fill-opacity="0.1"/>
<circle r="5" transform="matrix(-1 0 0 1 616 107)" fill="#160A8B" fill-opacity="0.1"/>
<circle r="5" transform="matrix(-1 0 0 1 714 107)" fill="#160A8B" fill-opacity="0.1"/>
<circle r="5" transform="matrix(-1 0 0 1 518 107)" fill="#160A8B" fill-opacity="0.1"/>
<circle r="5" transform="matrix(-1 0 0 1 126 107)" fill="#160A8B" fill-opacity="0.1"/>
<circle r="5" transform="matrix(-1 0 0 1 28 107)" fill="#160A8B" fill-opacity="0.1"/>
<circle r="5" transform="matrix(-1 0 0 1 224 107)" fill="#160A8B"/>
<circle r="5" transform="matrix(-1 0 0 1 322 107)" fill="#160A8B" fill-opacity="0.1"/>
<circle r="5" transform="matrix(-1 0 0 1 420 107)" fill="#160A8B" fill-opacity="0.1"/>
<circle r="5" transform="matrix(-1 0 0 1 910 5)" fill="#160A8B" fill-opacity="0.1"/>
<circle r="5" transform="matrix(-1 0 0 1 812 5)" fill="#160A8B" fill-opacity="0.1"/>
<circle r="5" transform="matrix(-1 0 0 1 616 5)" fill="#160A8B" fill-opacity="0.1"/>
<circle r="5" transform="matrix(-1 0 0 1 714 5)" fill="#160A8B" fill-opacity="0.1"/>
<circle r="5" transform="matrix(-1 0 0 1 518 5)" fill="#160A8B" fill-opacity="0.1"/>
<circle r="5" transform="matrix(-1 0 0 1 126 5)" fill="#160A8B" fill-opacity="0.1"/>
<circle r="5" transform="matrix(-1 0 0 1 28 5)" fill="#160A8B" fill-opacity="0.1"/>
<circle r="5" transform="matrix(-1 0 0 1 224 5)" fill="#160A8B" fill-opacity="0.1"/>
<circle r="5" transform="matrix(-1 0 0 1 322 5)" fill="#160A8B" fill-opacity="0.1"/>
<circle r="5" transform="matrix(-1 0 0 1 420 5)" fill="#160A8B" fill-opacity="0.1"/>
<circle r="5" transform="matrix(-1 0 0 1 910 209)" fill="#160A8B" fill-opacity="0.1"/>
<circle r="5" transform="matrix(-1 0 0 1 812 209)" fill="#160A8B" fill-opacity="0.1"/>
<circle r="5" transform="matrix(-1 0 0 1 616 209)" fill="#160A8B" fill-opacity="0.1"/>
<circle r="5" transform="matrix(-1 0 0 1 714 209)" fill="#160A8B" fill-opacity="0.1"/>
<circle r="5" transform="matrix(-1 0 0 1 518 209)" fill="#160A8B" fill-opacity="0.1"/>
<circle r="5" transform="matrix(-1 0 0 1 126 209)" fill="#160A8B" fill-opacity="0.1"/>
<circle r="5" transform="matrix(-1 0 0 1 28 209)" fill="#160A8B" fill-opacity="0.1"/>
<circle r="5" transform="matrix(-1 0 0 1 224 209)" fill="#160A8B" fill-opacity="0.1"/>
<circle r="5" transform="matrix(-1 0 0 1 322 209)" fill="#160A8B" fill-opacity="0.1"/>
<circle r="5" transform="matrix(-1 0 0 1 420 209)" fill="#160A8B" fill-opacity="0.1"/>
<circle r="5" transform="matrix(-1 0 0 1 921 311)" fill="#160A8B" fill-opacity="0.1"/>
<circle r="5" transform="matrix(-1 0 0 1 823 311)" fill="#160A8B"/>
<circle r="5" transform="matrix(-1 0 0 1 627 311)" fill="#160A8B" fill-opacity="0.1"/>
<circle r="5" transform="matrix(-1 0 0 1 725 311)" fill="#160A8B" fill-opacity="0.1"/>
<circle r="5" transform="matrix(-1 0 0 1 529 311)" fill="#160A8B" fill-opacity="0.1"/>
<circle r="5" transform="matrix(-1 0 0 1 137 311)" fill="#160A8B" fill-opacity="0.1"/>
<circle r="5" transform="matrix(-1 0 0 1 39 311)" fill="#160A8B" fill-opacity="0.1"/>
<circle r="5" transform="matrix(-1 0 0 1 235 311)" fill="#160A8B" fill-opacity="0.1"/>
<circle r="5" transform="matrix(-1 0 0 1 333 311)" fill="#160A8B" fill-opacity="0.1"/>
<circle r="5" transform="matrix(-1 0 0 1 431 311)" fill="#160A8B" fill-opacity="0.1"/>
<circle r="5" transform="matrix(-1 0 0 1 921 413)" fill="#160A8B" fill-opacity="0.1"/>
<circle r="5" transform="matrix(-1 0 0 1 823 413)" fill="#160A8B" fill-opacity="0.1"/>
<circle r="5" transform="matrix(-1 0 0 1 627 413)" fill="#160A8B" fill-opacity="0.1"/>
<circle r="5" transform="matrix(-1 0 0 1 725 413)" fill="#160A8B" fill-opacity="0.1"/>
<circle r="5" transform="matrix(-1 0 0 1 529 413)" fill="#160A8B" fill-opacity="0.1"/>
<circle r="5" transform="matrix(-1 0 0 1 137 413)" fill="#160A8B" fill-opacity="0.1"/>
<circle r="5" transform="matrix(-1 0 0 1 39 413)" fill="#160A8B" fill-opacity="0.1"/>
<circle r="5" transform="matrix(-1 0 0 1 235 413)" fill="#160A8B" fill-opacity="0.1"/>
<circle r="5" transform="matrix(-1 0 0 1 333 413)" fill="#160A8B" fill-opacity="0.1"/>
<circle r="5" transform="matrix(-1 0 0 1 431 413)" fill="#160A8B" fill-opacity="0.1"/>
</svg>
