<svg width="874" height="418" viewBox="0 0 874 418" fill="none" xmlns="http://www.w3.org/2000/svg">
<circle r="5" transform="matrix(-1 0 0 1 789 107)" fill="#160A8B" fill-opacity="0.1"/>
<circle r="5" transform="matrix(-1 0 0 1 691 107)" fill="#160A8B" fill-opacity="0.1"/>
<circle r="5" transform="matrix(-1 0 0 1 593 107)" fill="#160A8B" fill-opacity="0.1"/>
<circle r="5" transform="matrix(-1 0 0 1 495 107)" fill="#160A8B" fill-opacity="0.1"/>
<circle r="5" transform="matrix(-1 0 0 1 397 107)" fill="#160A8B" fill-opacity="0.1"/>
<circle r="5" transform="matrix(-1 0 0 1 299 107)" fill="#160A8B" fill-opacity="0.1"/>
<circle r="5" transform="matrix(-1 0 0 1 201 107)" fill="#160A8B" fill-opacity="0.1"/>
<circle r="5" transform="matrix(-1 0 0 1 103 107)" fill="#160A8B" fill-opacity="0.1"/>
<circle r="5" transform="matrix(-1 0 0 1 5 107)" fill="#160A8B" fill-opacity="0.1"/>
<circle r="5" transform="matrix(-1 0 0 1 789 5)" fill="#160A8B" fill-opacity="0.1"/>
<circle r="5" transform="matrix(-1 0 0 1 691 5)" fill="#160A8B" fill-opacity="0.1"/>
<circle r="5" transform="matrix(-1 0 0 1 593 5)" fill="#160A8B" fill-opacity="0.1"/>
<circle r="5" transform="matrix(-1 0 0 1 495 5)" fill="#160A8B" fill-opacity="0.1"/>
<circle r="5" transform="matrix(-1 0 0 1 397 5)" fill="#160A8B" fill-opacity="0.1"/>
<circle r="5" transform="matrix(-1 0 0 1 299 5)" fill="#160A8B" fill-opacity="0.1"/>
<circle r="5" transform="matrix(-1 0 0 1 201 5)" fill="#160A8B" fill-opacity="0.1"/>
<circle r="5" transform="matrix(-1 0 0 1 103 5)" fill="#160A8B" fill-opacity="0.1"/>
<circle r="5" transform="matrix(-1 0 0 1 5 5)" fill="#160A8B" fill-opacity="0.1"/>
<circle r="5" transform="matrix(-1 0 0 1 789 209)" fill="#160A8B" fill-opacity="0.1"/>
<circle r="5" transform="matrix(-1 0 0 1 691 209)" fill="#160A8B" fill-opacity="0.1"/>
<circle r="5" transform="matrix(-1 0 0 1 593 209)" fill="#160A8B" fill-opacity="0.1"/>
<circle r="5" transform="matrix(-1 0 0 1 495 209)" fill="#160A8B" fill-opacity="0.1"/>
<circle r="5" transform="matrix(-1 0 0 1 397 209)" fill="#160A8B" fill-opacity="0.1"/>
<circle r="5" transform="matrix(-1 0 0 1 299 209)" fill="#160A8B" fill-opacity="0.1"/>
<circle r="5" transform="matrix(-1 0 0 1 201 209)" fill="#160A8B" fill-opacity="0.1"/>
<circle r="5" transform="matrix(-1 0 0 1 103 209)" fill="#160A8B" fill-opacity="0.1"/>
<circle r="5" transform="matrix(-1 0 0 1 5 209)" fill="#160A8B" fill-opacity="0.1"/>
<circle r="5" transform="matrix(-1 0 0 1 800 311)" fill="#160A8B" fill-opacity="0.1"/>
<circle r="5" transform="matrix(-1 0 0 1 702 311)" fill="#160A8B" fill-opacity="0.1"/>
<circle r="5" transform="matrix(-1 0 0 1 604 311)" fill="#160A8B" fill-opacity="0.1"/>
<circle r="5" transform="matrix(-1 0 0 1 506 311)" fill="#160A8B" fill-opacity="0.1"/>
<circle r="5" transform="matrix(-1 0 0 1 408 311)" fill="#160A8B" fill-opacity="0.1"/>
<circle r="5" transform="matrix(-1 0 0 1 310 311)" fill="#160A8B" fill-opacity="0.1"/>
<circle r="5" transform="matrix(-1 0 0 1 212 311)" fill="#160A8B" fill-opacity="0.1"/>
<circle r="5" transform="matrix(-1 0 0 1 114 311)" fill="#160A8B" fill-opacity="0.1"/>
<circle r="5" transform="matrix(-1 0 0 1 16 311)" fill="#160A8B" fill-opacity="0.1"/>
<circle r="5" transform="matrix(-1 0 0 1 800 413)" fill="#160A8B" fill-opacity="0.1"/>
<circle r="5" transform="matrix(-1 0 0 1 702 413)" fill="#160A8B" fill-opacity="0.1"/>
<circle r="5" transform="matrix(-1 0 0 1 604 413)" fill="#160A8B" fill-opacity="0.1"/>
<circle r="5" transform="matrix(-1 0 0 1 506 413)" fill="#160A8B" fill-opacity="0.1"/>
<circle r="5" transform="matrix(-1 0 0 1 408 413)" fill="#160A8B" fill-opacity="0.1"/>
<circle r="5" transform="matrix(-1 0 0 1 310 413)" fill="#160A8B" fill-opacity="0.1"/>
<circle r="5" transform="matrix(-1 0 0 1 212 413)" fill="#160A8B" fill-opacity="0.1"/>
<circle r="5" transform="matrix(-1 0 0 1 114 413)" fill="#160A8B" fill-opacity="0.1"/>
<circle r="5" transform="matrix(-1 0 0 1 16 413)" fill="#160A8B" fill-opacity="0.1"/>
</svg>
