<svg width="180" height="144" viewBox="0 0 180 144" fill="none" xmlns="http://www.w3.org/2000/svg">
<circle r="3" transform="matrix(1 0 0 -1 3 141)" fill="#160A8B"/>
<circle r="3" transform="matrix(1 0 0 -1 79 141)" fill="#160A8B"/>
<circle r="3" transform="matrix(1 0 0 -1 155 141)" fill="#160A8B"/>
<circle r="3" transform="matrix(1 0 0 -1 3 95)" fill="#160A8B"/>
<circle r="3" transform="matrix(1 0 0 -1 79 95)" fill="#160A8B"/>
<circle r="3" transform="matrix(1 0 0 -1 155 95)" fill="#160A8B"/>
<circle r="3" transform="matrix(1 0 0 -1 3 49)" fill="white"/>
<circle r="3" transform="matrix(1 0 0 -1 79 49)" fill="white"/>
<circle r="3" transform="matrix(1 0 0 -1 155 49)" fill="white"/>
<circle r="3" transform="matrix(1 0 0 -1 3 3)" fill="white"/>
<circle r="3" transform="matrix(1 0 0 -1 79 3)" fill="white"/>
<circle r="3" transform="matrix(1 0 0 -1 155 3)" fill="white"/>
</svg>
