<svg width="30" height="30" viewBox="0 0 30 30" fill="none" xmlns="http://www.w3.org/2000/svg">
<g clip-path="url(#clip0)">
<path d="M29.6451 0.355197C29.1718 -0.118065 28.4045 -0.118065 27.9313 0.355197L0.354946 27.9315C-0.118315 28.4047 -0.118315 29.172 0.354946 29.6453C0.591548 29.882 0.901743 30.0002 1.21188 30.0002C1.52202 30.0002 1.83215 29.8819 2.06881 29.6452L29.6451 2.06895C30.1183 1.59574 30.1183 0.828458 29.6451 0.355197Z" fill="#FF671B"/>
<path d="M29.645 27.9312L2.0687 0.35497C1.59549 -0.118292 0.828149 -0.118292 0.354946 0.35497C-0.118315 0.828173 -0.118315 1.59546 0.354946 2.06872L27.9313 29.645C28.1679 29.8817 28.4781 30 28.7882 30C29.0983 30 29.4085 29.8817 29.6451 29.6451C30.1182 29.1718 30.1182 28.4045 29.645 27.9312Z" fill="#FF671B"/>
</g>
<defs>
<clipPath id="clip0">
<rect width="30" height="30" fill="white"/>
</clipPath>
</defs>
</svg>
