<svg width="100" height="100" viewBox="0 0 100 100" fill="none" xmlns="http://www.w3.org/2000/svg">
<path d="M50.0002 86.9564C52.4014 86.9564 54.348 85.0098 54.348 82.6086C54.348 80.2073 52.4014 78.2607 50.0002 78.2607C47.5989 78.2607 45.6523 80.2073 45.6523 82.6086C45.6523 85.0098 47.5989 86.9564 50.0002 86.9564Z" fill="#160A8B"/>
<path d="M42.8446 39.7672L34.1489 31.0716C33.2989 30.2216 31.925 30.2216 31.075 31.0716C30.225 31.9216 30.225 33.2955 31.075 34.1455L38.2337 41.3042L31.075 48.4629C30.225 49.3129 30.225 50.6868 31.075 51.5368C31.4989 51.9607 32.0554 52.1738 32.612 52.1738C33.1685 52.1738 33.725 51.9607 34.1489 51.5368L42.8446 42.8411C43.6946 41.9911 43.6946 40.6172 42.8446 39.7672Z" fill="#160A8B"/>
<path d="M67.3894 47.8262H49.9981C48.7981 47.8262 47.8242 48.8001 47.8242 50.0001C47.8242 51.2001 48.7981 52.174 49.9981 52.174H67.3894C68.5894 52.174 69.5633 51.2001 69.5633 50.0001C69.5633 48.8001 68.5894 47.8262 67.3894 47.8262Z" fill="#160A8B"/>
<path d="M67.3932 34.7827H54.3497C53.1497 34.7827 52.1758 35.7566 52.1758 36.9566C52.1758 38.1566 53.1497 39.1305 54.3497 39.1305H67.3932C68.5932 39.1305 69.5671 38.1566 69.5671 36.9566C69.5671 35.7566 68.5932 34.7827 67.3932 34.7827Z" fill="#160A8B"/>
<path d="M67.3901 60.8696H32.6075C31.4075 60.8696 30.4336 61.8435 30.4336 63.0435C30.4336 64.2435 31.4075 65.2174 32.6075 65.2174H67.3901C68.5901 65.2174 69.564 64.2435 69.564 63.0435C69.564 61.8435 68.5901 60.8696 67.3901 60.8696Z" fill="#160A8B"/>
<path d="M71.7297 0C71.3276 0 28.2602 0 28.2602 0C28.2602 0 28.2602 0 28.258 0C25.3558 0 22.6276 1.13043 20.5754 3.18261C18.5232 5.23478 17.3906 7.96739 17.3906 10.8696V15.213C17.3906 15.2152 17.3906 15.2152 17.3906 15.2174C17.3906 15.2196 17.3906 15.2196 17.3906 15.2217V89.1304C17.3906 95.1239 22.2667 100 28.2602 100H71.7384C77.7319 100 82.608 95.1239 82.608 89.1304V10.8696C82.608 4.87609 77.7319 0 71.7297 0ZM21.7385 10.8696C21.7385 9.12826 22.4167 7.48913 23.6493 6.2587C24.8798 5.02826 26.5167 4.34783 28.258 4.34783H49.9971C64.4624 4.34783 69.6863 4.34783 71.7363 4.18043V4.34783C75.3319 4.34783 78.258 7.27391 78.258 10.8696V13.0435H21.7385V10.8696ZM78.2602 89.1304C78.2602 92.7261 75.3341 95.6522 71.7384 95.6522H28.2602C24.6645 95.6522 21.7385 92.7261 21.7385 89.1304V17.3913H78.2602V89.1304Z" fill="#160A8B"/>
</svg>
