<svg width="100" height="100" viewBox="0 0 100 100" fill="none" xmlns="http://www.w3.org/2000/svg">
<g clip-path="url(#clip0)">
<path d="M49.7686 52.5795C42.5268 52.8114 36.672 58.6655 36.4408 65.9073C36.1868 73.8617 42.6611 80.3833 50.6681 80.1346C57.9099 79.9026 63.764 74.0486 63.9959 66.8068C64.2484 58.8837 57.8069 52.3331 49.7686 52.5795ZM50.543 76.2306C44.8339 76.4137 40.1617 71.7628 40.3448 66.0316C40.6217 57.3646 51.1419 53.3096 57.2034 59.3719C63.297 65.4655 59.1581 75.956 50.543 76.2306Z" fill="#160A8B"/>
<path d="M99.9873 36.4449C99.795 30.9364 97.5726 25.7408 93.7281 21.8147C88.1655 16.1331 80.1455 14.048 72.7893 15.8371C67.618 6.99158 58.224 1.5625 47.9022 1.5625C35.5075 1.5625 24.5074 9.54132 20.5821 21.1647C7.42441 20.092 -3.1423 32.8621 0.857793 45.8862C2.41266 50.9483 7.02768 54.3495 12.3423 54.3495H27.1479L28.2969 55.4985C27.8956 56.3293 27.5424 57.1823 27.2387 58.0513H23.9993C20.6721 58.0513 17.9652 60.7582 17.9652 64.0854V68.0595C17.9652 71.3875 20.6721 74.0944 23.9993 74.0944H27.2387C27.5424 74.9634 27.8956 75.8156 28.2969 76.6464L25.268 79.676C23.3172 81.6261 23.3172 84.7832 25.268 86.734L28.8165 90.2824C31.1694 92.6346 34.997 92.6346 37.35 90.2824L39.6411 87.9906C40.4719 88.3926 41.3249 88.7459 42.1939 89.0495V92.289C42.1939 95.6154 44.9008 98.3231 48.2279 98.3231H52.2029C55.53 98.3231 58.2369 95.6154 58.2369 92.289V89.0495C59.1059 88.7459 59.9581 88.3926 60.789 87.9906L63.0808 90.2824C65.433 92.6346 69.2614 92.6346 71.6143 90.2824L74.425 87.4718C76.7832 85.1135 76.7832 81.2965 74.425 78.9375L72.1331 76.6464C72.5352 75.8156 72.8884 74.9634 73.1921 74.0944H76.4315C79.7587 74.0944 82.4656 71.3875 82.4656 68.0603V64.0854C82.4656 60.7582 79.7587 58.0513 76.4315 58.0513H73.1921C72.8884 57.1823 72.5344 56.3293 72.1331 55.4985L73.2829 54.3495H86.5367C90.7389 54.3495 94.6818 52.15 96.8272 48.6099C99.0443 44.9524 100.136 40.7463 99.9873 36.4449ZM76.4315 61.956C77.6049 61.956 78.5601 62.9112 78.5601 64.0854V68.0595C78.5601 69.2337 77.6049 70.1881 76.4315 70.1881H71.7608C70.8865 70.1881 70.1182 70.7703 69.8809 71.6125C69.4476 73.156 68.8265 74.6521 68.0369 76.0582C67.6089 76.8211 67.7401 77.7763 68.3589 78.3951L71.6632 81.6994C72.4948 82.531 72.4955 83.8776 71.6632 84.7099L68.8525 87.5206C68.0232 88.3507 66.672 88.3507 65.8427 87.5206L62.5384 84.2163C61.9189 83.5968 60.9645 83.4648 60.2015 83.8943C58.7947 84.684 57.2993 85.3043 55.7559 85.7384C54.9136 85.9749 54.3315 86.7432 54.3315 87.6182V92.2882C54.3315 93.4624 53.3763 94.4168 52.2029 94.4168H48.2279C47.0545 94.4168 46.0993 93.4624 46.0993 92.2882V87.6182C46.0993 86.7432 45.5172 85.9749 44.6749 85.7384C43.1315 85.3043 41.6361 84.684 40.23 83.8943C39.4671 83.4656 38.5119 83.5976 37.8924 84.2163L34.5881 87.5206C33.7588 88.3499 32.4076 88.3499 31.5783 87.5206L28.0299 83.9722C27.6065 83.5487 27.6065 82.8606 28.0299 82.4379L32.0719 78.3958C32.6907 77.7763 32.8219 76.8211 32.3939 76.0582C31.6043 74.6521 30.9832 73.1567 30.5499 71.6125C30.3126 70.7703 29.5451 70.1881 28.67 70.1881H23.9993C22.8259 70.1881 21.8707 69.2337 21.8707 68.0595V64.0854C21.8707 62.9112 22.8259 61.9568 23.9993 61.9568H28.67C29.5443 61.9568 30.3126 61.3747 30.5499 60.5324C30.9832 58.9882 31.6043 57.4928 32.3939 56.0867C32.8219 55.3238 32.6907 54.3686 32.0719 53.7498L28.7676 50.4456C27.9414 49.6193 27.9338 48.2689 28.7676 47.435L32.3161 43.8866C32.7365 43.4654 33.4239 43.4593 33.8503 43.8866L37.8924 47.9286C38.5089 48.5451 39.4641 48.6809 40.23 48.2506C41.5988 47.4815 43.0895 46.8521 44.6749 46.4066C45.5172 46.1693 46.0993 45.4018 46.0993 44.5267C46.1146 39.6263 46.0658 39.8018 46.1428 39.4279C46.342 38.459 47.201 37.7281 48.2279 37.7281H52.2029C53.2298 37.7281 54.0896 38.459 54.288 39.4279C54.365 39.801 54.317 39.6156 54.3315 44.5267C54.3315 45.401 54.9136 46.1693 55.7559 46.4066C57.2199 46.8178 58.739 47.4289 60.2015 48.2506C60.9736 48.6847 61.9273 48.5397 62.5384 47.9286C66.231 44.2421 65.8358 44.6152 66.0235 44.4641C66.8582 43.8004 68.0819 43.8538 68.8532 44.6243L71.6632 47.435C72.494 48.2658 72.4955 49.6132 71.6632 50.4456L68.3596 53.7498C67.7409 54.3686 67.6089 55.3238 68.0377 56.0867C68.8273 57.4928 69.4476 58.9882 69.8817 60.5324C70.1182 61.3747 70.8865 61.9568 71.7616 61.9568H76.4315V61.956ZM93.4878 46.5851C92.0451 48.9655 89.3817 50.444 86.5367 50.444H76.0043C76.4315 48.7572 76.1363 46.9131 75.0598 45.4208C74.5623 44.7311 74.2961 44.577 71.6143 41.8632C69.2614 39.5103 65.4338 39.5103 63.0808 41.8632L60.789 44.1544C59.9589 43.753 59.1059 43.399 58.2369 43.0954C58.2057 40.1138 58.3155 39.6233 58.1141 38.6421C57.5503 35.8948 55.1142 33.8226 52.2029 33.8226C51.7367 33.8226 48.7338 33.8226 48.2279 33.8226C44.9008 33.8226 42.1939 36.5295 42.1939 39.8567V43.0954C41.3249 43.399 40.4727 43.753 39.6411 44.1544L36.6122 41.1247C34.6621 39.1746 31.5051 39.1746 29.5542 41.1247L26.8931 43.7859C25.9585 44.8006 23.4637 46.6789 24.4303 50.444H12.3431C8.75422 50.444 5.63913 48.1514 4.59162 44.7395C4.14835 43.2953 3.92328 41.7885 3.92328 40.2603C3.92328 27.1484 19.3934 20.3346 28.6448 28.6736C29.4474 29.3976 30.6819 29.3297 31.4021 28.5309C32.1246 27.729 32.0605 26.4946 31.2594 25.7729C29.2903 23.9975 26.9625 22.686 24.4601 21.9131C31.4822 2.50092 57.9638 -0.49057 69.0158 17.1516C67.0787 18.0298 65.2835 19.1856 63.6599 20.6055C62.8482 21.3158 62.7658 22.5494 63.4753 23.3612C64.1863 24.1745 65.4208 24.2546 66.231 23.5458C77.4569 13.7283 95.55 21.2372 96.0833 36.5799C96.2069 40.1199 95.3089 43.5799 93.4878 46.5851Z" fill="#160A8B"/>
</g>
<defs>
<clipPath id="clip0">
<rect width="100" height="100" fill="white"/>
</clipPath>
</defs>
</svg>
