<svg width="100" height="100" viewBox="0 0 100 100" fill="none" xmlns="http://www.w3.org/2000/svg">
<path d="M23.9127 34.7827H15.2171C11.6214 34.7827 8.69531 37.7088 8.69531 41.3045V63.0436C8.69531 64.2436 9.66705 65.2175 10.8692 65.2175C12.0714 65.2175 13.0431 64.2436 13.0431 63.0436V56.5218H26.0866V63.0436C26.0866 64.2436 27.0584 65.2175 28.2605 65.2175C29.4627 65.2175 30.4345 64.2436 30.4345 63.0436V41.3045C30.4345 37.7088 27.5084 34.7827 23.9127 34.7827ZM26.0866 52.174H13.0431V41.3045C13.0431 40.1066 14.0171 39.1305 15.2171 39.1305H23.9127C25.1127 39.1305 26.0866 40.1066 26.0866 41.3045V52.174Z" fill="#160A8B"/>
<path d="M52.1742 34.7827H43.4786C42.2764 34.7827 41.3047 35.7566 41.3047 36.9566V63.0436C41.3047 64.2436 42.2764 65.2175 43.4786 65.2175C44.6808 65.2175 45.6525 64.2436 45.6525 63.0436V56.5218H52.1742C58.1677 56.5218 63.0438 51.6458 63.0438 45.6523C63.0438 39.6588 58.1677 34.7827 52.1742 34.7827ZM52.1742 52.174H45.6525V39.1305H52.1742C55.7699 39.1305 58.696 42.0566 58.696 45.6523C58.696 49.2479 55.7699 52.174 52.1742 52.174Z" fill="#160A8B"/>
<path d="M89.1316 60.8697H82.6099V39.1305H89.1316C90.3338 39.1305 91.3055 38.1566 91.3055 36.9566C91.3055 35.7566 90.3338 34.7827 89.1316 34.7827H71.7403C70.5381 34.7827 69.5664 35.7566 69.5664 36.9566C69.5664 38.1566 70.5381 39.1305 71.7403 39.1305H78.2621V60.8697H71.7403C70.5381 60.8697 69.5664 61.8436 69.5664 63.0436C69.5664 64.2436 70.5381 65.2175 71.7403 65.2175H89.1316C90.3338 65.2175 91.3055 64.2436 91.3055 63.0436C91.3055 61.8436 90.3338 60.8697 89.1316 60.8697Z" fill="#160A8B"/>
<path d="M93.4783 13.0439H59.5956L51.537 4.98516C50.687 4.13516 49.313 4.13516 48.463 4.98516L40.4043 13.0439H6.52174C2.92609 13.0439 0 15.9699 0 19.5656V26.0873C0 27.2873 0.971739 28.2612 2.17391 28.2612C3.37609 28.2612 4.34783 27.2873 4.34783 26.0873V19.5656C4.34783 18.3678 5.32174 17.3917 6.52174 17.3917H41.3043C41.8826 17.3917 42.4348 17.1634 42.8413 16.7547L50 9.59603L57.1587 16.7547C57.5652 17.1634 58.1174 17.3917 58.6957 17.3917H93.4783C94.6783 17.3917 95.6522 18.3678 95.6522 19.5656V26.0873C95.6522 27.2873 96.6239 28.2612 97.8261 28.2612C99.0283 28.2612 100 27.2873 100 26.0873V19.5656C100 15.9699 97.0739 13.0439 93.4783 13.0439Z" fill="#160A8B"/>
<path d="M97.8261 71.7393C96.6239 71.7393 95.6522 72.7132 95.6522 73.9132V80.4349C95.6522 81.6327 94.6783 82.6088 93.4783 82.6088H58.6957C58.1174 82.6088 57.5652 82.8371 57.1587 83.2458L50 90.4045L42.8413 83.2458C42.4348 82.8371 41.8826 82.6088 41.3043 82.6088H6.52174C5.32174 82.6088 4.34783 81.6327 4.34783 80.4349V73.9132C4.34783 72.7132 3.37609 71.7393 2.17391 71.7393C0.971739 71.7393 0 72.7132 0 73.9132V80.4349C0 84.0306 2.92609 86.9566 6.52174 86.9566H40.4043L48.463 95.0153C48.887 95.4393 49.4435 95.6523 50 95.6523C50.5565 95.6523 51.113 95.4393 51.537 95.0153L59.5956 86.9566H93.4783C97.0739 86.9566 100 84.0306 100 80.4349V73.9132C100 72.7132 99.0283 71.7393 97.8261 71.7393Z" fill="#160A8B"/>
</svg>
