<svg width="100" height="100" viewBox="0 0 100 100" fill="none" xmlns="http://www.w3.org/2000/svg">
<path d="M98.0913 19.3C96.8587 18.0696 95.2217 17.3913 93.4783 17.3913H86.9565V6.52174C86.9565 2.92609 84.0304 0 80.4348 0H19.5652C15.9696 0 13.0435 2.92609 13.0435 6.52174V17.3913H6.52174C2.92609 17.3913 0 20.3174 0 23.913H0.158696C0 25.4717 0 28.1478 0 32.7457V80.4348C0 84.0304 2.92826 86.9565 6.52174 86.9565H30.6739C27.8478 89.7217 26.087 93.5696 26.087 97.8261C26.087 99.0261 27.0609 100 28.2609 100H71.7391C72.9391 100 73.913 99.0261 73.913 97.8261C73.913 93.5696 72.1522 89.7217 69.3261 86.9565H93.4783C95.2196 86.9565 96.8587 86.2783 98.0891 85.0456C99.3217 83.8152 100 82.1761 100 80.4348V23.913C100 22.1717 99.3217 20.5326 98.0913 19.3ZM17.3913 6.52174C17.3913 5.32391 18.3674 4.34783 19.5652 4.34783H80.4348C81.6326 4.34783 82.6087 5.32391 82.6087 6.52174V13.0435H17.3913V6.52174ZM69.5652 17.3913V30.4348H30.4348V17.3913H69.5652ZM17.3913 17.3913H26.087V32.6087C26.087 33.8087 27.0609 34.7826 28.2609 34.7826H71.7391C72.9391 34.7826 73.913 33.8087 73.913 32.6087V17.3913H82.6087V67.3913C82.6087 68.5913 81.6326 69.5652 80.4348 69.5652H19.5652C18.3674 69.5652 17.3913 68.5891 17.3913 67.3913V17.3913ZM69.3478 95.6522H30.6543C31.663 90.6978 36.0565 86.9565 41.3043 86.9565H58.6957C63.9457 86.9565 68.3391 90.6978 69.3478 95.6522ZM95.6522 80.4348C95.6522 81.0152 95.4261 81.5609 95.0174 81.9717C94.6065 82.3826 94.0609 82.6087 93.4783 82.6087H58.6957H41.3043H6.52174C5.32391 82.6087 4.34783 81.6326 4.34783 80.4348C4.34783 80.4348 4.34783 24.3609 4.34783 23.913C4.34783 22.7152 5.32174 21.7391 6.52174 21.7391H13.0435V67.3913C13.0435 70.987 15.9696 73.913 19.5652 73.913H80.4348C84.0304 73.913 86.9565 70.987 86.9565 67.3913V21.7391H93.4783C94.0587 21.7391 94.6043 21.9652 95.0152 22.3761C95.4261 22.7848 95.6522 23.3304 95.6522 23.913V80.4348Z" fill="#160A8B"/>
<path d="M52.1729 43.478H28.2599C27.0599 43.478 26.0859 44.4519 26.0859 45.6519C26.0859 46.8519 27.0599 47.8259 28.2599 47.8259H52.1729C53.3729 47.8259 54.3468 46.8519 54.3468 45.6519C54.3468 44.4519 53.3729 43.478 52.1729 43.478Z" fill="#160A8B"/>
<path d="M71.7386 43.478H65.2169C64.0169 43.478 63.043 44.4519 63.043 45.6519C63.043 46.8519 64.0169 47.8259 65.2169 47.8259H71.7386C72.9386 47.8259 73.9125 46.8519 73.9125 45.6519C73.9125 44.4519 72.9386 43.478 71.7386 43.478Z" fill="#160A8B"/>
<path d="M36.9555 56.522H28.2599C27.0599 56.522 26.0859 57.4959 26.0859 58.6959C26.0859 59.8959 27.0599 60.8698 28.2599 60.8698H36.9555C38.1555 60.8698 39.1294 59.8959 39.1294 58.6959C39.1294 57.4959 38.1555 56.522 36.9555 56.522Z" fill="#160A8B"/>
<path d="M71.7373 56.522H49.9981C48.7981 56.522 47.8242 57.4959 47.8242 58.6959C47.8242 59.8959 48.7981 60.8698 49.9981 60.8698H71.7373C72.9373 60.8698 73.9112 59.8959 73.9112 58.6959C73.9112 57.4959 72.9394 56.522 71.7373 56.522Z" fill="#160A8B"/>
</svg>
