<svg width="100" height="100" viewBox="0 0 100 100" fill="none" xmlns="http://www.w3.org/2000/svg">
<path d="M98.0913 19.3C96.8587 18.0696 95.2217 17.3913 93.4783 17.3913H86.9565V6.52174C86.9565 2.92609 84.0304 0 80.4348 0H19.5652C15.9696 0 13.0435 2.92609 13.0435 6.52174V17.3913H6.52174C2.92609 17.3913 0 20.3174 0 23.913H0.158696C0 25.4717 0 28.1478 0 32.7457V80.4348C0 84.0304 2.92826 86.9565 6.52174 86.9565H30.6739C27.8478 89.7217 26.087 93.5696 26.087 97.8261C26.087 99.0261 27.0609 100 28.2609 100H71.7391C72.9391 100 73.913 99.0261 73.913 97.8261C73.913 93.5696 72.1522 89.7217 69.3261 86.9565H93.4783C95.2196 86.9565 96.8587 86.2783 98.0891 85.0456C99.3217 83.8152 100 82.1761 100 80.4348V23.913C100 22.1717 99.3217 20.5326 98.0913 19.3ZM17.3913 6.52174C17.3913 5.32391 18.3674 4.34783 19.5652 4.34783H80.4348C81.6326 4.34783 82.6087 5.32391 82.6087 6.52174V13.0435H17.3913V6.52174ZM17.3913 17.3913H82.6087V67.3913C82.6087 68.5913 81.6326 69.5652 80.4348 69.5652H19.5652C18.3674 69.5652 17.3913 68.5891 17.3913 67.3913V17.3913ZM69.3478 95.6522H30.6543C31.663 90.6978 36.0565 86.9565 41.3043 86.9565H58.6957C63.9457 86.9565 68.3391 90.6978 69.3478 95.6522ZM95.6522 80.4348C95.6522 81.0152 95.4261 81.5609 95.0174 81.9717C94.6065 82.3826 94.0609 82.6087 93.4783 82.6087H58.6957H41.3043H6.52174C5.32391 82.6087 4.34783 81.6326 4.34783 80.4348C4.34783 80.4348 4.34783 24.3609 4.34783 23.913C4.34783 22.7152 5.32174 21.7391 6.52174 21.7391H13.0435V67.3913C13.0435 70.987 15.9696 73.913 19.5652 73.913H80.4348C84.0304 73.913 86.9565 70.987 86.9565 67.3913V21.7391H93.4783C94.0587 21.7391 94.6043 21.9652 95.0152 22.3761C95.4261 22.7848 95.6522 23.3304 95.6522 23.913V80.4348Z" fill="#160A8B"/>
<path d="M53.0751 43.4783L66.7556 29.7978C67.6056 28.9478 67.6056 27.5739 66.7556 26.7239C65.9056 25.8739 64.5317 25.8739 63.6817 26.7239L50.0012 40.4044L36.3208 26.7239C35.4708 25.8739 34.0969 25.8739 33.2469 26.7239C32.3969 27.5739 32.3969 28.9478 33.2469 29.7978L46.9273 43.4783L33.2469 57.1587C32.3969 58.0087 32.3969 59.3826 33.2469 60.2326C33.6708 60.6565 34.2273 60.8696 34.7838 60.8696C35.3404 60.8696 35.8969 60.6565 36.3208 60.2326L50.0012 46.5522L63.6817 60.2326C64.1056 60.6565 64.6621 60.8696 65.2186 60.8696C65.7751 60.8696 66.3317 60.6565 66.7556 60.2326C67.6056 59.3826 67.6056 58.0087 66.7556 57.1587L53.0751 43.4783Z" fill="#160A8B"/>
</svg>
