<svg width="100" height="100" viewBox="0 0 100 100" fill="none" xmlns="http://www.w3.org/2000/svg">
<path d="M99.9978 23.9125V6.5216C99.9978 2.92602 97.0718 0 93.4697 0C92.961 0 6.5216 0 6.5216 0C6.5216 0 6.5216 0 6.51942 0C4.77816 0 3.14124 0.678246 1.91083 1.90865C0.68042 3.13906 0 4.78033 0 6.5216V23.9125C0 27.5081 2.92602 30.4341 6.5216 30.4363H47.8251V52.175H39.1296V45.6512C39.1296 42.0556 36.2036 39.1296 32.608 39.1296H6.5216C6.5216 39.1296 6.5216 39.1296 6.51942 39.1296C4.77816 39.1296 3.14124 39.8078 1.91083 41.0382C0.68042 42.2686 0 43.9077 0 45.6512V63.0421C0 66.6377 2.92602 69.5637 6.5216 69.5659V78.2613H2.17387C0.971718 78.2613 0 79.2352 0 80.4352V97.8261C0 99.0261 0.971718 100 2.17387 100H15.2171C16.4192 100 17.3909 99.0261 17.3909 97.8261V91.3045H26.0864V97.8261C26.0864 99.0261 27.0581 100 28.2603 100H41.3035C42.5056 100 43.4773 99.0261 43.4773 97.8261V80.4352C43.4773 79.2352 42.5056 78.2613 41.3035 78.2613H28.2603C27.0581 78.2613 26.0864 79.2352 26.0864 80.4352V86.9568H17.3909V80.4352C17.3909 79.2352 16.4192 78.2613 15.2171 78.2613H10.8693V69.5659H32.608C36.2036 69.5659 39.1296 66.6399 39.1296 63.0443V56.5227H60.8682V63.0421C60.8682 66.6377 63.7943 69.5637 67.3898 69.5659H89.1285V78.2613H84.7808C83.5786 78.2613 82.6069 79.2352 82.6069 80.4352V86.9568H73.9114V80.4352C73.9114 79.2352 72.9397 78.2613 71.7376 78.2613H58.6944C57.4922 78.2613 56.5205 79.2352 56.5205 80.4352V97.8261C56.5205 99.0261 57.4922 100 58.6944 100H71.7376C72.9397 100 73.9114 99.0261 73.9114 97.8261V91.3045H82.6069V97.8261C82.6069 99.0261 83.5786 100 84.7808 100H97.824C99.0261 100 99.9978 99.0261 99.9978 97.8261V80.4352C99.9978 79.2352 99.0261 78.2613 97.824 78.2613H93.4762V69.5659C97.0718 69.5659 99.9978 66.6399 99.9978 63.0443V45.6534C99.9978 42.0578 97.0718 39.1318 93.4762 39.1318H67.3898C67.3898 39.1318 67.3898 39.1318 67.3877 39.1318C65.6464 39.1318 64.0095 39.81 62.7791 41.0404C61.5487 42.2708 60.8682 43.9077 60.8682 45.6512V52.1728H52.1728V30.4341H89.7394C91.4002 30.4341 92.6045 30.4341 93.4762 30.3602V30.4341C97.0718 30.4341 99.9978 27.5081 99.9978 23.9125ZM30.4341 82.6069H39.1296V95.6501H30.4341V82.6069ZM13.0432 82.6069V95.6501H4.34773V82.6069H13.0432ZM34.7819 63.0421C34.7819 64.2399 33.808 65.216 32.608 65.216H6.5216C5.3238 65.216 4.34773 64.2399 4.34773 63.0399V56.5205H23.9125C25.1147 56.5205 26.0864 55.5466 26.0864 54.3466C26.0864 53.1467 25.1147 52.1728 23.9125 52.1728H4.34773V45.6512C4.34773 45.0708 4.57381 44.5251 4.98467 44.1143C5.39336 43.7034 5.939 43.4773 6.5216 43.4773H32.608C33.808 43.4773 34.7819 44.4512 34.7819 45.6512V63.0421ZM69.5637 95.6501H60.8682V82.6069H69.5637V95.6501ZM95.6501 82.6069V95.6501H86.9546V82.6069H95.6501ZM65.216 45.6512C65.216 45.0708 65.4421 44.5251 65.8529 44.1143C66.2616 43.7034 66.8073 43.4773 67.3898 43.4773H93.4762C94.6762 43.4773 95.6501 44.4512 95.6501 45.6512V52.1728H76.0853C74.8832 52.1728 73.9114 53.1467 73.9114 54.3466C73.9114 55.5466 74.8832 56.5205 76.0853 56.5205H95.6501V63.0421C95.6501 64.2399 94.6762 65.216 93.4762 65.216H67.3898C66.192 65.216 65.216 64.2399 65.216 63.0399V45.6512ZM93.4697 26.0864C92.961 26.0864 6.5216 26.0864 6.5216 26.0864C5.3238 26.0864 4.34773 25.1103 4.34773 23.9103V6.51942C4.34773 5.939 4.57381 5.39336 4.98467 4.9825C5.39336 4.57381 5.939 4.34773 6.5216 4.34773H89.7394C91.4002 4.34773 92.6045 4.34773 93.4762 4.27382V4.34773C94.6762 4.34773 95.6501 5.32162 95.6501 6.5216V23.9125C95.6501 25.1103 94.6762 26.0864 93.4697 26.0864Z" fill="#160A8B"/>
<path d="M32.6078 13.043H15.2168C14.0147 13.043 13.043 14.0169 13.043 15.2168C13.043 16.4168 14.0147 17.3907 15.2168 17.3907H32.6078C33.8099 17.3907 34.7816 16.4168 34.7816 15.2168C34.7816 14.0169 33.8099 13.043 32.6078 13.043Z" fill="#160A8B"/>
<path d="M84.78 13.043H45.6504C44.4483 13.043 43.4766 14.0169 43.4766 15.2168C43.4766 16.4168 44.4483 17.3907 45.6504 17.3907H84.78C85.9822 17.3907 86.9539 16.4168 86.9539 15.2168C86.9539 14.0169 85.9822 13.043 84.78 13.043Z" fill="#160A8B"/>
</svg>
