<svg width="100" height="100" viewBox="0 0 100 100" fill="none" xmlns="http://www.w3.org/2000/svg">
<path d="M78.8415 13.1213C78.1828 12.9365 77.4828 13.0757 76.9458 13.4865C76.4045 13.8996 76.0871 14.5387 76.0871 15.217V39.2474C76.0871 41.58 74.1371 43.4779 71.7393 43.4779C69.3415 43.4779 67.3915 41.58 67.3915 39.2474V15.217C67.3915 14.5365 67.0741 13.8974 66.5328 13.4865C65.9936 13.0757 65.2915 12.9387 64.6371 13.1213C53.4589 16.2192 45.6523 26.3713 45.6523 37.8083C45.6523 47.717 51.5784 56.5431 60.8697 60.7039V84.7822C60.8697 85.9822 61.8415 86.9561 63.0436 86.9561H80.435C81.6371 86.9561 82.6089 85.9822 82.6089 84.7822V60.7018C91.898 56.5431 97.8263 47.717 97.8263 37.8061C97.8263 26.3626 90.0176 16.2105 78.8415 13.1213ZM78.261 82.6083H65.2176V62.23C65.3893 62.2735 65.5676 62.2887 65.7415 62.3279C66.4828 62.4996 67.2284 62.6409 67.9806 62.7474C68.2415 62.7844 68.5023 62.8257 68.7632 62.8539C69.7502 62.967 70.7415 63.0431 71.7393 63.0431C72.7371 63.0431 73.7284 62.967 74.7132 62.8561C74.9763 62.8257 75.2371 62.7844 75.498 62.7474C76.248 62.6409 76.9915 62.4996 77.7306 62.33C77.9067 62.2887 78.0871 62.2757 78.261 62.23V82.6083ZM79.6632 57.2365C75.8415 58.6887 71.7023 59.0496 67.7263 58.3257C66.4002 58.0844 65.0915 57.7213 63.8176 57.2365H63.8154C55.2936 53.9648 50.0002 46.5213 50.0002 37.8083C50.0002 29.2865 55.2393 21.6213 63.0436 18.28V39.2496C63.0436 43.9757 66.9436 47.8257 71.7393 47.8257C76.535 47.8257 80.435 43.9757 80.435 39.2474V18.2779C88.2393 21.6148 93.4784 29.2822 93.4784 37.8083C93.4784 46.5257 88.1806 53.9713 79.6632 57.2365Z" fill="#160A8B"/>
<path d="M97.8261 65.2174C96.6239 65.2174 95.6522 66.1913 95.6522 67.3913V93.4783C95.6522 94.6783 94.6783 95.6522 93.4783 95.6522H6.52174C5.32174 95.6522 4.34783 94.6761 4.34783 93.4783V17.3913H41.3043C42.5065 17.3913 43.4783 16.4174 43.4783 15.2174C43.4783 14.0174 42.5065 13.0435 41.3043 13.0435H4.34783V6.52174C4.34783 5.32391 5.32174 4.34783 6.52174 4.34783H71.7391C72.9413 4.34783 73.913 3.37391 73.913 2.17391C73.913 0.973913 72.9413 0 71.7391 0H6.52174C2.92609 0 0 2.92609 0 6.52174V93.4783C0 97.0739 2.92609 100 6.52174 100H93.4783C97.0739 100 100 97.0739 100 93.4783V67.3913C100 66.1913 99.0283 65.2174 97.8261 65.2174Z" fill="#160A8B"/>
<path d="M49.9995 82.6086H17.3908V30.4347H36.956C38.1582 30.4347 39.1299 29.4608 39.1299 28.2608C39.1299 27.0608 38.1582 26.0869 36.956 26.0869H15.2169C14.0147 26.0869 13.043 27.0608 13.043 28.2608V84.7826C13.043 85.9826 14.0147 86.9565 15.2169 86.9565H49.9995C51.2017 86.9565 52.1734 85.9826 52.1734 84.7826C52.1734 83.5826 51.2017 82.6086 49.9995 82.6086Z" fill="#160A8B"/>
</svg>
