<svg width="100" height="100" viewBox="0 0 100 100" fill="none" xmlns="http://www.w3.org/2000/svg">
<path d="M49.999 21.7393H28.2599C27.0599 21.7393 26.0859 22.7132 26.0859 23.9132C26.0859 25.1132 27.0599 26.0871 28.2599 26.0871H49.999C51.199 26.0871 52.1729 25.1132 52.1729 23.9132C52.1729 22.7132 51.199 21.7393 49.999 21.7393Z" fill="#160A8B"/>
<path d="M49.999 47.8262H28.2599C27.0599 47.8262 26.0859 48.8001 26.0859 50.0001C26.0859 51.2001 27.0599 52.174 28.2599 52.174H49.999C51.199 52.174 52.1729 51.2001 52.1729 50.0001C52.1729 48.8001 51.199 47.8262 49.999 47.8262Z" fill="#160A8B"/>
<path d="M49.999 73.9131H28.2599C27.0599 73.9131 26.0859 74.887 26.0859 76.087C26.0859 77.287 27.0599 78.2609 28.2599 78.2609H49.999C51.199 78.2609 52.1729 77.287 52.1729 76.087C52.1729 74.887 51.199 73.9131 49.999 73.9131Z" fill="#160A8B"/>
<path d="M98.0891 23.648C96.8587 22.4154 95.2217 21.7393 93.4804 21.7393H65.2174V15.2175C65.2174 11.6219 62.2913 8.6958 58.687 8.6958C58.3696 8.6958 29.9761 8.6958 15.2217 8.6958C15.2196 8.6958 15.2174 8.6958 15.2174 8.6958H15.213C10.0326 8.6958 6.52174 8.6958 6.52174 8.6958H6.51957C4.77826 8.6958 3.1413 9.37406 1.91087 10.6045C0.678261 11.8371 0 13.4762 0 15.2175V32.6088C0 34.2849 0.654348 35.798 1.69565 36.9545C0.613043 38.1545 0 39.6762 0 41.3045V58.6958C0 60.3719 0.654348 61.8849 1.69565 63.0415C0.613043 64.2415 0 65.7632 0 67.3915V84.7828C0 88.3784 2.92826 91.3045 6.52174 91.3045H58.6957C62.2913 91.3045 65.2174 88.3784 65.2174 84.7828V78.261H93.4783C97.0739 78.261 100 75.3349 100 71.7393V28.261C100 26.5175 99.3196 24.8806 98.0891 23.648ZM13.0435 86.9567H6.52174C5.32391 86.9567 4.34783 85.9806 4.34783 84.7828V67.3915C4.34783 66.811 4.57391 66.2654 4.98478 65.8545C5.39348 65.4436 5.93913 65.2175 6.52174 65.2175H13.0435V86.9567ZM13.0435 60.8697H6.52174C5.32391 60.8697 4.34783 59.8936 4.34783 58.6958V41.3045C4.34783 40.7241 4.57391 40.1784 4.98478 39.7675C5.39348 39.3567 5.93913 39.1306 6.52174 39.1306H13.0435V60.8697ZM13.0435 34.7828H6.52174C5.32391 34.7828 4.34783 33.8067 4.34783 32.6088V15.2175C4.34783 14.6371 4.57391 14.0915 4.98478 13.6806C5.39348 13.2697 5.93913 13.0436 6.52174 13.0436H13.0435V34.7828ZM60.8696 84.7828C60.8696 85.9806 59.8957 86.9567 58.6957 86.9567H17.3913V65.2175H50.5435C51.1587 65.2175 51.7261 65.2175 52.2696 65.2175H58.6957C59.8957 65.2175 60.8696 66.1915 60.8696 67.3915V84.7828ZM60.8696 58.6958C60.8696 59.8936 59.8957 60.8697 58.6957 60.8697H17.3913V39.1306H50.5435C51.1587 39.1306 51.7261 39.1306 52.2696 39.1306H58.6957C59.8957 39.1306 60.8696 40.1045 60.8696 41.3045V58.6958ZM60.8696 32.6088C60.8696 33.8067 59.8957 34.7828 58.6957 34.7828H17.3913V13.0436H50.5435C54.7261 13.0436 57.2152 13.0436 58.6957 12.9001V13.0436C59.8957 13.0436 60.8696 14.0175 60.8696 15.2175V32.6088ZM95.6522 71.7415C95.6522 72.9371 94.6783 73.9132 93.4783 73.9132H65.2174V67.3915C65.2174 65.7154 64.5652 64.2023 63.5217 63.0458C64.5652 61.8893 65.2174 60.3741 65.2174 58.698V52.1762H95.6522V71.7415ZM95.6522 47.8262H65.2174V41.3045C65.2174 39.6284 64.5652 38.1154 63.5217 36.9588C64.5652 35.8023 65.2174 34.2871 65.2174 32.611V26.0893H93.4783V26.0871C94.0609 26.0871 94.6065 26.3132 95.0152 26.7219C95.4261 27.1328 95.6522 27.6806 95.6522 28.261V47.8262Z" fill="#160A8B"/>
</svg>
