<svg width="40" height="40" viewBox="0 0 40 40" fill="none" xmlns="http://www.w3.org/2000/svg">
<path d="M14.6988 7.74669C14.6988 8.7547 14.6988 13.2539 14.6988 13.2539H10.6641V19.9881H14.6988V39.9998H22.987V19.9887H28.5488C28.5488 19.9887 29.0697 16.7596 29.3222 13.2291C28.5983 13.2291 23.0184 13.2291 23.0184 13.2291C23.0184 13.2291 23.0184 9.3113 23.0184 8.6246C23.0184 7.93641 23.922 7.0107 24.8152 7.0107C25.7067 7.0107 27.5882 7.0107 29.3309 7.0107C29.3309 6.09383 29.3309 2.92583 29.3309 2.40555e-08C27.0045 2.40555e-08 24.3577 2.40555e-08 23.1911 2.40555e-08C14.4939 -0.000464969 14.6988 6.74045 14.6988 7.74669Z" fill="#160A8B"/>
</svg>
