<svg width="40" height="40" viewBox="0 0 40 40" fill="none" xmlns="http://www.w3.org/2000/svg">
<path d="M14.7008 7.74669C14.7008 8.7547 14.7008 13.2539 14.7008 13.2539H10.666V19.9881H14.7008V39.9998H22.989V19.9887H28.5508C28.5508 19.9887 29.0716 16.7596 29.3241 13.2291C28.6002 13.2291 23.0203 13.2291 23.0203 13.2291C23.0203 13.2291 23.0203 9.3113 23.0203 8.6246C23.0203 7.93641 23.924 7.0107 24.8171 7.0107C25.7086 7.0107 27.5902 7.0107 29.3329 7.0107C29.3329 6.09383 29.3329 2.92583 29.3329 2.40555e-08C27.0064 2.40555e-08 24.3597 2.40555e-08 23.193 2.40555e-08C14.4959 -0.000464969 14.7008 6.74045 14.7008 7.74669Z" fill="white"/>
</svg>
