<svg width="849" height="418" viewBox="0 0 849 418" fill="none" xmlns="http://www.w3.org/2000/svg">
<circle cx="5" cy="107" r="5" fill="#160A8B" fill-opacity="0.1"/>
<circle cx="103" cy="107" r="5" fill="#160A8B" fill-opacity="0.1"/>
<circle cx="299" cy="107" r="5" fill="#160A8B" fill-opacity="0.1"/>
<circle cx="201" cy="107" r="5" fill="#160A8B" fill-opacity="0.1"/>
<circle cx="397" cy="107" r="5" fill="#160A8B" fill-opacity="0.1"/>
<circle cx="789" cy="107" r="5" fill="#160A8B" fill-opacity="0.1"/>
<circle cx="691" cy="107" r="5" fill="#160A8B" fill-opacity="0.1"/>
<circle cx="593" cy="107" r="5" fill="#160A8B" fill-opacity="0.1"/>
<circle cx="495" cy="107" r="5" fill="#160A8B" fill-opacity="0.1"/>
<circle cx="5" cy="5" r="5" fill="#160A8B" fill-opacity="0.1"/>
<circle cx="103" cy="5" r="5" fill="#160A8B" fill-opacity="0.1"/>
<circle cx="299" cy="5" r="5" fill="#160A8B" fill-opacity="0.1"/>
<circle cx="201" cy="5" r="5" fill="#160A8B" fill-opacity="0.1"/>
<circle cx="397" cy="5" r="5" fill="#160A8B" fill-opacity="0.1"/>
<circle cx="789" cy="5" r="5" fill="#160A8B" fill-opacity="0.1"/>
<circle cx="691" cy="5" r="5" fill="#160A8B" fill-opacity="0.1"/>
<circle cx="593" cy="5" r="5" fill="#160A8B" fill-opacity="0.1"/>
<circle cx="495" cy="5" r="5" fill="#160A8B" fill-opacity="0.1"/>
<circle cx="5" cy="209" r="5" fill="#160A8B" fill-opacity="0.1"/>
<circle cx="103" cy="209" r="5" fill="#160A8B" fill-opacity="0.1"/>
<circle cx="299" cy="209" r="5" fill="#160A8B" fill-opacity="0.1"/>
<circle cx="201" cy="209" r="5" fill="#160A8B" fill-opacity="0.1"/>
<circle cx="397" cy="209" r="5" fill="#160A8B" fill-opacity="0.1"/>
<circle cx="789" cy="209" r="5" fill="#160A8B" fill-opacity="0.1"/>
<circle cx="691" cy="209" r="5" fill="#160A8B" fill-opacity="0.1"/>
<circle cx="593" cy="209" r="5" fill="#160A8B" fill-opacity="0.1"/>
<circle cx="495" cy="209" r="5" fill="#160A8B" fill-opacity="0.1"/>
<circle cx="5" cy="311" r="5" fill="#160A8B" fill-opacity="0.1"/>
<circle cx="103" cy="311" r="5" fill="#160A8B" fill-opacity="0.1"/>
<circle cx="299" cy="311" r="5" fill="#160A8B" fill-opacity="0.1"/>
<circle cx="201" cy="311" r="5" fill="#160A8B" fill-opacity="0.1"/>
<circle cx="397" cy="311" r="5" fill="#160A8B" fill-opacity="0.1"/>
<circle cx="789" cy="311" r="5" fill="#160A8B" fill-opacity="0.1"/>
<circle cx="691" cy="311" r="5" fill="#160A8B" fill-opacity="0.1"/>
<circle cx="593" cy="311" r="5" fill="#160A8B" fill-opacity="0.1"/>
<circle cx="495" cy="311" r="5" fill="#160A8B" fill-opacity="0.1"/>
<circle cx="5" cy="413" r="5" fill="#160A8B" fill-opacity="0.1"/>
<circle cx="103" cy="413" r="5" fill="#160A8B" fill-opacity="0.1"/>
<circle cx="299" cy="413" r="5" fill="#160A8B" fill-opacity="0.1"/>
<circle cx="201" cy="413" r="5" fill="#160A8B" fill-opacity="0.1"/>
<circle cx="397" cy="413" r="5" fill="#160A8B" fill-opacity="0.1"/>
<circle cx="789" cy="413" r="5" fill="#160A8B" fill-opacity="0.1"/>
<circle cx="691" cy="413" r="5" fill="#160A8B" fill-opacity="0.1"/>
<circle cx="593" cy="413" r="5" fill="#160A8B" fill-opacity="0.1"/>
<circle cx="495" cy="413" r="5" fill="#160A8B" fill-opacity="0.1"/>
</svg>
