<svg width="40" height="40" viewBox="0 0 40 40" fill="none" xmlns="http://www.w3.org/2000/svg">
<path d="M40 24.3237V39.112H31.4267V25.3142C31.4267 21.848 30.1867 19.4825 27.0834 19.4825C24.7145 19.4825 23.3047 21.0767 22.6845 22.6188C22.4584 23.1701 22.4001 23.9374 22.4001 24.7091V39.112H13.824C13.824 39.112 13.9395 15.743 13.824 13.3218H22.3993V16.9775C22.3819 17.0048 22.3593 17.0343 22.3429 17.0608H22.3993V16.9775C23.5386 15.2227 25.5733 12.7159 30.1276 12.7159C35.7701 12.7158 40 16.402 40 24.3237ZM4.85291 0.889648C1.91901 0.889648 0 2.81406 0 5.34472C0 7.82023 1.86349 9.80304 4.73908 9.80304H4.79637C7.78709 9.80304 9.64705 7.8206 9.64705 5.34472C9.59069 2.81406 7.78709 0.889648 4.85291 0.889648ZM0.50935 39.112H9.08227V13.3218H0.50935V39.112Z" fill="#160A8B"/>
</svg>
