<svg width="203" height="50" viewBox="0 0 203 50" fill="none" xmlns="http://www.w3.org/2000/svg">
<g clip-path="url(#clip0)">
<path d="M3.57635 6.66202C4.18055 6.66202 4.77117 6.48225 5.27354 6.14543C5.77591 5.80862 6.16747 5.32988 6.39868 4.76978C6.6299 4.20967 6.69039 3.59335 6.57252 2.99874C6.45465 2.40413 6.1637 1.85796 5.73647 1.42927C5.30924 1.00058 4.76491 0.708642 4.17232 0.590367C3.57974 0.472093 2.96551 0.532796 2.40731 0.764799C1.8491 0.996803 1.372 1.38969 1.03632 1.89377C0.70065 2.39785 0.521484 2.99049 0.521484 3.59675C0.521484 4.40971 0.843336 5.18938 1.41623 5.76423C1.98913 6.33908 2.76615 6.66202 3.57635 6.66202Z" fill="white"/>
<path d="M28.4172 18.8369C30.0824 18.5647 31.2125 16.9896 30.9413 15.3187C30.6701 13.6478 29.1003 12.5139 27.4351 12.786C25.7698 13.0581 24.6398 14.6333 24.911 16.3042C25.1822 17.9751 26.7519 19.109 28.4172 18.8369Z" fill="white"/>
<path d="M30.7487 29.2165C31.399 27.6544 30.6641 25.8591 29.1073 25.2066C27.5505 24.5541 25.7613 25.2915 25.111 26.8536C24.4607 28.4157 25.1956 30.211 26.7524 30.8635C28.3092 31.516 30.0984 30.7786 30.7487 29.2165Z" fill="white"/>
<path d="M16.2414 31.0564C17.9066 30.7843 19.0367 29.2091 18.7655 27.5382C18.4943 25.8674 16.9245 24.7334 15.2593 25.0055C13.5941 25.2777 12.464 26.8528 12.7352 28.5237C13.0064 30.1946 14.5762 31.3285 16.2414 31.0564Z" fill="white"/>
<path d="M6.10809 30.5678C6.77816 29.8948 7.15455 28.9825 7.15455 28.0313C7.15455 27.08 6.77816 26.1677 6.10809 25.4948C5.16458 24.5479 4.63453 23.2638 4.63453 21.9249C4.63453 20.5859 5.16458 19.3018 6.10809 18.355C7.05205 17.4089 8.33168 16.8775 9.66587 16.8775C11.0001 16.8775 12.2797 17.4089 13.2236 18.355C13.5553 18.6885 13.9494 18.9532 14.3831 19.1337C14.8169 19.3143 15.2819 19.4072 15.7515 19.4072C16.2211 19.4072 16.6861 19.3143 17.1199 19.1337C17.5537 18.9532 17.9477 18.6885 18.2794 18.355C18.949 17.6812 19.325 16.7686 19.325 15.8171C19.325 14.8657 18.949 13.953 18.2794 13.2793C17.3374 12.3322 16.8083 11.0488 16.8083 9.71072C16.8083 8.37265 17.3374 7.08923 18.2794 6.14217C19.2237 5.19675 20.5032 4.6658 21.8372 4.6658C23.1712 4.6658 24.4507 5.19675 25.395 6.14217C26.0656 6.81452 26.9748 7.19219 27.9228 7.19219C28.8709 7.19219 29.7801 6.81452 30.4507 6.14217C31.3946 5.19691 32.6736 4.66603 34.0072 4.66603C35.3407 4.66603 36.6198 5.19691 37.5636 6.14217C38.2342 6.81452 39.1435 7.19219 40.0915 7.19219C41.0395 7.19219 41.9487 6.81452 42.6194 6.14217C43.2894 5.46925 43.6658 4.55691 43.6658 3.60566C43.6658 2.65441 43.2894 1.74208 42.6194 1.06916C41.9487 0.39681 41.0395 0.0191364 40.0915 0.0191364C39.1435 0.0191364 38.2342 0.39681 37.5636 1.06916C36.6198 2.01441 35.3407 2.5453 34.0072 2.5453C32.6736 2.5453 31.3946 2.01441 30.4507 1.06916C29.7801 0.39681 28.8709 0.0191364 27.9228 0.0191364C26.9748 0.0191364 26.0656 0.39681 25.395 1.06916C24.4505 2.0154 23.1705 2.54687 21.8358 2.54687C20.5012 2.54687 19.2212 2.0154 18.2767 1.06916C17.6061 0.39681 16.6969 0.0191364 15.7489 0.0191364C14.8008 0.0191364 13.8916 0.39681 13.221 1.06916C12.5509 1.74208 12.1745 2.65441 12.1745 3.60566C12.1745 4.55691 12.5509 5.46925 13.221 6.14217C13.6884 6.61058 14.0592 7.16686 14.3122 7.77918C14.5652 8.3915 14.6954 9.04786 14.6954 9.71072C14.6954 10.3736 14.5652 11.0299 14.3122 11.6423C14.0592 12.2546 13.6884 12.8109 13.221 13.2793C12.7541 13.7483 12.1998 14.1204 11.5895 14.3742C10.9793 14.6281 10.3251 14.7588 9.66453 14.7588C9.00392 14.7588 8.34979 14.6281 7.73955 14.3742C7.1293 14.1204 6.57492 13.7483 6.10809 13.2793C5.43746 12.6069 4.52822 12.2293 3.58021 12.2293C2.63219 12.2293 1.72295 12.6069 1.05232 13.2793C0.38225 13.9522 0.00585938 14.8645 0.00585938 15.8158C0.00585937 16.767 0.38225 17.6794 1.05232 18.3523C1.99616 19.3 2.52635 20.585 2.52635 21.9249C2.52635 23.2647 1.99616 24.5497 1.05232 25.4974C0.38225 26.1704 0.00585937 27.0827 0.00585938 28.034C0.00585937 28.9852 0.38225 29.8975 1.05232 30.5705C1.72295 31.2428 2.63219 31.6205 3.58021 31.6205C4.52822 31.6205 5.43746 31.2428 6.10809 30.5705V30.5678Z" fill="#E66728"/>
<path d="M40.0998 18.8775C41.7869 18.8775 43.1547 17.5051 43.1547 15.8122C43.1547 14.1193 41.7869 12.7469 40.0998 12.7469C38.4126 12.7469 37.0449 14.1193 37.0449 15.8122C37.0449 17.5051 38.4126 18.8775 40.0998 18.8775Z" fill="white"/>
<path d="M42.6296 25.4912C41.9589 24.8189 41.0497 24.4412 40.1017 24.4412C39.1537 24.4412 38.2444 24.8189 37.5738 25.4912C36.9037 26.1641 36.5273 27.0765 36.5273 28.0277C36.5273 28.979 36.9037 29.8913 37.5738 30.5642C38.2444 31.2366 39.1537 31.6142 40.1017 31.6142C41.0497 31.6142 41.9589 31.2366 42.6296 30.5642C43.2996 29.8913 43.676 28.979 43.676 28.0277C43.676 27.0765 43.2996 26.1641 42.6296 25.4912Z" fill="#E66728"/>
<path d="M1.05756 43.6091V45.8476H4.06963V46.728H1.04686V49.9061H-0.00976562V42.7394H4.73839V43.6198L1.05756 43.6091Z" fill="white"/>
<path d="M11.7243 49.9061H10.6543V42.7394H11.7243V49.9061Z" fill="white"/>
<path d="M24.4932 49.9061H23.2146L19.3786 44.1915V49.9061H18.3086V42.7394H19.5846L23.4286 48.4513V42.7394H24.4986L24.4932 49.9061Z" fill="white"/>
<path d="M35.4183 43.6091H33.2061V49.9061H32.1361V43.6091H29.9238V42.7394H35.4076L35.4183 43.6091Z" fill="white"/>
<path d="M45.7982 49.0257V49.9061H40.8574V42.7394H45.6163V43.6198H41.9167V45.743H44.9395V46.6341H41.9167V49.0364L45.7982 49.0257Z" fill="white"/>
<path d="M57.6112 48.9129C57.2729 49.2725 56.8624 49.5559 56.4067 49.7442C55.9511 49.9325 55.4608 50.0216 54.9682 50.0054C53.9956 50.0054 53.0627 49.6177 52.375 48.9275C51.6872 48.2374 51.3008 47.3014 51.3008 46.3254C51.3008 45.3494 51.6872 44.4134 52.375 43.7233C53.0627 43.0332 53.9956 42.6455 54.9682 42.6455C55.4627 42.6291 55.9549 42.7189 56.4121 42.9086C56.8692 43.0984 57.2808 43.3839 57.6192 43.746L56.9237 44.4438C56.695 44.1447 56.3979 43.9052 56.0576 43.7454C55.7173 43.5857 55.3436 43.5104 54.9682 43.5259C53.4889 43.5259 52.3949 44.8465 52.3949 46.32C52.3949 47.6621 53.3846 49.1223 54.9682 49.1223C55.6557 49.1223 56.5331 48.8539 56.913 48.215L57.6112 48.9129Z" fill="white"/>
<path d="M68.9281 42.7394V49.9061H67.8581V46.7656H64.5036V49.9061H63.4336V42.7394H64.5036V45.8879H67.8688V42.7394H68.9281Z" fill="white"/>
<path d="M91.0072 49.0257V49.9061H86.0664V42.7394H90.8253V43.6198H87.1257V45.743H90.1485V46.6341H87.1257V49.0364L91.0072 49.0257Z" fill="white"/>
<path d="M103.2 49.9061H101.921L98.0876 44.1915V49.9061H97.0176V42.7394H98.2962L102.138 48.4513V42.7394H103.208L103.2 49.9061Z" fill="white"/>
<path d="M116.292 45.8852V49.9114H115.222V48.9935C114.883 49.3286 114.48 49.5913 114.038 49.7656C113.595 49.94 113.121 50.0225 112.646 50.0081C111.673 50.0081 110.74 49.6204 110.053 48.9302C109.365 48.2401 108.979 47.3041 108.979 46.3281C108.979 45.3521 109.365 44.4161 110.053 43.726C110.74 43.0359 111.673 42.6482 112.646 42.6482C113.141 42.6305 113.633 42.7195 114.091 42.9094C114.548 43.0993 114.959 43.3855 115.297 43.7487L114.601 44.4466C114.365 44.156 114.067 43.9226 113.728 43.7636C113.39 43.6047 113.02 43.5244 112.646 43.5286C111.111 43.5286 110.081 44.7633 110.081 46.3228C110.081 47.6648 111.065 49.125 112.646 49.125C112.982 49.1412 113.317 49.0837 113.628 48.9567C113.94 48.8297 114.22 48.6362 114.449 48.3895C114.851 47.9389 115.11 47.3782 115.193 46.7791H113.371V45.8987L116.292 45.8852Z" fill="white"/>
<path d="M123.457 49.9061H122.4V42.7394H123.457V49.9061Z" fill="white"/>
<path d="M136.215 49.9061H134.937L131.103 44.1915V49.9061H130.033V42.7394H131.312L135.156 48.4513V42.7394H136.226L136.215 49.9061Z" fill="white"/>
<path d="M147.466 49.0257V49.9061H142.525V42.7394H147.284V43.6198H143.585V45.743H146.607V46.6341H143.585V49.0364L147.466 49.0257Z" fill="white"/>
<path d="M158.324 49.0257V49.9061H153.383V42.7394H158.15V43.6198H154.442V45.743H157.465V46.6341H154.442V49.0364L158.324 49.0257Z" fill="white"/>
<path d="M167.914 47.6272L169.449 49.9061H168.278L166.876 47.8205H165.207V49.9061H164.137V42.7394H166.911C167.494 42.7447 168.058 42.9508 168.508 43.3233C168.958 43.6957 169.267 44.2119 169.383 44.7856C169.499 45.3592 169.416 45.9555 169.146 46.4747C168.877 46.9939 168.438 47.4045 167.903 47.638L167.914 47.6272ZM165.207 46.9401H166.913C167.716 46.9401 168.39 46.2503 168.39 45.2732C168.39 44.2962 167.724 43.6091 166.913 43.6091H165.207V46.9401Z" fill="white"/>
<path d="M176.521 49.9061H175.451V42.7394H176.521V49.9061Z" fill="white"/>
<path d="M189.287 49.9061H188.011L184.175 44.1915V49.9061H183.105V42.7394H184.384L188.225 48.4513V42.7394H189.295L189.287 49.9061Z" fill="white"/>
<path d="M202.377 45.8852V49.9114H201.307V48.9934C200.969 49.3283 200.566 49.5909 200.124 49.7653C199.682 49.9397 199.209 50.0222 198.734 50.008C197.761 50.008 196.828 49.6203 196.141 48.9302C195.453 48.2401 195.066 47.3041 195.066 46.3281C195.066 45.3521 195.453 44.4161 196.141 43.726C196.828 43.0359 197.761 42.6482 198.734 42.6482C199.228 42.6318 199.721 42.7215 200.178 42.9113C200.635 43.1011 201.046 43.3866 201.385 43.7486L200.687 44.4465C200.451 44.1562 200.153 43.9228 199.815 43.7639C199.477 43.605 199.107 43.5246 198.734 43.5285C197.198 43.5285 196.169 44.7632 196.169 46.3227C196.169 47.6648 197.15 49.125 198.734 49.125C199.069 49.1409 199.404 49.0834 199.715 48.9564C200.026 48.8294 200.305 48.6359 200.534 48.3895C200.937 47.9391 201.197 47.3784 201.281 46.779H199.459V45.8986L202.377 45.8852Z" fill="white"/>
<path d="M181.957 0.00268089C180.613 0.0217256 179.329 0.571101 178.385 1.532C177.441 2.49289 176.912 3.78807 176.912 5.13743V5.55078H186.885V31.6191H192.414V5.55078H202.386V-3.8147e-06L181.957 0.00268089Z" fill="white"/>
<path d="M135.097 0.00526001C134.026 0.00501317 132.982 0.341478 132.111 0.967363C131.241 1.59325 130.588 2.47708 130.244 3.49463L121.104 31.619H126.922L130.132 21.7709H137.13L135.348 16.2201H131.935L135.11 6.45523L140.027 21.7548L141.808 27.3056L143.194 31.6002H149.004L138.839 -0.0135288L135.097 0.00526001Z" fill="white"/>
<path d="M85.2762 21.8462L71.8343 0.0053985H70.9435C70.2714 0.00504569 69.6058 0.137619 68.9848 0.395539C68.3637 0.653459 67.7995 1.03167 67.3242 1.50854C66.849 1.98542 66.472 2.55161 66.215 3.17474C65.9579 3.79788 65.8258 4.46574 65.8262 5.14014V31.6191H71.3554V9.77832L84.8001 31.6191H90.8162V0.0053985H85.2762V21.8462Z" fill="white"/>
<path d="M54.7578 5.14014V31.6191H60.2871V0.0053985H59.8751C59.203 0.00504569 58.5374 0.137619 57.9164 0.395539C57.2954 0.653459 56.7311 1.03167 56.2559 1.50854C55.7806 1.98542 55.4037 2.55161 55.1466 3.17474C54.8896 3.79788 54.7575 4.46574 54.7578 5.14014Z" fill="white"/>
<path d="M119.705 9.72453C119.662 8.34409 119.345 6.98618 118.771 5.73055C118.217 4.53769 117.404 3.48471 116.391 2.64916C115.302 1.76589 114.055 1.09905 112.718 0.684379C111.159 0.202997 109.534 -0.0297773 107.903 -0.00544232C106.282 -0.0390796 104.666 0.193946 103.12 0.684379C101.877 1.08696 100.721 1.72474 99.7172 2.56327C98.8234 3.31658 98.121 4.27252 97.6682 5.35209C97.2203 6.4423 96.9938 7.61127 97.0021 8.79046C97.0021 10.4009 97.2544 11.7251 97.7591 12.763C98.2946 13.8437 99.1082 14.7611 100.116 15.4203C101.372 16.2351 102.745 16.8524 104.187 17.2508C105.835 17.7429 107.785 18.227 110.037 18.703C110.828 18.864 111.602 19.0958 112.351 19.3955C112.867 19.5982 113.342 19.8929 113.753 20.2651C114.076 20.5619 114.315 20.94 114.443 21.3602C114.565 21.7878 114.626 22.2307 114.622 22.6755C114.637 23.2484 114.505 23.8154 114.24 24.3231C113.975 24.8308 113.586 25.2624 113.108 25.577C112.101 26.2928 110.618 26.6507 108.66 26.6507C106.85 26.6507 105.344 26.2123 104.142 25.3354C103.566 24.9321 103.097 24.394 102.775 23.7677C102.454 23.1414 102.289 22.4459 102.296 21.7414H96.3574C96.4787 25.016 97.6209 27.4863 99.7841 29.1523C101.687 30.6142 104.411 31.4347 107.956 31.6136H110.61C111.691 31.5428 112.761 31.3537 113.801 31.05C115.077 30.69 116.278 30.1036 117.348 29.3187C118.344 28.5768 119.166 27.6248 119.756 26.5299C120.366 25.36 120.672 24.0546 120.647 22.7345C120.668 21.711 120.548 20.6895 120.291 19.6988C120.086 18.9373 119.764 18.2128 119.336 17.5515C118.943 16.9662 118.445 16.4592 117.867 16.0564C117.289 15.6557 116.669 15.3191 116.019 15.0525C114.777 14.5146 113.499 14.0661 112.194 13.7105C110.801 13.324 109.155 12.907 107.255 12.4597C105.65 12.0731 104.486 11.5891 103.762 11.0075C103.422 10.7594 103.146 10.4339 102.956 10.0577C102.767 9.68163 102.669 9.26569 102.67 8.84414C102.67 6.43021 104.421 5.22414 107.922 5.22593C109.821 5.22593 111.247 5.59813 112.202 6.34253C112.55 6.62918 112.847 6.97426 113.079 7.3625C113.541 8.09175 114.181 8.69111 114.938 9.10428C115.694 9.51746 116.543 9.73089 117.404 9.72453H119.705Z" fill="white"/>
<path d="M157.473 31.6191H151.941V5.14014C151.941 4.46561 152.074 3.79769 152.331 3.17454C152.589 2.55139 152.966 1.98522 153.441 1.50838C153.917 1.03154 154.481 0.653375 155.102 0.395488C155.723 0.1376 156.389 0.00504589 157.061 0.0053985H164.367C166.568 0.0151459 168.713 0.697434 170.518 1.9614C172.323 3.22537 173.701 5.01103 174.469 7.08059C175.237 9.15015 175.359 11.4054 174.818 13.546C174.276 15.6866 173.098 17.6109 171.44 19.0627L175.69 31.6325H169.848L166.443 21.5536C165.733 21.697 165.011 21.7698 164.287 21.771H160.234V16.2202H164.303C165.011 16.2362 165.715 16.11 166.374 15.849C167.033 15.5881 167.633 15.1977 168.14 14.7008C168.646 14.2038 169.049 13.6103 169.324 12.9552C169.598 12.3 169.74 11.5963 169.74 10.8855C169.74 10.1747 169.598 9.47107 169.324 8.8159C169.049 8.16073 168.646 7.56724 168.14 7.07029C167.633 6.57334 167.033 6.18293 166.374 5.922C165.715 5.66107 165.011 5.53487 164.303 5.55081H157.473V31.6191Z" fill="white"/>
</g>
<defs>
<clipPath id="clip0">
<rect width="202.381" height="50" fill="white"/>
</clipPath>
</defs>
</svg>
