<svg width="491" height="77" viewBox="0 0 491 77" fill="none" xmlns="http://www.w3.org/2000/svg">
<g clip-path="url(#clip0)">
<path d="M90.2599 59.2177H86.9625V70.5993H84.9889V59.2177H82.582V58.3274L84.9889 57.6296V56.9077C84.9889 53.6994 86.3849 52.0952 89.1768 52.0952C89.9944 52.1173 90.8047 52.255 91.5837 52.5043L91.0783 54.0683C90.4505 53.8498 89.7931 53.7281 89.1287 53.7074C88.8116 53.6829 88.4934 53.7384 88.2032 53.8687C87.9131 53.9991 87.6603 54.2001 87.468 54.4533C87.0468 55.1814 86.8618 56.0221 86.9384 56.8596V57.7499H90.2599V59.2177Z" fill="#FF671B"/>
<path d="M104.338 64.1265C104.414 65.8749 103.84 67.5895 102.725 68.939C102.162 69.5406 101.473 70.0117 100.708 70.3193C99.9431 70.6268 99.1201 70.7635 98.2967 70.7196C97.206 70.7393 96.1312 70.4561 95.1919 69.9015C94.2661 69.3301 93.5358 68.491 93.0979 67.4953C92.5809 66.3805 92.3257 65.1624 92.3518 63.934C92.2687 62.1888 92.8345 60.4745 93.9403 59.1215C94.5026 58.5262 95.1879 58.0606 95.9486 57.7572C96.7093 57.4538 97.5271 57.32 98.3448 57.365C99.1553 57.3285 99.9639 57.4713 100.713 57.7832C101.462 58.0952 102.132 58.5686 102.677 59.1696C103.846 60.5481 104.44 62.3225 104.338 64.1265ZM94.4217 64.1265C94.3321 65.4519 94.6787 66.7702 95.4085 67.8803C95.7807 68.2889 96.2341 68.6153 96.7397 68.8387C97.2453 69.0621 97.7921 69.1775 98.3448 69.1775C98.8976 69.1775 99.4444 69.0621 99.95 68.8387C100.456 68.6153 100.909 68.2889 101.281 67.8803C102.026 66.7672 102.382 65.4388 102.292 64.1024C102.378 62.7815 102.023 61.4695 101.281 60.3728C100.924 59.941 100.469 59.6002 99.9547 59.3785C99.44 59.1567 98.88 59.0604 98.3208 59.0974C97.771 59.0614 97.2205 59.156 96.7143 59.3734C96.2082 59.5909 95.7607 59.9251 95.4085 60.3487C94.6702 61.464 94.3232 62.7927 94.4217 64.1265Z" fill="#FF671B"/>
<path d="M114.209 57.4613C114.734 57.4564 115.259 57.5048 115.774 57.6056L115.509 59.4103C115.043 59.3042 114.567 59.2477 114.089 59.2419C113.573 59.2405 113.063 59.3542 112.597 59.5749C112.131 59.7955 111.719 60.1174 111.393 60.5172C110.629 61.3957 110.225 62.53 110.262 63.6935V70.6235H108.312V57.75H109.949L110.166 60.1563C110.584 59.381 111.178 58.7137 111.899 58.2072C112.571 57.722 113.38 57.461 114.209 57.4613Z" fill="#FF671B"/>
<path d="M140.9 70.5992H138.902L135.412 59.0733C135.252 58.5599 135.067 57.9183 134.859 57.1483C134.724 56.6904 134.619 56.2242 134.546 55.7527C134.34 56.9009 134.059 58.0343 133.703 59.1455L130.31 70.5992H128.312L123.715 53.3945H125.857L128.601 64.0302C128.952 65.3619 129.234 66.7113 129.443 68.0727C129.652 66.6478 129.966 65.2403 130.382 63.8617L133.487 53.3945H135.629L138.878 63.958C139.29 65.3067 139.611 66.6813 139.841 68.0727C140.041 66.7018 140.323 65.3439 140.683 64.0061L143.403 53.3945H145.545L140.9 70.5992Z" fill="#FF671B"/>
<path d="M154.041 70.8399C153.204 70.8853 152.366 70.7546 151.583 70.4561C150.799 70.1577 150.087 69.6982 149.492 69.1074C148.328 67.7834 147.732 66.0548 147.832 64.2949C147.68 62.513 148.175 60.7361 149.228 59.2899C149.735 58.6867 150.375 58.2082 151.097 57.8911C151.819 57.5741 152.604 57.427 153.391 57.4611C154.115 57.4169 154.84 57.5368 155.511 57.8118C156.182 58.0868 156.782 58.5098 157.266 59.0492C158.254 60.2238 158.761 61.7278 158.687 63.2602V64.4874H149.757C149.705 65.7375 150.116 66.9628 150.912 67.9283C151.313 68.3315 151.795 68.6451 152.326 68.8484C152.857 69.0516 153.425 69.1399 153.993 69.1074C155.417 69.1012 156.826 68.8065 158.133 68.2411V69.9736C157.498 70.2554 156.837 70.473 156.159 70.6233C155.462 70.7626 154.753 70.8351 154.041 70.8399ZM153.512 59.0974C153.062 59.0888 152.616 59.1743 152.201 59.3483C151.787 59.5224 151.413 59.7811 151.105 60.108C150.437 60.8902 150.047 61.8719 149.998 62.8992H156.785C156.78 61.8946 156.423 60.9237 155.774 60.1561C155.485 59.8081 155.12 59.5315 154.707 59.3478C154.293 59.1641 153.843 59.0784 153.391 59.0974H153.512Z" fill="#FF671B"/>
<path d="M170.551 70.5991L170.166 68.7703C169.653 69.461 168.985 70.0215 168.216 70.4066C167.452 70.7155 166.633 70.8629 165.809 70.8397C164.668 70.9111 163.544 70.5308 162.68 69.781C162.302 69.4207 162.006 68.9821 161.815 68.4958C161.624 68.0094 161.541 67.4872 161.573 66.9656C161.573 64.3669 163.675 63.0034 167.879 62.875H170.093V62.081C170.161 61.2803 169.929 60.4831 169.444 59.8431C169.165 59.5827 168.834 59.3838 168.473 59.2594C168.113 59.1351 167.73 59.088 167.35 59.1213C166.06 59.186 164.801 59.5396 163.667 60.156L163.065 58.6641C163.728 58.3076 164.431 58.0329 165.159 57.846C165.945 57.6439 166.755 57.5468 167.566 57.5572C168.802 57.462 170.029 57.8309 171.008 58.5919C171.415 59.0278 171.726 59.5443 171.921 60.108C172.116 60.6718 172.19 61.2701 172.139 61.8644V70.6713L170.551 70.5991ZM166.074 69.2275C167.132 69.2845 168.17 68.9213 168.962 68.2169C169.324 67.8514 169.605 67.4141 169.787 66.9334C169.97 66.4526 170.049 65.939 170.021 65.4256V64.2466H168.048C166.874 64.2079 165.71 64.4557 164.654 64.9685C164.315 65.1747 164.039 65.47 163.857 65.8222C163.674 66.1744 163.592 66.5699 163.619 66.9656C163.599 67.266 163.647 67.5669 163.759 67.8461C163.872 68.1253 164.046 68.3754 164.269 68.5778C164.77 69.0084 165.413 69.2396 166.074 69.2275Z" fill="#FF671B"/>
<path d="M178.52 70.5992H176.547V52.2876H178.52V70.5992Z" fill="#FF671B"/>
<path d="M187.378 69.2275C187.714 69.2541 188.052 69.2541 188.389 69.2275L189.159 69.059V70.5509C188.858 70.6726 188.543 70.7536 188.22 70.7915C187.844 70.8211 187.466 70.8211 187.089 70.7915C184.57 70.7915 183.31 69.4761 183.31 66.8453V59.2175H181.457V58.279L183.31 57.4609L184.153 54.7178H185.332V57.7496H189.111V59.2656H185.332V66.8453C185.29 67.4868 185.487 68.1213 185.886 68.6259C186.077 68.8266 186.309 68.984 186.567 69.0878C186.824 69.1915 187.101 69.2391 187.378 69.2275Z" fill="#FF671B"/>
<path d="M201.143 70.5992V62.2495C201.224 61.3841 200.965 60.521 200.421 59.8432C200.118 59.5647 199.76 59.3524 199.371 59.2198C198.981 59.0872 198.568 59.0373 198.159 59.0732C197.61 59.0262 197.058 59.1011 196.542 59.2924C196.026 59.4838 195.559 59.7869 195.174 60.1801C194.451 61.2467 194.119 62.5304 194.235 63.8135V70.551H192.262V52.2876H194.235V57.7498C194.274 58.3026 194.274 58.8573 194.235 59.4101C194.639 58.774 195.215 58.2652 195.896 57.9423C196.647 57.5832 197.471 57.4021 198.303 57.4129C199.6 57.3122 200.885 57.7175 201.889 58.5438C202.319 59.0264 202.646 59.5903 202.853 60.2021C203.06 60.814 203.141 61.4611 203.093 62.1051V70.527L201.143 70.5992Z" fill="#FF671B"/>
<path d="M213.275 70.5992H211.253V55.1752H205.766V53.3945H218.763V55.1752H213.275V70.5992Z" fill="#FF671B"/>
<path d="M227.065 70.8396C226.228 70.885 225.39 70.7543 224.606 70.4559C223.823 70.1574 223.111 69.6979 222.516 69.1071C221.352 67.7831 220.755 66.0545 220.855 64.2946C220.756 62.5109 221.303 60.7513 222.396 59.3377C222.903 58.7346 223.543 58.256 224.265 57.939C224.987 57.6219 225.772 57.4748 226.559 57.509C227.283 57.4648 228.008 57.5846 228.679 57.8596C229.35 58.1346 229.95 58.5576 230.434 59.0971C231.422 60.2717 231.929 61.7756 231.855 63.308V64.5352H222.877C222.825 65.7853 223.236 67.0107 224.032 67.9761C224.433 68.3794 224.915 68.693 225.446 68.8962C225.977 69.0994 226.545 69.1877 227.113 69.1552C228.537 69.149 229.946 68.8543 231.253 68.289V70.0215C230.618 70.3032 229.957 70.5209 229.279 70.6711C228.548 70.8005 227.807 70.857 227.065 70.8396ZM226.535 59.0971C226.086 59.0885 225.64 59.174 225.225 59.3481C224.811 59.5221 224.437 59.7808 224.128 60.1077C223.46 60.8899 223.071 61.8716 223.021 62.899H229.809C229.831 61.9062 229.508 60.9366 228.894 60.1558C228.605 59.8078 228.24 59.5312 227.827 59.3475C227.413 59.1639 226.963 59.0782 226.511 59.0971H226.535Z" fill="#FF671B"/>
<path d="M240.883 70.8399C240.071 70.8893 239.257 70.7597 238.5 70.4603C237.744 70.161 237.062 69.6991 236.503 69.1073C235.412 67.7485 234.864 66.0342 234.962 64.2948C234.838 62.4894 235.396 60.7032 236.527 59.2898C237.099 58.6875 237.797 58.218 238.57 57.9145C239.344 57.611 240.174 57.4809 241.004 57.5333C241.634 57.5308 242.264 57.5953 242.881 57.7258C243.389 57.8245 243.882 57.9861 244.349 58.207L243.747 59.8673C243.286 59.6855 242.812 59.5407 242.327 59.4342C241.878 59.3286 241.418 59.2721 240.955 59.2658C238.308 59.2658 236.984 60.9341 236.984 64.2708C236.898 65.5622 237.236 66.8464 237.947 67.9283C238.285 68.357 238.723 68.6971 239.222 68.9193C239.721 69.1414 240.266 69.239 240.811 69.2036C241.953 69.1884 243.081 68.9514 244.133 68.5058V70.2383C243.111 70.6872 241.998 70.8931 240.883 70.8399Z" fill="#FF671B"/>
<path d="M256.62 70.5992V62.2495C256.701 61.3841 256.442 60.521 255.898 59.8432C255.595 59.5647 255.237 59.3524 254.847 59.2198C254.458 59.0872 254.045 59.0373 253.635 59.0732C253.087 59.0262 252.535 59.1011 252.019 59.2924C251.503 59.4838 251.036 59.7869 250.651 60.1801C249.928 61.2467 249.596 62.5304 249.712 63.8135V70.551H247.738V52.2876H249.712V57.7498C249.75 58.3026 249.75 58.8573 249.712 59.4101C250.116 58.774 250.692 58.2652 251.373 57.9423C252.124 57.5832 252.947 57.4021 253.779 57.4129C255.076 57.3122 256.361 57.7175 257.366 58.5438C257.795 59.0264 258.123 59.5903 258.33 60.2021C258.536 60.814 258.618 61.4611 258.569 62.1051V70.527L256.62 70.5992Z" fill="#FF671B"/>
<path d="M275.42 70.8396C274.583 70.885 273.746 70.7543 272.962 70.4559C272.178 70.1574 271.466 69.6979 270.871 69.1071C269.707 67.7831 269.111 66.0545 269.211 64.2946C269.112 62.5109 269.659 60.7513 270.751 59.3377C271.259 58.7346 271.898 58.256 272.62 57.939C273.342 57.6219 274.127 57.4748 274.915 57.509C275.639 57.4648 276.363 57.5846 277.034 57.8596C277.705 58.1346 278.305 58.5576 278.79 59.0971C279.777 60.2717 280.284 61.7756 280.21 63.308V64.5352H271.256C271.204 65.7853 271.616 67.0107 272.412 67.9761C272.813 68.3794 273.294 68.693 273.826 68.8962C274.357 69.0994 274.925 69.1877 275.493 69.1552C276.917 69.149 278.325 68.8543 279.632 68.289V70.0215C278.998 70.3032 278.337 70.5209 277.659 70.6711C276.92 70.8021 276.17 70.8586 275.42 70.8396ZM274.891 59.0971C274.441 59.0885 273.995 59.174 273.581 59.3481C273.166 59.5221 272.793 59.7808 272.484 60.1077C271.816 60.8899 271.426 61.8716 271.377 62.899H278.164C278.23 61.8825 277.931 60.8758 277.322 60.0596C277.016 59.7189 276.635 59.4544 276.208 59.2873C275.782 59.1202 275.323 59.055 274.867 59.0971H274.891Z" fill="#FF671B"/>
<path d="M287.163 64.0062L282.638 57.75H284.876L288.318 62.5625L291.736 57.75H293.95L289.425 64.0544L294.239 70.6475H292.001L288.366 65.4259L284.684 70.6475H282.445L287.163 64.0062Z" fill="#FF671B"/>
<path d="M303.266 70.8398C302.44 70.8643 301.619 70.7083 300.86 70.3826C300.159 70.0721 299.553 69.5824 299.103 68.963H298.958C299.051 69.6731 299.099 70.3883 299.103 71.1045V76.4223H297.129V57.7498H298.742L299.006 59.5064C299.448 58.8489 300.053 58.318 300.763 57.9664C301.518 57.6239 302.342 57.4593 303.17 57.4851C303.927 57.4425 304.684 57.5794 305.378 57.8847C306.073 58.19 306.685 58.6549 307.166 59.2417C308.156 60.6446 308.648 62.3391 308.562 64.0542C308.672 65.8131 308.171 67.5561 307.142 68.987C306.683 69.5747 306.095 70.048 305.422 70.3695C304.75 70.691 304.012 70.852 303.266 70.8398ZM302.978 59.1214C302.445 59.0686 301.908 59.1387 301.407 59.3265C300.907 59.5142 300.456 59.8145 300.089 60.2042C299.407 61.234 299.085 62.4611 299.175 63.6933V64.1264C299.055 65.4901 299.375 66.8564 300.089 68.0245C300.451 68.4384 300.906 68.761 301.416 68.9659C301.926 69.1708 302.478 69.2522 303.026 69.2036C303.545 69.2226 304.061 69.1088 304.524 68.873C304.988 68.6372 305.383 68.2872 305.673 67.8561C306.371 66.7418 306.707 65.4391 306.636 64.1264C306.719 62.8201 306.381 61.5217 305.673 60.4208C305.369 60.0014 304.966 59.6634 304.5 59.4368C304.034 59.2101 303.52 59.1018 303.002 59.1214H302.978Z" fill="#FF671B"/>
<path d="M318.116 70.8396C317.278 70.885 316.441 70.7543 315.657 70.4559C314.874 70.1574 314.161 69.6979 313.567 69.1071C312.403 67.7831 311.806 66.0545 311.906 64.2946C311.807 62.5109 312.354 60.7513 313.446 59.3377C313.954 58.7346 314.594 58.256 315.315 57.939C316.037 57.6219 316.822 57.4748 317.61 57.509C318.334 57.4648 319.059 57.5846 319.73 57.8596C320.401 58.1346 321.001 58.5576 321.485 59.0971C322.472 60.2717 322.98 61.7756 322.905 63.308V64.5352H313.952C313.9 65.7853 314.311 67.0107 315.107 67.9761C315.508 68.3794 315.99 68.693 316.521 68.8962C317.052 69.0994 317.62 69.1877 318.188 69.1552C319.612 69.149 321.02 68.8543 322.328 68.289V70.0215C321.693 70.3032 321.032 70.5209 320.354 70.6711C319.615 70.8021 318.866 70.8586 318.116 70.8396ZM317.586 59.0971C317.137 59.0885 316.69 59.174 316.276 59.3481C315.861 59.5221 315.488 59.7808 315.179 60.1077C314.511 60.8899 314.122 61.8716 314.072 62.899H320.859C320.925 61.8825 320.627 60.8758 320.017 60.0596C319.711 59.7189 319.33 59.4544 318.904 59.2873C318.477 59.1202 318.018 59.055 317.562 59.0971H317.586Z" fill="#FF671B"/>
<path d="M332.655 57.4613C333.18 57.4564 333.704 57.5048 334.22 57.6056L333.955 59.4103C333.489 59.3042 333.013 59.2477 332.535 59.2419C332.019 59.2405 331.509 59.3542 331.043 59.5749C330.577 59.7955 330.165 60.1174 329.839 60.5172C329.075 61.3957 328.671 62.53 328.708 63.6935V70.6235H326.734V57.75H328.371L328.588 60.1563C329.006 59.381 329.6 58.7137 330.321 58.2072C331 57.7172 331.818 57.4559 332.655 57.4613Z" fill="#FF671B"/>
<path d="M341.319 69.2275C341.656 69.2541 341.994 69.2541 342.33 69.2275L343.1 69.059V70.5509C342.8 70.6726 342.484 70.7536 342.162 70.7915C341.785 70.8211 341.407 70.8211 341.031 70.7915C338.511 70.7915 337.252 69.4761 337.252 66.8453V59.2175H335.398V58.279L337.252 57.4609L338.094 54.7178H339.225V57.7496H343.004V59.2656H339.225V66.8453C339.183 67.4868 339.38 68.1213 339.779 68.6259C339.976 68.8329 340.216 68.9941 340.482 69.0981C340.748 69.202 341.034 69.2462 341.319 69.2275Z" fill="#FF671B"/>
<path d="M354.582 67.086C354.605 67.623 354.495 68.1575 354.259 68.6407C354.024 69.124 353.671 69.5408 353.234 69.8532C352.101 70.5724 350.771 70.9175 349.431 70.8397C348.036 70.9114 346.645 70.6301 345.387 70.0216V68.2169C346.032 68.539 346.71 68.7891 347.409 68.9629C348.086 69.1358 348.781 69.2247 349.479 69.2276C350.309 69.2778 351.139 69.112 351.886 68.7463C352.119 68.6053 352.315 68.4098 352.456 68.1765C352.597 67.9432 352.68 67.6791 352.696 67.4069C352.713 67.1347 352.663 66.8626 352.551 66.6139C352.44 66.3652 352.269 66.1474 352.054 65.9791C351.259 65.4369 350.392 65.0077 349.479 64.7038C348.583 64.3996 347.72 64.0045 346.904 63.5247C346.445 63.2397 346.058 62.8527 345.772 62.3938C345.509 61.9326 345.376 61.4087 345.387 60.8779C345.388 60.4006 345.507 59.9311 345.734 59.5112C345.961 59.0913 346.288 58.7341 346.687 58.4716C347.744 57.809 348.98 57.4896 350.225 57.5572C351.64 57.5564 353.04 57.8429 354.341 58.3994L353.643 59.9876C352.526 59.4978 351.324 59.2282 350.105 59.1935C349.373 59.1466 348.642 59.2961 347.987 59.6266C347.768 59.7415 347.584 59.9146 347.457 60.1268C347.329 60.339 347.263 60.5823 347.265 60.8297C347.254 61.1473 347.347 61.4598 347.529 61.7201C347.766 62.0114 348.061 62.2493 348.396 62.4179C349.137 62.7875 349.9 63.109 350.682 63.3804C351.832 63.7157 352.898 64.2897 353.811 65.0647C354.314 65.6172 354.589 66.3392 354.582 67.086Z" fill="#FF671B"/>
<path d="M117.651 36.6232H109.299L104.485 18.5523C104.309 17.9106 104.012 16.5792 103.595 14.5579C103.177 12.5367 102.937 11.1812 102.873 10.4914C102.776 11.3416 102.536 12.7051 102.15 14.582C101.765 16.4589 101.477 17.7983 101.284 18.6004L96.6147 36.6232H88.3591L79.4297 2.21387H86.6503L91.0789 21.0067C91.8491 24.4717 92.4107 27.4795 92.7637 30.0301C92.86 29.1318 93.0766 27.7442 93.4136 25.8673C93.7505 23.9904 94.0714 22.5387 94.3763 21.512L99.4307 2.26199H106.387L111.441 21.512C111.666 22.3782 111.946 23.6937 112.283 25.4582C112.62 27.2228 112.869 28.7468 113.029 30.0301C113.19 28.8109 113.447 27.287 113.8 25.4582C114.153 23.6295 114.466 22.1537 114.738 21.0307L119.239 2.21387H126.46L117.651 36.6232Z" fill="white"/>
<path d="M142.78 37.08C140.969 37.2032 139.153 36.9669 137.434 36.3846C135.716 35.8023 134.129 34.8855 132.767 33.6871C131.513 32.3685 130.545 30.8052 129.924 29.0951C129.303 27.385 129.042 25.5651 129.157 23.7493C128.854 20.0206 130.01 16.3198 132.382 13.4265C133.575 12.2057 135.013 11.2526 136.603 10.6303C138.192 10.008 139.896 9.73079 141.6 9.81714C143.216 9.7061 144.837 9.931 146.362 10.4777C147.886 11.0244 149.281 11.8809 150.458 12.9934C151.523 14.1611 152.347 15.5271 152.884 17.0135C153.421 18.4998 153.66 20.0773 153.587 21.6559V25.145H136.498C136.462 26.9253 137.118 28.6503 138.327 29.9575C138.971 30.5549 139.73 31.0146 140.558 31.3083C141.385 31.6021 142.264 31.7238 143.141 31.6659C144.651 31.7073 146.161 31.5781 147.642 31.2809C149.177 30.9068 150.669 30.3745 152.094 29.6928V35.2512C150.803 35.886 149.436 36.355 148.027 36.6468C146.297 36.9697 144.539 37.1148 142.78 37.08ZM141.745 14.9184C141.074 14.8807 140.403 14.9904 139.779 15.2399C139.156 15.4893 138.594 15.8724 138.135 16.3621C137.188 17.5267 136.662 18.9764 136.642 20.4768H146.823C146.892 18.9786 146.393 17.5096 145.427 16.3621C144.951 15.8745 144.376 15.4935 143.741 15.2447C143.106 14.9958 142.426 14.8845 141.745 14.9184Z" fill="white"/>
<path d="M176.786 36.6229L175.39 33.0376H175.197C174.197 34.3306 172.912 35.3762 171.443 36.0935C169.847 36.7411 168.133 37.0445 166.412 36.9838C165.315 37.0452 164.217 36.885 163.183 36.513C162.15 36.1409 161.201 35.5645 160.395 34.8182C158.906 33.2057 158.118 31.0679 158.205 28.8748C158.108 27.6472 158.341 26.416 158.878 25.308C159.415 24.1999 160.238 23.255 161.262 22.5704C163.978 21.0497 167.055 20.2931 170.167 20.3807L174.764 20.2363V19.0813C174.834 18.5294 174.775 17.9688 174.591 17.4437C174.408 16.9186 174.104 16.4435 173.705 16.056C173.305 15.6685 172.821 15.3792 172.291 15.211C171.76 15.0428 171.198 15.0004 170.648 15.087C168.057 15.2025 165.518 15.8496 163.187 16.9879L160.78 12.1754C163.919 10.5576 167.406 9.73152 170.937 9.76914C173.861 9.60669 176.751 10.4565 179.121 12.1754C180.106 13.0468 180.875 14.135 181.368 15.3543C181.861 16.5736 182.064 17.8906 181.961 19.2016V36.7432L176.786 36.6229ZM174.644 24.4232H171.852C170.173 24.3448 168.506 24.7365 167.038 25.5541C166.525 25.9291 166.122 26.4353 165.872 27.0196C165.622 27.6039 165.535 28.2448 165.618 28.8748C165.618 30.896 166.789 31.9066 169.132 31.9066C170.61 31.9769 172.056 31.4576 173.152 30.4629C173.657 29.9709 174.053 29.3781 174.314 28.7231C174.575 28.0682 174.696 27.3656 174.668 26.661L174.644 24.4232Z" fill="white"/>
<path d="M197.029 36.6231H189.809V0H197.029V36.6231Z" fill="white"/>
<path d="M216.261 31.2812C217.81 31.2335 219.342 30.9578 220.81 30.4631V35.805C218.704 36.6639 216.441 37.0737 214.167 37.0081C213.019 37.1149 211.861 36.9771 210.77 36.6038C209.679 36.2305 208.679 35.6302 207.837 34.8425C206.39 32.9906 205.686 30.6651 205.864 28.3216V15.6888H202.422V12.6569L206.417 10.2506L208.487 4.8125H213.108V10.2988H220.522V15.6888H213.108V28.3938C213.074 28.8116 213.133 29.232 213.283 29.6235C213.433 30.0151 213.67 30.3679 213.975 30.6556C214.639 31.1283 215.449 31.35 216.261 31.2812Z" fill="white"/>
<path d="M251.16 36.6231H243.94V21.2472C243.94 17.4453 242.519 15.5444 239.679 15.5444C238.834 15.4688 237.983 15.6181 237.214 15.9774C236.444 16.3366 235.784 16.8928 235.299 17.5897C234.244 19.6361 233.777 21.9351 233.951 24.2309V36.5991H226.73V0H233.951V7.45937C233.951 8.03687 233.895 9.40042 233.783 11.55L233.47 13.6675H233.855C234.67 12.3944 235.813 11.3648 237.164 10.6872C238.516 10.0096 240.025 9.70911 241.533 9.8175C242.818 9.71223 244.111 9.87144 245.332 10.2853C246.553 10.6992 247.677 11.3589 248.633 12.2238C249.492 13.2078 250.147 14.3526 250.561 15.5918C250.974 16.831 251.137 18.1399 251.04 19.4425L251.16 36.6231Z" fill="white"/>
<path d="M273.038 36.6232H265.673V8.27762H256.262V2.21387H282.448V8.27762H273.038V36.6232Z" fill="white"/>
<path d="M299.707 37.0804C297.896 37.2037 296.079 36.9674 294.361 36.385C292.642 35.8027 291.056 34.8859 289.694 33.6876C288.44 32.369 287.472 30.8056 286.851 29.0955C286.23 27.3854 285.969 25.5655 286.084 23.7498C285.833 20.0405 287.022 16.3774 289.405 13.5232C290.598 12.3024 292.037 11.3493 293.626 10.727C295.215 10.1047 296.919 9.82749 298.624 9.91384C300.223 9.81625 301.826 10.0478 303.333 10.5941C304.84 11.1404 306.219 11.9899 307.385 13.0901C309.503 15.4282 310.618 18.5044 310.489 21.6563V25.1454H293.377C293.341 26.9258 293.996 28.6507 295.206 29.9579C295.85 30.5553 296.609 31.015 297.436 31.3088C298.264 31.6026 299.143 31.7242 300.02 31.6663C301.542 31.67 303.06 31.5005 304.544 31.161C306.08 30.7869 307.572 30.2547 308.997 29.5729V35.1313C307.706 35.7662 306.339 36.2351 304.93 36.527C303.212 36.8886 301.462 37.074 299.707 37.0804ZM298.696 14.9188C298.025 14.8811 297.354 14.9909 296.73 15.2403C296.107 15.4897 295.545 15.8728 295.085 16.3626C294.156 17.5335 293.648 18.9826 293.641 20.4773H303.798C303.867 18.9791 303.368 17.51 302.402 16.3626C301.923 15.8718 301.344 15.489 300.705 15.24C300.066 14.991 299.381 14.8815 298.696 14.9188Z" fill="white"/>
<path d="M327.672 37.0803C319.424 37.0803 315.3 32.5887 315.3 23.6053C315.056 19.8815 316.264 16.2078 318.67 13.3547C319.94 12.1275 321.452 11.1789 323.11 10.5698C324.768 9.96071 326.535 9.70448 328.298 9.81751C331.15 9.76707 333.975 10.3765 336.553 11.5981L334.411 17.1566C333.272 16.7074 332.213 16.3385 331.234 16.0497C330.281 15.7647 329.292 15.6188 328.298 15.6166C324.527 15.6166 322.641 18.2715 322.641 23.5813C322.641 28.8911 324.527 31.4577 328.298 31.2813C329.61 31.2942 330.916 31.1076 332.173 30.7278C333.436 30.3229 334.636 29.7395 335.735 28.9953V35.1313C334.649 35.8369 333.453 36.3573 332.197 36.6713C330.709 36.9782 329.191 37.1154 327.672 37.0803Z" fill="white"/>
<path d="M366.832 36.6231H359.611V21.2472C359.611 17.4453 358.191 15.5444 355.351 15.5444C354.506 15.4688 353.655 15.6181 352.886 15.9774C352.116 16.3366 351.456 16.8928 350.971 17.5897C349.915 19.6361 349.449 21.9351 349.623 24.2309V36.5991H342.402V0H349.623V7.45937C349.623 8.03687 349.567 9.40042 349.454 11.55L349.286 13.6675H349.671C350.486 12.3944 351.629 11.3648 352.981 10.6872C354.332 10.0096 355.841 9.70911 357.349 9.8175C358.634 9.71223 359.927 9.87144 361.148 10.2853C362.37 10.6992 363.493 11.3589 364.449 12.2238C365.308 13.2078 365.964 14.3526 366.377 15.5918C366.79 16.831 366.953 18.1399 366.856 19.4425L366.832 36.6231Z" fill="white"/>
<path d="M402.118 7.79645C400.873 7.74025 399.634 7.99456 398.512 8.53644C397.39 9.07832 396.421 9.89075 395.692 10.9005C394.04 13.459 393.239 16.4742 393.405 19.5149C393.405 27.1828 396.309 31.0168 402.118 31.0168C405.149 30.9045 408.142 30.2948 410.975 29.2121V35.3239C407.915 36.5451 404.642 37.1423 401.348 37.0805C399.226 37.1994 397.104 36.854 395.129 36.0685C393.155 35.2831 391.375 34.0764 389.915 32.5327C387.022 28.8157 385.591 24.167 385.896 19.4668C385.824 16.2209 386.499 13.002 387.869 10.0583C389.088 7.47413 391.06 5.31854 393.525 3.87426C396.159 2.39044 399.144 1.64242 402.166 1.70863C405.689 1.73903 409.161 2.56142 412.323 4.11488L409.916 10.0343C408.638 9.42674 407.329 8.88856 405.993 8.42207C404.745 7.99814 403.436 7.78666 402.118 7.79645Z" fill="white"/>
<path d="M425.486 36.6231H418.266V0H425.486V36.6231Z" fill="white"/>
<path d="M452.35 36.6232L451.387 33.2544H451.002C450.197 34.5054 449.042 35.4926 447.681 36.0938C446.17 36.7796 444.526 37.1246 442.867 37.1044C441.589 37.2117 440.303 37.0533 439.089 36.6391C437.875 36.225 436.761 35.5642 435.815 34.6982C434.959 33.712 434.306 32.5669 433.893 31.3282C433.48 30.0896 433.315 28.7818 433.408 27.4795V10.2988H440.629V25.6748C440.516 27.1648 440.87 28.653 441.639 29.9338C442.021 30.4214 442.517 30.8065 443.085 31.0543C443.652 31.3021 444.272 31.405 444.889 31.3535C445.732 31.4317 446.581 31.286 447.35 30.9311C448.12 30.5762 448.781 30.0247 449.269 29.3323C450.331 27.2796 450.798 24.9709 450.617 22.667V10.2988H457.838V36.6232H452.35Z" fill="white"/>
<path d="M480.727 9.8175C482.161 9.76033 483.586 10.0629 484.872 10.6975C486.159 11.3322 487.266 12.2788 488.092 13.4509C490.01 16.4067 490.937 19.8955 490.74 23.4128C490.963 26.9917 489.998 30.544 487.996 33.5191C487.109 34.6182 485.99 35.5085 484.72 36.1269C483.449 36.7453 482.059 37.0766 480.646 37.0973C479.233 37.1179 477.833 36.8275 476.545 36.2465C475.257 35.6655 474.113 34.8083 473.194 33.7356H472.688L471.485 36.6231H465.949V0H473.17V8.51812C473.17 9.59292 473.074 11.3254 472.881 13.7156H473.17C473.967 12.4505 475.088 11.4218 476.417 10.7363C477.746 10.0509 479.234 9.73359 480.727 9.8175ZM478.321 15.5684C477.583 15.5033 476.841 15.6181 476.157 15.9031C475.474 16.1881 474.87 16.6348 474.397 17.2047C473.437 18.831 472.992 20.7104 473.122 22.5947V23.3647C472.958 25.4663 473.401 27.5708 474.397 29.4284C474.857 30.0494 475.467 30.5432 476.17 30.8632C476.873 31.1831 477.647 31.3187 478.417 31.2572C479.135 31.2612 479.842 31.0738 480.463 30.7143C481.085 30.3548 481.6 29.8363 481.955 29.2119C482.945 27.4028 483.404 25.3509 483.279 23.2925C483.418 21.2637 482.958 19.2387 481.955 17.4694C481.576 16.8755 481.053 16.3874 480.434 16.0507C479.815 15.714 479.121 15.5398 478.417 15.5444L478.321 15.5684Z" fill="white"/>
<path d="M11.2883 22.7389C17.0307 22.7389 21.6859 18.1172 21.6859 12.4161C21.6859 6.71494 17.0307 2.09326 11.2883 2.09326C5.54581 2.09326 0.890625 6.71494 0.890625 12.4161C0.890625 18.1172 5.54581 22.7389 11.2883 22.7389Z" fill="white"/>
<path d="M54.2271 43.601C54.2314 43.5369 54.2314 43.4726 54.2271 43.4085C54.1513 41.2422 53.449 39.1444 52.2054 37.3688L51.7721 36.7191C49.8589 34.2389 48.7503 31.233 48.5951 28.1048C48.5783 25.0812 49.5975 22.143 51.4833 19.7791C51.724 19.5144 51.9406 19.2498 52.1332 18.9851C53.6792 16.8305 54.4114 14.198 54.1999 11.5548C53.9884 8.91167 52.8468 6.42898 50.9779 4.54756C48.855 2.44482 45.9875 1.26514 42.9991 1.26514C40.0107 1.26514 37.1432 2.44482 35.0204 4.54756C33.1007 6.464 31.9462 9.01471 31.7734 11.7214C31.6006 14.4281 32.4213 17.1049 34.0817 19.2498L34.2261 19.4423C36.2072 21.8572 37.2877 24.8852 37.2828 28.0085C37.4409 29.3888 37.3084 30.7869 36.8939 32.113C36.4794 33.439 35.792 34.6638 34.876 35.7085C33.8184 36.6275 32.581 37.3161 31.2424 37.7304C29.9039 38.1447 28.4937 38.2756 27.1018 38.1148C23.9593 38.1233 20.909 37.0531 18.4612 35.0829L18.2445 34.9144C16.2499 33.3594 13.794 32.5128 11.2646 32.5082C9.78672 32.5033 8.32234 32.7897 6.95531 33.3513C5.58828 33.9128 4.34544 34.7384 3.29793 35.7807C2.2449 36.8154 1.40853 38.0493 0.837614 39.4106C0.266694 40.7719 -0.0273437 42.2332 -0.0273438 43.7093C-0.0273437 45.1854 0.266694 46.6467 0.837614 48.008C1.40853 49.3692 2.2449 50.6032 3.29793 51.6379C4.35028 52.6787 5.59792 53.5015 6.96921 54.059C8.3405 54.6164 9.80843 54.8976 11.2887 54.8863C13.6526 54.9483 15.9762 54.2665 17.9317 52.9372L18.7018 52.3357C21.1024 50.4485 24.072 49.4306 27.1259 49.4482C30.2742 49.5971 33.3035 50.6961 35.8146 52.6004L36.4404 53.0094H36.5608C38.7384 54.5106 41.371 55.2068 44.0063 54.9785C46.6416 54.7502 49.1151 53.6115 51.0019 51.7582L51.5315 51.2288L51.9888 50.531C52.8913 49.3449 53.5387 47.9849 53.8902 46.5366L54.0105 46.1035C54.0268 45.831 54.0268 45.5578 54.0105 45.2854V45.0447C54.0381 44.6522 54.0381 44.2582 54.0105 43.8657L54.2271 43.601Z" fill="#FF671B"/>
</g>
<defs>
<clipPath id="clip0">
<rect width="491" height="77" fill="white"/>
</clipPath>
</defs>
</svg>
