<svg width="390" height="77" viewBox="0 0 390 77" fill="none" xmlns="http://www.w3.org/2000/svg">
<g clip-path="url(#clip0)">
<path d="M77.814 33.8569C78.7048 33.9869 79.5862 34.174 80.453 34.4169C81.254 34.6396 82.0351 34.9284 82.7883 35.2803V37.1469H66.3242V35.2803C66.9606 34.915 67.6338 34.6178 68.3326 34.3936C69.0067 34.1754 69.6929 33.9962 70.3877 33.8569V5.85694C69.649 5.73287 68.9224 5.54552 68.2158 5.29694C67.5673 5.0684 66.9418 4.77934 66.3476 4.4336V2.56694H72.5829C73.8907 2.56694 75.3853 2.48916 77.0667 2.3336C78.7482 2.17805 80.3051 2.11583 81.7374 2.14694C83.4553 2.14276 85.169 2.31478 86.8518 2.66027C88.4322 2.9697 89.9434 3.56261 91.3122 4.41027C92.6189 5.22997 93.7021 6.36029 94.4649 7.70027C95.347 9.27343 95.7906 11.0542 95.7494 12.8569C95.793 14.6086 95.3912 16.3426 94.5817 17.8969C93.8323 19.2815 92.7783 20.4782 91.4991 21.3969C90.151 22.3491 88.6389 23.0451 87.0386 23.4503C85.3471 23.8993 83.6043 24.1267 81.8542 24.1269H79.8925H78.7015H77.8841L77.814 33.8569ZM80.4763 5.39027C79.9553 5.35803 79.4327 5.35803 78.9116 5.39027C78.5331 5.44236 78.1586 5.52032 77.7907 5.62361V20.7203C78.2249 20.8351 78.6727 20.89 79.1218 20.8836H80.5464C81.4219 20.8859 82.2912 20.7359 83.1152 20.4403C83.9376 20.1446 84.6864 19.675 85.3104 19.0636C85.9844 18.3994 86.5167 17.6057 86.8751 16.7303C87.2952 15.5882 87.4933 14.3765 87.459 13.1603C87.5472 12.1075 87.4209 11.0479 87.0877 10.0453C86.7546 9.04266 86.2215 8.11793 85.5206 7.32694C84.85 6.68653 84.0588 6.18557 83.1929 5.85312C82.327 5.52066 81.4036 5.36334 80.4763 5.39027Z" fill="white"/>
<path d="M120.435 30.007C120.435 30.7381 120.435 31.3603 120.435 31.8736C120.435 32.387 120.474 32.947 120.552 33.5536L123.961 34.0436V35.7703C123.442 36.0105 122.903 36.2056 122.35 36.3536L120.225 36.9136C119.477 37.1003 118.746 37.2481 118.03 37.357L116.091 37.637H114.433C114.11 36.897 113.913 36.1084 113.849 35.3036C113.849 34.5414 113.803 33.6158 113.709 32.527H113.452C113.281 33.2072 112.997 33.8539 112.612 34.4403C112.201 35.0659 111.688 35.6181 111.094 36.0736C110.445 36.5753 109.719 36.9692 108.945 37.2403C108.052 37.5484 107.111 37.6984 106.166 37.6836C105.157 37.7369 104.146 37.6186 103.177 37.3336C102.322 37.0176 101.532 36.5514 100.841 35.957C100.149 35.3662 99.5921 34.6342 99.2068 33.8103C98.803 32.9165 98.6036 31.9441 98.6229 30.9636C98.5718 29.6895 98.8621 28.4249 99.4637 27.3003C100.098 26.2834 101.015 25.4728 102.103 24.967C103.58 24.2775 105.156 23.821 106.773 23.6136C109.095 23.2726 111.434 23.0545 113.779 22.9603C114.097 20.8819 113.978 18.76 113.429 16.7303C113.192 16.0863 112.746 15.5406 112.161 15.1809C111.577 14.8211 110.888 14.6683 110.206 14.747C109.242 14.7344 108.284 14.9005 107.38 15.237L104.858 21.0003H102.756C102.469 20.5675 102.211 20.1153 101.986 19.647C101.737 19.1336 101.503 18.5892 101.285 18.0136C101.053 17.465 100.85 16.9042 100.678 16.3336C100.557 15.7717 100.471 15.2029 100.421 14.6303C101.908 13.6726 103.552 12.9854 105.279 12.6003C107.334 12.0951 109.444 11.8444 111.561 11.8536C113.14 11.7964 114.719 12.0014 116.231 12.4603C117.285 12.7917 118.245 13.3674 119.034 14.1403C119.702 14.8427 120.184 15.701 120.435 16.637C120.704 17.6334 120.837 18.6616 120.832 19.6936C120.832 21.6692 120.793 23.4581 120.715 25.0603C120.637 26.6625 120.544 28.3114 120.435 30.007ZM109.295 33.8103C109.911 33.8261 110.52 33.6899 111.07 33.4136C111.538 33.1718 111.964 32.8567 112.331 32.4803C112.667 32.1356 112.936 31.7322 113.125 31.2903C113.286 30.917 113.426 30.5353 113.546 30.147V25.2003C112.271 25.2136 110.999 25.3149 109.739 25.5036C108.912 25.6074 108.116 25.8858 107.404 26.3203C106.873 26.6589 106.464 27.1574 106.236 27.7436C106.004 28.4189 105.894 29.1299 105.909 29.8436C105.878 30.8653 106.209 31.8651 106.843 32.667C107.14 33.0345 107.518 33.3287 107.948 33.527C108.377 33.7253 108.846 33.8222 109.319 33.8103H109.295Z" fill="white"/>
<path d="M127.112 15.5166C126.646 15.3958 126.192 15.2317 125.757 15.0266C125.325 14.8155 124.904 14.5818 124.496 14.3266V12.46H137.504V14.28C136.626 14.8253 135.674 15.2418 134.678 15.5166L139.676 28L140.516 31.1733L141.404 28L145.257 15.61C144.239 15.3954 143.282 14.957 142.455 14.3266V12.46H152.006V14.3266C151.132 14.8678 150.179 15.2693 149.181 15.5166L141.124 37.17C140.494 38.9523 139.713 40.6775 138.788 42.3266C138.144 43.4838 137.36 44.5574 136.453 45.5233C135.794 46.2268 135 46.7903 134.118 47.18C133.367 47.4784 132.583 47.6822 131.782 47.7866C131.389 47.47 131.05 47.0917 130.778 46.6666C130.505 46.2125 130.271 45.7364 130.078 45.2433C129.881 44.7331 129.717 44.2109 129.587 43.68C129.457 43.1907 129.372 42.691 129.33 42.1866L129.984 40.9966H136.009C136.312 40.5236 136.57 40.0237 136.78 39.5033C137.076 38.7389 137.333 37.9602 137.551 37.17L127.112 15.5166Z" fill="white"/>
<path d="M176.831 37.1696H159.806V35.303C160.46 35.0385 161.238 34.7663 162.141 34.4863C162.971 34.213 163.823 34.0101 164.687 33.8796V5.87964H158.802L155.719 14.233H153.688C153.563 13.5796 153.431 12.7396 153.291 11.713C153.15 10.6863 153.034 9.62853 152.94 8.53964C152.847 7.45075 152.761 6.36964 152.683 5.2963C152.606 4.22297 152.606 3.30519 152.683 2.54297H184.094C184.094 3.3363 184.094 4.26186 184.094 5.31964C184.094 6.37741 184.008 7.45075 183.837 8.53964C183.743 9.62853 183.627 10.6785 183.486 11.6896C183.346 12.7007 183.191 13.5485 183.019 14.233H180.941L177.765 5.7863H172.043V33.7863C172.9 33.9574 173.748 34.1519 174.589 34.3696C175.393 34.5713 176.176 34.8527 176.924 35.2096L176.831 37.1696Z" fill="white"/>
<path d="M206.653 33.0171C206.334 33.6532 205.908 34.2294 205.392 34.7205C204.765 35.337 204.049 35.8561 203.267 36.2605C202.341 36.7409 201.361 37.109 200.348 37.3571C199.171 37.6455 197.963 37.7866 196.752 37.7771C194.897 37.8111 193.053 37.5026 191.31 36.8671C189.811 36.3103 188.461 35.4161 187.364 34.2538C186.308 33.0707 185.513 31.6797 185.028 30.1705C184.461 28.4471 184.184 26.6412 184.211 24.8271C184.075 23.0817 184.293 21.3269 184.851 19.6673C185.408 18.0077 186.295 16.4772 187.457 15.1671C188.687 14.0227 190.137 13.1391 191.718 12.5697C193.3 12.0002 194.98 11.7567 196.658 11.8538C198.242 11.85 199.816 12.086 201.329 12.5538C202.738 12.9898 204.004 13.7956 204.995 14.8871C206.031 16.0658 206.733 17.4998 207.027 19.0405C207.43 21.1134 207.43 23.2443 207.027 25.3171H191.847C191.773 27.5385 192.475 29.7165 193.833 31.4771C194.549 32.2838 195.443 32.9141 196.443 33.3188C197.444 33.7236 198.524 33.8918 199.601 33.8105C200.747 33.8034 201.886 33.6385 202.987 33.3205C203.981 33.0786 204.918 32.6424 205.743 32.0371L206.653 33.0171ZM196.448 14.6771C195.846 14.6664 195.248 14.7858 194.697 15.0271C194.13 15.3173 193.666 15.7731 193.365 16.3338C192.941 17.059 192.634 17.8464 192.455 18.6671C192.193 19.9596 192.029 21.27 191.964 22.5871H199.881C200.159 20.6026 200.008 18.5815 199.437 16.6605C199.224 16.049 198.817 15.5241 198.277 15.1659C197.737 14.8077 197.095 14.6361 196.448 14.6771Z" fill="white"/>
<path d="M232.227 33.157C232.023 33.8387 231.672 34.4677 231.2 35.0003C230.633 35.5775 229.989 36.0723 229.285 36.4703C228.495 36.9144 227.645 37.2443 226.763 37.4503C225.799 37.6848 224.811 37.8023 223.82 37.8003C221.912 37.8454 220.011 37.5368 218.215 36.8903C216.734 36.3378 215.406 35.4422 214.339 34.277C213.267 33.0965 212.47 31.6943 212.003 30.1703C211.489 28.4445 211.237 26.6511 211.256 24.8503C211.137 23.0983 211.38 21.3405 211.971 19.6866C212.561 18.0326 213.487 16.518 214.689 15.237C216.01 14.0609 217.55 13.1567 219.221 12.5761C220.892 11.9956 222.661 11.7501 224.427 11.8537C225.923 11.847 227.414 12.0273 228.864 12.3903C230.027 12.6685 231.155 13.0755 232.227 13.6037C232.227 14.1637 232.134 14.7781 231.947 15.447C231.76 16.1159 231.628 16.7926 231.55 17.477C231.394 18.1459 231.223 18.807 231.036 19.4603C230.877 20.0092 230.682 20.547 230.452 21.0703H228.117L225.945 15.167C225.718 15.0037 225.465 14.8777 225.198 14.7937C224.808 14.6995 224.407 14.6602 224.007 14.677C223.202 14.6394 222.4 14.7997 221.672 15.1437C220.989 15.5115 220.428 16.0712 220.06 16.7537C219.558 17.6911 219.225 18.7102 219.079 19.7637C218.84 21.3074 218.731 22.8684 218.752 24.4303C218.741 25.6886 218.89 26.9432 219.196 28.1637C219.457 29.2276 219.917 30.2329 220.551 31.127C221.159 31.9655 221.96 32.6457 222.886 33.1103C223.901 33.612 225.023 33.8602 226.155 33.8337C227.181 33.8559 228.202 33.6898 229.168 33.3437C229.946 33.0554 230.678 32.6545 231.34 32.1537L232.227 33.157Z" fill="white"/>
<path d="M265.179 37.17H252.077V35.3033C252.467 35.07 252.879 34.8522 253.315 34.65C253.8 34.4351 254.299 34.2558 254.81 34.1133V24.08C254.915 21.9558 254.638 19.83 253.992 17.8033C253.751 17.1663 253.307 16.6255 252.73 16.2633C252.152 15.901 251.472 15.7372 250.793 15.7967C250.171 15.7869 249.552 15.9016 248.975 16.134C248.397 16.3664 247.872 16.7119 247.43 17.15C246.525 18.0256 245.844 19.106 245.445 20.3V34.0667C245.921 34.1834 246.39 34.3315 246.846 34.51C247.31 34.7062 247.749 34.9568 248.154 35.2567V37.1233H235.053V35.2567C236.088 34.7238 237.187 34.3239 238.322 34.0667V4.06L234.562 3.66333V1.77333C235.188 1.53855 235.827 1.34371 236.477 1.19C237.256 0.987778 238.034 0.816667 238.813 0.676667L241.382 0.28L243.717 0H245.398V17.4533C245.738 16.6783 246.186 15.9555 246.73 15.3067C247.289 14.6361 247.933 14.0401 248.645 13.5333C249.362 13.0208 250.148 12.6123 250.98 12.32C251.819 12.0218 252.704 11.8718 253.595 11.8767C254.787 11.8598 255.975 12.017 257.122 12.3433C258.127 12.6361 259.027 13.2111 259.714 14C260.479 14.9317 261.022 16.0247 261.302 17.1967C261.7 18.862 261.881 20.5717 261.839 22.2833V34.1133L263.521 34.5567C264.085 34.7232 264.62 34.975 265.109 35.3033L265.179 37.17Z" fill="white"/>
<path d="M306.839 26.7869H308.871C308.995 27.3158 309.12 27.9536 309.244 28.7003C309.369 29.4469 309.47 30.2247 309.548 31.0336C309.626 31.8736 309.68 32.7058 309.711 33.5303C309.742 34.3547 309.742 35.1325 309.711 35.8636C308.386 36.654 306.918 37.1772 305.391 37.4036C303.632 37.7022 301.851 37.8505 300.066 37.8469C297.547 37.8793 295.037 37.5412 292.617 36.8436C290.493 36.2276 288.541 35.1251 286.918 33.6236C285.301 32.0521 284.07 30.1273 283.322 28.0003C282.408 25.3931 281.972 22.6422 282.038 19.8803C281.97 17.1234 282.446 14.38 283.439 11.8069C284.275 9.67402 285.576 7.75333 287.245 6.18361C288.828 4.73038 290.709 3.63948 292.757 2.98695C294.894 2.30814 297.124 1.96956 299.366 1.98361C301.345 1.96705 303.322 2.1232 305.274 2.45028C306.763 2.68315 308.215 3.10663 309.595 3.71028C309.595 4.23917 309.595 4.91584 309.595 5.74028C309.595 6.56472 309.509 7.42806 309.338 8.33028C309.229 9.2325 309.096 10.1192 308.941 10.9903C308.785 11.8614 308.645 12.5925 308.52 13.1836H306.442L303.593 5.74028C303.143 5.53099 302.662 5.39699 302.168 5.34361C301.495 5.24668 300.816 5.19988 300.136 5.20361C298.823 5.19629 297.524 5.47498 296.33 6.02028C295.076 6.6126 293.986 7.50164 293.154 8.61028C292.132 10.0091 291.394 11.5945 290.982 13.2769C290.413 15.4626 290.146 17.7157 290.188 19.9736C289.947 23.8062 290.937 27.6155 293.014 30.8469C293.877 32.0636 295.028 33.0477 296.365 33.7113C297.701 34.375 299.182 34.6976 300.674 34.6503C301.458 34.6591 302.242 34.5808 303.009 34.4169C303.495 34.3489 303.951 34.1377 304.317 33.8103L306.839 26.7869Z" fill="white"/>
<path d="M328.043 37.17H314.381V35.3033C315.425 34.7916 316.521 34.3927 317.65 34.1133V4.06L313.891 3.66333V1.77333C314.465 1.52916 315.058 1.33401 315.665 1.19C316.428 0.987778 317.207 0.816667 318.001 0.676667L320.616 0.28L322.952 0H324.633V34.09C325.762 34.3693 326.858 34.7682 327.903 35.28L328.043 37.17Z" fill="white"/>
<path d="M333.298 27.3465C333.298 25.262 333.345 23.3331 333.438 21.5598C333.531 19.7865 333.578 17.9042 333.578 15.9131L330.309 15.5165V13.6498C330.952 13.4205 331.606 13.2258 332.27 13.0665C333.049 12.8642 333.827 12.6931 334.606 12.5531L336.941 12.1565L338.903 11.8765H340.584C340.584 14.3498 340.537 16.7765 340.444 19.1565C340.351 21.5365 340.304 23.8698 340.304 26.1565C340.19 28.1357 340.468 30.1178 341.121 31.9898C341.38 32.5636 341.812 33.0426 342.356 33.3604C342.9 33.6781 343.529 33.8189 344.157 33.7631C345.22 33.7483 346.238 33.3314 347.006 32.5965C348.033 31.5584 348.773 30.2721 349.155 28.8631V15.9131L345.932 15.5165V13.6498C346.535 13.4198 347.151 13.225 347.777 13.0665C348.524 12.8642 349.303 12.6931 350.112 12.5531L352.448 12.1565L354.526 11.8765H356.207V33.6698L359.477 34.0665V35.7931C358.913 36.0228 358.336 36.2176 357.749 36.3765L355.577 36.9365C354.814 37.1231 354.036 37.2709 353.242 37.3798L351.233 37.6598H349.552L349.201 31.7798H349.015C348.829 32.5213 348.529 33.2296 348.127 33.8798C347.683 34.6104 347.123 35.2644 346.469 35.8165C344.941 37.1029 343.002 37.7984 341.004 37.7765C339.874 37.7952 338.747 37.6378 337.665 37.3098C336.695 36.9979 335.831 36.4246 335.166 35.6531C334.401 34.7215 333.858 33.6284 333.578 32.4565C333.264 30.7724 333.17 29.0547 333.298 27.3465Z" fill="white"/>
<path d="M364.311 4.06L360.551 3.66333V1.77333C361.191 1.53454 361.846 1.33964 362.512 1.19C363.322 0.987778 364.163 0.816667 365.035 0.676667L367.603 0.28L369.752 0H371.433V17.1033C372.008 15.742 372.92 14.5492 374.083 13.6374C375.247 12.7255 376.623 12.1246 378.084 11.8911C379.544 11.6577 381.039 11.7995 382.429 12.3032C383.819 12.8068 385.058 13.6558 386.029 14.77C387.811 17.4715 388.633 20.6925 388.365 23.9167C388.503 25.7688 388.254 27.6293 387.635 29.3805C387.016 31.1316 386.04 32.7353 384.768 34.09C381.842 36.5487 378.072 37.7708 374.259 37.4967C373.331 37.4939 372.403 37.4394 371.48 37.3333C370.453 37.2089 369.464 37.0689 368.514 36.9133C367.625 36.7658 366.744 36.5711 365.875 36.33C365.263 36.1766 364.673 35.9412 364.124 35.63L364.311 4.06ZM376.127 15.7267C375.555 15.7065 374.986 15.818 374.463 16.0527C373.941 16.2873 373.48 16.6388 373.115 17.08C372.307 18.0848 371.733 19.2564 371.433 20.51V33.6C371.953 33.9581 372.529 34.2263 373.138 34.3933C373.898 34.6065 374.685 34.7087 375.474 34.6967C376.335 34.734 377.188 34.5143 377.924 34.0655C378.661 33.6168 379.246 32.9592 379.607 32.1767C380.633 29.6719 381.08 26.9681 380.915 24.2667C380.998 22.1377 380.632 20.0151 379.841 18.0367C379.531 17.336 379.013 16.7475 378.357 16.351C377.701 15.9544 376.939 15.7691 376.174 15.82L376.127 15.7267Z" fill="white"/>
<path d="M73.9138 49.6997H74.4976H75.1982H75.8988L76.4827 49.8631C76.4827 50.4853 76.4048 51.0608 76.2491 51.5897C76.1593 52.0803 76.0345 52.5637 75.8755 53.0364H75.1749L73.9371 50.7031C73.4725 50.6929 73.0087 50.7479 72.5593 50.8664C72.1782 50.9757 71.8424 51.2048 71.6018 51.5197C71.3109 51.9291 71.119 52.4003 71.0413 52.8964C70.9044 53.6664 70.8418 54.4478 70.8545 55.2297V56.6297H74.0773V58.3331H70.8545V69.5097C71.7763 69.6123 72.6799 69.8399 73.5401 70.1864V70.8864H66.5341V69.9997C67.1036 69.6655 67.7285 69.4363 68.3791 69.323V58.3331H66.2539V57.5864C66.9091 57.1607 67.6259 56.8381 68.3791 56.6297V55.5331C68.3511 54.5592 68.4933 53.588 68.7994 52.6631C69.0304 51.9752 69.4322 51.3571 69.9671 50.8664C70.477 50.4252 71.0858 50.113 71.7419 49.9564C72.453 49.7844 73.1822 49.6983 73.9138 49.6997Z" fill="white"/>
<path d="M75.8537 63.7696C75.8369 62.7088 75.9947 61.6525 76.3207 60.6429C76.5921 59.7789 77.0461 58.9832 77.6519 58.3096C78.2302 57.6867 78.9403 57.2005 79.7303 56.8862C80.5933 56.5502 81.5132 56.3838 82.4393 56.3963C83.4615 56.3746 84.4778 56.5571 85.4285 56.9329C86.2251 57.256 86.9305 57.7687 87.4836 58.4263C88.0339 59.1126 88.4319 59.9079 88.6513 60.7596C88.9115 61.7335 89.0372 62.7383 89.0249 63.7462C89.1546 65.723 88.5098 67.6726 87.2267 69.1829C86.6061 69.8239 85.8563 70.3259 85.027 70.6557C84.1977 70.9856 83.3077 71.1357 82.416 71.0962C81.4184 71.121 80.426 70.9464 79.4968 70.5829C78.7007 70.259 77.9954 69.7465 77.4417 69.0896C76.8794 68.4043 76.4659 67.6097 76.2273 66.7563C75.9592 65.7839 75.8334 64.7779 75.8537 63.7696ZM78.5393 63.7696C78.5364 64.5533 78.6147 65.3353 78.7728 66.1029C78.9065 66.7872 79.1594 67.4428 79.5201 68.0396C79.8542 68.5822 80.3201 69.0317 80.8746 69.3462C81.4924 69.6727 82.1844 69.8335 82.883 69.8129C83.3909 69.8049 83.8877 69.6625 84.3225 69.4002C84.7574 69.1378 85.1149 68.765 85.3585 68.3196C86.1081 66.8841 86.4399 65.2673 86.3159 63.6529C86.3187 62.8692 86.2404 62.0873 86.0824 61.3196C85.9443 60.6366 85.6917 59.9818 85.3351 59.3829C85.0191 58.8499 84.5784 58.4015 84.0507 58.0762C83.4829 57.7517 82.8363 57.5902 82.1824 57.6096C81.6471 57.6061 81.1201 57.742 80.6533 58.0038C80.1864 58.2657 79.7959 58.6445 79.5201 59.1029C78.7463 60.5302 78.4055 62.1519 78.5393 63.7696Z" fill="white"/>
<path d="M97.3144 58.8701C97.0234 59.0537 96.7634 59.2821 96.5437 59.5468C96.1794 59.9973 95.9023 60.5116 95.7264 61.0634V69.3701C96.1052 69.4087 96.4802 69.4789 96.8473 69.5801C97.2378 69.6916 97.614 69.8482 97.9683 70.0468V70.7468H91.3359V70.0001C91.64 69.8281 91.9609 69.6873 92.2934 69.5801L93.1808 69.3234V58.3334L91.3359 58.1001V57.3768C91.9323 57.1157 92.5494 56.905 93.1808 56.7468C93.8192 56.5912 94.4264 56.4668 95.0024 56.3734H95.7497V59.3368C95.9396 58.9326 96.1831 58.5559 96.4737 58.2168C96.7894 57.8397 97.1502 57.5028 97.5479 57.2134C97.9453 56.9202 98.3867 56.6918 98.8557 56.5368C99.3282 56.3753 99.8305 56.3196 100.327 56.3734C100.463 56.6287 100.581 56.8939 100.677 57.1668C100.786 57.4623 100.887 57.7656 100.981 58.0768V58.8001L97.3144 58.8701Z" fill="white"/>
<path d="M114.431 69.2761C114.912 69.3247 115.388 69.4105 115.856 69.5328L117.117 69.9294V70.7461H109.41V69.9994C109.774 69.8161 110.158 69.6752 110.554 69.5794L111.699 69.3228V52.6861C111.287 52.6141 110.881 52.5127 110.484 52.3828L109.387 51.9861V51.1694H111.909C112.656 51.1694 113.435 51.1694 114.244 51.1694C115.054 51.1694 115.895 51.1694 116.766 51.1694C117.67 51.1717 118.571 51.2734 119.452 51.4728C120.288 51.6547 121.08 51.9954 121.787 52.4761C122.482 52.9561 123.051 53.5964 123.445 54.3428C123.893 55.2397 124.11 56.2342 124.076 57.2361C124.1 58.2173 123.875 59.1886 123.422 60.0594C123.004 60.8303 122.413 61.4933 121.694 61.9961C120.985 62.495 120.195 62.8662 119.359 63.0928C118.435 63.327 117.486 63.4446 116.533 63.4428H115.459H114.805L114.431 62.9994V69.2761ZM116.346 52.3828H115.248H114.431V61.5994H114.828H115.389H116.416C117.04 61.6063 117.662 61.5198 118.261 61.3428C118.824 61.169 119.342 60.8744 119.779 60.4794C120.234 60.0642 120.593 59.5545 120.83 58.9861C121.108 58.3053 121.243 57.5746 121.227 56.8394C121.276 56.2032 121.185 55.5638 120.959 54.9669C120.733 54.37 120.378 53.8302 119.919 53.3861C118.88 52.6313 117.601 52.2826 116.323 52.4061L116.346 52.3828Z" fill="white"/>
<path d="M137.064 67.107C137.064 67.5115 137.064 67.8693 137.064 68.1804V69.137L139.003 69.417V70.0004C138.5 70.2604 137.976 70.4789 137.438 70.6537C136.903 70.8309 136.357 70.9712 135.803 71.0737H135.103C134.913 70.6215 134.802 70.1401 134.776 69.6504C134.776 69.137 134.776 68.5693 134.776 67.947H134.635C134.549 68.3492 134.399 68.7351 134.192 69.0904C133.974 69.4794 133.69 69.827 133.351 70.117C132.566 70.7892 131.559 71.1466 130.525 71.1204C130.011 71.1286 129.5 71.0337 129.022 70.8413C128.545 70.649 128.111 70.363 127.746 70.0004C127.388 69.6491 127.107 69.2268 126.922 68.7606C126.737 68.2945 126.652 67.7948 126.672 67.2937C126.638 66.5516 126.817 65.8152 127.186 65.1704C127.555 64.5973 128.082 64.1435 128.704 63.8637C129.498 63.5151 130.34 63.287 131.203 63.187C132.199 63.047 133.351 62.9382 134.659 62.8604C134.708 62.1379 134.708 61.4129 134.659 60.6904C134.647 60.1254 134.545 59.566 134.355 59.0337C134.201 58.6063 133.925 58.2333 133.561 57.9604C133.159 57.7 132.686 57.5696 132.207 57.587H131.319C130.99 57.616 130.667 57.6947 130.362 57.8204L129.054 61.1804H128.447C128.26 60.6204 128.097 60.0448 127.956 59.4537C127.822 58.8708 127.736 58.2776 127.7 57.6804C128.429 57.2427 129.215 56.9052 130.035 56.677C130.979 56.4221 131.953 56.2965 132.931 56.3037C133.729 56.2606 134.527 56.3962 135.266 56.7004C135.787 56.9289 136.238 57.2912 136.574 57.7504C136.87 58.1768 137.069 58.6625 137.158 59.1737C137.25 59.6897 137.297 60.2128 137.298 60.737C137.298 61.857 137.298 62.9382 137.298 63.9804C137.298 65.0226 137.22 66.0648 137.064 67.107ZM131.646 69.4404C132.076 69.45 132.501 69.3538 132.884 69.1604C133.216 68.9865 133.516 68.7578 133.771 68.4837C133.998 68.2441 134.194 67.9776 134.355 67.6904C134.479 67.4757 134.581 67.249 134.659 67.0137V63.9804C133.768 63.966 132.878 64.0206 131.997 64.1437C131.422 64.2155 130.867 64.3977 130.362 64.6804C129.998 64.8876 129.711 65.2068 129.544 65.5904C129.387 65.9836 129.308 66.4036 129.311 66.827C129.263 67.5045 129.481 68.174 129.918 68.6937C130.139 68.9258 130.408 69.1066 130.707 69.2235C131.006 69.3404 131.326 69.3905 131.646 69.3704V69.4404Z" fill="white"/>
<path d="M141.17 58.1704C140.905 58.1014 140.647 58.0077 140.4 57.8904L139.676 57.4937V56.7704H145.561V57.4704C145.067 57.7774 144.533 58.0131 143.973 58.1704L147.546 66.4537L148.083 68.1804L148.503 66.4071L151.166 58.1471C150.609 58.0356 150.083 57.8047 149.624 57.4704V56.7471H154.412V57.4704C153.921 57.7765 153.385 58.0048 152.824 58.1471L148.457 70.7471C148.08 71.7483 147.635 72.7228 147.125 73.6637C146.795 74.2951 146.387 74.883 145.911 75.4137C145.562 75.8009 145.142 76.1177 144.673 76.3471C144.242 76.5498 143.787 76.6987 143.319 76.7904C143.107 76.4173 142.928 76.027 142.782 75.6237C142.626 75.1882 142.494 74.7759 142.385 74.3871L142.758 73.7104H145.678L145.981 73.2671C146.076 73.1006 146.161 72.9292 146.238 72.7537C146.238 72.5437 146.425 72.2871 146.542 71.9604C146.658 71.6337 146.775 71.2371 146.939 70.7471L141.17 58.1704Z" fill="white"/>
<path d="M167.047 70.7694H159.153V69.9994L160.391 69.6028C160.837 69.4855 161.289 69.392 161.745 69.3228V52.6161H157.472L155.977 56.6294H155.277C155.277 56.2561 155.23 55.8283 155.136 55.3461C155.043 54.8639 155.043 54.3817 155.136 53.8994C155.136 53.4017 155.136 52.9194 155.136 52.4528C155.136 51.9861 155.136 51.5583 155.136 51.1694H171.484C171.484 51.5428 171.484 51.9628 171.484 52.4294C171.484 52.8961 171.484 53.3861 171.484 53.8761V55.3228C171.484 55.805 171.445 56.2405 171.367 56.6294H170.62L169.148 52.6161H164.454V69.2761L165.809 69.5561C166.225 69.6511 166.631 69.7839 167.023 69.9528L167.047 70.7694Z" fill="white"/>
<path d="M182.787 68.8097C182.616 69.1501 182.378 69.4519 182.086 69.6964C181.753 69.9843 181.384 70.2275 180.988 70.4197C180.556 70.6324 180.102 70.7967 179.634 70.9097C179.145 71.0335 178.643 71.0962 178.139 71.0964C177.118 71.1267 176.102 70.9522 175.15 70.5831C174.341 70.2584 173.621 69.7466 173.048 69.0897C172.464 68.4087 172.026 67.6143 171.764 66.7564C171.457 65.7749 171.307 64.7512 171.32 63.7231C171.235 61.7704 171.866 59.8539 173.095 58.3331C173.688 57.6977 174.414 57.2009 175.221 56.8783C176.029 56.5556 176.898 56.415 177.766 56.4664C178.42 56.4631 179.073 56.5495 179.704 56.7231C180.328 56.8974 180.908 57.1993 181.409 57.6097C181.934 58.0539 182.349 58.6128 182.623 59.2431C182.957 60.0483 183.116 60.9152 183.09 61.7864C183.09 62.1131 183.09 62.4164 183.09 62.7431C183.055 63.0958 183 63.4463 182.927 63.7931H174.122C174.12 64.5348 174.222 65.2731 174.426 65.9864C174.605 66.6289 174.907 67.2309 175.313 67.7597C175.712 68.2676 176.224 68.6752 176.808 68.9497C177.465 69.2587 178.184 69.4105 178.91 69.3931C179.581 69.3901 180.249 69.2959 180.895 69.1131C181.449 68.988 181.967 68.7409 182.413 68.3897L182.787 68.8097ZM177.649 57.6564C177.203 57.6454 176.761 57.7364 176.357 57.9224C175.952 58.1085 175.595 58.3846 175.313 58.7297C174.622 59.8756 174.273 61.1955 174.309 62.5331H180.475C180.475 62.3697 180.475 62.2064 180.475 62.0431C180.475 61.8797 180.475 61.7397 180.475 61.5764C180.528 60.585 180.301 59.5986 179.821 58.7297C179.592 58.3695 179.268 58.0789 178.885 57.8896C178.502 57.7004 178.074 57.6197 177.649 57.6564Z" fill="white"/>
<path d="M196.636 68.8094C196.261 69.5006 195.693 70.068 195.001 70.4428C194.195 70.8912 193.284 71.1168 192.362 71.0961C191.38 71.1196 190.403 70.945 189.49 70.5828C188.703 70.2548 188.006 69.7426 187.458 69.0894C186.896 68.4042 186.482 67.6096 186.244 66.7561C185.965 65.7774 185.832 64.7634 185.847 63.7461C185.711 61.7915 186.32 59.8579 187.551 58.3328C188.151 57.7045 188.878 57.2109 189.683 56.8851C190.488 56.5592 191.354 56.4084 192.222 56.4428C193.006 56.4404 193.789 56.5186 194.557 56.6761C195.197 56.8055 195.817 57.0173 196.402 57.3061C196.336 58.003 196.235 58.6961 196.099 59.3828C195.984 60.0395 195.796 60.6812 195.538 61.2961H194.791L193.833 57.9361C193.699 57.841 193.549 57.7699 193.39 57.7261C193.111 57.6924 192.828 57.6924 192.549 57.7261C191.983 57.697 191.419 57.8074 190.906 58.0474C190.393 58.2875 189.946 58.6499 189.607 59.1028C188.799 60.5186 188.441 62.1458 188.579 63.7694C188.58 64.4726 188.682 65.172 188.883 65.8461C189.067 66.4938 189.368 67.1026 189.77 67.6428C190.189 68.2029 190.736 68.6543 191.366 68.9588C191.996 69.2634 192.69 69.4122 193.39 69.3928C194.398 69.3743 195.373 69.0305 196.169 68.4128L196.636 68.8094Z" fill="white"/>
<path d="M213.987 70.7698H207.845V69.9998C208.382 69.7203 208.946 69.4937 209.527 69.3231V62.8364C209.583 61.6621 209.376 60.49 208.919 59.4064C208.701 58.9887 208.361 58.647 207.944 58.4263C207.527 58.2055 207.053 58.1161 206.584 58.1698C206.219 58.1617 205.856 58.217 205.51 58.3331C204.735 58.6859 204.084 59.263 203.642 59.9898C203.418 60.3451 203.245 60.7299 203.128 61.1331V69.2998L203.992 69.5564C204.275 69.6579 204.543 69.7993 204.786 69.9764V70.6764H198.667V69.9998C199.251 69.6972 199.871 69.4698 200.512 69.3231V51.5898L198.504 51.3331V50.6098C199.118 50.3649 199.75 50.1698 200.396 50.0264L202.451 49.6064H203.151V59.4998C203.526 58.598 204.111 57.7982 204.856 57.1664C205.608 56.5405 206.563 56.2088 207.542 56.2331C208.22 56.2211 208.897 56.3075 209.55 56.4898C210.12 56.6542 210.63 56.9781 211.021 57.4231C211.448 57.9478 211.752 58.5619 211.909 59.2198C212.133 60.1594 212.235 61.124 212.212 62.0898V69.0898L213.17 69.3464C213.485 69.441 213.784 69.5826 214.057 69.7664L213.987 70.7698Z" fill="white"/>
<path d="M234.33 68.8097C234.16 69.1501 233.921 69.4519 233.629 69.6964C233.297 69.9843 232.928 70.2275 232.532 70.4197C232.1 70.6324 231.645 70.7967 231.177 70.9097C230.689 71.0335 230.187 71.0962 229.683 71.0964C228.685 71.1174 227.694 70.943 226.763 70.5831C225.954 70.2584 225.234 69.7466 224.662 69.0897C224.077 68.4087 223.64 67.6143 223.377 66.7564C223.071 65.7749 222.921 64.7512 222.933 63.7231C222.829 61.7793 223.435 59.8638 224.638 58.3331C225.231 57.6977 225.957 57.2009 226.765 56.8783C227.572 56.5556 228.441 56.415 229.309 56.4664C229.964 56.4631 230.616 56.5495 231.247 56.7231C231.871 56.8974 232.451 57.1993 232.952 57.6097C233.477 58.0539 233.892 58.6128 234.166 59.2431C234.5 60.0483 234.66 60.9152 234.633 61.7864C234.633 62.1131 234.633 62.4164 234.633 62.7431C234.598 63.0958 234.544 63.4463 234.47 63.7931H225.666C225.664 64.5348 225.766 65.2731 225.969 65.9864C226.149 66.6289 226.45 67.2309 226.857 67.7597C227.255 68.2676 227.767 68.6752 228.351 68.9497C229.008 69.2587 229.728 69.4105 230.453 69.3931C231.125 69.3901 231.792 69.2959 232.438 69.1131C232.992 68.9881 233.511 68.7409 233.956 68.3897L234.33 68.8097ZM229.192 57.6564C228.747 57.6454 228.305 57.7364 227.9 57.9224C227.495 58.1085 227.138 58.3846 226.857 58.7297C226.165 59.8756 225.817 61.1955 225.853 62.5331H232.018C232.018 62.3697 232.018 62.2064 232.018 62.0431C232.018 61.8797 232.018 61.7397 232.018 61.5764C232.022 60.5692 231.738 59.5817 231.201 58.7297C230.985 58.3944 230.688 58.1197 230.336 57.9319C229.985 57.744 229.591 57.6491 229.192 57.6564Z" fill="white"/>
<path d="M244.045 63.2564L248.482 69.393L249.253 69.6964C249.471 69.7787 249.682 69.8802 249.883 69.9997V70.6997H244.138V69.9997L244.862 69.603C245.078 69.4822 245.305 69.3807 245.539 69.2997L242.433 64.633L239.304 69.2997L240.028 69.603L240.705 69.9764V70.6764H235.871V69.9997C236.355 69.6964 236.883 69.4682 237.436 69.323L241.616 63.7464L237.412 58.0997L236.688 57.7964L236.035 57.423V56.6997H241.663V57.3997L241.009 57.7964C240.781 57.9262 240.538 58.028 240.285 58.0997L243.204 62.2997L246.053 58.0997C245.55 57.9584 245.075 57.7293 244.652 57.423V56.6997H249.323V57.423C248.837 57.7245 248.31 57.9525 247.758 58.0997L244.045 63.2564Z" fill="white"/>
<path d="M257.61 76.3702H251.398V75.6702C251.99 75.3851 252.608 75.1584 253.243 74.9935V58.3335L251.398 58.1002V57.3769C251.995 57.1159 252.612 56.9051 253.243 56.7469C253.866 56.5913 254.481 56.4669 255.088 56.3735H255.789V59.5002C256.104 58.6023 256.642 57.7992 257.354 57.1669C258.098 56.5673 259.037 56.2603 259.992 56.3035C260.723 56.2566 261.455 56.3822 262.128 56.6699C262.802 56.9577 263.398 57.3997 263.869 57.9602C264.923 59.5419 265.408 61.4338 265.247 63.3269C265.259 64.4103 265.102 65.4889 264.78 66.5235C264.502 67.38 264.058 68.1731 263.472 68.8569C262.902 69.5124 262.192 70.0308 261.394 70.3735C260.538 70.739 259.615 70.9218 258.685 70.9102C258.137 70.9261 257.59 70.8871 257.05 70.7935C256.608 70.6895 256.178 70.5409 255.765 70.3502V74.8069C256.068 74.8459 256.365 74.9163 256.653 75.0169C256.988 75.1369 257.309 75.2934 257.61 75.4835V76.3702ZM259.105 58.1702C258.699 58.1491 258.292 58.2153 257.914 58.3642C257.535 58.5131 257.193 58.7413 256.91 59.0335C256.329 59.6968 255.934 60.5018 255.765 61.3669V69.2069C256.12 69.4215 256.506 69.579 256.91 69.6735C257.447 69.7908 257.995 69.8456 258.545 69.8369C259.131 69.8459 259.707 69.6837 260.203 69.3702C260.723 69.024 261.155 68.5604 261.464 68.0169C261.829 67.384 262.097 66.6996 262.258 65.9869C262.452 65.1454 262.546 64.2838 262.538 63.4202C262.542 62.7082 262.48 61.9973 262.351 61.2969C262.251 60.7084 262.054 60.1407 261.767 59.6169C261.512 59.1634 261.141 58.7852 260.693 58.5202C260.197 58.2606 259.641 58.1397 259.082 58.1702H259.105Z" fill="white"/>
<path d="M279.165 68.8104C278.995 69.1508 278.757 69.4526 278.465 69.6971C278.132 69.985 277.763 70.2282 277.367 70.4204C276.935 70.6331 276.481 70.7974 276.013 70.9104C275.524 71.0341 275.022 71.0968 274.518 71.0971C273.521 71.1181 272.529 70.9437 271.599 70.5837C270.79 70.2591 270.07 69.7473 269.497 69.0904C268.913 68.4094 268.475 67.615 268.213 66.7571C267.906 65.7756 267.756 64.7519 267.769 63.7237C267.634 61.7623 268.224 59.8194 269.427 58.2637C270.02 57.6284 270.746 57.1316 271.554 56.8089C272.361 56.4863 273.23 56.3456 274.098 56.3971C274.753 56.3938 275.405 56.4801 276.036 56.6537C276.66 56.828 277.24 57.13 277.741 57.5404C278.266 57.9846 278.681 58.5434 278.955 59.1737C279.289 59.979 279.448 60.8458 279.422 61.7171C279.422 62.0437 279.422 62.3471 279.422 62.6737C279.387 63.0264 279.332 63.377 279.259 63.7237H270.525C270.522 64.4655 270.625 65.2038 270.828 65.9171C271.008 66.5596 271.309 67.1616 271.716 67.6904C272.114 68.1983 272.626 68.6058 273.21 68.8804C273.867 69.1893 274.587 69.3411 275.312 69.3237C275.983 69.3208 276.651 69.2266 277.297 69.0437C277.851 68.9187 278.369 68.6716 278.815 68.3204L279.165 68.8104ZM274.028 57.6571C273.582 57.646 273.14 57.737 272.735 57.9231C272.331 58.1091 271.974 58.3853 271.692 58.7304C271.001 59.8762 270.652 61.1961 270.688 62.5337H276.853C276.853 62.3704 276.853 62.2071 276.853 62.0437C276.853 61.8804 276.853 61.7404 276.853 61.5771C276.9 60.5835 276.665 59.5969 276.176 58.7304C275.949 58.3738 275.629 58.0856 275.251 57.8966C274.872 57.7075 274.45 57.6247 274.028 57.6571Z" fill="white"/>
<path d="M287.877 58.8701C287.586 59.0537 287.326 59.2821 287.106 59.5468C286.742 59.9973 286.465 60.5116 286.289 61.0634V69.3701C286.668 69.4087 287.043 69.4789 287.41 69.5801C287.8 69.6916 288.177 69.8482 288.531 70.0468V70.7468H281.922V70.0001C282.226 69.8281 282.547 69.6873 282.879 69.5801L283.767 69.3234V58.3334L281.922 58.1001V57.3768C282.518 57.1157 283.135 56.905 283.767 56.7468C284.405 56.5912 285.012 56.4668 285.588 56.3734H286.289V59.3368C286.479 58.9326 286.722 58.5559 287.013 58.2168C287.329 57.8397 287.689 57.5028 288.087 57.2134C288.485 56.9202 288.926 56.6918 289.395 56.5368C289.867 56.3753 290.37 56.3196 290.866 56.3734C291.003 56.6287 291.12 56.8939 291.216 57.1668C291.325 57.4623 291.427 57.7656 291.52 58.0768V58.8001L287.877 58.8701Z" fill="white"/>
<path d="M292.5 57.4705C293.215 57.0092 294.005 56.6775 294.835 56.4905V54.1571C295.099 53.9424 295.39 53.762 295.699 53.6205L296.657 53.1538H297.357V56.8171H301.561V58.3338H297.357V66.4071C297.293 67.2215 297.481 68.036 297.894 68.7405C298.084 68.9753 298.327 69.1614 298.603 69.2832C298.88 69.405 299.181 69.4589 299.482 69.4405H300.743C301.181 69.41 301.612 69.3238 302.028 69.1838L302.215 69.6038C302.026 69.8065 301.814 69.9866 301.584 70.1405C301.287 70.3431 300.975 70.5225 300.65 70.6771C300.283 70.8524 299.899 70.9931 299.506 71.0971C299.095 71.2088 298.671 71.2637 298.245 71.2605C297.773 71.2917 297.3 71.2226 296.858 71.0577C296.415 70.8928 296.012 70.6358 295.676 70.3038C295.01 69.4308 294.693 68.3409 294.788 67.2471V58.3338H292.453L292.5 57.4705Z" fill="white"/>
<path d="M311.018 67.6674C311.031 67.1777 310.855 66.7016 310.528 66.3374C310.164 65.9397 309.748 65.5942 309.29 65.3107C308.792 64.9996 308.254 64.6885 307.678 64.3774C307.109 64.0795 306.569 63.7279 306.067 63.3274C305.58 62.9415 305.161 62.4761 304.829 61.9507C304.485 61.3649 304.315 60.6931 304.339 60.014C304.334 59.5252 304.455 59.0433 304.689 58.6141C304.923 58.1889 305.241 57.8157 305.623 57.5174C306.039 57.201 306.505 56.9565 307.001 56.794C307.544 56.617 308.112 56.5303 308.683 56.5374C309.511 56.5231 310.339 56.5777 311.158 56.7007C311.792 56.8065 312.417 56.9626 313.026 57.1674C313.026 57.7585 312.941 58.3574 312.769 58.964C312.659 59.5945 312.511 60.2179 312.326 60.8307H311.625L310.598 57.8907C310.359 57.7923 310.107 57.7294 309.85 57.704H308.986C308.68 57.6979 308.376 57.7617 308.099 57.8907C307.854 58.0047 307.632 58.163 307.445 58.3574C307.27 58.5466 307.135 58.7688 307.048 59.0107C306.957 59.2411 306.909 59.4864 306.908 59.734C306.898 60.2162 307.074 60.6836 307.398 61.0407C307.76 61.4331 308.177 61.771 308.636 62.044C309.134 62.3552 309.671 62.6585 310.247 62.954C310.809 63.2466 311.348 63.5821 311.859 63.9574C312.345 64.3171 312.764 64.7594 313.096 65.264C313.432 65.7938 313.602 66.4108 313.587 67.0374C313.599 67.6294 313.462 68.2149 313.19 68.7407C312.916 69.2463 312.533 69.6847 312.069 70.024C311.567 70.3884 311.006 70.6645 310.411 70.8407C309.761 71.0439 309.083 71.1462 308.402 71.144C307.658 71.1502 306.914 71.0799 306.184 70.934C305.47 70.7811 304.768 70.5783 304.082 70.3274C304.119 69.6763 304.205 69.0289 304.339 68.3907C304.469 67.7809 304.641 67.1807 304.853 66.594H305.553L306.791 69.6507C307.01 69.8073 307.269 69.8966 307.538 69.9074H308.262C308.986 69.9399 309.695 69.6982 310.247 69.2307C310.48 69.0404 310.67 68.8024 310.803 68.5327C310.936 68.263 311.009 67.9679 311.018 67.6674Z" fill="white"/>
<path d="M28.704 19.0171C32.7539 19.0171 36.037 15.7368 36.037 11.6904C36.037 7.64403 32.7539 4.36377 28.704 4.36377C24.6542 4.36377 21.3711 7.64403 21.3711 11.6904C21.3711 15.7368 24.6542 19.0171 28.704 19.0171Z" fill="white"/>
<path d="M7.94053 40.3664H8.08065C9.57958 40.3098 11.0306 39.8239 12.2609 38.9664L12.7046 38.6631C14.4283 37.3424 16.5136 36.5774 18.683 36.4698C20.7818 36.4621 22.8219 37.1607 24.4747 38.4531L25.0118 38.8964C26.1819 39.747 27.5664 40.2544 29.0094 40.3617C30.4525 40.469 31.8968 40.1719 33.1801 39.5039C34.4634 38.8358 35.5347 37.8232 36.2734 36.58C37.0122 35.3369 37.3891 33.9124 37.3619 32.4669C37.3346 31.0213 36.9043 29.6121 36.1192 28.3976C35.3341 27.1831 34.2254 26.2115 32.9179 25.5922C31.6104 24.9728 30.1558 24.7303 28.7178 24.8918C27.2799 25.0533 25.9155 25.6125 24.7783 26.5064H24.6381C22.9701 27.9096 20.8634 28.6855 18.683 28.6998C17.7255 28.8058 16.7564 28.7135 15.8363 28.4284C14.9161 28.1434 14.0647 27.6718 13.3351 27.0431C12.7059 26.3142 12.2339 25.4635 11.9486 24.5441C11.6633 23.6247 11.5709 22.6565 11.6771 21.6998C11.6651 19.5328 12.4082 17.4292 13.7789 15.7498V15.6098C14.8538 14.2378 15.4376 12.5455 15.4369 10.8031C15.4026 9.30229 14.9338 7.84357 14.0873 6.6033C13.2408 5.36303 12.0528 4.39433 10.667 3.81432C9.28115 3.2343 7.75684 3.06781 6.27834 3.33498C4.79983 3.60215 3.43045 4.29153 2.33574 5.31977C1.02529 6.62358 0.219488 8.34907 0.0613083 10.1901C-0.0968712 12.0311 0.402804 13.8685 1.47167 15.3764L1.89203 15.8898C3.19887 17.5443 3.90674 19.5921 3.90041 21.6998C3.79272 23.8674 3.02703 25.9509 1.70521 27.6731L1.44832 27.9998C0.3652 29.5126 -0.140684 31.3625 0.0220648 33.2154C0.184814 35.0683 1.00546 36.8019 2.33574 38.1031L2.68604 38.4531L3.15311 38.8031C3.97962 39.425 4.92569 39.8699 5.93215 40.1098H6.23574H6.81958H7.0064C7.27853 40.1287 7.55164 40.1287 7.82377 40.1098L7.94053 40.3664Z" fill="#326884"/>
</g>
<defs>
<clipPath id="clip0">
<rect width="390" height="77" fill="white"/>
</clipPath>
</defs>
</svg>
