<svg width="353" height="77" viewBox="0 0 353 77" fill="none" xmlns="http://www.w3.org/2000/svg">
<path d="M66.6211 43.195V17.6536H82.9192V22.1609H71.8034V29.6731H80.8913V34.1804H71.8034V43.195H66.6211ZM86.8717 43.195V24.4145H91.9038V43.195H86.8717ZM86.8717 22.0106V16.9023H91.9038V22.0106H86.8717ZM102.336 43.195H97.3043V24.4145H102.299V25.4662C104.001 24.4647 105.566 23.9638 106.993 23.9638C109.497 23.9638 111.224 24.7024 112.175 26.1799C113.127 27.6574 113.602 29.936 113.602 33.016V43.195H108.57V33.1662C108.57 31.5637 108.382 30.3867 108.007 29.6355C107.631 28.8593 106.88 28.4711 105.754 28.4711C104.727 28.4711 103.738 28.6463 102.787 28.997L102.336 29.1472V43.195ZM114.295 22.236V17.6536H133.072V22.236H126.312V43.195H121.13V22.236H114.295ZM138.18 35.9458C138.205 37.0976 138.506 37.9365 139.081 38.4623C139.682 38.9632 140.533 39.2136 141.635 39.2136C143.963 39.2136 146.041 39.1384 147.869 38.9882L148.92 38.8755L148.996 42.5941C146.116 43.2951 143.513 43.6458 141.184 43.6458C138.355 43.6458 136.303 42.8945 135.026 41.3921C133.749 39.8897 133.111 37.4482 133.111 34.0677C133.111 27.3317 135.877 23.9638 141.41 23.9638C146.867 23.9638 149.596 26.7935 149.596 32.4526L149.221 35.9458H138.18ZM144.639 32.1145C144.639 30.6121 144.401 29.573 143.926 28.997C143.45 28.396 142.611 28.0955 141.41 28.0955C140.233 28.0955 139.394 28.4086 138.894 29.0345C138.418 29.6355 138.168 30.6622 138.143 32.1145H144.639ZM160.966 23.9638C162.268 23.9638 163.933 24.1642 165.961 24.5648L166.975 24.7901L166.824 28.7716C164.847 28.5712 163.382 28.4711 162.431 28.4711C160.703 28.4711 159.552 28.8467 158.976 29.598C158.425 30.3242 158.15 31.714 158.15 33.7672C158.15 35.8205 158.425 37.2354 158.976 38.0116C159.552 38.7628 160.716 39.1384 162.468 39.1384L166.824 38.838L166.975 42.857C164.296 43.3828 162.256 43.6458 160.854 43.6458C158.075 43.6458 156.072 42.8696 154.845 41.317C153.643 39.7394 153.042 37.2228 153.042 33.7672C153.042 30.3116 153.668 27.82 154.92 26.2926C156.172 24.74 158.187 23.9638 160.966 23.9638ZM176.487 43.195H171.454V16.9023H176.487V25.316C178.214 24.4145 179.766 23.9638 181.143 23.9638C183.647 23.9638 185.374 24.7024 186.325 26.1799C187.277 27.6574 187.752 29.936 187.752 33.016V43.195H182.72V33.1287C182.72 31.5511 182.533 30.3867 182.157 29.6355C181.782 28.8593 181.03 28.4711 179.904 28.4711C178.927 28.4711 177.951 28.6214 176.975 28.9219L176.487 29.0721V43.195ZM218.601 42.7819C215.948 43.3579 213.555 43.6458 211.428 43.6458C209.301 43.6458 207.598 43.3828 206.321 42.857C205.044 42.3311 204.043 41.4922 203.317 40.3404C202.59 39.1886 202.09 37.8364 201.814 36.2838C201.538 34.7312 201.401 32.7781 201.401 30.4243C201.401 25.4912 202.09 22.0608 203.467 20.1326C204.869 18.1794 207.434 17.2028 211.165 17.2028C213.319 17.2028 215.809 17.5409 218.638 18.217L218.488 22.3487C216.01 21.9731 213.944 21.7853 212.292 21.7853C210.664 21.7853 209.5 22.0106 208.799 22.4614C208.099 22.8871 207.573 23.7135 207.222 24.9404C206.897 26.1673 206.734 28.2583 206.734 31.2131C206.734 34.1678 207.072 36.2213 207.748 37.3731C208.448 38.4999 209.826 39.0633 211.879 39.0633C213.957 39.0633 216.16 38.8881 218.488 38.5375L218.601 42.7819ZM221.265 22.236V17.6536H240.042V22.236H233.282V43.195H228.1V22.236H221.265ZM249.15 37.1853C249.901 38.4873 251.291 39.1384 253.319 39.1384C255.347 39.1384 256.723 38.4873 257.45 37.1853C258.201 35.8581 258.576 33.6545 258.576 30.5745C258.576 27.4696 258.201 25.2159 257.45 23.8136C256.698 22.4112 255.32 21.7101 253.319 21.7101C251.315 21.7101 249.939 22.4112 249.188 23.8136C248.437 25.2159 248.061 27.4696 248.061 30.5745C248.061 33.6545 248.424 35.8581 249.15 37.1853ZM261.505 40.4906C259.928 42.5941 257.198 43.6458 253.319 43.6458C249.438 43.6458 246.696 42.5941 245.095 40.4906C243.517 38.3622 242.729 35.0443 242.729 30.537C242.729 26.0297 243.517 22.6867 245.095 20.5082C246.696 18.3046 249.438 17.2028 253.319 17.2028C257.198 17.2028 259.928 18.3046 261.505 20.5082C263.107 22.6867 263.909 26.0297 263.909 30.537C263.909 35.0443 263.107 38.3622 261.505 40.4906ZM294.291 42.7819C291.638 43.3579 289.246 43.6458 287.118 43.6458C284.991 43.6458 283.288 43.3828 282.011 42.857C280.734 42.3311 279.734 41.4922 279.007 40.3404C278.28 39.1886 277.781 37.8364 277.505 36.2838C277.229 34.7312 277.092 32.7781 277.092 30.4243C277.092 25.4912 277.781 22.0608 279.157 20.1326C280.56 18.1794 283.125 17.2028 286.856 17.2028C289.009 17.2028 291.499 17.5409 294.329 18.217L294.178 22.3487C291.7 21.9731 289.634 21.7853 287.982 21.7853C286.354 21.7853 285.19 22.0106 284.49 22.4614C283.789 22.8871 283.264 23.7135 282.912 24.9404C282.588 26.1673 282.424 28.2583 282.424 31.2131C282.424 34.1678 282.762 36.2213 283.438 37.3731C284.139 38.4999 285.517 39.0633 287.569 39.0633C289.648 39.0633 291.85 38.8881 294.178 38.5375L294.291 42.7819ZM299.021 43.195V16.9023H304.053V43.195H299.021ZM320.747 24.4145H325.779V43.195H320.785V42.1433C318.982 43.1449 317.418 43.6458 316.091 43.6458C313.486 43.6458 311.735 42.9321 310.833 41.5048C309.932 40.0525 309.481 37.636 309.481 34.2555V24.4145H314.513V34.3306C314.513 36.1837 314.664 37.4482 314.964 38.1243C315.265 38.8004 315.991 39.1384 317.142 39.1384C318.244 39.1384 319.283 38.9632 320.259 38.6126L320.747 38.4623V24.4145ZM340.266 23.9638C342.894 23.9638 344.81 24.69 346.011 26.1423C347.237 27.5697 347.851 30.1364 347.851 33.8423C347.851 37.5483 347.149 40.115 345.748 41.5423C344.346 42.9447 341.929 43.6458 338.501 43.6458C337.423 43.6458 335.459 43.5205 332.605 43.2702L331.178 43.1199V16.9023H336.21V24.978C337.811 24.3019 339.163 23.9638 340.266 23.9638ZM338.501 39.1384C340.177 39.1384 341.304 38.7379 341.88 37.9365C342.455 37.1102 342.744 35.6453 342.744 33.5419C342.744 30.1614 341.693 28.4711 339.59 28.4711C338.587 28.4711 337.637 28.5964 336.736 28.8467L336.21 28.9594V38.9882C337.361 39.0883 338.125 39.1384 338.501 39.1384Z" fill="white"/>
<path d="M70.4405 59.8722C71.9576 59.8722 73.0166 60.3079 73.6175 61.1793C74.2334 62.0357 74.5413 63.5456 74.5413 65.7092C74.5413 67.8727 74.1583 69.3976 73.3922 70.2841C72.6411 71.1555 71.2516 71.5912 69.2238 71.5912C68.5929 71.5912 67.5489 71.5311 66.0918 71.4109L65.4609 71.3433V55.1846H67.1283V60.661C68.2699 60.1351 69.374 59.8722 70.4405 59.8722ZM69.2012 70.0813C70.6733 70.0813 71.6422 69.7507 72.1079 69.0896C72.5885 68.4135 72.8289 67.2792 72.8289 65.6866C72.8289 64.094 72.6411 62.9822 72.2656 62.3512C71.89 61.7052 71.2216 61.3821 70.2602 61.3821C69.389 61.3821 68.4952 61.5474 67.5789 61.8779L67.1283 62.0357V69.9686C68.1047 70.0437 68.7957 70.0813 69.2012 70.0813ZM76.5145 60.0975H78.2044L81.0209 69.901H81.7645L84.6035 60.0975H86.2934L81.6067 76.369H79.9169L81.3814 71.3658H79.7141L76.5145 60.0975ZM94.6105 71.3658V55.7705H96.3454V71.3658H94.6105ZM100.606 71.3658V55.7705H103.851L109.822 69.8333H110.295V55.7705H112.007V71.3658H108.83L102.769 57.303H102.341V71.3658H100.606ZM120.587 57.0551C118.334 57.0551 117.207 57.904 117.207 59.6017C117.207 60.5483 117.463 61.2018 117.973 61.5624C118.499 61.908 119.55 62.2611 121.128 62.6216C122.72 62.9672 123.847 63.4254 124.508 63.9964C125.168 64.5523 125.499 65.4763 125.499 66.7684C125.499 69.9686 123.839 71.5687 120.519 71.5687C119.423 71.5687 118.048 71.441 116.396 71.1855L115.585 71.0729L115.765 69.6305C117.808 69.901 119.363 70.0362 120.429 70.0362C122.652 70.0362 123.764 68.992 123.764 66.9036C123.764 66.0622 123.516 65.4613 123.02 65.1007C122.54 64.7251 121.631 64.4095 120.294 64.1541C118.537 63.7785 117.29 63.2977 116.554 62.7118C115.818 62.1108 115.45 61.1117 115.45 59.7144C115.45 56.9199 117.125 55.5226 120.474 55.5226C121.571 55.5226 122.885 55.6353 124.417 55.8607L125.183 55.9734L125.026 57.4382C122.938 57.1828 121.458 57.0551 120.587 57.0551ZM127.352 71.3658L131.633 55.7705H135.418L139.699 71.3658H137.987L136.86 67.3543H130.191L129.064 71.3658H127.352ZM132.94 57.2579L130.574 65.7993H136.477L134.111 57.2579H132.94ZM144.334 65.3936V71.3658H142.599V55.7705H148.367C150.02 55.7705 151.259 56.1536 152.085 56.9199C152.926 57.6861 153.347 58.8806 153.347 60.5032C153.347 62.9071 152.393 64.4171 150.485 65.0331L153.482 71.3658H151.567L148.75 65.3936H144.334ZM148.39 63.8612C150.508 63.8612 151.567 62.7719 151.567 60.5933C151.567 58.3998 150.5 57.303 148.367 57.303H144.334V63.8612H148.39ZM155.092 57.3255V55.7705H166.358V57.3255H161.603V71.3658H159.891V57.3255H155.092Z" fill="#808285"/>
<path d="M34.61 62.2446C39.4989 62.2446 43.4621 58.2791 43.4621 53.3875C43.4621 48.4958 39.4989 44.5303 34.61 44.5303C29.721 44.5303 25.7578 48.4958 25.7578 53.3875C25.7578 58.2791 29.721 62.2446 34.61 62.2446Z" fill="white"/>
<path d="M0.0219645 28.3537C0.0343642 28.4059 0.0343642 28.4604 0.0219645 28.5128C0.0902991 30.3208 0.679334 32.0704 1.71819 33.5512C1.71819 33.7105 1.93022 33.896 2.06274 34.1083C3.65725 36.1878 4.58164 38.7035 4.71308 41.3213C4.73009 43.8491 3.88912 46.3081 2.32777 48.2956L1.7977 48.9321C0.769529 50.3449 0.155936 52.0168 0.0260001 53.7596C-0.103936 55.5024 0.254945 57.247 1.06224 58.7969C1.86953 60.3467 3.09318 61.6403 4.59542 62.5318C6.09766 63.4235 7.81884 63.878 9.56519 63.8438C11.3115 63.8098 13.0137 63.2886 14.4801 62.3389C15.9464 61.3894 17.1187 60.049 17.865 58.469C18.6113 56.8888 18.9018 55.1317 18.7041 53.3953C18.5064 51.6588 17.8281 50.012 16.7457 48.6404V48.4813C15.0585 46.4747 14.1215 43.9434 14.0953 41.3213C13.9575 40.1678 14.0632 38.9981 14.4056 37.8882C14.748 36.7781 15.3195 35.7523 16.0831 34.8773C16.9595 34.1064 17.9882 33.5287 19.1024 33.1814C20.2164 32.8342 21.3911 32.7253 22.5499 32.8618C25.1713 32.8836 27.7028 33.8217 29.7059 35.5136L29.8914 35.6462C31.7308 37.0621 34.0283 37.7477 36.3423 37.5716C38.6561 37.3954 40.8235 36.3696 42.4276 34.6916C43.7007 33.3738 44.5604 31.7119 44.9007 29.9108C45.2409 28.1098 45.0467 26.2486 44.3421 24.5567C43.6376 22.8648 42.4535 21.4162 40.9358 20.3899C39.4181 19.3633 37.6334 18.8039 35.8017 18.7804C33.8302 18.7708 31.9074 19.3936 30.3154 20.5572C30.0886 20.7054 29.8756 20.874 29.6794 21.0611C27.6919 22.6462 25.2241 23.5067 22.6825 23.5009C20.0637 23.381 17.546 22.455 15.4735 20.8489L14.8109 20.5307C13.2547 19.4478 11.4057 18.8651 9.51021 18.86C8.25678 18.8125 7.00645 19.0155 5.83237 19.4572C4.65827 19.8988 3.58398 20.5704 2.6723 21.4324L2.24825 21.8831L1.87721 22.5725C0.0219595 25.4101 0.59752 24.7037 0.313503 25.914C0.313503 26.073 0.125489 26.4178 0.125489 26.736V26.9747C0.125489 27.3161 -0.00327475 27.7353 0.0219596 28.0619L0.0219645 28.3537Z" fill="#FF671D"/>
</svg>
