<svg width="198" height="40" viewBox="0 0 198 40" fill="none" xmlns="http://www.w3.org/2000/svg">
<g clip-path="url(#clip0)">
<path d="M7.5575 4.64589V17.0048H21.1676V21.3572H7.5575V39.2216H0V0.228516H22.7883V4.64589H7.5575Z" fill="#414042"/>
<path d="M25.8965 39.2042V8.67236H33.1563V39.2042H25.8965Z" fill="#414042"/>
<path d="M58.1775 39.2047V17.3939C58.1775 13.4799 54.4897 12.0021 50.3389 12.0021C48.3509 12.0168 46.3789 12.3515 44.5012 12.9927V39.2047H37.291V10.0857C41.6027 8.56828 46.1559 7.82027 50.7358 7.87703C59.5666 7.87703 65.4539 10.5892 65.4539 17.2802V39.2047H58.1775Z" fill="#414042"/>
<path d="M75.5568 26.293C76.2514 32.3507 79.9557 35.4039 86.1737 35.4039C89.4368 35.4557 92.6768 34.8591 95.6991 33.6499L97.4356 37.7912C93.6729 39.3355 89.6224 40.0879 85.5453 39.9999C75.2261 39.9999 68.5781 34.332 68.5781 23.857C68.5781 13.7717 74.763 7.87646 84.1066 7.87646C93.4501 7.87646 98.6924 13.252 98.6924 23.5159L75.5568 26.293ZM83.8254 11.8391C78.8643 11.8391 74.9449 15.412 75.1269 22.9962L91.6641 20.9012C91.7137 14.6162 88.6047 11.8391 83.8089 11.8391H83.8254Z" fill="#57C7FF"/>
<path d="M122.375 39.2041L114.52 27.6085H114.404L106.433 39.2204H98.7598L110.882 23.3048L100.033 8.68848H107.938L115.032 19.0498H115.148L122.474 8.68848H129.569L118.489 22.9638L130.726 39.2041H122.375Z" fill="#57C7FF"/>
<path d="M145.131 39.8863C138.037 39.8863 135.325 35.745 135.325 31.6037V12.635H130.645V8.67235H135.374V1.81892L142.535 0V8.67235H149.15V12.635H142.535V31.2789C142.509 31.8706 142.615 32.4606 142.844 33.0083C143.073 33.556 143.42 34.0483 143.862 34.4513C144.304 34.8543 144.83 35.1584 145.403 35.3425C145.976 35.5266 146.583 35.5863 147.182 35.5177C147.847 35.5056 148.508 35.4129 149.15 35.2416V39.2529C147.862 39.7081 146.499 39.923 145.131 39.8863Z" fill="#57C7FF"/>
<path d="M169.441 12.6837C166.469 11.8832 163.319 11.9908 160.412 12.9922V39.2042H153.234V10.0852C157.804 8.41512 162.668 7.66402 167.539 7.87651C168.763 7.87651 170.251 7.9902 171.012 8.03892L169.441 12.6837Z" fill="#57C7FF"/>
<path d="M184.951 39.9999C175.029 39.9999 170.365 36.427 170.365 30.5967C170.365 22.3791 179.874 20.1704 191.186 19.2285V17.507C191.186 13.317 188.01 12.0665 183.397 12.0665C180.254 12.0983 177.144 12.6927 174.218 13.8204L172.565 10.0852C176.452 8.63224 180.576 7.88389 184.736 7.87646C192.244 7.87646 197.966 10.6536 197.966 18.4652V37.7912C193.825 39.3858 189.397 40.1372 184.951 39.9999ZM191.186 22.3141C182.818 23.1099 177.228 24.5228 177.228 30.4343C177.228 34.5756 180.536 36.3296 185.497 36.3296C187.433 36.3685 189.357 36.0204 191.153 35.3064L191.186 22.3141Z" fill="#57C7FF"/>
<path d="M25.8965 4.61341V0.228516H33.1563V4.61341H25.8965Z" fill="white"/>
</g>
<defs>
<clipPath id="clip0">
<rect width="198" height="40" fill="white"/>
</clipPath>
</defs>
</svg>
