<svg width="120" height="120" viewBox="0 0 120 120" fill="none" xmlns="http://www.w3.org/2000/svg">
<path d="M41.25 76.4062C39.9562 76.4062 38.9062 77.4562 38.9062 78.75C38.9062 80.0438 39.9562 81.0938 41.25 81.0938C42.5438 81.0938 43.5938 80.0438 43.5938 78.75C43.5938 77.4562 42.5438 76.4062 41.25 76.4062Z" fill="#160A8B"/>
<path d="M97.5 9.375C94.9329 9.375 73.9181 9.375 71.4832 9.375C70.3945 4.03266 65.6592 0 60 0C54.3408 0 49.6055 4.03266 48.5168 9.375C46.0819 9.375 25.0671 9.375 22.5 9.375C18.623 9.375 15.4688 12.5292 15.4688 16.4062V112.969C15.4688 116.846 18.623 120 22.5 120H97.5C101.377 120 104.531 116.846 104.531 112.969V16.4062C104.531 12.5292 101.377 9.375 97.5 9.375ZM43.5938 14.0625H50.625C51.9192 14.0625 52.9688 13.013 52.9688 11.7188C52.9688 7.84172 56.123 4.6875 60 4.6875C63.877 4.6875 67.0312 7.84172 67.0312 11.7188C67.0312 13.013 68.0808 14.0625 69.375 14.0625H76.4062V18.75H43.5938V14.0625ZM90.4688 23.4375V105.938H29.5312V23.4375H90.4688ZM99.8438 112.969C99.8438 114.261 98.7923 115.312 97.5 115.312H22.5C21.2077 115.312 20.1562 114.261 20.1562 112.969V16.4062C20.1562 15.1139 21.2077 14.0625 22.5 14.0625H38.9062V18.75H27.1875C25.8933 18.75 24.8438 19.7995 24.8438 21.0938V108.281C24.8438 109.575 25.8933 110.625 27.1875 110.625H92.8125C94.1067 110.625 95.1562 109.575 95.1562 108.281V21.0938C95.1562 19.7995 94.1067 18.75 92.8125 18.75H81.0938V14.0625H97.5C98.7923 14.0625 99.8438 15.1139 99.8438 16.4062V112.969Z" fill="#160A8B"/>
<path d="M78.75 90.4688H41.25C39.9558 90.4688 38.9062 91.5183 38.9062 92.8125C38.9062 94.1067 39.9558 95.1562 41.25 95.1562H78.75C80.0442 95.1562 81.0938 94.1067 81.0938 92.8125C81.0938 91.5183 80.0442 90.4688 78.75 90.4688Z" fill="#160A8B"/>
<path d="M78.75 76.4062H50.625C49.3308 76.4062 48.2812 77.4558 48.2812 78.75C48.2812 80.0442 49.3308 81.0938 50.625 81.0938H78.75C80.0442 81.0938 81.0938 80.0442 81.0938 78.75C81.0938 77.4558 80.0442 76.4062 78.75 76.4062Z" fill="#160A8B"/>
<path d="M60 34.2188C50.9536 34.2188 43.5938 41.5786 43.5938 50.625C43.5938 59.6714 50.9536 67.0312 60 67.0312C69.0464 67.0312 76.4062 59.6714 76.4062 50.625C76.4062 41.5786 69.0464 34.2188 60 34.2188ZM60 62.3438C53.5383 62.3438 48.2812 57.0867 48.2812 50.625C48.2812 44.1633 53.5383 38.9062 60 38.9062C66.4617 38.9062 71.7188 44.1633 71.7188 50.625C71.7188 57.0867 66.4617 62.3438 60 62.3438Z" fill="#160A8B"/>
<path d="M64.6875 48.2812H62.3438V45.9375C62.3438 44.6433 61.2942 43.5938 60 43.5938C58.7058 43.5938 57.6562 44.6433 57.6562 45.9375V48.2812H55.3125C54.0183 48.2812 52.9688 49.3308 52.9688 50.625C52.9688 51.9192 54.0183 52.9688 55.3125 52.9688H57.6562V55.3125C57.6562 56.6067 58.7058 57.6562 60 57.6562C61.2942 57.6562 62.3438 56.6067 62.3438 55.3125V52.9688H64.6875C65.9817 52.9688 67.0312 51.9192 67.0312 50.625C67.0312 49.3308 65.9817 48.2812 64.6875 48.2812Z" fill="#160A8B"/>
</svg>
