<svg width="120" height="120" viewBox="0 0 120 120" fill="none" xmlns="http://www.w3.org/2000/svg">
<g clip-path="url(#clip0)">
<path d="M40.7866 88.3788C40.763 88.3723 40.7391 88.3673 40.7152 88.3615C42.9089 85.912 44.246 82.6802 44.246 79.1412V68.7497C44.246 62.6327 39.2695 57.6562 33.1526 57.6562H18.9164C17.6222 57.6562 16.5727 58.7055 16.5727 60V79.1412C16.5727 82.6802 17.91 85.912 20.1035 88.3615C20.0796 88.3673 20.0557 88.3723 20.032 88.3791C9.90398 89.3121 1.94531 97.8523 1.94531 108.22V117.656C1.94531 118.95 2.99484 120 4.28906 120H56.5301C57.8243 120 58.8738 118.95 58.8738 117.656V108.219C58.8736 97.8518 50.9147 89.3119 40.7866 88.3788ZM30.4095 88.2905C25.3645 88.2905 21.2602 84.1861 21.2602 79.1412V74.9498C22.5359 75.6469 23.9979 76.0437 25.5513 76.0437H39.5588V79.1412C39.559 84.1861 35.4544 88.2905 30.4095 88.2905ZM34.4948 92.978L30.4092 97.0636L26.3236 92.978H34.4948ZM21.2599 62.3438H33.1528C36.6851 62.3438 39.5588 65.2174 39.5588 68.7497V71.3562H25.5513C23.1851 71.3562 21.2599 69.431 21.2599 67.0648V62.3438ZM6.63234 115.312V108.219C6.63234 100.507 12.3916 94.1184 19.8347 93.1184L28.7517 102.035C29.2095 102.493 29.8092 102.722 30.409 102.722C31.0088 102.722 31.6085 102.493 32.0663 102.035L40.9835 93.1181C48.4263 94.1182 54.1859 100.507 54.1859 108.219V115.312H6.63234Z" fill="#160A8B"/>
<path d="M106.49 90.1157C108.293 88.3281 109.411 85.8517 109.411 83.1186V73.5892C109.411 68.1812 106.7 63.3967 102.569 60.5153C102.606 60.3484 102.626 60.1759 102.626 60.0001V54.4281C108.105 53.7411 112.358 49.0534 112.358 43.3909V19.9042C112.358 13.7706 107.368 8.78027 101.234 8.78027H64.7958C58.662 8.78027 53.6719 13.7706 53.6719 19.9042V43.3909C53.6719 49.5245 58.662 54.5148 64.7958 54.5148H91.4824L94.6735 57.7058C94.2783 57.6763 93.8806 57.6564 93.4781 57.6564C84.6926 57.6564 77.5451 64.8039 77.5451 73.5892V83.1184C77.5451 85.8517 78.6635 88.3279 80.4661 90.1154C73.6472 93.2661 68.9018 100.166 68.9018 108.158V117.656C68.9018 118.951 69.9513 120 71.2456 120H115.711C117.005 120 118.054 118.951 118.054 117.656V108.158C118.054 100.166 113.309 93.2664 106.49 90.1157ZM94.1109 50.5138C93.6713 50.0743 93.0752 49.8273 92.4537 49.8273H64.7958C61.2466 49.8273 58.3594 46.94 58.3594 43.3909V19.9042C58.3594 16.355 61.2466 13.4678 64.7958 13.4678H101.234C104.783 13.4678 107.67 16.355 107.67 19.9042V20.0303H92.8017C91.5075 20.0303 90.458 21.0796 90.458 22.374C90.458 23.6685 91.5075 24.7178 92.8017 24.7178H107.67V43.3909C107.67 46.94 104.783 49.8273 101.234 49.8273H100.282C98.9881 49.8273 97.9385 50.8766 97.9385 52.1711V54.3416L94.1109 50.5138ZM82.2328 73.5892C82.2328 67.3886 87.2775 62.3439 93.4784 62.3439C99.679 62.3439 104.724 67.3886 104.724 73.5892V83.1184C104.724 85.9703 102.404 88.2903 99.5517 88.2903H98.1874H88.7693H87.4048V88.2906C84.5529 88.2906 82.2328 85.9705 82.2328 83.1186V73.5892ZM113.367 115.313H113.367H73.5895V108.158C73.5895 99.7878 80.3993 92.9781 88.7695 92.9781H98.1877C106.558 92.9781 113.367 99.7878 113.367 108.158V115.313Z" fill="#160A8B"/>
<path d="M49.9116 0H22.6513C16.5177 0 11.5273 4.99031 11.5273 11.1239V34.6106C11.5273 40.2731 15.7796 44.9609 21.2586 45.6478V51.2198C21.2586 52.1677 21.8298 53.0224 22.7054 53.3852C22.9953 53.5055 23.3 53.5638 23.6019 53.5638C24.212 53.5638 24.8113 53.3255 25.2596 52.8771L32.4022 45.7345H44.582C45.8762 45.7345 46.9257 44.6852 46.9257 43.3908C46.9257 42.0963 45.8762 41.047 44.582 41.047H31.4314C30.8098 41.047 30.2138 41.2941 29.7741 41.7335L25.9463 45.5613V43.3908C25.9463 42.0963 24.8968 41.047 23.6026 41.047H22.6513C19.1021 41.047 16.2148 38.1598 16.2148 34.6106V11.1239C16.2148 7.57477 19.1023 4.6875 22.6513 4.6875H49.9114C51.2056 4.6875 52.2552 3.6382 52.2552 2.34375C52.2552 1.0493 51.2056 0 49.9116 0Z" fill="#160A8B"/>
<path d="M60.749 0.686719C60.3109 0.250781 59.7084 0 59.0922 0C58.4732 0 57.8685 0.250781 57.4352 0.686719C56.9969 1.12266 56.7461 1.72734 56.7461 2.34375C56.7461 2.96016 56.9969 3.56484 57.4352 4.00078C57.8685 4.43672 58.4732 4.6875 59.0922 4.6875C59.7086 4.6875 60.3109 4.43672 60.749 4.00078C61.1849 3.56484 61.4359 2.96016 61.4359 2.34375C61.4359 1.72734 61.1849 1.12266 60.749 0.686719Z" fill="#160A8B"/>
<path d="M84.6724 20.7165C84.2367 20.2806 83.6318 20.0298 83.0156 20.0298C82.3992 20.0298 81.7945 20.2806 81.3586 20.7165C80.9227 21.1524 80.6719 21.7571 80.6719 22.3735C80.6719 22.9899 80.9224 23.5946 81.3586 24.0306C81.7948 24.4665 82.3992 24.7173 83.0156 24.7173C83.632 24.7173 84.2367 24.4665 84.6724 24.0306C85.1084 23.5946 85.3594 22.9899 85.3594 22.3735C85.3594 21.7571 85.1086 21.1524 84.6724 20.7165Z" fill="#160A8B"/>
</g>
<defs>
<clipPath id="clip0">
<rect width="120" height="120" fill="white"/>
</clipPath>
</defs>
</svg>
