<svg width="120" height="120" viewBox="0 0 120 120" fill="none" xmlns="http://www.w3.org/2000/svg">
<path d="M110.625 4.6875H94.2188V2.34375C94.2188 1.0493 93.1692 0 91.875 0H28.125C26.8308 0 25.7812 1.0493 25.7812 2.34375V4.6875H9.375C5.49797 4.6875 2.34375 7.84172 2.34375 11.7188V36.3455C2.34375 53.2657 16.1093 67.0312 33.0295 67.0312H37.5251C40.4145 69.5534 43.7299 71.5985 47.348 73.0434C47.347 73.0706 47.3438 73.0973 47.3438 73.125V87.1875H38.4375C34.5605 87.1875 31.4062 90.3417 31.4062 94.2188V112.969C31.4062 116.846 34.5605 120 38.4375 120H81.5625C85.4395 120 88.5938 116.846 88.5938 112.969V94.2188C88.5938 90.3417 85.4395 87.1875 81.5625 87.1875H72.6562V73.125C72.6562 73.0973 72.653 73.0706 72.652 73.0434C76.2701 71.5985 79.5855 69.5534 82.4749 67.0312H86.9705C103.891 67.0312 117.656 53.2657 117.656 36.3455V11.7188C117.656 7.84172 114.502 4.6875 110.625 4.6875ZM94.2188 18.75H103.594V36.3455C103.594 43.4522 98.9902 49.7175 92.4797 52.023C93.6068 48.6342 94.2188 45.0124 94.2188 41.25V18.75ZM30.4688 4.6875H89.5312V9.375H73.6048C72.3105 9.375 71.261 10.4243 71.261 11.7188C71.261 13.0132 72.3105 14.0625 73.6048 14.0625H89.5312V41.25C89.5312 57.5337 76.2837 70.7812 60 70.7812C43.7163 70.7812 30.4688 57.5337 30.4688 41.25V4.6875ZM27.5203 52.023C21.0098 49.7175 16.4062 43.4522 16.4062 36.3455V18.75H25.7812V41.25C25.7812 45.0124 26.3932 48.6342 27.5203 52.023ZM7.03125 36.3455V11.7188C7.03125 10.4264 8.08266 9.375 9.375 9.375H25.7812V14.0625H14.0625C12.7683 14.0625 11.7188 15.1118 11.7188 16.4062V36.3455C11.7188 41.483 13.5797 46.4484 16.9587 50.3269C20.2901 54.1505 24.8658 56.6655 29.8474 57.4153C30.7828 59.153 31.863 60.8018 33.0738 62.3438H33.0295C18.694 62.3438 7.03125 50.681 7.03125 36.3455ZM83.9062 94.2188V112.969C83.9062 114.261 82.8548 115.312 81.5625 115.312H38.4375C37.1452 115.312 36.0938 114.261 36.0938 112.969V94.2188C36.0938 92.9264 37.1452 91.875 38.4375 91.875H81.5625C82.8548 91.875 83.9062 92.9264 83.9062 94.2188ZM67.9688 87.1875H52.0312V74.5298C54.5892 75.1423 57.2569 75.4688 60 75.4688C62.7431 75.4688 65.4108 75.1423 67.9688 74.5298V87.1875ZM112.969 36.3455C112.969 50.681 101.306 62.3438 86.9705 62.3438H86.9262C88.137 60.8018 89.217 59.1532 90.1526 57.4153C95.1342 56.6658 99.7099 54.1507 103.041 50.3269C106.42 46.4484 108.281 41.4832 108.281 36.3455V16.4062C108.281 15.1118 107.232 14.0625 105.938 14.0625H94.2188V9.375H110.625C111.917 9.375 112.969 10.4264 112.969 11.7188V36.3455Z" fill="#160A8B"/>
<path d="M64.2305 14.0625C64.8469 14.0625 65.4516 13.8117 65.8875 13.3758C66.3232 12.9398 66.5742 12.3352 66.5742 11.7188C66.5742 11.1023 66.3234 10.4977 65.8875 10.0617C65.4516 9.62578 64.8469 9.375 64.2305 9.375C63.6117 9.375 63.0094 9.62578 62.5734 10.0617C62.1352 10.4977 61.8867 11.1023 61.8867 11.7188C61.8867 12.3352 62.1352 12.9398 62.5734 13.3758C63.0094 13.8117 63.6117 14.0625 64.2305 14.0625Z" fill="#160A8B"/>
<path d="M66.6405 105.938H53.3594C52.0652 105.938 51.0156 106.987 51.0156 108.281C51.0156 109.575 52.0652 110.625 53.3594 110.625H66.6405C67.9347 110.625 68.9842 109.575 68.9842 108.281C68.9842 106.987 67.9347 105.938 66.6405 105.938Z" fill="#160A8B"/>
<path d="M48.3984 96.5625C47.782 96.5625 47.1773 96.813 46.7414 97.2492C46.3055 97.6854 46.0547 98.2898 46.0547 98.9062C46.0547 99.5227 46.3052 100.127 46.7414 100.563C47.1773 100.999 47.782 101.25 48.3984 101.25C49.0148 101.25 49.6195 100.999 50.0552 100.563C50.4912 100.127 50.7422 99.5227 50.7422 98.9062C50.7422 98.2898 50.4914 97.6852 50.0552 97.2492C49.6195 96.813 49.0148 96.5625 48.3984 96.5625Z" fill="#160A8B"/>
<path d="M55.4297 98.9062C55.4297 100.2 56.4792 101.25 57.7734 101.25H71.6016C72.8958 101.25 73.9453 100.2 73.9453 98.9062C73.9453 97.612 72.8958 96.5625 71.6016 96.5625H57.7734C56.4792 96.5625 55.4297 97.612 55.4297 98.9062Z" fill="#160A8B"/>
<path d="M49.9385 40.9669L48.3694 50.1312C48.2187 51.0106 48.5803 51.8991 49.3022 52.4234C49.7105 52.7199 50.1938 52.8706 50.6796 52.8706C51.053 52.8706 51.4275 52.7816 51.7704 52.6011L59.9991 48.2724L68.2299 52.5969C69.0197 53.0119 69.9764 52.9426 70.6981 52.4178C71.4197 51.8933 71.7809 51.0045 71.6299 50.1254L70.0559 40.9618L76.7119 34.4701C77.3506 33.8473 77.58 32.9157 77.3042 32.0675C77.0281 31.2191 76.2945 30.601 75.4118 30.4728L66.2102 29.1383L62.0932 20.8018C61.6983 20.0021 60.8838 19.4958 59.9918 19.4958H59.9911C59.0988 19.4961 58.2844 20.0028 57.8897 20.803L53.7771 29.1418L44.5765 30.4812C43.6936 30.6097 42.9603 31.2284 42.6849 32.0769C42.4095 32.9255 42.6396 33.8567 43.2785 34.4792L49.9385 40.9669ZM55.6723 33.6024C56.4356 33.4913 57.0954 33.0116 57.4367 32.3199L59.9935 27.1353L62.5535 32.3185C62.895 33.0101 63.555 33.4894 64.3184 33.6001L70.0395 34.43L65.9009 38.4662C65.3489 39.0048 65.0967 39.7805 65.2275 40.5409L66.2063 46.2385L61.0887 43.5498C60.406 43.1909 59.5901 43.1914 58.9074 43.5502L53.791 46.2416L54.7667 40.5437C54.897 39.7834 54.6445 39.0076 54.0921 38.4692L49.9514 34.4351L55.6723 33.6024Z" fill="#160A8B"/>
</svg>
