<svg width="120" height="120" viewBox="0 0 120 120" fill="none" xmlns="http://www.w3.org/2000/svg">
<path d="M84.8438 105.938H82.5C81.2082 105.938 80.1562 106.989 80.1562 108.281C80.1562 109.573 81.2082 110.625 82.5 110.625H84.8438C86.1356 110.625 87.1875 109.573 87.1875 108.281C87.1875 106.989 86.1356 105.938 84.8438 105.938Z" fill="#160A8B"/>
<path d="M94.2188 105.938C92.9269 105.938 91.875 106.989 91.875 108.281C91.875 109.573 92.9269 110.625 94.2188 110.625C95.5106 110.625 96.5625 109.573 96.5625 108.281C96.5625 106.989 95.5106 105.938 94.2188 105.938Z" fill="#160A8B"/>
<path d="M73.125 105.938C71.8332 105.938 70.7812 106.989 70.7812 108.281C70.7812 109.573 71.8332 110.625 73.125 110.625C74.4168 110.625 75.4688 109.573 75.4688 108.281C75.4688 106.989 74.4168 105.938 73.125 105.938Z" fill="#160A8B"/>
<path d="M73.125 87.1875C71.8332 87.1875 70.7812 88.2394 70.7812 89.5312C70.7812 90.8231 71.8332 91.875 73.125 91.875C74.4168 91.875 75.4688 90.8231 75.4688 89.5312C75.4688 88.2394 74.4168 87.1875 73.125 87.1875Z" fill="#160A8B"/>
<path d="M94.2188 87.1875C92.9269 87.1875 91.875 88.2394 91.875 89.5312C91.875 90.8231 92.9269 91.875 94.2188 91.875C95.5106 91.875 96.5625 90.8231 96.5625 89.5312C96.5625 88.2394 95.5106 87.1875 94.2188 87.1875Z" fill="#160A8B"/>
<path d="M84.8438 87.1875H82.5C81.2082 87.1875 80.1562 88.2394 80.1562 89.5312C80.1562 90.8231 81.2082 91.875 82.5 91.875H84.8438C86.1356 91.875 87.1875 90.8231 87.1875 89.5312C87.1875 88.2394 86.1356 87.1875 84.8438 87.1875Z" fill="#160A8B"/>
<path d="M94.2188 73.125C95.5106 73.125 96.5625 72.0731 96.5625 70.7812C96.5625 69.4894 95.5106 68.4375 94.2188 68.4375C92.9269 68.4375 91.875 69.4894 91.875 70.7812C91.875 72.0731 92.9269 73.125 94.2188 73.125Z" fill="#160A8B"/>
<path d="M82.5 73.125H84.8438C86.1356 73.125 87.1875 72.0731 87.1875 70.7812C87.1875 69.4894 86.1356 68.4375 84.8438 68.4375H82.5C81.2082 68.4375 80.1562 69.4894 80.1562 70.7812C80.1562 72.0731 81.2082 73.125 82.5 73.125Z" fill="#160A8B"/>
<path d="M73.125 73.125C74.4168 73.125 75.4688 72.0731 75.4688 70.7812C75.4688 69.4894 74.4168 68.4375 73.125 68.4375C71.8332 68.4375 70.7812 69.4894 70.7812 70.7812C70.7812 72.0731 71.8332 73.125 73.125 73.125Z" fill="#160A8B"/>
<path d="M117.656 49.6875H36.5625V45H52.0312C55.9085 45 59.0625 41.846 59.0625 37.9688V35.625H59.0836V7.03125C59.0836 3.15399 55.9296 0 52.0523 0H7.05231C3.17505 0 0.0210571 3.15399 0.0210571 7.03125V32.9846C0.00823973 33.0817 0 33.1805 0 33.2812V37.9688C0 41.846 3.15399 45 7.03125 45H22.5V49.6875H2.34375C1.04919 49.6875 0 50.7367 0 52.0312V61.4062C0 62.7008 1.04919 63.75 2.34375 63.75H4.6875V117.656C4.6875 118.951 5.73669 120 7.03125 120H16.4062C17.7008 120 18.75 118.951 18.75 117.656V63.75H61.4062V117.656C61.4062 118.951 62.4554 120 63.75 120H112.969C114.263 120 115.312 118.951 115.312 117.656V63.75H117.656C118.951 63.75 120 62.7008 120 61.4062V52.0312C120 50.7367 118.951 49.6875 117.656 49.6875ZM4.70856 7.03125C4.70856 5.73853 5.75958 4.6875 7.05231 4.6875H52.0523C53.3441 4.6875 54.3961 5.73853 54.3961 7.03125V30.9375H4.70856V7.03125ZM4.6875 37.9688V35.625H54.375V37.9688C54.375 39.2615 53.324 40.3125 52.0312 40.3125H7.03125C5.73853 40.3125 4.6875 39.2615 4.6875 37.9688ZM27.1875 45H31.875V49.6875H27.1875V45ZM14.0625 115.312H9.375V63.75H14.0625V115.312ZM66.0938 82.5H101.25V96.5625H66.0938V82.5ZM101.25 77.8125H66.0938V63.75H101.25V77.8125ZM66.0938 101.25H101.25V115.312H66.0938V101.25ZM110.625 115.312H105.938V63.75H110.625V115.312ZM115.312 59.0625H4.6875V54.375H115.312V59.0625Z" fill="#160A8B"/>
</svg>
