<svg width="120" height="120" viewBox="0 0 120 120" fill="none" xmlns="http://www.w3.org/2000/svg">
<path d="M92.9451 26.5346L101.385 6.68681C101.845 5.60728 101.435 4.35454 100.426 3.75501L96.2845 1.29337C93.0374 -0.63694 88.8902 -0.328033 85.9647 2.06095L85.3253 2.5829C83.7358 3.88158 81.4284 3.88158 79.837 2.58197L79.8114 2.56111C76.4978 -0.144752 71.6913 -0.140768 68.3824 2.57142C66.7917 3.87525 64.4814 3.87665 62.8891 2.57611L62.2396 2.04548C59.328 -0.332721 55.1948 -0.64983 51.9546 1.25658L47.7021 3.75829C46.6851 4.35665 46.2714 5.61736 46.7362 6.70181L55.2292 26.5177C49.0858 28.7363 43.8438 32.9797 40.4043 38.5536C39.7244 39.6549 40.0664 41.0992 41.1679 41.7788C42.2695 42.4583 43.7135 42.1163 44.3934 41.0148C47.3453 36.2307 51.8793 32.6113 57.1886 30.7906H90.9306C100.762 34.1577 107.341 43.3438 107.341 53.7638V59.9823C107.341 61.2765 108.39 62.326 109.684 62.326C110.979 62.326 112.028 61.2765 112.028 59.9823V53.7638C112.028 41.5086 104.398 30.6877 92.9451 26.5346ZM88.0345 26.1031H60.1509L51.8568 6.75197L54.3311 5.29673C55.8881 4.38033 57.8746 4.5329 59.2741 5.67595L59.9235 6.20634C63.2371 8.91314 68.0442 8.90915 71.3538 6.19673C72.944 4.89314 75.254 4.8915 76.848 6.19298L76.8735 6.21384C80.1813 8.91501 84.9827 8.91501 88.2902 6.21337L88.9293 5.69142C90.3353 4.54345 92.3282 4.39509 93.8889 5.32251L96.2697 6.73767L88.0345 26.1031Z" fill="#160A8B"/>
<path d="M111.345 67.1801C110.909 66.7442 110.304 66.4934 109.688 66.4934C109.071 66.4934 108.466 66.744 108.03 67.1801C107.595 67.6184 107.344 68.2205 107.344 68.8372C107.344 69.4536 107.595 70.0583 108.03 70.494C108.466 70.9322 109.071 71.183 109.688 71.183C110.304 71.183 110.909 70.9322 111.345 70.494C111.78 70.0583 112.031 69.4536 112.031 68.8372C112.031 68.2205 111.78 67.6158 111.345 67.1801Z" fill="#160A8B"/>
<path d="M35.8562 104.549C35.4203 104.113 34.8156 103.862 34.1992 103.862C33.5828 103.862 32.9781 104.113 32.5422 104.549C32.1062 104.985 31.8555 105.59 31.8555 106.206C31.8555 106.822 32.1062 107.427 32.5422 107.863C32.9781 108.299 33.5828 108.55 34.1992 108.55C34.8156 108.55 35.4203 108.299 35.8562 107.863C36.2922 107.427 36.543 106.822 36.543 106.206C36.543 105.59 36.2922 104.985 35.8562 104.549Z" fill="#160A8B"/>
<path d="M120 97.9514C120 95.3566 118.884 93.0183 117.108 91.3889C118.884 89.7595 120 87.4212 120 84.8264C120 79.9156 116.005 75.9202 111.094 75.9202H85.7812C80.8704 75.9202 76.875 79.9156 76.875 84.8264C76.875 87.4212 77.9909 89.7595 79.7674 91.3889C77.9911 93.0183 76.875 95.3566 76.875 97.9514C76.875 100.546 77.9909 102.885 79.7674 104.514C77.9911 106.143 76.875 108.482 76.875 111.076C76.875 112.602 77.261 114.039 77.9398 115.295H68.396V106.131C68.396 93.736 58.8675 83.5268 46.7513 82.4391C46.4227 82.3413 46.0772 82.3195 45.7399 82.369C45.7005 82.3671 45.6609 82.3662 45.6216 82.3645C48.664 79.3922 50.5577 75.2487 50.5577 70.6695V47.3264C50.5577 46.0322 49.5084 44.9827 48.214 44.9827H30.8524C23.6763 44.9827 17.8383 50.8207 17.8383 57.9966V70.6692C17.8383 75.2484 19.732 79.392 22.7745 82.3643C22.7351 82.366 22.6955 82.3669 22.6561 82.3688C22.3188 82.3195 21.9734 82.3411 21.6448 82.4388C9.52851 83.5268 0 93.7362 0 106.131V117.639C0 118.933 1.0493 119.983 2.34375 119.983H38.4375H66.0523H85.7812H109.688H111.094C116.005 119.983 120 115.987 120 111.076C120 108.482 118.884 106.143 117.108 104.514C118.884 102.885 120 100.546 120 97.9514ZM22.5258 61.2795V57.9966C22.5258 53.4054 26.2612 49.6702 30.8524 49.6702H45.8702V55.9423C45.8702 59.1115 43.2919 61.6899 40.1224 61.6899H22.5258V61.2795ZM22.5258 70.6695V66.3774H40.1224C42.2452 66.3774 44.2207 65.7387 45.8702 64.6458V70.6692C45.8702 77.1052 40.6341 82.3413 34.1981 82.3413C27.7622 82.3413 22.5258 77.1054 22.5258 70.6695ZM40.4224 87.0288L34.1979 93.2534L27.9734 87.0288H40.4224ZM63.7085 115.295H38.4375V115.295H4.6875V108.55H23.8132C25.1077 108.55 26.157 107.5 26.157 106.206C26.157 104.912 25.1077 103.862 23.8132 103.862H4.82695C5.86289 95.1513 12.7812 88.2234 21.488 87.1725L32.5409 98.2254C32.9986 98.6829 33.5984 98.9119 34.1981 98.9119C34.7979 98.9119 35.3979 98.6829 35.8554 98.2254L46.9083 87.1725C56.359 88.3132 63.7085 96.3773 63.7085 106.131V115.295ZM111.094 115.295H109.688H85.7812C83.4551 115.295 81.5625 113.403 81.5625 111.076C81.5625 108.75 83.4551 106.858 85.7812 106.858H111.094C113.42 106.858 115.312 108.75 115.312 111.076C115.312 113.403 113.42 115.295 111.094 115.295ZM111.094 102.17H85.7812C83.4551 102.17 81.5625 100.278 81.5625 97.9514C81.5625 95.6252 83.4551 93.7327 85.7812 93.7327H111.094C113.42 93.7327 115.312 95.6252 115.312 97.9514C115.312 100.278 113.42 102.17 111.094 102.17ZM111.094 89.0452H85.7812C83.4551 89.0452 81.5625 87.1526 81.5625 84.8264C81.5625 82.5002 83.4551 80.6077 85.7812 80.6077H111.094C113.42 80.6077 115.312 82.5002 115.312 84.8264C115.312 87.1526 113.42 89.0452 111.094 89.0452Z" fill="#160A8B"/>
<path d="M87.6566 53.4359C85.7804 53.4359 84.2539 52.1478 84.2539 50.5646C84.2539 48.9814 85.7804 47.6933 87.6566 47.6933C89.5327 47.6933 91.0592 48.9814 91.0592 50.5646C91.0592 51.8588 92.1085 52.9084 93.403 52.9084C94.6974 52.9084 95.7467 51.8588 95.7467 50.5646C95.7467 47.158 93.3219 44.2716 90.0003 43.3304V42.9805C90.0003 41.6863 88.951 40.6367 87.6566 40.6367C86.3621 40.6367 85.3128 41.6863 85.3128 42.9805V43.3304C81.9915 44.2716 79.5664 47.158 79.5664 50.5646C79.5664 54.7325 83.1955 58.1234 87.6566 58.1234C89.5327 58.1234 91.0592 59.4116 91.0592 60.9948C91.0592 62.578 89.5327 63.8661 87.6566 63.8661C85.7804 63.8661 84.2539 62.578 84.2539 60.9948C84.2539 59.7005 83.2046 58.651 81.9102 58.651C80.6157 58.651 79.5664 59.7005 79.5664 60.9948C79.5664 64.4014 81.9913 67.2877 85.3128 68.229V68.3792C85.3128 69.6734 86.3621 70.723 87.6566 70.723C88.951 70.723 90.0003 69.6734 90.0003 68.3792V68.229C93.3216 67.2877 95.7467 64.4014 95.7467 60.9948C95.7467 56.8269 92.1177 53.4359 87.6566 53.4359Z" fill="#160A8B"/>
</svg>
