<svg width="120" height="120" viewBox="0 0 120 120" fill="none" xmlns="http://www.w3.org/2000/svg">
<path d="M102.427 17.5737C91.0938 6.24094 76.0266 0 60 0C43.9734 0 28.9062 6.24094 17.5734 17.5737C6.24117 28.9062 0 43.9734 0 60C0 76.0266 6.24117 91.0938 17.5734 102.426C28.9062 113.759 43.9734 120 60 120C76.0266 120 91.0938 113.759 102.427 102.426C113.759 91.0938 120 76.0266 120 60C120 43.9734 113.759 28.9062 102.427 17.5737ZM60 115.312C29.5005 115.312 4.6875 90.4995 4.6875 60C4.6875 29.5005 29.5005 4.6875 60 4.6875C90.4995 4.6875 115.312 29.5005 115.312 60C115.312 90.4995 90.4995 115.312 60 115.312Z" fill="#160A8B"/>
<path d="M109.71 50.3799C106.551 33.9631 95.482 20.1851 80.0998 13.5237C78.9122 13.0092 77.5322 13.5553 77.0177 14.7429C76.5035 15.9307 77.0494 17.3107 78.2372 17.8249C92.1963 23.8702 102.241 36.3713 105.107 51.2656C105.323 52.3871 106.305 53.1668 107.407 53.1668C107.553 53.1668 107.702 53.153 107.852 53.1242C109.123 52.8797 109.955 51.6509 109.71 50.3799Z" fill="#160A8B"/>
<path d="M70.8795 10.5479L70.8181 10.5346C69.5534 10.2618 68.3059 11.0666 68.0335 12.3322C67.7609 13.5976 68.5658 14.8443 69.8312 15.1168L69.8586 15.1229C70.0306 15.1614 70.2022 15.1796 70.3714 15.1796C71.4448 15.1796 72.4133 14.4371 72.6566 13.3459C72.9385 12.0824 72.1428 10.8299 70.8795 10.5479Z" fill="#160A8B"/>
<path d="M42.2919 102.401C28.045 96.4434 17.8021 83.8579 14.8918 68.7348C14.6474 67.4638 13.4202 66.6304 12.1475 66.8763C10.8763 67.1207 10.0443 68.3495 10.2887 69.6205C11.8663 77.8171 15.5078 85.5773 20.8204 92.0617C26.0715 98.4714 32.871 103.542 40.4835 106.725C40.7788 106.849 41.0853 106.908 41.3868 106.908C42.3034 106.908 43.1741 106.366 43.5498 105.467C44.0493 104.273 43.4861 102.9 42.2919 102.401Z" fill="#160A8B"/>
<path d="M50.1733 104.884L50.0284 104.852C48.7658 104.572 47.5129 105.368 47.2321 106.632C46.9513 107.895 47.7479 109.147 49.0117 109.428L49.1758 109.464C49.3438 109.501 49.5116 109.518 49.6769 109.518C50.7552 109.518 51.7258 108.769 51.9646 107.673C52.24 106.408 51.4379 105.16 50.1733 104.884Z" fill="#160A8B"/>
<path d="M107.672 68.0372C106.409 67.7614 105.159 68.5636 104.883 69.8283C100.97 87.7873 86.7801 101.636 68.7335 105.109C67.4622 105.353 66.6302 106.582 66.8746 107.853C67.0905 108.974 68.0725 109.754 69.1739 109.754C69.3206 109.754 69.4699 109.74 69.6192 109.711C79.3462 107.84 88.2525 103.172 95.3749 96.2135C102.486 89.2655 107.358 80.4867 109.463 70.826C109.738 69.5614 108.937 68.3128 107.672 68.0372Z" fill="#160A8B"/>
<path d="M53.1229 12.1472C52.8782 10.8762 51.6496 10.0428 50.3784 10.2886C40.6513 12.1603 31.7451 16.8279 24.6227 23.7865C17.5113 30.7345 12.6396 39.5133 10.5346 49.174C10.2592 50.4387 11.061 51.6872 12.3257 51.9628C12.4938 51.9994 12.6618 52.017 12.8271 52.017C13.9054 52.017 14.876 51.2684 15.1148 50.1717C19.0281 32.2125 33.2177 18.3642 51.2641 14.8915C52.5353 14.647 53.3674 13.4182 53.1229 12.1472Z" fill="#160A8B"/>
<path d="M60 52.0312C55.6059 52.0312 52.0312 55.6059 52.0312 60C52.0312 64.3941 55.6059 67.9688 60 67.9688C64.3941 67.9688 67.9688 64.3941 67.9688 60C67.9688 55.6059 64.3941 52.0312 60 52.0312ZM60 63.2812C58.1906 63.2812 56.7188 61.8094 56.7188 60C56.7188 58.1906 58.1906 56.7188 60 56.7188C61.8094 56.7188 63.2812 58.1906 63.2812 60C63.2812 61.8094 61.8094 63.2812 60 63.2812Z" fill="#160A8B"/>
<path d="M60.0352 9.375C58.7409 9.375 57.6914 10.4243 57.6914 11.7188V16.9706C57.6914 18.2651 58.7409 19.3144 60.0352 19.3144C61.3296 19.3144 62.3789 18.2651 62.3789 16.9706V11.7188C62.3789 10.4243 61.3294 9.375 60.0352 9.375Z" fill="#160A8B"/>
<path d="M59.9648 99.0151C58.6706 99.0151 57.6211 100.064 57.6211 101.359V108.281C57.6211 109.576 58.6706 110.625 59.9648 110.625C61.2591 110.625 62.3086 109.576 62.3086 108.281V101.359C62.3086 100.064 61.2591 99.0151 59.9648 99.0151Z" fill="#160A8B"/>
<path d="M108.281 57.6919H101.953C100.659 57.6919 99.6094 58.7412 99.6094 60.0357C99.6094 61.3301 100.659 62.3794 101.953 62.3794H108.281C109.575 62.3794 110.625 61.3301 110.625 60.0357C110.625 58.7412 109.575 57.6919 108.281 57.6919Z" fill="#160A8B"/>
<path d="M18.5156 57.6206H11.7188C10.4245 57.6206 9.375 58.6699 9.375 59.9643C9.375 61.2588 10.4245 62.3081 11.7188 62.3081H18.5156C19.8098 62.3081 20.8594 61.2588 20.8594 59.9643C20.8594 58.6699 19.8098 57.6206 18.5156 57.6206Z" fill="#160A8B"/>
<path d="M54.3751 57.6562H43.6719C42.3777 57.6562 41.3281 58.7055 41.3281 60C41.3281 61.2945 42.3777 62.3438 43.6719 62.3438H54.3751C55.6693 62.3438 56.7188 61.2945 56.7188 60C56.7188 58.7055 55.6693 57.6562 54.3751 57.6562Z" fill="#160A8B"/>
<path d="M60 30.0779C58.7058 30.0779 57.6562 31.1272 57.6562 32.4216V54.3748C57.6562 55.6693 58.7058 56.7186 60 56.7186C61.2942 56.7186 62.3438 55.6693 62.3438 54.3748V32.4216C62.3438 31.1272 61.2942 30.0779 60 30.0779Z" fill="#160A8B"/>
</svg>
