<svg width="120" height="120" viewBox="0 0 120 120" fill="none" xmlns="http://www.w3.org/2000/svg">
<path d="M117.656 86.25H109.377L116.228 82.2949C117.851 81.3577 119.013 79.8443 119.498 78.0338C119.983 76.2232 119.734 74.332 118.797 72.7085L100.743 41.4387L87.255 18.0764C87.255 18.0764 87.2548 18.0762 87.2548 18.0759L82.6896 10.1688C80.7546 6.81773 76.4543 5.66578 73.1032 7.60008L60.9375 14.6238V11.7188C60.9375 7.84172 57.7833 4.6875 53.9062 4.6875H33.2812C31.4817 4.6875 29.8388 5.36766 28.5938 6.48352C27.3487 5.36766 25.7058 4.6875 23.9062 4.6875H7.03125C3.15422 4.6875 0 7.84172 0 11.7188V20.8362V74.7888V83.9062C0 84.9905 0.247031 86.018 0.687187 86.9358C0.262734 87.36 0 87.9462 0 88.5938V103.594C0 104.888 1.04953 105.938 2.34375 105.938H12.6562V112.969C12.6562 114.263 13.7058 115.312 15 115.312H32.5781C33.8723 115.312 34.9219 114.263 34.9219 112.969V105.938H49.2183C50.5125 105.938 51.562 104.888 51.562 103.594C51.562 102.299 50.5125 101.25 49.2183 101.25H4.6875V90.9375H115.312V101.25H105H87.4219H67.969C66.6748 101.25 65.6252 102.299 65.6252 103.594C65.6252 104.888 66.6748 105.938 67.969 105.938H85.0781V112.969C85.0781 114.263 86.1277 115.312 87.4219 115.312H105C106.294 115.312 107.344 114.263 107.344 112.969V105.938H117.656C118.95 105.938 120 104.888 120 103.594V88.5938C120 87.2993 118.95 86.25 117.656 86.25ZM30.2344 105.938V110.625H17.3438V105.938H30.2344ZM114.97 76.8204C114.809 77.4216 114.423 77.9241 113.884 78.2353L100.536 85.942C100.201 86.1354 99.8379 86.2343 99.476 86.25H99.2984C98.5198 86.2242 97.7705 85.812 97.3528 85.0891L93.9593 79.2113L111.344 69.1744L114.737 75.0523C115.048 75.5913 115.131 76.2192 114.97 76.8204ZM49.2188 58.1278C47.9245 58.1278 46.875 59.1771 46.875 60.4716V72.4451H30.9375V23.1799H56.25V72.4451H51.5625V60.4716C51.5625 59.1771 50.513 58.1278 49.2188 58.1278ZM4.6875 23.1799H26.25V72.4451H4.6875V23.1799ZM60.9375 83.9062V74.7888V31.3908L61.7498 32.7977C61.7503 32.7987 61.7508 32.7998 61.7515 32.8008L88.728 79.5251L88.7283 79.5255L92.6105 86.25H60.5344C60.7945 85.5164 60.9375 84.728 60.9375 83.9062ZM96.6834 43.7824L109 65.115L91.6153 75.1519L66.9827 32.4867L84.367 22.4501L96.6834 43.7824ZM62.0984 19.3662L75.4465 11.6597C76.5588 11.0177 77.9873 11.3998 78.6298 12.5126L82.0233 18.3905L64.639 28.4271L61.2455 22.5492C61.0516 22.2136 60.9527 21.8494 60.9375 21.4866V21.3195C60.9605 20.538 61.373 19.7852 62.0984 19.3662ZM33.2812 9.375H53.9062C55.1986 9.375 56.25 10.4264 56.25 11.7188V18.4924H30.9375V11.7188C30.9375 10.4264 31.9889 9.375 33.2812 9.375ZM7.03125 9.375H23.9062C25.1986 9.375 26.25 10.4264 26.25 11.7188V18.4924H4.6875V11.7188C4.6875 10.4264 5.73891 9.375 7.03125 9.375ZM7.03125 86.25C5.73891 86.25 4.6875 85.1986 4.6875 83.9062V77.1326H26.25V83.9062C26.25 85.1986 25.1986 86.25 23.9062 86.25H7.03125ZM33.2812 86.25C31.9889 86.25 30.9375 85.1986 30.9375 83.9062V77.1326H56.25V83.9062C56.25 85.1986 55.1986 86.25 53.9062 86.25H33.2812ZM102.656 110.625H89.7656V105.938H102.656V110.625Z" fill="#160A8B"/>
<path d="M58.5938 101.25C57.9773 101.25 57.3727 101.501 56.9367 101.937C56.5008 102.373 56.25 102.977 56.25 103.594C56.25 104.21 56.5005 104.815 56.9367 105.251C57.3729 105.687 57.9773 105.938 58.5938 105.938C59.2102 105.938 59.8148 105.687 60.2505 105.251C60.6865 104.815 60.9375 104.21 60.9375 103.594C60.9375 102.977 60.6867 102.373 60.2505 101.937C59.8148 101.501 59.2102 101.25 58.5938 101.25Z" fill="#160A8B"/>
<path d="M50.8755 49.4392C50.4398 49.0032 49.8352 48.7524 49.2188 48.7524C48.6023 48.7524 47.9977 49.0032 47.5617 49.4392C47.1258 49.8751 46.875 50.4798 46.875 51.0962C46.875 51.7149 47.1255 52.3173 47.5617 52.7532C47.9977 53.1892 48.6023 53.4399 49.2188 53.4399C49.8352 53.4399 50.4398 53.1892 50.8755 52.7532C51.3115 52.3173 51.5625 51.7126 51.5625 51.0962C51.5625 50.4798 51.3117 49.8751 50.8755 49.4392Z" fill="#160A8B"/>
</svg>
