<svg width="120" height="120" viewBox="0 0 120 120" fill="none" xmlns="http://www.w3.org/2000/svg">
<path d="M114.639 9.9307H107.136V2.34375C107.136 1.0493 106.087 0 104.793 0C103.498 0 102.449 1.0493 102.449 2.34375V11.3055L92.6505 21.1305C82.7662 12.1341 70.0602 7.20445 56.613 7.20445C42.2966 7.20445 28.837 12.7795 18.7138 22.9027C8.5907 33.0258 3.01562 46.4855 3.01562 60.8018C3.01562 75.1181 8.5907 88.5778 18.7138 98.7009C20.2886 100.276 21.9442 101.74 23.6711 103.091L10.7631 115.999C9.84789 116.914 9.84789 118.398 10.7631 119.314C11.2209 119.771 11.8206 120 12.4204 120C13.0202 120 13.6202 119.771 14.0777 119.314L27.543 105.848C36.1279 111.413 46.1402 114.399 56.6127 114.399C67.1364 114.399 77.1951 111.383 85.8079 105.766L99.355 119.314C99.8127 119.771 100.413 120 101.012 120C101.612 120 102.212 119.771 102.67 119.314C103.585 118.398 103.585 116.914 102.67 115.999L89.6695 102.999C91.3546 101.673 92.9723 100.24 94.5119 98.7009C104.635 88.5778 110.21 75.1181 110.21 60.8018C110.21 52.6481 108.426 44.8177 104.906 37.5277C104.343 36.3619 102.942 35.873 101.777 36.4359C100.611 36.9987 100.122 38.3998 100.685 39.5655C103.895 46.2148 105.523 53.3597 105.523 60.8018C105.523 87.7709 83.5816 109.712 56.6125 109.712C29.6434 109.712 7.70242 87.7711 7.70242 60.8018C7.70242 33.8327 29.6434 11.8917 56.6125 11.8917C68.8106 11.8917 80.3411 16.335 89.3376 24.4519L81.1113 32.7007C74.32 26.7652 65.7088 23.52 56.6127 23.52C36.0555 23.52 19.3309 40.2445 19.3309 60.8018C19.3309 81.3591 36.0559 98.0836 56.6132 98.0836C77.1705 98.0836 93.895 81.3591 93.895 60.8018C93.895 57.4863 93.4593 54.1976 92.5996 51.0265C91.0912 45.461 88.2888 40.3095 84.4441 35.9972L94.3525 26.0618C94.3556 26.0588 94.3591 26.0562 94.3621 26.0531C94.3649 26.0503 94.3671 26.0473 94.3699 26.0447L105.765 14.6182H114.639C115.934 14.6182 116.983 13.5689 116.983 12.2745C116.983 10.98 115.933 9.9307 114.639 9.9307ZM88.0755 52.2527C88.8269 55.0242 89.2077 57.9005 89.2077 60.8018C89.2077 78.7744 74.586 93.3961 56.6134 93.3961C38.6409 93.3961 24.0191 78.7741 24.0191 60.8018C24.0191 42.8295 38.6409 28.2075 56.6134 28.2075C64.4601 28.2075 71.8952 30.9682 77.7951 36.0267L68.1189 45.7291C64.9249 43.2851 60.9367 41.8284 56.6134 41.8284C46.1516 41.8284 37.6401 50.3398 37.6401 60.8018C37.6401 71.2638 46.1514 79.7752 56.6134 79.7752C67.0755 79.7752 75.5868 71.2638 75.5868 60.8018C75.5868 56.3494 74.0413 52.2534 71.4637 49.0134L81.1274 39.3234C84.3951 43.0514 86.7815 47.4781 88.0755 52.2527ZM55.2714 61.9303C55.7289 62.3864 56.3277 62.6145 56.9266 62.6145C57.5273 62.6145 58.1282 62.385 58.5862 61.9259L68.1276 52.3584C69.8681 54.7256 70.8991 57.645 70.8991 60.8018C70.8991 68.6789 64.4906 75.0877 56.6132 75.0877C48.7359 75.0877 42.3274 68.6789 42.3274 60.8018C42.3274 52.9247 48.7359 46.5159 56.6132 46.5159C59.6449 46.5159 62.4569 47.468 64.7718 49.0849L55.267 58.6155C54.3529 59.5322 54.3548 61.016 55.2714 61.9303Z" fill="#160A8B"/>
<path d="M98.2539 33.6655C99.5483 33.6655 100.598 32.6162 100.598 31.3218C100.598 30.0274 99.5483 28.978 98.2539 28.978C96.9595 28.978 95.9102 30.0274 95.9102 31.3218C95.9102 32.6162 96.9595 33.6655 98.2539 33.6655Z" fill="#160A8B"/>
</svg>
