<svg width="120" height="120" viewBox="0 0 120 120" fill="none" xmlns="http://www.w3.org/2000/svg">
<path d="M117.648 9.375H96.7819V2.34375C96.7819 1.04953 95.7326 0 94.4381 0H83.1881C81.8936 0 80.8444 1.04953 80.8444 2.34375V9.375H59.9067C58.6122 9.375 57.5629 10.4245 57.5629 11.7188V28.8138L55.9296 27.1763C53.0027 24.2416 49.3767 22.2635 45.4275 21.3844C47.2851 19.2532 48.4139 16.4714 48.4139 13.429V12.1249C48.4139 5.43914 42.9747 0 36.289 0C29.6032 0 24.164 5.43914 24.164 12.1247V13.4288C24.164 16.5879 25.3795 19.4677 27.3661 21.6279C22.5026 23.0107 18.2315 26.201 15.5775 30.6248L0.990205 54.9389C-0.496435 57.4165 -0.279404 60.5946 1.52997 62.8472C2.85724 64.4995 4.81825 65.4382 6.93021 65.4382C6.9813 65.4382 7.03263 65.4377 7.08396 65.4366C9.25427 65.3899 11.2364 64.3596 12.5217 62.6102L21.7577 50.0391V59.6377C21.7577 59.7038 21.7622 59.7689 21.7676 59.8336C21.7622 59.8983 21.7577 59.9634 21.7577 60.0295V81.3281C21.7577 82.6223 22.807 83.6719 24.1015 83.6719C25.3959 83.6719 26.4452 82.6223 26.4452 81.3281V61.9814H46.1327V111.562C46.1327 113.63 44.4504 115.312 42.3827 115.312C40.3151 115.312 38.6327 113.63 38.6327 111.562V77.0121C38.6327 75.7179 37.5834 74.6684 36.289 74.6684C34.9945 74.6684 33.9452 75.7179 33.9452 77.0121V111.562C33.9452 113.63 32.2629 115.312 30.1952 115.312C28.1276 115.312 26.4452 113.63 26.4452 111.562V100.078C26.4452 98.7839 25.3959 97.7344 24.1015 97.7344C22.807 97.7344 21.7577 98.7839 21.7577 100.078V111.562C21.7577 116.215 25.5426 120 30.1952 120C32.5891 120 34.7519 118.996 36.289 117.389C37.826 118.996 39.9888 120 42.3827 120C47.0353 120 50.8202 116.215 50.8202 111.562V60.0298C50.8202 59.9637 50.8158 59.8985 50.8104 59.8338C50.8158 59.7691 50.8202 59.704 50.8202 59.6379V43.8248L54.832 47.8584C55.6446 48.6757 56.5715 49.3165 57.5629 49.7829V77.3438C57.5629 77.5399 57.5897 77.7293 57.6351 77.9112V86.7188C57.6351 88.013 58.6844 89.0625 59.9789 89.0625H63.1188L57.6068 117.206C57.472 117.893 57.652 118.605 58.0973 119.146C58.5426 119.686 59.2064 120 59.9069 120H70.338C71.4588 120 72.4228 119.206 72.6379 118.107L78.3262 89.0625H99.1856L104.874 118.107C105.09 119.206 106.054 120 107.174 120H117.605C118.306 120 118.969 119.687 119.415 119.146C119.86 118.605 120.04 117.893 119.905 117.206L114.393 89.0625H117.648C118.942 89.0625 119.991 88.013 119.991 86.7188V77.3438V11.7188C119.991 10.4245 118.942 9.375 117.648 9.375ZM85.5319 4.6875H92.0944V9.375H85.5319V4.6875ZM62.2504 33.2812V14.0625H83.1881H94.4381H115.304V75H62.2504V50.6916C64.3401 50.5741 66.4031 49.7848 68.0843 48.3108L74.249 42.9054C75.7247 41.6114 76.6052 39.7444 76.6647 37.7827C76.7243 35.8207 75.9586 33.9035 74.564 32.5226C72.0663 30.0492 68.1972 29.7645 65.3646 31.8455L62.6074 33.8714L62.2394 33.5025C62.246 33.4296 62.2504 33.3558 62.2504 33.2812ZM28.8518 12.1247C28.8518 8.02383 32.1881 4.6875 36.2892 4.6875C40.3903 4.6875 43.7266 8.02383 43.7266 12.1247V13.4288C43.7266 17.4816 40.4679 20.7851 36.4336 20.8627H36.1451C32.1105 20.7851 28.852 17.4816 28.852 13.4288V12.1247H28.8518ZM50.1384 36.4917C49.469 35.8188 48.4601 35.6159 47.5826 35.978C46.7053 36.3401 46.1327 37.1953 46.1327 38.1445V57.2939H26.4452V42.8906C26.4452 41.8777 25.7943 40.9793 24.8318 40.6636C23.8692 40.3472 22.8126 40.6868 22.2129 41.5029L8.74403 59.835C8.32778 60.4015 7.68583 60.7352 6.98294 60.7502C6.27653 60.7643 5.6245 60.4596 5.18435 59.9116C4.59841 59.1823 4.5281 58.1531 5.0095 57.3506L19.597 33.0366C22.3675 28.4189 27.434 25.5504 32.8193 25.5504H33.9454V33.2812C33.9454 34.5755 34.9947 35.625 36.2892 35.625C37.5836 35.625 38.6329 34.5755 38.6329 33.2812V25.5504H40.7158C45.2116 25.5504 49.436 27.3033 52.6108 30.4866L60.7115 38.6084C61.5297 39.4289 62.8249 39.5285 63.7587 38.842L68.1398 35.6231C69.1022 34.916 70.4168 35.0128 71.2654 35.8533C71.7461 36.3293 71.9997 36.964 71.9791 37.6404C71.9585 38.3168 71.6669 38.9348 71.1583 39.3811L64.9936 44.7865C63.0147 46.5216 60.0112 46.4187 58.1554 44.553L50.1384 36.4917ZM68.4087 115.312H62.7541L67.8954 89.0625H73.5499L68.4087 115.312ZM114.758 115.312H109.103L103.962 89.0625H109.617L114.758 115.312ZM115.304 84.375H62.3226V79.6875H115.304V84.375Z" fill="#160A8B"/>
<path d="M106.355 37.5H95.1055C93.811 37.5 92.7617 38.5495 92.7617 39.8438V43.7285H83.8555C82.561 43.7285 81.5117 44.778 81.5117 46.0723V51.4866H72.6055C71.311 51.4866 70.2617 52.5361 70.2617 53.8303V65.329C70.2617 66.6232 71.311 67.6727 72.6055 67.6727H83.8555H95.1055H106.355C107.65 67.6727 108.699 66.6232 108.699 65.329V39.8438C108.699 38.5495 107.65 37.5 106.355 37.5ZM74.9492 56.1741H81.5117V62.9852H74.9492V56.1741ZM86.1992 53.8303V48.416H92.7617V62.985H86.1992V53.8303ZM104.012 62.985H97.4492V46.0723V42.1875H104.012V62.985Z" fill="#160A8B"/>
<path d="M72.6055 23.4375C73.2219 23.4375 73.8266 23.1867 74.2625 22.7505C74.6984 22.3148 74.9469 21.7102 74.9469 21.0938C74.9469 20.4773 74.6984 19.8727 74.2625 19.4367C73.8266 19.0008 73.2219 18.75 72.6055 18.75C71.9867 18.75 71.382 19.0005 70.9461 19.4367C70.5102 19.8729 70.2617 20.4773 70.2617 21.0938C70.2617 21.7102 70.5102 22.3148 70.9461 22.7505C71.382 23.1867 71.9867 23.4375 72.6055 23.4375Z" fill="#160A8B"/>
<path d="M81.9805 23.4375H106.355C107.65 23.4375 108.699 22.388 108.699 21.0938C108.699 19.7995 107.65 18.75 106.355 18.75H81.9805C80.686 18.75 79.6367 19.7995 79.6367 21.0938C79.6367 22.388 80.686 23.4375 81.9805 23.4375Z" fill="#160A8B"/>
<path d="M106.355 28.125H85.1445C83.8501 28.125 82.8008 29.1745 82.8008 30.4688C82.8008 31.763 83.8501 32.8125 85.1445 32.8125H106.355C107.65 32.8125 108.699 31.763 108.699 30.4688C108.699 29.1745 107.65 28.125 106.355 28.125Z" fill="#160A8B"/>
<path d="M24.1016 93.0469C24.718 93.0469 25.3203 92.7961 25.7586 92.3599C26.1945 91.9242 26.4453 91.3195 26.4453 90.7031C26.4453 90.0867 26.1945 89.482 25.7586 89.0461C25.3227 88.6102 24.718 88.3594 24.1016 88.3594C23.4828 88.3594 22.8805 88.6099 22.4445 89.0461C22.0063 89.482 21.7578 90.0867 21.7578 90.7031C21.7578 91.3195 22.0063 91.9242 22.4445 92.3599C22.8805 92.7961 23.4852 93.0469 24.1016 93.0469Z" fill="#160A8B"/>
</svg>
