<svg width="120" height="120" viewBox="0 0 120 120" fill="none" xmlns="http://www.w3.org/2000/svg">
<path d="M60 95.1562C58.7062 95.1562 57.6562 96.2062 57.6562 97.5C57.6562 98.7938 58.7062 99.8438 60 99.8438C61.2938 99.8438 62.3438 98.7938 62.3438 97.5C62.3438 96.2062 61.2938 95.1562 60 95.1562Z" fill="#160A8B"/>
<path d="M117.656 76.4062H115.312V48.2812H117.656C118.951 48.2812 120 47.2317 120 45.9375C120 44.6433 118.951 43.5938 117.656 43.5938C111.278 43.5938 95.9768 43.5938 90.4688 43.5938V30.4688C90.4688 26.5917 87.3145 23.4375 83.4375 23.4375H74.8214C75.8555 21.2578 76.4062 18.8616 76.4062 16.4062C76.4062 7.35984 69.0464 0 60 0C50.9536 0 43.5938 7.35984 43.5938 16.4062C43.5938 18.8616 44.1445 21.2578 45.1786 23.4375H36.5625C32.6855 23.4375 29.5312 26.5917 29.5312 30.4688V43.5938C24.0066 43.5938 8.67188 43.5938 2.34375 43.5938C1.0493 43.5938 0 44.6433 0 45.9375C0 47.2317 1.0493 48.2812 2.34375 48.2812H4.6875V76.4062H2.34375C1.0493 76.4062 0 77.4558 0 78.75C0 80.0442 1.0493 81.0938 2.34375 81.0938H4.6875V117.656C4.6875 118.95 5.7368 120 7.03125 120C46.1445 120 73.4262 120 112.969 120C114.263 120 115.312 118.95 115.312 117.656V81.0938H117.656C118.951 81.0938 120 80.0442 120 78.75C120 77.4558 118.951 76.4062 117.656 76.4062ZM29.5312 115.312H9.375V81.0938H29.5312V115.312ZM29.5312 76.4062H9.375V48.2812H29.5312V76.4062ZM60 4.6875C66.4617 4.6875 71.7188 9.94453 71.7188 16.4062C71.7188 19.2654 70.6788 22.0158 68.7893 24.1594C68.7708 24.1788 68.7527 24.1983 68.7349 24.2182C66.513 26.7012 63.3293 28.125 60 28.125C56.6707 28.125 53.487 26.7012 51.2651 24.2182C51.2473 24.1983 51.2292 24.1788 51.2107 24.1594C49.3212 22.0158 48.2812 19.2654 48.2812 16.4062C48.2812 9.94453 53.5383 4.6875 60 4.6875ZM71.7188 115.312H62.3438V106.875C62.3438 105.581 61.2945 104.531 60 104.531C58.7055 104.531 57.6562 105.581 57.6562 106.875V115.312H48.2812V92.8125C48.2812 91.5202 49.3327 90.4688 50.625 90.4688H69.375C70.6673 90.4688 71.7188 91.5202 71.7188 92.8125V115.312ZM85.7812 45.9375V115.312H76.4062V92.8125C76.4062 88.9355 73.252 85.7812 69.375 85.7812H50.625C46.748 85.7812 43.5938 88.9355 43.5938 92.8125V115.312H34.2188V45.9375V30.4688C34.2188 29.1764 35.2702 28.125 36.5625 28.125H48.5227C51.5775 31.1149 55.7011 32.8125 60 32.8125C64.2989 32.8125 68.4225 31.1149 71.4773 28.125H83.4375C84.7298 28.125 85.7812 29.1764 85.7812 30.4688V45.9375ZM110.625 115.312H90.4688V81.0938H110.625V115.312ZM110.625 76.4062H90.4688V48.2812H110.625V76.4062Z" fill="#160A8B"/>
<path d="M103.594 52.9688H97.5C96.2055 52.9688 95.1562 54.0183 95.1562 55.3125C95.1562 56.6067 96.2055 57.6562 97.5 57.6562H103.594C104.888 57.6562 105.938 56.6067 105.938 55.3125C105.938 54.0183 104.888 52.9688 103.594 52.9688Z" fill="#160A8B"/>
<path d="M103.594 67.0312H97.5C96.2055 67.0312 95.1562 68.0808 95.1562 69.375C95.1562 70.6692 96.2055 71.7188 97.5 71.7188H103.594C104.888 71.7188 105.938 70.6692 105.938 69.375C105.938 68.0808 104.888 67.0312 103.594 67.0312Z" fill="#160A8B"/>
<path d="M103.594 85.7812H97.5C96.2055 85.7812 95.1562 86.8308 95.1562 88.125C95.1562 89.4192 96.2055 90.4688 97.5 90.4688H103.594C104.888 90.4688 105.938 89.4192 105.938 88.125C105.938 86.8308 104.888 85.7812 103.594 85.7812Z" fill="#160A8B"/>
<path d="M103.594 99.8438H97.5C96.2055 99.8438 95.1562 100.893 95.1562 102.188C95.1562 103.482 96.2055 104.531 97.5 104.531H103.594C104.888 104.531 105.938 103.482 105.938 102.188C105.938 100.893 104.888 99.8438 103.594 99.8438Z" fill="#160A8B"/>
<path d="M22.5 99.8438H16.4062C15.1118 99.8438 14.0625 100.893 14.0625 102.188C14.0625 103.482 15.1118 104.531 16.4062 104.531H22.5C23.7945 104.531 24.8438 103.482 24.8438 102.188C24.8438 100.893 23.7945 99.8438 22.5 99.8438Z" fill="#160A8B"/>
<path d="M22.5 85.7812H16.4062C15.1118 85.7812 14.0625 86.8308 14.0625 88.125C14.0625 89.4192 15.1118 90.4688 16.4062 90.4688H22.5C23.7945 90.4688 24.8438 89.4192 24.8438 88.125C24.8438 86.8308 23.7945 85.7812 22.5 85.7812Z" fill="#160A8B"/>
<path d="M22.5 67.0312H16.4062C15.1118 67.0312 14.0625 68.0808 14.0625 69.375C14.0625 70.6692 15.1118 71.7188 16.4062 71.7188H22.5C23.7945 71.7188 24.8438 70.6692 24.8438 69.375C24.8438 68.0808 23.7945 67.0312 22.5 67.0312Z" fill="#160A8B"/>
<path d="M22.5 52.9688H16.4062C15.1118 52.9688 14.0625 54.0183 14.0625 55.3125C14.0625 56.6067 15.1118 57.6562 16.4062 57.6562H22.5C23.7945 57.6562 24.8438 56.6067 24.8438 55.3125C24.8438 54.0183 23.7945 52.9688 22.5 52.9688Z" fill="#160A8B"/>
<path d="M45.9375 43.5938H41.25C39.9555 43.5938 38.9062 44.6433 38.9062 45.9375C38.9062 47.2317 39.9555 48.2812 41.25 48.2812H45.9375C47.232 48.2812 48.2812 47.2317 48.2812 45.9375C48.2812 44.6433 47.232 43.5938 45.9375 43.5938Z" fill="#160A8B"/>
<path d="M64.6875 43.5938H55.3125C54.018 43.5938 52.9688 44.6433 52.9688 45.9375C52.9688 47.2317 54.018 48.2812 55.3125 48.2812H64.6875C65.982 48.2812 67.0312 47.2317 67.0312 45.9375C67.0312 44.6433 65.982 43.5938 64.6875 43.5938Z" fill="#160A8B"/>
<path d="M78.75 43.5938H74.0625C72.768 43.5938 71.7188 44.6433 71.7188 45.9375C71.7188 47.2317 72.768 48.2812 74.0625 48.2812H78.75C80.0445 48.2812 81.0938 47.2317 81.0938 45.9375C81.0938 44.6433 80.0445 43.5938 78.75 43.5938Z" fill="#160A8B"/>
<path d="M45.9375 57.6562H41.25C39.9555 57.6562 38.9062 58.7058 38.9062 60C38.9062 61.2942 39.9555 62.3438 41.25 62.3438H45.9375C47.232 62.3438 48.2812 61.2942 48.2812 60C48.2812 58.7058 47.232 57.6562 45.9375 57.6562Z" fill="#160A8B"/>
<path d="M64.6875 57.6562H55.3125C54.018 57.6562 52.9688 58.7058 52.9688 60C52.9688 61.2942 54.018 62.3438 55.3125 62.3438H64.6875C65.982 62.3438 67.0312 61.2942 67.0312 60C67.0312 58.7058 65.982 57.6562 64.6875 57.6562Z" fill="#160A8B"/>
<path d="M78.75 57.6562H74.0625C72.768 57.6562 71.7188 58.7058 71.7188 60C71.7188 61.2942 72.768 62.3438 74.0625 62.3438H78.75C80.0445 62.3438 81.0938 61.2942 81.0938 60C81.0938 58.7058 80.0445 57.6562 78.75 57.6562Z" fill="#160A8B"/>
<path d="M45.9375 71.7188H41.25C39.9555 71.7188 38.9062 72.7683 38.9062 74.0625C38.9062 75.3567 39.9555 76.4062 41.25 76.4062H45.9375C47.232 76.4062 48.2812 75.3567 48.2812 74.0625C48.2812 72.7683 47.232 71.7188 45.9375 71.7188Z" fill="#160A8B"/>
<path d="M64.6875 71.7188H55.3125C54.018 71.7188 52.9688 72.7683 52.9688 74.0625C52.9688 75.3567 54.018 76.4062 55.3125 76.4062H64.6875C65.982 76.4062 67.0312 75.3567 67.0312 74.0625C67.0312 72.7683 65.982 71.7188 64.6875 71.7188Z" fill="#160A8B"/>
<path d="M78.75 71.7188H74.0625C72.768 71.7188 71.7188 72.7683 71.7188 74.0625C71.7188 75.3567 72.768 76.4062 74.0625 76.4062H78.75C80.0445 76.4062 81.0938 75.3567 81.0938 74.0625C81.0938 72.7683 80.0445 71.7188 78.75 71.7188Z" fill="#160A8B"/>
<path d="M64.6875 14.0625H62.3438V11.7188C62.3438 10.4245 61.2945 9.375 60 9.375C58.7055 9.375 57.6562 10.4245 57.6562 11.7188V14.0625H55.3125C54.018 14.0625 52.9688 15.112 52.9688 16.4062C52.9688 17.7005 54.018 18.75 55.3125 18.75H57.6562V21.0938C57.6562 22.388 58.7055 23.4375 60 23.4375C61.2945 23.4375 62.3438 22.388 62.3438 21.0938V18.75H64.6875C65.982 18.75 67.0312 17.7005 67.0312 16.4062C67.0312 15.112 65.982 14.0625 64.6875 14.0625Z" fill="#160A8B"/>
</svg>
