<svg width="120" height="120" viewBox="0 0 120 120" fill="none" xmlns="http://www.w3.org/2000/svg">
<g clip-path="url(#clip0)">
<path d="M117.656 67.7106H104.291C108.949 64.1565 115.018 59.0845 117.297 55.2301C119.166 52.066 120 49.01 120 45.3204C120 41.0541 118.546 37.4231 115.796 34.8203C113.278 32.4362 109.838 31.1243 106.11 31.1243C101.629 31.1243 98.7919 32.9187 97.0716 34.7205C95.355 32.9187 92.5215 31.1243 88.0491 31.1243C86.3142 31.1243 84.6415 31.4081 83.0961 31.9528L77.6148 17.1112V8.67188C77.6148 7.37732 76.5656 6.32812 75.2711 6.32812H48.9204C47.6258 6.32812 46.5766 7.37732 46.5766 8.67188V16.994L39.343 31.9684C39.3348 31.9867 39.1105 32.4683 39.1105 32.9819V37.5613C37.522 36.7493 35.8549 36.189 34.2683 35.8768C35.9126 32.7667 36.254 29.036 35.0758 25.6302C34.8405 24.9518 34.3076 24.418 33.6283 24.1818C29.0122 22.5815 23.7983 23.7799 20.3458 27.236C18.0891 29.4946 16.7844 32.4701 16.6087 35.5829C13.3283 35.4685 8.91914 36.6769 5.53169 39.3201C1.20124 42.6984 -0.684747 47.8043 0.222541 53.6975C1.01996 58.8785 1.86225 63.8818 3.23005 68.0548C2.55805 68.4668 2.10944 69.2075 2.10944 70.0543V101.577C2.10944 108.266 7.54768 113.709 14.2329 113.709H107.878C114.562 113.709 120 108.266 120 101.577V70.0543C120 68.7598 118.951 67.7106 117.656 67.7106ZM94.4166 38.8458C92.7485 42.6764 94.0376 47.2769 97.6502 49.6335C98.0457 49.8908 98.4889 50.0144 98.9283 50.0144C99.6937 50.0144 100.444 49.6399 100.894 48.9505C101.601 47.8665 101.295 46.4145 100.211 45.7068C98.3543 44.4956 97.8242 42.0007 99.0254 40.1386C99.0711 40.069 99.1142 39.9967 99.1526 39.9207C99.1544 39.9179 99.1563 39.9152 99.1581 39.9115C99.1636 39.8996 99.17 39.8877 99.1755 39.8758C99.1837 39.8602 99.1911 39.8456 99.1984 39.8291C99.1984 39.8282 99.1993 39.8273 99.1993 39.8264C99.2066 39.8117 99.213 39.7971 99.2195 39.7824C99.8722 38.2974 101.636 35.8118 106.11 35.8118C110.691 35.8118 115.313 38.7515 115.313 45.3204C115.313 48.1998 114.718 50.3796 113.261 52.8452C110.795 57.0172 101.712 63.9267 97.0735 67.1988C92.4354 63.913 83.3579 56.9843 80.9116 52.8452C79.4514 50.3742 78.8554 48.1934 78.8554 45.3204C78.8554 38.7515 83.4724 35.8118 88.0491 35.8118C91.659 35.8118 93.5002 37.4387 94.4166 38.8458ZM89.8509 67.7106H83.3241V62.3602C85.4728 64.281 87.7946 66.1405 89.8509 67.7106ZM76.876 55.2301C77.3292 55.9973 77.9298 56.8103 78.6356 57.6489V67.7106H72.5776V35.3311H77.8556C75.4395 37.8891 74.1679 41.3269 74.1679 45.3204C74.1679 49.0045 75.0028 52.0606 76.876 55.2301ZM75.4121 24.678L77.6157 30.6436H73.473L75.4121 24.678ZM51.2641 11.0156H72.9273V15.1868H51.2641V11.0156ZM49.5988 21.5167L50.3916 19.8752H72.0448L68.5438 30.6436H45.1896L49.5988 21.5167ZM43.798 35.3311H67.8901V46.1124H43.798V35.3311ZM43.798 50.7999H67.8901V67.7106H43.798V50.7999ZM23.6628 30.5493C25.6055 28.6047 28.3155 27.7918 30.9522 28.3044C31.4658 30.9467 30.6538 33.6612 28.7101 35.6076C28.5004 35.8164 28.2789 36.0159 28.0482 36.2018C27.7103 36.3391 27.3432 36.4755 26.9743 36.6019C25.5067 37.1008 24.3348 37.3251 23.8239 37.3251C23.2902 37.3251 22.3243 37.1173 21.2916 36.8005C21.1533 34.487 22.0011 32.2119 23.6628 30.5493ZM4.85603 52.9843C4.19959 48.7244 5.3971 45.3708 8.41468 43.017C11.8955 40.3015 16.4786 39.9765 17.5828 40.4407C19.3049 41.1658 21.9718 42.0126 23.8239 42.0126C25.3922 42.0126 27.4174 41.402 28.4849 41.0385C29.0369 40.8508 29.5679 40.6494 30.0642 40.4407C31.2269 39.9518 35.6828 40.3372 39.1105 43.104V67.7106H8.0741C6.58729 63.7198 5.69923 58.4665 4.85603 52.9843ZM115.313 88.3649H103.305C102.01 88.3649 100.961 89.415 100.961 90.7095C100.961 92.0032 102.01 93.0533 103.305 93.0533H115.313V101.577C115.313 105.681 111.977 109.021 107.878 109.021H14.2329C10.1331 109.021 6.79786 105.681 6.79786 101.577V93.0533H77.9417C79.2362 93.0533 80.2854 92.0032 80.2854 90.7095C80.2854 89.415 79.2362 88.3649 77.9417 88.3649H6.79786V72.3981H115.313V88.3649Z" fill="#160A8B"/>
<path d="M90.3762 93.0523C90.2242 93.0523 90.0685 93.0386 89.9193 93.0075C89.7692 92.9773 89.6208 92.9333 89.4808 92.8747C89.3407 92.8161 89.2015 92.7429 89.0752 92.6587C88.9461 92.5717 88.8271 92.4737 88.7191 92.3657C88.611 92.2577 88.5131 92.1386 88.4288 92.0096C88.3446 91.8832 88.2714 91.7468 88.2128 91.6058C88.1542 91.463 88.1102 91.3156 88.0791 91.1682C88.0489 91.0153 88.0352 90.8606 88.0352 90.7086C88.0352 90.5557 88.0489 90.401 88.0791 90.2517C88.1102 90.1016 88.1542 89.9533 88.2128 89.8132C88.2714 89.6704 88.3446 89.534 88.4288 89.4076C88.5131 89.2785 88.611 89.1595 88.7191 89.0515C88.8271 88.9435 88.9461 88.8455 89.0752 88.7613C89.2015 88.6761 89.3407 88.6038 89.4808 88.5452C89.6218 88.4866 89.7692 88.4417 89.9193 88.4115C90.2214 88.3511 90.5336 88.3511 90.8358 88.4115C90.9859 88.4417 91.1306 88.4866 91.2743 88.5452C91.4144 88.6038 91.5508 88.6761 91.679 88.7613C91.8062 88.8455 91.9252 88.9435 92.036 89.0515C92.1431 89.1595 92.242 89.2785 92.3262 89.4076C92.4105 89.534 92.4828 89.6704 92.5414 89.8132C92.6 89.9542 92.6448 90.1016 92.675 90.2517C92.7062 90.4019 92.7199 90.5566 92.7199 90.7086C92.7199 91.3247 92.4709 91.9299 92.0351 92.3657C91.9252 92.4737 91.8062 92.5717 91.679 92.6587C91.5499 92.7429 91.4144 92.8152 91.2734 92.8738C91.1333 92.9324 90.985 92.9773 90.8358 93.0075C90.6829 93.0386 90.5291 93.0523 90.3762 93.0523Z" fill="#160A8B"/>
</g>
<defs>
<clipPath id="clip0">
<rect width="120" height="120" fill="white"/>
</clipPath>
</defs>
</svg>
