<svg width="120" height="120" viewBox="0 0 120 120" fill="none" xmlns="http://www.w3.org/2000/svg">
<path d="M59.9961 4.6875C58.7019 4.6875 57.6523 5.7368 57.6523 7.03125V20.9749C57.6523 22.2694 58.7019 23.3187 59.9961 23.3187C61.2903 23.3187 62.3398 22.2694 62.3398 20.9749V7.03125C62.3398 5.7368 61.2903 4.6875 59.9961 4.6875Z" fill="#160A8B"/>
<path d="M46.7174 24.6987L41.1098 19.096C40.1936 18.181 38.71 18.1817 37.795 19.0974C36.8802 20.0131 36.8809 21.4969 37.7964 22.4119L43.4043 28.0146C43.862 28.4719 44.4616 28.7004 45.0609 28.7004C45.6611 28.7004 46.2611 28.4712 46.7188 28.0132C47.6336 27.0975 47.6329 25.6137 46.7174 24.6987Z" fill="#160A8B"/>
<path d="M82.2005 19.1017C81.2848 18.1865 79.8007 18.1874 78.8857 19.1029L72.9239 25.0694C72.0091 25.9851 72.0099 27.4689 72.9253 28.3839C73.3831 28.8414 73.9828 29.0699 74.5821 29.0699C75.1824 29.0699 75.7824 28.8407 76.2401 28.3827L82.2019 22.4162C83.1167 21.5005 83.116 20.0167 82.2005 19.1017Z" fill="#160A8B"/>
<path d="M104.648 66.5624H102.757C104.301 64.5503 105.221 62.0362 105.221 59.3102V56.0024C105.221 49.4186 99.8648 44.0624 93.2812 44.0624C86.6977 44.0624 81.3415 49.4186 81.3415 56.0022V58.5735L63.7092 40.941C62.7307 39.9627 61.2916 39.6487 60.0002 40.1151C58.7093 39.6487 57.2698 39.9627 56.291 40.9413L38.659 58.5735V56.0022C38.6585 49.4186 33.3023 44.0624 26.7188 44.0624C20.1352 44.0624 14.779 49.4186 14.779 56.0022V59.3099C14.779 62.0362 15.6994 64.5501 17.243 66.5622H15.3516C6.88664 66.5624 0 73.4491 0 81.914V112.969C0 114.263 1.04953 115.312 2.34375 115.312H12.2461C12.4805 115.312 12.7064 115.277 12.9199 115.213C13.1334 115.277 13.3594 115.312 13.5938 115.312H39.8438C41.138 115.312 42.1875 114.263 42.1875 112.969V105C42.1875 103.705 41.138 102.656 39.8438 102.656C38.5495 102.656 37.5 103.705 37.5 105V110.625H15.9375V83.9186C15.9375 82.6241 14.888 81.5749 13.5938 81.5749C12.2995 81.5749 11.25 82.6241 11.25 83.9186V110.625H4.6875V81.914C4.6875 76.0338 9.47133 71.2499 15.3516 71.2499H31.6406C32.2856 71.2499 32.8697 70.9891 33.2934 70.5677C33.2951 70.566 33.2965 70.5651 33.2981 70.5637L57.6424 46.2191C57.4828 51.0866 55.9688 55.7748 53.2392 59.8288L37.8998 82.6096C37.6395 82.9966 37.5002 83.4524 37.5002 83.9186V86.4843C37.5002 87.7788 38.5498 88.8281 39.844 88.8281C41.1382 88.8281 42.1877 87.7788 42.1877 86.4843V84.6339L57.1275 62.4466C58.2689 60.7513 59.2261 58.9602 60.0002 57.1009C60.7744 58.9602 61.7313 60.7513 62.873 62.4466L77.8125 84.6339V112.969C77.8125 114.263 78.862 115.312 80.1562 115.312H106.406C106.641 115.312 106.867 115.277 107.08 115.213C107.294 115.277 107.52 115.312 107.754 115.312H117.656C118.95 115.312 120 114.263 120 112.969V81.914C120 73.4491 113.113 66.5624 104.648 66.5624ZM33.971 59.3099C33.971 63.3091 30.7179 66.5624 26.7188 66.5624C22.7196 66.5624 19.4665 63.3091 19.4665 59.3102V56.0024C19.4665 52.0033 22.7198 48.7499 26.7188 48.7499C30.7177 48.7499 33.971 52.0033 33.971 56.0022V59.3099ZM86.029 56.0022C86.029 52.0033 89.2823 48.7499 93.2812 48.7499C97.2802 48.7499 100.534 52.0033 100.534 56.0022V59.3099C100.534 63.3091 97.2804 66.5624 93.2812 66.5624C89.2821 66.5624 86.029 63.3091 86.029 59.3102V56.0022ZM115.312 110.625H108.75V93.2812C108.75 91.9867 107.7 90.9374 106.406 90.9374C105.112 90.9374 104.062 91.9867 104.062 93.2812V110.625H82.5V83.9186C82.5 83.4522 82.3608 82.9963 82.1004 82.6096L66.761 59.8291C64.0315 55.7751 62.5174 51.0869 62.3578 46.2194L86.7021 70.5637C86.733 70.5946 86.7621 70.6206 86.7902 70.6438C87.2058 71.0195 87.7552 71.2504 88.3594 71.2504H104.648C110.529 71.2504 115.312 76.0342 115.312 81.9145V110.625Z" fill="#160A8B"/>
<path d="M108.063 82.2612C107.627 81.8252 107.023 81.5745 106.406 81.5745C105.79 81.5745 105.185 81.8252 104.749 82.2612C104.313 82.6971 104.062 83.3018 104.062 83.9182C104.062 84.5346 104.313 85.1393 104.749 85.5752C105.185 86.0112 105.79 86.262 106.406 86.262C107.023 86.262 107.627 86.0112 108.063 85.5752C108.499 85.1393 108.75 84.5346 108.75 83.9182C108.75 83.3018 108.499 82.6995 108.063 82.2612Z" fill="#160A8B"/>
<path d="M41.5005 94.6711C41.0648 94.2352 40.4602 93.9844 39.8438 93.9844C39.2273 93.9844 38.6227 94.2352 38.1867 94.6711C37.7508 95.107 37.5 95.7117 37.5 96.3281C37.5 96.9445 37.7505 97.5492 38.1867 97.9852C38.6229 98.4211 39.2273 98.6719 39.8438 98.6719C40.4602 98.6719 41.0648 98.4211 41.5005 97.9852C41.9365 97.5492 42.1875 96.9445 42.1875 96.3281C42.1875 95.7117 41.9367 95.107 41.5005 94.6711Z" fill="#160A8B"/>
</svg>
