<svg width="443" height="1080" viewBox="0 0 443 1080" fill="none" xmlns="http://www.w3.org/2000/svg">
<path d="M2 898L148.5 813L442.5 983.5V994L296.5 1078.5L2 908.5V898Z" fill="white"/>
<path d="M2 898L148.5 813L442.5 983.5M2 898L296.5 1068.5M2 898V908.5L296.5 1078.5M442.5 983.5L296.5 1068.5M442.5 983.5V994L296.5 1078.5M296.5 1068.5V1078.5" stroke="#C4C4C4"/>
<path d="M209 938V893L222 900.5L234 907V939.5L222 945.5L209 938Z" fill="white"/>
<path d="M222 945.5L209 938V893L222 900.5M222 945.5V900.5M222 945.5L234 939.5V907L222 900.5" stroke="#FF671B"/>
<path d="M1 763L147.5 678L441.5 848.5V859L295.5 943.5L1 773.5V763Z" fill="white"/>
<path d="M1 763L147.5 678L441.5 848.5M1 763L295.5 933.5M1 763V773.5L295.5 943.5M441.5 848.5L295.5 933.5M441.5 848.5V859L295.5 943.5M295.5 933.5V943.5" stroke="#C4C4C4"/>
<path d="M221.5 805L210 812.5L221.5 819.5L233 812.5L221.5 805Z" fill="white" stroke="#FF671B"/>
<path d="M209 801V756L222 763.5L234 770V802.5L222 808.5L209 801Z" fill="white"/>
<path d="M222 808.5L209 801V756L222 763.5M222 808.5V763.5M222 808.5L234 802.5V770L222 763.5" stroke="#FF671B"/>
<path d="M1 626L147.5 541L441.5 711.5V722L295.5 806.5L1 636.5V626Z" fill="white"/>
<path d="M1 626L147.5 541L441.5 711.5M1 626L295.5 796.5M1 626V636.5L295.5 806.5M441.5 711.5L295.5 796.5M441.5 711.5V722L295.5 806.5M295.5 796.5V806.5" stroke="#C4C4C4"/>
<path d="M221.5 669L210 676.5L221.5 683.5L233 676.5L221.5 669Z" fill="white" stroke="#FF671B"/>
<path d="M209 666V621L222 628.5L234 635V667.5L222 673.5L209 666Z" fill="white"/>
<path d="M222 673.5L209 666V621L222 628.5M222 673.5V628.5M222 673.5L234 667.5V635L222 628.5" stroke="#FF671B"/>
<path d="M1 490L147.5 405L441.5 575.5V586L295.5 670.5L1 500.5V490Z" fill="white"/>
<path d="M1 490L147.5 405L441.5 575.5M1 490L295.5 660.5M1 490V500.5L295.5 670.5M441.5 575.5L295.5 660.5M441.5 575.5V586L295.5 670.5M295.5 660.5V670.5" stroke="#C4C4C4"/>
<path d="M221.5 534L210 541.5L221.5 548.5L233 541.5L221.5 534Z" fill="white" stroke="#FF671B"/>
<path d="M209 530V485L222 492.5L234 499V531.5L222 537.5L209 530Z" fill="white"/>
<path d="M222 537.5L209 530V485L222 492.5M222 537.5V492.5M222 537.5L234 531.5V499L222 492.5" stroke="#FF671B"/>
<path d="M1 355L147.5 270L441.5 440.5V451L295.5 535.5L1 365.5V355Z" fill="white"/>
<path d="M1 355L147.5 270L441.5 440.5M1 355L295.5 525.5M1 355V365.5L295.5 535.5M441.5 440.5L295.5 525.5M441.5 440.5V451L295.5 535.5M295.5 525.5V535.5" stroke="#C4C4C4"/>
<path d="M221.5 399L210 406.5L221.5 413.5L233 406.5L221.5 399Z" fill="white" stroke="#FF671B"/>
<path d="M209 395V350L222 357.5L234 364V396.5L222 402.5L209 395Z" fill="white"/>
<path d="M222 402.5L209 395V350L222 357.5M222 402.5V357.5M222 402.5L234 396.5V364L222 357.5" stroke="#FF671B"/>
<path d="M1 220L147.5 135L441.5 305.5V316L295.5 400.5L1 230.5V220Z" fill="white"/>
<path d="M1 220L147.5 135L441.5 305.5M1 220L295.5 390.5M1 220V230.5L295.5 400.5M441.5 305.5L295.5 390.5M441.5 305.5V316L295.5 400.5M295.5 390.5V400.5" stroke="#C4C4C4"/>
<path d="M221.5 264L210 271.5L221.5 278.5L233 271.5L221.5 264Z" fill="white" stroke="#FF671B"/>
<path d="M209 260.5V215.5L222 223L234 229.5V262L222 268L209 260.5Z" fill="white"/>
<path d="M222 268L209 260.5V215.5L222 223M222 268V223M222 268L234 262V229.5L222 223" stroke="#FF671B"/>
<path d="M1 86L147.5 1L441.5 171.5V182L295.5 266.5L1 96.5V86Z" fill="white"/>
<path d="M1 86L147.5 1L441.5 171.5M1 86L295.5 256.5M1 86V96.5L295.5 266.5M441.5 171.5L295.5 256.5M441.5 171.5V182L295.5 266.5M295.5 256.5V266.5" stroke="#C4C4C4"/>
<path d="M209 274V340" stroke="#FF671B" stroke-dasharray="6 4"/>
<path d="M221 279V345" stroke="#FF671B" stroke-dasharray="6 4"/>
<path d="M233 274V353" stroke="#FF671B" stroke-dasharray="6 4"/>
<path d="M209 408V474" stroke="#FF671B" stroke-dasharray="6 4"/>
<path d="M221 413V479" stroke="#FF671B" stroke-dasharray="6 4"/>
<path d="M233 408V487" stroke="#FF671B" stroke-dasharray="6 4"/>
<path d="M209 543V609" stroke="#FF671B" stroke-dasharray="6 4"/>
<path d="M221 548V614" stroke="#FF671B" stroke-dasharray="6 4"/>
<path d="M233 543V622" stroke="#FF671B" stroke-dasharray="6 4"/>
<path d="M209 679V745" stroke="#FF671B" stroke-dasharray="6 4"/>
<path d="M221 684V750" stroke="#FF671B" stroke-dasharray="6 4"/>
<path d="M233 679V758" stroke="#FF671B" stroke-dasharray="6 4"/>
<path d="M209 815V881" stroke="#FF671B" stroke-dasharray="6 4"/>
<path d="M221 820V886" stroke="#FF671B" stroke-dasharray="6 4"/>
<path d="M233 815V894" stroke="#FF671B" stroke-dasharray="6 4"/>
<path d="M119 151.5L148 134.5L323.5 237" stroke="#C4C4C4" stroke-dasharray="6 4"/>
<path d="M119 288L148 271L323.5 373.5" stroke="#C4C4C4" stroke-dasharray="6 4"/>
<path d="M119 422L148 405L323.5 507.5" stroke="#C4C4C4" stroke-dasharray="6 4"/>
<path d="M119 558L148 541L323.5 643.5" stroke="#C4C4C4" stroke-dasharray="6 4"/>
<path d="M119 695L148 678L323.5 780.5" stroke="#C4C4C4" stroke-dasharray="6 4"/>
<path d="M119 830L148 813L323.5 915.5" stroke="#C4C4C4" stroke-dasharray="6 4"/>
<path d="M221.5 119.5L210 127L221.5 134L233 127L221.5 119.5Z" stroke="#FF671B"/>
<path d="M209 128V204" stroke="#FF671B" stroke-dasharray="6 4"/>
<path d="M221 134V210" stroke="#FF671B" stroke-dasharray="6 4"/>
<path d="M233 128V219" stroke="#FF671B" stroke-dasharray="6 4"/>
</svg>
