<svg width="55" height="55" viewBox="0 0 55 55" fill="none" xmlns="http://www.w3.org/2000/svg">
<path d="M11.2883 21.7389C17.0307 21.7389 21.6859 17.1172 21.6859 11.4161C21.6859 5.71494 17.0307 1.09326 11.2883 1.09326C5.54581 1.09326 0.890625 5.71494 0.890625 11.4161C0.890625 17.1172 5.54581 21.7389 11.2883 21.7389Z" fill="white"/>
<path d="M54.2271 42.601C54.2314 42.5369 54.2314 42.4726 54.2271 42.4085C54.1513 40.2422 53.449 38.1444 52.2054 36.3688L51.7721 35.7191C49.8589 33.2389 48.7503 30.233 48.5951 27.1048C48.5783 24.0812 49.5975 21.143 51.4833 18.7791C51.724 18.5144 51.9406 18.2498 52.1332 17.9851C53.6792 15.8305 54.4114 13.198 54.1999 10.5548C53.9884 7.91167 52.8468 5.42898 50.9779 3.54756C48.855 1.44482 45.9875 0.265137 42.9991 0.265137C40.0107 0.265137 37.1432 1.44482 35.0204 3.54756C33.1007 5.464 31.9462 8.01471 31.7734 10.7214C31.6006 13.4281 32.4213 16.1049 34.0817 18.2498L34.2261 18.4423C36.2072 20.8572 37.2877 23.8852 37.2828 27.0085C37.4409 28.3888 37.3084 29.7869 36.8939 31.113C36.4794 32.439 35.792 33.6638 34.876 34.7085C33.8184 35.6275 32.581 36.3161 31.2424 36.7304C29.9039 37.1447 28.4937 37.2756 27.1018 37.1148C23.9593 37.1233 20.909 36.0531 18.4612 34.0829L18.2445 33.9144C16.2499 32.3594 13.794 31.5128 11.2646 31.5082C9.78672 31.5033 8.32234 31.7897 6.95531 32.3513C5.58828 32.9128 4.34544 33.7384 3.29793 34.7807C2.2449 35.8154 1.40853 37.0493 0.837614 38.4106C0.266694 39.7719 -0.0273437 41.2332 -0.0273438 42.7093C-0.0273437 44.1854 0.266694 45.6467 0.837614 47.008C1.40853 48.3692 2.2449 49.6032 3.29793 50.6379C4.35028 51.6787 5.59792 52.5015 6.96921 53.059C8.3405 53.6164 9.80843 53.8976 11.2887 53.8863C13.6526 53.9483 15.9762 53.2665 17.9317 51.9372L18.7018 51.3357C21.1024 49.4485 24.072 48.4306 27.1259 48.4482C30.2742 48.5971 33.3035 49.6961 35.8146 51.6004L36.4404 52.0094H36.5608C38.7384 53.5106 41.371 54.2068 44.0063 53.9785C46.6416 53.7502 49.1151 52.6115 51.0019 50.7582L51.5315 50.2288L51.9888 49.531C52.8913 48.3449 53.5387 46.9849 53.8902 45.5366L54.0105 45.1035C54.0268 44.831 54.0268 44.5578 54.0105 44.2854V44.0447C54.0381 43.6522 54.0381 43.2582 54.0105 42.8657L54.2271 42.601Z" fill="#FF671B"/>
</svg>
