<svg width="625" height="1141" viewBox="0 0 625 1141" fill="none" xmlns="http://www.w3.org/2000/svg">
<path d="M221 910.5V1084L312.5 1140M312.5 1140L404 1084V910.5M312.5 1140V963" stroke="#C4C4C4"/>
<path d="M223 1085.5L313 1031.5L403 1085.5" stroke="#C4C4C4" stroke-dasharray="6 4"/>
<path d="M129 523V684L312.5 794.5M312.5 794.5V632.5M312.5 794.5L497 684V523" stroke="#C4C4C4"/>
<path d="M173 712.5V879L313 964M313 964V796M313 964L453 879V712.5" stroke="#C4C4C4"/>
<path d="M175 880.5L312 798L450 880.5" stroke="#C4C4C4" stroke-dasharray="6 4"/>
<path d="M222 883.5L312.5 830L403.5 883.5M222 883.5V907M222 883.5L312.5 936.5L403.5 883.5M403.5 883.5V907" stroke="#C4C4C4" stroke-dasharray="6 4"/>
<path d="M131 685L312 576.5L494.5 685" stroke="#C4C4C4" stroke-dasharray="6 4"/>
<path d="M173 688L313 605L452.5 688M173 688V710.5M173 688L313 770L452.5 688M452.5 688V710.5" stroke="#C4C4C4" stroke-dasharray="6 4"/>
<path d="M75 362.5V489L313 630M313 630L551 489V362.5M313 630V501" stroke="#C4C4C4"/>
<path d="M130 490L312 382L496 492.5M130 490V520.5M130 490L312 600.5L496 492.5M496 492.5V520.5" stroke="#C4C4C4" stroke-dasharray="6 4"/>
<path d="M1 189L313 1L624 189M1 189L314 372M1 189V318L314 502M624 189L314 372M624 189V318L314 502M314 372V502" stroke="#C4C4C4"/>
<path d="M312.5 2V132M312.5 132L2 317M312.5 132L623 317" stroke="#C4C4C4" stroke-dasharray="6 4"/>
<path d="M311 178.5L76 320M311 178.5L548.5 320M311 178.5V348M76 320V359M76 320L311 462.5L548.5 320M548.5 320V359M311 348L76 489.5M311 348L546 489.5" stroke="#C4C4C4" stroke-dasharray="6 4"/>
</svg>
