<svg width="140" height="140" viewBox="0 0 140 140" fill="none" xmlns="http://www.w3.org/2000/svg">
<path d="M49.0867 92.6741L39.1363 90.4915V88.458C42.6429 85.7436 44.9069 81.4971 44.9069 76.7297V67.0541C44.9069 58.8778 38.2547 52.2256 30.0784 52.2256C21.9021 52.2256 15.2499 58.8778 15.2499 67.0541V76.7297C15.2499 81.5288 17.5435 85.8004 21.0897 88.5124V90.4896L11.0797 92.6782C4.65938 94.0818 0 99.8702 0 106.442V137.265C0 138.775 1.22445 140 2.73438 140H57.4219C58.9318 140 60.1562 138.775 60.1562 137.265V132.207C60.1562 130.697 58.9318 129.472 57.4219 129.472C55.912 129.472 54.6875 130.697 54.6875 132.207V134.531H5.46875V106.442C5.46875 102.421 8.31961 98.8795 12.2473 98.0209L24.4079 95.362C25.6635 95.0875 26.5582 93.9759 26.5582 92.6905V91.1325C27.6872 91.4084 28.8654 91.5582 30.0781 91.5582C31.3157 91.5582 32.5175 91.4034 33.6675 91.1166V92.6908C33.6675 93.9751 34.5617 95.0866 35.8159 95.3617L47.9147 98.0157C51.8391 98.8765 54.6875 102.418 54.6875 106.435V109.831C54.6875 111.341 55.912 112.565 57.4219 112.565C58.9318 112.565 60.1562 111.341 60.1562 109.831V106.435C60.1562 99.8688 55.501 94.0812 49.0867 92.6741ZM20.7184 76.7297V67.0541C20.7184 61.893 24.917 57.6943 30.0781 57.6943C35.2393 57.6943 39.4379 61.893 39.4379 67.0541V76.7297C39.4379 81.8908 35.2393 86.0895 30.0781 86.0895C24.917 86.0895 20.7184 81.8908 20.7184 76.7297Z" fill="#160A8B"/>
<path d="M124.75 76.7298V72.7344H131.797C136.32 72.7344 140 69.0545 140 64.5312V38.2812C140 33.758 136.32 30.0781 131.797 30.0781H119.961C118.451 30.0781 117.226 31.3026 117.226 32.8125C117.226 34.3224 118.451 35.5469 119.961 35.5469H131.797C133.305 35.5469 134.531 36.7735 134.531 38.2812V64.5312C134.531 66.039 133.305 67.2656 131.797 67.2656H124.75V67.0545C124.75 58.8782 118.098 52.226 109.922 52.226C101.746 52.226 95.0934 58.8782 95.0934 67.0545V67.2656H85.8594C84.3495 67.2656 83.125 68.4901 83.125 70V74.3359L76.8554 68.0662C76.3424 67.5538 75.647 67.2656 74.9219 67.2656H70.5469C69.0391 67.2656 67.8125 66.039 67.8125 64.5312V38.2812C67.8125 36.7735 69.0391 35.5469 70.5469 35.5469H97.8277C99.3377 35.5469 100.562 34.3224 100.562 32.8125C100.562 31.3026 99.3377 30.0781 97.8277 30.0781H92.8777V8.20312C92.8777 3.67992 89.1978 0 84.6746 0H8.20312C3.67992 0 0 3.67992 0 8.20312V36.9141C0 41.4373 3.67992 45.1172 8.20312 45.1172H43.7043V50.9504C43.7043 52.0565 44.3707 53.0534 45.3923 53.4764C45.7305 53.6167 46.0857 53.6848 46.4382 53.6848C47.1496 53.6848 47.8491 53.407 48.3722 52.8839L56.1392 45.1172H62.3438V64.5312C62.3438 69.0545 66.0237 72.7344 70.5469 72.7344H73.789L83.9256 82.871C84.4487 83.3941 85.1482 83.6719 85.8596 83.6719C86.2118 83.6719 86.5673 83.6038 86.9055 83.4638C87.9271 83.0405 88.5935 82.0436 88.5935 80.9375V72.7344H95.0931V76.7298C95.0931 81.5289 97.3867 85.8006 100.933 88.5125V90.4898L90.9229 92.6784C84.5031 94.0819 79.8438 99.8703 79.8438 106.442V137.266C79.8438 138.776 81.0682 140 82.5781 140H137.266C138.776 140 140 138.776 140 137.266V106.436C140 99.8689 135.345 94.0814 128.93 92.6743L118.98 90.4917V88.4581C122.487 85.7434 124.75 81.4972 124.75 76.7298ZM55.0066 39.6484C54.2814 39.6484 53.5861 39.9366 53.0731 40.4493L49.1731 44.3494V42.3828C49.1731 40.8729 47.9486 39.6484 46.4387 39.6484H8.20312C6.69539 39.6484 5.46875 38.4218 5.46875 36.9141V8.20312C5.46875 6.69539 6.69539 5.46875 8.20312 5.46875H84.6746C86.1823 5.46875 87.4089 6.69539 87.4089 8.20312V30.0781H70.5469C66.0237 30.0781 62.3438 33.758 62.3438 38.2812V39.6484H55.0066ZM106.402 91.1329C107.531 91.4088 108.709 91.5586 109.922 91.5586C111.159 91.5586 112.361 91.4039 113.511 91.117V92.2056L109.957 101.893L106.402 92.2056V91.1329ZM109.922 57.6945C115.083 57.6945 119.282 61.8931 119.282 67.0543V69.1291H115.249C109.997 69.1291 105.044 67.1948 101.199 63.6664C102.56 60.1757 105.955 57.6945 109.922 57.6945ZM100.562 70.1179C104.866 73.0311 109.937 74.5979 115.249 74.5979H119.282V76.7298C119.282 81.891 115.083 86.0896 109.922 86.0896C104.761 86.0896 100.562 81.891 100.562 76.7298V70.1179H100.562ZM127.758 98.0159C131.683 98.8766 134.531 102.418 134.531 106.436V134.531H85.3125V106.442C85.3125 102.421 88.1634 98.8796 92.091 98.021L101.922 95.8716L107.39 110.773C107.785 111.849 108.81 112.565 109.957 112.565C111.104 112.565 112.129 111.85 112.524 110.773L117.991 95.8729L127.758 98.0159Z" fill="#160A8B"/>
<path d="M109.026 35.5469C109.745 35.5469 110.448 35.2543 110.957 34.7454C111.468 34.2371 111.758 33.5316 111.758 32.8125C111.758 32.0934 111.468 31.3879 110.957 30.8793C110.448 30.3707 109.745 30.0781 109.026 30.0781C108.304 30.0781 107.599 30.3704 107.09 30.8793C106.582 31.3882 106.289 32.0934 106.289 32.8125C106.289 33.5316 106.581 34.2371 107.09 34.7454C107.599 35.2543 108.304 35.5469 109.026 35.5469Z" fill="#160A8B"/>
<path d="M57.4219 118.535C56.7027 118.535 55.9973 118.827 55.4887 119.336C54.9801 119.845 54.6875 120.55 54.6875 121.27C54.6875 121.989 54.9798 122.694 55.4887 123.202C55.9973 123.711 56.7027 124.004 57.4219 124.004C58.141 124.004 58.8465 123.711 59.3548 123.202C59.8634 122.694 60.1562 121.989 60.1562 121.27C60.1562 120.55 59.8637 119.845 59.3548 119.336C58.8465 118.827 58.141 118.535 57.4219 118.535Z" fill="#160A8B"/>
<path d="M56.1914 26.4324H15.1758C13.6659 26.4324 12.4414 27.6568 12.4414 29.1667C12.4414 30.6767 13.6659 31.9011 15.1758 31.9011H56.1914C57.7013 31.9011 58.9258 30.6767 58.9258 29.1667C58.9258 27.6568 57.7013 26.4324 56.1914 26.4324Z" fill="#160A8B"/>
<path d="M15.1758 18.6848H66.377C67.8869 18.6848 69.1113 17.4604 69.1113 15.9504C69.1113 14.4405 67.8869 13.2161 66.377 13.2161H15.1758C13.6659 13.2161 12.4414 14.4405 12.4414 15.9504C12.4414 17.4604 13.6659 18.6848 15.1758 18.6848Z" fill="#160A8B"/>
<path d="M77.3125 18.6838C78.0316 18.6838 78.7371 18.3937 79.2454 17.8824C79.754 17.3741 80.0469 16.6686 80.0469 15.9495C80.0469 15.2303 79.7543 14.5276 79.2454 14.0163C78.7371 13.5077 78.0316 13.2151 77.3125 13.2151C76.5934 13.2151 75.8879 13.5074 75.3793 14.0163C74.8707 14.5276 74.5781 15.2303 74.5781 15.9495C74.5781 16.6686 74.8704 17.3741 75.3793 17.8824C75.8879 18.394 76.5934 18.6838 77.3125 18.6838Z" fill="#160A8B"/>
</svg>
