<svg width="140" height="140" viewBox="0 0 140 140" fill="none" xmlns="http://www.w3.org/2000/svg">
<g clip-path="url(#clip0)">
<path d="M139.73 76.4665C138.473 63.8231 132.825 51.9035 123.825 42.9032C116.133 35.2121 106.719 30.2696 96.8134 28.072V21.1243C100.859 20.1178 103.867 16.4556 103.867 12.1027C103.867 6.9762 99.696 2.80566 94.5696 2.80566H74.8818C69.7553 2.80566 65.5847 6.9762 65.5847 12.1027C65.5847 16.4553 68.592 20.1175 72.6376 21.1243V28.0914C62.7623 30.2983 53.3794 35.2339 45.7099 42.9034C44.0315 44.5818 42.4838 46.3425 41.0671 48.1724C40.9985 48.1672 40.9299 48.162 40.8599 48.162H21.3741C19.8642 48.162 18.6397 49.3862 18.6397 50.8964C18.6397 52.4066 19.8642 53.6308 21.3741 53.6308H37.3464C35.3415 56.9873 33.7249 60.5123 32.4944 64.1409H2.73442C1.22447 64.1409 0 65.365 0 66.8753C0 68.3855 1.22447 69.6097 2.73442 69.6097H30.9492C30.1612 73.069 29.7089 76.5896 29.5921 80.12H17.5003C15.9903 80.12 14.7659 81.3442 14.7659 82.8544C14.7659 84.3646 15.9903 85.5888 17.5003 85.5888H29.6794C29.9102 89.1282 30.4792 92.6491 31.3867 96.0991H13.6721C12.1621 96.0991 10.9377 97.3233 10.9377 98.8335C10.9377 100.344 12.1621 101.568 13.6721 101.568H33.1318C35.8143 108.664 40.0064 115.315 45.7099 121.018C54.7187 130.027 66.6506 135.677 79.3071 136.927C81.1135 137.106 82.9212 137.194 84.7265 137.194C95.3967 137.194 105.931 134.106 114.87 128.285C116.136 127.461 116.494 125.767 115.669 124.501C114.845 123.236 113.151 122.878 111.886 123.702C92.3191 136.444 66.1144 133.689 49.5769 117.151C30.1729 97.7474 30.1729 66.175 49.5769 46.7707C68.9806 27.367 100.553 27.367 119.957 46.7707C136.473 63.2866 139.243 89.4689 126.543 109.026C125.721 110.293 126.081 111.986 127.347 112.809C128.614 113.631 130.308 113.271 131.13 112.004C137.915 101.555 140.969 88.9341 139.73 76.4665ZM71.0536 12.103C71.0536 9.99199 72.7708 8.27477 74.8818 8.27477H94.5696C96.6805 8.27477 98.3977 9.99199 98.3977 12.103C98.3977 14.2139 96.6805 15.9311 94.5696 15.9311H94.079H75.372H74.8818C72.7708 15.9311 71.0536 14.2137 71.0536 12.103ZM78.1065 27.1513V21.4H91.3446V27.1414C86.9487 26.6186 82.5015 26.6219 78.1065 27.1513Z" fill="#160A8B"/>
<path d="M121.891 116.349C121.169 116.349 120.466 116.642 119.958 117.15C119.446 117.659 119.156 118.364 119.156 119.083C119.156 119.803 119.446 120.508 119.958 121.017C120.466 121.528 121.169 121.818 121.891 121.818C122.61 121.818 123.313 121.528 123.824 121.017C124.332 120.508 124.625 119.803 124.625 119.083C124.625 118.364 124.333 117.659 123.824 117.15C123.313 116.642 122.609 116.349 121.891 116.349Z" fill="#160A8B"/>
<path d="M84.7664 39.542C61.3767 39.542 42.3477 58.5708 42.3477 81.9607C42.3477 105.351 61.3767 124.379 84.7664 124.379C108.156 124.379 127.185 105.351 127.185 81.9607C127.185 58.5708 108.156 39.542 84.7664 39.542ZM84.7664 118.911C64.392 118.911 47.8165 102.335 47.8165 81.9607C47.8165 61.5866 64.392 45.0108 84.7664 45.0108C105.141 45.0108 121.716 61.5866 121.716 81.9607C121.716 102.335 105.141 118.911 84.7664 118.911Z" fill="#160A8B"/>
<path d="M102.065 60.7964L88.5212 74.3397C87.3886 73.7797 86.1146 73.4634 84.7679 73.4634C83.421 73.4634 82.1473 73.7797 81.0147 74.3397L74.9533 68.2784C73.8852 67.2106 72.1543 67.2106 71.086 68.2784C70.0182 69.3462 70.0182 71.0776 71.086 72.1454L77.1474 78.2068C76.5871 79.3394 76.271 80.6133 76.271 81.96C76.271 86.6452 80.0825 90.457 84.7679 90.457C89.4534 90.457 93.2649 86.6452 93.2649 81.96C93.2649 80.6133 92.9485 79.3394 92.3885 78.2068L105.534 65.0608L105.932 64.6635C107 63.5957 107 61.8642 105.932 60.7964C104.864 59.7287 103.133 59.7287 102.065 60.7964ZM84.7679 84.9884C83.0983 84.9884 81.7398 83.6299 81.7398 81.9603C81.7398 80.2907 83.0983 78.9322 84.7679 78.9322C86.4376 78.9322 87.796 80.2907 87.796 81.9603C87.796 83.6299 86.4376 84.9884 84.7679 84.9884Z" fill="#160A8B"/>
<path d="M114.002 79.2595H111.469C109.959 79.2595 108.734 80.4837 108.734 81.9939C108.734 83.5041 109.959 84.7283 111.469 84.7283H114.002C115.512 84.7283 116.737 83.5041 116.737 81.9939C116.737 80.4837 115.512 79.2595 114.002 79.2595Z" fill="#160A8B"/>
<path d="M58.0644 79.1929H55.5312C54.0213 79.1929 52.7969 80.4171 52.7969 81.9272C52.7969 83.4374 54.0213 84.6616 55.5312 84.6616H58.0644C59.5743 84.6616 60.7987 83.4374 60.7987 81.9272C60.7987 80.4171 59.5743 79.1929 58.0644 79.1929Z" fill="#160A8B"/>
<path d="M84.8008 57.9916C86.3107 57.9916 87.5352 56.7674 87.5352 55.2572V52.7241C87.5352 51.2139 86.3107 49.9897 84.8008 49.9897C83.2909 49.9897 82.0664 51.2139 82.0664 52.7241V55.2572C82.0664 56.7674 83.2909 57.9916 84.8008 57.9916Z" fill="#160A8B"/>
<path d="M84.7344 105.929C83.2245 105.929 82 107.153 82 108.663V111.196C82 112.707 83.2245 113.931 84.7344 113.931C86.2443 113.931 87.4688 112.707 87.4688 111.196V108.663C87.4688 107.153 86.2443 105.929 84.7344 105.929Z" fill="#160A8B"/>
<path d="M2.73438 96.0979C2.01523 96.0979 1.30977 96.3905 0.801172 96.8991C0.292578 97.4077 0 98.1131 0 98.8323C0 99.5542 0.292305 100.257 0.801172 100.765C1.31004 101.274 2.01523 101.567 2.73438 101.567C3.45352 101.567 4.15898 101.274 4.6673 100.765C5.1759 100.257 5.46875 99.5514 5.46875 98.8323C5.46875 98.1131 5.17617 97.4077 4.6673 96.8991C4.15898 96.3905 3.45352 96.0979 2.73438 96.0979Z" fill="#160A8B"/>
</g>
<defs>
<clipPath id="clip0">
<rect width="140" height="140" fill="white"/>
</clipPath>
</defs>
</svg>
