<svg width="140" height="140" viewBox="0 0 140 140" fill="none" xmlns="http://www.w3.org/2000/svg">
<path d="M136.692 65.5064C134.596 63.5731 131.745 62.379 128.87 62.2295C125.605 62.0607 122.546 63.2249 120.267 65.5043L104.701 80.9076C104.393 80.3746 104.042 79.8715 103.647 79.4048C101.732 77.1307 98.9317 75.8789 95.7626 75.8789H73.9709C69.8618 75.8789 65.8532 75.3459 62.0571 74.296C52.1599 71.5584 42.705 73.5579 34.7123 80.0819C31.462 82.7351 29.0908 85.6212 27.5912 87.7254L23.684 83.9336C23.1702 83.4348 22.4738 83.1517 21.7571 83.1517C21.7507 83.1517 21.7454 83.1517 21.7389 83.1517C20.9966 83.157 20.2788 83.4657 19.764 83.9998L0.769702 103.718C0.261279 104.246 -0.0153627 104.955 0.000659081 105.688C0.0166808 106.422 0.32323 107.118 0.854083 107.623L32.9798 138.213C33.5128 138.72 34.1964 138.974 34.8789 138.974C35.5956 138.974 36.3123 138.695 36.8517 138.142L55.6687 118.836C56.1825 118.309 56.4677 117.588 56.4538 116.851C56.4399 116.124 56.1355 115.424 55.6142 114.917L53.9757 113.328L57.7259 112.906C59.9946 112.642 62.3017 112.509 64.5853 112.509H97.7407C103.128 112.509 107.704 111.331 111.342 109.007C111.372 108.987 111.402 108.967 111.432 108.947C112.735 108.041 113.917 106.967 114.945 105.757L137.288 79.472C141.112 74.9742 140.872 69.3613 136.692 65.5064ZM34.8073 132.348L6.65822 105.545L21.8223 89.8018L49.8069 116.959L34.8073 132.348ZM133.091 75.9045L110.748 102.191C110.039 103.025 109.226 103.766 108.33 104.394C105.599 106.124 102.037 107.002 97.7407 107.002H64.5843C62.0902 107.002 59.5684 107.148 57.1 107.435L48.8563 108.36L31.5955 91.6101C32.795 89.8317 35.0007 86.9574 38.1954 84.3491C44.8369 78.9273 52.3714 77.3305 60.5884 79.6045C64.863 80.7869 69.3652 81.3872 73.9709 81.3872H95.7626C99.6761 81.3872 100.721 84.7774 100.721 86.7801C100.721 88.2434 100.251 89.6362 99.4315 90.6018C98.5429 91.6475 97.2793 92.1773 95.676 92.1773H76.7063C75.1853 92.1773 73.9527 93.411 73.9527 94.932C73.9527 96.4529 75.1853 97.6856 76.7063 97.6856H95.676C98.8783 97.6856 101.702 96.4359 103.629 94.1672C105.232 92.2809 106.147 89.8007 106.224 87.1497L124.152 69.4093C126.714 66.8469 130.718 67.4899 132.958 69.5557C134.115 70.6238 135.673 72.8679 133.091 75.9045Z" fill="#160A8B"/>
<path d="M68.1192 94.1982C67.7721 92.7167 66.2906 91.7992 64.8091 92.1453C63.3287 92.4924 62.4091 93.9739 62.7573 95.4554L62.7829 95.5675C63.0809 96.8364 64.212 97.6931 65.4617 97.6931C65.67 97.6931 65.8815 97.6696 66.093 97.6204C67.5745 97.2733 68.4931 95.7907 68.1459 94.3103L68.1192 94.1982Z" fill="#160A8B"/>
<path d="M18.6175 59.1992H45.4528C46.914 59.1992 48.2662 58.725 49.3664 57.9239C50.4665 58.725 51.8188 59.1992 53.28 59.1992H80.1164C81.5775 59.1992 82.9298 58.725 84.0299 57.9239C85.1301 58.725 86.4823 59.1992 87.9435 59.1992H114.779C118.455 59.1992 121.446 56.2074 121.446 52.531V40.0169C121.446 34.3965 118.3 29.5142 113.592 27.1056C115.874 24.3541 117.247 20.825 117.247 16.9798C117.247 8.22022 110.121 1.09375 101.361 1.09375C92.6016 1.09375 85.4751 8.22022 85.4751 16.9798C85.4751 20.825 86.8487 24.3552 89.1302 27.1056C87.0954 28.1481 85.3533 29.653 84.0299 31.4784C82.7065 29.652 80.9644 28.147 78.9286 27.1056C81.2101 24.3552 82.5837 20.825 82.5837 16.9798C82.5837 8.22022 75.4572 1.09375 66.6976 1.09375C57.938 1.09375 50.8115 8.22022 50.8115 16.9798C50.8115 20.825 52.1862 24.3552 54.4677 27.1066C52.4319 28.1481 50.6898 29.653 49.3664 31.4795C48.043 29.653 46.3009 28.1481 44.2651 27.1056C46.5466 24.3552 47.9202 20.825 47.9202 16.9809C47.9202 8.22022 40.7937 1.09375 32.0341 1.09375C23.2755 1.09375 16.149 8.22022 16.149 16.9809C16.149 20.825 17.5226 24.3552 19.8041 27.1066C15.0959 29.5152 11.9492 34.3987 11.9492 40.018V52.531C11.9492 56.2074 14.941 59.1992 18.6175 59.1992ZM101.362 6.60202C107.084 6.60202 111.74 11.2569 111.74 16.9798C111.74 22.7017 107.084 27.3576 101.362 27.3576C95.6393 27.3576 90.9844 22.7028 90.9844 16.9798C90.9834 11.2569 95.6393 6.60202 101.362 6.60202ZM94.2069 31.1569C96.3592 32.2475 98.7892 32.8659 101.361 32.8659C103.934 32.8659 106.364 32.2475 108.515 31.1569C112.795 31.9025 115.939 35.5907 115.939 40.0169V52.531C115.939 53.1708 115.419 53.691 114.779 53.691H87.9435C87.3048 53.691 86.7846 53.1708 86.7846 52.531V40.0169C86.7835 35.5917 89.9281 31.9025 94.2069 31.1569ZM66.6987 6.60202C72.4206 6.60202 77.0765 11.2569 77.0765 16.9798C77.0765 22.7017 72.4206 27.3576 66.6987 27.3576C60.9757 27.3576 56.3209 22.7028 56.3209 16.9798C56.3209 11.2569 60.9757 6.60202 66.6987 6.60202ZM59.5445 31.1569C61.6956 32.2475 64.1256 32.8659 66.6987 32.8659C69.2718 32.8659 71.7007 32.2475 73.8529 31.1569C78.1318 31.9025 81.2763 35.5907 81.2763 40.0169V52.531C81.2763 53.1708 80.7562 53.691 80.1164 53.691H53.281C52.6412 53.691 52.1211 53.1708 52.1211 52.531V40.0169C52.1211 35.5917 55.2656 31.9025 59.5445 31.1569ZM32.0351 6.60202C37.757 6.60202 42.4129 11.2569 42.4129 16.9798C42.4129 22.7017 37.757 27.3576 32.0351 27.3576C26.3132 27.3576 21.6573 22.7017 21.6573 16.9798C21.6573 11.2569 26.3132 6.60202 32.0351 6.60202ZM17.4575 40.0169C17.4575 35.5917 20.602 31.9025 24.8809 31.1569C27.0331 32.2475 29.462 32.8659 32.0351 32.8659C34.6082 32.8659 37.0371 32.2475 39.1894 31.1569C43.4693 31.9025 46.6128 35.5907 46.6128 40.0169V52.531C46.6128 53.1708 46.0926 53.691 45.4528 53.691H18.6175C17.9777 53.691 17.4575 53.1708 17.4575 52.531V40.0169Z" fill="#160A8B"/>
</svg>
