<svg width="140" height="140" viewBox="0 0 140 140" fill="none" xmlns="http://www.w3.org/2000/svg">
<path d="M100.141 4.30664H37.0102C31.3033 4.30664 26.6602 8.94974 26.6602 14.6567V27.6791C26.6602 29.1083 27.8185 30.2666 29.2477 30.2666C30.676 30.2666 31.8352 29.1083 31.8352 27.6791V14.6567C31.8352 11.8032 34.1559 9.48166 37.0102 9.48166H100.141C102.996 9.48166 105.316 11.8032 105.316 14.6567V125.207C105.316 128.06 102.996 130.382 100.141 130.382H37.0102C34.1559 130.382 31.8352 128.06 31.8352 125.207V48.8102C31.8352 47.3811 30.676 46.2227 29.2477 46.2227C27.8185 46.2227 26.6602 47.3811 26.6602 48.8102V125.207C26.6602 130.914 31.3033 135.557 37.0102 135.557H100.141C105.848 135.557 110.491 130.914 110.491 125.207V14.6567C110.491 8.94974 105.848 4.30664 100.141 4.30664Z" fill="#160A8B"/>
<path d="M99.6234 111.785V17.6144C99.6234 16.186 98.4658 15.0269 97.0367 15.0269H40.3727C38.9427 15.0269 37.7852 16.186 37.7852 17.6144V111.785C37.7852 113.214 38.9427 114.373 40.3727 114.373H97.0367C98.4658 114.373 99.6234 113.214 99.6234 111.785ZM94.4492 109.198H42.9594V20.2019H94.4492V109.198Z" fill="#160A8B"/>
<path d="M76.0606 120.204C75.298 120.967 75.0921 122.158 75.5503 123.133C76.0085 124.108 77.0612 124.712 78.1346 124.609C79.2089 124.505 80.1245 123.721 80.3945 122.676C80.6653 121.635 80.2351 120.496 79.3435 119.894C78.3277 119.206 76.929 119.335 76.0606 120.204C75.5792 120.684 76.5421 119.722 76.0606 120.204Z" fill="#160A8B"/>
<path d="M66.877 120.204C66.1136 120.967 65.9085 122.158 66.3675 123.133C66.8249 124.108 67.8776 124.712 68.951 124.609C70.0261 124.505 70.9401 123.721 71.2117 122.676C71.4824 121.635 71.0515 120.496 70.1591 119.894C69.1441 119.206 67.7454 119.335 66.877 120.204C66.3963 120.684 67.3585 119.722 66.877 120.204Z" fill="#160A8B"/>
<path d="M57.6897 120.204C56.9263 120.967 56.7212 122.158 57.1794 123.133C57.6376 124.108 58.6895 124.712 59.7629 124.609C60.8388 124.505 61.7528 123.721 62.0244 122.676C62.2943 121.635 61.8642 120.496 60.9718 119.894C59.9568 119.206 58.5589 119.335 57.6897 120.204C57.2091 120.684 58.1712 119.722 57.6897 120.204Z" fill="#160A8B"/>
<path d="M29.2466 40.8745C30.6293 40.8745 31.8109 39.7153 31.8285 38.3318C31.8477 36.8955 30.6725 35.7091 29.2402 35.7083C27.8127 35.7059 26.6311 36.9203 26.6607 38.3486C26.6887 39.7225 27.8735 40.8745 29.2466 40.8745Z" fill="#160A8B"/>
<path d="M87.9558 63.0435H70.5645C69.3645 63.0435 68.3906 64.0174 68.3906 65.2174C68.3906 66.4174 69.3645 67.3913 70.5645 67.3913H87.9558C89.1558 67.3913 90.1298 66.4174 90.1298 65.2174C90.1298 64.0174 89.1558 63.0435 87.9558 63.0435Z" fill="#160A8B"/>
<path d="M87.9596 50H74.9161C73.7161 50 72.7422 50.9739 72.7422 52.1739C72.7422 53.3739 73.7161 54.3478 74.9161 54.3478H87.9596C89.1596 54.3478 90.1335 53.3739 90.1335 52.1739C90.1335 50.9739 89.1596 50 87.9596 50Z" fill="#160A8B"/>
<path d="M87.9565 76.0869H53.1739C51.9739 76.0869 51 77.0608 51 78.2608C51 79.4608 51.9739 80.4347 53.1739 80.4347H87.9565C89.1565 80.4347 90.1304 79.4608 90.1304 78.2608C90.1304 77.0608 89.1565 76.0869 87.9565 76.0869Z" fill="#160A8B"/>
<path d="M63.4071 52.3332L54.7114 43.6375C53.8614 42.7875 52.4875 42.7875 51.6375 43.6375C50.7875 44.4875 50.7875 45.8614 51.6375 46.7114L58.7962 53.8701L51.6375 61.0288C50.7875 61.8788 50.7875 63.2527 51.6375 64.1027C52.0614 64.5266 52.6179 64.7397 53.1745 64.7397C53.731 64.7397 54.2875 64.5266 54.7114 64.1027L63.4071 55.4071C64.2571 54.5571 64.2571 53.1832 63.4071 52.3332Z" fill="#160A8B"/>
</svg>
