<svg width="140" height="140" viewBox="0 0 140 140" fill="none" xmlns="http://www.w3.org/2000/svg">
<path d="M17.5 105.258V86.4062H21.8745C23.3844 86.4062 24.6088 85.1818 24.6088 83.6719C24.6088 82.162 23.3844 80.9375 21.8745 80.9375H14.7656C13.2557 80.9375 12.0312 82.162 12.0312 83.6719V105.258C5.19203 106.544 0 112.558 0 119.766C0 127.907 6.62402 134.531 14.7656 134.531C22.9072 134.531 29.5312 127.907 29.5312 119.766C29.5312 112.558 24.3392 106.544 17.5 105.258ZM14.7656 129.062C9.63922 129.062 5.46875 124.892 5.46875 119.766C5.46875 114.639 9.63922 110.469 14.7656 110.469C19.892 110.469 24.0625 114.639 24.0625 119.766C24.0625 124.892 19.892 129.062 14.7656 129.062Z" fill="#160A8B"/>
<path d="M127.969 105.258V83.6719C127.969 82.162 126.744 80.9375 125.234 80.9375H72.7344V61.25H108.828C116.367 61.25 122.5 55.1168 122.5 47.5781V19.1406C122.5 11.602 116.367 5.46875 108.828 5.46875H31.1719C23.6332 5.46875 17.5 11.602 17.5 19.1406V47.5781C17.5 55.1168 23.6332 61.25 31.1719 61.25H67.2656V80.9375H43.7495C42.2395 80.9375 41.0151 82.162 41.0151 83.6719C41.0151 85.1818 42.2395 86.4062 43.7495 86.4062H48.8543V105.258C42.015 106.544 36.823 112.558 36.823 119.766C36.823 127.907 43.447 134.531 51.5886 134.531C59.7302 134.531 66.3543 127.907 66.3543 119.766C66.3543 112.558 61.1622 106.544 54.323 105.258V86.4062H85.677V105.258C78.8378 106.544 73.6457 112.558 73.6457 119.766C73.6457 127.907 80.2698 134.531 88.4114 134.531C96.553 134.531 103.177 127.907 103.177 119.766C103.177 112.558 97.985 106.544 91.1457 105.258V86.4062H122.5V105.258C115.661 106.544 110.469 112.558 110.469 119.766C110.469 127.907 117.093 134.531 125.234 134.531C133.376 134.531 140 127.907 140 119.766C140 112.558 134.808 106.544 127.969 105.258ZM22.9688 47.5781V19.1406C22.9688 14.6174 26.6487 10.9375 31.1719 10.9375H108.828C113.167 10.9375 116.728 14.3248 117.011 18.5938H96.3867C94.8768 18.5938 93.6523 19.8182 93.6523 21.3281C93.6523 22.838 94.8768 24.0625 96.3867 24.0625H117.031V47.5781C117.031 52.1013 113.351 55.7812 108.828 55.7812H31.1719C26.6487 55.7812 22.9688 52.1013 22.9688 47.5781ZM60.8855 119.766C60.8855 124.892 56.715 129.062 51.5886 129.062C46.4622 129.062 42.2918 124.892 42.2918 119.766C42.2918 114.639 46.4622 110.469 51.5886 110.469C56.715 110.469 60.8855 114.639 60.8855 119.766ZM97.7082 119.766C97.7082 124.892 93.5378 129.062 88.4114 129.062C83.285 129.062 79.1145 124.892 79.1145 119.766C79.1145 114.639 83.285 110.469 88.4114 110.469C93.5378 110.469 97.7082 114.639 97.7082 119.766ZM125.234 129.062C120.108 129.062 115.938 124.892 115.938 119.766C115.938 114.639 120.108 110.469 125.234 110.469C130.361 110.469 134.531 114.639 134.531 119.766C134.531 124.892 130.361 129.062 125.234 129.062Z" fill="#160A8B"/>
<path d="M85.4492 18.5938C84.7301 18.5938 84.0246 18.8861 83.516 19.3949C83.0074 19.9038 82.7148 20.609 82.7148 21.3281C82.7148 22.0473 83.0071 22.7527 83.516 23.2611C84.0246 23.7696 84.7301 24.0625 85.4492 24.0625C86.1684 24.0625 86.8738 23.7699 87.3821 23.2611C87.891 22.7527 88.1836 22.0473 88.1836 21.3281C88.1836 20.609 87.891 19.9035 87.3821 19.3949C86.8738 18.8861 86.1684 18.5938 85.4492 18.5938Z" fill="#160A8B"/>
<path d="M32.8125 80.9375C32.0934 80.9375 31.3879 81.2298 30.8793 81.7387C30.3707 82.2475 30.0781 82.9527 30.0781 83.6719C30.0781 84.391 30.3704 85.0965 30.8793 85.6048C31.3879 86.1134 32.0934 86.4062 32.8125 86.4062C33.5316 86.4062 34.2371 86.1137 34.7454 85.6048C35.2543 85.0965 35.5469 84.391 35.5469 83.6719C35.5469 82.9527 35.2543 82.2473 34.7454 81.7387C34.2371 81.2298 33.5344 80.9375 32.8125 80.9375Z" fill="#160A8B"/>
</svg>
