<svg width="140" height="140" viewBox="0 0 140 140" fill="none" xmlns="http://www.w3.org/2000/svg">
<path d="M137.258 10.9375H112.915V2.73438C112.915 1.22445 111.691 0 110.18 0H97.0554C95.5452 0 94.321 1.22445 94.321 2.73438V10.9375H69.8937C68.3835 10.9375 67.1594 12.162 67.1594 13.6719V33.6161L65.2538 31.7056C61.8391 28.2819 57.6087 25.9741 53.0013 24.9484C55.1686 22.4621 56.4855 19.2166 56.4855 15.6671V14.1457C56.4855 6.34566 50.1398 0 42.3397 0C34.5396 0 28.194 6.34566 28.194 14.1455V15.6669C28.194 19.3525 29.612 22.7123 31.9297 25.2325C26.2556 26.8458 21.2727 30.5679 18.1763 35.729L1.15784 64.0954C-0.57657 66.9859 -0.323367 70.6937 1.78757 73.3217C3.33605 75.2495 5.6239 76.3446 8.08784 76.3446C8.14745 76.3446 8.20734 76.344 8.26722 76.3427C10.7992 76.2882 13.1117 75.0862 14.6112 73.0453L25.3866 58.3789V69.5773C25.3866 69.6544 25.3918 69.7304 25.3981 69.8059C25.3918 69.8813 25.3866 69.9573 25.3866 70.0345V94.8828C25.3866 96.3927 26.6108 97.6172 28.121 97.6172C29.6312 97.6172 30.8553 96.3927 30.8553 94.8828V72.3116H53.8241V130.156C53.8241 132.569 51.8614 134.531 49.4491 134.531C47.0368 134.531 45.0741 132.569 45.0741 130.156V89.8475C45.0741 88.3375 43.8499 87.1131 42.3397 87.1131C40.8295 87.1131 39.6053 88.3375 39.6053 89.8475V130.156C39.6053 132.569 37.6426 134.531 35.2303 134.531C32.8181 134.531 30.8553 132.569 30.8553 130.156V116.758C30.8553 115.248 29.6312 114.023 28.121 114.023C26.6108 114.023 25.3866 115.248 25.3866 116.758V130.156C25.3866 135.584 29.8023 140 35.2303 140C38.0232 140 40.5465 138.829 42.3397 136.954C44.1329 138.829 46.6562 140 49.4491 140C54.8771 140 59.2928 135.584 59.2928 130.156V70.0347C59.2928 69.9576 59.2876 69.8816 59.2814 69.8061C59.2876 69.7307 59.2928 69.6546 59.2928 69.5775V51.129L63.9733 55.8348C64.9213 56.7883 66.0027 57.5359 67.1594 58.08V90.2344C67.1594 90.4632 67.1905 90.6842 67.2436 90.8964V101.172C67.2436 102.682 68.4678 103.906 69.978 103.906H73.6412L67.2105 136.74C67.0533 137.542 67.2633 138.372 67.7828 139.003C68.3023 139.634 69.0767 140 69.894 140H82.0636C83.3712 140 84.4959 139.074 84.7469 137.791L91.3832 103.906H115.719L122.356 137.791C122.607 139.074 123.732 140 125.039 140H137.209C138.026 140 138.8 139.634 139.32 139.003C139.839 138.372 140.049 137.542 139.892 136.74L133.461 103.906H137.258C138.768 103.906 139.992 102.682 139.992 101.172V90.2344V13.6719C139.992 12.162 138.768 10.9375 137.258 10.9375ZM99.7898 5.46875H107.446V10.9375H99.7898V5.46875ZM72.6281 38.8281V16.4062H97.0554H110.18H134.524V87.5H72.6281V59.1402C75.0661 59.0032 77.4729 58.0822 79.4342 56.3626L86.6265 50.0563C88.348 48.5466 89.3753 46.3684 89.4448 44.0798C89.5143 41.7908 88.6209 39.5541 86.994 37.943C84.0799 35.0574 79.566 34.7252 76.2613 37.153L73.0446 39.5166L72.6153 39.0863C72.6229 39.0012 72.6281 38.9151 72.6281 38.8281ZM33.663 14.1455C33.663 9.36113 37.5554 5.46875 42.34 5.46875C47.1246 5.46875 51.017 9.36113 51.017 14.1455V15.6669C51.017 20.3952 47.2151 24.2493 42.5084 24.3398H42.1718C37.4649 24.2493 33.6633 20.3952 33.6633 15.6669V14.1455H33.663ZM58.4974 42.5737C57.7165 41.7886 56.5393 41.5518 55.5156 41.9743C54.4921 42.3968 53.8241 43.3945 53.8241 44.502V66.8429H30.8553V50.0391C30.8553 48.8573 30.096 47.8092 28.973 47.4409C27.85 47.0717 26.6173 47.4679 25.9176 48.42L10.204 69.8075C9.71835 70.4684 8.96941 70.8578 8.14937 70.8753C7.32523 70.8917 6.56452 70.5362 6.05101 69.8969C5.36741 69.046 5.28538 67.8453 5.84702 66.9091L22.8658 38.5427C26.0981 33.1554 32.009 29.8088 38.2918 29.8088H39.6056V38.8281C39.6056 40.338 40.8298 41.5625 42.34 41.5625C43.8502 41.5625 45.0744 40.338 45.0744 38.8281V29.8088H47.5044C52.7495 29.8088 57.6779 31.8538 61.3819 35.5677L70.8327 45.0431C71.7873 46.0004 73.2983 46.1166 74.3877 45.3157L79.4991 41.5603C80.6218 40.7354 82.1555 40.8483 83.1456 41.8288C83.7064 42.3842 84.0023 43.1246 83.9782 43.9138C83.9542 44.7029 83.614 45.424 83.0207 45.9446L75.8284 52.2509C73.5198 54.2752 70.0157 54.1551 67.8506 51.9786L58.4974 42.5737ZM79.8127 134.531H73.2157L79.2139 103.906H85.8108L79.8127 134.531ZM133.887 134.531H127.29L121.292 103.906H127.889L133.887 134.531ZM134.524 98.4375H72.7123V92.9688H134.524V98.4375Z" fill="#160A8B"/>
<path d="M124.082 43.75H110.957C109.447 43.75 108.223 44.9745 108.223 46.4844V51.0166H97.832C96.3218 51.0166 95.0977 52.2411 95.0977 53.751V60.0677H84.707C83.1968 60.0677 81.9727 61.2921 81.9727 62.802V76.2171C81.9727 77.7271 83.1968 78.9515 84.707 78.9515H97.832H110.957H124.082C125.592 78.9515 126.816 77.7271 126.816 76.2171V46.4844C126.816 44.9745 125.592 43.75 124.082 43.75ZM87.4414 65.5364H95.0977V73.4828H87.4414V65.5364ZM100.566 62.802V56.4854H108.223V73.4825H100.566V62.802ZM121.348 73.4825H113.691V53.751V49.2188H121.348V73.4825Z" fill="#160A8B"/>
<path d="M84.7109 27.3438C85.4301 27.3438 86.1355 27.0512 86.6441 26.5423C87.1527 26.034 87.4426 25.3285 87.4426 24.6094C87.4426 23.8902 87.1527 23.1848 86.6441 22.6762C86.1355 22.1676 85.4301 21.875 84.7109 21.875C83.9891 21.875 83.2836 22.1673 82.775 22.6762C82.2664 23.185 81.9766 23.8902 81.9766 24.6094C81.9766 25.3285 82.2664 26.034 82.775 26.5423C83.2836 27.0512 83.9891 27.3438 84.7109 27.3438Z" fill="#160A8B"/>
<path d="M95.6445 27.3438H124.082C125.592 27.3438 126.816 26.1193 126.816 24.6094C126.816 23.0995 125.592 21.875 124.082 21.875H95.6445C94.1343 21.875 92.9102 23.0995 92.9102 24.6094C92.9102 26.1193 94.1343 27.3438 95.6445 27.3438Z" fill="#160A8B"/>
<path d="M124.082 32.8125H99.3359C97.8257 32.8125 96.6016 34.037 96.6016 35.5469C96.6016 37.0568 97.8257 38.2812 99.3359 38.2812H124.082C125.592 38.2812 126.816 37.0568 126.816 35.5469C126.816 34.037 125.592 32.8125 124.082 32.8125Z" fill="#160A8B"/>
<path d="M28.1211 108.555C28.8402 108.555 29.543 108.262 30.0543 107.753C30.5629 107.245 30.8555 106.539 30.8555 105.82C30.8555 105.101 30.5629 104.396 30.0543 103.887C29.5457 103.379 28.8402 103.086 28.1211 103.086C27.3992 103.086 26.6965 103.378 26.1879 103.887C25.6766 104.396 25.3867 105.101 25.3867 105.82C25.3867 106.539 25.6766 107.245 26.1879 107.753C26.6965 108.262 27.402 108.555 28.1211 108.555Z" fill="#160A8B"/>
</svg>
