<svg width="40" height="32" viewBox="0 0 40 32" fill="none" xmlns="http://www.w3.org/2000/svg">
<path d="M40 3.7861C38.5278 4.42859 36.9481 4.86432 35.2884 5.05885C36.9831 4.05936 38.2803 2.47403 38.8952 0.590796C37.3055 1.51639 35.5508 2.18848 33.6811 2.55282C32.1839 0.979789 30.0543 0 27.6922 0C23.1606 0 19.4862 3.61874 19.4862 8.07939C19.4862 8.71202 19.5587 9.32992 19.6987 9.92078C12.88 9.58348 6.83367 6.36603 2.78693 1.47699C2.07955 2.6685 1.67713 4.05685 1.67713 5.53886C1.67713 8.34279 3.12687 10.8168 5.32648 12.2643C3.98171 12.22 2.71693 11.8556 1.60968 11.25V11.351C1.60968 15.2651 4.43916 18.5318 8.19093 19.2753C7.50354 19.4575 6.7787 19.5584 6.02883 19.5584C5.49896 19.5584 4.98654 19.5067 4.48413 19.4082C5.5289 22.6208 8.55838 24.9569 12.1477 25.021C9.34073 27.1873 5.80138 28.4748 1.95713 28.4748C1.29477 28.4748 0.642354 28.4354 0 28.364C3.63184 30.6608 7.94354 32 12.5777 32C27.6723 32 35.9233 19.6864 35.9233 9.00749L35.8958 7.96127C37.508 6.82879 38.9027 5.40593 40 3.7861Z" fill="white"/>
</svg>
