<svg width="110" height="110" viewBox="0 0 110 110" fill="none" xmlns="http://www.w3.org/2000/svg">
<path d="M104.486 80.3186H97.3391V71.1888C97.3391 70.0722 96.434 69.1665 95.318 69.1665H67.6552C66.5386 69.1665 65.6328 70.0722 65.6328 71.1888C65.6328 72.3054 66.5386 73.2099 67.6552 73.2099H93.2963V80.3186H86.1504C85.0338 80.3186 84.1287 81.2231 84.1287 82.3397V100.674C84.1287 101.791 85.0338 102.696 86.1504 102.696H104.486C105.602 102.696 106.507 101.791 106.507 100.674V82.3397C106.507 81.2231 105.602 80.3186 104.486 80.3186ZM102.463 98.6532H88.1721V84.3608H102.463V98.6532Z" fill="#160A8B"/>
<path d="M68.5906 69.1664H56.9664V63.4575H85.6399C86.6601 63.4575 87.5017 62.7016 87.6402 61.719L95.9681 26.025C96.1078 25.4239 95.9662 24.7919 95.5835 24.3092C95.2002 23.8258 94.6161 23.5444 93.9993 23.5444H87.6622V16.0555C87.6622 14.9395 86.7565 14.0344 85.6399 14.0344H53.6367L46.9894 7.38707C46.6086 7.00627 46.0937 6.78912 45.5543 6.79479L19.9531 6.86276C18.839 6.86591 17.9376 7.77039 17.9376 8.88448V61.4358C17.9376 62.5524 18.8421 63.4575 19.9587 63.4575H52.9242V69.1758H14.5715C13.4549 69.1758 12.5504 70.081 12.5504 71.1975V80.3186H5.4039C4.28793 80.3186 3.38281 81.223 3.38281 82.3396V100.674C3.38281 101.791 4.28793 102.696 5.4039 102.696H23.739C24.8556 102.696 25.7601 101.791 25.7601 100.674V82.3396C25.7601 81.223 24.8556 80.3186 23.739 80.3186H16.5926V73.2186H52.9242V80.3186H46.0969C44.9809 80.3186 44.0758 81.223 44.0758 82.3396V100.674C44.0758 101.791 44.9809 102.696 46.0969 102.696H64.432C65.5486 102.696 66.4537 101.791 66.4537 100.674V82.3396C66.4537 81.223 65.5486 80.3186 64.432 80.3186H56.9664V73.2098H68.5906C69.7066 73.2098 70.6117 72.3053 70.6117 71.1887C70.6117 70.0721 69.7066 69.1664 68.5906 69.1664ZM84.0367 59.3707H21.9804V27.5866H91.4526L84.0367 59.3707ZM44.7241 10.8401L51.3702 17.4856C51.7491 17.8645 52.2633 18.0779 52.7996 18.0779H83.6188V23.5444H21.9804V10.9005L44.7241 10.8401ZM21.7173 98.6531H7.42624V84.3607H21.7173V98.6531ZM62.4109 98.6531H48.1192V84.3607H62.4103V98.6531H62.4109Z" fill="#160A8B"/>
<path d="M50.8023 36.0481H83.0787C84.1946 36.0481 85.1004 35.143 85.1004 34.027C85.1004 32.9104 84.1946 32.0046 83.0787 32.0046H50.8023C49.6857 32.0046 48.7812 32.9104 48.7812 34.027C48.7812 35.143 49.6857 36.0481 50.8023 36.0481Z" fill="#160A8B"/>
<path d="M83.0788 39.8572H71.4898C70.3739 39.8572 69.4688 40.7629 69.4688 41.8795C69.4688 42.9961 70.3739 43.9006 71.4898 43.9006H83.0788C84.1948 43.9006 85.1005 42.9961 85.1005 41.8795C85.1005 40.7629 84.1948 39.8572 83.0788 39.8572Z" fill="#160A8B"/>
<path d="M83.0781 47.5396H66.9403C65.8237 47.5396 64.918 48.4447 64.918 49.5613C64.918 50.6772 65.8237 51.583 66.9403 51.583H83.0781C84.1941 51.583 85.0999 50.6772 85.0999 49.5613C85.0999 48.4447 84.1941 47.5396 83.0781 47.5396Z" fill="#160A8B"/>
</svg>
