<svg width="100" height="100" viewBox="0 0 100 100" fill="none" xmlns="http://www.w3.org/2000/svg">
<path d="M37.5014 12.5H16.668V16.6666H37.5014V12.5Z" fill="#160A8B"/>
<path d="M20.8346 20.8335H16.668V25.0001H20.8346V20.8335Z" fill="#160A8B"/>
<path d="M29.1666 20.8335H25V25.0001H29.1666V20.8335Z" fill="#160A8B"/>
<path d="M82.7242 17.2771L66.0576 0.610352C65.667 0.219727 65.1371 0 64.5848 0H10.418C6.96621 0 4.16797 2.79824 4.16797 6.25V56.25H8.33457V6.25C8.33457 5.09941 9.26738 4.1666 10.418 4.1666H63.7221L79.168 19.6125V39.5834H83.3346V18.75C83.3346 18.1975 83.115 17.6678 82.7242 17.2771Z" fill="#160A8B"/>
<path d="M10.418 95.8335C9.26738 95.8335 8.33457 94.9007 8.33457 93.7501V77.0835H4.16797V93.7501C4.16797 97.2019 6.96621 100 10.418 100H18.7514V95.8335H10.418Z" fill="#160A8B"/>
<path d="M68.75 16.6667C67.5994 16.6667 66.6666 15.7338 66.6666 14.5833V2.08325H62.5V14.5833C62.5 18.035 65.2982 20.8333 68.75 20.8333H72.9166V16.6667H68.75Z" fill="#160A8B"/>
<path d="M93.7527 87.5H60.4193C59.2688 87.5 58.3359 88.4328 58.3359 89.5834V95.8334C58.3359 98.1346 60.2014 100 62.5025 100H91.6691C93.9703 100 95.8357 98.1346 95.8357 95.8334V89.5834C95.8361 88.4328 94.9033 87.5 93.7527 87.5ZM91.6693 95.8334H62.5027V91.6668H91.6693V95.8334Z" fill="#160A8B"/>
<path d="M91.6652 79.1665H62.4986C60.1975 79.1665 58.332 81.0319 58.332 83.3331V89.5831C58.332 90.7337 59.2648 91.6665 60.4154 91.6665H93.7486C94.8992 91.6665 95.832 90.7337 95.832 89.5831V83.3331C95.832 81.0321 93.9664 79.1665 91.6652 79.1665ZM91.6652 87.4999H62.4986V83.3333H91.6652V87.4999Z" fill="#160A8B"/>
<path d="M93.7527 70.8335H60.4193C59.2688 70.8335 58.3359 71.7663 58.3359 72.9169V79.1669C58.3359 81.4681 60.2014 83.3335 62.5025 83.3335H91.6691C93.9703 83.3335 95.8357 81.4681 95.8357 79.1669V72.9169C95.8361 71.7661 94.9033 70.8335 93.7527 70.8335ZM91.6693 79.1667H62.5027V75.0001H91.6693V79.1667Z" fill="#160A8B"/>
<path d="M60.4166 87.5H27.0834C25.9328 87.5 25 88.4328 25 89.5834V95.8334C25 98.1346 26.8654 100 29.1666 100H58.3332C60.6344 100 62.4998 98.1346 62.4998 95.8334V89.5834C62.5 88.4328 61.5672 87.5 60.4166 87.5ZM58.3334 95.8334H29.1666V91.6668H58.3332V95.8334H58.3334Z" fill="#160A8B"/>
<path d="M58.3334 79.1665H29.1666C26.8654 79.1665 25 81.0319 25 83.3331V89.5831C25 90.7337 25.9328 91.6665 27.0834 91.6665H60.4168C61.5674 91.6665 62.5002 90.7337 62.5002 89.5831V83.3331C62.5 81.0321 60.6346 79.1665 58.3334 79.1665ZM58.3334 87.4999H29.1666V83.3333H58.3332V87.4999H58.3334Z" fill="#160A8B"/>
<path d="M60.4166 70.8335H27.0834C25.9328 70.8335 25 71.7663 25 72.9169V79.1669C25 81.4681 26.8654 83.3335 29.1666 83.3335H58.3332C60.6344 83.3335 62.4998 81.4681 62.4998 79.1669V72.9169C62.5 71.7661 61.5672 70.8335 60.4166 70.8335ZM58.3334 79.1667H29.1666V75.0001H58.3332V79.1667H58.3334Z" fill="#160A8B"/>
<path d="M93.7527 62.5H60.4193C59.2688 62.5 58.3359 63.4328 58.3359 64.5834V70.8334C58.3359 73.1346 60.2014 75 62.5025 75H91.6691C93.9703 75 95.8357 73.1346 95.8357 70.8334V64.5834C95.8361 63.4328 94.9033 62.5 93.7527 62.5ZM91.6693 70.8334H62.5027V66.6668H91.6693V70.8334Z" fill="#160A8B"/>
<path d="M91.6652 54.1665H62.4986C60.1975 54.1665 58.332 56.0319 58.332 58.3331V64.5831C58.332 65.7337 59.2648 66.6665 60.4154 66.6665H93.7486C94.8992 66.6665 95.832 65.7337 95.832 64.5831V58.3331C95.832 56.0321 93.9664 54.1665 91.6652 54.1665ZM91.6652 62.4999H62.4986V58.3333H91.6652V62.4999Z" fill="#160A8B"/>
<path d="M64.5807 27.0835H47.9141V31.2501H62.4973V43.7501H66.6639V29.1667C66.6639 28.0161 65.7312 27.0835 64.5807 27.0835Z" fill="#160A8B"/>
<path d="M63.1105 27.6938L47.0543 43.7501H29.1668C28.6143 43.7503 28.0846 43.9698 27.6939 44.3604L4.77734 67.2772L7.72324 70.2231L30.0295 47.9169H47.917C48.4695 47.9167 48.9992 47.6972 49.3898 47.3065L66.0564 30.6399L63.1105 27.6938Z" fill="#160A8B"/>
</svg>
