<svg width="100" height="100" viewBox="0 0 100 100" fill="none" xmlns="http://www.w3.org/2000/svg">
<path d="M50 69.5312C48.922 69.5312 48.0469 70.4063 48.0469 71.4844C48.0469 72.5624 48.922 73.4375 50 73.4375C51.078 73.4375 51.9531 72.5624 51.9531 71.4844C51.9531 70.4063 51.078 69.5312 50 69.5312Z" fill="#160A8B"/>
<path d="M94.1406 38.2812H87.1094C87.1094 31.7719 87.1094 15.4114 87.1094 8.98438C87.1094 5.75333 84.481 3.125 81.25 3.125H5.85938C2.62833 3.125 0 5.75333 0 8.98438V55.8594C0 59.0904 2.62833 61.7188 5.85938 61.7188H12.8906V91.0156C12.8906 94.2467 15.519 96.875 18.75 96.875H94.1406C97.3717 96.875 100 94.2467 100 91.0156V44.1406C100 40.9096 97.3717 38.2812 94.1406 38.2812ZM3.90625 18.75H83.2031V26.5625H3.90625V18.75ZM5.85938 7.03125H81.25C82.3273 7.03125 83.2031 7.9071 83.2031 8.98438V14.8438H3.90625V8.98438C3.90625 7.9071 4.7821 7.03125 5.85938 7.03125ZM5.85938 57.8125C4.7821 57.8125 3.90625 56.9366 3.90625 55.8594V30.4688H83.2031V38.2812H18.75C15.519 38.2812 12.8906 40.9096 12.8906 44.1406V57.8125H5.85938ZM96.0938 91.0156C96.0938 92.0929 95.2179 92.9688 94.1406 92.9688H18.75C17.6727 92.9688 16.7969 92.0929 16.7969 91.0156V44.1406C16.7969 43.0634 17.6727 42.1875 18.75 42.1875H94.1406C95.2179 42.1875 96.0938 43.0634 96.0938 44.1406V91.0156Z" fill="#160A8B"/>
<path d="M77.3438 50C75.2144 50 73.1613 50.6989 71.4836 51.9569C69.8074 50.6989 67.7551 50 65.625 50C60.2402 50 55.8594 54.3808 55.8594 59.7656C55.8594 65.1505 60.2402 69.5312 65.625 69.5312C67.7551 69.5312 69.8082 68.8324 71.4836 67.5743C73.1613 68.8324 75.2144 69.5312 77.3438 69.5312C82.7286 69.5312 87.1094 65.1505 87.1094 59.7656C87.1094 54.3808 82.7286 50 77.3438 50ZM59.7656 59.7656C59.7656 56.5346 62.394 53.9062 65.625 53.9062C67.305 53.9062 68.9056 54.6295 70.0172 55.8907C70.0172 55.8914 70.018 55.8922 70.0188 55.8929C70.9641 56.9618 71.4844 58.3374 71.4844 59.7656C71.4844 61.1938 70.9641 62.5694 70.0172 63.6406C68.9056 64.9017 67.305 65.625 65.625 65.625C62.394 65.625 59.7656 62.9967 59.7656 59.7656ZM77.3438 65.625C76.1742 65.625 75.0427 65.2733 74.0868 64.6347C74.9344 63.1638 75.3906 61.4876 75.3906 59.7656C75.3906 58.0437 74.9344 56.3675 74.0868 54.8965C75.0427 54.258 76.1742 53.9062 77.3438 53.9062C80.5748 53.9062 83.2031 56.5346 83.2031 59.7656C83.2031 62.9967 80.5748 65.625 77.3438 65.625Z" fill="#160A8B"/>
<path d="M34.375 81.25H26.5625C25.4837 81.25 24.6094 82.1243 24.6094 83.2031C24.6094 84.2819 25.4837 85.1562 26.5625 85.1562H34.375C35.4538 85.1562 36.3281 84.2819 36.3281 83.2031C36.3281 82.1243 35.4538 81.25 34.375 81.25Z" fill="#160A8B"/>
<path d="M50 81.25H42.1875C41.1087 81.25 40.2344 82.1243 40.2344 83.2031C40.2344 84.2819 41.1087 85.1562 42.1875 85.1562H50C51.0788 85.1562 51.9531 84.2819 51.9531 83.2031C51.9531 82.1243 51.0788 81.25 50 81.25Z" fill="#160A8B"/>
<path d="M65.625 81.25H57.8125C56.7337 81.25 55.8594 82.1243 55.8594 83.2031C55.8594 84.2819 56.7337 85.1562 57.8125 85.1562H65.625C66.7038 85.1562 67.5781 84.2819 67.5781 83.2031C67.5781 82.1243 66.7038 81.25 65.625 81.25Z" fill="#160A8B"/>
<path d="M81.25 81.25H73.4375C72.3587 81.25 71.4844 82.1243 71.4844 83.2031C71.4844 84.2819 72.3587 85.1562 73.4375 85.1562H81.25C82.3288 85.1562 83.2031 84.2819 83.2031 83.2031C83.2031 82.1243 82.3288 81.25 81.25 81.25Z" fill="#160A8B"/>
<path d="M26.5625 73.4375H42.1875C43.2663 73.4375 44.1406 72.5632 44.1406 71.4844C44.1406 70.4056 43.2663 69.5312 42.1875 69.5312H26.5625C25.4837 69.5312 24.6094 70.4056 24.6094 71.4844C24.6094 72.5632 25.4837 73.4375 26.5625 73.4375Z" fill="#160A8B"/>
</svg>
