<svg width="100" height="100" viewBox="0 0 100 100" fill="none" xmlns="http://www.w3.org/2000/svg">
<path d="M63.6719 17.5781C63.6719 18.6569 62.7975 19.5312 61.7188 19.5312C60.64 19.5312 59.7656 18.6569 59.7656 17.5781C59.7656 16.4993 60.64 15.625 61.7188 15.625C62.7975 15.625 63.6719 16.4993 63.6719 17.5781Z" fill="#160A8B"/>
<path d="M100 5.85938C100 2.62833 97.3717 0 94.1406 0H5.85938C2.62222 0 0 2.62222 0 5.85938C0 8.4053 1.63269 10.5766 3.90625 11.3831V71.4844H1.95312C0.874328 71.4844 0 72.3587 0 73.4375C0 74.5163 0.874328 75.3906 1.95312 75.3906H48.0469V88.6169C45.7733 89.4234 44.1406 91.5947 44.1406 94.1406C44.1406 97.3717 46.769 100 50 100C53.231 100 55.8594 97.3717 55.8594 94.1406C55.8594 91.5947 54.2267 89.4234 51.9531 88.6169V75.3906H98.0469C99.1257 75.3906 100 74.5163 100 73.4375C100 72.3587 99.1257 71.4844 98.0469 71.4844H96.0938V11.3861C98.3185 10.601 100 8.46329 100 5.85938ZM50 96.0938C48.9227 96.0938 48.0469 95.2179 48.0469 94.1406C48.0469 93.0634 48.9227 92.1875 50 92.1875C51.0773 92.1875 51.9531 93.0634 51.9531 94.1406C51.9531 95.2179 51.0773 96.0938 50 96.0938ZM5.85938 3.90625H94.1406C95.2179 3.90625 96.0938 4.7821 96.0938 5.85938C96.0938 6.93817 95.2187 7.8125 94.1406 7.8125H5.85938C4.7821 7.8125 3.90625 6.93665 3.90625 5.85938C3.90625 4.78058 4.78134 3.90625 5.85938 3.90625ZM7.8125 71.4844V11.7188H92.1875V71.4844H7.8125Z" fill="#160A8B"/>
<path d="M82.6492 56.4515C82.6431 56.4454 82.6378 56.4378 82.6309 56.4317L78.7247 52.5254C77.9617 51.7625 76.7258 51.7625 75.9628 52.5254C75.1999 53.2876 75.1999 54.5243 75.9628 55.2873L76.5343 55.8595H24.6094V26.1994L25.1816 26.7716C25.9445 27.5346 27.1805 27.5346 27.9434 26.7716C28.7064 26.0087 28.7064 24.7727 27.9434 24.0098L24.0372 20.1035C24.0311 20.0967 24.0242 20.0913 24.0181 20.0852C23.2552 19.3421 22.0291 19.349 21.2753 20.1035L17.3691 24.0098C16.6061 24.772 16.6061 26.0087 17.3691 26.7716C18.132 27.5346 19.368 27.5346 20.1317 26.7716L20.7039 26.1994V55.8595H13.6719C12.5931 55.8595 11.7188 56.7338 11.7188 57.8126C11.7188 58.8914 12.5931 59.7657 13.6719 59.7657H20.7031V65.6251C20.7031 66.7039 21.5775 67.5782 22.6563 67.5782C23.735 67.5782 24.6094 66.7039 24.6094 65.6251V59.7657H76.5343L75.9628 60.3379C75.1999 61.1009 75.1999 62.3368 75.9628 63.0998C76.7258 63.8627 77.9617 63.8627 78.7247 63.0998L82.6309 59.1935C82.6378 59.1874 82.6431 59.1798 82.6492 59.1737C83.3725 58.429 83.4007 57.2244 82.6492 56.4515Z" fill="#160A8B"/>
<path d="M86.3281 15.625H69.5312C68.4525 15.625 67.5781 16.4993 67.5781 17.5781C67.5781 18.6569 68.4525 19.5312 69.5312 19.5312H86.3281C87.4069 19.5312 88.2812 18.6569 88.2812 17.5781C88.2812 16.4993 87.4069 15.625 86.3281 15.625Z" fill="#160A8B"/>
<path d="M31.1997 36.7134C32.2922 37.5885 33.5091 39.4722 34.6871 41.2941C36.9317 44.767 39.0519 48.0469 42.1876 48.0469C45.3217 48.0469 47.4419 44.767 49.6872 41.2949C50.5791 39.9147 51.5023 38.4872 52.3751 37.4977C53.3783 36.3609 53.8552 36.3281 53.9063 36.3281C53.9574 36.3281 54.4343 36.3609 55.4375 37.4977C56.3103 38.4872 57.2335 39.9147 58.1254 41.2949C60.3707 44.767 62.4909 48.0469 65.625 48.0469C68.7607 48.0469 70.8809 44.767 73.1255 41.2941C74.3027 39.4722 75.5204 37.5885 76.6129 36.7134C77.4544 36.0382 77.5895 34.8091 76.9143 33.9676C76.2398 33.1261 75.0107 32.991 74.1684 33.6655C72.5838 34.9373 71.1915 37.0903 69.8449 39.1731C68.953 40.5533 68.0298 41.9807 67.157 42.9703C66.1545 44.1078 65.6762 44.1406 65.625 44.1406C65.5739 44.1406 65.0971 44.1078 64.0938 42.971C63.221 41.9815 62.2979 40.554 61.406 39.1739C59.1607 35.7018 57.0405 32.4219 53.9063 32.4219C50.7721 32.4219 48.6519 35.7018 46.4066 39.1739C45.5147 40.554 44.5916 41.9815 43.7188 42.971C42.7155 44.1078 42.2387 44.1406 42.1876 44.1406C42.1364 44.1406 41.6581 44.1078 40.6548 42.9703C39.782 41.9807 38.8596 40.5533 37.9677 39.1731C36.6211 37.0911 35.2288 34.9373 33.6442 33.6655C32.8026 32.991 31.5728 33.1261 30.8983 33.9676C30.2231 34.8091 30.3589 36.0382 31.1997 36.7134Z" fill="#160A8B"/>
</svg>
