<svg width="110" height="110" viewBox="0 0 110 110" fill="none" xmlns="http://www.w3.org/2000/svg">
<g clip-path="url(#clip0)">
<path d="M100.204 18.9946C85.0694 14.8477 69.8458 8.39055 56.1789 0.321459C55.453 -0.107153 54.5522 -0.107153 53.8264 0.321459C39.7653 8.62236 25.3644 14.7301 9.80007 18.9946C8.79461 19.2698 8.09766 20.1837 8.09766 21.2264V44.869C8.09766 69.2157 19.3294 85.3315 28.752 94.5636C38.8961 104.503 50.7125 110 55.0027 110C59.2925 110 71.1088 104.503 81.2529 94.5636C90.6753 85.3317 101.906 69.2159 101.906 44.869V21.2261C101.906 20.1837 101.209 19.2698 100.204 18.9946ZM97.2787 44.8688C97.2787 67.6085 86.8027 82.6464 78.0139 91.2578C68.0385 101.032 57.373 105.372 55.0027 105.372C52.6323 105.372 41.9662 101.032 31.9906 91.2578C23.202 82.6462 12.7256 67.6085 12.7256 44.8688V22.9827C27.6095 18.7567 41.4708 12.8591 55.0031 4.99516C68.1975 12.6505 82.7503 18.8414 97.2787 22.9818V44.8688Z" fill="#160A8B"/>
<path d="M34.4945 22.7238C34.0262 21.5347 32.6827 20.9505 31.4934 21.4191C27.3598 23.0478 23.1171 24.547 18.8831 25.8751C17.9183 26.1781 17.2617 27.0718 17.2617 28.0829V37.0184C17.2617 38.2963 18.2979 39.3323 19.5756 39.3323C20.8533 39.3323 21.8894 38.2963 21.8894 37.0184V29.7739C25.6877 28.545 29.4818 27.1857 33.1898 25.7245C34.3789 25.2564 34.9631 23.913 34.4945 22.7238Z" fill="#160A8B"/>
<path d="M38.8895 23.1627C39.1999 23.1627 39.5151 23.1001 39.8174 22.9682L39.8599 22.9497C41.0306 22.4367 41.5578 21.0739 41.0448 19.9037C40.5313 18.733 39.1608 18.2034 37.9914 18.716L37.954 18.7322C36.7827 19.2437 36.2538 20.6054 36.7653 21.7763C37.1449 22.6455 37.9968 23.1627 38.8895 23.1627Z" fill="#160A8B"/>
<path d="M82.5723 74.6114C81.503 73.9125 80.0692 74.2131 79.3694 75.2828C77.4627 78.2012 75.2258 80.9959 72.7198 83.5884C70.659 85.7201 68.426 87.707 66.0827 89.4934C65.0667 90.2681 64.8712 91.72 65.6457 92.7364C66.1013 93.3335 66.7903 93.6476 67.4873 93.6476C67.9767 93.6476 68.4698 93.4931 68.8887 93.1734C71.4164 91.2461 73.8248 89.1034 76.0467 86.805C78.7561 84.0026 81.1773 80.9776 83.2437 77.8141C83.943 76.7442 83.642 75.3103 82.5723 74.6114Z" fill="#160A8B"/>
<path d="M60.7058 93.1223L60.5731 93.2005C59.4673 93.8409 59.0894 95.2563 59.7296 96.3621C60.1586 97.1033 60.9353 97.5171 61.7343 97.5171C62.1275 97.5171 62.5266 97.4168 62.8912 97.2052L63.0444 97.1151C64.1472 96.4693 64.5176 95.052 63.8718 93.9492C63.2255 92.8468 61.808 92.4771 60.7058 93.1223Z" fill="#160A8B"/>
<path d="M39.2313 50.2775C37.8106 48.8565 35.921 48.0745 33.9114 48.0745C31.9017 48.0745 30.012 48.8567 28.5906 50.2775C25.6573 53.2114 25.6573 57.9852 28.5906 60.9189L42.2537 74.5816C43.6747 76.0022 45.5643 76.7844 47.5741 76.7844C49.584 76.7844 51.4735 76.0022 52.8947 74.5812L81.4175 46.0581C84.3506 43.1236 84.3506 38.3504 81.4171 35.4176C79.9961 33.9966 78.1066 33.2146 76.0965 33.2146C74.0866 33.2146 72.1971 33.9968 70.7759 35.4176L47.5739 58.6196L39.2313 50.2775ZM74.0484 38.6901C74.5952 38.1433 75.3228 37.8423 76.0967 37.8423C76.871 37.8423 77.598 38.1433 78.1452 38.6901C79.2743 39.8191 79.2742 41.6569 78.1448 42.7863L49.6224 71.3089C49.0757 71.8557 48.348 72.1567 47.5741 72.1567C46.8003 72.1567 46.0726 71.8557 45.5256 71.3089L31.8628 57.6466C30.7334 56.5172 30.7334 54.6794 31.8624 53.5504C32.4094 53.0036 33.1371 52.7022 33.9112 52.7022C34.6852 52.7022 35.4125 53.0032 35.9593 53.55L45.9377 63.5286C46.3719 63.9623 46.9601 64.2062 47.5739 64.2062C48.1877 64.2062 48.776 63.9625 49.2097 63.5286L74.0484 38.6901Z" fill="#160A8B"/>
</g>
<defs>
<clipPath id="clip0">
<rect width="110" height="110" fill="white"/>
</clipPath>
</defs>
</svg>
