<svg width="120" height="120" viewBox="0 0 120 120" fill="none" xmlns="http://www.w3.org/2000/svg">
<path d="M102.583 42.8505L102.561 42.7913C99.6662 35.4005 94.6798 29.0866 88.1417 24.5323C81.4501 19.8713 73.588 17.3974 65.4055 17.3777C65.372 17.3777 65.3401 17.3777 65.3068 17.3777C64.8587 17.3777 64.4122 17.3876 63.9664 17.4021L67.2753 14.093L58.5519 5.36953L53.5543 10.3671C51.0823 8.83195 48.4135 7.72523 45.5888 7.06383V0H33.2518V7.06406C30.4273 7.72547 27.7583 8.83219 25.2863 10.3673L20.2888 5.36953L11.5648 14.093L16.5627 19.0908C15.0277 21.5627 13.9208 24.2318 13.2596 27.0563H6.19531V39.3933H13.2596C13.921 42.2177 15.0277 44.8868 16.5627 47.3587L11.5648 52.3563L20.2883 61.0798L25.2859 56.082C25.3016 56.0916 25.3177 56.1005 25.3332 56.1101C25.321 56.5134 25.3123 56.9173 25.3119 57.3227C25.3006 66.387 28.4054 75.2695 34.0543 82.3341C36.4883 85.3779 39.3521 88.0387 42.526 90.2405V120H88.3316L88.3318 97.2727C95.9584 96.4102 101.904 89.9196 101.904 82.0666V74.8936H113.803L102.583 42.8505ZM24.8605 51.6127L20.2888 56.1846L16.4605 52.3563L21.0324 47.7846L20.2034 46.5956C18.2565 43.8026 16.9679 40.695 16.3735 37.3591L16.1195 35.9318H9.65703V30.518H16.1195L16.3735 29.0906C16.9677 25.7543 18.2565 22.6467 20.2034 19.8541L21.0324 18.6652L16.4602 14.093L20.2885 10.2647L24.8602 14.8366L26.049 14.0077C28.842 12.0607 31.9496 10.7721 35.2855 10.1777L36.7128 9.92344V3.46148H42.1266V9.92367L43.554 10.178C46.8903 10.7721 49.9977 12.0607 52.7905 14.0079L53.9795 14.8369L58.5514 10.2649L62.3797 14.0932L57.8077 18.6652L58.6367 19.8541C60.5839 22.647 61.8723 25.7545 62.4664 29.0906L62.7207 30.518H69.1831V35.9318H62.7207L62.4664 37.3591C61.8725 40.6952 60.5839 43.8028 58.6367 46.5956L57.8077 47.7844L62.3797 52.3561L58.5514 56.1844L53.9795 51.6124L52.7905 52.4414C49.9977 54.3886 46.8901 55.677 43.554 56.2713L42.1266 56.5256V62.9878H36.7128V56.5256L35.2855 56.2713C31.9491 55.6772 28.8418 54.3886 26.049 52.4414L24.8605 51.6127ZM101.905 71.4321V67.5042H98.4434V82.0664C98.4434 88.5961 93.1313 93.9084 86.6014 93.9084H79.5373V97.3699H84.8705V116.539H45.9882V92.3916C49.1396 94.1358 52.5233 95.456 56.0422 96.2909L56.8414 92.9229C40.482 89.0416 29.0164 74.6897 28.7795 57.9049C30.2202 58.5274 31.7122 59.025 33.2518 59.3857V66.4498H45.5888V59.3857C48.4135 58.7243 51.0821 57.6178 53.5543 56.0827L58.5519 61.0805L67.2753 52.357L62.2777 47.3595C63.8129 44.8875 64.9196 42.2184 65.5808 39.394H72.6448V27.057H65.5808C65.0776 24.9063 64.314 22.8469 63.3017 20.895C63.9671 20.8596 64.6353 20.8402 65.307 20.8402C65.3368 20.8402 65.3675 20.8402 65.3973 20.8402C80.495 20.8762 93.8098 29.9752 99.3268 44.0252L108.924 71.4324H101.905V71.4321Z" fill="#160A8B"/>
<path d="M39.4185 16.3335C30.1047 16.3335 22.5273 23.9108 22.5273 33.2247C22.5273 42.5385 30.1047 50.1158 39.4185 50.1158C48.7323 50.1158 56.3097 42.5383 56.3097 33.2247C56.3097 23.9108 48.7326 16.3335 39.4185 16.3335ZM39.4185 46.6544C32.0134 46.6544 25.9888 40.63 25.9888 33.2247C25.9888 25.8194 32.0132 19.795 39.4185 19.795C46.8236 19.795 52.8482 25.8194 52.8482 33.2247C52.8482 40.63 46.8238 46.6544 39.4185 46.6544Z" fill="#160A8B"/>
<path d="M39.4186 26.689C35.8146 26.689 32.8828 29.621 32.8828 33.2247C32.8828 36.8287 35.8151 39.7605 39.4186 39.7605C43.0223 39.7605 45.9544 36.8285 45.9544 33.2247C45.9546 29.6208 43.0226 26.689 39.4186 26.689ZM39.4186 36.299C37.7234 36.299 36.3443 34.9197 36.3443 33.2247C36.3443 31.5295 37.7236 30.1504 39.4186 30.1504C41.1136 30.1504 42.4929 31.5295 42.4929 33.2247C42.4931 34.92 41.1138 36.299 39.4186 36.299Z" fill="#160A8B"/>
</svg>
