<svg width="116" height="116" viewBox="0 0 116 116" fill="none" xmlns="http://www.w3.org/2000/svg">
<path d="M85.0667 44.4666H112.133C114.269 44.4666 116 42.7353 116 40.5999V28.9999C116 26.8646 114.269 25.1332 112.133 25.1332H85.0667C82.9313 25.1332 81.2 26.8646 81.2 28.9999V32.8666H73.4667C72.399 32.8666 71.5333 33.7322 71.5333 34.7999V57.9999H61.8667V32.8666C61.8667 32.3096 61.6259 31.78 61.2077 31.4128L45.7411 17.8795C45.388 17.5708 44.9358 17.3999 44.4667 17.3999H5.8C2.59697 17.3999 0 19.9969 0 23.1999V92.7999C0 96.0029 2.59697 98.5999 5.8 98.5999H56.0667C59.2697 98.5999 61.8667 96.0029 61.8667 92.7999V61.8666H71.5333V85.0666C71.5333 86.1342 72.399 86.9999 73.4667 86.9999H81.2V90.8666C81.2 93.0019 82.9313 94.7332 85.0667 94.7332H112.133C114.269 94.7332 116 93.0019 116 90.8666V79.2666C116 77.1312 114.269 75.3999 112.133 75.3999H85.0667C82.9313 75.3999 81.2 77.1312 81.2 79.2666V83.1332H75.4V61.8666H81.2V65.7332C81.2 67.8686 82.9313 69.5999 85.0667 69.5999H112.133C114.269 69.5999 116 67.8686 116 65.7332V54.1332C116 51.9979 114.269 50.2666 112.133 50.2666H85.0667C82.9313 50.2666 81.2 51.9979 81.2 54.1332V57.9999H75.4V36.7332H81.2V40.5999C81.2 42.7353 82.9313 44.4666 85.0667 44.4666ZM85.0667 28.9999H112.133V40.5999H85.0667V28.9999ZM46.4 23.5869L54.7885 30.9332H46.4V23.5869ZM58 92.7999C58 93.8676 57.1343 94.7332 56.0667 94.7332H5.8C4.73232 94.7332 3.86667 93.8676 3.86667 92.7999V23.1999C3.86667 22.1322 4.73232 21.2666 5.8 21.2666H42.5333V32.8666C42.5333 33.9342 43.399 34.7999 44.4667 34.7999H58V57.9999H44.3118C43.298 50.9746 37.0279 45.926 29.9487 46.4348C22.8687 46.9427 17.384 52.8352 17.384 59.9332C17.384 67.0312 22.8687 72.9238 29.9487 73.4316C37.0279 73.9405 43.298 68.8919 44.3118 61.8666H58V92.7999ZM40.6 59.9332C40.6 65.2716 36.2717 69.5999 30.9333 69.5999C25.595 69.5999 21.2667 65.2716 21.2667 59.9332C21.2667 54.5949 25.595 50.2666 30.9333 50.2666C36.2698 50.2732 40.5934 54.5967 40.6 59.9332ZM85.0667 79.2666H112.133V90.8666H85.0667V79.2666ZM85.0667 54.1332H112.133V65.7332H85.0667V54.1332Z" fill="#160A8B"/>
<path d="M28.9992 61.0661L26.4995 58.5664L23.7656 61.3002L27.6323 65.1669C28.3875 65.9212 29.6109 65.9212 30.3661 65.1669L38.0995 57.4336L35.3656 54.6997L28.9992 61.0661Z" fill="#160A8B"/>
<path d="M88.9336 32.8667H92.8003V36.7334H88.9336V32.8667Z" fill="#160A8B"/>
<path d="M96.668 32.8667H100.535V36.7334H96.668V32.8667Z" fill="#160A8B"/>
<path d="M104.398 32.8667H108.265V36.7334H104.398V32.8667Z" fill="#160A8B"/>
<path d="M88.9336 58H92.8003V61.8667H88.9336V58Z" fill="#160A8B"/>
<path d="M96.668 58H100.535V61.8667H96.668V58Z" fill="#160A8B"/>
<path d="M104.398 58H108.265V61.8667H104.398V58Z" fill="#160A8B"/>
<path d="M88.9336 83.1333H92.8003V87H88.9336V83.1333Z" fill="#160A8B"/>
<path d="M96.668 83.1333H100.535V87H96.668V83.1333Z" fill="#160A8B"/>
<path d="M104.398 83.1333H108.265V87H104.398V83.1333Z" fill="#160A8B"/>
<path d="M9.66797 36.7334H17.4013V40.6001H9.66797V36.7334Z" fill="#160A8B"/>
<path d="M23.1992 36.7334H52.1992V40.6001H23.1992V36.7334Z" fill="#160A8B"/>
<path d="M9.66797 79.2666H17.4013V83.1333H9.66797V79.2666Z" fill="#160A8B"/>
<path d="M23.1992 79.2666H52.1992V83.1333H23.1992V79.2666Z" fill="#160A8B"/>
</svg>
