<svg width="114" height="113" viewBox="0 0 114 113" fill="none" xmlns="http://www.w3.org/2000/svg">
<path d="M77.0391 70.4043C75.8096 70.4043 74.8125 71.3924 74.8125 72.6113V87.8398C74.8125 93.9246 69.8183 98.875 63.6797 98.875H39.6399C38.4107 98.875 37.4143 99.8622 37.4134 101.08L37.4103 105.469L32.0959 100.201C31.7519 99.4181 30.9646 98.875 30.0539 98.875H15.5859C9.4473 98.875 4.45312 93.9246 4.45312 87.8398V53.8516C4.45312 47.7668 9.4473 42.8164 15.5859 42.8164H38.0742C39.3037 42.8164 40.3008 41.8283 40.3008 40.6094C40.3008 39.3904 39.3037 38.4023 38.0742 38.4023H15.5859C6.99185 38.4023 0 45.3329 0 53.8516V87.8398C0 96.3585 6.99185 103.289 15.5859 103.289H28.9137L38.0584 112.354C38.4844 112.776 39.0537 113 39.6333 113C39.9198 113 40.209 112.945 40.484 112.832C41.3161 112.491 41.8587 111.687 41.8594 110.795L41.8647 103.289H63.6797C72.2738 103.289 79.2656 96.3585 79.2656 87.8398V72.6113C79.2656 71.3924 78.2686 70.4043 77.0391 70.4043Z" fill="#160A8B"/>
<path d="M81.638 0H76.0028C58.1583 0 43.6406 14.3903 43.6406 32.0783C43.6406 49.7663 58.1583 64.1564 76.0026 64.1564H81.6378C84.423 64.1564 87.1797 63.8057 89.8516 63.1127L98.176 71.3595C98.602 71.7813 99.1711 72.0055 99.7505 72.0055C100.037 72.0055 100.327 71.9505 100.602 71.8373C101.434 71.4957 101.977 70.691 101.977 69.7985V57.0295C105.501 54.2003 108.429 50.6264 110.483 46.6339C112.817 42.0993 114 37.2022 114 32.0783C114 14.3903 99.4824 0 81.638 0ZM98.4103 54.1903C97.8521 54.6073 97.5234 55.2601 97.5234 55.9533V64.4725L92.0748 59.0745C91.6509 58.6547 91.0822 58.4285 90.5006 58.4285C90.2824 58.4285 90.062 58.4605 89.8469 58.5261C87.1966 59.3334 84.4348 59.7426 81.638 59.7426H76.0028C60.6135 59.7426 48.0938 47.3324 48.0938 32.0783C48.0938 16.8242 60.6137 4.41406 76.0028 4.41406H81.638C97.0271 4.41406 109.547 16.8242 109.547 32.0783C109.547 40.8471 105.488 48.9067 98.4103 54.1903Z" fill="#160A8B"/>
<path d="M88.8498 24.1495C88.5285 19.5291 84.771 15.8045 80.1094 15.4861C77.4669 15.3062 74.9451 16.1897 73.0149 17.9758C71.1112 19.7372 70.0195 22.2272 70.0195 24.8075C70.0195 26.0264 71.0166 27.0145 72.2461 27.0145C73.4756 27.0145 74.4727 26.0264 74.4727 24.8075C74.4727 23.4261 75.0342 22.1458 76.0535 21.2027C77.0719 20.2605 78.403 19.7942 79.8035 19.89C82.2589 20.0577 84.2381 22.0195 84.4074 24.4532C84.5784 26.9112 82.9514 29.0834 80.5391 29.6183C78.5847 30.0518 77.2198 31.7353 77.2198 33.7122V39.0146C77.2198 40.2335 78.2168 41.2216 79.4463 41.2216C80.6761 41.2216 81.6729 40.2335 81.6727 39.0146V33.8885C86.1592 32.8141 89.1693 28.7448 88.8498 24.1495Z" fill="#160A8B"/>
<path d="M81.0156 46.1843C80.6014 45.7737 80.027 45.5376 79.4414 45.5376C78.8558 45.5376 78.2814 45.7737 77.8672 46.1843C77.4531 46.5948 77.2148 47.1642 77.2148 47.7446C77.2148 48.3273 77.4533 48.8967 77.8672 49.3072C78.2814 49.7177 78.8558 49.9517 79.4414 49.9517C80.027 49.9517 80.6014 49.7177 81.0156 49.3072C81.4297 48.8945 81.668 48.3273 81.668 47.7446C81.668 47.1642 81.4295 46.5948 81.0156 46.1843Z" fill="#160A8B"/>
<path d="M61.2305 68.418H14.25C13.0205 68.418 12.0234 69.4061 12.0234 70.625C12.0234 71.8439 13.0205 72.832 14.25 72.832H61.2305C62.4602 72.832 63.457 71.8439 63.457 70.625C63.457 69.4061 62.46 68.418 61.2305 68.418Z" fill="#160A8B"/>
<path d="M62.8044 81.424C62.3905 81.0135 61.8161 80.7773 61.2305 80.7773C60.6449 80.7773 60.0704 81.0135 59.6563 81.424C59.2419 81.8345 59.0039 82.4039 59.0039 82.9844C59.0039 83.5648 59.2421 84.1342 59.6563 84.5447C60.0704 84.9553 60.6449 85.1914 61.2305 85.1914C61.8161 85.1914 62.3905 84.9553 62.8044 84.5447C63.2188 84.1342 63.457 83.567 63.457 82.9844C63.457 82.4039 63.2186 81.8345 62.8044 81.424Z" fill="#160A8B"/>
<path d="M52.4727 80.7773H14.25C13.0205 80.7773 12.0234 81.7654 12.0234 82.9844C12.0234 84.2033 13.0205 85.1914 14.25 85.1914H52.4727C53.7025 85.1914 54.6993 84.2033 54.6993 82.9844C54.6993 81.7654 53.7022 80.7773 52.4727 80.7773Z" fill="#160A8B"/>
<path d="M46.7578 56.0586H14.25C13.0205 56.0586 12.0234 57.0467 12.0234 58.2656C12.0234 59.4846 13.0205 60.4727 14.25 60.4727H46.7578C47.9875 60.4727 48.9844 59.4846 48.9844 58.2656C48.9844 57.0467 47.9873 56.0586 46.7578 56.0586Z" fill="#160A8B"/>
</svg>
