<svg width="110" height="110" viewBox="0 0 110 110" fill="none" xmlns="http://www.w3.org/2000/svg">
<path d="M107.401 51.4692C105.754 49.9502 103.514 49.012 101.255 48.8945C98.6894 48.7619 96.2858 49.6766 94.4957 51.4676L82.2647 63.5702C82.023 63.1514 81.7469 62.7561 81.4372 62.3893C79.9325 60.6026 77.732 59.619 75.242 59.619H58.12C54.8914 59.619 51.7418 59.2003 48.7592 58.3753C40.9828 56.2243 33.5539 57.7954 27.2739 62.9214C24.7201 65.0061 22.857 67.2737 21.6788 68.927L18.6088 65.9477C18.2052 65.5558 17.658 65.3334 17.0949 65.3334C17.0898 65.3334 17.0856 65.3334 17.0806 65.3334C16.4973 65.3376 15.9334 65.5801 15.5289 65.9997L0.604766 81.4928C0.205291 81.9074 -0.0120707 82.4647 0.000517849 83.0404C0.0131064 83.6169 0.253966 84.1641 0.671066 84.5611L25.9127 108.596C26.3315 108.995 26.8686 109.193 27.4049 109.193C27.968 109.193 28.5311 108.974 28.9549 108.54L43.7397 93.3713C44.1434 92.9568 44.3674 92.3903 44.3565 91.8112C44.3456 91.2405 44.1064 90.69 43.6969 90.2922L42.4095 89.0434L45.3561 88.7119C47.1386 88.5046 48.9513 88.3997 50.7456 88.3997H76.7963C81.0294 88.3997 84.6246 87.474 87.4831 85.6479C87.5066 85.6328 87.5301 85.6168 87.5536 85.6009C88.5774 84.8892 89.5065 84.0458 90.3138 83.0949L107.869 62.4422C110.873 58.9082 110.685 54.498 107.401 51.4692ZM27.3486 103.988L5.23146 82.9279L17.1461 70.5585L39.134 91.896L27.3486 103.988ZM104.572 59.6392L87.0165 80.2927C86.4592 80.9482 85.8205 81.5306 85.1164 82.0241C82.9705 83.3828 80.1717 84.0726 76.7963 84.0726H50.7448C48.7852 84.0726 46.8037 84.1876 44.8643 84.4134L38.3871 85.1401L24.825 71.9793C25.7675 70.5819 27.5005 68.3236 30.0107 66.2742C35.229 62.0142 41.149 60.7596 47.6052 62.5463C50.9638 63.4753 54.5012 63.947 58.12 63.947H75.242C78.317 63.947 79.1377 66.6107 79.1377 68.1843C79.1377 69.334 78.7685 70.4284 78.1248 71.187C77.4265 72.0086 76.4337 72.4249 75.174 72.4249H60.2692C59.0742 72.4249 58.1057 73.3942 58.1057 74.5893C58.1057 75.7844 59.0742 76.7528 60.2692 76.7528H75.174C77.6901 76.7528 79.909 75.7709 81.423 73.9884C82.6827 72.5063 83.401 70.5576 83.4615 68.4746L97.548 54.5358C99.5613 52.5225 102.707 53.0277 104.467 54.6508C105.376 55.49 106.6 57.2532 104.572 59.6392Z" fill="#160A8B"/>
<path d="M53.5209 74.0129C53.2481 72.8489 52.0841 72.128 50.9201 72.3999C49.7569 72.6726 49.0343 73.8367 49.3079 75.0007L49.328 75.0888C49.5622 76.0858 50.4509 76.7589 51.4328 76.7589C51.5965 76.7589 51.7627 76.7404 51.9288 76.7018C53.0928 76.429 53.8146 75.2642 53.5418 74.101L53.5209 74.0129Z" fill="#160A8B"/>
<path d="M14.6261 46.5137H35.711C36.859 46.5137 37.9215 46.1411 38.7859 45.5116C39.6503 46.1411 40.7128 46.5137 41.8609 46.5137H62.9466C64.0947 46.5137 65.1572 46.1411 66.0216 45.5116C66.886 46.1411 67.9484 46.5137 69.0965 46.5137H90.1814C93.0701 46.5137 95.4199 44.163 95.4199 41.2744V31.4419C95.4199 27.0258 92.9484 23.1897 89.249 21.2972C91.0416 19.1354 92.1209 16.3625 92.1209 13.3413C92.1209 6.45874 86.5215 0.859375 79.639 0.859375C72.7564 0.859375 67.1571 6.45874 67.1571 13.3413C67.1571 16.3625 68.2363 19.1362 70.0289 21.2972C68.4302 22.1163 67.0614 23.2988 66.0216 24.7331C64.9818 23.298 63.613 22.1155 62.0134 21.2972C63.806 19.1362 64.8852 16.3625 64.8852 13.3413C64.8852 6.45874 59.2859 0.859375 52.4033 0.859375C45.5208 0.859375 39.9214 6.45874 39.9214 13.3413C39.9214 16.3625 41.0015 19.1362 42.7941 21.2981C41.1945 22.1163 39.8257 23.2988 38.7859 24.7339C37.7461 23.2988 36.3773 22.1163 34.7777 21.2972C36.5703 19.1362 37.6496 16.3625 37.6496 13.3421C37.6496 6.45874 32.0502 0.859375 25.1677 0.859375C18.286 0.859375 12.6866 6.45874 12.6866 13.3421C12.6866 16.3625 13.7658 19.1362 15.5584 21.2981C11.8591 23.1905 9.38672 27.0275 9.38672 31.4427V41.2744C9.38672 44.163 11.7374 46.5137 14.6261 46.5137ZM79.6398 5.1873C84.1356 5.1873 87.7938 8.84468 87.7938 13.3413C87.7938 17.8371 84.1356 21.4953 79.6398 21.4953C75.1432 21.4953 71.4858 17.8379 71.4858 13.3413C71.485 8.84468 75.1432 5.1873 79.6398 5.1873ZM74.0178 24.4804C75.7088 25.3373 77.6181 25.8232 79.639 25.8232C81.6607 25.8232 83.5699 25.3373 85.2602 24.4804C88.623 25.0662 91.0928 27.9641 91.0928 31.4419V41.2744C91.0928 41.7771 90.6841 42.1858 90.1814 42.1858H69.0965C68.5947 42.1858 68.186 41.7771 68.186 41.2744V31.4419C68.1851 27.9649 70.6558 25.0662 74.0178 24.4804ZM52.4042 5.1873C56.8999 5.1873 60.5582 8.84468 60.5582 13.3413C60.5582 17.8371 56.8999 21.4953 52.4042 21.4953C47.9075 21.4953 44.2502 17.8379 44.2502 13.3413C44.2502 8.84468 47.9075 5.1873 52.4042 5.1873ZM46.783 24.4804C48.4732 25.3373 50.3824 25.8232 52.4042 25.8232C54.4259 25.8232 56.3343 25.3373 58.0253 24.4804C61.3873 25.0662 63.858 27.9641 63.858 31.4419V41.2744C63.858 41.7771 63.4493 42.1858 62.9466 42.1858H41.8617C41.359 42.1858 40.9503 41.7771 40.9503 41.2744V31.4419C40.9503 27.9649 43.421 25.0662 46.783 24.4804ZM25.1685 5.1873C29.6643 5.1873 33.3225 8.84468 33.3225 13.3413C33.3225 17.8371 29.6643 21.4953 25.1685 21.4953C20.6727 21.4953 17.0145 17.8371 17.0145 13.3413C17.0145 8.84468 20.6727 5.1873 25.1685 5.1873ZM13.7146 31.4419C13.7146 27.9649 16.1854 25.0662 19.5473 24.4804C21.2384 25.3373 23.1468 25.8232 25.1685 25.8232C27.1902 25.8232 29.0986 25.3373 30.7897 24.4804C34.1525 25.0662 36.6224 27.9641 36.6224 31.4419V41.2744C36.6224 41.7771 36.2137 42.1858 35.711 42.1858H14.6261C14.1234 42.1858 13.7146 41.7771 13.7146 41.2744V31.4419Z" fill="#160A8B"/>
</svg>
