<svg width="100" height="100" viewBox="0 0 100 100" fill="none" xmlns="http://www.w3.org/2000/svg">
<path d="M85.0013 8.33333C85.0013 3.66699 81.3343 0 76.668 0H15.0013C10.335 0 6.66797 3.66699 6.66797 8.33333V21.6667H20.0013V91.6667C20.0013 96.333 23.6683 100 28.3346 100H85.0013C89.6676 100 93.3346 96.333 93.3346 91.6667V83.3333H85.0013V8.33333ZM20.0013 18.3333H10.0013V8.33333C10.0013 5.49967 12.1676 3.33333 15.0013 3.33333C17.835 3.33333 20.0013 5.49967 20.0013 8.33333V18.3333ZM23.3346 91.6667V8.33333C23.3346 6.49984 22.6681 4.83317 21.668 3.33333H76.668C79.5016 3.33333 81.668 5.49967 81.668 8.33333V83.3333H33.3346V91.6667C33.3346 94.5003 31.1683 96.6667 28.3346 96.6667C25.501 96.6667 23.3346 94.5003 23.3346 91.6667ZM90.0013 86.6667V91.6667C90.0013 94.5003 87.835 96.6667 85.0013 96.6667H35.0013C36.1683 95.1668 36.668 93.5002 36.668 91.6667V86.6667H90.0013Z" fill="#160A8B"/>
<path d="M65 53.3333H78.3333V56.6666H65V53.3333Z" fill="#160A8B"/>
<path d="M26.668 53.3333H61.668V56.6666H26.668V53.3333Z" fill="#160A8B"/>
<path d="M45 60H78.3333V63.3333H45V60Z" fill="#160A8B"/>
<path d="M26.668 60H41.668V63.3333H26.668V60Z" fill="#160A8B"/>
<path d="M56.668 73.3333H78.3346V76.6666H56.668V73.3333Z" fill="#160A8B"/>
<path d="M26.668 73.3333H53.3346V76.6666H26.668V73.3333Z" fill="#160A8B"/>
<path d="M49.6663 33.9999L51.6667 35.3337L53.667 33.9999C59.6663 30.0001 63.3333 23.1666 63.3333 16.0002V10.4998L51.6667 6.66675L40 10.4998V16.0002C40 23.1666 43.667 30.0001 49.6663 33.9999ZM43.3333 12.8337L51.6667 10.0001L60 12.8337V16.0002C60 22.1664 57.0003 27.8337 51.8335 31.3331H51.6667L51.4998 31.1671C46.333 27.8337 43.3333 22.0004 43.3333 15.8334V12.8337Z" fill="#160A8B"/>
<path d="M56.668 16.8334L53.3346 16.4998C53.001 19.3334 51.5011 22.0002 49.168 23.6669L51.0015 26.4998C54.168 24.1666 56.3343 20.6664 56.668 16.8334Z" fill="#160A8B"/>
<path d="M36.668 66.6667H78.3346V70.0001H36.668V66.6667Z" fill="#160A8B"/>
<path d="M26.668 66.6667H33.3346V70.0001H26.668V66.6667Z" fill="#160A8B"/>
<path d="M45 46.6667H78.3333V50.0001H45V46.6667Z" fill="#160A8B"/>
<path d="M26.668 46.6667H41.668V50.0001H26.668V46.6667Z" fill="#160A8B"/>
<path d="M40 38.3333H63.3333V41.6666H40V38.3333Z" fill="#160A8B"/>
</svg>
