<svg width="130" height="130" viewBox="0 0 130 130" fill="none" xmlns="http://www.w3.org/2000/svg">
<g clip-path="url(#clip0)">
<path d="M126.061 89.615H123.986V30.7851C123.986 24.4504 118.832 19.2969 112.498 19.2969H89.7717C88.7194 19.2969 87.8664 20.1498 87.8664 21.2022C87.8664 22.2555 88.7194 23.1084 89.7717 23.1084H112.498C116.73 23.1084 120.175 26.552 120.175 30.7851V89.615H114.821V35.8008C114.821 32.0517 111.771 29.0018 108.022 29.0018H21.9778C18.2287 29.0018 15.1788 32.0517 15.1788 35.8008V89.615H9.82498V30.7851C9.82498 26.552 13.2696 23.1084 17.5017 23.1084H80.8791C81.9324 23.1084 82.7853 22.2555 82.7853 21.2022C82.7853 20.1498 81.9324 19.2969 80.8791 19.2969H17.5017C11.1679 19.2969 6.0144 24.4504 6.0144 30.7851V89.615H3.93852C1.76643 89.615 0 91.3815 0 93.5535V99.0621C0 105.574 5.29831 110.873 11.8106 110.873H25.4491C26.5025 110.873 27.3544 110.02 27.3544 108.967C27.3544 107.915 26.5025 107.062 25.4491 107.062H11.8106C7.39998 107.061 3.81157 103.473 3.81157 99.0611V93.5535C3.81157 93.4831 3.8681 93.4266 3.93852 93.4266H50.813C51.3793 93.4266 51.909 93.7053 52.2303 94.1714L53.7954 96.4487C54.8279 97.9503 56.5318 98.8469 58.3528 98.8469H71.6472C73.4682 98.8469 75.1721 97.9503 76.2046 96.4487L77.7697 94.1714C78.091 93.7053 78.6207 93.4266 79.187 93.4266H126.061C126.132 93.4266 126.188 93.4831 126.188 93.5535V99.0611C126.188 103.473 122.6 107.061 118.189 107.061H34.3527C33.3004 107.061 32.4474 107.914 32.4474 108.967C32.4474 110.02 33.3004 110.873 34.3527 110.873H118.189C124.702 110.873 130 105.574 130 99.0611V93.5535C130 91.3815 128.234 89.615 126.061 89.615ZM111.011 89.615H79.187C77.365 89.615 75.6621 90.5116 74.6296 92.0123L73.0635 94.2905C72.7431 94.7566 72.2135 95.0353 71.6472 95.0353H58.3538C57.7875 95.0353 57.2578 94.7566 56.9365 94.2905L55.3714 92.0123C54.3389 90.5116 52.635 89.615 50.813 89.615H18.9894V35.8008C18.9894 34.1534 20.3304 32.8124 21.9778 32.8124H108.022C109.67 32.8124 111.011 34.1534 111.011 35.8008V89.615Z" fill="#160A8B"/>
<path d="M30.1133 45.9412H33.67C34.7223 45.9412 35.5753 45.0882 35.5753 44.0349C35.5753 42.9826 34.7223 42.1296 33.67 42.1296H30.1133C29.06 42.1296 28.207 42.9826 28.207 44.0349C28.207 45.0882 29.061 45.9412 30.1133 45.9412Z" fill="#160A8B"/>
<path d="M42.4365 45.9412H66.3196C67.3719 45.9412 68.2249 45.0882 68.2249 44.0349C68.2249 42.9826 67.3719 42.1296 66.3196 42.1296H42.4365C41.3842 42.1296 40.5312 42.9826 40.5312 44.0349C40.5312 45.0882 41.3842 45.9412 42.4365 45.9412Z" fill="#160A8B"/>
<path d="M30.1133 53.7132H73.1643C74.2176 53.7132 75.0706 52.8602 75.0706 51.8079C75.0706 50.7556 74.2176 49.9026 73.1643 49.9026H30.1133C29.06 49.9026 28.207 50.7556 28.207 51.8079C28.207 52.8602 29.061 53.7132 30.1133 53.7132Z" fill="#160A8B"/>
<path d="M58.4466 69.0754H31.9015C29.8663 69.0754 28.2109 70.7308 28.2109 72.766V80.411C28.2109 82.4462 29.8663 84.1005 31.9015 84.1005H58.4466C60.4818 84.1005 62.1372 82.4452 62.1372 80.411V72.766C62.1372 70.7308 60.4818 69.0754 58.4466 69.0754ZM58.3256 80.29H32.0215V72.886H58.3256V80.29Z" fill="#160A8B"/>
<path d="M30.1133 65.0208H33.7345C34.7868 65.0208 35.6397 64.1678 35.6397 63.1155C35.6397 62.0632 34.7868 61.2102 33.7345 61.2102H30.1133C29.06 61.2102 28.207 62.0632 28.207 63.1155C28.207 64.1678 29.061 65.0208 30.1133 65.0208Z" fill="#160A8B"/>
<path d="M42.3125 61.2102C41.2592 61.2102 40.4062 62.0632 40.4062 63.1155C40.4062 64.1678 41.2592 65.0208 42.3125 65.0208H45.9337C46.986 65.0208 47.839 64.1678 47.839 63.1155C47.839 62.0632 46.986 61.2102 45.9337 61.2102H42.3125Z" fill="#160A8B"/>
<path d="M54.7618 61.2102C53.7084 61.2102 52.8555 62.0632 52.8555 63.1155C52.8555 64.1678 53.7084 65.0208 54.7618 65.0208H58.3829C59.4352 65.0208 60.2882 64.1678 60.2882 63.1155C60.2882 62.0632 59.4352 61.2102 58.3829 61.2102H54.7618Z" fill="#160A8B"/>
<path d="M105.67 80.29H105.525V52.4297C105.525 50.6781 104.1 49.2539 102.35 49.2539H95.3623V45.3055C95.3623 43.5549 93.938 42.1296 92.1865 42.1296H84.6C82.8485 42.1296 81.4242 43.5549 81.4242 45.3055V59.7097H78.6719C76.9204 59.7097 75.4961 61.1349 75.4961 62.8865V80.29H71.1162C70.0639 80.29 69.2109 81.1429 69.2109 82.1953C69.2109 83.2486 70.0639 84.1005 71.1162 84.1005H105.67C106.723 84.1005 107.576 83.2486 107.576 82.1953C107.576 81.1429 106.723 80.29 105.67 80.29ZM85.6226 80.29H79.3077V63.5212H85.6226V80.29ZM91.5507 80.29H89.4342V62.8865C89.4342 61.1349 88.0089 59.7097 86.2584 59.7097H85.2358V45.9412H91.5507V80.29ZM101.714 80.29H95.398V53.0655H101.714V80.29Z" fill="#160A8B"/>
</g>
<defs>
<clipPath id="clip0">
<rect width="130" height="130" fill="white"/>
</clipPath>
</defs>
</svg>
