<svg width="100" height="100" viewBox="0 0 100 100" fill="none" xmlns="http://www.w3.org/2000/svg">
<path d="M84.7811 47.826H78.0854C77.7159 45.2543 76.7028 42.8934 75.2115 40.9043L79.9528 36.1652C80.8028 35.3173 80.8028 33.9413 79.9528 33.0913C79.1028 32.2413 77.7289 32.2413 76.8789 33.0913L72.1376 37.8304C70.1485 36.3391 67.7876 35.326 65.2159 34.9565V28.2608C65.2159 27.0608 64.2441 26.0869 63.042 26.0869C61.8398 26.0869 60.868 27.0608 60.868 28.2608V34.9565C58.2963 35.326 55.9376 36.3391 53.9463 37.8304L49.2093 33.0913C48.3593 32.2413 46.9854 32.2413 46.1354 33.0913C45.2854 33.9391 45.2854 35.3152 46.1354 36.1652L50.8724 40.9043C49.3811 42.8934 48.3702 45.2543 47.9985 47.826H41.3028C40.1006 47.826 39.1289 48.8 39.1289 50C39.1289 51.2021 40.1028 52.1739 41.3028 52.1739L47.9985 52.1717C48.368 54.7434 49.3811 57.1043 50.8724 59.0956L46.1354 63.8347C45.2854 64.6847 45.2854 66.0608 46.1354 66.9087C46.5593 67.3326 47.1159 67.5456 47.6724 67.5456C48.2289 67.5456 48.7854 67.3326 49.2093 66.9087L53.9463 62.1695C55.9354 63.6608 58.2963 64.6717 60.868 65.0434V71.7391C60.868 72.9391 61.8398 73.913 63.042 73.913C64.2441 73.913 65.2159 72.9391 65.2159 71.7391V65.0434C67.7876 64.6739 70.1463 63.6608 72.1376 62.1695L76.8789 66.9087C77.3028 67.3326 77.8593 67.5434 78.4159 67.5434C78.9724 67.5434 79.5289 67.3304 79.9528 66.9065C80.8028 66.0565 80.8028 64.6804 79.9528 63.8304L75.2115 59.0913C76.7028 57.1021 77.7137 54.7413 78.0854 52.1695H84.7811V52.1739C85.9833 52.1739 86.955 51.2 86.955 50C86.955 48.8 85.9833 47.826 84.7811 47.826ZM63.042 60.8695C57.0485 60.8695 52.1724 55.9934 52.1724 50C52.1724 44.0065 57.0485 39.1304 63.042 39.1304C69.0354 39.1304 73.9115 44.0065 73.9115 50C73.9115 55.9934 69.0354 60.8695 63.042 60.8695Z" fill="#160A8B"/>
<path d="M84.7821 23.913C85.9843 23.913 86.956 22.9391 86.956 21.7391V6.52174C86.956 2.92609 84.0299 0 80.4343 0H19.5647C15.9691 0 13.043 2.92609 13.043 6.52174V84.7826C13.043 85.3587 13.2712 85.913 13.6799 86.3196L26.7234 99.363C27.1299 99.7717 27.6821 100 28.2604 100H80.4343C84.0299 100 86.956 97.0739 86.956 93.4783V78.2609C86.956 77.0609 85.9843 76.087 84.7821 76.087C83.5799 76.087 82.6082 77.0609 82.6082 78.2609V93.4783C82.6082 94.6761 81.6343 95.6522 80.4343 95.6522H34.7821V80.4348C34.7821 79.2348 33.8104 78.2609 32.6082 78.2609H17.3908V6.52174C17.3908 5.32391 18.3647 4.34783 19.5647 4.34783H80.4343C81.6343 4.34783 82.6082 5.32391 82.6082 6.52174V21.7391C82.6082 22.9391 83.5799 23.913 84.7821 23.913ZM30.4343 82.6087V95.6522H29.1604L17.3908 83.8804V82.6087H30.4343Z" fill="#160A8B"/>
<path d="M71.7381 13.0435H28.2599C27.0577 13.0435 26.0859 14.0174 26.0859 15.2174V67.3913C26.0859 68.5913 27.0577 69.5652 28.2599 69.5652C29.462 69.5652 30.4338 68.5913 30.4338 67.3913V17.3913H71.7381C72.9403 17.3913 73.912 16.4174 73.912 15.2174C73.912 14.0174 72.9403 13.0435 71.7381 13.0435Z" fill="#160A8B"/>
<path d="M71.7374 82.6086H45.6505C44.4483 82.6086 43.4766 83.5826 43.4766 84.7826C43.4766 85.9826 44.4483 86.9565 45.6505 86.9565H71.7374C72.9396 86.9565 73.9113 85.9826 73.9113 84.7826C73.9113 83.5826 72.9396 82.6086 71.7374 82.6086Z" fill="#160A8B"/>
</svg>
