<svg width="100" height="100" viewBox="0 0 100 100" fill="none" xmlns="http://www.w3.org/2000/svg">
<path d="M21.2891 50.9324V63.8109C21.2891 65.9744 23.0463 67.7344 25.2062 67.7344H34.1859C36.3488 67.7344 38.1082 65.9742 38.1082 63.8109V50.9324C38.1082 48.7721 36.3488 47.0146 34.1859 47.0146H25.2062C23.0463 47.0146 21.2891 48.7723 21.2891 50.9324ZM25.2279 50.9541L34.1693 50.9514L34.1707 63.7951H25.2279V50.9541Z" fill="#160A8B"/>
<path d="M54.8787 67.7344C57.0387 67.7344 58.7957 65.9743 58.7957 63.811V43.378C58.7957 41.2176 57.0387 39.4602 54.8787 39.4602H45.899C43.7361 39.4602 41.9766 41.2178 41.9766 43.378V63.811C41.9766 65.9745 43.7361 67.7344 45.899 67.7344H54.8787ZM45.9154 43.3995H54.8566L54.8592 63.7948H45.9154V43.3995Z" fill="#160A8B"/>
<path d="M79.485 63.7889V36.9305C79.485 34.7702 77.7254 33.0126 75.5625 33.0126H66.5826C64.4197 33.0126 62.6602 34.7702 62.6602 36.9305V63.7889C62.6602 65.9524 64.4197 67.7124 66.5826 67.7124H75.5625C77.7254 67.7126 79.485 65.9524 79.485 63.7889ZM66.599 63.7731V36.952L75.5461 36.9493L75.5477 63.7729H66.599V63.7731Z" fill="#160A8B"/>
<path d="M22.043 76.0256C22.043 77.1135 22.9246 77.9954 24.0123 77.9954H65.6846C66.7723 77.9954 67.6541 77.1135 67.6541 76.0256C67.6541 74.9377 66.7723 74.0559 65.6846 74.0559H24.0123C22.9244 74.0559 22.043 74.9377 22.043 76.0256Z" fill="#160A8B"/>
<path d="M73.5131 81.7874H24.0123C22.9246 81.7874 22.043 82.6692 22.043 83.7571C22.043 84.845 22.9246 85.7268 24.0123 85.7268H73.5131C74.601 85.7268 75.4828 84.845 75.4828 83.7571C75.4828 82.6692 74.601 81.7874 73.5131 81.7874Z" fill="#160A8B"/>
<path d="M89.8338 14.9838C89.7885 14.5324 89.5836 14.1105 89.2668 13.7875L76.0543 0.576758C75.6924 0.20918 75.1764 0 74.6619 0H16.0266C12.7895 0 10.1562 2.63398 10.1562 5.87168V48.8848C10.1562 49.9727 11.0383 50.8545 12.1256 50.8545C13.2135 50.8545 14.0951 49.9727 14.0951 48.8848V5.87168C14.0951 4.80625 14.9615 3.93945 16.0266 3.93945H72.6926V11.2785C72.6926 14.516 75.3281 17.15 78.568 17.15H85.9049V94.1228C85.9049 95.1914 85.0361 96.0605 83.9682 96.0605H16.0266C14.9615 96.0605 14.0951 95.1914 14.0951 94.1228V64.968C14.0951 63.8801 13.2135 62.9982 12.1256 62.9982C11.0383 62.9982 10.1562 63.8801 10.1562 64.968V94.1228C10.1562 97.3635 12.7895 100 16.0266 100H83.9682C87.208 100 89.8438 97.3635 89.8438 94.1228V15.1803C89.8438 15.1105 89.8393 15.0412 89.8326 14.9717C89.8338 14.9832 89.8385 15.0303 89.8338 14.9838C89.8291 14.9363 89.8402 15.0488 89.8338 14.9838ZM76.6314 11.2785V6.72402L83.1188 13.2105H78.568C77.5002 13.2105 76.6314 12.3439 76.6314 11.2785Z" fill="#160A8B"/>
<path d="M29.1329 32.8129C28.3753 32.8129 27.4456 32.7022 26.8095 31.9938C26.5828 31.7448 26.3892 31.5123 26.2064 31.3186C24.6847 29.7246 22.0734 31.9383 23.6558 34.0082C24.2312 34.761 24.5412 35.0487 25.3765 35.5799C26.0017 35.9785 26.6986 36.266 27.4734 36.4432V38.4742C27.4734 39.4151 28.2478 40.1899 29.1884 40.1899C30.1345 40.1899 30.9367 39.4151 30.9367 38.4742C30.9367 37.7879 30.9367 37.1073 30.9367 36.4264C32.1814 36.1332 33.2384 35.5297 34.1126 34.6223C34.981 33.709 35.4185 32.4914 35.4185 30.9805C35.4185 29.951 35.2191 29.0932 34.8263 28.4016C34.4281 27.7153 33.9355 27.2336 33.3544 26.9625C32.7738 26.6858 32.132 26.4479 31.4292 26.2487C30.7322 26.0438 30.0904 25.8946 29.5091 25.8115C28.9285 25.7231 28.4361 25.5459 28.0376 25.2858C27.6396 25.0258 27.4458 24.6772 27.4458 24.251C27.4458 22.2143 30.4335 22.4633 31.7501 23.5701C33.6976 25.2084 35.8722 22.2143 33.6146 20.5264L33.3544 20.2881C33.1777 20.1553 32.8681 19.9781 32.4199 19.7678C31.9771 19.552 31.4792 19.386 30.9369 19.2699V16.8959C30.9369 15.9551 30.1679 15.1803 29.2216 15.1803C28.2755 15.1803 27.5068 15.9551 27.5068 16.8959V18.8551V19.2481C26.2454 19.4914 25.1995 20.1225 24.4745 21.0469C23.7386 21.9821 23.3681 23.0282 23.3681 24.1957C23.3681 25.3578 23.6394 26.3209 24.1816 27.0793C24.7236 27.8321 25.3876 28.3688 26.1622 28.6787C26.9369 28.9887 27.7167 29.2377 28.4917 29.4203C29.2662 29.6084 29.9298 29.8133 30.4722 30.0457C31.0144 30.2782 31.2859 30.6104 31.2859 31.0365C31.2857 32.2207 30.5662 32.8129 29.1329 32.8129Z" fill="#160A8B"/>
</svg>
