<svg width="120" height="120" viewBox="0 0 120 120" fill="none" xmlns="http://www.w3.org/2000/svg">
<path d="M61.5655 65.4909C61.3435 65.4428 61.1157 65.4342 60.8908 65.4678C58.637 65.2054 56.9368 63.2986 56.933 61.0304C56.933 59.9434 56.0517 59.062 54.9646 59.062C53.8776 59.062 52.9963 59.9434 52.9963 61.0304C53.0021 64.8181 55.5355 68.1358 59.1877 69.1383V71.1066C59.1877 72.1936 60.0691 73.075 61.1561 73.075C62.2431 73.075 63.1244 72.1936 63.1244 71.1066V69.2575C67.3399 68.3752 70.2049 64.449 69.7618 60.1654C69.3178 55.8817 65.7089 52.6265 61.4021 52.6255C58.934 52.6255 56.933 50.6245 56.933 48.1563C56.933 45.6882 58.934 43.6872 61.4021 43.6872C63.8703 43.6872 65.8713 45.6882 65.8713 48.1563C65.8713 49.2434 66.7526 50.1247 67.8396 50.1247C68.9266 50.1247 69.808 49.2434 69.808 48.1563C69.8022 44.1793 67.016 40.7491 63.1244 39.9283V38.1368C63.1244 37.0498 62.2431 36.1685 61.1561 36.1685C60.0691 36.1685 59.1877 37.0498 59.1877 38.1368V40.0484C55.1261 41.1576 52.5119 45.101 53.0713 49.2741C53.6306 53.4472 57.1915 56.5622 61.4021 56.5612C63.8376 56.5612 65.8242 58.5113 65.8684 60.9458C65.9136 63.3803 63.999 65.4025 61.5655 65.4909Z" fill="#160A8B"/>
<path d="M32.8594 54.7446C32.8594 70.5087 45.6383 83.2876 61.4023 83.2876C77.1664 83.2876 89.9453 70.5087 89.9453 54.7446C89.9453 38.9805 77.1664 26.2017 61.4023 26.2017C45.6459 26.219 32.8776 38.9882 32.8594 54.7446ZM61.4023 30.1384C74.9924 30.1384 86.0086 41.1546 86.0086 54.7446C86.0086 68.3347 74.9924 79.3509 61.4023 79.3509C47.8123 79.3509 36.7961 68.3347 36.7961 54.7446C36.8114 41.1613 47.819 30.1537 61.4023 30.1384Z" fill="#160A8B"/>
<path d="M99.6497 88.1403L84.2306 95.4255C82.1018 91.4657 78.018 88.9457 73.5239 88.8188L59.2899 88.4276C57.0361 88.3633 54.8246 87.7924 52.8207 86.7572L51.3723 86.0066C43.9564 82.141 35.1171 82.1507 27.7089 86.0316L27.7992 82.7504C27.829 81.6634 26.9727 80.758 25.8857 80.7282L10.2773 80.2986C9.1903 80.2688 8.28589 81.1252 8.2561 82.2122L7.31325 116.464C7.28346 117.551 8.13981 118.456 9.22682 118.486L24.8352 118.916H24.889C25.9558 118.916 26.8285 118.067 26.8574 117.001L26.9025 115.363L30.9574 113.192C32.549 112.335 34.4097 112.131 36.1484 112.624L60.3625 119.419C60.4048 119.432 60.4471 119.442 60.4903 119.451C62.2405 119.817 64.0243 120.001 65.812 120C69.5987 120.002 73.3413 119.186 76.783 117.606C76.8676 117.567 76.9493 117.522 77.0271 117.471L112.135 94.7623C113.01 94.1962 113.293 93.0477 112.78 92.1404C110.174 87.5156 104.393 85.7538 99.6497 88.1403ZM11.3028 114.605L12.137 84.2882L23.8097 84.6092L22.9754 114.927L11.3028 114.605ZM75.0098 114.09C70.7338 116.02 65.9581 116.553 61.362 115.614L37.2133 108.835C34.4953 108.067 31.586 108.385 29.0996 109.722L27.0275 110.832L27.582 90.6747C34.1483 86.3074 42.5695 85.8586 49.5625 89.5022L51.0109 90.2528C53.5425 91.5599 56.3345 92.2807 59.1823 92.3634L73.4172 92.7545C77.4154 92.8699 80.811 95.7167 81.6222 99.6341L60.4192 99.0488C59.3322 99.019 58.4278 99.8763 58.397 100.962C58.3672 102.049 59.2245 102.955 60.3106 102.985L83.7097 103.629H83.7645C84.8303 103.628 85.7021 102.779 85.7309 101.714C85.7549 100.859 85.6915 100.002 85.5406 99.1603L101.356 91.6877C101.371 91.681 101.386 91.6733 101.402 91.6656C103.645 90.5305 106.357 90.9102 108.203 92.6181L75.0098 114.09Z" fill="#160A8B"/>
<path d="M63.3703 20.6676V1.96835C63.3703 0.881335 62.489 0 61.4019 0C60.3149 0 59.4336 0.881335 59.4336 1.96835V20.6676C59.4336 21.7546 60.3149 22.636 61.4019 22.636C62.489 22.636 63.3703 21.7546 63.3703 20.6676Z" fill="#160A8B"/>
<path d="M78.1359 20.6677V11.8101C78.1359 10.7231 77.2546 9.8418 76.1676 9.8418C75.0806 9.8418 74.1992 10.7231 74.1992 11.8101V20.6677C74.1992 21.7547 75.0806 22.6361 76.1676 22.6361C77.2546 22.6361 78.1359 21.7547 78.1359 20.6677Z" fill="#160A8B"/>
<path d="M48.6086 20.6677V11.8101C48.6086 10.7231 47.7272 9.8418 46.6402 9.8418C45.5532 9.8418 44.6719 10.7231 44.6719 11.8101V20.6677C44.6719 21.7547 45.5532 22.6361 46.6402 22.6361C47.7272 22.6361 48.6086 21.7547 48.6086 20.6677Z" fill="#160A8B"/>
</svg>
