<svg width="114" height="114" viewBox="0 0 114 114" fill="none" xmlns="http://www.w3.org/2000/svg">
<g clip-path="url(#clip0)">
<path d="M86.4496 0H10.4493C5.20524 0.00617503 0.955394 4.25602 0.949219 9.50004V70.3003C0.948744 74.6335 3.88046 78.4176 8.07615 79.5001L9.02615 75.8217C6.50793 75.1724 4.74828 72.9009 4.74923 70.3003V9.50004C4.74923 6.35196 7.30118 3.80002 10.4493 3.80002H86.4496C89.5977 3.80002 92.1496 6.35196 92.1496 9.50004V11.4H95.9496V9.50004C95.9435 4.25602 91.6936 0.00617503 86.4496 0Z" fill="#160A8B"/>
<path d="M12.3508 7.59985H8.55078V11.3999H12.3508V7.59985Z" fill="#160A8B"/>
<path d="M19.9485 7.59985H16.1484V11.3999H19.9485V7.59985Z" fill="#160A8B"/>
<path d="M27.55 7.59985H23.75V11.3999H27.55V7.59985Z" fill="#160A8B"/>
<path d="M112.493 105.057L94.4713 87.0356C95.418 85.3458 96.1752 83.5564 96.7285 81.7004H99.7495V77.9004H97.5455C98.2611 73.3012 97.7094 68.5939 95.9495 64.2849V45.6002H92.1495V57.6995C91.0212 56.2581 89.7479 54.9364 88.3495 53.7551V38.0002H84.5495V51.0988C83.3332 50.3939 82.0624 49.7871 80.7495 49.2843V30.4001H76.9495V48.131C75.6974 47.8608 74.4274 47.6824 73.1494 47.5971V34.2002H69.3494V47.5971C68.0714 47.6824 66.8015 47.8608 65.5494 48.131V41.8002H61.7494V49.2843C60.4365 49.7871 59.1659 50.3939 57.9494 51.0988V39.9002H54.1494V53.7551C52.751 54.9364 51.4777 56.2581 50.3493 57.6995V43.7002H46.5493V64.2849C44.7894 68.5939 44.2377 73.3012 44.9533 77.9004H19.9492V81.7004H45.7703C49.9375 95.7562 64.7101 103.772 78.7656 99.6051C81.5354 98.7838 84.1526 97.5161 86.5141 95.8516L104.106 113.444C104.848 114.186 106.051 114.186 106.793 113.444L112.493 107.744C113.235 107.002 113.235 105.799 112.493 105.057ZM71.2494 96.9005C58.6628 96.8869 48.4629 86.687 48.4493 74.1003C48.4493 61.5083 58.6574 51.3002 71.2494 51.3002C83.8415 51.3002 94.0495 61.5083 94.0495 74.1003C94.0495 86.6924 83.8415 96.9005 71.2494 96.9005ZM105.45 109.414L89.4667 93.431C90.5022 92.4525 91.4584 91.3935 92.3262 90.2637L108.463 106.4L105.45 109.414Z" fill="#160A8B"/>
<path d="M71.2501 55.1001C60.7566 55.1001 52.25 63.6067 52.25 74.1002C52.25 84.5937 60.7566 93.1003 71.2501 93.1003C81.7436 93.1003 90.2502 84.5937 90.2502 74.1002C90.2388 63.6114 81.7388 55.1115 71.2501 55.1001ZM71.2501 89.3003C65.8265 89.2934 60.8176 86.397 58.1058 81.7002H84.3943C81.6825 86.397 76.6737 89.2934 71.2501 89.3003ZM56.5497 77.9002C55.0209 72.1147 57.0622 65.9729 61.75 62.2536V74.1002H65.5501V60.0192C66.7684 59.5262 68.046 59.1941 69.3501 59.0312V74.1002H73.1501V59.0312C74.4542 59.1941 75.7317 59.5262 76.9501 60.0192V74.1002H80.7501V62.2536C85.4379 65.9729 87.4792 72.1147 85.9504 77.9002H56.5497Z" fill="#160A8B"/>
<path d="M97.8519 15.2H21.8516C16.6076 15.2061 12.3577 19.456 12.3516 24.7V85.5003C12.3577 90.7443 16.6076 94.9941 21.8516 95.0003H46.5517V91.2003H21.8516C18.7035 91.2003 16.1516 88.6483 16.1516 85.5003V24.7C16.1516 21.5519 18.7035 19 21.8516 19H97.8519C101 19 103.552 21.5519 103.552 24.7V85.5003C103.552 86.8884 103.045 88.2287 102.127 89.2699L104.977 91.7836C106.508 90.0489 107.353 87.8142 107.352 85.5003V24.7C107.346 19.456 103.096 15.2061 97.8519 15.2Z" fill="#160A8B"/>
<path d="M23.7492 22.8H19.9492V26.6001H23.7492V22.8Z" fill="#160A8B"/>
<path d="M31.3508 22.8H27.5508V26.6001H31.3508V22.8Z" fill="#160A8B"/>
<path d="M38.9485 22.8H35.1484V26.6001H38.9485V22.8Z" fill="#160A8B"/>
<path d="M27.55 62.7002H23.75V74.1002H27.55V62.7002Z" fill="#160A8B"/>
<path d="M35.1516 51.3003H31.3516V74.1004H35.1516V51.3003Z" fill="#160A8B"/>
<path d="M42.7492 57.0002H38.9492V74.1003H42.7492V57.0002Z" fill="#160A8B"/>
</g>
<defs>
<clipPath id="clip0">
<rect width="114" height="114" fill="white"/>
</clipPath>
</defs>
</svg>
