<svg width="50" height="50" class="arrow_link_to_pdf" viewBox="0 0 50 50" fill="none"
     xmlns="http://www.w3.org/2000/svg">
    <path d="M41.5972 24.9995L22.6859 6.0892C21.3269 4.72964 21.3269 2.52566 22.6859 1.16665C24.0449 -0.192919 26.2488 -0.192919 27.6084 1.16665L48.9811 22.5391C49.6606 23.2189 50 24.109 50 24.9995C50 25.8903 49.66 26.781 48.9811 27.4605L27.6084 48.8328C26.2488 50.193 24.0448 50.193 22.6859 48.8328C21.3269 47.4737 21.3269 45.2695 22.6859 43.9106L41.5972 24.9995ZM1.0192 43.9106C-0.339815 45.2697 -0.339815 47.4739 1.0192 48.8328C2.37822 50.193 4.58142 50.193 5.94176 48.8328L27.3145 27.4606C27.994 26.7811 28.3328 25.8904 28.3328 24.9996C28.3328 24.1091 27.9934 23.2184 27.3145 22.5392L5.94176 1.16665C4.58153 -0.192919 2.37822 -0.192919 1.0192 1.16665C-0.339815 2.52566 -0.339815 4.72953 1.0192 6.0892L19.9309 24.9995L1.0192 43.9106Z"/>
</svg>