<svg width="204" height="82" viewBox="0 0 204 82"  xmlns="http://www.w3.org/2000/svg">
    <path d="M202.065 31.4911L201.801 31.4891C201.064 31.6645 201.032 31.5442 201.771 31.3688C202.509 31.1943 202.509 31.1943 202.001 31.2506C201.509 31.3673 201.493 31.3073 201.477 31.2469C201.462 31.1865 201.462 31.1865 201.215 31.2448C200.969 31.3031 200.708 31.3021 200.692 31.2417C200.676 31.1813 200.676 31.1813 200.922 31.1224C201.184 31.1245 201.152 31.0042 200.644 31.0609C200.382 31.0589 200.382 31.0589 200.874 30.9427C201.366 30.8256 201.334 30.7059 200.826 30.7621L200.796 30.6418C200.78 30.5819 201.026 30.523 201.272 30.4648C201.764 30.3486 201.764 30.3486 201.502 30.3466C201.241 30.3444 200.994 30.4033 200.994 30.4033C200.748 30.4616 200.733 30.4012 200.716 30.3408C200.701 30.2808 200.669 30.1606 200.915 30.1022C201.161 30.044 200.915 30.1022 200.669 30.1606C200.653 30.1002 200.407 30.1585 200.653 30.1002C200.653 30.1002 200.637 30.0403 200.359 29.9783C200.083 29.9163 200.527 29.6191 201.067 29.6825L201.051 29.6232L201.281 29.5039C201.527 29.4456 201.511 29.3857 201.495 29.3254C201.495 29.3254 201.249 29.3841 201.003 29.4425C200.281 29.6773 200.003 29.6158 200.726 29.38C200.972 29.3217 200.726 29.38 200.48 29.4383C200.234 29.4966 200.218 29.4372 200.432 29.2576C200.416 29.1983 200.893 29.0212 201.139 28.9629C201.385 28.9046 201.37 28.8442 201.37 28.8442C201.353 28.7838 201.353 28.7838 201.107 28.842C200.616 28.9592 200.584 28.839 201.06 28.6624C201.06 28.6624 201.06 28.6624 200.814 28.7202C200.568 28.7786 200.306 28.7775 200.474 28.4182C200.41 28.1771 200.363 27.9963 200.117 28.0552C199.871 28.1134 200.299 27.7563 200.761 27.5188C200.515 27.5777 200.499 27.5173 200.467 27.3969C200.419 27.2162 200.419 27.2162 200.173 27.2751C199.697 27.4515 199.697 27.4515 200.158 27.2147C200.633 27.0376 200.341 26.9158 199.848 27.0324C199.602 27.0913 199.586 27.0308 199.554 26.9105C199.786 26.7913 199.754 26.6716 199.722 26.5512C199.675 26.3705 199.675 26.3705 200.166 26.2539C200.659 26.1378 200.644 26.0774 200.612 25.9571C200.596 25.8967 200.58 25.8363 200.334 25.8946L200.056 25.8326C200.041 25.7722 200.025 25.7129 199.779 25.7711L199.485 25.6487C199.455 25.5285 199.423 25.4082 199.177 25.4665C199.161 25.4065 199.161 25.4065 199.407 25.3483C199.653 25.2899 199.883 25.1707 199.574 24.989C199.542 24.8686 199.495 24.6884 199.741 24.6302C199.725 24.5698 199.725 24.5698 199.479 24.628C198.986 24.7446 198.956 24.6249 199.416 24.3875C199.662 24.3292 199.646 24.2687 199.384 24.2667C199.384 24.2667 199.368 24.2067 199.6 24.0881C199.828 23.9699 199.828 23.9699 199.552 23.9079C199.306 23.9661 199.29 23.9063 199.274 23.8459C199.489 23.6673 199.315 23.0054 199.053 23.0038C199.283 22.8851 199.283 22.8851 199.268 22.8247C198.759 22.882 198.99 22.7632 199.483 22.6461L199.497 22.7065L199.513 22.7669C200.005 22.6501 199.959 22.4699 199.221 22.6448C198.712 22.7012 198.712 22.7012 199.189 22.5237C199.665 22.3476 199.649 22.287 199.141 22.3435C198.648 22.4605 198.648 22.4605 199.126 22.2844C200.079 21.9293 200.277 21.6913 199.292 21.924C198.801 22.041 198.538 22.0396 198.523 21.9791C198.507 21.9199 198.754 21.8607 199 21.8029C199.508 21.7464 199.492 21.6859 198.968 21.6819C198.182 21.6765 198.151 21.5568 198.595 21.2596C199.024 20.9019 198.977 20.7217 198.531 21.0189C198.071 21.2556 198.071 21.2556 198.287 21.0767L198.207 20.7755C198.192 20.7163 198.421 20.598 198.667 20.5388C199.161 20.4218 199.161 20.4218 198.667 20.5388C198.16 20.5953 197.882 20.5335 198.342 20.2968L198.311 20.1771C198.296 20.1166 198.296 20.1166 198.526 19.9982C198.756 19.8785 198.494 19.8785 198.232 19.8759C197.971 19.8745 197.709 19.8718 197.954 19.814C198.2 19.7562 198.416 19.576 198.646 19.4576C198.876 19.3393 198.614 19.3379 198.384 19.4563C198.138 19.5141 198.138 19.5141 197.86 19.4536C197.844 19.3931 197.813 19.272 198.059 19.2142C198.304 19.155 198.211 18.7946 197.949 18.7933L197.917 18.6736L198.115 18.4343C198.115 18.4343 198.1 18.3737 198.331 18.2554C198.315 18.1949 198.299 18.1357 198.052 18.1935C198.529 18.016 198.529 18.016 198.021 18.0725C197.528 18.1895 197.528 18.1895 198.005 18.0133C198.236 17.8937 198.236 17.8937 197.973 17.8923C197.727 17.9501 197.712 17.891 197.958 17.8331C198.434 17.6556 198.632 17.4162 198.14 17.5332C198.14 17.5332 198.124 17.4727 198.356 17.3544C198.831 17.1782 198.831 17.1782 198.34 17.2952C197.832 17.3517 197.816 17.2912 198.292 17.1137C198.292 17.1137 198.523 16.9953 198.26 16.994C197.983 16.9321 197.641 16.6282 198.15 16.5717L198.119 16.452C197.841 16.3902 197.825 16.3297 198.055 16.2113C198.285 16.093 198.285 16.093 198.285 16.093C198.039 16.1522 197.777 16.1495 197.763 16.0903C197.747 16.0298 197.747 16.0298 197.993 15.9706C198.253 15.9733 198.239 15.9128 198.223 15.8523C198.207 15.7918 197.945 15.7904 197.699 15.8482L197.683 15.7891C198.175 15.6721 198.16 15.6116 197.914 15.6707C197.651 15.668 197.636 15.6089 197.62 15.5483C197.866 15.4892 197.604 15.4878 197.62 15.5483C197.374 15.6062 197.374 15.6062 197.374 15.6062C197.112 15.6048 197.358 15.5457 197.604 15.4878L197.572 15.3668C197.556 15.3076 197.54 15.2471 197.804 15.2498C198.05 15.1906 198.295 15.1328 198.279 15.0723C198.525 15.0145 198.264 15.0118 198.279 15.0723C198.033 15.1301 197.786 15.1893 197.772 15.1288L197.51 15.1274C197.032 15.3036 197.216 15.0051 197.446 14.8867C197.907 14.65 197.892 14.5895 197.399 14.7065C196.907 14.8222 197.367 14.5855 198.09 14.3502L198.812 14.1148L198.074 14.291C197.073 14.4645 197.073 14.4644 197.519 14.1659C197.733 13.9884 197.733 13.9884 197.487 14.0462C197.241 14.1054 197.225 14.0449 197.178 13.8633C197.131 13.6831 197.115 13.624 197.361 13.5648L197.33 13.4451C196.822 13.5016 197.036 13.3227 197.544 13.2663L197.512 13.1452C197.512 13.1452 197.512 13.1452 197.266 13.2044C197.02 13.2622 196.988 13.1425 196.862 12.6611C196.721 12.1192 196.705 12.06 197.196 11.943C197.673 11.7655 197.657 11.705 197.165 11.822C196.919 11.8811 196.657 11.8784 196.903 11.8206C196.903 11.8206 196.871 11.6996 196.61 11.6982C196.07 11.635 196.3 11.5167 196.547 11.4575C197.055 11.401 196.793 11.3997 196.531 11.397C196.269 11.3957 196.007 11.3943 196.253 11.3351C196.484 11.2168 196.636 10.7986 196.142 10.9142L196.112 10.7945C196.358 10.7354 196.326 10.6157 196.294 10.4947C196.262 10.375 196.247 10.3145 196.001 10.3736C195.771 10.492 195.754 10.4315 195.969 10.2526L196.415 9.9554C196.661 9.89758 196.89 9.77924 196.875 9.71872L196.629 9.77655C196.383 9.83572 196.137 9.89355 196.137 9.89355C196.121 9.83303 196.105 9.77385 196.351 9.71468C196.843 9.59769 196.843 9.59769 196.351 9.71468C196.089 9.71334 196.073 9.65283 196.041 9.53314C196.01 9.41211 195.979 9.29242 196.209 9.17408C195.701 9.23056 195.606 8.86882 196.082 8.69265C196.328 8.63348 196.312 8.57431 196.052 8.57162C195.788 8.57027 195.788 8.57027 196.02 8.45193C196.25 8.33359 195.988 8.33091 195.726 8.32957C195.218 8.38605 195.202 8.32553 195.433 8.20719C195.647 8.02833 195.615 7.90864 195.599 7.84813C195.814 7.66927 195.799 7.60875 196.06 7.61144C196.307 7.55227 196.537 7.43528 196.537 7.43528C196.751 7.25508 196.505 7.31425 196.521 7.37476C196.307 7.55227 196.291 7.49312 196.029 7.49177C195.767 7.48908 195.735 7.36938 195.72 7.30887L195.651 7.04799C195.359 6.92696 195.344 6.87585 195.585 6.78844C196.064 6.61899 196.064 6.61899 195.824 6.70371C195.323 6.78978 195.155 6.1537 195.595 5.81616C195.826 5.68706 195.595 5.81617 195.365 5.94527C195.135 6.07303 195.119 6.01251 195.087 5.89148C195.073 5.835 195.232 5.43695 195.182 5.23926C195.115 4.98375 195.066 4.79547 195.281 4.60317C195.263 4.53593 195.263 4.53594 195.049 4.72959C194.849 4.98375 194.833 4.92189 194.817 4.86272C194.803 4.80355 195.015 4.60317 195.228 4.40279C195.444 4.20511 195.422 4.12712 195.176 4.20242C194.932 4.27773 194.869 4.0424 195.039 3.67124C195.022 3.604 195.005 3.5381 194.801 3.78285C194.58 3.95902 194.352 4.11099 194.72 3.46952C194.703 3.40632 194.703 3.40632 194.505 3.67124C194.29 3.87699 194.095 4.15267 194.474 3.5529L194.482 3.53138C194.543 3.28932 194.33 3.31487 194.038 3.59323C193.976 3.59996 193.914 3.60535 194.079 3.33774C194.245 3.06878 194.411 2.79848 194.245 3.06878C193.845 3.61342 193.855 3.61207 194.106 3.08223C194.265 2.81462 194.192 2.82133 194.036 3.09029C193.813 3.36462 193.749 3.3727 193.749 3.3727C193.688 3.37808 193.488 3.14678 193.137 3.18309C192.588 3.24091 192.385 3.26243 192.456 3.0002C192.457 2.74603 192.452 2.74603 192.314 3.01499C192.177 3.28395 192.111 3.29067 192.042 3.29739C191.974 3.30546 191.907 3.31219 191.857 3.57308C191.841 3.31891 191.839 3.32025 191.771 3.32562C191.728 3.58651 191.667 3.59323 191.636 3.34042C191.635 2.8294 191.63 2.83075 191.569 3.34849C191.533 3.60669 191.32 3.88506 191.408 3.62014C191.433 3.36194 191.301 3.37538 191.245 3.12525C191.175 3.13332 191.103 3.14005 191.096 3.3969C191.023 3.66048 190.705 3.43859 190.61 3.19115C190.595 2.93564 190.518 2.94372 190.54 3.19922C190.56 3.45339 190.499 3.46011 190.438 3.46683C190.357 3.21805 190.377 3.47355 190.395 3.72771C190.476 3.9765 190.415 3.98324 190.293 3.99534C190.212 3.7479 189.967 3.77344 189.783 3.79495C189.477 3.82723 189.396 3.57845 189.235 3.08223L189.134 2.57928L189.174 3.08894C189.193 3.34445 189.171 3.85951 189.171 3.85951C189.11 3.86624 189.09 3.61208 189.072 3.35657C189.052 3.1024 188.991 3.10912 188.887 3.37673C188.784 3.64434 188.723 3.65107 188.642 3.40363C188.581 3.41036 188.52 3.41707 188.478 3.67796C188.417 3.68468 188.417 3.68469 188.397 3.43052C188.379 3.17501 188.317 3.18173 188.275 3.44262C188.254 3.95902 188.07 3.9792 188.05 3.72369C188.03 3.46953 187.969 3.47625 187.909 3.48297C187.846 3.48835 187.785 3.49507 187.705 3.24763L187.582 3.26108L187.663 3.50851C187.663 3.50851 187.663 3.50852 187.622 3.76941C187.499 3.78286 187.438 3.79092 187.357 3.54213C187.257 3.03918 187.257 3.03919 187.296 3.54886C187.316 3.80303 187.273 4.06526 187.193 3.81647C187.092 3.31353 187.051 3.57441 187.071 3.82992C187.171 4.33286 187.171 4.33287 186.886 3.85009C186.765 3.8622 186.5 3.63359 186.317 3.65376C186.072 3.68066 185.949 3.6941 185.908 3.95499C185.947 4.46466 185.886 4.47139 185.927 4.2105C185.887 3.70083 185.827 3.70756 185.642 3.72638C185.479 4.00072 185.336 3.75999 185.256 3.51121C185.195 3.51793 185.175 3.26377 185.256 3.51121L185.379 3.49776C185.339 2.98809 185.278 2.99481 185.175 3.26377C185.114 3.26915 185.134 3.52465 185.154 3.77881C185.173 4.03432 185.131 4.29521 185.07 4.30194C185.009 4.30866 184.948 4.31539 184.989 4.0545C184.97 3.79899 184.97 3.799 184.908 3.80572C184.847 3.81244 184.785 3.81917 184.706 3.57173C184.686 3.31622 184.625 3.32294 184.563 3.32966C184.522 3.59055 184.4 3.604 184.4 3.604C184.38 3.3485 184.4 3.60401 184.418 3.85817C184.438 4.11368 184.396 4.37456 184.396 4.37456L184.316 4.12713C184.296 3.87162 182.827 4.03029 182.644 4.04912C182.54 4.31807 182.356 4.33826 182.399 4.07737C182.379 3.82186 182.073 3.85414 181.706 3.89448C181.277 3.9402 180.972 3.97382 180.952 3.71831C180.952 3.71831 180.89 3.72503 180.768 3.73848C180.646 3.75193 180.503 3.50986 180.442 3.51659C180.361 3.26781 180.3 3.27454 180.381 3.52332C180.399 3.77748 180.421 4.03299 180.358 4.03971C180.236 4.05181 180.217 3.79764 180.197 3.54348C180.179 3.28797 180.116 3.2947 180.116 3.2947C180.055 3.30142 180.055 3.30143 180.075 3.55559C180.095 3.8111 180.113 4.06525 180.113 4.06525L180.052 4.07198C180.034 3.81782 179.972 3.82455 179.972 3.82455C179.911 3.83127 179.911 3.83127 179.95 4.34094C179.988 4.85061 179.929 4.85733 179.827 4.35439C179.685 4.11232 179.685 4.11233 179.685 4.11233C179.664 4.62873 179.502 4.1325 179.42 3.88371C179.382 3.37404 179.382 3.37404 179.42 3.88371C179.399 4.40011 179.338 4.40684 179.237 3.90389C179.218 3.64838 179.157 3.6551 179.114 3.91598C179.073 4.17822 179.012 4.18494 178.89 4.19839C178.808 3.9496 178.38 3.99533 177.891 4.04912C177.34 4.10829 176.973 4.1473 176.953 3.89314C176.892 3.89986 176.892 3.89986 176.85 4.16075C176.869 4.41491 176.808 4.42163 176.708 3.91868C176.627 3.67124 176.607 3.41574 176.647 3.92541C176.665 4.18092 176.544 4.19301 176.298 4.21991C176.115 4.24008 175.87 4.26699 175.851 4.01148C175.709 3.76941 175.709 3.76941 175.79 4.01819C175.89 4.52114 175.604 4.80892 175.38 4.31942C175.319 4.32614 175.258 4.33152 175.278 4.58703C175.217 4.59375 175.155 4.60049 174.952 4.36515C174.891 4.37188 174.646 4.39877 174.524 4.41222C174.401 4.42432 174.259 4.1836 174.259 4.1836L174.198 4.18898C174.218 4.44449 173.912 4.47811 173.483 4.52383C173.055 4.56955 172.688 4.60854 172.645 4.87078C172.645 4.87078 172.584 4.87751 172.503 4.63007C172.403 4.12712 172.342 4.1325 172.301 4.39474C172.278 4.91113 172.033 4.93667 171.934 4.43372C171.914 4.17956 171.934 4.43373 171.952 4.68924C171.931 5.20429 171.727 4.97029 171.626 4.46734C171.585 4.72823 171.544 4.98912 171.463 4.74168C171.401 4.74841 171.401 4.7484 171.441 5.25807C171.46 5.51224 171.48 5.76776 171.419 5.77448C171.358 5.78121 171.338 5.5257 171.318 5.27153L171.197 5.28363C171.197 5.28363 171.134 5.29036 171.115 5.0362C171.095 4.78069 171.034 4.78741 170.973 4.79413C170.993 5.04964 170.912 4.80085 170.953 4.53997C170.934 4.28446 170.915 4.0303 170.853 4.03702C170.853 4.03702 170.833 3.78151 170.813 3.52734C170.775 3.01767 170.755 2.76217 170.859 2.49456C171.083 2.2135 171.248 1.93917 171.287 2.44884L171.429 2.68955L171.532 2.42194C171.512 2.16777 171.757 2.14088 172.063 2.10861C172.43 2.06826 172.613 2.04809 172.656 1.7872C172.697 1.52632 172.758 1.51959 172.758 1.51959C172.778 1.77376 173.145 1.73476 173.574 1.68769C174.002 1.64197 174.43 1.59624 174.45 1.8504L174.573 1.83696C174.553 1.5828 174.675 1.56935 174.799 1.5559C174.94 1.79797 175.062 1.78451 175.062 1.78451C175.044 1.529 175.105 1.52362 175.227 1.51017C175.35 1.49672 175.411 1.49 175.43 1.74551C175.492 1.73878 175.919 1.69172 176.084 1.41739C176.125 1.1565 176.206 1.40394 176.288 1.65272C176.306 1.90689 176.387 2.15567 176.449 2.14894C176.449 2.14894 176.43 1.89344 176.409 1.63928C176.329 1.39049 176.329 1.39049 176.451 1.37838L176.574 1.36494C176.594 1.6191 176.9 1.58683 177.328 1.53977C177.879 1.4806 178.062 1.46176 178.082 1.71593C178.101 1.97143 178.162 1.96472 178.327 1.69038C178.636 0.884859 178.636 0.884857 178.717 1.13364C178.654 1.14036 178.674 1.39452 178.694 1.65003C178.734 2.1597 178.794 2.15298 178.816 1.63659C178.778 1.12692 179.714 1.28291 179.815 1.78586C179.835 2.04002 179.835 2.04002 179.796 1.53034C179.777 1.27618 179.838 1.26946 180.083 1.24391C180.205 1.23046 180.266 1.22373 180.266 1.22373C180.305 1.7334 180.652 1.43891 180.634 1.18474C180.676 0.922512 180.676 0.922505 180.797 0.910402C181.021 1.39856 181.307 1.11077 181.287 0.856608L181.409 0.843164C181.49 1.09195 181.613 1.07849 181.674 1.07177C181.857 1.0516 181.919 1.04622 181.877 1.30711C181.896 1.56127 181.917 1.81679 181.979 1.81007L181.959 1.5559C181.939 1.3004 182.122 1.28022 182.367 1.25333C182.673 1.22105 182.795 1.2076 182.838 0.946714C182.838 0.946714 182.838 0.94671 182.918 1.19415C182.999 1.44293 183.06 1.43621 183.04 1.18205C183.083 0.919818 183.327 0.892926 183.47 1.13499L183.591 1.12153C183.614 0.605131 183.797 0.586304 183.897 1.08925C183.878 0.833744 183.939 0.827022 184.001 0.821643C184.142 1.06236 184.388 1.03682 184.368 0.781309L184.429 0.774579C184.51 1.02336 184.571 1.01664 184.632 1.00992C184.694 1.00319 184.755 0.996468 184.835 1.24525C184.916 1.49269 184.977 1.48597 184.977 1.48597C185.038 1.47925 184.958 1.23181 184.877 0.983026C184.735 0.742309 184.919 0.722131 185.141 1.21163C185.364 1.70113 185.364 1.70114 185.202 1.20492C185.122 0.957479 185.041 0.708691 185.183 0.950753C185.183 0.950753 185.306 0.937294 185.326 1.19146L185.509 1.17263C185.612 0.905017 185.673 0.898297 185.734 0.890228C185.815 1.13901 185.815 1.13902 185.856 0.878129C185.836 0.622621 185.898 0.615891 185.938 1.12557C186.019 1.37435 186.08 1.36762 186.121 1.10674C186.081 0.597064 186.142 0.590346 186.162 0.844511C186.243 1.09329 186.305 1.08658 186.305 1.08658C186.285 0.831069 186.835 0.771895 187.386 0.712724C187.449 0.706 187.529 0.954777 187.549 1.20894C187.587 1.71861 187.568 1.46446 187.61 1.20223C187.612 0.431667 187.735 0.418207 187.732 1.19011C187.711 1.70516 187.711 1.70517 187.793 1.1834C187.835 0.921165 187.835 0.921169 187.916 1.16995C187.936 1.42412 187.997 1.41739 187.977 1.16322C188.019 0.902335 188.061 0.640104 188.079 0.895611C188.079 0.895611 188.14 0.888887 188.183 0.626656C188.224 0.365767 188.305 0.613208 188.385 0.861993C188.609 1.35149 188.67 1.34476 188.57 0.841817C188.469 0.338869 188.795 0.560762 188.895 1.06371C188.996 1.56666 188.996 1.56665 188.976 1.31249C188.957 1.05698 189.018 1.05161 189.018 1.05161C189.078 1.04489 189.14 1.03816 189.121 0.782656C189.121 0.782656 189.182 0.775932 189.324 1.01799C189.485 1.51422 189.649 1.23987 189.672 0.723476C189.672 0.723476 189.672 0.723482 189.814 0.965543C189.914 1.46849 189.995 1.71592 189.956 1.20625C189.935 0.952085 189.916 0.69659 189.935 0.952099C190.036 1.45505 190.262 1.17399 190.222 0.664315C190.204 0.408805 190.204 0.408797 190.265 0.403418L190.284 0.657582C190.304 0.911747 190.322 1.16725 190.383 1.16053C190.472 1.15246 190.576 1.1417 190.562 0.88619C190.649 0.622611 190.752 0.355013 190.758 0.611865C190.758 0.611865 190.86 0.602443 190.967 0.334833C191.076 0.325419 191.184 0.314671 191.402 0.294499C191.497 0.541939 191.702 0.521769 191.728 0.263572C191.728 0.263572 191.949 0.243394 192.02 0.492177C192.231 0.472005 192.336 0.462589 192.383 0.203045C192.427 -0.0578411 192.429 -0.057835 192.491 0.192293C192.444 0.451837 192.549 0.442413 192.654 0.432999L192.867 0.411495C192.804 0.673726 192.805 0.673726 192.907 0.662968L193.503 0.350968C193.822 0.321385 193.82 0.322737 193.625 0.594383C193.524 0.603796 193.434 0.867364 193.729 0.584959C193.829 0.575547 194.243 0.282387 194.568 0.251457C194.995 0.211112 194.995 0.21112 194.865 0.477386C194.505 1.01933 194.599 1.00991 194.968 0.466618C195.449 -0.0860862 195.573 -0.0981833 195.424 0.170772C195.385 0.427626 195.383 0.427622 195.486 0.418209C195.637 0.150596 195.75 0.139842 195.799 0.388627C195.903 0.379213 195.903 0.379219 196.068 0.108919L196.282 0.0887429C196.193 0.451835 196.539 0.402077 196.873 0.240704L197.085 0.22726C197.085 0.22726 197.112 0.333492 196.938 0.692549C196.561 1.30711 196.584 1.39183 196.988 0.89292C197.39 0.387282 197.391 0.392659 197.012 0.992431C196.835 1.34073 196.955 1.81813 197.343 1.26273C197.551 1.03009 197.756 0.798791 197.756 0.798791C197.578 1.14037 197.604 1.24525 197.604 1.24525C197.395 1.47117 197.421 1.57338 197.499 1.88537C197.552 2.09785 197.441 2.70569 197.488 2.90203C197.539 3.10509 197.614 3.40497 197.862 3.34715C197.888 3.44935 197.915 3.56096 197.741 3.91598C197.542 4.16611 197.59 4.35708 197.817 4.21991L197.842 4.32211C197.665 4.65965 197.688 4.75378 197.688 4.75378C197.918 4.62603 198.176 4.60856 197.97 4.83179C197.737 4.95147 197.762 5.04964 197.812 5.24732C197.882 5.26884 197.987 5.49208 198.102 5.82155C198.155 5.99099 198.216 6.18195 198.279 6.38233C198.324 6.54236 198.37 6.71044 198.417 6.8772C198.551 7.38821 198.619 7.89924 198.497 7.92882L198.543 8.10902L198.591 8.28922C199.083 8.17222 198.916 8.53127 198.718 8.77064C198.488 8.88898 198.502 8.9495 198.519 9.00867C199.01 8.89302 199.058 9.07323 198.844 9.25208C198.368 9.42825 198.384 9.48877 198.876 9.37177C199.367 9.25612 199.399 9.3758 198.692 9.67166C198.462 9.79 198.462 9.79 198.723 9.79134C199.231 9.73486 199.247 9.79403 199.001 9.8532C198.525 10.0294 198.541 10.0899 199.049 10.0334C199.573 10.0374 199.573 10.0374 199.097 10.2136C198.619 10.3911 198.683 10.6318 199.19 10.5753C199.207 10.6345 199.468 10.6372 199.222 10.695C199.222 10.695 199.222 10.695 199.484 10.6977L199.516 10.8174C199.27 10.8766 199.27 10.8766 199.27 10.8766C199.286 10.9357 199.626 11.2383 199.737 11.6592C199.911 12.3209 199.942 12.4419 199.681 12.4406C199.173 12.497 199.203 12.6167 199.711 12.5602L200.037 12.8023C200.068 12.9233 200.1 13.043 200.346 12.9852L200.362 13.0444C199.902 13.2824 199.996 13.6428 200.289 13.7652C200.321 13.8848 200.337 13.9454 200.122 14.1242C199.908 14.3031 199.908 14.3031 200.169 14.3044C200.415 14.2466 200.757 14.5492 200.265 14.6662C200.265 14.6662 200.265 14.6662 200.526 14.6675C200.788 14.6689 200.557 14.7872 200.311 14.8464C199.819 14.9634 199.835 15.0225 200.589 14.9082C201.082 14.7912 201.098 14.8517 200.851 14.9096C200.621 15.0279 200.39 15.1463 200.652 15.1489C200.668 15.2081 200.684 15.2686 200.192 15.3856C199.946 15.4448 199.961 15.504 199.977 15.5645C200.222 15.5067 200.222 15.5067 200.454 15.3883L200.486 15.508C200.5 15.5672 200.778 15.6304 201.024 15.5712C201.286 15.5739 201.302 15.6331 200.794 15.6896C200.302 15.8065 200.302 15.8066 200.334 15.9276C200.35 15.9868 200.365 16.0473 200.611 15.9894C200.857 15.9303 200.857 15.9303 200.889 16.0513C200.937 16.2315 200.245 16.5865 199.769 16.764C199.276 16.8797 199.276 16.8797 199.785 16.8245C200.031 16.7654 200.047 16.8259 200.063 16.8864C199.816 16.9442 200.077 16.9456 200.063 16.8864C200.309 16.8272 200.293 16.7681 200.277 16.7075C200.277 16.7075 200.277 16.7076 200.523 16.6497C201.031 16.5932 201.047 16.6524 200.571 16.8286C200.339 16.9483 200.339 16.9483 200.603 16.9496C200.863 16.951 201.125 16.9536 200.879 17.0115C200.879 17.0115 200.911 17.1325 201.173 17.1338C201.204 17.2535 201.22 17.3141 200.974 17.3732C200.728 17.431 200.744 17.4916 200.76 17.5521C200.776 17.6112 200.792 17.6717 200.545 17.7296C200.299 17.7887 200.069 17.9071 200.1 18.0281C199.886 18.2056 199.886 18.2056 200.394 18.1492C200.64 18.0913 200.656 18.1505 200.672 18.211C200.672 18.211 200.686 18.2715 200.949 18.2729C201.211 18.2756 200.965 18.3334 200.718 18.3926C200.472 18.449 200.226 18.5082 200.226 18.5082C200.242 18.5687 200.75 18.5122 200.996 18.4531C201.505 18.3966 201.505 18.3966 201.012 18.5136C200.766 18.5714 200.536 18.6911 200.813 18.753C200.845 18.8727 200.877 18.9937 201.123 18.9345C201.385 18.9372 201.155 19.0555 201.155 19.0555C200.925 19.1739 200.939 19.2331 201.233 19.3554C201.804 19.5397 201.804 19.5397 201.312 19.6567C201.066 19.7145 200.819 19.7736 201.328 19.7172C201.59 19.7185 201.36 19.8369 201.145 20.0157C200.914 20.1341 200.422 20.251 200.176 20.3089C199.685 20.4259 199.685 20.4259 199.961 20.4877C199.977 20.5482 200.24 20.5509 200.486 20.4918C200.732 20.4339 200.716 20.3734 200.716 20.3734L200.7 20.3129C200.946 20.2551 201.192 20.1959 201.224 20.3169C201.486 20.3183 201.502 20.3788 201.256 20.4366C201.518 20.438 201.549 20.559 201.58 20.68C201.612 20.7997 201.659 20.9799 201.921 20.9813C201.953 21.1023 201.969 21.1628 201.723 21.2206C201.231 21.3376 201.245 21.3968 201.491 21.339C201.999 21.2825 202.452 22.0073 201.974 22.1835L202.006 22.3032C202.284 22.365 202.379 22.7265 202.148 22.8447L202.196 23.0248C202.473 23.0873 202.489 23.1473 202.259 23.2659C202.029 23.3841 201.783 23.443 202.029 23.3841C202.275 23.3259 202.307 23.4466 202.369 23.6867C202.433 23.9278 202.433 23.9278 202.171 23.9263C201.988 24.2246 202.234 24.1664 202.48 24.108C202.956 23.9316 202.988 24.0513 202.266 24.2871C201.789 24.4637 201.821 24.5839 202.067 24.5257C202.313 24.4668 202.296 24.4075 202.282 24.347C202.282 24.347 202.528 24.2888 202.774 24.2298C202.79 24.2904 202.79 24.2904 202.56 24.409C202.56 24.409 202.574 24.469 202.344 24.5872C202.114 24.7058 201.868 24.7647 201.606 24.7625C201.344 24.7605 201.36 24.8209 201.376 24.8813C201.654 24.9433 201.9 24.8845 202.13 24.7668C202.114 24.7058 202.36 24.6475 202.606 24.5892C202.852 24.5309 202.438 24.9485 201.962 25.1255C201.716 25.1838 201.716 25.1838 202.208 25.0673C202.454 25.0089 202.486 25.1292 202.517 25.2489C202.549 25.3698 202.565 25.4297 202.319 25.488C202.073 25.5463 201.827 25.6052 201.843 25.6645C201.827 25.6052 201.58 25.6634 201.334 25.7217C201.334 25.7217 201.612 25.7838 201.874 25.7859C202.399 25.789 202.675 25.8504 202.739 26.0916C202.77 26.2119 202.818 26.392 203.08 26.3941C203.112 26.5145 203.126 26.5749 202.88 26.6327L202.912 26.7535C203.174 26.7551 203.206 26.8753 202.96 26.9337C202.73 27.0524 202.991 27.0539 203.008 27.1139C203.531 27.118 203.531 27.118 202.776 27.2325C202.53 27.2914 202.254 27.2288 202.238 27.169L202.19 26.9883L201.99 27.2272C202.007 27.2872 201.792 27.4658 201.546 27.524L201.316 27.6433C201.316 27.6433 201.562 27.5851 201.808 27.5262C202.038 27.4074 202.284 27.3492 202.53 27.2914C203.038 27.2346 203.332 27.357 202.84 27.4732C202.855 27.5336 202.855 27.5336 203.118 27.5356C203.364 27.4774 203.379 27.5367 202.903 27.7142C202.426 27.8908 202.442 27.9511 202.951 27.8944C203.475 27.8981 203.537 28.1382 203.291 28.1964C202.799 28.3137 202.847 28.4943 203.108 28.4964C203.37 28.4975 203.386 28.5579 203.155 28.6761C203.402 28.6183 203.664 28.6199 203.434 28.7386C203.434 28.7386 203.449 28.7979 203.187 28.7969C203.187 28.7969 202.957 28.9151 202.727 29.0338C202.71 28.9734 202.464 29.0317 202.218 29.0906C201.973 29.1488 202.282 29.3306 203.052 29.2765C203.575 29.2796 203.575 29.2796 203.575 29.2796C203.328 29.338 203.082 29.3962 203.082 29.3962C203.098 29.4567 203.114 29.5166 203.36 29.4582C203.606 29.4 203.606 29.4 203.622 29.4604C203.622 29.4604 203.638 29.5202 203.392 29.5791C202.9 29.6952 202.9 29.6952 203.162 29.6973C203.67 29.6406 203.685 29.701 203.209 29.8774C202.717 29.9947 202.716 29.9947 203.225 29.9384C203.471 29.8795 203.733 29.8812 203.749 29.9415C203.749 29.9415 203.749 29.9415 203.503 29.9999C203.01 30.117 203.026 30.1763 203.289 30.1785C203.535 30.1201 203.551 30.1805 203.335 30.3591C203.367 30.4789 203.383 30.5393 203.629 30.4811C204.121 30.3645 204.121 30.3645 203.645 30.5409C203.415 30.6597 203.415 30.6597 203.692 30.7217C203.954 30.7231 203.954 30.7231 203.724 30.8424C203.231 30.9585 202.985 31.0168 202.969 30.9564C202.955 30.897 202.955 30.897 202.709 30.9554L202.739 31.0757C202.755 31.1361 202.771 31.1954 202.556 31.374C202.341 31.5526 201.849 31.6699 202.065 31.4911ZM202.304 30.4122C202.55 30.3539 202.534 30.2935 202.518 30.2331C202.502 30.1733 202.502 30.1732 202.256 30.2315L202.042 30.4101L202.304 30.4122ZM201.868 29.7482C202.376 29.6921 202.376 29.6921 202.345 29.5717C202.328 29.5113 202.313 29.451 202.067 29.5092L202.083 29.5696C202.328 29.5113 202.099 29.6296 201.837 29.6285C201.591 29.6867 201.345 29.7451 201.345 29.7451C201.36 29.8049 201.622 29.8065 201.868 29.7482ZM200.246 26.5543C200.492 26.4966 200.706 26.3175 200.69 26.2575C200.676 26.1971 200.43 26.256 200.214 26.4346L200.246 26.5543ZM200.95 23.257C201.196 23.1981 201.18 23.1388 201.164 23.0785C201.164 23.0785 201.164 23.0785 200.918 23.1367L200.688 23.2554L200.95 23.257ZM199.671 23.3684C199.671 23.3684 199.902 23.2496 200.133 23.1314C200.839 22.8357 200.839 22.8357 200.347 22.9528C200.101 23.0112 199.855 23.069 199.64 23.2476L199.671 23.3684ZM200.999 21.456C201.215 21.2771 201.215 21.2771 200.738 21.4546C200.508 21.573 200.277 21.6913 200.277 21.6913C200.293 21.7518 200.523 21.6335 200.999 21.456ZM199.412 21.3847C199.659 21.3269 199.888 21.2085 199.888 21.2085L199.874 21.148C199.628 21.2058 199.381 21.265 199.397 21.3255L199.412 21.3847ZM198.605 20.2981L198.819 20.1206C198.819 20.1206 198.819 20.1206 198.574 20.1784C198.589 20.2389 198.358 20.3573 198.605 20.2981ZM199.709 19.5249C199.955 19.467 200.201 19.4092 200.186 19.3487C200.415 19.2304 200.154 19.229 199.678 19.4052L199.709 19.5249ZM200.059 18.8673L200.044 18.8081C200.028 18.7476 200.028 18.7476 199.782 18.8054L199.798 18.8659L200.059 18.8673ZM198.807 18.0779C199.053 18.0201 199.037 17.9595 199.037 17.9595C199.021 17.899 199.005 17.8398 198.759 17.8977L198.529 18.016L198.807 18.0779ZM198.506 16.9362C198.768 16.9362 198.768 16.9362 198.738 16.8165L198.476 16.8151C198.229 16.873 198.491 16.8757 198.506 16.9362ZM198.977 15.738C199.223 15.6788 199.207 15.6196 198.699 15.6761C198.453 15.7339 198.453 15.7339 198.469 15.7944C198.469 15.7944 198.731 15.7958 198.977 15.738ZM198.621 15.3749L198.851 15.2565L198.835 15.196C198.589 15.2552 198.343 15.313 198.358 15.3735L198.621 15.3749ZM197.103 11.5812L197.333 11.4629L197.317 11.4024C197.071 11.4616 196.825 11.5194 196.841 11.5799L197.103 11.5812ZM197.2 9.96079C197.184 9.90162 197.184 9.90162 196.938 9.95944C196.692 10.0173 196.461 10.1356 196.461 10.1356C196.477 10.1961 196.954 10.0186 197.2 9.96079ZM198.178 8.7061C198.424 8.64827 198.654 8.52994 198.654 8.52994L198.638 8.46941C198.392 8.52858 198.146 8.58642 198.162 8.64693L198.178 8.7061ZM196.742 8.21659L196.972 8.09825L196.956 8.03774C196.71 8.09557 196.464 8.15473 196.48 8.21525L196.742 8.21659ZM195.654 2.95716C195.615 2.8052 195.615 2.8052 195.412 3.04995C195.208 3.2947 195.244 3.43322 195.262 3.50314C195.486 3.34043 195.674 3.0365 195.654 2.95716ZM192.981 2.69224C193.076 2.42866 193.087 2.17315 193.087 2.17315L193.004 2.18256C192.918 2.44479 192.831 2.70704 192.906 2.70032L192.981 2.69224ZM187.262 1.49673C187.243 1.24256 187.181 1.24794 187.181 1.24794C187.12 1.25467 187.12 1.25466 187.139 1.51017L187.22 1.75762L187.262 1.49673ZM186.508 1.32191L186.427 1.07312L186.366 1.07985C186.386 1.33401 186.404 1.58952 186.467 1.58279L186.508 1.32191ZM186.136 2.90336C186.055 2.65458 185.993 2.66131 186.013 2.91682C186.032 3.17099 186.032 3.17098 186.093 3.16426C186.217 3.15081 186.217 3.1508 186.136 2.90336ZM185.707 2.9491L185.645 2.95581C185.584 2.96253 185.584 2.96254 185.604 3.2167L185.665 3.20997L185.707 2.9491ZM185.094 3.01499L185.033 3.0217C184.973 3.02843 184.973 3.02844 184.992 3.2826L185.053 3.27587L185.094 3.01499ZM184.444 2.57121L184.382 2.57794L184.34 2.84016L184.421 3.08761C184.421 3.08761 184.464 2.82671 184.444 2.57121ZM182.034 3.3458L182.014 3.09029C181.933 2.84285 181.852 2.59407 181.872 2.84824C181.872 2.84824 181.892 3.10375 181.973 3.35118C181.973 3.35118 182.053 3.59996 182.034 3.3458ZM179.774 2.04674C179.713 2.05346 179.713 2.05347 179.733 2.30898C179.752 2.56449 179.833 2.81192 179.894 2.8052C179.955 2.79847 179.917 2.2888 179.774 2.04674ZM171.284 3.2194C171.264 2.96523 171.246 2.70973 171.183 2.71645C171.022 2.22023 171.061 2.72989 171.223 3.22611C171.323 3.72906 171.323 3.72907 171.284 3.2194ZM198.397 31.466L198.382 31.4056C198.365 31.3456 198.611 31.2874 198.857 31.229L198.875 31.289C198.875 31.289 198.643 31.4076 198.397 31.466ZM203.544 29.1594L203.282 29.1573L203.266 29.098C203.512 29.0391 203.512 29.0391 203.528 29.0994L203.544 29.1594ZM199.906 26.2523C199.659 26.3101 199.644 26.2508 199.612 26.1304L199.827 25.9518C200.073 25.8931 200.088 25.9529 200.104 26.0133C200.382 26.0753 200.152 26.194 199.906 26.2523ZM201.407 20.0184C201.16 20.0762 200.914 20.1341 201.16 20.0762C201.16 20.0762 201.408 20.0184 201.654 19.9592C201.654 19.9592 201.654 19.9592 201.407 20.0184ZM200.624 18.0308C200.378 18.0886 200.116 18.0873 200.116 18.0873L200.346 17.969L200.608 17.9703L200.624 18.0308ZM201.817 16.5986L201.785 16.4776C202.031 16.4198 202.031 16.4198 202.046 16.4789C202.078 16.6 202.078 16.6 201.817 16.5986ZM193.432 18.5217C193.186 18.5808 193.172 18.5203 193.648 18.3428C193.894 18.285 193.894 18.285 193.91 18.3441C193.91 18.3441 193.678 18.4638 193.432 18.5217Z" />
    <path d="M195.191 2.92726L195.212 3.40466C195.876 3.77448 195.474 4.48721 194.811 4.11337C194.148 3.74086 194.149 3.73951 194.39 4.34332C194.831 4.59345 194.631 4.94847 194.43 5.3035C194.229 5.65852 194.229 5.65851 194.45 5.78492C194.669 5.91133 194.688 6.39411 194.486 6.75048C194.285 7.10685 194.285 7.10684 194.065 6.97909C194.051 6.49765 193.645 7.20636 193.867 7.81151C193.875 8.29161 193.875 8.29159 193.439 8.03339C193.002 7.77653 192.585 8.47449 192.811 9.08637C192.811 9.08637 192.601 9.43735 192.39 9.78833C192.18 10.1393 191.965 10.0075 191.748 9.87575C191.314 9.61217 191.315 9.61217 191.322 10.0936C191.33 10.5764 191.546 10.7082 191.546 10.7082C191.761 10.84 191.556 11.195 191.334 11.5379C191.116 11.8835 190.68 12.5747 190.464 12.4402C190.25 12.3044 190.464 12.4402 190.68 12.5747C190.46 12.9203 190.676 13.0562 190.46 12.9203C190.46 12.9203 190.243 13.2659 190.02 14.0943C189.795 14.9254 188.715 15.6852 188.944 14.3727C189.162 14.0284 189.162 14.0284 188.725 14.7183C188.51 15.0626 188.294 14.9227 188.294 14.9227C188.082 14.7842 187.855 15.1217 187.631 15.4593C187.631 15.4593 187.842 15.5991 188.054 15.739C188.917 15.817 188.674 16.64 187.813 16.558C187.601 16.4168 187.813 16.558 188.023 16.6992C188.235 16.839 188.007 17.1806 187.343 17.7185C187.116 18.0587 186.469 18.1139 186.26 17.97C186.052 17.8274 185.825 18.165 185.825 18.165C185.599 18.5025 185.599 18.5025 185.808 18.6464C186.232 18.9382 185.76 19.6052 185.11 19.6483C185.11 19.6483 185.11 19.6483 185.317 19.7935C185.526 19.9374 185.497 20.4175 184.113 21.9384C183.185 23.2823 182.428 24.2441 182.638 24.4006C182.842 24.5519 181.457 25.5605 180.567 25.9035C180.366 25.749 180.366 25.749 180.567 25.9035C180.765 26.0548 180.533 26.391 180.031 27.0309C179.274 27.9896 179.274 27.9895 179.473 28.147C180.125 28.1403 180.124 28.1408 179.22 28.4669C178.57 28.4722 178.013 29.588 178.406 29.9073C178.603 30.066 178.352 30.389 177.842 31.0289C177.383 31.1823 176.861 31.8085 176.336 32.4357C175.55 33.3759 175.55 33.3759 175.164 33.0471C174.777 32.7183 174.517 33.0293 173.996 33.6523C173.737 33.9648 173.462 34.2621 173.655 34.4319C173.655 34.4319 173.576 34.9036 173.306 35.2077C173.036 35.5135 172.767 35.8181 172.956 35.9867C172.956 35.9867 172.876 36.4611 172.335 37.0735C171.795 37.6861 171.251 38.2954 171.432 38.463C171.152 38.7608 171.152 38.7608 170.966 38.588C170.778 38.4163 170.316 38.5392 169.384 39.9019C168.827 40.4964 167.989 41.3879 167.808 41.2109C167.521 41.4992 167.519 41.4992 167.701 41.6774C168.066 42.0315 167.486 42.6135 166.551 42.8315C166.371 42.6524 166.084 42.9396 165.975 43.4088C165.975 43.4088 165.686 43.6977 165.222 43.8043C164.755 43.9104 164.76 43.9126 164.357 44.6669C164.534 44.8502 164.237 45.1292 163.941 45.4086C163.18 45.7937 159.917 48.8483 159.752 49.2791C159.278 49.3584 159.278 49.3584 158.973 49.6279C159.004 50.2802 158.53 50.3596 158.198 49.974C158.198 49.974 158.198 49.974 158.502 49.7056L158.806 49.4367C158.471 49.0542 157.563 49.8575 158.059 50.4364C158.086 51.0914 158.085 51.0929 157.45 50.9758C156.81 50.8508 156.498 51.105 156.512 51.7548C156.84 52.1452 156.838 52.1461 156.2 52.0143C154.923 51.7512 153.836 52.3211 154.474 53.1138C154.794 53.5093 154.639 53.9679 154.325 54.228C154.011 54.489 153.852 54.2884 153.693 54.0888C153.692 53.4358 153.381 53.6932 153.05 54.5868C152.557 55.9336 151.903 56.44 150.631 56.7804C149.032 57.3593 148.029 58.0427 149.323 57.7506C150.285 57.6845 150.287 57.6839 149.474 57.9556C148.811 58.433 148.15 58.9094 147.819 59.148C147.488 59.387 147.01 59.417 146.865 59.2078C146.572 58.7908 146.572 58.7908 146.865 59.2078C146.832 59.8667 146.308 60.5526 145.338 60.5747C144.999 60.8017 144.661 61.0275 144.661 61.0275C144.322 61.2534 144.322 61.2539 143.844 61.2671C143.365 61.2802 143.168 61.7183 142.967 62.158C142.768 62.5982 142.566 63.0399 142.429 62.8252C142.292 62.6128 141.461 62.8236 140.983 62.8198C140.502 62.8167 140.292 63.2458 140.771 63.2496C140.905 63.466 140.907 63.4654 140.347 64.11C139.999 64.3243 139.305 64.7525 139.173 64.534C139.052 64.3354 136.954 65.5693 136.718 65.9759C136.718 65.9759 136.364 66.1765 136.01 66.3773C135.655 66.5779 135.177 66.5559 134.825 66.756C134.825 66.756 134.471 66.9566 133.996 66.9329C133.645 67.1352 133.28 67.3107 133.401 67.5392C133.522 67.7635 133.522 67.7635 133.401 67.5392C132.801 67.2765 132.803 67.2749 132.68 67.9132C132.92 68.3639 132.918 68.3645 132.32 68.1008C131.842 68.0614 131.843 68.0603 131.6 68.4747C131.717 68.7017 131.355 68.8887 131.239 68.6613C130.646 68.3954 129.46 68.7243 129.684 69.1818C129.684 69.1818 129.321 69.3615 128.842 69.3037C128.254 69.0179 128.256 69.0174 128.476 69.477C128.334 70.1085 127.964 70.2833 127.38 69.995C127.38 69.995 126.907 69.9366 126.649 70.3401C126.037 70.9411 123.91 72.1498 124.072 71.51C124.072 71.51 124.072 71.51 123.328 71.8278C122.686 72.3798 122.311 72.5401 121.841 72.4634C121.373 72.3862 121.373 72.3862 121.373 72.3862C121.47 72.6215 121.194 73.0186 120.821 73.1752C120.443 73.3197 120.443 73.3197 120.347 73.0828C120.629 72.7019 120.253 72.8453 119.876 72.9897C119.5 73.1337 119.215 73.5151 119.307 73.7535C119.307 73.7535 119.307 73.7535 118.929 73.898C118.745 73.4221 118.369 73.5661 118.459 73.8045C118.173 74.1875 117.793 74.3319 117.415 74.4769C117.037 74.6213 117.327 74.2374 117.415 74.4769C117.506 74.7159 117.506 74.7159 117.506 74.7159C117.214 75.101 117.126 74.8614 117.037 74.6213C117.037 74.6213 116.658 74.7643 116.279 74.906C115.896 75.0358 115.513 75.165 115.809 74.7947C115.724 74.5546 115.638 74.314 115.257 74.4427C114.876 74.5714 115.174 74.2022 115.257 74.4427C115.342 74.6839 115.426 74.9244 115.044 75.0542C114.661 75.184 114.744 75.4256 114.744 75.4256C115.296 75.777 113.673 76.057 113.21 75.9441C112.284 75.7187 111.905 75.847 112.059 76.3334C112.218 76.8297 111.28 76.5687 110.67 75.9504L110.061 75.3316L110.285 76.0644C110.196 77.1554 110.189 77.1576 108.883 77.0099C108.036 76.9926 108.038 76.9926 108.107 77.2384C108.173 77.4706 107.796 77.6283 106.614 77.9119C105.436 78.2076 105.043 78.3059 104.982 78.0585C104.982 78.0585 104.59 78.1566 104.197 78.2555C103.927 78.8496 103.08 78.7992 103.354 78.2034C103.354 78.2034 102.963 78.3006 102.572 78.3972C102.572 78.3972 102.572 78.3972 102.629 78.6463C102.687 78.8953 101.895 79.0591 98.7231 79.7174C95.1353 80.3578 94.7296 80.3856 94.6524 79.8923C94.1762 79.4531 93.7811 79.5173 93.8556 80.023C93.8955 80.2752 93.5323 80.5935 93.4964 80.341C93.4964 80.341 92.6942 80.4386 92.3284 80.7422C91.187 81.3931 90.748 81.1876 90.7201 80.9345C91.0593 80.3793 90.6895 80.6802 90.317 80.9823C89.9458 81.2838 89.5694 81.5864 89.5414 81.3327C89.1118 81.1609 86.6693 81.0653 86.7119 81.58C86.7119 81.58 86.3075 81.61 85.9031 81.6406C85.8831 81.3857 85.0756 81.4461 84.2681 81.5065C83.4593 81.5549 83.0536 81.5491 83.0669 81.8096C83.4859 82.0529 83.0789 82.0655 82.2567 81.8333C81.8497 81.8454 81.4266 81.3469 81.0236 81.359C81.0143 81.103 80.6045 80.8599 80.2041 80.8715L80.2094 81.1267C80.2147 81.3826 80.2201 81.6379 80.2201 81.6379C79.817 81.6494 79.4112 81.6615 79.4072 81.4056C79.3993 80.8951 79.3993 80.8951 79.4072 81.4056C79.0068 81.6693 78.6024 81.6521 77.7923 81.6415C76.9821 81.6279 76.1707 81.6147 75.7729 81.3521C75.7769 81.0969 75.7769 81.0969 75.7729 81.3521C75.3592 81.8768 72.9154 81.7812 72.5443 81.2292C72.5576 80.9743 72.1585 80.947 71.7381 81.174C71.3204 81.3984 71.3177 81.3962 70.9359 81.1079C70.5541 80.821 70.1351 81.0311 69.7068 81.2465C69.2545 81.7062 68.8434 81.6652 68.4709 81.3542C67.6967 80.9955 66.9025 80.8688 66.5034 80.7943C65.7478 80.4044 65.3633 80.311 65.801 80.1434C65.8476 79.8918 65.5097 79.5629 65.5097 79.5629C64.79 79.1511 64.7421 79.3906 65.1239 79.482C65.8449 79.8927 65.4631 79.815 65.0201 79.9826C64.5785 80.1476 63.7936 79.96 63.4078 79.8535C63.0194 79.7505 62.2478 79.5292 61.8673 79.4005C60.6448 79.2693 60.263 79.107 60.3548 78.87C60.5304 78.391 60.5304 78.391 60.4413 78.6305C60.1725 78.7965 58.9926 78.4919 57.9164 77.9376C56.8308 77.3966 55.877 76.6312 55.8491 76.3075C55.9861 76.0917 55.8491 76.3075 55.7134 76.5235C55.5777 76.7431 55.2358 76.5241 54.576 76.0534C54.2421 75.8137 53.1167 74.6251 52.2826 73.7651C51.1492 72.6289 50.4441 71.6418 50.6516 71.4895C50.4202 71.169 50.4202 71.169 50.2153 71.3188C50.2499 71.7942 50.0038 71.4737 49.779 71.1339C49.5581 70.7892 49.771 70.6511 49.9825 70.5119C50.19 70.369 49.9798 70.057 49.3812 69.4907C48.7706 68.9281 48.1454 67.4121 48.1786 66.5716C48.0709 66.1897 47.9591 65.8105 47.7223 65.8714C47.3831 65.5536 46.9508 64.7719 47.3499 63.8909C47.3046 63.4896 47.3033 63.4896 47.0532 63.5196C46.7525 63.144 46.5038 63.1545 46.9827 62.7037C47.1649 61.867 47.1796 60.6735 46.9973 59.8377C47.0239 59.4285 47.0678 59.0204 47.3246 59.0486C47.576 59.0761 47.8274 59.1034 47.576 59.0761C47.1237 58.6227 47.121 58.6063 47.6784 58.2817C47.9285 58.318 47.995 57.9292 47.7449 57.8873C47.5574 57.4481 47.6465 57.0488 47.6465 57.0488C47.7077 56.6417 48.4154 54.7354 49.2003 52.8932C50.488 49.9431 51.2702 48.9807 51.4471 49.101C51.8715 48.8951 51.8688 48.8993 51.8768 48.4265C51.8822 47.9505 52.1123 47.616 52.3451 47.2876C52.5726 46.9546 52.8227 46.6374 52.6165 46.4828C52.4129 46.3305 52.4129 46.3305 52.6165 46.4828C53.0608 46.3095 53.0568 46.3095 53.3082 45.9928C53.1087 45.8383 53.3575 45.5115 53.8111 45.3602C54.4589 45.3723 54.4563 45.3761 54.0678 45.0488C53.8656 44.8834 54.4722 43.7902 54.3991 44.2661C54.5893 44.431 55.1214 43.8211 55.583 43.6998C55.8504 43.3993 56.1338 43.1135 55.9475 42.936C56.0313 42.4564 57.657 41.1972 58.1279 41.1294C58.3008 41.3165 58.5882 41.0454 58.4205 40.859C58.2503 40.6703 58.5509 40.4019 58.8542 40.1387C59.3252 40.0783 59.1615 39.8835 59.0006 39.6854C58.531 39.7553 58.8289 39.4779 59.4795 38.9783C59.9491 38.9179 61.2567 37.9672 62.3409 37.426C64.1475 36.5347 64.6889 36.7616 65.5004 37.0925C65.652 37.2375 65.7983 37.3714 65.9354 37.5337L65.8596 37.0278C65.8143 36.7768 66.1442 36.2247 66.1442 36.2247C66.5446 36.1738 66.5579 36.4568 66.5712 36.7043C66.5912 36.9765 66.9304 36.9112 67.6887 36.739C68.4616 36.5756 68.87 36.7043 69.1387 37.0584C69.4912 37.1887 69.8198 37.332 70.2788 37.2895C70.614 37.4871 70.6114 37.4918 70.481 37.7081C70.3573 37.9241 70.6499 38.11 71.1009 38.1358C71.7155 37.9419 72.6108 38.8197 72.3926 39.0041C72.205 39.1785 72.4631 39.458 72.6866 39.77C72.9141 40.0758 73.1336 40.4062 73.0977 40.8648C73.2932 41.1852 73.4422 41.5319 73.4422 41.5319C73.6059 41.8712 73.6724 41.4253 73.5021 41.0743C73.5021 41.0743 73.5021 41.0743 73.8972 41.3112C74.2231 42.0324 74.3428 42.4238 74.2098 42.8687C73.8227 43.3777 73.8187 43.3615 74.3096 43.2418C74.5583 43.1713 74.8896 43.518 74.71 43.9583C74.271 44.4284 74.557 44.7666 74.8044 44.7509C75.2488 44.2818 75.3312 44.3191 74.8483 45.9491C74.8616 46.7618 74.4173 48.3173 74.0914 49.4551C73.6604 50.9857 73.3158 51.7081 73.3943 52.1814C73.8573 52.3836 73.691 52.7614 73.6245 52.2822C73.1562 52.0794 73.0205 52.4545 72.4684 53.5198C72.08 54.6802 71.4827 55.2776 71.0264 55.4461C70.5914 55.631 70.8016 55.7729 71.0264 55.4461C71.2632 55.1263 71.4508 54.7748 71.4508 54.7748C71.0158 54.5127 70.8401 54.8499 70.5914 55.6301C70.3692 55.9531 70.5755 56.1002 70.7843 56.2468C70.9918 56.3901 70.9705 56.876 70.7324 57.2107C70.4757 57.5296 70.2229 57.8468 70.2761 57.3734C70.0752 57.2174 70.0752 57.2174 69.8251 57.5305C69.571 57.8399 69.3276 58.1651 68.874 58.2965C68.6824 58.1299 68.415 58.4178 68.1477 58.7072C68.1077 58.9384 67.9521 59.201 67.8058 59.4054C67.6648 59.6149 67.5158 59.7468 67.5158 59.7468C67.3362 59.5661 67.5158 59.7468 67.694 59.9276C67.8736 60.1076 67.7552 60.5694 67.7552 60.5694C67.4586 60.851 67.2843 60.665 67.2843 60.665C67.2005 60.5763 65.4099 62.211 63.2642 63.6247C61.145 65.0786 58.6866 66.2517 58.1478 66.5201C57.5226 67.0817 56.4092 67.5823 56.6792 67.1815C56.5794 66.9519 54.741 67.7436 52.4502 68.48C49.7763 69.3306 47.7928 69.6836 47.7449 69.4434C47.7449 69.4434 47.3538 69.5222 46.5716 69.6798C45.7828 69.8096 44.958 69.706 44.5642 69.7534C44.1319 69.5527 43.7408 69.6037 44.1705 69.8054C44.205 70.0581 44.2409 70.3108 43.8445 70.3632C43.0477 70.4682 43.0184 70.2146 42.9865 69.9608C42.9572 69.7114 42.5634 69.7503 42.5634 69.7503C42.1697 69.7859 42.1697 69.7859 42.1963 70.0402C42.2229 70.2949 42.2495 70.5492 42.2495 70.5492C41.8504 70.5859 41.8504 70.5859 41.8504 70.5859C41.8251 70.3312 41.4274 70.3679 41.4274 70.3679C41.0296 70.4048 41.0296 70.4048 41.0722 70.9143C41.1161 71.4269 40.705 71.4585 40.266 70.9647C39.4479 70.752 39.4479 70.752 39.4479 70.752C39.0714 71.2935 38.24 70.7966 37.8396 70.5418C37.8289 70.0308 37.8289 70.0308 37.8396 70.5418C37.4498 71.0556 37.0387 71.0667 36.6423 70.5514C36.6423 70.2954 36.2485 70.2839 35.8441 70.5277C35.4397 70.7619 35.0353 70.7788 34.2358 70.7146C33.85 70.4263 31.0537 70.2849 27.9302 69.621C24.4156 68.8803 22.182 67.9757 22.2725 67.742C21.9013 67.6022 21.9027 67.6028 21.4411 67.7015C21.3546 67.9363 20.9661 67.8092 20.7972 67.1663C20.5311 66.7701 20.6309 66.5358 20.4354 67.007C20.3489 67.2236 19.5853 66.9692 18.1765 66.2228C17.095 65.7101 15.7501 64.8418 15.8711 64.6443C15.343 63.997 15.351 63.9912 15.5399 64.4294C15.6317 65.0723 13.7546 64.2251 13.1307 63.0405C12.8141 62.7983 12.4988 62.5566 12.3419 62.7563C12.0279 62.5094 11.7273 62.2278 10.9876 61.2518C10.7003 60.9776 9.53893 59.8771 9.01745 59.2688C8.75272 58.9704 8.53322 58.6284 8.38024 58.3643C8.22592 58.102 8.15276 57.9041 8.15276 57.9041C7.90666 57.592 7.66189 57.2794 7.90666 57.592C7.72574 57.7512 6.39543 56.2352 4.98133 53.8083C3.56191 51.3844 2.71186 49.1256 2.36466 48.8257C2.36466 48.8257 2.22897 48.4413 2.33406 47.98C2.66796 47.4426 2.58549 47.0681 2.23429 46.7565C1.94029 46.6378 1.68355 46.185 1.55185 45.698C1.45474 45.2037 1.48133 44.6821 1.69152 44.4384C1.94028 44.389 1.69152 44.4384 1.44409 44.4883C0.841464 44.1967 0.93326 42.9255 1.40019 42.4769C1.10753 42.1145 0.789579 41.7309 1.041 41.3102C1.02637 40.9105 1.02505 40.9094 0.520871 40.9372C0.269446 40.9508 0.0153552 40.9656 0.000721967 40.5474C-0.0152416 40.1304 0.236191 40.1251 0.490277 40.1199C0.490277 40.1199 0.459665 39.7107 0.491592 39.302C0.491592 39.302 0.50889 38.8933 0.761646 38.9006C1.0144 38.9074 1.0317 38.5076 1.05033 38.108C0.796239 38.0901 1.06629 37.7081 1.30175 38.1231C1.55451 38.1389 1.80592 38.1537 1.82189 37.7671C1.82189 37.7671 2.07332 37.787 2.32607 37.8074C2.83025 37.8463 3.08168 37.8752 3.30517 38.6133C3.44751 40.0736 3.84793 41.1142 3.31182 41.1531C3.31182 41.1531 3.05508 41.5361 3.11361 41.9037C3.15884 42.2721 3.45149 42.603 3.45149 42.603C3.69361 42.572 3.84793 44.0087 4.32417 45.7653C4.88955 47.8723 5.36712 48.8814 5.73428 49.112C6.11076 49.3432 6.25177 49.6709 6.25177 49.6709C5.99901 49.7792 6.91027 51.779 8.33501 53.9044C9.75177 56.0397 11.5384 57.8851 11.3614 58.0626C11.6235 58.3211 11.8856 58.5801 11.8856 58.5801C12.0731 58.3858 12.5574 58.9363 13.1214 59.3996C13.3116 59.7342 13.5484 60.0252 13.736 60.2316C13.9209 60.4407 14.0672 60.5526 14.0672 60.5526C14.2242 60.3531 14.5142 60.5727 15.0902 61.015C15.6596 61.4688 15.9722 61.6489 15.8299 61.8654C16.1119 62.0823 18.2922 63.4817 19.419 63.7087C19.8593 63.6446 20.0708 64.0411 20.297 64.4393C20.1906 64.671 20.43 65.054 20.7759 65.2058C20.7759 65.2058 20.877 64.971 20.9768 64.7366C20.7387 64.3538 20.74 64.3549 21.4144 64.6506C21.751 64.7992 22.0889 64.9468 22.0889 64.9468C22.0011 65.1632 23.7092 65.9133 26.2368 66.5942C29.4973 67.4315 30.6467 67.4824 30.6028 67.7667C30.5655 68.0198 30.9447 68.0934 32.1047 67.9616C34.4314 67.4347 34.4074 67.379 34.7746 67.6794C34.4008 67.6516 34.3861 67.907 34.3715 68.1622C34.3436 68.6676 34.7294 68.7133 35.1311 68.2058C35.1444 67.9357 36.5572 67.9647 38.0272 67.9836C39.4958 68.0261 41.031 68.1034 41.2451 68.3319C41.2691 68.5866 41.2691 68.5866 41.2239 68.0776C41.1999 67.8134 41.5804 67.8081 43.0916 67.6279C43.8472 67.5287 44.2237 67.4788 44.2237 67.4788C44.2995 68.0035 46.5304 67.3526 46.4745 67.101C46.7951 66.7722 46.7938 66.7722 47.5321 66.6168C48.7533 66.8883 50.5306 66.1362 50.4468 65.8802C50.4468 65.8802 50.8059 65.7736 51.1665 65.6664C51.6055 65.8141 52.3185 65.5672 52.6723 65.4421C53.7432 65.0839 54.0838 64.9226 53.827 65.3045C53.9148 65.5435 54.004 65.7826 54.3605 65.6424L54.2687 65.4038C54.1729 65.1564 55.2438 64.7782 56.6034 64.1378C58.2982 63.3331 58.9474 62.9586 59.1402 62.5483C59.1402 62.5483 59.1402 62.5483 59.5886 62.5835C60.0382 62.6181 60.3668 62.4301 60.2337 62.2126C60.408 61.7839 61.6611 61.0244 62.3822 60.7681C62.6788 60.5501 62.9741 60.3319 62.9741 60.3319C62.9808 59.721 63.7723 59.0166 64.3962 59.1758C64.5612 59.3685 64.5612 59.3685 64.3962 59.1758C64.2326 58.9846 64.512 58.7534 64.7647 58.4987C65.1106 58.3437 65.5549 58.0191 65.8782 57.7029C66.1841 57.3698 66.3824 57.062 66.2892 56.9758C66.2892 56.9758 66.2892 56.9758 66.5314 56.7131C66.9717 56.6276 67.2031 56.3476 67.4213 56.0633C67.6461 55.7823 67.8683 55.505 68.298 55.3763C68.7157 55.236 68.9192 54.9293 68.9192 54.9293C69.1254 54.6273 68.709 54.7858 68.302 54.9313C67.7033 55.3637 68.286 54.4995 69.3276 53.8896C70.3027 53.2147 70.3067 53.2094 69.5085 53.5782C69.1108 53.7552 68.721 53.9227 69.2917 53.4448C69.2917 53.4448 69.6482 52.8286 69.869 52.9541C70.0513 52.6432 70.2389 52.3343 70.3932 52.016C70.4823 51.27 70.6127 50.96 70.747 50.6417C71.1076 50.42 71.1182 50.4138 70.9958 50.0055C70.7563 49.9162 70.8734 49.6069 71.3497 49.7702C71.6995 49.529 71.802 49.1881 71.6477 48.7974C71.1634 48.6629 71.2353 48.3551 71.4827 48.4138C71.8126 48.155 71.8698 47.8287 71.8698 47.8287C71.7381 47.8056 71.8499 47.0659 71.8432 46.0384C71.8419 45.5242 71.8099 44.938 71.7022 44.3417C71.6051 43.7853 71.4202 43.1865 71.1594 42.6271C71.045 42.3818 71.1328 42.0156 71.3444 41.888C71.786 41.6359 71.5625 41.753 71.2007 41.6337C70.4078 41.7998 70.1165 41.4148 70.8734 41.1578C71.4614 41.0949 71.4508 41.0801 70.7005 40.9298C70.32 40.8826 70.3373 40.8888 70.328 40.5112C70.5089 40.3341 70.3014 40.1288 70.1311 40.3173C69.7546 40.3211 69.4181 40.3673 69.5697 40.1682C69.5697 40.1682 69.3622 40.0027 69.0283 40.1056C68.7064 40.2018 68.6532 39.8903 68.5321 39.5625C68.0585 38.8292 67.722 38.8212 67.8843 39.3571C67.9814 39.8871 67.0129 39.4379 66.683 39.002C66.389 38.4961 66.3637 38.5208 66.3957 38.7666C66.4183 39.0229 66.1535 39.0519 66.1535 39.0519C65.8862 39.0898 65.6081 39.1612 65.668 39.4038C65.668 39.4038 65.4166 39.4542 64.7687 39.4133C64.0158 39.1291 63.183 39.8408 63.1737 40.4597C63.1737 40.4597 63.1777 40.4393 62.4713 40.5953C61.9072 40.3484 61.4576 40.3625 61.7543 40.7769C61.9006 40.985 62.0456 41.193 61.8993 40.985C61.3099 40.7455 60.3202 41.8907 60.6608 42.2762C60.8244 42.4716 60.8231 42.4664 60.5557 42.7054L60.3894 42.5136C60.2218 42.3214 60.0555 42.1297 59.7788 42.3739C59.5047 42.624 59.2334 42.8819 59.4076 43.0658C59.3092 43.5122 59.2121 43.9646 59.0365 43.7817C59.0365 43.7817 58.7611 44.0501 58.676 44.5009C58.4165 44.7746 58.1558 45.0482 57.6357 45.5966C57.1914 45.6997 56.6912 46.269 56.8867 46.4371C56.8867 46.4371 56.3998 47.0023 55.9701 47.1321C55.4992 47.7152 55.2744 48.012 55.4753 48.1665C55.6762 48.3214 55.6775 48.3204 55.2558 48.4628C55.0562 48.3109 54.8248 48.6051 54.6159 48.9098C54.4057 49.2134 54.1955 49.5165 54.1955 49.5165C53.9867 49.3741 53.9867 49.3741 53.7818 49.6841C53.565 49.9919 53.2151 51.0698 53.0422 51.3844C52.5154 52.3374 52.5274 52.3448 52.4702 51.9025C52.6404 51.5778 52.4183 51.4596 52.2985 52.2249C52.1362 52.5548 51.8728 53.637 51.5044 54.633C51.0215 55.9562 51.064 55.9672 50.8099 55.8911C50.4321 55.3967 50.3257 55.7487 50.7062 56.2314C51.0108 57.0509 50.935 57.3698 50.6915 57.3199C50.3736 57.6078 50.3696 57.6109 50.2978 57.9571C50.5519 58.0075 50.4787 58.3411 50.1328 59.0036C50.0902 59.3528 50.0889 59.3528 50.3403 59.3812C50.3403 59.3812 50.2965 59.7253 50.2765 60.0699C49.6752 60.7334 49.9918 62.8588 50.3177 63.1388C50.3177 63.1388 50.347 63.4707 50.1528 63.8443C49.7124 64.2618 49.7697 64.6227 50.2672 64.514C50.762 64.4136 50.7621 64.4037 50.3417 64.8423C50.1222 65.2467 50.6676 66.8652 51.0401 66.362C51.2782 66.2748 51.515 66.1875 51.515 66.1875C51.3727 66.5758 51.5044 66.8689 51.5044 66.8689C51.2769 66.964 51.374 67.2749 51.8196 68.1402C52.1056 68.7128 52.6351 69.9625 53.0834 70.4861C53.4931 71.023 54.2235 71.7617 54.6412 71.8094C54.8966 72.0384 55.1281 72.2743 55.5072 72.9114C55.615 73.336 56.1923 73.763 56.3346 73.5555C56.3346 73.5555 56.3346 73.5555 56.6233 73.7562C57.0503 74.3787 57.3709 74.5584 57.3709 74.5584C57.5026 74.3446 57.927 74.3104 58.1079 74.7048C57.9829 74.9271 58.2888 75.1146 58.9274 75.4455C59.2866 75.516 62.1361 76.8287 65.2543 77.4806C68.3339 78.194 71.5332 78.4587 71.5226 78.5927C71.5226 78.5927 71.9097 78.621 72.6853 78.6777C73.075 78.6998 73.8573 78.7435 73.8573 78.7435C73.8772 78.2491 75.8248 78.549 77.0061 78.8169C77.3972 79.0791 77.7936 79.0855 78.1887 79.0927C78.1887 78.579 79.3647 78.6163 80.1575 78.8275C80.5633 79.327 80.9624 79.3156 80.9464 78.8044C80.9331 78.2938 81.71 78.2696 82.5348 79.013C82.9405 79.2567 82.9419 79.2567 83.3237 78.9904C83.6921 78.4735 84.0819 78.4503 84.0979 78.7003C84.5222 79.1811 84.9213 79.1511 85.2778 78.6121C86.0268 78.0433 86.0228 78.0433 86.4578 78.5234C86.8915 78.9962 88.4798 78.901 88.8151 78.3316C89.2075 78.2844 89.572 77.9833 89.6 78.2376C89.6 78.2376 89.6 78.2376 89.9618 77.9372C90.3529 77.8904 90.7427 77.843 90.7427 77.843C90.7746 78.0973 90.7746 78.0973 90.7746 78.0973C91.1697 78.0605 93.4844 77.5352 96.1982 77.0504C100.462 76.2855 101.22 76.0418 100.893 76.3968C100.615 76.9768 101.393 76.8156 101.667 76.2372C102.057 76.1694 102.763 75.7172 103.528 75.527C104.293 75.3347 105.058 75.143 104.993 74.8955C104.993 74.8955 104.993 74.8955 105.376 74.7999C106.275 75.1361 108.554 74.4407 109.616 73.866C110.37 73.6333 110.756 73.5518 111.582 73.5319C112.41 73.5204 112.412 73.5198 112.706 73.1511C112.627 72.9073 114.784 71.9081 114.955 72.3899C114.955 72.3899 114.955 72.3899 115.243 72.0227C115.53 71.6545 115.982 71.7438 116.071 71.986C116.246 72.466 116.621 72.3227 116.722 71.4638C116.544 70.9857 116.91 70.8455 117.001 71.084C117.459 71.1816 117.921 71.2783 118.197 70.8991C118.567 70.7583 118.936 70.617 119.123 71.0913C119.218 71.3288 119.589 71.1869 119.96 71.0452C119.865 70.8082 119.864 70.8087 119.4 70.7126C119.027 70.8487 119.404 70.7247 120.134 70.4183C120.5 70.2624 121.129 69.7156 121.031 69.4802C121.294 69.0898 121.657 68.9349 121.494 69.5605C121.691 70.0308 121.691 70.0308 122.421 69.7187C122.787 69.5621 123.151 69.4067 123.049 69.1729C122.948 68.9391 122.948 68.9391 123.674 68.6287C124.756 68.1485 126.143 68.3157 126.727 68.6108C126.944 69.0726 126.945 69.0721 127.088 68.44C126.979 68.2095 127.339 68.0398 127.7 67.8696C128.06 67.6989 127.81 68.0986 127.7 67.8696C127.588 67.6395 127.229 67.8097 126.869 67.98C126.869 67.98 126.869 67.98 126.759 67.7494C126.9 67.1189 127.254 66.9514 127.837 67.2404C128.306 67.2981 128.31 67.3033 128.552 66.8973C128.793 66.4854 129.029 66.0751 129.143 66.3026C129.143 66.3026 129.848 65.937 130.082 65.5272C130.785 65.1627 131.136 64.9805 131.255 65.2064C131.372 65.4322 131.726 65.2489 132.079 65.0656C132.433 64.8859 132.783 64.6963 132.902 64.9163C133.023 65.1412 133.493 65.1674 134.189 64.773C135.008 64.6007 135.01 64.5996 135.107 63.9592C134.98 63.7376 135.327 63.5411 135.673 63.3447C135.673 63.3447 136.021 63.1477 136.237 62.731C136.454 62.3155 136.583 62.5356 136.712 62.7558C136.841 62.9749 136.97 63.195 136.97 63.195C137.315 62.99 137.392 62.3386 137.262 62.1212C137.339 61.4746 137.338 61.475 137.601 61.9126C137.73 62.1311 138.202 62.1391 138.749 61.5034C139.426 61.0853 140.105 60.6672 139.969 60.4512C140.171 60.0274 140.646 60.0342 140.646 60.0342C141.113 60.0279 141.447 59.8047 142.3 58.9289C143.67 57.4009 143.664 57.405 143.953 57.8242C144.095 58.0348 144.24 58.2455 144.283 57.6035C144.473 57.1786 144.931 57.1435 145.728 56.8892C146.199 56.8634 146.494 57.2784 146.64 57.4869C146.934 57.9025 146.936 57.9019 147.441 57.2232C147.768 56.9879 147.945 56.5467 147.795 56.3413C147.645 56.1349 147.32 56.3686 147.32 56.3686C146.995 56.6029 146.995 56.6029 146.995 56.6029C146.848 56.3964 146.699 56.1889 147.347 55.7224C147.52 55.2838 147.842 55.0517 147.993 55.2559C148.143 55.4614 148.143 55.4614 147.993 55.2559C148.171 54.8263 148.801 54.3366 149.43 53.8477C150.06 53.3602 151.006 52.6278 151.163 52.1846C151.796 51.7018 152.102 51.4475 152.259 51.6451C152.577 52.0422 152.886 51.7868 152.726 51.5883C152.728 50.9427 156.527 47.4415 157.131 47.522C157.131 47.522 157.43 47.2572 157.73 46.9929C158.173 46.2896 159.929 44.6721 160.382 44.5707C160.382 44.5707 160.672 44.297 161.254 43.7486C161.661 43.0159 161.949 42.7442 162.416 42.6535C162.88 42.5593 163.053 42.737 162.878 42.5557C162.701 42.3733 163.265 41.8066 164.394 40.6746C165.522 39.5426 165.522 39.5426 165.421 40.0037C164.856 40.5705 164.856 40.5705 165.421 40.0037C166.736 39.0488 166.528 38.8449 166.353 38.6768C165.714 38.6143 166.259 38.0344 167.084 38.2692C167.725 38.3276 168.276 37.7407 168.091 37.5663C167.906 37.3924 167.632 37.6845 167.358 37.9771C167.358 37.9771 167.173 37.8016 166.99 37.6273C167.262 37.3358 167.262 37.3362 167.721 37.2185C167.721 37.2185 167.994 36.9275 168.454 36.8089C168.915 36.6902 169.102 36.8613 169.012 37.3284C168.923 37.7954 169.198 37.5017 169.475 37.2075C169.841 36.4469 169.65 36.2762 169.19 36.397C168.915 36.6896 168.728 36.5168 168.542 36.344C168.368 36.1832 170.073 35.0376 170.716 35.0696C170.905 35.2398 170.905 35.2398 170.527 34.8993C170.338 34.7292 170.869 34.1293 171.4 33.5288C171.932 32.9289 172.197 32.629 172.389 32.795C172.58 32.9604 172.778 33.1323 173.036 32.8234C173.294 32.5139 173.294 32.5139 173.036 32.8234C172.778 33.1317 172.963 33.293 173.157 33.4611C173.157 33.4611 173.487 32.6779 173.552 32.204C173.682 31.2553 174.002 30.4769 175.03 29.2465C175.549 28.6345 176.279 27.6754 176.334 27.2062C176.831 26.5765 177.079 26.2623 177.278 26.4188C177.278 26.4188 177.278 26.4188 177.776 25.7889C177.828 25.321 178.317 24.6869 178.514 24.8371C178.956 24.6696 178.993 24.1931 179.234 23.8712C179.308 22.9219 179.308 22.9224 179.677 23.7025C179.879 23.8548 179.6 24.6549 179.357 24.9784C179.117 25.3004 178.88 25.6277 178.626 25.9408L179.56 25.1323C179.8 24.8087 180.487 24.314 180.689 24.4662C180.689 24.4662 180.893 24.6191 181.135 24.294C181.135 24.294 180.931 24.1416 180.729 23.9892C180.285 24.1611 180.081 24.0077 179.879 23.8553C179.715 23.2261 180.23 22.1119 180.639 22.4131C180.878 22.0904 180.879 22.0904 180.915 21.6184C180.71 21.4691 180.951 21.1477 181.59 21.1154C182.232 21.0845 182.466 20.7523 182.285 20.1297C182.337 19.1763 183.261 17.8664 183.469 18.0117C183.891 18.3062 184.576 17.3083 184.584 16.8256C184.598 16.3482 184.821 16.0147 185.255 15.821C185.465 15.9622 185.465 15.9622 185.255 15.821C185.045 15.6785 185.056 15.2038 185.49 15.0101C185.49 15.0101 185.714 14.6753 185.702 15.1513C185.702 15.1513 186.137 14.9563 186.572 14.7613C186.796 14.4251 186.796 14.4251 186.572 14.7613C186.348 15.0962 186.56 15.2374 186.771 15.3772C186.983 15.5184 187.677 14.0311 187.456 12.9297C187.46 11.9749 187.46 11.975 187.46 11.975C187.673 12.1108 187.887 12.2466 187.887 12.2466C188.103 11.9064 188.318 11.5648 188.104 11.429C187.889 11.2945 187.889 11.2945 188.104 10.9543C188.104 10.9543 188.318 10.614 188.534 10.7485C188.964 11.0175 188.964 11.0175 188.964 10.5428C188.747 9.93223 188.966 9.59738 189.601 9.51399C190.033 9.78026 190.034 9.77893 189.808 9.16705C189.593 9.03526 189.582 8.55652 189.788 8.21226C189.788 8.21226 189.788 8.21225 190.005 8.3427C190.439 8.60627 190.646 8.25797 190.636 7.78191C190.419 7.65148 190.625 7.30586 191.257 6.7424C191.671 6.04984 191.88 5.70424 191.657 5.57514C191.22 5.31829 191.218 5.31962 191.856 5.22414C192.273 4.99957 192.273 4.99957 192.45 4.16984C192.428 3.69379 192.428 3.69379 192.847 3.46787C193.287 3.71799 193.508 3.84306 193.31 4.1954C193.11 4.54908 193.11 4.54906 193.33 4.67413C193.33 4.67413 193.529 4.3218 193.729 3.96812C193.928 3.61578 194.126 3.26346 194.748 2.67982C195.368 2.09619 195.813 2.34093 195.191 2.92726ZM191.506 8.30369C191.289 8.17325 191.08 8.52155 190.873 8.86851C190.665 9.21681 190.665 9.2168 190.882 9.34859C190.882 9.34859 191.306 9.13208 191.514 8.78379L191.506 8.30369ZM189.172 12.5868C188.961 11.9709 188.961 11.9723 188.529 12.6568C188.312 12.9983 188.096 13.3412 188.309 13.4784C188.309 13.4784 188.309 13.4784 188.525 13.1355C188.312 12.9997 188.741 12.7926 188.739 13.2727C188.953 13.4098 189.166 13.547 189.166 13.547C189.383 13.2027 189.387 12.7226 189.172 12.5868ZM176.469 31.4844C176.274 31.3226 175.558 31.7837 175.299 32.0942C175.038 32.4062 175.231 32.5712 175.948 32.1094C176.209 31.7969 176.469 31.4844 176.469 31.4844ZM161.832 44.9501C161.659 44.7646 161.367 45.0404 161.074 45.3161C161.074 45.3161 161.074 45.3161 161.247 45.5026L161.714 45.4117L161.832 44.9501ZM161.816 46.7129C161.816 46.7129 161.349 46.8044 160.882 46.8948C159.782 46.889 159.776 46.8758 160.117 47.2566C160.286 47.4426 160.466 47.6416 161.226 47.2704C161.522 46.9913 161.816 46.7129 161.816 46.7129ZM153.046 51.9849C152.269 52.298 152.269 52.298 152.895 52.4393C153.365 52.3809 153.833 52.3227 153.833 52.3227C154.144 52.0653 153.672 52.1251 153.046 51.9849ZM151.775 54.9298C151.62 54.7285 151.145 54.7737 151.145 54.7737C150.825 55.0206 150.825 55.0206 150.825 55.0206C150.98 55.2234 151.134 55.4257 151.455 55.1771L151.775 54.9298ZM145.532 60.1392C145.87 59.9128 145.051 60.1539 144.714 60.3787C144.714 60.3787 144.714 60.3788 144.856 60.5899C145.194 60.3652 145.676 60.3488 145.532 60.1392ZM142.137 60.8752C141.999 60.6609 141.861 60.4476 141.528 60.6703C141.06 60.6829 140.852 61.1043 141.468 61.3222C141.803 61.099 141.803 61.099 142.137 60.8752ZM138.806 62.3655L138.466 62.5756C138.125 62.7862 138.125 62.7862 138.255 63.0047C138.255 63.0047 138.255 63.0047 138.597 62.7936L138.806 62.3655ZM133.399 66.6782C133.277 66.4545 132.921 66.6399 132.921 66.6399C132.563 66.8254 132.205 67.0108 132.324 67.2366C132.324 67.2366 132.443 67.4625 132.803 67.276C133.162 67.0895 133.399 66.6782 133.399 66.6782ZM126.542 70.1095C126.799 69.7056 126.799 69.706 126.07 70.0501C125.705 70.2219 125.812 70.4547 125.812 70.4547C125.917 70.6864 126.178 70.2819 126.542 70.1095ZM119.968 72.1351C119.873 71.8976 119.501 72.0406 119.312 72.6584C119.405 72.8957 119.405 72.8957 119.783 72.7524C119.783 72.7524 120.064 72.3715 119.968 72.1351ZM117.436 73.3759L116.972 73.2803C116.598 73.4237 116.598 73.4237 116.598 73.4237C116.685 73.6637 116.774 73.9032 117.15 73.7593L117.436 73.3759ZM92.2592 80.2358L91.8255 80.0304C91.4265 80.0776 91.4265 80.0776 91.4265 80.0776C91.4597 80.3309 91.4903 80.5846 91.8921 80.5369L92.2592 80.2358ZM82.2035 80.5568C81.8018 80.5689 81.8018 80.5689 81.8111 80.8241C81.8204 81.0795 82.2341 81.3226 82.2341 81.3226C82.6385 81.3105 82.2115 80.812 82.2035 80.5568ZM75.8141 79.3087C75.8181 79.0533 75.431 78.7912 75.431 78.7912C75.0359 78.7844 75.0359 78.7844 75.0359 78.7844C75.0293 79.0403 75.0213 79.2955 75.4177 79.3024L75.8141 79.3087ZM70.5994 80.3077L70.2269 80.0147C69.8331 79.9748 69.8331 79.9748 69.8331 79.9748C69.8065 80.2289 69.7826 80.4838 70.179 80.5237L70.5994 80.3077ZM48.9036 66.3441C48.6934 65.6187 48.7001 65.616 48.4553 65.6796C48.2052 65.7427 48.4141 66.4975 48.5365 66.8673C48.9076 67.1473 49.0007 66.7045 48.9036 66.3441ZM50.496 51.2999C50.7221 51.4144 51.1279 51.1885 51.1279 51.1885C51.3088 50.8455 51.3088 50.8455 51.3088 50.8455C51.0866 50.7236 50.8645 50.6007 50.6796 50.9506L50.496 51.2999ZM72.1784 43.1514C71.9457 43.2328 72.0241 43.5128 72.0241 43.5128C72.1013 43.796 72.1026 43.7954 72.3474 43.7349C72.3474 43.7349 72.5922 43.6756 72.5097 43.3709L72.1784 43.1514ZM72.2636 46.8948L71.9749 47.1867C71.9257 47.5066 71.9257 47.5066 71.9257 47.5066C72.1744 47.5471 72.4272 47.5887 72.4764 47.2535L72.2636 46.8948ZM73.1429 49.9861C72.7877 50.2708 72.6587 50.6175 72.8955 50.7068C73.1309 50.7946 73.1336 50.7956 73.264 50.4301C73.5047 49.6946 73.4981 49.6977 73.1429 49.9861ZM72.1439 52.474L71.9736 52.8201C71.7967 53.1643 71.7966 53.1643 72.0201 53.2829C72.0201 53.2829 72.0201 53.2829 72.1997 52.9352L72.1439 52.474ZM70.1617 55.8081L69.9422 56.1286C69.7241 56.451 69.7174 56.4469 69.9209 56.5998C69.9209 56.5998 69.9263 56.6039 70.1471 56.2777L70.1617 55.8081ZM67.3295 58.4698L67.0714 58.7514C66.8094 59.0318 66.9783 59.2048 66.9783 59.2048C66.9783 59.2048 67.1672 59.3949 67.4319 59.1081C67.4319 59.1081 67.5158 58.6448 67.3295 58.4698ZM54.5427 67.2162L54.4523 66.9776C53.9973 66.8857 53.5397 66.7581 53.6262 67.0029C53.6262 67.0029 53.71 67.2445 54.1716 67.3548C54.1716 67.3548 54.6332 67.4583 54.5427 67.2162ZM40.8846 68.6219C40.5002 68.6576 40.5002 68.6466 40.5188 68.9049C40.5361 69.1645 40.9458 69.3893 41.3369 69.3499C41.728 69.3141 41.6748 68.8051 40.8846 68.6219ZM2.54158 40.8295C2.793 40.8163 3.0471 40.8017 3.03113 40.4355C3.50605 39.6964 3.00053 39.6912 2.52695 40.4539C2.03607 40.851 2.03607 40.8574 2.54158 40.8295ZM195.409 9.6794L195.197 10.0358C194.984 10.3908 194.766 10.2604 194.549 10.1299C194.549 10.1299 194.549 10.1299 194.761 9.77489C194.761 9.77489 195.191 9.55031 195.409 9.6794ZM187.029 12.6541L187.028 13.1328C186.812 13.473 186.812 13.473 186.812 13.473C186.601 13.3345 186.601 13.3345 186.815 12.9943L187.029 12.6541ZM175.097 33.5247C175.288 33.6881 175.031 34.0064 174.499 34.6267C174.229 34.9329 173.768 35.0706 173.768 35.0706C173.576 34.9036 173.846 34.5983 174.116 34.2936C174.454 33.5099 174.901 33.3581 175.097 33.5247ZM145.905 56.448C146.051 56.6555 146.199 56.8634 146.051 56.6555C146.051 56.6555 145.905 56.448 145.757 56.2405C145.757 56.2405 145.757 56.2405 145.905 56.448ZM134.634 63.9335C134.759 64.1557 134.536 64.5749 134.536 64.5749C134.189 64.773 134.065 64.5497 134.065 64.5497C134.065 64.5497 133.941 64.3269 134.287 64.1306L134.634 63.9335ZM127.633 65.926C127.278 66.0941 126.923 66.2611 126.923 66.2611C126.812 66.0321 126.812 66.0321 127.166 65.864C127.876 65.5294 127.876 65.5294 127.633 65.926ZM131.081 73.888C131.194 74.1165 130.811 74.2978 130.21 74.0172C130.099 73.7877 130.099 73.7877 130.479 73.6086C130.479 73.6086 130.968 73.659 131.081 73.888Z" />
</svg>