<svg id="line_form_tpl_5" width="118" height="19" viewBox="0 0 118 19"  xmlns="http://www.w3.org/2000/svg">
    <path d="M0.278842 3.73131L0.450329 4.12278C0.418425 5.25395 0.741414 5.28145 0.811868 4.1542C0.873016 3.02433 0.880997 3.02433 1.01659 3.79285C0.967403 4.54566 1.14155 4.56005 1.31835 4.57576C1.49382 4.59148 1.49382 4.59147 1.45394 4.96591C1.41672 5.34035 1.54033 5.73051 1.70117 5.74361C1.86335 5.75801 1.86333 5.75801 1.91518 5.38357C1.79288 5.0052 2.14914 5.00651 2.1837 5.80645C2.27808 6.21624 2.27415 6.21623 2.40841 5.47521C2.53603 4.73025 2.89892 4.81666 2.89626 5.59173C2.89626 5.59173 3.06109 5.63232 3.22327 5.67159C3.38412 5.70956 3.48248 5.34559 3.58085 4.98293C3.77626 4.25238 3.78022 4.2537 3.856 4.66087C3.93044 5.06673 3.81744 5.42677 3.81744 5.42677C3.70977 5.79466 3.87598 5.81824 4.03151 5.87846C4.18571 5.94261 4.49408 6.06961 4.62834 5.71612C4.76127 5.36393 4.62834 5.71611 4.49541 6.07092C4.64961 6.13376 4.51005 6.48463 4.64963 6.13245C4.64963 6.13245 4.81045 6.19921 4.95801 6.67054C5.08296 7.12746 5.88586 6.64828 5.74762 5.7711C5.58278 5.70171 5.58278 5.70171 5.91112 5.83918C6.06532 5.92035 6.23813 5.5878 6.23813 5.5878C6.41094 5.25264 6.57311 5.3469 6.73396 5.44117C6.73396 5.44117 6.55055 5.77241 6.36976 6.10365C5.68516 7.01487 5.76889 7.50452 6.4814 6.60901C6.67149 6.28301 6.48141 6.60901 6.28999 6.93501C6.10255 7.26362 6.23153 7.34088 6.71806 7.18901C6.85631 7.2728 7.42522 6.72946 7.6419 6.41918C7.85724 6.10103 8.0035 6.211 8.0035 6.211C8.14972 6.32097 8.14972 6.32098 7.92905 6.62865C7.49303 7.24923 7.75094 7.44823 8.3518 6.95334C8.3518 6.95334 8.3518 6.95335 8.12183 7.25578C7.89318 7.56345 7.79345 7.94705 8.68809 8.18402C9.17728 8.64094 9.54419 8.98526 9.27966 9.25627C9.01911 9.52074 10.0187 9.43434 10.7951 9.16726C11.0702 8.90541 11.0702 8.90541 10.7951 9.16726C10.5212 9.43041 10.6369 9.55216 10.8669 9.79437C11.2098 10.161 11.2098 10.161 10.928 10.4163C10.2527 10.809 10.2554 10.8051 11.0383 10.538C11.7136 10.1531 11.7602 10.7776 11.1912 11.283C10.9081 11.5343 11.0157 11.6574 11.2324 11.9022C11.6259 11.7726 11.8425 12.0188 12.0592 12.2636C12.3849 12.6302 12.3849 12.6315 12.9539 12.1261C13.5215 11.6208 13.6278 11.7425 13.8419 11.9834C13.9495 12.1065 14.0559 12.2243 13.7754 12.477L13.7129 12.9653C13.8232 13.0832 13.9336 13.1997 13.6571 13.4602C13.6571 13.4602 13.4922 13.8386 13.7182 14.0795C13.9375 14.3217 14.1769 14.5469 13.9136 14.8166C14.0346 14.9305 14.0346 14.9305 14.3005 14.6582C14.5677 14.3885 14.9412 14.2183 15.1539 14.9384C15.3799 15.1727 15.7694 15.4634 16.0073 15.1675C16.1323 15.263 16.1323 15.263 15.8957 15.5602C15.4171 16.1494 15.7016 16.368 16.4061 15.9543C16.6308 15.6493 16.7504 15.7435 16.6613 16.1533C16.6613 16.1533 16.7956 16.2502 17.1399 16.0093C17.4829 15.7737 17.4722 15.7671 17.544 16.2489C17.3486 16.5723 17.4869 16.6561 17.6265 16.7372C18.0611 16.6521 19.6417 17.2426 19.6789 17.6812C19.5633 18.0399 19.6789 17.6812 19.6789 17.6812C19.9474 17.3761 19.9474 17.3644 20.0989 17.4049C20.0418 18.1656 20.313 17.8435 20.5031 17.113C20.5031 17.113 20.5031 17.113 20.3542 17.0776L20.2066 17.0423C20.4273 16.3209 20.8261 16.4152 20.5576 17.5149C20.5283 18.2848 20.5443 18.2887 20.8633 17.5882C21.1797 16.8904 21.302 16.9218 21.3232 17.7008C21.1863 18.4432 21.1957 18.4445 21.4762 17.7401C22.0278 16.3144 22.4425 15.9412 22.3003 17.4508C22.2219 18.1997 22.3495 18.5898 22.5196 18.6055C22.6871 18.6199 22.7124 18.2429 22.7377 17.8671C22.6393 17.1012 22.7789 17.1143 23.0554 17.8959C23.4874 19.0886 23.8929 19.0651 24.3448 18.2808C24.943 17.494 25.3923 17.473 24.9989 18.2455C24.737 19.014 24.729 19.014 25.0374 18.6212C25.3724 18.5937 25.714 18.6055 25.8762 18.5518C26.0437 18.5165 26.1394 18.1119 26.0663 17.7427C25.9254 17.0004 25.9254 17.0004 26.0663 17.7427C26.3547 18.4537 26.8027 18.7443 26.9396 17.947C27.1005 17.9129 27.2627 17.8802 27.2627 17.8802C27.4195 17.8409 27.4302 17.8593 27.4634 17.4403C27.4927 17.0266 27.7532 17.3316 28.0403 17.6275C28.3235 17.9247 28.6319 18.2127 28.4896 17.8619C28.3514 17.5123 28.5122 17.0475 28.4949 16.6534C28.479 16.2594 28.7847 16.5474 28.802 16.9415C28.9615 17.2727 28.9682 17.3055 29.4335 17.4835C29.5837 17.4036 29.8815 17.24 29.6954 16.9114C29.5119 16.5723 30.3507 16.1389 30.6976 16.3445C30.6976 16.3445 30.8305 16.2489 30.9635 16.1533C31.0977 16.0564 31.0034 15.6584 31.1323 15.5655C31.1323 15.5655 31.2653 15.4699 31.1549 15.0824C31.2826 14.992 31.4088 14.9017 31.6534 15.191C31.8994 15.4804 31.8994 15.4804 31.6534 15.191C31.2905 14.5142 31.2785 14.5155 31.8993 14.9816C32.3978 15.555 32.4019 15.5524 32.0217 14.8768C31.8901 14.4867 31.8874 14.4893 32.2636 14.6647C32.5215 14.9449 32.6451 14.8349 32.3859 14.5587C31.9924 13.8936 32.0695 13.3267 32.6052 13.8648C32.6052 13.8648 32.7222 13.7522 32.5653 13.3738C32.1373 12.7297 32.136 12.731 32.6783 13.2625C33.3337 13.6815 33.4546 13.5624 33.0173 12.9274C33.0173 12.9274 32.8538 12.5556 33.2446 12.7035C33.7511 12.7506 34.7042 12.2793 34.0276 11.8931C34.0276 11.8931 34.0276 11.8931 34.2522 11.6574C34.7587 11.6758 34.8704 11.5579 34.7002 11.1861C34.5301 10.8143 34.53 10.8143 34.53 10.8143C34.8145 11.0656 35.212 11.1992 35.325 11.08C35.438 10.9609 35.438 10.9609 35.1561 10.7069C34.7587 10.5721 34.873 10.4516 34.9873 10.3312C35.1016 10.212 35.4978 10.3456 35.7796 10.6022C35.7796 10.6022 35.7796 10.6022 35.8926 10.483C35.3303 9.97112 35.4446 9.84936 35.7251 10.1073C36.1213 10.2434 36.2409 10.1269 36.3592 10.0091C36.0814 9.74986 36.4775 9.89256 36.3592 10.0091C36.6357 10.2696 36.6357 10.2696 36.6357 10.2696C37.0305 10.4136 36.7527 10.1544 36.4775 9.89256L36.7154 9.65822C36.8337 9.54039 36.9521 9.42255 36.5613 9.27592C36.2888 9.01145 36.0162 8.74699 36.1385 8.62523C35.8674 8.35946 36.2608 8.50347 36.1385 8.62523C36.4097 8.89101 36.6809 9.15678 36.8005 9.03895C36.9202 8.91981 37.1874 9.18819 37.1874 9.18819C37.6021 9.83365 37.8214 9.1306 37.6925 8.74307C37.4293 7.96538 37.5702 7.84231 38.074 8.41051C38.5818 8.97349 38.3173 8.19711 37.7151 7.21387L37.1275 6.23064L37.8574 7.10259C38.9793 8.15653 38.9527 8.17747 38.9102 7.2754C38.966 6.76742 38.9713 6.7635 39.1933 7.06986C39.4206 7.38015 39.5483 7.26756 39.9763 6.98869C40.4283 6.73994 40.5772 6.65876 40.3857 6.33276C40.3857 6.33276 40.5399 6.24635 40.6955 6.16255C41.2113 6.74124 41.3282 6.24766 40.831 5.65719C40.831 5.65719 40.6555 5.32203 40.831 5.65719C40.831 5.65719 40.9853 5.56293 41.1528 5.49354C41.1528 5.49354 41.1528 5.49353 41.3189 5.83263C41.4864 6.17303 41.8068 6.04865 43.0922 5.57078C44.5997 5.24216 44.7658 5.21992 44.6422 4.47235C44.6954 3.68942 44.8948 3.65537 44.9971 4.40949C45.053 4.78131 45.2749 5.14659 45.2257 4.77215C45.2257 4.77215 45.5794 4.75251 45.7841 5.11779C46.353 5.8418 46.474 5.45819 46.4647 5.08113C46.2533 4.33748 46.4501 4.70538 46.6335 5.07197C46.817 5.43986 46.9818 5.80776 46.9778 5.4307C47.1267 5.00912 48.1888 4.7643 48.1317 5.50271C48.1317 5.50271 48.2965 5.51711 48.46 5.5302C48.4932 5.15445 48.8335 5.18587 49.1712 5.21467C49.5075 5.25002 49.6697 5.32204 49.6019 5.68208C49.3786 6.01593 49.5288 6.05259 49.9222 5.75932C50.0778 5.79859 50.4154 5.10338 50.5896 5.14659C50.6813 4.78 50.9551 4.45794 51.1373 4.50246L51.0335 4.86643C50.9285 5.22908 50.8249 5.59042 50.8249 5.59042C50.9897 5.63101 51.1532 5.67159 51.2688 5.31155C51.4975 4.59278 51.4975 4.59278 51.2688 5.31155C51.3207 5.72134 51.4696 5.79597 51.7846 5.92035C52.0997 6.05127 52.4068 6.17827 52.7271 5.90202C52.888 5.559 52.888 5.559 52.7271 5.90202C52.5982 6.61686 53.3918 7.12616 53.9461 6.56581C54.1402 6.24112 54.2984 6.33538 54.2425 6.74255C54.1854 7.14972 54.1801 7.14449 54.5403 6.92061C54.8966 6.70851 54.8194 7.13008 54.7277 7.53725C54.41 8.24947 54.5257 8.33981 54.8899 8.14212C55.3791 8.04654 55.6623 8.24293 55.7753 8.36338C56.2684 8.30447 56.3973 8.4236 56.525 8.02559C56.7789 7.7428 57.1644 7.58309 57.1644 7.58309C57.6815 7.54774 57.4236 7.82529 57.2933 7.70484C56.7776 7.7415 56.9092 7.86587 56.7776 8.25864C56.6433 8.65403 56.8879 8.88315 57.0102 8.99836C57.1405 9.10965 57.3625 9.35578 57.4794 9.47623C57.5472 10.102 57.6576 10.2186 57.9367 9.96064C58.4937 9.4435 58.4937 9.4435 58.2145 9.70142C57.7918 10.3351 58.9723 11.681 59.6582 11.3052C59.944 11.0552 59.6582 11.3052 59.3711 11.5553C59.0852 11.8054 59.1942 11.9284 59.4109 12.1733C59.5199 12.2937 60.2338 12.5359 60.5608 12.8946C61.0048 13.3647 61.3371 13.7168 61.6096 13.4524C61.7186 13.5689 61.7186 13.5689 61.4475 13.8347C61.0646 13.9826 61.1763 14.0991 61.2879 14.2183C61.4036 14.3361 61.6748 14.0625 61.9406 13.7954C62.2118 13.5283 62.3208 13.6291 62.2863 14.1175C62.2597 14.5953 62.7183 15.0771 63.2181 14.9567C63.3404 15.0509 63.4627 15.1452 63.2274 15.4437C63.1131 15.8339 63.1636 16.3497 63.8589 15.9321C63.9852 16.0289 63.9851 16.0289 63.7684 16.3405C63.6874 16.7464 63.4906 17.058 64.0476 16.5134C64.5381 16.3641 64.9289 16.5972 65.0353 17.0986C65.1748 17.1876 65.3197 17.2636 65.4899 16.9192C65.6574 16.5788 65.8236 16.2397 65.6574 16.5788C65.4673 17.3159 65.4833 17.3238 65.9405 16.6954C66.0987 16.3523 66.2343 16.4073 66.0841 16.7543C66.0748 17.1588 66.225 17.2217 66.225 17.2217C66.3779 17.2924 67.2233 17.2557 67.9784 17.3892C68.5792 17.5503 68.9993 17.6354 69.2811 17.5869C69.5603 17.5647 69.6839 17.4809 69.6999 17.2937C69.8847 16.931 69.8767 16.931 70.0043 17.3199C70.1333 17.71 70.2941 17.7244 70.4483 17.7388C70.6051 17.7519 70.7607 17.7663 70.7593 18.1434C70.758 18.5204 70.758 18.5204 70.7593 18.1434C70.9215 17.7676 70.9175 17.7598 71.0757 17.7532C71.0797 18.1316 71.2472 18.1224 71.3895 17.7375C71.5118 16.9768 71.5037 16.9768 71.5463 17.7283C71.5622 18.1054 72.082 18.4563 71.8906 18.0871C71.86 17.7126 72.1804 17.6956 72.2907 17.3133C72.4436 17.3068 72.5951 17.3002 72.647 17.6733C72.8623 18.053 73.5841 17.4887 73.6346 17.1025C73.5495 16.7359 73.6905 16.7084 73.7835 17.0724C73.8739 17.439 74.0281 17.4076 74.1823 17.3761C74.2315 16.9834 74.3352 17.346 74.4429 17.7061C74.3857 18.0936 74.5545 18.0858 74.8722 17.9823C74.9121 17.5647 75.509 17.3408 75.9663 17.1706C76.716 16.8616 76.6575 16.3877 76.5365 15.6165L76.268 14.903L76.6668 15.5458C76.8622 15.8692 77.4059 16.4335 77.4059 16.4335C77.5495 16.3536 77.3408 16.0381 77.1334 15.7226C76.9274 15.4031 77.0564 15.3495 77.5176 15.4699C77.9882 15.5982 78.1264 15.5 78.0187 15.1112C78.145 15.0208 78.2674 14.9331 78.6369 15.1321C78.7672 15.0405 78.7672 15.0405 78.5212 14.7511C78.278 14.4644 78.3896 14.3636 78.7578 14.5456C79.376 15.0143 79.7522 14.687 79.4903 14.4107C79.2311 14.1332 79.3494 14.0311 79.469 13.9276C79.586 13.8216 79.711 13.7247 79.5515 13.3411L79.7748 13.1185L79.9343 13.4956C79.9343 13.4956 79.9343 13.4956 80.3198 13.6501C80.5484 13.4236 80.6641 13.3084 80.5019 12.9352C80.0606 12.3029 80.0593 12.3042 80.6149 12.8226C80.8927 13.0819 81.2875 13.2246 81.1227 12.854C80.6747 12.2243 81.0669 12.3618 81.3487 12.6184C81.798 13.2481 81.7993 13.2468 81.685 12.2636C81.911 12.0253 82.0745 11.3026 82.4175 10.9413C82.8734 10.4634 83.0967 10.2212 83.4955 10.3626C84.0552 10.8758 84.1708 10.7632 83.776 10.6192C83.2164 10.106 83.3361 9.98683 83.6936 9.63202C84.3264 9.54562 84.2772 9.04288 84.1496 8.65927C84.2785 8.54537 84.014 8.27305 84.1496 8.65927C84.014 8.77187 83.8997 8.89493 83.8997 8.89493C83.3613 8.36076 83.4796 8.23245 84.0153 8.27304C84.1483 8.15652 84.4088 8.43146 84.6706 8.7064C84.9325 8.98003 85.3181 9.14761 85.4417 9.04025C85.564 8.93289 85.6902 8.82423 85.3101 8.65141C85.0548 8.37123 85.0548 8.37123 85.1824 8.25864C85.3114 8.14866 85.4364 8.03869 85.3194 7.63675C85.0695 7.34479 85.2183 7.24006 85.3646 7.1327C85.7501 7.32123 86.0319 7.11699 86.0319 7.11699C85.8033 6.81587 86.0319 7.117 86.2619 7.41812C86.4932 7.71794 86.8561 7.92611 86.8561 7.92611C86.9877 7.82922 86.7643 7.52285 86.7643 7.52285C86.7111 7.45084 86.8654 7.2322 87.1671 6.97821C87.4835 6.74254 87.9342 6.45583 88.4074 6.17042C89.4017 5.69124 90.517 5.29061 90.7828 5.28406C91.2189 5.57864 91.7028 5.47784 91.4622 5.14267C91.3798 4.77085 92.2584 4.55482 93.3192 4.54828C94.5541 4.42652 95.4262 4.60195 95.4581 4.20395C95.4581 4.20395 95.6389 4.21965 95.9991 4.24977C96.3541 4.28381 96.7728 3.93032 96.9576 3.99316C97.2088 3.66454 97.3989 3.70905 97.1424 4.03505C97.0719 4.40556 97.0041 4.77607 97.1756 4.81797C97.5199 4.89914 97.6063 4.53256 97.6914 4.16597C97.7751 3.79677 97.9638 3.8426 97.9638 3.8426C98.1513 3.88842 98.1513 3.88842 98.0556 4.2537C97.9612 4.61767 97.8668 4.98424 97.8668 4.98424C98.0396 5.02614 98.0397 5.02615 98.0397 5.02615C98.138 4.66087 98.3162 4.70538 98.3162 4.70538C98.4943 4.74858 98.4942 4.7486 98.2736 5.47129C98.0556 6.20053 98.2085 6.21362 98.6019 5.5734C99.0486 5.34952 99.0486 5.34953 99.0486 5.34953C98.9462 6.12328 99.5285 5.54461 99.8568 5.27229C100.159 4.5797 100.159 4.5797 99.8568 5.27229C99.7239 6.03557 99.8635 6.09186 100.363 5.48307C100.528 5.14005 100.708 5.21468 100.685 5.64804C100.665 6.07485 100.813 6.16255 101.116 6.34192C101.284 6.2254 101.65 6.31836 102.11 6.55795C102.537 6.83158 103.083 7.22435 103.615 7.67735C104.783 8.72735 105.448 9.47886 105.728 9.21963C105.847 9.34401 105.847 9.34531 105.685 9.72499C105.405 9.98291 105.517 10.102 106.198 9.71713C106.59 9.5862 106.873 9.33222 106.308 9.8402C106.026 10.0955 106.246 10.3416 106.684 10.8378C107.018 11.2123 107.443 11.6941 107.728 11.4427C108.226 11.4322 108.226 11.4309 107.835 11.5631C107.159 11.9402 107.413 12.8226 108.305 12.6551C108.414 12.7703 108.523 12.8855 108.246 13.146C108.355 13.2612 108.468 13.3817 109.069 13.4642C109.171 13.5925 109.634 14.0009 109.859 14.2196C110.089 14.4343 110.563 14.361 110.563 14.361L110.68 14.4526C110.444 14.7171 111.014 15.2591 111.915 15.8221C112.804 16.4152 113.655 16.7124 113.666 17.1287C113.666 17.1287 113.815 17.1916 114.081 16.893C114.471 16.2384 114.582 16.3013 114.619 16.6862C114.536 17.439 115.18 17.5961 115.478 16.893C115.557 16.5252 115.478 16.893 115.398 17.2609C115.389 18.0281 115.947 17.799 116.198 17.058C116.253 16.6849 116.198 17.058 116.198 17.058C116.29 17.4429 116.407 17.8318 116.606 17.4704C116.759 17.4835 116.759 17.4835 116.685 18.235C116.647 18.6095 116.609 18.9839 116.782 18.9996C116.955 19.014 116.984 18.6382 117.01 18.2625C117.01 18.2625 117.174 18.2769 117.337 18.2913C117.337 18.2913 117.501 18.3044 117.515 17.9286C117.531 17.5529 117.684 17.5673 117.84 17.5817C117.835 17.9575 117.993 17.5948 117.845 17.2033C117.85 16.8263 117.857 16.4505 117.998 16.4649C117.998 16.4649 117.998 16.0879 117.999 15.7121C118.003 14.9593 117.995 14.5809 117.773 14.1764C117.325 13.747 117.062 13.3502 116.976 14.0978C116.976 14.0978 116.819 14.4644 116.698 14.4553C116.576 14.4474 116.523 14.0586 116.523 14.0586C116.577 13.6867 116.195 13.565 115.708 13.4576C115.14 13.2887 114.895 13.1172 114.958 12.7598C115.031 12.3827 114.953 12.3552 114.953 12.3552C114.784 12.71 114.309 12.4168 113.718 12.0188C113.138 11.5972 112.507 10.9858 112.242 11.2529L112.059 11.08C112.323 10.8051 112.148 10.6558 111.954 10.4372C111.491 10.4961 111.296 10.288 111.296 10.288C111.572 10.0287 111.478 9.92661 111.286 9.72499C111.095 9.52075 110.981 9.38328 110.701 9.64251C110.586 9.51159 109.903 8.73783 109.817 8.07143C109.989 7.69044 109.589 7.81351 109.191 7.93788C108.908 8.19057 108.512 8.31493 108.399 8.18925C108.399 8.18925 108.682 7.93527 108.964 7.68128C109.36 7.55559 109.361 7.5569 109.133 7.29898C109.012 7.16674 108.891 7.03451 108.891 7.03451C108.582 7.28326 108.024 6.62079 107.01 5.65326C105.715 4.40294 105.072 4.02065 104.871 4.31785C104.637 4.61505 104.479 4.49329 104.188 3.7994C103.703 2.12358 103.596 2.10917 103.229 2.31865C103.435 2.4391 103.241 2.76379 103.047 3.08848C102.656 3.73655 102.481 3.63312 102.655 2.86067C103.115 2.11441 99.5657 1.01072 99.1576 1.80673C99.0512 2.16808 99.0513 2.16809 99.2639 1.44409C99.3703 1.08405 99.1429 1.01989 98.227 0.805181C97.7684 0.701751 97.5385 0.650685 97.5385 0.650685C97.3976 1.34196 96.1653 0.858849 96.1879 0.484409C95.9991 0.0890209 95.9951 0.0877188 95.5378 0.0510611C95.1709 0.401936 94.727 0.458235 94.3614 0.396701C93.9985 0.36266 93.7101 0.188529 93.7021 -9.02017e-07C93.7021 -9.02017e-07 93.4721 0.0117728 93.2421 0.0235566C93.0334 0.412399 92.5881 0.4399 92.3621 0.45561C91.6842 0.501433 91.4622 0.519756 91.7373 0.875868C91.7892 1.25424 91.8437 1.61166 91.627 1.64963L91.5712 1.27519C91.518 0.903368 90.8347 1.03037 89.9294 1.22806C88.7942 1.4467 88.3768 1.6889 88.0139 1.39956C88.0139 1.39956 88.0139 1.39957 87.9275 1.83555C87.849 2.2689 87.6404 2.35006 87.4888 2.00312C87.1153 1.72556 86.2167 2.10394 86.0186 2.68262C85.8165 2.79259 85.6158 2.90258 85.6158 2.90258C85.0362 2.35924 84.3836 2.72582 84.6215 3.46947C84.8329 3.78368 84.8329 3.78368 84.6215 3.46947C84.4101 3.15656 84.228 3.28486 84.0472 3.41316C83.905 3.97744 83.211 4.48544 82.9704 4.19479C82.9704 4.19479 82.9705 4.19477 82.791 4.32701C82.8455 4.74989 82.7139 4.88081 82.5557 5.01435C82.4029 5.1479 82.2486 5.28276 82.355 5.69386C82.4613 6.10365 82.3164 6.23326 82.3164 6.23326C82.1675 6.36287 82.0506 5.96094 81.9442 5.54853C81.9974 4.99734 81.5188 5.415 81.6079 6.35502C81.7541 7.27803 81.7555 7.27672 81.4763 6.48464C81.3394 6.08663 81.2065 5.686 81.2078 6.21755C81.2078 6.21755 80.9406 6.48071 81.2131 6.74517L80.8183 7.13663C80.2799 7.13794 80.143 7.27409 80.0141 7.40371C80.1762 7.78338 80.1776 7.78339 79.7775 7.65246C79.497 7.39585 79.3787 7.52154 79.941 8.03214C80.1058 8.41051 79.9901 8.53227 79.5887 8.40396C79.0237 7.89598 78.9041 8.02167 79.1886 8.27435C79.3534 8.65141 79.2351 8.7758 79.2351 8.7758C79.0875 8.65666 78.7685 8.85566 78.3723 9.2013C78.1743 9.37412 77.9496 9.59799 77.7236 9.82056C77.511 10.0261 77.285 10.2461 77.059 10.466C76.9593 10.5642 77.1281 10.9308 77.3966 11.1992C77.9363 11.7347 77.6665 11.4689 77.2956 11.3C76.3943 10.576 76.2135 10.7279 77.0975 11.4689C77.7263 11.9258 77.7237 11.9297 76.9978 11.554C76.6376 11.3641 76.6416 11.3602 76.8011 11.7242C77.059 12.003 76.9566 12.0895 76.7027 11.808C76.3478 11.6142 76.0062 11.41 76.2561 11.6941C76.2561 11.6941 76.1591 11.7805 75.8201 11.5749C75.4838 11.3445 75.6432 11.6928 75.7855 12.0541C75.9703 12.8475 75.8613 12.93 75.509 12.2492C75.1394 11.5697 74.948 12.2125 75.2617 12.8763C75.5781 13.5584 75.5715 13.5637 75.3694 13.2429C75.166 12.9248 75.0703 12.9732 75.0703 12.9732C74.9759 13.0216 74.8816 13.0727 74.6915 12.7454C74.6915 12.7454 74.6077 12.7886 74.6037 13.2259C74.7752 14.0271 74.2581 13.7784 73.8832 13.1159C73.8832 13.1159 73.8832 13.1159 73.8407 13.5322C74.0215 14.2693 74.0321 14.67 73.7782 13.959C73.6506 13.6029 73.5217 13.2481 73.6506 13.6029C73.733 13.9761 73.6333 14.1175 73.4924 14.0703C73.3409 14.0009 73.1575 13.747 73.0564 13.3843C72.9541 13.0203 72.9541 13.0203 72.8597 13.0347L72.958 13.3987C73.0564 13.764 73.1548 14.1279 73.0458 14.1476C72.9381 14.1672 72.8304 14.1895 72.748 13.8216C72.5632 13.4733 72.4024 13.1224 72.4728 13.4943C72.4728 13.4943 72.3718 13.5139 72.2189 13.1656C72.1325 13.1971 72.0275 13.1945 71.8175 13.1958C71.7563 13.5715 71.533 13.5794 71.5064 13.2049C71.5064 13.2049 71.3017 13.2128 71.2113 13.5964C70.9959 13.6082 70.887 13.6173 70.8856 13.2403C70.8803 12.8619 70.8843 12.8658 70.7819 13.2468C70.7819 13.6226 70.6729 13.6082 70.5652 13.5964L70.3512 13.5715C70.3313 13.9473 70.3313 13.9473 70.2196 13.9355L69.7065 13.5126C69.3848 13.493 69.3822 13.493 69.4367 13.8726C69.5523 13.8753 69.4885 14.2628 69.3317 13.8543C69.2267 13.8229 69.0086 13.3686 68.7321 13.3031C68.3533 13.2167 68.3506 13.2233 68.2363 13.5781C68.1127 14.323 67.997 14.3021 68.1459 13.5349C68.2137 12.7362 68.1526 12.7087 68.0103 13.0583C67.787 13.3725 67.783 13.3712 67.6926 13.3319C67.8348 12.9837 67.759 12.9496 67.4174 13.2219C67.3243 13.1866 67.3244 13.1866 67.4905 12.8475L67.3217 12.7506C66.8033 13.3018 66.4231 12.6472 66.564 12.2898C66.564 12.2898 66.4816 12.2217 66.1732 12.4574C65.6401 12.9994 65.5364 12.9169 65.9951 12.3146C66.4497 11.7085 66.4563 11.7124 65.906 12.244C65.587 12.4705 65.111 12.117 65.7026 11.6077C65.9498 11.3196 66.1984 11.0329 66.1984 11.0329C65.8648 11.2372 65.7744 11.1507 65.7744 11.1507C65.5231 11.4349 65.4328 11.3471 65.1616 11.0918C64.9888 10.9439 64.3387 10.8247 64.1406 10.6009C63.9452 10.3914 63.6555 10.0837 63.8376 9.72237C63.7339 9.60585 63.6315 9.48932 63.141 9.50765C62.7542 9.6425 62.5455 9.40683 62.8299 9.15546L62.7263 9.03895C62.2384 9.0599 62.1174 8.92505 62.1174 8.92505C62.4046 8.67499 62.576 8.2953 62.1772 8.41967C61.8914 8.66974 61.7785 8.54274 61.5525 8.28744C61.5844 8.04785 60.6698 6.82634 59.4082 5.65457C59.0905 5.36523 58.7915 5.07982 58.4684 4.82452C58.1268 4.57184 57.8038 4.34535 57.5219 4.16206C56.9676 3.78631 56.5542 3.59384 56.4904 3.67894C56.4904 3.67894 56.2977 3.56504 55.9135 3.33461C55.7208 3.22202 55.3339 2.99553 55.3339 2.99553C55.5187 2.6656 55.3139 2.43778 54.9657 2.29769C54.6014 2.17725 54.083 2.17333 53.6948 2.21523C53.3386 2.47708 53.1352 2.3959 52.9252 2.31211C53.1924 1.60905 52.525 1.32232 51.972 1.6025C51.5453 2.27283 51.3473 2.22439 51.532 1.49253C51.7328 0.765905 51.2356 0.645454 50.5723 1.65487C50.2825 1.97563 50.2904 1.97694 50.1389 1.55668C50.0445 0.755429 49.8119 0.734478 49.7614 1.11154C49.437 1.83554 49.247 1.81853 49.11 1.0487C48.7511 0.259228 48.7285 0.257911 48.456 0.992392C48.1782 1.72556 47.3686 1.65618 47.1466 0.899442C46.9286 0.908607 46.7013 0.542024 46.708 0.919083C46.708 0.919083 46.708 0.919079 46.478 0.553802C46.2547 0.565585 46.0313 0.576065 46.0313 0.576065C46.0526 0.951816 46.0526 0.951814 46.0526 0.951814C45.8359 0.987163 44.4986 0.573437 42.8662 0.991082C41.5994 1.22151 40.8908 1.57238 40.5173 1.74651C40.1478 1.93897 40.1332 2.04633 40.3166 2.17857C40.8231 2.7926 40.4163 2.94838 39.8859 2.34745C39.6626 2.41814 39.091 2.2964 38.6802 2.5229C38.2734 2.74547 37.8707 2.97327 37.6686 2.65251C37.6686 2.65251 37.6686 2.65251 37.4625 2.77034C37.428 3.6292 36.4603 4.38462 35.6693 4.48543C35.3303 4.74859 35.1934 4.88737 35.1376 5.43463C35.0911 5.97927 35.0964 5.97402 34.6843 5.83394C34.5567 5.69385 34.1884 5.76193 33.9359 5.93082C33.7006 6.09578 33.5676 6.36156 33.8401 6.62603C33.8401 6.62603 33.8402 6.62603 33.4347 6.4938C33.0266 6.36287 33.1675 6.75957 33.444 7.02011C33.9943 7.54511 33.868 7.66818 32.9016 7.02404C32.346 6.50689 32.2091 6.64304 32.4882 6.89965C32.6278 7.29504 32.8072 7.66425 32.4031 7.53725C32.2848 7.66163 32.1665 7.78601 32.7315 8.2953C33.0133 8.5506 32.8963 8.67367 32.7793 8.79804C32.4962 8.54274 32.4949 8.54275 32.33 8.16569C32.4484 8.04 32.33 8.16569 32.0948 8.41445C31.9778 8.53621 31.4554 8.53751 31.1749 8.27959C30.7841 8.14081 30.6777 8.2521 31.353 8.64487C31.9193 9.15024 31.9193 9.15023 31.7039 9.37804C31.5949 9.49194 31.4872 9.60454 31.2041 9.35055C30.9223 9.09656 30.9223 9.09655 30.7083 9.32174C30.3799 9.67654 30.9289 10.7161 31.3649 11.3563C31.9179 11.8787 31.9153 11.8813 31.2599 11.461C30.9861 11.1979 30.8824 11.3 30.7774 11.4034C31.0486 11.6692 30.6737 11.5069 30.7774 11.4034C30.5062 11.1376 30.6099 11.0368 30.7123 10.9334C30.7123 10.9334 30.7123 10.9334 30.4384 10.6716C29.7884 10.2461 29.694 10.339 30.134 10.9727C30.3028 11.338 30.3001 11.3458 29.9306 11.1704C29.565 10.9845 29.2075 10.7907 29.472 11.0643C29.472 11.0643 29.2779 11.2293 28.9283 11.0303C28.7436 11.1913 28.6518 11.2712 28.9017 11.5566C29.1516 11.8407 29.0546 11.931 28.9602 12.0083C28.8645 12.0737 28.7701 12.1366 29.008 12.4325C29.2487 12.7257 29.3829 13.0923 29.1742 13.2416C29.1955 13.6933 29.1836 13.7011 28.6465 13.1552C28.4272 12.8436 28.3314 12.9195 28.2357 12.9824C28.2357 12.9824 28.1347 13.0334 27.8369 12.7624C27.5431 12.4888 27.7466 12.8082 27.9433 13.1303C28.1427 13.4524 28.3407 13.7744 28.3407 13.7744C28.2317 13.832 27.7479 13.235 27.5605 12.9051C27.0939 12.2989 27.0992 12.295 27.47 12.9549C27.6588 13.2822 27.7385 13.6697 27.3716 13.4432C27.1829 13.5519 26.9742 13.5872 26.8253 13.2507C26.5834 12.9365 26.6392 13.3162 26.6392 13.3162C26.6924 13.6985 26.5754 13.7391 26.1793 13.493C25.4747 12.875 25.5093 12.8488 25.6834 13.5898C25.7765 13.9538 25.8616 14.3204 25.5837 13.6069C25.399 13.2599 25.3963 13.6435 25.2541 14.0612C25.2155 14.4566 25.3312 15.2015 25.3936 15.5733C25.5133 16.3078 25.516 16.3405 25.1876 15.9792C25.048 15.9857 24.8686 15.6165 24.8287 15.2408C24.7861 14.8664 24.9098 14.8624 24.9098 14.8624C25.0348 14.8585 25.0348 14.8585 25.0348 14.8585C24.9842 14.4867 24.931 14.1122 24.7011 14.1175C24.5455 13.7469 24.4405 13.7509 24.4711 14.1253C24.5043 14.5011 24.5043 14.5011 24.4711 14.1253C24.3235 13.7548 24.1082 13.764 23.8875 13.7771C23.6682 13.8163 23.3332 13.7705 23.2455 13.3791C23.0355 13.3542 22.9317 13.345 22.9012 13.7208C22.8453 14.4736 22.7244 14.4618 22.7589 14.0874C22.7443 13.6828 22.3562 13.4393 22.069 13.235C21.7699 13.0491 21.4363 13.0727 21.2754 13.4236L21.0827 13.3777C21.0229 12.9247 20.5483 12.7218 20.2878 13.0321C20.2891 13.0256 20.1933 13.0177 20.0272 12.8946C20.0351 12.4521 19.966 12.4076 19.6855 12.6799C19.4037 12.9522 19.2004 13.273 19.3998 12.9509C19.5992 12.604 19.4237 12.5791 19.0767 12.278C18.7311 11.9991 18.7258 12.0004 18.5822 12.3683C18.7644 12.5123 18.7644 12.5123 18.5822 12.3683C17.9774 12.3788 18.2127 12.0855 18.4612 11.7988C19.0355 11.283 18.876 11.1665 18.0306 11.9193C17.4364 12.3998 17.2356 12.2086 17.4935 11.931C17.7514 11.6522 17.8458 11.7412 17.9375 11.8302C17.9375 11.8302 18.1901 11.5474 18.444 11.2647C18.3536 11.1796 18.3562 11.1809 18.0093 11.3733C18.0093 11.3733 17.7514 11.6522 18.0093 11.3733C18.0093 11.3733 17.9189 11.2882 17.564 11.4754C17.2077 11.6627 16.9405 11.931 16.7783 12.2989C16.6188 12.6708 16.5178 12.5739 16.4127 12.4783C16.4726 12.0148 16.7477 11.7517 17.1106 11.571C17.2063 11.66 17.4695 11.3877 17.7341 11.1141C17.8657 10.9779 17.6876 10.9426 17.3912 10.9884C17.0907 11.0146 16.6706 11.1206 16.3463 11.3301C16.0724 11.592 16.0724 11.592 16.6201 11.067C16.894 10.8038 16.6986 10.5956 16.5032 10.3861C16.3077 10.1806 16.2094 10.0746 15.9249 10.3246C15.6417 10.5786 15.3599 10.8326 15.2549 10.7135C15.1499 10.5956 15.1499 10.5956 15.2549 10.7135C15.3599 10.8326 15.0795 11.0879 14.7963 11.3419C14.7963 11.3419 14.8667 10.8483 15.0449 10.4765C15.3971 9.72761 15.4942 9.26151 15.0529 8.764C14.8255 8.5087 14.4866 8.12511 14.6554 7.74412C14.4281 7.48882 14.3138 7.3592 14.028 7.61058C14.028 7.61058 14.028 7.61057 13.7741 7.34218C13.9256 6.94941 13.6664 6.67578 13.3926 6.93894C12.9898 7.06593 13.1387 6.67055 13.0097 6.53439C13.2955 5.73314 13.2942 5.73312 12.6109 6.66792C12.3411 6.935 12.3185 7.46132 12.4408 7.59224L12.8116 7.9837L12.1669 7.85409C12.0433 7.72317 11.5275 7.73102 11.2577 7.9981C11.2577 7.9981 10.9905 8.26256 10.8642 8.14081C10.8642 8.14081 11.134 7.87373 11.4025 7.60402C11.8027 7.46394 12.0672 7.19947 12.3398 6.9337C12.7665 6.27253 12.567 5.57864 12.0473 6.12982C11.9024 5.99366 11.905 5.99498 12.0167 5.58257C12.2759 5.30633 12.123 5.1623 11.469 5.59173C10.8137 6.02116 10.6913 5.89941 11.0263 5.19242C11.1898 4.35451 10.4761 3.80724 10.2541 4.11491C9.79279 4.71978 9.31555 4.34666 9.34612 3.91461C9.37138 3.48649 9.16796 3.36473 8.77714 3.57159C8.57774 3.89366 8.57774 3.89366 8.77714 3.57159C8.98185 3.25214 8.97921 2.81092 8.58839 3.02039C8.58839 3.02039 8.39295 2.9078 8.39561 3.3477C8.39561 3.3477 8.02076 3.56636 7.64722 3.785C7.46377 3.67895 7.46377 3.67895 7.64722 3.785C7.83066 3.89236 7.64324 4.22097 7.4558 4.54828C7.25641 4.88344 6.81111 4.13325 6.85631 2.96148C6.74731 2.09608 6.74727 2.09608 6.74727 2.09608C6.59838 2.44303 6.44817 2.79128 6.44817 2.79128C6.24345 2.70487 6.03873 2.6237 6.17698 2.27152C6.31656 1.92195 6.31658 1.92065 6.10123 1.83424C6.10123 1.83424 5.88454 1.74782 5.7556 2.10262C5.49638 2.81222 5.49904 2.81224 5.42061 2.37626C5.46182 1.57501 5.22254 1.49645 4.79184 2.17463C4.5725 2.89733 4.58047 2.89864 4.57914 2.12095C4.68415 1.7596 4.56457 1.33934 4.33859 1.28435C4.33859 1.28435 4.33856 1.28436 4.24551 1.65094C4.05675 2.38018 3.85467 2.33043 3.72573 1.9141C3.81213 1.54751 3.58218 1.49252 3.08236 1.76615C2.65166 1.65618 2.44426 1.65356 2.4961 1.27781C2.60378 0.53155 2.59712 0.530236 2.28074 1.25817C2.01488 1.61035 2.02686 1.61036 1.63205 1.19795C1.45259 0.803871 1.44465 0.803869 1.20138 1.1626C1.14821 1.9141 1.12291 2.28985 1.32497 2.30687C1.52702 2.32389 1.52706 2.32389 1.49249 2.69833C1.49249 2.69833 1.2931 2.68262 1.09636 2.6656C0.899621 2.64858 0.692242 2.63287 0.293446 2.97851C-0.0987033 3.32676 -0.0920385 4.07957 0.278842 3.73131ZM3.3934 3.38436C3.47448 3.01778 3.67393 3.06492 3.87333 3.11205C4.07007 3.16049 4.07007 3.16049 3.97303 3.52446C3.97303 3.52446 3.68452 3.84129 3.49842 3.79678L3.3934 3.38436ZM5.52167 4.45139C5.62536 3.67764 5.61736 3.67502 5.99887 3.83213C6.1903 3.90937 6.38038 3.98923 6.2182 4.33094C6.2182 4.33094 6.21818 4.33094 6.03607 4.25501C6.18761 3.90937 5.85266 4.17777 5.88191 4.60065C5.72638 4.94367 5.57347 5.28931 5.57347 5.28931C5.40597 5.21992 5.38076 4.80096 5.52167 4.45139ZM12.4155 11.5173C12.7 11.2673 13.1998 11.2581 13.3075 11.3786C13.4138 11.5003 13.1307 11.7517 12.6309 11.7608C12.5232 11.6391 12.4155 11.5173 12.4155 11.5173ZM19.2509 14.632C19.4223 14.3008 19.526 14.361 19.6377 14.3963C19.6377 14.3963 19.6377 14.3963 19.4742 14.738L19.1924 15.03L19.2509 14.632ZM18.7989 16.499C18.7989 16.499 19.086 16.2096 19.3745 15.919C20.0644 14.9789 20.0378 14.9698 19.7706 15.6768C19.6297 16.0263 19.5034 16.3824 19.0781 16.6142C18.9385 16.5566 18.7989 16.499 18.7989 16.499ZM22.6925 14.8375C22.965 14.4827 22.965 14.4841 22.7855 15.2238C22.6193 15.5877 22.4545 15.9504 22.4545 15.9504C22.3176 15.9399 22.5024 15.5759 22.6925 14.8375ZM23.5366 17.185C23.5419 16.8145 23.6828 16.4322 23.6828 16.4322C23.8237 16.423 23.8237 16.423 23.8237 16.423C23.8303 16.8001 23.8357 17.1758 23.6854 17.185H23.5366ZM26.6884 17.6131C26.5342 17.6445 26.7522 17.2151 26.8985 17.1863C26.8985 17.1863 26.8984 17.1863 26.9995 17.5503C26.8453 17.5817 26.7788 17.9797 26.6884 17.6131ZM27.2494 15.5052C27.1164 15.1518 26.9862 14.7983 27.0979 14.7551C27.066 14.3649 27.3252 14.6726 27.494 15.4136C27.373 15.4594 27.373 15.4594 27.2494 15.5052ZM27.9952 14.3937L28.1041 14.3335C28.2118 14.2733 28.2118 14.2733 28.3979 14.6032L28.2849 14.6647L27.9952 14.3937ZM30.7987 14.4081C30.5581 14.1161 30.675 14.0337 30.675 14.0337C30.7907 13.942 30.8997 13.8386 31.1496 14.1253L31.2839 14.5142L30.7987 14.4081ZM32.9668 12.4443C32.5773 12.2937 32.5786 12.2937 32.7993 12.0764L33.1901 12.223C33.4692 12.4796 33.0771 12.3343 32.9668 12.4443ZM34.0249 9.68964C33.7431 9.43565 33.8587 9.31258 34.538 9.70142C34.8198 9.95541 34.8199 9.95541 34.7056 10.0772C34.7056 10.0772 34.3081 9.94494 34.0249 9.68964ZM35.1282 9.09262L34.9727 8.71033C35.0977 8.58596 35.0977 8.58595 35.0977 8.58595C35.3742 8.8491 35.6493 9.10965 35.527 9.23141L35.1282 9.09262ZM45.7123 4.3676L45.8612 3.98269C46.0433 3.97222 46.0433 3.97221 46.0433 3.97221C46.0712 4.34796 46.0978 4.72372 45.9236 4.73288L45.7123 4.3676ZM50.3144 3.91592C50.5005 3.96044 50.5005 3.96042 50.4181 4.32832C50.3303 4.6949 50.0791 5.02222 50.0791 5.02222C49.9076 4.98163 50.232 4.28382 50.3144 3.91592ZM54.0099 3.16442C54.1681 2.82009 54.5403 2.57003 54.5403 2.57003C54.7517 2.65774 54.749 2.66167 54.749 2.66167C54.5789 2.99945 54.41 3.3333 54.2093 3.2482L54.0099 3.16442ZM55.3312 6.09187L55.6968 5.89548C55.8457 6.00939 55.8457 6.00938 55.8457 6.00938C55.6237 6.31444 55.399 6.62079 55.2555 6.51213L55.3312 6.09187ZM63.9439 14.0808C64.1699 14.2549 64.1699 14.2549 63.9346 14.5521C63.7007 14.8506 63.46 14.6647 63.3404 14.5731C63.4693 14.1934 63.8336 13.9944 63.9439 14.0808ZM68.8531 16.8302C68.9143 16.4636 69.107 16.1101 69.107 16.1101C69.2466 16.1206 69.2466 16.1206 69.2466 16.1206C69.1947 16.495 69.1442 16.8682 68.9967 16.8564L68.8531 16.8302ZM78.1849 10.9544C77.9097 10.6938 78.0121 10.593 78.0121 10.593C78.1145 10.4922 78.1144 10.4922 78.3923 10.7514L78.5651 11.1128L78.1849 10.9544ZM79.1872 9.37935L79.0105 9.01276L79.1181 8.89886C79.4025 9.15154 79.6884 9.40291 79.5794 9.51681L79.1872 9.37935ZM81.798 9.9384C81.6318 9.56265 81.7475 9.44087 82.028 9.69618C82.3098 9.95148 82.3098 9.95148 82.1955 10.0719C81.9669 10.3128 81.9655 10.3141 81.798 9.9384ZM82.6249 9.08871L82.7472 8.96694C82.8708 8.84518 82.8707 8.84517 83.1446 9.10833C83.1446 9.10833 83.1446 9.10834 83.0237 9.22879L82.6249 9.08871ZM83.8851 7.88158L84.0206 7.76506C84.1536 7.64722 84.1535 7.64724 84.4128 7.92611C84.4128 7.92611 84.4128 7.9261 84.2798 8.04001L83.8851 7.88158ZM84.8009 6.13769L84.9565 6.0251C85.1134 5.91119 85.3433 6.21362 85.3433 6.21362C85.3433 6.21362 85.5719 6.51474 85.4231 6.6221C85.4231 6.6221 85.0375 6.43357 84.8009 6.13769ZM92.156 3.86224L92.1029 3.48911C92.2385 3.10289 92.3967 2.71535 92.4392 3.08979C92.4392 3.08979 92.4791 3.46424 92.3408 3.85046C92.3408 3.85046 92.2079 4.23406 92.156 3.86224ZM99.2652 2.22177C99.4766 2.27675 99.4766 2.27676 99.361 2.6368C99.2427 2.99422 98.9316 3.3032 98.7362 3.25606C98.5434 3.20762 98.7295 2.47576 99.2652 2.22177ZM116.98 15.2342C117.017 14.8585 117.053 14.4827 117.171 14.4932C117.457 13.764 117.418 14.5168 117.107 15.2434C116.912 15.9844 116.904 15.9831 116.98 15.2342ZM1.85403 9.21439L1.96574 9.24319C2.07607 9.27199 2.15983 8.90409 2.23959 8.5362C2.23959 8.5362 2.23957 8.5362 2.1186 8.50478C2.1186 8.50478 1.92316 8.84387 1.85403 9.21439ZM7.17534 2.27545L7.22454 2.70619C7.43324 2.79653 7.43322 2.79652 7.43322 2.79652C7.60204 2.45874 7.60203 2.45873 7.38934 2.36578L7.17534 2.27545ZM12.7771 12.5019C12.494 12.7532 12.6029 12.8763 12.8196 13.1211C12.9286 13.2455 13.3234 13.1067 13.3234 13.1067C13.6039 12.8475 13.4923 12.7349 13.3846 12.6132C13.4524 12.1156 13.0616 12.2479 12.7771 12.5019ZM25.0892 13.7129C25.1504 14.086 25.2115 14.4579 25.1504 14.086C25.1504 14.086 25.0892 13.7129 25.0281 13.3411C25.0281 13.3411 25.0281 13.3411 25.0892 13.7129ZM28.5229 12.7768C28.7435 13.0845 29.0706 13.3162 29.0706 13.3162L28.9442 12.9405L28.6199 12.7061L28.5229 12.7768ZM28.6864 9.73284L28.8765 9.54563C28.6053 9.27985 28.6053 9.27984 28.5109 9.3728C28.3235 9.55871 28.3221 9.56002 28.6864 9.73284ZM37.965 18.7142C38.2336 18.9826 38.3758 18.8412 37.969 18.1761C37.6965 17.9116 37.6965 17.9116 37.5609 18.0452C37.5609 18.0452 37.6952 18.4471 37.965 18.7142Z"/>
</svg>