<svg width="191" height="973" class="svg-left-bg" viewBox="0 0 191 973" fill="none"
     xmlns="http://www.w3.org/2000/svg">
    <path class="stroke"
          d="M189.551 486.348C189.551 218.299 -28.6076 1.00007 -297.727 1.00007C-566.841 1.00007 -785 218.299 -785 486.348C-785 754.396 -566.841 971.695 -297.727 971.695C-28.6076 971.695 189.551 754.396 189.551 486.348Z"
          stroke="#FF9550" stroke-width="2" stroke-miterlimit="10"/>
    <path class="stroke"
          d="M154.346 486.348C154.346 237.668 -48.0521 36.0711 -297.727 36.0711C-547.396 36.0711 -749.794 237.668 -749.794 486.348C-749.794 735.029 -547.396 936.625 -297.727 936.625C-48.0521 936.625 154.346 735.029 154.346 486.348V486.348Z"
          stroke="#FF9550" stroke-width="2" stroke-miterlimit="10"/>
    <path class="stroke"
          d="M119.135 486.347C119.135 257.034 -67.503 71.136 -297.728 71.136C-527.953 71.136 -714.586 257.034 -714.586 486.347C-714.586 715.66 -527.953 901.554 -297.728 901.554C-67.503 901.554 119.135 715.66 119.135 486.347V486.347Z"
          stroke="#FF9550" stroke-width="2" stroke-miterlimit="10"/>
    <path class="stroke"
          d="M83.925 486.348C83.925 276.402 -86.9472 106.207 -297.728 106.207C-508.503 106.207 -679.375 276.402 -679.375 486.348C-679.375 696.293 -508.503 866.484 -297.728 866.484C-86.9472 866.484 83.925 696.293 83.925 486.348V486.348Z"
          stroke="#FF9550" stroke-width="2" stroke-miterlimit="10"/>
    <path class="stroke"
          d="M48.7161 486.347C48.7161 295.769 -106.391 141.277 -297.727 141.277C-489.057 141.277 -644.164 295.769 -644.164 486.347C-644.164 676.925 -489.057 831.418 -297.727 831.418C-106.391 831.418 48.7161 676.925 48.7161 486.347V486.347Z"
          stroke="#FF9550" stroke-width="2" stroke-miterlimit="10"/>
    <path class="stroke"
          d="M13.5051 486.348C13.5051 315.142 -125.836 176.348 -297.728 176.348C-469.614 176.348 -608.955 315.142 -608.955 486.348C-608.955 657.553 -469.614 796.348 -297.728 796.348C-125.836 796.348 13.5051 657.553 13.5051 486.348Z"
          stroke="#FF9550" stroke-width="2" stroke-miterlimit="10"/>
    <path class="fill"
          d="M-296.653 1.57601C-296.53 1.57601 -296.406 1.5712 -296.278 1.5712C-27.1633 1.5712 191 218.871 191 486.919H-296.653V1.57601Z"
          fill="#FF5B2F"/>
</svg>