<svg width="93" height="185" class="svg-right-bg" viewBox="0 0 93 185" fill="none"
     xmlns="http://www.w3.org/2000/svg">
    <path d="M184.727 92.5C184.727 41.9663 143.599 0.999993 92.8632 0.999993C42.1285 0.999993 1.00017 41.9663 1.00017 92.5C1.00017 143.034 42.1285 184 92.8632 184C143.599 184 184.727 143.034 184.727 92.5Z"
          stroke="#FF9550" stroke-width="7.03855" stroke-miterlimit="10"/>
    <path d="M178.09 92.5001C178.09 45.6177 139.933 7.61176 92.863 7.61176C45.7941 7.61176 7.6371 45.6177 7.6371 92.5001C7.6371 139.383 45.7941 177.388 92.863 177.388C139.933 177.388 178.09 139.383 178.09 92.5001V92.5001Z"
          stroke="#FF9550" stroke-width="6.88033" stroke-miterlimit="10"/>
    <path d="M171.452 92.5C171.452 49.2689 136.266 14.2224 92.8631 14.2224C49.46 14.2224 14.2752 49.2689 14.2752 92.5C14.2752 135.731 49.46 170.777 92.8631 170.777C136.266 170.777 171.452 135.731 171.452 92.5V92.5Z"
          stroke="#FF9550" stroke-width="6.72211" stroke-miterlimit="10"/>
    <path d="M164.814 92.5C164.814 52.9201 132.6 20.8341 92.8632 20.8341C53.1268 20.8341 20.9131 52.9201 20.9131 92.5C20.9131 132.08 53.1268 164.165 92.8632 164.165C132.6 164.165 164.814 132.08 164.814 92.5V92.5Z"
          stroke="#FF9550" stroke-width="6.56388" stroke-miterlimit="10"/>
    <path d="M158.176 92.5C158.176 56.5714 128.935 27.4457 92.8633 27.4457C56.7927 27.4457 27.5512 56.5714 27.5512 92.5C27.5512 128.429 56.7927 157.554 92.8633 157.554C128.935 157.554 158.176 128.429 158.176 92.5V92.5Z"
          stroke="#FF9550" stroke-width="6.40566" stroke-miterlimit="10"/>
    <path d="M151.538 92.5C151.538 60.2236 125.269 34.0574 92.8632 34.0574C60.4584 34.0574 34.1891 60.2236 34.1891 92.5C34.1891 124.776 60.4584 150.943 92.8632 150.943C125.269 150.943 151.538 124.776 151.538 92.5Z"
          stroke="#FF9550" stroke-width="6.24744" stroke-miterlimit="10"/>
    <path d="M144.901 92.5C144.901 63.8748 121.603 40.669 92.8632 40.669C64.1242 40.669 40.8261 63.8748 40.8261 92.5C40.8261 121.125 64.1242 144.331 92.8632 144.331C121.603 144.331 144.901 121.125 144.901 92.5V92.5Z"
          stroke="#FF9550" stroke-width="6.08921" stroke-miterlimit="10"/>
    <path d="M138.263 92.5C138.263 67.5261 117.937 47.2807 92.8633 47.2807C67.7901 47.2807 47.4641 67.5261 47.4641 92.5C47.4641 117.474 67.7901 137.719 92.8633 137.719C117.937 137.719 138.263 117.474 138.263 92.5V92.5Z"
          stroke="#FF9550" stroke-width="5.93099" stroke-miterlimit="10"/>
    <path d="M131.625 92.5C131.625 71.1774 114.272 53.8915 92.8633 53.8915C71.4558 53.8915 54.102 71.1774 54.102 92.5C54.102 113.823 71.4558 131.108 92.8633 131.108C114.272 131.108 131.625 113.823 131.625 92.5V92.5Z"
          stroke="#FF9550" stroke-width="5.77277" stroke-miterlimit="10"/>
    <path d="M124.987 92.5C124.987 74.8287 110.605 60.5031 92.8632 60.5031C75.1216 60.5031 60.7399 74.8287 60.7399 92.5C60.7399 110.171 75.1216 124.497 92.8632 124.497C110.605 124.497 124.987 110.171 124.987 92.5Z"
          stroke="#FF9550" stroke-width="5.61454" stroke-miterlimit="10"/>
    <path d="M118.349 92.5C118.349 78.4799 106.939 67.1147 92.8633 67.1147C78.7884 67.1147 67.3771 78.4799 67.3771 92.5C67.3771 106.52 78.7884 117.885 92.8633 117.885C106.939 117.885 118.349 106.52 118.349 92.5V92.5Z"
          stroke="#FF9550" stroke-width="5.45632" stroke-miterlimit="10"/>
    <path d="M111.712 92.5C111.712 82.1312 103.273 73.7264 92.8631 73.7264C82.454 73.7264 74.0149 82.1312 74.0149 92.5C74.0149 102.869 82.454 111.274 92.8631 111.274C103.273 111.274 111.712 102.869 111.712 92.5V92.5Z"
          stroke="#FF9550" stroke-width="5.2981" stroke-miterlimit="10"/>
    <path d="M105.074 92.4999C105.074 85.7834 99.6072 80.3371 92.863 80.3371C86.1197 80.3371 80.6527 85.7834 80.6527 92.4999C80.6527 99.2165 86.1197 104.662 92.863 104.662C99.6072 104.662 105.074 99.2165 105.074 92.4999Z"
          stroke="#FF9550" stroke-width="5.13987" stroke-miterlimit="10"/>
    <path d="M98.4364 92.5C98.4364 89.4346 95.9416 86.9488 92.8632 86.9488C89.7856 86.9488 87.2908 89.4346 87.2908 92.5C87.2908 95.5653 89.7856 98.0511 92.8632 98.0511C95.9416 98.0511 98.4364 95.5653 98.4364 92.5Z"
          stroke="#FF9550" stroke-width="4.98165" stroke-miterlimit="10"/>
</svg>