<?xml version="1.0" encoding="utf-8"?>
<svg width="200" height="200" viewBox="0 0 200 200" fill="none" xmlns="http://www.w3.org/2000/svg">
<g clip-path="url(#clip0)">
<path d="M154.839 161.471C154.839 154.217 149.951 147.82 142.951 145.909L119.355 139.47V129.913C123.359 125.364 125.806 119.419 125.806 112.9V99.9968C125.806 85.7674 114.229 74.1904 100 74.1904C85.7705 74.1904 74.1936 85.7674 74.1936 99.9968V112.9C74.1936 119.419 76.6413 125.364 80.6452 129.913V139.47L57.0486 145.906C50.0488 147.817 45.1613 154.217 45.1613 161.471V193.548H0V200H200V193.548H154.839V161.471ZM100 150.707L87.0968 140.384V135.216C90.8975 137.426 95.2968 138.71 100 138.71C104.703 138.71 109.103 137.426 112.903 135.219V140.387L100 150.707ZM94.7329 154.758L88.9097 159.126L85.5674 147.426L94.7329 154.758ZM114.433 147.423L111.09 159.123L105.267 154.755L114.433 147.423ZM80.6452 100C80.6452 89.3255 89.3255 80.6451 100 80.6451C110.674 80.6451 119.355 89.3255 119.355 100V112.903C119.355 123.578 110.674 132.258 100 132.258C89.3255 132.258 80.6452 123.578 80.6452 112.903V100ZM51.6129 161.471C51.6129 157.116 54.5457 153.278 58.745 152.133L78.6511 146.703L85.2807 169.909L100 158.871L114.716 169.909L121.346 146.703L141.252 152.133C145.454 153.278 148.387 157.116 148.387 161.471V193.548H132.258V164.516H125.806V193.548H74.1936V164.516H67.7419V193.548H51.6129V161.471Z" fill="#0351C1"/>
<path d="M25.5781 122.581H32.0297V129.032H25.5781V122.581Z" fill="#0351C1"/>
<path d="M38.7097 77.4193H77.4193V38.7097C77.4193 17.3639 60.0554 0 38.7097 0C17.3639 0 0 17.3639 0 38.7097C0 60.0554 17.3639 77.4193 38.7097 77.4193ZM38.7097 6.45161C56.4973 6.45161 70.9677 20.9221 70.9677 38.7097V70.9677H38.7097C20.9221 70.9677 6.45161 56.4973 6.45161 38.7097C6.45161 20.9221 20.9221 6.45161 38.7097 6.45161Z" fill="#0351C1"/>
<path d="M199.999 38.7097C199.999 17.3639 182.636 0 161.29 0C139.944 0 122.58 17.3639 122.58 38.7097V77.4193H161.29C182.636 77.4193 199.999 60.0554 199.999 38.7097ZM129.032 38.7097C129.032 20.9221 143.502 6.45161 161.29 6.45161C179.077 6.45161 193.548 20.9221 193.548 38.7097C193.548 56.4973 179.077 70.9677 161.29 70.9677H129.032V38.7097Z" fill="#0351C1"/>
<path d="M168.293 60.161C169.397 59.8003 170.468 59.3545 171.503 58.8253L175.612 60.8839L183.464 53.0289L181.409 48.9258C181.938 47.8909 182.38 46.8167 182.741 45.7126L187.096 44.2619V33.1606L182.741 31.7099C182.38 30.6058 181.935 29.5315 181.409 28.4967L183.464 24.3936L175.612 16.5354L171.503 18.594C170.468 18.0648 169.397 17.6191 168.293 17.2584L166.842 12.9032H155.741L154.29 17.2584C153.186 17.6191 152.115 18.0648 151.08 18.594L146.967 16.5354L139.116 24.3904L141.171 28.4935C140.642 29.5284 140.199 30.6026 139.839 31.7068L135.483 33.1574V44.2587L139.839 45.7094C140.199 46.8135 140.645 47.8878 141.171 48.9226L139.116 53.0257L146.967 60.8808L151.077 58.8221C152.112 59.3514 153.183 59.7971 154.287 60.1578L155.738 64.513H166.839L168.293 60.161ZM163.281 54.7993L162.189 58.0645H160.387L159.296 54.7993L157.551 54.3835C155.894 53.9897 154.312 53.3329 152.847 52.4319L151.319 51.49L148.235 53.0352L146.961 51.7578L148.503 48.6769L147.561 47.149C146.66 45.6874 146.003 44.1028 145.61 42.4458L145.197 40.7006L141.935 39.609V37.8071L145.2 36.7156L145.613 34.9704C146.01 33.3134 146.663 31.7288 147.564 30.2671L148.506 28.7393L146.967 25.6615L148.242 24.3841L151.326 25.9293L152.854 24.9874C154.318 24.0864 155.9 23.4296 157.557 23.0358L159.302 22.62L160.39 19.3548H162.192L163.284 22.62L165.029 23.0358C166.686 23.4296 168.268 24.0864 169.732 24.9874L171.26 25.9293L174.344 24.3841L175.619 25.6615L174.07 28.7424L175.012 30.2703C175.913 31.732 176.57 33.3165 176.964 34.9735L177.376 36.7187L180.645 37.8103V39.6122L177.38 40.7037L176.967 42.4489C176.57 44.1059 175.916 45.6905 175.015 47.1522L174.073 48.68L175.615 51.7609L174.341 53.0383L171.257 51.4932L169.729 52.4351C168.264 53.336 166.683 53.9929 165.026 54.3866L163.281 54.7993Z" fill="#0351C1"/>
<path d="M161.291 29.0323C155.956 29.0323 151.613 33.3748 151.613 38.7097C151.613 44.0446 155.956 48.3871 161.291 48.3871C166.626 48.3871 170.968 44.0446 170.968 38.7097C170.968 33.3748 166.626 29.0323 161.291 29.0323ZM161.291 41.9355C159.514 41.9355 158.065 40.4896 158.065 38.7097C158.065 36.9298 159.514 35.4839 161.291 35.4839C163.067 35.4839 164.517 36.9298 164.517 38.7097C164.517 40.4896 163.067 41.9355 161.291 41.9355Z" fill="#0351C1"/>
<path d="M190.323 83.871H151.613C146.278 83.871 141.936 88.2135 141.936 93.5484V132.258C141.936 137.593 146.278 141.935 151.613 141.935H190.323C195.658 141.935 200 137.593 200 132.258V93.5484C200 88.2135 195.658 83.871 190.323 83.871ZM193.548 132.258C193.548 134.038 192.099 135.484 190.323 135.484H151.613C149.836 135.484 148.387 134.038 148.387 132.258V93.5484C148.387 91.7685 149.836 90.3226 151.613 90.3226H190.323C192.099 90.3226 193.548 91.7685 193.548 93.5484V132.258Z" fill="#0351C1"/>
<path d="M181.038 105.942C179.953 104.857 178.193 104.857 177.107 105.942L169.719 113.331L166.283 109.895C165.198 108.81 163.438 108.81 162.352 109.895C161.267 110.981 161.267 112.74 162.352 113.826L167.753 119.227C168.296 119.77 169.007 120.041 169.718 120.041C170.43 120.041 171.141 119.77 171.684 119.227L181.038 109.873C182.123 108.788 182.123 107.028 181.038 105.942Z" fill="#0351C1"/>
<path d="M9.67742 141.935H48.3871C53.722 141.935 58.0645 137.593 58.0645 132.258V93.5484C58.0645 88.2135 53.722 83.871 48.3871 83.871H9.67742C4.34255 83.871 0 88.2135 0 93.5484V132.258C0 137.593 4.34255 141.935 9.67742 141.935ZM6.45161 93.5484C6.45161 91.7685 7.90071 90.3226 9.67742 90.3226H48.3871C50.1638 90.3226 51.6129 91.7685 51.6129 93.5484V132.258C51.6129 134.038 50.1638 135.484 48.3871 135.484H9.67742C7.90071 135.484 6.45161 134.038 6.45161 132.258V93.5484Z" fill="#0351C1"/>
<path d="M29.0325 103.226C35.0809 103.226 40.7686 105.5 45.0387 109.625L49.523 104.987C44.0416 99.6897 36.7646 96.7742 29.0325 96.7742C21.3003 96.7742 14.0233 99.6897 8.54199 104.99L13.0263 109.629C17.2964 105.5 22.9841 103.226 29.0325 103.226Z" fill="#0351C1"/>
<path d="M17.8125 113.673L22.0023 118.58C25.7069 115.419 32.357 115.419 36.0616 118.58L40.2514 113.673C37.2319 111.097 33.2485 109.677 29.0319 109.677C24.8154 109.677 20.832 111.097 17.8125 113.673Z" fill="#0351C1"/>
<path d="M38.7098 64.5161C52.9392 64.5161 64.5162 52.9391 64.5162 38.7097C64.5162 24.4802 52.9392 12.9032 38.7098 12.9032C24.4803 12.9032 12.9033 24.4802 12.9033 38.7097C12.9033 52.9391 24.4803 64.5161 38.7098 64.5161ZM19.3549 38.7097C19.3549 35.9422 19.9487 33.3134 20.9993 30.9287C22.3965 31.7556 24.1448 32.6187 26.2933 33.3905C25.9877 35.0901 25.8065 36.8684 25.8065 38.7097C25.8065 40.5509 25.9877 42.3292 26.2933 44.0288C24.1448 44.8006 22.3965 45.6606 20.9993 46.4906C19.9487 44.1059 19.3549 41.4771 19.3549 38.7097ZM38.7098 35.4838C40.948 35.4838 42.9515 35.2618 44.8416 34.9578C45.0385 36.1706 45.1614 37.4196 45.1614 38.7097C45.1614 39.9965 45.0385 41.2456 44.8416 42.4615C42.9484 42.1575 40.948 41.9355 38.7098 41.9355C36.4716 41.9355 34.468 42.1575 32.5779 42.4615C32.381 41.2487 32.2582 39.9997 32.2582 38.7097C32.2582 37.4228 32.381 36.1737 32.5779 34.9578C34.4712 35.2618 36.4716 35.4838 38.7098 35.4838ZM34.3735 28.7393C35.6903 25.5749 37.3709 22.9681 38.7161 21.1583C40.0612 22.9618 41.745 25.5639 43.0586 28.7361C41.7103 28.9125 40.277 29.0322 38.7098 29.0322C37.1488 29.0322 35.7202 28.9125 34.3735 28.7393ZM58.0646 38.7097C58.0646 41.4771 57.4708 44.1059 56.4202 46.4906C55.0231 45.6637 53.2747 44.8006 51.1263 44.0288C51.4319 42.3292 51.613 40.5509 51.613 38.7097C51.613 36.8684 51.4319 35.0901 51.1263 33.3905C53.2747 32.6187 55.0231 31.7587 56.4202 30.9287C57.4708 33.3134 58.0646 35.9422 58.0646 38.7097ZM43.046 48.68C41.7292 51.8444 40.0486 54.4512 38.7035 56.261C37.3583 54.4575 35.6746 51.8554 34.3609 48.6832C35.7092 48.5068 37.1425 48.3871 38.7098 48.3871C40.2707 48.3871 41.6993 48.5068 43.046 48.68ZM24.5449 51.8586C25.4805 51.3199 26.6382 50.7544 28.0385 50.2315C28.9426 52.5863 30.0199 54.6969 31.1068 56.5067C28.6008 55.4293 26.3767 53.829 24.5449 51.8586ZM46.3096 56.5067C47.3965 54.6969 48.4738 52.5863 49.3779 50.2315C50.775 50.7576 51.9359 51.3231 52.8715 51.8586C51.0428 53.829 48.8188 55.4293 46.3096 56.5067ZM52.8747 25.5607C51.939 26.0994 50.7813 26.6649 49.3811 27.1878C48.477 24.833 47.3996 22.7224 46.3128 20.9126C48.8188 21.99 51.0428 23.5903 52.8747 25.5607ZM31.1099 20.9126C30.0231 22.7224 28.9457 24.833 28.0416 27.1878C26.6413 26.6649 25.4837 26.0994 24.5449 25.5607C26.3767 23.5903 28.6008 21.99 31.1099 20.9126Z" fill="#0351C1"/>
</g>
<defs>
<clipPath id="clip0">
<rect width="200" height="200" fill="white"/>
</clipPath>
</defs>
</svg>
