<?xml version="1.0" encoding="utf-8"?>
<svg width="200" height="200" viewBox="0 0 200 200" fill="none" xmlns="http://www.w3.org/2000/svg">
<g clip-path="url(#clip0)">
<path d="M197.153 52.5182C197.152 52.5182 197.152 52.5182 197.152 52.5182L197.145 52.5115L184.236 50.6697C182.421 50.4113 181.16 48.7308 181.418 46.9164C181.542 46.0444 182.008 45.2579 182.713 44.7294L193.146 36.9041C194.613 35.8044 194.91 33.7245 193.81 32.2581L181.863 16.3288C180.763 14.8623 178.683 14.5653 177.217 15.665L166.787 23.4903C165.326 24.5983 163.245 24.3129 162.137 22.8527C161.599 22.1438 161.368 21.2482 161.497 20.3675L163.342 7.45811C163.602 5.64366 162.342 3.96238 160.528 3.70186C160.527 3.70186 160.526 3.70145 160.524 3.70145L140.825 0.887271C139.011 0.62676 137.329 1.88617 137.068 3.70062C137.068 3.70104 137.068 3.70104 137.068 3.70145L135.223 16.6108C134.965 18.4253 133.284 19.6868 131.47 19.4283C130.598 19.3043 129.811 18.8384 129.283 18.1341L121.461 7.70037C120.361 6.23396 118.281 5.93695 116.815 7.03665L106.843 14.5201C102.331 14.0406 97.7811 14.0406 93.2695 14.5201C63.7231 17.8972 40.553 41.4601 37.6728 71.0592C37.5832 71.9984 37.55 72.9309 37.5036 73.8634H36.508C34.9333 73.8663 33.5773 74.9756 33.2624 76.5183L30.9692 87.4233L21.7833 81.0881C20.465 80.1783 18.6846 80.3405 17.5521 81.473L7.5963 91.4288C6.46548 92.5609 6.3037 94.3388 7.21134 95.6567L13.5167 104.826L2.60843 107.119C1.0827 107.454 -0.00331102 108.806 7.5848e-06 110.368V123.643C-0.000822067 125.212 1.09888 126.568 2.63498 126.891L13.5432 129.185L7.23789 138.354C6.33025 139.672 6.49203 141.45 7.62285 142.582L17.5787 152.538C18.7111 153.67 20.4916 153.832 21.8099 152.923L30.9792 146.601L33.2724 157.509C33.5872 159.052 34.9433 160.161 36.518 160.164H49.7924C51.3621 160.165 52.7177 159.065 53.0413 157.529L55.3345 146.621L64.5038 152.926C65.8217 153.834 67.5996 153.672 68.7317 152.541L73.8855 147.371V156.829C73.9004 161.55 76.4296 165.905 80.5227 168.258V186.696C80.5227 194.027 86.4659 199.971 93.7971 199.971H107.072C114.403 199.971 120.346 194.027 120.346 186.696V168.258C124.439 165.905 126.968 161.55 126.983 156.829V143.694C127.073 138.167 129.965 133.065 134.659 130.147C137.413 128.36 140.025 126.363 142.471 124.174L138.044 119.229C135.856 121.19 133.518 122.978 131.052 124.575C124.462 128.711 120.429 135.914 120.346 143.694V156.829C120.346 160.494 117.375 163.466 113.709 163.466H87.1599C83.4941 163.466 80.5227 160.494 80.5227 156.829V143.418C80.4459 135.786 76.4756 128.722 69.9961 124.688C43.6932 108.16 35.7684 73.4399 52.2959 47.137C62.5504 30.8174 80.4468 20.8844 99.7208 20.8155C99.6715 20.9337 99.6279 21.0544 99.5914 21.1772C99.4682 22.0484 99.6964 22.9332 100.225 23.6363L108.047 34.0667C108.872 35.1341 108.951 36.6 108.246 37.7504C107.568 38.9077 106.256 39.5391 104.928 39.3466L92.0183 37.5015C90.2039 37.2414 88.5226 38.5012 88.2621 40.3152C88.2621 40.3165 88.2617 40.3177 88.2617 40.319L85.4442 60.0282C85.1841 61.8422 86.4439 63.5239 88.2579 63.7844C88.2592 63.7844 88.2604 63.7848 88.2617 63.7848L101.171 65.63C102.986 65.8884 104.247 67.5689 103.989 69.3833C103.865 70.2553 103.399 71.0418 102.694 71.5703L92.2639 79.3922C90.7975 80.4919 90.5005 82.5719 91.6002 84.0383L103.547 99.9676C104.647 101.434 106.727 101.731 108.193 100.631L118.627 92.8094C120.095 91.7117 122.175 92.0117 123.272 93.4797C123.797 94.182 124.023 95.064 123.9 95.9322L122.058 108.842C121.798 110.656 123.057 112.338 124.872 112.598C124.872 112.598 124.872 112.598 124.873 112.598L144.585 115.416C144.74 115.436 144.897 115.446 145.053 115.446C146.705 115.448 148.107 114.234 148.342 112.598L150.184 99.6889C150.442 97.8744 152.122 96.6129 153.937 96.8713C154.809 96.9954 155.595 97.4612 156.124 98.1656L163.949 108.596C165.049 110.062 167.129 110.359 168.595 109.26L184.525 97.3127C185.991 96.213 186.288 94.1331 185.188 92.6667L177.366 82.2363C176.545 81.1673 176.466 79.7038 177.167 78.5526C177.831 77.3799 179.155 76.7444 180.486 76.9597L193.395 78.8015C195.209 79.062 196.891 77.8022 197.152 75.9882C197.152 75.9878 197.152 75.9878 197.152 75.9874L199.966 56.2748C200.227 54.4604 198.967 52.7787 197.153 52.5182ZM87.1599 170.103H113.709V176.74H87.1599V170.103ZM87.1599 183.377H113.709V186.696C113.709 190.362 110.737 193.333 107.072 193.333H93.7971C90.1313 193.333 87.1599 190.362 87.1599 186.696V183.377ZM60.7405 126.148C62.5524 127.63 64.4457 129.01 66.412 130.28C69.5476 132.261 71.908 135.259 73.099 138.772L65.9806 145.877L59.0878 141.125C56.0695 139.045 51.9366 139.806 49.8563 142.824C49.3576 143.548 49.0075 144.364 48.8267 145.223L47.0877 153.51H39.1994L37.4604 145.237C36.7055 141.65 33.1857 139.354 29.5987 140.109C28.7387 140.29 27.9232 140.64 27.1993 141.138L20.3032 145.877L14.2567 139.844L19.0057 132.955C21.0877 129.938 20.3294 125.804 17.3124 123.722C16.5881 123.222 15.7717 122.871 14.9105 122.69L6.63722 120.948V113.063L14.9105 111.321C18.4963 110.56 20.7869 107.037 20.0266 103.451C19.8461 102.6 19.5006 101.793 19.009 101.076L14.2567 94.1667L20.3032 88.1335L27.2026 92.8857C30.2221 94.9636 34.3551 94.2003 36.4329 91.1808C36.9307 90.4577 37.28 89.643 37.4604 88.7839L38.0412 86.0228C38.573 89.8467 39.4537 93.6133 40.6729 97.2762C29.7534 98.5779 21.9567 108.486 23.2585 119.405C24.5602 130.325 34.4679 138.121 45.3874 136.82C51.9607 136.035 57.7147 132.036 60.7405 126.148ZM55.5867 121.472C53.1085 128.36 45.5159 131.935 38.6278 129.458C31.7396 126.979 28.1646 119.387 30.6424 112.499C32.5381 107.229 37.5413 103.719 43.1415 103.731C43.1846 103.731 43.2244 103.731 43.2676 103.731C46.3195 110.311 50.4872 116.313 55.5867 121.472ZM191.032 71.7528L181.408 70.3789C175.965 69.6015 170.922 73.3843 170.145 78.8272C169.772 81.4411 170.452 84.0964 172.037 86.2087L177.867 93.9842L167.248 101.949L161.414 94.1766C158.115 89.7774 151.875 88.8851 147.476 92.1838C145.364 93.7676 143.967 96.1259 143.593 98.7397L142.249 108.377L129.11 106.499L130.484 96.8747C131.264 91.4317 127.483 86.3875 122.04 85.6084C119.425 85.2338 116.768 85.9141 114.655 87.4996L106.879 93.3304L98.9144 82.7108L106.687 76.8767C111.086 73.578 111.978 67.3378 108.679 62.939C107.096 60.8267 104.737 59.43 102.124 59.0558L92.4995 57.6819L94.3779 44.5435L104.002 45.9175C109.445 46.6969 114.489 42.9162 115.268 37.4733C115.643 34.8578 114.962 32.2012 113.377 30.0877L107.526 22.3056L118.146 14.3409L123.98 22.1164C127.279 26.5156 133.519 27.4079 137.918 24.1092C140.03 22.5254 141.427 20.1671 141.801 17.5533L143.175 7.92936L156.313 9.80437L154.939 19.4283C154.162 24.8717 157.944 29.9143 163.387 30.6917C166.001 31.065 168.657 30.3847 170.769 28.8001L178.544 22.9693L186.509 33.5888L178.734 39.4229C174.334 42.7216 173.442 48.9619 176.741 53.3607C178.325 55.473 180.683 56.8697 183.297 57.2439L192.921 58.6178L191.032 71.7528Z" fill="#0351C1"/>
<path d="M142.7 31.5977C128.038 31.5977 116.151 43.4841 116.151 58.1465C116.151 72.809 128.038 84.6954 142.7 84.6954C157.363 84.6954 169.249 72.809 169.249 58.1465C169.232 43.4907 157.356 31.6138 142.7 31.5977ZM142.7 78.0582C131.703 78.0582 122.789 69.1436 122.789 58.1465C122.789 47.1495 131.703 38.2349 142.7 38.2349C153.697 38.2349 162.612 47.1495 162.612 58.1465C162.599 69.1382 153.692 78.0453 142.7 78.0582Z" fill="#0351C1"/>
<path d="M103.753 146.873H97.1162V156.829H103.753V146.873Z" fill="#0351C1"/>
<path d="M85.9193 114.281C65.4331 106.278 55.3134 83.183 63.3166 62.6968C66.4179 54.7587 71.9836 48.0248 79.1958 43.485L75.6482 37.8699C53.9378 51.5471 47.4255 80.2344 61.1027 101.945C66.3996 110.353 74.2531 116.841 83.5099 120.457C91.7036 123.596 97.1142 131.461 97.1162 140.236H103.753C103.764 128.723 96.6695 118.399 85.9193 114.281Z" fill="#0351C1"/>
<path d="M186.719 123.643H163.488V130.28H186.719V123.643Z" fill="#0351C1"/>
<path d="M162.294 141.002L158.046 146.102L177.959 162.692L182.207 157.593L162.294 141.002Z" fill="#0351C1"/>
<path d="M150.213 150.191H143.576V173.422H150.213V150.191Z" fill="#0351C1"/>
<path d="M29.9357 50.7306L3.38867 57.3667L4.99739 63.8022L31.5444 57.1662L29.9357 50.7306Z" fill="#0351C1"/>
<path d="M12.757 18.0695L8.90137 23.4675L32.1298 40.0588L35.9854 34.6608L12.757 18.0695Z" fill="#0351C1"/>
<path d="M43.7661 0.027715L37.3359 1.67175L44.1233 28.2186L50.5535 26.5745L43.7661 0.027715Z" fill="#0351C1"/>
</g>
<defs>
<clipPath id="clip0">
<rect width="200" height="200" fill="white"/>
</clipPath>
</defs>
</svg>
