<?xml version="1.0" encoding="utf-8"?>
<svg width="200" height="200" viewBox="0 0 200 200" fill="none" xmlns="http://www.w3.org/2000/svg">
<g clip-path="url(#clip0)">
<path d="M72.1776 40.8725L68.2371 37.4804V35.8529L72.1776 32.4608C73.0963 31.6679 73.5121 30.4392 73.2646 29.2513C72.6951 26.5829 71.8234 23.9883 70.6671 21.5167C70.1671 20.4379 69.1301 19.7071 67.9459 19.5992L62.8109 19.1304C62.4626 18.6292 62.1017 18.1408 61.7284 17.6654L62.8367 12.825C63.1076 11.6425 62.7155 10.4063 61.813 9.59583C59.7613 7.75583 57.5134 6.14667 55.1105 4.7975C54.0826 4.22292 52.8284 4.23292 51.8096 4.82375L47.3909 7.38875C46.7951 7.18375 46.1834 6.99167 45.5484 6.81583L43.5076 2.02417C42.9826 0.796667 41.7763 0 40.4409 0H32.8951C31.5596 0 30.353 0.796667 29.8288 2.02458L27.788 6.81625C27.1534 6.99208 26.5413 7.18417 25.9455 7.38917L21.528 4.82417C20.5084 4.23667 19.2559 4.22667 18.2271 4.79792C15.8246 6.14792 13.5771 7.75708 11.5246 9.59625C10.6205 10.4058 10.228 11.6425 10.4992 12.8254L11.6076 17.6625C11.2346 18.1379 10.8734 18.6292 10.5251 19.1304L5.39006 19.5992C4.2059 19.7071 3.16881 20.4375 2.66881 21.5167C1.51215 23.9888 0.640481 26.585 0.0713146 29.2542C-0.175769 30.4413 0.240481 31.6688 1.1584 32.4604L5.09881 35.8525V37.48L1.1584 40.8721C0.239648 41.665 -0.176185 42.8937 0.0713146 44.0817C0.640898 46.75 1.51256 49.3446 2.66881 51.8163C3.16881 52.895 4.2059 53.6258 5.39006 53.7338L10.5251 54.2025C10.8734 54.7038 11.2342 55.1921 11.6076 55.6675L10.4992 60.5079C10.228 61.6908 10.6205 62.9275 11.5246 63.7371C13.5755 65.5779 15.8238 67.1858 18.2288 68.5321C19.2546 69.1067 20.508 69.0967 21.5246 68.5058L25.9451 65.9442C26.5409 66.1492 27.1526 66.3413 27.7876 66.5171L29.8284 71.3088C30.353 72.5367 31.5592 73.3333 32.8946 73.3333H40.4401C41.7755 73.3333 42.9821 72.5367 43.5063 71.3088L45.5471 66.5171C46.1817 66.3413 46.7938 66.1492 47.3896 65.9442L51.8071 68.5092C52.9413 69.1646 54.3538 69.0971 55.4205 68.3367L61.5271 63.965C62.6209 63.1821 63.1367 61.8188 62.8359 60.5079L61.7276 55.6708C62.1001 55.1954 62.4617 54.7042 62.8101 54.2029L67.9451 53.7342C69.1292 53.6263 70.1663 52.8958 70.6663 51.8167C71.8226 49.3454 72.6942 46.7504 73.2638 44.0821C73.5121 42.8942 73.0959 41.6654 72.1776 40.8725ZM62.7276 41.5333L66.2759 44.5867C66.0205 45.4817 65.7159 46.3779 65.363 47.2754L60.6038 47.7083C59.5601 47.805 58.6226 48.3858 58.0713 49.2775C57.3476 50.4529 56.5255 51.5646 55.6138 52.6012C54.9021 53.4067 54.6226 54.5063 54.8634 55.5537L55.8434 59.8342L53.293 61.6604L49.3655 59.3817C48.4651 58.8629 47.3755 58.7908 46.4146 59.1863C45.1109 59.7183 43.7646 60.1388 42.3896 60.4429C41.3476 60.6804 40.4826 61.4029 40.0638 62.3863L38.2388 66.6667H35.0976L33.273 62.3863C32.8559 61.4017 31.9901 60.6779 30.9471 60.4429C29.5726 60.1383 28.2259 59.7179 26.9221 59.1863C25.9626 58.7871 24.8717 58.8596 23.973 59.3817L19.8813 61.7517C19.0496 61.2179 18.2396 60.6396 17.4513 60.0167L18.4734 55.5537C18.713 54.5079 18.4351 53.4104 17.7263 52.6046C16.8138 51.5671 15.9905 50.4542 15.2655 49.2779C14.7142 48.3867 13.7767 47.8054 12.733 47.7088L7.97381 47.2758C7.62048 46.3775 7.31631 45.4813 7.0609 44.5871L10.6092 41.5338C11.3434 40.8996 11.7659 39.9779 11.7663 39.0079V34.3263C11.7659 33.3563 11.3434 32.4342 10.6092 31.8L7.0609 28.7433C7.31631 27.8513 7.6209 26.9563 7.97381 26.0579L12.7326 25.625C13.7763 25.5283 14.7138 24.9475 15.2651 24.0558C15.9888 22.8804 16.8109 21.7688 17.7226 20.7321C18.4342 19.9267 18.7138 18.8271 18.473 17.7796L17.4509 13.3167C18.2371 12.695 19.0476 12.1154 19.8826 11.5783L23.9709 13.9513C24.8717 14.4683 25.9609 14.5404 26.9217 14.1467C28.2255 13.6146 29.5717 13.1942 30.9467 12.89C31.9888 12.6525 32.8538 11.93 33.2726 10.9467L35.0976 6.66667H38.2388L40.0634 10.9471C40.4801 11.9317 41.3463 12.6554 42.3892 12.8904C43.7638 13.195 45.1105 13.615 46.4142 14.1471C47.3746 14.5442 48.4655 14.4721 49.3651 13.9517L53.4538 11.5788C54.2871 12.1158 55.0976 12.6954 55.8855 13.3171L54.8634 17.78C54.6238 18.8258 54.9017 19.9233 55.6105 20.7292C56.523 21.7667 57.3463 22.8796 58.0713 24.0558C58.6226 24.9471 59.5601 25.5283 60.6038 25.625L65.363 26.0579C65.7163 26.9563 66.0205 27.8525 66.2759 28.7467L62.7276 31.8C61.9934 32.4342 61.5709 33.3558 61.5705 34.3258V39.0067C61.5709 39.9771 61.9934 40.8992 62.7276 41.5333Z" fill="#0351C1"/>
<path d="M36.6676 20C27.4631 20 20.001 27.4621 20.001 36.6667C20.001 45.8713 27.4631 53.3333 36.6676 53.3333C45.8722 53.3333 53.3343 45.8713 53.3343 36.6667C53.3235 27.4663 45.8681 20.0108 36.6676 20ZM36.6676 46.6667C31.1447 46.6667 26.6676 42.1896 26.6676 36.6667C26.6676 31.1438 31.1447 26.6667 36.6676 26.6667C42.1906 26.6667 46.6676 31.1438 46.6676 36.6667C46.6618 42.1871 42.1881 46.6608 36.6676 46.6667Z" fill="#0351C1"/>
<path d="M36.6687 166.667C36.6682 166.667 36.6674 166.667 36.667 166.667H10.0003C8.15991 166.666 6.66741 168.158 6.66699 169.998C6.66699 169.999 6.66699 170 6.66699 170V196.667C6.66658 198.507 8.15824 200 9.99866 200C9.99907 200 9.99991 200 10.0003 200H36.667C38.5074 200 39.9999 198.509 40.0003 196.668C40.0003 196.668 40.0003 196.667 40.0003 196.667V170C40.0007 168.16 38.5091 166.667 36.6687 166.667ZM33.3337 193.333H13.3337V173.333H33.3337V193.333Z" fill="#0351C1"/>
<path d="M86.6687 156.667C86.6682 156.667 86.6674 156.667 86.667 156.667H60.0003C58.1599 156.666 56.6674 158.158 56.667 159.998C56.667 159.999 56.667 160 56.667 160V196.667C56.6666 198.507 58.1582 200 59.9987 200C59.9991 200 59.9999 200 60.0003 200H86.667C88.5074 200 89.9999 198.509 90.0003 196.668C90.0003 196.668 90.0003 196.667 90.0003 196.667V160C90.0007 158.16 88.5091 156.667 86.6687 156.667ZM83.3337 193.333H63.3337V163.333H83.3337V193.333Z" fill="#0351C1"/>
<path d="M136.669 143.333C136.668 143.333 136.667 143.333 136.667 143.333H110C108.16 143.333 106.667 144.825 106.667 146.665C106.667 146.665 106.667 146.666 106.667 146.667V196.667C106.667 198.507 108.158 200 109.999 200C109.999 200 110 200 110 200H136.667C138.507 200 140 198.509 140 196.668C140 196.668 140 196.667 140 196.667V146.667C140.001 144.826 138.509 143.334 136.669 143.333ZM133.334 193.333H113.334V150H133.334V193.333Z" fill="#0351C1"/>
<path d="M186.669 113.333C186.668 113.333 186.667 113.333 186.667 113.333H160C158.16 113.333 156.667 114.825 156.667 116.665C156.667 116.665 156.667 116.666 156.667 116.667V196.667C156.667 198.507 158.158 200 159.999 200C159.999 200 160 200 160 200H186.667C188.507 200 190 198.509 190 196.668C190 196.668 190 196.667 190 196.667V116.667C190.001 114.826 188.509 113.334 186.669 113.333ZM183.334 193.333H163.334V120H183.334V193.333Z" fill="#0351C1"/>
<path d="M114.31 73.4783C114.29 73.472 114.271 73.4662 114.251 73.4604L90.9175 66.7937L89.085 73.2066L105.42 77.8737L4.83789 143.88L8.49664 149.453L107.427 84.5295L101.944 102.353L108.314 104.313L116.519 77.6466C117.06 75.8854 116.071 74.0191 114.31 73.4783Z" fill="#0351C1"/>
<path d="M182.329 32.1071C181.831 31.6208 181.192 31.3029 180.504 31.1979L166.14 29.0008L159.685 15.2508C158.903 13.5842 156.918 12.8671 155.252 13.6492C154.547 13.9796 153.981 14.5463 153.65 15.2508L147.195 29.0008L132.832 31.1979C131.597 31.3862 130.571 32.2496 130.174 33.4342C129.777 34.6187 130.076 35.9254 130.948 36.8196L141.44 47.5717L138.958 62.7962C138.661 64.6125 139.892 66.3258 141.709 66.6229C142.447 66.7437 143.205 66.6125 143.86 66.25L156.667 59.17L169.475 66.25C171.086 67.1412 173.114 66.5579 174.004 64.9475C174.367 64.2925 174.498 63.5346 174.377 62.7962L171.895 47.5717L182.387 36.8196C183.672 35.5021 183.646 33.3925 182.329 32.1071ZM165.949 44.1212C165.209 44.8783 164.874 45.9417 165.045 46.9858L166.694 57.0967L158.281 52.445C157.277 51.8896 156.059 51.8896 155.055 52.445L146.642 57.0967L148.291 46.9858C148.462 45.9417 148.127 44.8783 147.388 44.1212L140.25 36.8067L149.96 35.3221C151.06 35.1554 152.003 34.4508 152.475 33.4437L156.668 24.5117L160.861 33.4437C161.332 34.4508 162.276 35.1554 163.375 35.3221L173.086 36.8067L165.949 44.1212Z" fill="#0351C1"/>
<path d="M163.067 79.4467C160.971 79.8154 158.846 80.0004 156.718 80H156.668C154.545 80.0008 152.427 79.8179 150.336 79.4529L149.19 86.0221C151.686 86.3796 154.201 86.595 156.721 86.6667C159.237 86.6667 161.748 86.4462 164.226 86.0092L163.067 79.4467Z" fill="#0351C1"/>
<path d="M164.057 0.628296L162.928 7.19746C167.14 7.92038 171.192 9.38038 174.897 11.5108L178.214 5.72955C173.832 3.2083 169.04 1.48163 164.057 0.628296Z" fill="#0351C1"/>
<path d="M149.021 0.66748C144.044 1.55456 139.263 3.31081 134.896 5.85623L138.253 11.6179C141.945 9.4654 145.988 7.97998 150.196 7.22998L149.021 0.66748Z" fill="#0351C1"/>
<path d="M184.767 66.8879C182.018 70.165 178.719 72.9375 175.018 75.0813L178.36 80.8496C182.731 78.32 186.626 75.0475 189.871 71.1784L184.767 66.8879Z" fill="#0351C1"/>
<path d="M198.528 43.2096L193.334 43.3333C193.341 47.6104 192.596 51.8554 191.136 55.8758L197.402 58.1546C199.137 53.3725 200.016 48.3229 199.999 43.2358L198.528 43.2096Z" fill="#0351C1"/>
<path d="M189.766 15.3646L184.678 19.668C187.441 22.9288 189.609 26.6496 191.086 30.6609L197.342 28.3563C195.597 23.615 193.033 19.2175 189.766 15.3646Z" fill="#0351C1"/>
<path d="M123.405 15.5533C120.162 19.4288 117.623 23.8438 115.905 28.5971L122.175 30.8629C123.629 26.8421 125.777 23.1083 128.522 19.8308L123.405 15.5533Z" fill="#0351C1"/>
<path d="M128.611 66.9399L123.514 71.237C126.765 75.1016 130.667 78.3687 135.042 80.892L138.375 75.1174C134.669 72.9808 131.365 70.2133 128.611 66.9399Z" fill="#0351C1"/>
<path d="M120.003 43.4083L113.336 43.4212C113.338 48.4742 114.228 53.4875 115.965 58.2325L122.224 55.9408C120.756 51.9254 120.004 47.6837 120.003 43.4083Z" fill="#0351C1"/>
</g>
<defs>
<clipPath id="clip0">
<rect width="200" height="200" fill="white"/>
</clipPath>
</defs>
</svg>
