<?xml version="1.0" encoding="utf-8"?>
<svg width="705" height="700" viewBox="0 0 705 700" fill="none" xmlns="http://www.w3.org/2000/svg">
<mask id="mask0" mask-type="alpha" maskUnits="userSpaceOnUse" x="0" y="0" width="705" height="700">
<rect width="705" height="700" fill="#C4C4C4"/>
</mask>
<g mask="url(#mask0)">
<path d="M342.912 525.966C346.444 509.142 373.214 510.629 386.414 515.091C399.613 519.553 413.835 522.341 433.54 515.556C453.153 508.77 464.68 521.691 461.612 531.637C458.545 541.582 443.3 552.458 409.931 562.683C376.375 573 336.87 554.224 342.912 525.966Z" fill="#FFEEE7"/>
<path d="M217.704 107.216C232.112 118.556 218.169 143.374 207.758 153.878C197.348 164.382 187.96 176.744 185.264 198.681C182.568 220.618 164.814 225.637 156.821 218.015C148.827 210.486 145.48 190.873 151.243 154.064C157.099 117.348 193.444 88.3466 217.704 107.216Z" fill="#FFEEE7"/>
<path d="M160.54 362.742C160.54 362.742 189.634 226.102 234.716 165.962C283.051 101.453 341.983 169.308 400.822 109.354C459.661 49.3065 530.769 56.9286 580.034 17.5168C629.299 -21.895 630.414 78.9583 763.429 79.7019C867.721 80.3526 932.323 12.4974 917.823 -68.2782C905.925 -134.832 757.015 -192.834 744.188 -290.341C721.508 -462.861 880.642 -505.898 991.534 -469.646C1102.43 -433.395 1282.75 -303.819 1331.37 -165.042C1379.98 -26.2637 1258.49 444.261 1290 610.46C1321.51 776.659 1272.53 920.642 1207.46 946.297C1142.4 971.952 1026.21 1012.66 937.064 903.074C848.202 793.39 799.03 730.647 740.005 703.319C665.085 668.555 566.091 662.978 530.026 638.717C493.96 614.457 521.939 571.699 483.178 525.316C456.965 493.991 403.889 498.359 358.064 487.577C274.778 467.964 279.426 379.009 168.813 385.608L160.54 362.742Z" fill="#FFEEE7"/>
<path d="M537.554 259.1L548.801 237.906C551.404 232.98 549.545 226.845 544.619 224.335L538.019 220.803C533.836 218.572 531.419 213.925 532.163 209.277C532.721 205.745 532.999 202.12 533.185 198.588C533.371 193.847 536.532 189.664 541.086 188.27L548.244 186.039C553.542 184.366 556.516 178.789 554.936 173.397L547.872 150.438C546.199 145.14 540.622 142.165 535.23 143.746L528.073 145.977C523.518 147.371 518.592 145.791 515.803 141.887C513.665 139.005 511.434 136.217 508.925 133.614C505.671 130.175 505.021 124.969 507.252 120.786L510.784 114.187C513.387 109.26 511.527 103.125 506.601 100.616L485.408 89.3685C480.481 86.7659 474.347 88.6249 471.837 93.5514L468.305 100.151C466.074 104.334 461.426 106.751 456.779 106.007C453.246 105.449 449.621 105.17 446.089 104.985C441.348 104.799 437.166 101.638 435.771 97.0836L433.54 89.9263C431.867 84.628 426.29 81.6535 420.899 83.2337L397.94 90.2981C392.641 91.9712 389.667 97.5483 391.247 102.94L393.478 110.097C394.872 114.652 393.292 119.578 389.388 122.367C386.507 124.505 383.718 126.735 381.115 129.245C377.676 132.498 372.471 133.149 368.288 130.918L361.688 127.386C356.762 124.783 350.627 126.642 348.117 131.569L336.87 152.762C334.267 157.689 336.126 163.73 341.053 166.333L347.652 169.865C351.835 172.096 354.252 176.744 353.508 181.391C352.951 184.924 352.672 188.549 352.486 192.081C352.3 196.821 349.14 201.004 344.585 202.399L337.428 204.629C332.129 206.303 329.155 211.88 330.735 217.271L337.8 240.23C339.473 245.529 345.05 248.503 350.441 246.923L357.598 244.692C362.153 243.298 367.08 244.878 369.868 248.782C372.006 251.663 374.237 254.452 376.747 257.055C380 260.494 380.651 265.699 378.42 269.882L374.98 276.482C372.378 281.408 374.237 287.543 379.163 290.053L400.356 301.3C405.283 303.903 411.325 302.044 413.928 297.117L417.367 290.517C419.598 286.335 424.245 283.918 428.893 284.661C432.425 285.219 436.05 285.498 439.582 285.684C444.323 285.87 448.506 289.03 449.9 293.585L452.131 300.742C453.804 306.04 459.381 309.015 464.772 307.435L487.732 300.37C493.03 298.697 496.004 293.12 494.424 287.729L492.193 280.572C490.799 276.017 492.379 271.09 496.283 268.302C499.165 266.164 501.953 263.933 504.556 261.423C507.995 258.17 513.201 257.519 517.383 259.75L523.983 263.282C528.91 265.978 535.044 264.026 537.554 259.1ZM421.271 245.807C390.225 232.422 378.606 194.684 396.638 166.147C410.86 143.653 439.861 134.729 464.308 145.233C495.354 158.618 506.973 196.357 488.94 224.893C474.718 247.295 445.717 256.311 421.271 245.807Z" fill="#FFEEE7"/>
<path d="M565.626 277.97L580.126 250.456C583.473 244.042 581.056 236.141 574.642 232.795L566.091 228.24C560.606 225.359 557.632 219.41 558.561 213.275C559.305 208.627 559.677 203.98 559.863 199.425C560.049 193.29 564.139 187.899 570.087 186.133L579.383 183.251C586.261 181.113 590.165 173.77 588.027 166.892L578.825 137.147C576.687 130.268 569.344 126.364 562.465 128.502L553.17 131.384C547.314 133.243 540.9 131.105 537.182 126.085C534.487 122.367 531.512 118.742 528.259 115.303C524.076 110.841 523.24 104.149 526.028 98.6645L530.583 90.1129C533.929 83.6992 531.512 75.7983 525.099 72.452L497.585 57.9514C491.171 54.6051 483.27 57.0219 479.924 63.4356L475.369 71.9872C472.488 77.4714 466.539 80.4459 460.404 79.5164C455.756 78.7727 451.109 78.4009 446.554 78.215C440.419 78.0291 435.028 73.9392 433.262 67.9903L430.38 58.695C428.242 51.8166 420.899 47.9126 414.021 50.0505L384.276 59.2527C377.397 61.3906 373.493 68.7339 375.631 75.6124L378.513 84.9076C380.372 90.7636 378.234 97.1773 373.214 100.895C369.496 103.591 365.871 106.565 362.432 109.819C357.97 114.002 351.278 114.931 345.793 112.05L337.242 107.495C330.828 104.149 322.927 106.565 319.581 112.979L305.08 140.493C301.734 146.907 304.151 154.808 310.565 158.154L319.116 162.709C324.6 165.59 327.575 171.539 326.645 177.674C325.902 182.322 325.53 186.969 325.344 191.617C325.158 197.752 321.068 203.143 315.119 204.909L305.824 207.791C298.945 209.929 295.041 217.272 297.179 224.15L306.382 253.895C308.52 260.773 315.863 264.677 322.741 262.54L331.944 259.658C337.8 257.799 344.213 259.937 347.838 264.956C350.534 268.674 353.509 272.3 356.762 275.739C360.945 280.2 361.874 286.893 358.993 292.377L354.81 300.743C351.464 307.157 353.88 315.058 360.294 318.404L387.808 332.904C394.222 336.251 402.123 333.834 405.469 327.42L410.024 318.869C412.905 313.384 418.854 310.41 424.989 311.34C429.636 312.083 434.284 312.455 438.839 312.641C444.974 312.827 450.365 316.917 452.131 322.866L455.012 332.068C457.15 338.946 464.494 342.85 471.372 340.712L501.117 331.51C507.995 329.372 511.899 322.029 509.761 315.151L506.88 305.855C505.021 299.999 507.159 293.586 512.178 289.868C515.896 287.172 519.521 284.197 522.961 280.944C527.422 276.761 534.115 275.925 539.599 278.713L548.151 283.268C554.379 286.8 562.28 284.383 565.626 277.97ZM414.857 260.68C374.609 243.298 359.55 194.498 382.974 157.503C401.379 128.409 439.025 116.79 470.628 130.454C510.877 147.836 525.935 196.636 502.511 233.631C484.107 262.632 446.554 274.252 414.857 260.68Z" fill="#FFEEE7"/>
<path d="M509.544 262.32C546.424 225.44 546.424 165.644 509.544 128.764C472.663 91.8831 412.868 91.8832 375.987 128.764C339.107 165.644 339.107 225.44 375.987 262.32C412.868 299.201 472.663 299.201 509.544 262.32Z" stroke="#FFEEE7" stroke-width="4" stroke-miterlimit="10"/>
<path d="M359.178 151.368C383.532 105.264 440.697 87.603 486.802 111.957" stroke="white" stroke-width="2.9615" stroke-miterlimit="10" stroke-linecap="round"/>
<path d="M565.626 277.97L580.126 250.456C583.473 244.042 581.056 236.141 574.642 232.795L566.091 228.24C560.606 225.359 557.632 219.41 558.561 213.275C559.305 208.627 559.677 203.98 559.863 199.425C560.049 193.29 564.139 187.899 570.087 186.133L579.383 183.251C586.261 181.113 590.165 173.77 588.027 166.892L578.825 137.147C576.687 130.268 569.344 126.364 562.465 128.502L553.17 131.384C547.314 133.243 540.9 131.105 537.182 126.085C534.487 122.367 531.512 118.742 528.259 115.303C524.076 110.841 523.24 104.149 526.028 98.6645L530.583 90.1129C533.929 83.6992 531.512 75.7983 525.099 72.452L497.585 57.9514C491.171 54.6051 483.27 57.0219 479.924 63.4356L475.369 71.9872C472.488 77.4714 466.539 80.4459 460.404 79.5164C455.756 78.7727 451.109 78.4009 446.554 78.215C440.419 78.0291 435.028 73.9392 433.262 67.9903L430.38 58.695C428.242 51.8166 420.899 47.9126 414.021 50.0505L384.276 59.2527C377.397 61.3906 373.493 68.7339 375.631 75.6124L378.513 84.9076C380.372 90.7636 378.234 97.1773 373.214 100.895C369.496 103.591 365.871 106.565 362.432 109.819C357.97 114.002 351.278 114.931 345.793 112.05L337.242 107.495C330.828 104.149 322.927 106.565 319.581 112.979L305.08 140.493C301.734 146.907 304.151 154.808 310.565 158.154L319.116 162.709C324.6 165.59 327.575 171.539 326.645 177.674C325.902 182.322 325.53 186.969 325.344 191.617C325.158 197.752 321.068 203.143 315.119 204.909L305.824 207.791C298.945 209.929 295.041 217.272 297.179 224.15L306.382 253.895C308.52 260.773 315.863 264.677 322.741 262.54L331.944 259.658C337.8 257.799 344.213 259.937 347.838 264.956C350.534 268.674 353.509 272.3 356.762 275.739C360.945 280.2 361.874 286.893 358.993 292.377L354.81 300.743C351.464 307.157 353.88 315.058 360.294 318.404L387.808 332.904C394.222 336.251 402.123 333.834 405.469 327.42L410.024 318.869C412.905 313.384 418.854 310.41 424.989 311.34C429.636 312.083 434.284 312.455 438.839 312.641C444.974 312.827 450.365 316.917 452.131 322.866L455.012 332.068C457.15 338.946 464.494 342.85 471.372 340.712L501.117 331.51C507.995 329.372 511.899 322.029 509.761 315.151L506.88 305.855C505.021 299.999 507.159 293.586 512.178 289.868C515.896 287.172 519.521 284.197 522.961 280.944C527.422 276.761 534.115 275.925 539.599 278.713L548.151 283.268C554.379 286.8 562.28 284.383 565.626 277.97ZM414.857 260.68C374.609 243.298 359.55 194.498 382.974 157.503C401.379 128.409 439.025 116.79 470.628 130.454C510.877 147.836 525.935 196.636 502.511 233.631C484.107 262.632 446.554 274.252 414.857 260.68Z" fill="url(#paint0_linear)"/>
<path d="M288.721 359.023L296.064 345.081C297.738 341.827 296.529 337.83 293.276 336.157L288.907 333.833C286.119 332.346 284.631 329.372 285.096 326.211C285.468 323.887 285.654 321.471 285.747 319.147C285.84 315.987 287.978 313.291 290.952 312.361L295.6 310.874C299.132 309.759 301.084 306.134 299.968 302.601L295.321 287.543C294.205 284.011 290.58 282.059 287.048 283.174L282.4 284.662C279.426 285.591 276.173 284.476 274.314 281.966C272.919 280.107 271.432 278.248 269.759 276.482C267.621 274.158 267.156 270.812 268.644 268.023L270.967 263.654C272.64 260.401 271.432 256.404 268.179 254.731L254.236 247.388C250.983 245.715 246.986 246.923 245.312 250.176L242.989 254.545C241.501 257.334 238.527 258.821 235.367 258.356C233.043 257.984 230.626 257.798 228.302 257.705C225.142 257.612 222.446 255.568 221.517 252.5L220.029 247.852C218.914 244.32 215.289 242.368 211.757 243.484L196.698 248.131C193.166 249.247 191.214 252.872 192.33 256.404L193.817 261.052C194.746 264.026 193.631 267.28 191.121 269.139C189.262 270.533 187.403 272.02 185.637 273.693C183.313 275.831 179.967 276.296 177.178 274.809L172.81 272.485C169.556 270.812 165.559 272.02 163.886 275.273L156.543 289.216C154.87 292.47 156.078 296.467 159.332 298.14L163.7 300.464C166.489 301.951 167.976 304.925 167.511 308.086C167.14 310.409 166.954 312.826 166.861 315.15C166.768 318.31 164.723 321.006 161.655 321.935L157.008 323.423C153.476 324.538 151.524 328.163 152.639 331.695L157.287 346.754C158.402 350.286 162.027 352.238 165.559 351.123L170.207 349.635C173.181 348.706 176.435 349.821 178.294 352.331C179.688 354.19 181.175 356.049 182.849 357.815C184.986 360.139 185.451 363.485 183.964 366.274L181.64 370.643C179.967 373.896 181.175 377.893 184.429 379.566L198.372 386.909C201.625 388.582 205.622 387.374 207.295 384.121L209.619 379.752C211.106 376.963 214.08 375.476 217.241 375.941C219.565 376.313 221.981 376.499 224.305 376.591C227.466 376.684 230.161 378.822 231.091 381.797L232.578 386.444C233.693 389.977 237.319 391.929 240.851 390.813L255.909 386.166C259.441 385.05 261.393 381.425 260.278 377.893L258.791 373.245C257.861 370.271 258.976 367.017 261.486 365.158C263.345 363.764 265.204 362.277 266.97 360.604C269.294 358.466 272.64 358.001 275.429 359.488L279.798 361.812C283.051 363.485 287.048 362.184 288.721 359.023ZM212.314 350.193C191.958 341.363 184.243 316.637 196.141 297.861C205.529 283.081 224.584 277.225 240.572 284.104C260.928 292.934 268.644 317.66 256.746 336.436C247.45 351.215 228.395 357.164 212.314 350.193Z" fill="#FFEEE7"/>
<path d="M307.218 371.386L316.792 353.26C319.023 349.077 317.443 343.872 313.167 341.641L307.59 338.667C304.058 336.808 302.013 332.811 302.664 328.814C303.128 325.746 303.407 322.772 303.5 319.705C303.593 315.615 306.289 312.175 310.193 310.967L316.235 309.108C320.789 307.714 323.299 302.88 321.905 298.418L315.863 278.898C314.469 274.344 309.635 271.834 305.173 273.228L299.131 275.087C295.227 276.296 291.045 274.902 288.628 271.648C286.862 269.231 284.91 266.815 282.772 264.584C279.983 261.609 279.426 257.241 281.378 253.708L284.352 248.131C286.583 243.948 285.003 238.743 280.727 236.512L262.601 226.938C258.418 224.707 253.213 226.287 250.982 230.563L248.008 236.14C246.149 239.673 242.152 241.718 238.155 241.067C235.087 240.602 232.02 240.323 229.045 240.23C224.955 240.137 221.516 237.442 220.308 233.538L218.449 227.496C217.055 222.941 212.221 220.431 207.759 221.826L188.239 227.868C183.685 229.262 181.175 234.095 182.569 238.557L184.428 244.599C185.637 248.503 184.242 252.686 180.989 255.103C178.572 256.869 176.155 258.821 173.925 260.959C170.95 263.747 166.581 264.305 163.049 262.446L157.472 259.471C153.289 257.241 148.084 258.821 145.853 263.097L136.279 281.222C134.048 285.405 135.628 290.61 139.904 292.841L145.481 295.816C149.013 297.675 151.058 301.672 150.408 305.669C149.943 308.736 149.664 311.804 149.571 314.778C149.478 318.868 146.783 322.307 142.879 323.516L136.837 325.375C132.282 326.769 129.772 331.602 131.167 336.064L137.208 355.584C138.603 360.139 143.436 362.649 147.898 361.254L153.94 359.395C157.844 358.187 162.027 359.581 164.443 362.834C166.21 365.251 168.162 367.668 170.299 369.899C173.088 372.873 173.646 377.242 171.787 380.774L168.812 386.351C166.581 390.534 168.162 395.74 172.437 397.97L190.563 407.545C194.746 409.775 199.951 408.195 202.182 403.919L205.157 398.342C207.016 394.81 211.013 392.765 215.01 393.416C218.077 393.881 221.144 394.159 224.119 394.252C228.209 394.345 231.648 397.041 232.856 400.945L234.715 406.987C236.11 411.541 240.943 414.051 245.405 412.657L264.925 406.615C269.48 405.221 271.989 400.387 270.595 395.925L268.736 389.884C267.528 385.98 268.922 381.797 272.175 379.38C274.592 377.614 277.009 375.662 279.24 373.524C282.214 370.735 286.583 370.178 290.115 372.13L295.692 375.104C299.782 377.149 304.987 375.569 307.218 371.386ZM208.131 359.953C181.733 348.52 171.787 316.451 187.217 292.098C199.301 272.95 224.026 265.327 244.847 274.344C271.246 285.777 281.192 317.846 265.762 342.199C253.585 361.347 228.952 368.969 208.131 359.953Z" fill="#E0BAAD"/>
<path d="M248.278 375.333C280.382 363.28 296.637 327.482 284.583 295.377C272.529 263.273 236.731 247.018 204.627 259.072C172.522 271.126 156.268 306.923 168.321 339.028C180.375 371.133 216.173 387.387 248.278 375.333Z" stroke="#FFEEE7" stroke-width="4" stroke-miterlimit="10"/>
<path d="M171.508 288.193C187.496 257.891 225.049 246.272 255.351 262.26" stroke="white" stroke-width="2.9615" stroke-miterlimit="10" stroke-linecap="round"/>
<path d="M604.295 497.987L609.5 488.227C610.709 485.996 609.872 483.115 607.548 481.999L604.481 480.419C602.529 479.397 601.413 477.259 601.785 475.121C602.064 473.448 602.157 471.867 602.25 470.194C602.343 467.963 603.737 466.104 605.875 465.454L609.128 464.431C611.545 463.688 612.939 461.085 612.196 458.668L608.942 448.072C608.199 445.655 605.596 444.261 603.179 445.004L599.926 446.027C597.788 446.677 595.557 445.934 594.256 444.168C593.326 442.866 592.211 441.565 591.096 440.357C589.608 438.776 589.329 436.36 590.352 434.408L591.932 431.34C593.14 429.109 592.304 426.228 589.98 425.112L580.22 419.907C577.989 418.699 575.108 419.535 573.899 421.859L572.319 424.927C571.297 426.879 569.159 427.994 567.021 427.622C565.348 427.343 563.768 427.25 562.094 427.157C559.864 427.064 558.005 425.67 557.354 423.532L556.331 420.279C555.588 417.862 552.985 416.468 550.568 417.212L539.972 420.465C537.555 421.208 536.161 423.811 536.904 426.228L537.927 429.481C538.577 431.619 537.834 433.85 536.068 435.151C534.766 436.081 533.465 437.196 532.257 438.312C530.677 439.799 528.26 440.078 526.308 439.055L523.24 437.475C521.009 436.267 518.128 437.103 516.92 439.427L511.714 449.187C510.506 451.418 511.342 454.299 513.666 455.415L516.734 456.995C518.686 458.018 519.708 460.155 519.429 462.293C519.15 463.967 519.057 465.547 518.965 467.22C518.872 469.451 517.477 471.31 515.339 471.96L512.086 472.983C509.669 473.727 508.275 476.329 509.019 478.746L512.272 489.343C513.016 491.759 515.618 493.154 518.035 492.41L521.288 491.387C523.426 490.737 525.657 491.48 526.958 493.247C527.888 494.548 529.003 495.849 530.119 497.058C531.606 498.638 531.885 501.055 530.862 503.007L529.282 506.074C528.074 508.305 528.91 511.186 531.234 512.395L540.994 517.6C543.225 518.808 546.107 517.972 547.222 515.648L548.802 512.581C549.825 510.629 551.963 509.513 554.101 509.885C555.774 510.164 557.354 510.257 559.027 510.35C561.258 510.443 563.117 511.837 563.768 513.975L564.79 517.228C565.534 519.645 568.136 521.039 570.553 520.296L581.15 517.042C583.566 516.299 584.961 513.696 584.217 511.279L583.195 508.026C582.544 505.888 583.288 503.657 585.054 502.356C586.355 501.426 587.656 500.311 588.865 499.195C590.445 497.708 592.862 497.429 594.814 498.452L597.881 500.032C600.298 501.147 603.086 500.218 604.295 497.987ZM550.661 491.852C536.347 485.717 530.955 468.335 539.321 455.136C545.921 444.818 559.213 440.636 570.46 445.469C584.775 451.604 590.166 468.986 581.8 482.185C575.294 492.596 561.909 496.686 550.661 491.852Z" fill="#FFEEE7"/>
<path d="M617.214 506.632L623.907 493.99C625.487 491.016 624.372 487.391 621.397 485.903L617.493 483.858C614.984 482.557 613.589 479.769 614.054 476.98C614.426 474.842 614.612 472.704 614.612 470.566C614.705 467.685 616.564 465.268 619.352 464.431L623.628 463.13C626.789 462.108 628.555 458.761 627.625 455.601L623.349 441.937C622.327 438.777 618.981 437.01 615.82 437.94L611.544 439.241C608.849 440.078 605.874 439.148 604.201 436.825C602.9 435.058 601.598 433.478 600.111 431.898C598.159 429.853 597.787 426.786 599.089 424.276L601.134 420.372C602.714 417.398 601.598 413.772 598.624 412.285L585.982 405.593C583.008 404.012 579.383 405.128 577.896 408.102L575.851 412.006C574.549 414.516 571.761 415.91 568.972 415.446C566.834 415.074 564.696 414.888 562.558 414.888C559.677 414.795 557.26 412.936 556.424 410.147L555.122 405.871C554.1 402.711 550.754 400.945 547.593 401.874L533.929 406.15C530.769 407.173 529.003 410.519 529.932 413.679L531.234 417.955C532.07 420.651 531.141 423.625 528.817 425.298C527.051 426.6 525.47 427.901 523.89 429.388C521.845 431.34 518.778 431.712 516.268 430.411L512.364 428.366C509.39 426.786 505.765 427.901 504.277 430.876L497.585 443.517C496.005 446.492 497.12 450.117 500.094 451.604L503.998 453.649C506.508 454.95 507.902 457.739 507.438 460.527C507.066 462.665 506.88 464.803 506.88 466.941C506.787 469.823 504.928 472.239 502.139 473.076L497.864 474.377C494.703 475.4 492.937 478.746 493.867 481.906L498.142 495.571C499.165 498.731 502.511 500.497 505.672 499.567L509.947 498.266C512.643 497.43 515.618 498.359 517.291 500.683C518.592 502.449 519.893 504.029 521.381 505.609C523.333 507.654 523.704 510.722 522.403 513.231L520.358 517.135C518.778 520.11 519.893 523.735 522.868 525.222L535.509 531.915C538.484 533.495 542.109 532.38 543.596 529.405L545.641 525.501C546.942 522.991 549.731 521.597 552.52 522.062C554.658 522.434 556.795 522.62 558.933 522.62C561.815 522.713 564.232 524.572 565.068 527.36L566.369 531.636C567.392 534.796 570.738 536.563 573.899 535.633L587.563 531.357C590.723 530.335 592.489 526.988 591.56 523.828L590.258 519.552C589.422 516.857 590.351 513.882 592.675 512.209C594.441 510.908 596.021 509.606 597.601 508.119C599.646 506.167 602.714 505.795 605.224 507.097L609.128 509.142C612.102 510.722 615.727 509.606 617.214 506.632ZM547.779 498.731C529.281 490.737 522.31 468.242 533.093 451.139C541.551 437.754 558.933 432.363 573.527 438.684C592.024 446.678 598.996 469.172 588.213 486.275C579.662 499.66 562.373 504.959 547.779 498.731Z" fill="#E0BAAD"/>
<path d="M575.953 509.531C598.493 501.068 609.905 475.934 601.442 453.394C592.979 430.853 567.846 419.441 545.306 427.904C522.765 436.367 511.353 461.5 519.816 484.041C528.279 506.581 553.412 517.994 575.953 509.531Z" stroke="#FFEEE7" stroke-width="4" stroke-miterlimit="10"/>
<path d="M522.125 448.351C533.372 427.064 559.677 418.978 580.963 430.132" stroke="white" stroke-width="2.9615" stroke-miterlimit="10" stroke-linecap="round"/>
<path d="M412.534 471.961L419.877 458.018C421.55 454.764 420.342 450.767 417.088 449.094L412.72 446.77C409.931 445.283 408.444 442.309 408.909 439.148C409.28 436.825 409.466 434.408 409.559 432.084C409.652 428.924 411.79 426.228 414.765 425.298L419.412 423.811C422.944 422.696 424.896 419.071 423.781 415.538L419.133 400.48C418.018 396.948 414.393 394.996 410.861 396.111L406.213 397.599C403.238 398.528 399.985 397.413 398.126 394.903C396.732 393.044 395.245 391.185 393.571 389.419C391.434 387.095 390.969 383.749 392.456 380.96L394.78 376.591C396.453 373.338 395.245 369.341 391.991 367.668L378.048 360.325C374.795 358.652 370.798 359.86 369.125 363.113L366.801 367.482C365.314 370.271 362.339 371.758 359.179 371.293C356.855 370.921 354.439 370.735 352.115 370.642C348.954 370.55 346.259 368.505 345.329 365.437L343.842 360.789C342.727 357.257 339.101 355.305 335.569 356.421L320.511 361.068C316.979 362.184 315.027 365.809 316.142 369.341L317.629 373.989C318.559 376.963 317.443 380.217 314.934 382.076C313.075 383.47 311.216 384.957 309.45 386.63C307.126 388.768 303.779 389.233 300.991 387.746L296.622 385.422C293.369 383.749 289.372 384.957 287.699 388.21L280.355 402.153C278.682 405.407 279.891 409.404 283.144 411.077L287.513 413.401C290.301 414.888 291.789 417.862 291.324 421.023C290.952 423.346 290.766 425.763 290.673 428.087C290.58 431.247 288.535 433.943 285.468 434.872L280.82 436.36C277.288 437.475 275.336 441.1 276.451 444.632L281.099 459.691C282.215 463.223 285.84 465.175 289.372 464.06L294.019 462.572C296.994 461.643 300.247 462.758 302.106 465.268C303.501 467.127 304.988 468.986 306.661 470.752C308.799 473.076 309.264 476.422 307.776 479.211L305.453 483.58C303.779 486.833 304.988 490.83 308.241 492.503L322.184 499.846C325.437 501.519 329.434 500.311 331.107 497.058L333.431 492.689C334.919 489.9 337.893 488.413 341.053 488.878C343.377 489.25 345.794 489.436 348.118 489.528C351.278 489.621 353.974 491.759 354.903 494.734L356.391 499.381C357.506 502.914 361.131 504.866 364.663 503.75L379.722 499.103C383.254 497.987 385.206 494.362 384.09 490.83L382.603 486.182C381.674 483.208 382.789 479.954 385.299 478.095C387.158 476.701 389.017 475.214 390.783 473.541C393.107 471.403 396.453 470.938 399.242 472.425L403.61 474.749C406.864 476.422 410.861 475.214 412.534 471.961ZM336.127 463.223C315.77 454.392 308.055 429.667 319.953 410.891C329.341 396.111 348.397 390.255 364.384 397.134C384.741 405.964 392.456 430.69 380.558 449.466C371.17 464.245 352.115 470.101 336.127 463.223Z" fill="#9DCAF3"/>
<path d="M366.377 473.673C390.359 464.668 402.502 437.927 393.497 413.945C384.493 389.963 357.752 377.82 333.77 386.825C309.787 395.829 297.645 422.57 306.649 446.552C315.654 470.535 342.395 482.677 366.377 473.673Z" stroke="#FFEEE7" stroke-width="4" stroke-miterlimit="10"/>
<path d="M315.771 411.263C325.809 392.301 349.233 385.05 368.196 395.089" stroke="white" stroke-width="2.9615" stroke-miterlimit="10" stroke-linecap="round"/>
<path d="M547.872 466.384L384.741 421.581C378.792 420.001 375.353 413.773 376.933 407.824L421.829 244.692C423.409 238.744 429.637 235.304 435.586 236.884L598.717 281.78C604.666 283.361 608.105 289.588 606.525 295.537L561.629 458.669C559.956 464.525 553.821 468.057 547.872 466.384Z" fill="#52C798"/>
<path d="M475.492 286.593C479.289 272.783 471.172 258.51 457.362 254.713C443.552 250.916 429.278 259.033 425.481 272.843C421.685 286.653 429.802 300.927 443.612 304.724C457.422 308.521 471.695 300.403 475.492 286.593Z" fill="#9DCAF3"/>
<path d="M443.58 304.645C450.737 306.597 457.988 305.389 463.937 301.764C461.613 294.792 456.036 289.122 448.414 286.985C440.792 284.94 433.076 286.984 427.592 291.725C430.846 297.86 436.423 302.693 443.58 304.645Z" fill="white"/>
<path d="M452.039 284.382C457.686 284.382 462.264 279.804 462.264 274.157C462.264 268.51 457.686 263.932 452.039 263.932C446.392 263.932 441.814 268.51 441.814 274.157C441.814 279.804 446.392 284.382 452.039 284.382Z" fill="white"/>
<path opacity="0.28" d="M532.135 302.191C535.932 288.381 527.814 274.107 514.004 270.31C500.194 266.513 485.921 274.63 482.124 288.44C478.327 302.251 486.444 316.524 500.254 320.321C514.064 324.118 528.338 316.001 532.135 302.191Z" fill="#9DCAF3"/>
<path d="M500.281 320.262C507.438 322.214 514.688 321.006 520.637 317.381C518.314 310.409 512.736 304.739 505.114 302.601C497.492 300.556 489.777 302.601 484.293 307.342C487.546 313.477 493.123 318.31 500.281 320.262Z" fill="white"/>
<path d="M508.74 299.998C514.387 299.998 518.965 295.421 518.965 289.774C518.965 284.127 514.387 279.549 508.74 279.549C503.093 279.549 498.515 284.127 498.515 289.774C498.515 295.421 503.093 299.998 508.74 299.998Z" fill="white"/>
<path opacity="0.28" d="M588.892 317.722C592.689 303.912 584.572 289.639 570.762 285.842C556.952 282.045 542.679 290.162 538.882 303.972C535.085 317.782 543.202 332.056 557.012 335.853C570.822 339.65 585.095 331.532 588.892 317.722Z" fill="#9DCAF3"/>
<path d="M557.075 335.878C564.232 337.83 571.482 336.622 577.431 332.997C575.108 326.025 569.53 320.355 561.908 318.217C554.286 316.172 546.571 318.217 541.087 322.958C544.247 329.093 549.917 333.926 557.075 335.878Z" fill="white"/>
<path d="M565.44 315.522C571.087 315.522 575.665 310.944 575.665 305.297C575.665 299.65 571.087 295.072 565.44 295.072C559.793 295.072 555.215 299.65 555.215 305.297C555.215 310.944 559.793 315.522 565.44 315.522Z" fill="white"/>
<path d="M459.957 342.969C463.754 329.159 455.637 314.886 441.827 311.089C428.017 307.292 413.743 315.409 409.946 329.219C406.149 343.029 414.267 357.303 428.077 361.1C441.887 364.897 456.16 356.779 459.957 342.969Z" fill="#9DCAF3"/>
<path d="M428.15 361.068C435.307 363.02 442.558 361.812 448.506 358.187C446.183 351.215 440.606 345.545 432.983 343.407C425.361 341.362 417.646 343.407 412.162 348.148C415.322 354.283 420.9 359.023 428.15 361.068Z" fill="white"/>
<path d="M436.516 340.712C442.163 340.712 446.741 336.134 446.741 330.487C446.741 324.84 442.163 320.263 436.516 320.263C430.869 320.263 426.291 324.84 426.291 330.487C426.291 336.134 430.869 340.712 436.516 340.712Z" fill="white"/>
<g opacity="0.28">
<path opacity="0.28" d="M516.714 358.501C520.511 344.691 512.394 330.418 498.584 326.621C484.774 322.824 470.501 330.941 466.704 344.751C462.907 358.561 471.024 372.834 484.834 376.631C498.644 380.428 512.917 372.311 516.714 358.501Z" fill="#9DCAF3"/>
<path opacity="0.28" d="M484.851 376.591C492.008 378.543 499.258 377.335 505.207 373.71C502.883 366.738 497.306 361.068 489.684 358.93C482.062 356.885 474.347 358.93 468.863 363.671C472.023 369.806 477.693 374.639 484.851 376.591Z" fill="white"/>
<path opacity="0.28" d="M493.216 356.327C498.863 356.327 503.441 351.75 503.441 346.103C503.441 340.456 498.863 335.878 493.216 335.878C487.569 335.878 482.991 340.456 482.991 346.103C482.991 351.75 487.569 356.327 493.216 356.327Z" fill="white"/>
</g>
<path d="M573.447 374.123C577.244 360.313 569.127 346.039 555.317 342.242C541.507 338.445 527.234 346.563 523.437 360.373C519.64 374.183 527.757 388.456 541.567 392.253C555.377 396.05 569.65 387.933 573.447 374.123Z" fill="#9DCAF3"/>
<path d="M541.551 392.208C548.709 394.16 555.959 392.951 561.908 389.326C559.584 382.355 554.007 376.684 546.385 374.547C538.763 372.502 531.048 374.547 525.563 379.287C528.724 385.422 534.394 390.256 541.551 392.208Z" fill="white"/>
<path d="M549.917 371.944C555.564 371.944 560.142 367.366 560.142 361.719C560.142 356.072 555.564 351.495 549.917 351.495C544.27 351.495 539.692 356.072 539.692 361.719C539.692 367.366 544.27 371.944 549.917 371.944Z" fill="white"/>
<g opacity="0.28">
<path opacity="0.28" d="M444.447 399.255C448.244 385.444 440.126 371.171 426.316 367.374C412.506 363.577 398.233 371.694 394.436 385.504C390.639 399.315 398.756 413.588 412.566 417.385C426.376 421.182 440.65 413.065 444.447 399.255Z" fill="#9DCAF3"/>
<path opacity="0.28" d="M412.627 417.397C419.784 419.349 427.035 418.141 432.984 414.515C430.66 407.544 425.083 401.874 417.46 399.736C409.838 397.691 402.123 399.736 396.639 404.477C399.8 410.611 405.47 415.445 412.627 417.397Z" fill="white"/>
<path opacity="0.28" d="M420.992 397.133C426.639 397.133 431.217 392.555 431.217 386.908C431.217 381.261 426.639 376.684 420.992 376.684C415.345 376.684 410.768 381.261 410.768 386.908C410.768 392.555 415.345 397.133 420.992 397.133Z" fill="white"/>
</g>
<path d="M501.18 414.876C504.977 401.066 496.86 386.793 483.05 382.996C469.24 379.199 454.966 387.316 451.169 401.126C447.372 414.936 455.49 429.209 469.3 433.006C483.11 436.803 497.383 428.686 501.18 414.876Z" fill="#9DCAF3"/>
<path d="M469.328 433.013C476.485 434.965 483.735 433.757 489.684 430.132C487.36 423.16 481.783 417.49 474.161 415.352C466.539 413.307 458.824 415.352 453.34 420.093C456.5 426.228 462.17 431.061 469.328 433.013Z" fill="white"/>
<path d="M477.694 412.657C483.34 412.657 487.918 408.079 487.918 402.432C487.918 396.785 483.34 392.207 477.694 392.207C472.047 392.207 467.469 396.785 467.469 402.432C467.469 408.079 472.047 412.657 477.694 412.657Z" fill="white"/>
<g opacity="0.28">
<path opacity="0.28" d="M557.912 430.498C561.709 416.688 553.592 402.414 539.782 398.617C525.972 394.82 511.699 402.938 507.902 416.748C504.105 430.558 512.222 444.831 526.032 448.628C539.842 452.425 554.115 444.308 557.912 430.498Z" fill="#9DCAF3"/>
<path opacity="0.28" d="M526.028 448.629C533.186 450.581 540.436 449.373 546.385 445.748C544.061 438.776 538.484 433.106 530.862 430.968C523.24 428.923 515.525 430.968 510.041 435.709C513.294 441.844 518.871 446.584 526.028 448.629Z" fill="white"/>
<path opacity="0.28" d="M534.487 428.273C540.134 428.273 544.712 423.695 544.712 418.048C544.712 412.401 540.134 407.823 534.487 407.823C528.84 407.823 524.263 412.401 524.263 418.048C524.263 423.695 528.84 428.273 534.487 428.273Z" fill="white"/>
</g>
<path d="M550.939 288.844L576.873 332.997" stroke="#E0BAAD" stroke-width="5" stroke-miterlimit="10" stroke-linecap="round" stroke-linejoin="round"/>
<path d="M494.89 273.414L520.823 317.566" stroke="#E0BAAD" stroke-width="5" stroke-miterlimit="10" stroke-linecap="round" stroke-linejoin="round"/>
<path d="M520.08 401.038L546.013 445.283" stroke="#E0BAAD" stroke-width="5" stroke-miterlimit="10" stroke-linecap="round" stroke-linejoin="round"/>
<path d="M406.584 369.899L432.518 414.051" stroke="#E0BAAD" stroke-width="5" stroke-miterlimit="10" stroke-linecap="round" stroke-linejoin="round"/>
<path d="M479.738 328.72L505.672 372.873" stroke="#E0BAAD" stroke-width="5" stroke-miterlimit="10" stroke-linecap="round" stroke-linejoin="round"/>
<path d="M544.898 465.547L413.463 429.389C407.514 427.809 404.075 421.581 405.655 415.632L450.551 252.501C452.131 246.552 458.359 243.112 464.308 244.693L595.743 280.851C601.691 282.431 605.131 288.659 603.551 294.608L558.655 457.739C556.981 463.688 550.754 467.22 544.898 465.547Z" fill="url(#paint1_linear)"/>
<path d="M436.236 231.493C440.497 231.493 443.952 228.039 443.952 223.778C443.952 219.517 440.497 216.063 436.236 216.063C431.976 216.063 428.521 219.517 428.521 223.778C428.521 228.039 431.976 231.493 436.236 231.493Z" fill="#FF4D00"/>
<path d="M453.99 236.42C458.251 236.42 461.706 232.966 461.706 228.705C461.706 224.444 458.251 220.99 453.99 220.99C449.73 220.99 446.275 224.444 446.275 228.705C446.275 232.966 449.73 236.42 453.99 236.42Z" fill="#52C798"/>
<path d="M471.837 241.253C476.098 241.253 479.552 237.799 479.552 233.538C479.552 229.277 476.098 225.823 471.837 225.823C467.576 225.823 464.122 229.277 464.122 233.538C464.122 237.799 467.576 241.253 471.837 241.253Z" fill="#52C798"/>
<path d="M436.887 229.262C441.148 229.262 444.602 225.808 444.602 221.547C444.602 217.286 441.148 213.832 436.887 213.832C432.626 213.832 429.172 217.286 429.172 221.547C429.172 225.808 432.626 229.262 436.887 229.262Z" fill="url(#paint2_linear)"/>
<path d="M454.641 234.188C458.902 234.188 462.356 230.734 462.356 226.473C462.356 222.212 458.902 218.758 454.641 218.758C450.38 218.758 446.926 222.212 446.926 226.473C446.926 230.734 450.38 234.188 454.641 234.188Z" fill="url(#paint3_linear)"/>
<path d="M472.395 239.022C476.656 239.022 480.11 235.568 480.11 231.307C480.11 227.046 476.656 223.592 472.395 223.592C468.134 223.592 464.68 227.046 464.68 231.307C464.68 235.568 468.134 239.022 472.395 239.022Z" fill="url(#paint4_linear)"/>
<path d="M531.419 519.274C531.419 531.451 521.566 541.304 509.389 541.304C497.212 541.304 487.359 531.451 487.359 519.274C487.359 507.097 497.212 497.244 509.389 497.244C521.566 497.244 531.419 507.097 531.419 519.274Z" fill="#FFEEE7"/>
<path d="M588.213 571.791C588.213 576.811 584.216 580.808 579.197 580.808C574.177 580.808 570.18 576.718 570.18 571.791C570.18 566.772 574.177 562.775 579.197 562.775C584.123 562.775 588.213 566.772 588.213 571.791Z" fill="#FFEEE7"/>
<path d="M12.8379 510.164L101.05 486.369C106.813 484.789 113.041 486.741 116.945 491.295L158.866 538.515V542.977C158.866 549.762 149.478 551.993 142.971 553.759L64.3335 579.321C58.0128 580.994 51.2272 579.228 46.5796 574.58L21.4825 550.041L5.30877 527.082C1.86953 520.389 5.49467 512.116 12.8379 510.164Z" fill="#FFEEE7"/>
<path d="M133.49 551.063L65.4488 573.558C59.4998 575.231 44.9063 567.33 42.3966 563.983C35.4252 554.874 28.3608 548.553 17.3924 532.844C13.0237 526.617 6.05225 517.135 13.3955 514.998C44.7204 505.888 103.466 489.622 103.466 489.622C109.415 487.948 113.319 495.478 117.409 500.497C126.797 512.116 146.503 539.072 146.503 539.072C148.362 545.393 139.439 549.483 133.49 551.063Z" fill="url(#paint5_linear)"/>
<path opacity="0.21" d="M53.1796 570.119L89.8958 559.522L54.2021 510.257L16.9282 519.738L53.1796 570.119Z" fill="#52C798"/>
<path d="M264.088 420.558L204.599 446.956C204.599 446.956 199.672 426.693 194.002 427.157C192.608 427.25 190.842 427.994 188.89 429.016C183.034 431.991 175.504 437.382 171.693 435.709C168.161 434.222 157.843 424.648 151.616 418.699C148.734 415.91 146.782 414.051 146.782 414.051C146.782 414.051 141.763 405.314 133.49 386.351C132.375 383.656 130.608 379.473 128.656 374.825C125.124 366.459 121.034 356.421 118.804 350.936C117.781 348.334 117.13 346.754 117.13 346.754L125.403 344.43L151.058 337.272L183.498 328.163L222.817 400.294L264.088 420.558Z" fill="#F5C7B0"/>
<path d="M192.886 414.888C191.771 418.42 190.469 424.183 188.889 428.924C183.033 431.899 175.504 437.29 171.693 435.617C168.161 434.129 154.869 419.908 148.641 414.052C148.548 411.542 146.317 406.151 148.083 402.34C151.058 395.74 159.888 394.346 160.074 383.563C160.074 382.541 159.609 379.287 156.263 374.919C154.311 372.409 152.08 369.992 146.782 369.899C140.275 369.806 136.929 371.108 128.656 374.64C125.124 366.274 121.034 356.235 118.803 350.751C121.406 348.334 123.823 346.011 125.403 344.244L151.058 337.087C155.519 336.529 158.959 336.158 159.33 335.972C160.539 335.507 169.741 353.633 169.741 353.633L170.206 357.815L179.501 362.835L181.825 373.246C181.639 373.339 194.745 408.939 192.886 414.888Z" fill="url(#paint6_linear)"/>
<path d="M145.295 410.798C148.455 415.26 147.712 414.61 152.266 411.821C156.821 409.032 168.626 410.241 172.344 409.869C176.155 409.497 185.079 398.064 180.803 386.631C176.434 375.198 172.716 361.255 172.716 361.255L180.803 362.184C180.803 362.184 188.89 385.98 195.024 397.32C201.159 408.661 195.489 423.347 191.306 434.408C187.216 445.47 174.017 449.002 169.741 446.585C165.466 444.261 158.029 431.434 153.939 426.414C149.85 421.302 145.295 410.798 145.295 410.798Z" fill="#202020"/>
<path d="M222.538 400.202C222.538 400.295 222.538 400.295 222.538 400.202C222.166 399.923 220.958 398.528 218.262 394.996C215.102 390.999 214.637 390.07 212.778 388.676C210.919 387.281 205.807 385.143 203.855 384.028C200.415 382.169 196.697 377.893 194.466 373.896C194.281 373.524 194.002 373.245 193.63 372.967C193.444 372.409 193.258 371.944 192.979 371.479C190.748 367.668 181.36 371.108 177.084 369.249C176.898 369.156 176.805 369.156 176.62 369.063C176.527 368.97 176.341 368.877 176.248 368.784C175.69 368.412 175.132 367.854 174.575 367.111C174.296 366.739 173.924 366.367 173.645 365.995C173.18 365.437 172.623 364.694 172.158 364.043C170.671 361.905 169.09 359.489 167.789 357.258C167.51 356.793 167.231 356.235 166.953 355.863C166.581 355.213 166.209 354.562 165.837 353.911C165.372 353.168 165.001 352.424 164.722 351.959C164.35 351.309 164.164 350.937 164.164 350.937C164.071 350.937 163.885 350.844 163.513 350.844C161.747 350.565 156.449 350.379 149.57 354.283C141.019 359.21 136.278 359.303 129.493 359.117C122.707 358.931 124.938 365.809 124.938 365.809C124.938 365.809 119.082 368.877 109.787 360.697C100.492 352.517 101.793 338.946 106.812 333.741C110.716 329.651 113.133 330.116 123.823 329C127.541 328.628 130.98 326.119 134.791 322.772C135.535 322.122 136.371 321.378 137.208 320.634C138.509 319.426 139.996 318.125 141.484 316.823C147.525 311.618 155.055 306.041 165.93 303.066C179.129 299.441 188.053 304.461 193.165 309.48C193.909 310.224 194.559 310.874 195.117 311.618C195.675 312.269 196.233 313.012 196.697 313.57C196.883 313.756 196.976 314.035 197.162 314.221C198.37 315.987 198.928 317.195 198.928 317.195C204.877 317.474 209.525 319.891 213.15 323.516C213.986 324.353 214.73 325.189 215.381 326.119C217.147 328.442 218.541 331.045 219.657 333.834C222.538 341.177 223.189 349.636 221.887 356.142C221.609 357.444 221.423 358.838 221.237 360.325C221.144 360.883 221.144 361.533 221.051 362.184C221.051 362.463 220.958 362.835 220.958 363.114C220.028 376.778 222.073 395.74 222.445 399.551C222.538 399.923 222.538 400.109 222.538 400.202Z" fill="#202020"/>
<path d="M222.538 400.295C222.538 400.202 222.538 400.202 222.538 400.295C222.166 399.923 220.958 398.529 218.262 395.09C215.102 391.093 214.637 390.163 212.778 388.769C210.919 387.375 205.807 385.237 203.855 384.121C200.415 382.262 196.697 377.986 194.466 373.989C194.281 373.618 194.002 373.339 193.63 373.06C193.444 372.502 193.258 372.037 192.979 371.573C190.748 367.762 189.819 378.265 185.543 376.406C185.357 376.313 176.806 369.156 176.713 369.156C176.62 369.063 176.434 368.97 176.341 368.877C175.783 368.505 175.225 367.948 174.668 367.204C174.389 366.832 174.017 366.46 173.738 366.088C173.273 365.531 172.716 364.787 172.251 364.136C170.764 361.999 169.183 359.582 167.882 357.351C167.603 356.886 167.324 356.328 167.046 355.957C166.674 355.306 166.302 354.655 165.93 354.005C165.465 353.261 165.094 352.517 164.815 352.053C164.443 351.402 164.257 351.03 164.257 351.03C164.164 351.03 163.978 350.937 163.606 350.937C159.795 342.2 159.516 342.85 153.753 335.228C151.43 332.161 137.673 325.375 134.791 322.866C134.698 322.773 135.814 321.843 137.208 320.728C139.253 319.055 141.67 317.103 141.484 316.917C147.526 311.711 155.055 306.134 165.93 303.16C179.129 299.535 188.053 304.554 193.165 309.573C193.909 310.317 194.559 310.968 195.117 311.711C195.675 312.362 196.233 313.106 196.697 313.663C196.883 313.849 196.976 314.128 197.162 314.314C197.534 314.872 197.906 315.429 198.185 315.894C198.742 316.731 199.021 317.288 199.021 317.288C204.97 317.567 209.618 319.984 213.243 323.609C214.079 324.446 214.823 325.282 215.474 326.212C217.24 328.536 218.634 331.138 219.75 333.927C222.631 341.27 223.282 349.729 221.98 356.236C221.702 357.537 221.516 358.931 221.33 360.418C221.237 360.976 221.237 361.627 221.144 362.277C221.144 362.556 221.051 362.928 221.051 363.207C220.121 376.871 222.166 395.833 222.538 399.644C222.538 399.923 222.538 400.109 222.538 400.295C222.631 400.295 222.631 400.295 222.538 400.295C222.631 400.295 222.631 400.295 222.538 400.295Z" fill="url(#paint7_linear)"/>
<path d="M130.888 372.316C130.981 372.037 131.073 371.758 131.259 371.665C131.631 371.479 132.003 371.851 132.282 372.13C133.304 373.245 134.234 374.268 135.256 375.383C135.442 374.454 135.349 373.524 134.977 372.688C134.885 372.502 134.792 372.316 134.792 372.037C134.885 371.758 135.07 371.665 135.256 371.572C138.324 369.806 141.949 368.97 145.481 369.248C146.875 369.341 148.363 369.806 148.92 371.015C147.34 370.55 145.667 370.364 143.994 370.643C139.439 371.572 138.789 375.011 136.372 377.986C135.07 379.566 134.699 378.823 133.397 377.335C132.282 376.034 130.423 374.268 130.888 372.316Z" fill="#202020"/>
<path d="M147.898 383.191C148.827 385.329 148.734 387.467 147.805 387.839C146.875 388.211 145.202 386.909 144.273 384.678C143.343 382.54 143.436 380.402 144.365 380.031C145.388 379.659 146.968 381.053 147.898 383.191Z" fill="#202020"/>
<path d="M138.138 399.086L136 400.573C135.907 400.666 135.349 400.015 134.698 399.179L132.003 395.182C131.445 394.345 131.073 393.508 131.166 393.416L133.304 391.928C133.397 391.835 133.955 392.486 134.605 393.323L137.301 397.32C137.859 398.249 138.23 398.993 138.138 399.086Z" stroke="#202020" stroke-miterlimit="10"/>
<path d="M138.138 399.086L136 400.573C135.907 400.666 135.349 400.015 134.698 399.179L132.003 395.182C131.445 394.345 131.073 393.508 131.166 393.416L133.304 391.928C133.397 391.835 133.955 392.486 134.605 393.323L137.301 397.32C137.859 398.249 138.23 398.993 138.138 399.086Z" fill="url(#paint8_linear)"/>
<path d="M136.372 387.839C139.811 395.09 143.064 402.433 146.225 409.776C146.504 410.334 146.782 410.985 146.69 411.635C146.597 413.122 145.109 414.052 143.808 414.703C143.436 414.889 142.971 415.074 142.6 415.074C141.484 414.982 141.019 413.68 140.741 412.658C138.789 404.106 136.093 395.833 132.654 387.746C132.468 387.282 132.282 386.817 132.375 386.259C133.025 383.935 136 387.003 136.372 387.839Z" fill="#E99B8D"/>
<path d="M185.543 359.488C185.543 359.488 178.665 359.302 173.459 363.857C167.046 369.527 147.154 383.563 147.154 383.563" stroke="#202020" stroke-miterlimit="10"/>
<path d="M137.022 392.3C137.022 392.3 135.442 392.486 134.977 392.858C134.419 393.323 134.791 394.996 134.791 394.996" stroke="#202020" stroke-miterlimit="10" stroke-linecap="round" stroke-linejoin="round"/>
<path d="M150.593 390.906L141.577 397.041C141.112 397.413 140.182 396.948 139.625 396.111L136.929 392.114C136.371 391.278 136.278 390.255 136.836 389.884L145.853 383.749C146.317 383.377 147.247 383.842 147.805 384.678L150.5 388.675C150.965 389.605 151.058 390.534 150.593 390.906Z" stroke="#202020" stroke-miterlimit="10"/>
<path d="M150.593 390.906L141.577 397.041C141.112 397.413 140.182 396.948 139.625 396.111L136.929 392.114C136.371 391.278 136.278 390.255 136.836 389.884L145.853 383.749C146.317 383.377 147.247 383.842 147.805 384.678L150.5 388.675C150.965 389.605 151.058 390.534 150.593 390.906Z" fill="url(#paint9_linear)"/>
<path d="M180.803 363.392C181.825 362.184 182.29 360.696 183.127 359.395C183.963 358.094 185.264 356.885 186.752 356.885C187.867 356.978 188.89 357.629 189.726 358.372C193.072 361.161 196.233 365.065 195.954 369.527C195.768 372.222 194.281 374.732 192.422 376.591C190.47 378.543 188.146 379.937 185.822 381.332" fill="#F5C7B0"/>
<path d="M181.826 366.831C182.662 365.809 183.22 364.693 184.149 363.764C184.986 362.834 186.287 362.091 187.496 362.277C188.983 362.463 190.005 363.764 190.749 365.065C191.4 366.088 192.05 367.203 192.608 368.319C192.794 368.69 192.98 368.969 192.98 369.341C193.073 369.899 192.794 370.457 192.515 371.014C191.4 373.152 189.076 374.546 186.659 374.732C186.287 374.732 185.823 374.732 185.451 374.546C185.079 374.268 184.8 373.896 184.614 373.431C183.778 371.107 181.454 367.296 181.826 366.831Z" fill="#E99B8D"/>
<path d="M180.803 363.392C181.825 362.184 182.29 360.696 183.127 359.395C183.963 358.094 185.264 356.885 186.752 356.885C187.867 356.978 188.89 357.629 189.726 358.372C193.072 361.161 196.233 365.065 195.954 369.527C195.768 372.222 194.281 374.732 192.422 376.591C190.47 378.543 188.146 379.937 185.822 381.332" fill="url(#paint10_linear)"/>
<path d="M159.517 426.972C164.443 422.696 165.744 421.674 169.37 418.42" stroke="#F5C7B0" stroke-miterlimit="10" stroke-linecap="round"/>
<path d="M153.289 562.403L139.161 555.525L152.453 539.072L159.238 548.275L153.289 562.403Z" fill="#F5C7B0"/>
<path d="M200.974 446.492C200.974 446.492 195.118 414.052 257.024 401.503L269.944 426.601C269.944 426.601 293.926 444.261 305.359 489.25C316.792 534.239 321.998 617.525 327.11 642.25C332.315 666.975 340.774 715.589 340.774 715.589H181.268C181.268 715.682 176.248 485.253 200.974 446.492Z" fill="#9DCAF3"/>
<path d="M160.911 534.89C160.911 534.89 161.097 525.966 152.266 513.511C144.458 502.449 122.986 501.706 122.986 501.706C122.986 501.706 130.33 513.975 139.439 518.344C139.439 518.344 143.529 543.348 154.59 546.416C156.728 546.88 160.446 538.701 160.911 534.89Z" fill="#F5C7B0"/>
<path d="M146.968 560.73L160.911 534.89L191.399 550.134L175.133 582.109L146.968 560.73Z" fill="#9DCAF3"/>
<path d="M327.017 642.342C326.366 639.275 325.716 635.371 325.065 630.816L180.989 637.416C180.524 681.568 181.268 715.774 181.268 715.774H340.681C340.681 715.681 332.222 666.974 327.017 642.342Z" fill="#9DCAF3"/>
<path opacity="0.2" d="M212.779 518.344L182.569 572.907C179.595 643.365 181.175 715.682 181.175 715.682C237.132 649.965 240.571 498.359 240.571 498.359L212.779 518.344Z" fill="black"/>
<path opacity="0.21" d="M95.7514 558.5L143.622 542.14L108.021 494.549L59.5 508.027L95.7514 558.5Z" fill="#52C798"/>
<path d="M106.907 529.871C102.538 533.682 95.1948 535.076 87.9445 533.124C84.5053 532.194 81.5308 530.614 79.207 528.569L85.8067 524.572C88.6882 527.082 93.3358 528.011 97.1468 526.71C98.1693 526.338 99.0988 525.874 99.7495 525.223L106.907 529.871Z" fill="#FF4D00"/>
<path d="M110.16 525.223C110.067 525.408 110.067 525.501 109.974 525.594L101.236 522.992C101.887 521.319 101.701 519.367 100.307 517.6C97.704 514.161 92.1269 512.674 87.7581 514.254C84.6907 515.37 83.0176 517.693 83.2964 520.203L74.373 520.017C74.1871 518.623 74.373 517.136 74.8378 515.741C77.3475 508.77 87.2004 505.145 96.9604 507.655C106.906 510.35 112.762 518.158 110.16 525.223Z" fill="#EDF4FC"/>
<path d="M84.5981 523.271C84.9699 523.736 85.3417 524.107 85.8065 524.479L79.2069 528.476C76.4183 526.059 74.7452 523.085 74.4663 520.018L83.3897 520.203C83.4827 521.319 83.8545 522.341 84.5981 523.271Z" fill="#52C798"/>
<path d="M109.974 525.688C109.324 527.268 108.208 528.755 106.907 529.871L99.7495 525.223C100.493 524.572 100.958 523.922 101.33 523.085L109.974 525.688Z" fill="#9DCAF3"/>
<path d="M117.968 530.15L117.038 528.941L113.971 529.964L114.807 531.172L117.968 530.15Z" fill="#EDF4FC"/>
<path d="M123.452 528.197L122.522 526.989L119.455 528.104L120.385 529.313L123.452 528.197Z" fill="#EDF4FC"/>
<path d="M129.029 526.245L128.099 525.037L124.939 526.153L125.868 527.361L129.029 526.245Z" fill="#EDF4FC"/>
<path d="M110.066 504.587C108.858 504.68 107.743 505.238 107.371 506.168C107.185 506.632 107.278 507.097 107.464 507.562L109.044 507.283C108.858 506.725 109.137 506.168 109.788 505.889C109.974 505.796 110.159 505.796 110.345 505.796L110.066 504.587Z" fill="#EDF4FC"/>
<path d="M111.368 504.681H111.275L110.903 505.796C111.368 505.889 111.74 506.075 111.926 506.447C112.39 507.097 112.112 507.748 111.368 508.027C110.81 508.213 110.16 508.12 109.602 507.841L108.672 508.771C108.951 508.956 109.323 509.049 109.602 509.142C111.368 509.607 113.134 508.957 113.599 507.748C114.064 506.54 113.041 505.145 111.368 504.681Z" fill="#FFC550"/>
<path d="M109.137 507.469C109.044 507.376 109.044 507.283 108.951 507.19L107.371 507.469C107.557 508.026 108.022 508.491 108.672 508.863L109.602 507.933C109.416 507.841 109.23 507.655 109.137 507.469Z" fill="#FFC550"/>
<path d="M111.182 504.68C110.81 504.587 110.345 504.587 109.974 504.587L110.252 505.796C110.438 505.796 110.624 505.796 110.81 505.889L111.182 504.68Z" fill="#FF4D00"/>
<path d="M118.525 521.97C119.547 522.621 120.942 522.807 122.057 522.342C122.615 522.156 123.08 521.877 123.358 521.412L121.871 520.762C121.499 521.226 120.756 521.412 120.012 521.226C119.826 521.134 119.64 521.134 119.454 520.948L118.525 521.97Z" fill="#52C798"/>
<path d="M117.596 521.226C117.596 521.226 117.689 521.226 117.596 521.226L118.99 520.761C118.804 520.482 118.711 520.111 118.804 519.832C118.99 519.181 119.92 518.902 120.756 519.088C121.407 519.274 121.779 519.646 121.965 520.111L123.545 520.018C123.452 519.739 123.359 519.553 123.173 519.274C122.244 518.066 120.292 517.508 118.711 518.066C117.224 518.53 116.667 520.018 117.596 521.226Z" fill="#EDF4FC"/>
<path d="M121.965 520.576C121.965 520.669 121.872 520.762 121.872 520.762L123.359 521.413C123.731 520.948 123.824 520.39 123.638 519.833L122.057 519.925C122.057 520.297 122.057 520.39 121.965 520.576Z" fill="#FF4D00"/>
<path d="M117.688 521.227C117.874 521.506 118.153 521.784 118.525 521.97L119.455 521.041C119.269 520.948 119.176 520.855 119.083 520.669L117.688 521.227Z" fill="#FFC550"/>
<path d="M118.061 515.184C118.804 514.533 118.897 513.511 118.247 512.581C117.875 512.116 117.41 511.837 116.945 511.559L116.202 512.581C116.852 512.86 117.224 513.511 117.038 513.975C116.945 514.161 116.852 514.254 116.759 514.347L118.061 515.184Z" fill="#9DCAF3"/>
<path d="M117.131 515.741L116.388 514.626C116.016 514.812 115.551 514.812 115.086 514.719C114.25 514.533 113.692 513.789 113.878 513.139C114.064 512.674 114.529 512.395 115.086 512.395L114.808 511.187C114.436 511.187 114.157 511.279 113.785 511.372C112.205 511.93 111.74 513.324 112.577 514.533C113.599 515.834 115.551 516.299 117.131 515.741Z" fill="#52C798"/>
<path d="M115.923 512.488C116.016 512.488 116.109 512.581 116.295 512.581L117.039 511.559C116.388 511.28 115.644 511.094 114.901 511.187L115.18 512.395C115.366 512.395 115.645 512.395 115.923 512.488Z" fill="#FFC550"/>
<path d="M117.224 515.741C117.596 515.648 117.875 515.463 118.154 515.184L116.852 514.347C116.76 514.44 116.574 514.533 116.388 514.626L117.224 515.741Z" fill="#EDF4FC"/>
<path d="M170.857 397.506C170.857 397.506 205.435 365.902 253.863 377.057C302.384 388.211 337.613 431.62 409.559 421.395C481.411 411.17 516.268 408.846 557.074 438.405C597.88 467.964 592.024 535.54 656.812 526.524C721.6 517.415 781.368 477.352 860.749 489.808C940.13 502.263 1065.24 565.099 1081.79 622.358C1098.24 679.616 1028.16 742.824 970.433 714.009C912.71 685.194 876.365 606.37 797.542 590.196C697.525 569.561 619.352 623.194 576.966 597.261C479.552 537.585 509.761 457.925 457.894 477.631C378.977 507.655 315.305 493.34 274.313 443.146C233.228 393.044 206.272 399.365 171.136 417.863L170.857 397.506Z" fill="url(#paint11_linear)"/>
<path d="M16.9282 519.738L103.839 351.587C103.839 351.587 143.436 382.726 158.123 390.72C198.929 412.936 196.605 456.159 196.605 456.159L143.715 542.14L56.9907 574.487L16.9282 519.738Z" fill="url(#paint12_linear)"/>
<path d="M22.3193 521.876L89.9886 394.252C89.9886 394.252 121.035 418.606 132.468 424.834C164.443 442.216 162.584 476.051 162.584 476.051L121.221 543.348L58.2919 565.657L22.3193 521.876Z" fill="url(#paint13_linear)"/>
<path d="M34.6816 520.761L84.9689 425.764C84.9689 425.764 108.021 443.889 116.573 448.537C140.368 461.457 138.974 486.647 138.974 486.647L108.114 536.749L61.359 553.387L34.6816 520.761Z" fill="url(#paint14_linear)"/>
<path d="M70.3755 574.766C70.3755 574.766 54.7595 547.81 45.0925 535.912C45.0925 535.912 24.457 531.265 24.457 534.89C24.457 538.515 43.2334 540.002 38.5858 547.159C33.9382 554.317 9.95647 528.476 9.95647 528.476C9.95647 528.476 -0.175332 564.913 15.3477 574.766C30.8708 584.619 67.2151 594.472 67.2151 594.472L70.3755 574.766Z" fill="#F5C7B0"/>
<path d="M64.8907 566.4L159.237 586.292C159.237 586.292 183.219 506.26 189.075 485.997C194.931 465.733 205.435 448.723 223.096 452.813C240.757 456.902 245.869 491.853 235.551 527.639C225.233 563.426 207.573 643.83 183.963 647.827C160.353 651.824 54.2012 595.866 54.2012 595.866L64.8907 566.4Z" fill="#9DCAF3"/>
<path d="M64.8907 566.4L159.237 586.292C159.237 586.292 183.219 506.26 189.075 485.997C194.931 465.733 205.435 448.723 223.096 452.813C240.757 456.902 245.869 491.853 235.551 527.639C225.233 563.426 207.573 643.83 183.963 647.827C160.353 651.824 54.2012 595.866 54.2012 595.866L64.8907 566.4Z" fill="url(#paint15_linear)"/>
</g>
<defs>
<linearGradient id="paint0_linear" x1="300.67" y1="156.407" x2="584.886" y2="234.55" gradientUnits="userSpaceOnUse">
<stop stop-color="white" stop-opacity="0.4"/>
<stop offset="0.9798" stop-color="white" stop-opacity="0.8899"/>
<stop offset="1" stop-color="white" stop-opacity="0.9"/>
</linearGradient>
<linearGradient id="paint1_linear" x1="428.061" y1="334.138" x2="581.02" y2="376.193" gradientUnits="userSpaceOnUse">
<stop stop-color="white" stop-opacity="0"/>
<stop offset="0.9798" stop-color="white" stop-opacity="0.4899"/>
<stop offset="1" stop-color="white" stop-opacity="0.5"/>
</linearGradient>
<linearGradient id="paint2_linear" x1="429.42" y1="219.5" x2="444.32" y2="223.597" gradientUnits="userSpaceOnUse">
<stop stop-color="white" stop-opacity="0"/>
<stop offset="0.9798" stop-color="white" stop-opacity="0.4899"/>
<stop offset="1" stop-color="white" stop-opacity="0.5"/>
</linearGradient>
<linearGradient id="paint3_linear" x1="447.191" y1="224.386" x2="462.091" y2="228.483" gradientUnits="userSpaceOnUse">
<stop stop-color="white" stop-opacity="0"/>
<stop offset="0.9798" stop-color="white" stop-opacity="0.4899"/>
<stop offset="1" stop-color="white" stop-opacity="0.5"/>
</linearGradient>
<linearGradient id="paint4_linear" x1="464.962" y1="229.272" x2="479.862" y2="233.368" gradientUnits="userSpaceOnUse">
<stop stop-color="white" stop-opacity="0"/>
<stop offset="0.9798" stop-color="white" stop-opacity="0.4899"/>
<stop offset="1" stop-color="white" stop-opacity="0.5"/>
</linearGradient>
<linearGradient id="paint5_linear" x1="10.4079" y1="530.346" x2="146.6" y2="528.117" gradientUnits="userSpaceOnUse">
<stop stop-color="white" stop-opacity="0.4"/>
<stop offset="0.9798" stop-color="white" stop-opacity="0.8899"/>
<stop offset="1" stop-color="white" stop-opacity="0.9"/>
</linearGradient>
<linearGradient id="paint6_linear" x1="118.68" y1="386.024" x2="193.033" y2="386.024" gradientUnits="userSpaceOnUse">
<stop stop-color="white" stop-opacity="0"/>
<stop offset="0.9798" stop-color="white" stop-opacity="0.4899"/>
<stop offset="1" stop-color="white" stop-opacity="0.5"/>
</linearGradient>
<linearGradient id="paint7_linear" x1="134.687" y1="351.064" x2="222.592" y2="351.064" gradientUnits="userSpaceOnUse">
<stop stop-color="white" stop-opacity="0"/>
<stop offset="0.9798" stop-color="white" stop-opacity="0.4899"/>
<stop offset="1" stop-color="white" stop-opacity="0.5"/>
</linearGradient>
<linearGradient id="paint8_linear" x1="132.943" y1="396.533" x2="135.685" y2="394.822" gradientUnits="userSpaceOnUse">
<stop stop-color="white" stop-opacity="0"/>
<stop offset="0.9798" stop-color="white" stop-opacity="0.4899"/>
<stop offset="1" stop-color="white" stop-opacity="0.5"/>
</linearGradient>
<linearGradient id="paint9_linear" x1="137.636" y1="393.579" x2="149.997" y2="387.575" gradientUnits="userSpaceOnUse">
<stop stop-color="white" stop-opacity="0"/>
<stop offset="0.9798" stop-color="white" stop-opacity="0.4899"/>
<stop offset="1" stop-color="white" stop-opacity="0.5"/>
</linearGradient>
<linearGradient id="paint10_linear" x1="170.591" y1="378.466" x2="194.463" y2="363.898" gradientUnits="userSpaceOnUse">
<stop stop-color="white" stop-opacity="0"/>
<stop offset="0.9798" stop-color="white" stop-opacity="0.4899"/>
<stop offset="1" stop-color="white" stop-opacity="0.5"/>
</linearGradient>
<linearGradient id="paint11_linear" x1="170.817" y1="547.946" x2="1084.17" y2="547.946" gradientUnits="userSpaceOnUse">
<stop stop-color="white" stop-opacity="0"/>
<stop offset="0.9798" stop-color="white" stop-opacity="0.4899"/>
<stop offset="1" stop-color="white" stop-opacity="0.5"/>
</linearGradient>
<linearGradient id="paint12_linear" x1="168.393" y1="367.381" x2="77.9952" y2="544.16" gradientUnits="userSpaceOnUse">
<stop stop-color="white" stop-opacity="0.2"/>
<stop offset="1" stop-color="#52C798" stop-opacity="0.3"/>
</linearGradient>
<linearGradient id="paint13_linear" x1="139.746" y1="406.536" x2="71.0045" y2="540.965" gradientUnits="userSpaceOnUse">
<stop stop-color="white" stop-opacity="0"/>
<stop offset="0.9798" stop-color="white" stop-opacity="0.4899"/>
<stop offset="1" stop-color="white" stop-opacity="0.5"/>
</linearGradient>
<linearGradient id="paint14_linear" x1="121.991" y1="434.986" x2="70.8532" y2="534.989" gradientUnits="userSpaceOnUse">
<stop stop-color="white" stop-opacity="0"/>
<stop offset="0.9798" stop-color="white" stop-opacity="0.4899"/>
<stop offset="1" stop-color="white" stop-opacity="0.5"/>
</linearGradient>
<linearGradient id="paint15_linear" x1="54.19" y1="550.122" x2="240.878" y2="550.122" gradientUnits="userSpaceOnUse">
<stop stop-color="white" stop-opacity="0"/>
<stop offset="0.9798" stop-color="white" stop-opacity="0.4899"/>
<stop offset="1" stop-color="white" stop-opacity="0.5"/>
</linearGradient>
</defs>
</svg>
