<?xml version="1.0" encoding="utf-8"?>
<svg width="705" height="700" viewBox="0 0 705 700" fill="none" xmlns="http://www.w3.org/2000/svg">
<mask id="mask0" mask-type="alpha" maskUnits="userSpaceOnUse" x="0" y="0" width="705" height="700">
<rect width="705" height="700" fill="#C4C4C4"/>
</mask>
<g mask="url(#mask0)">
<path d="M1.71983 185.268C18.3822 173.335 40.7016 196.172 48.7243 210.676C56.7469 225.181 67.0323 239.171 89.7632 249.046C112.494 258.922 112.288 279.496 101.591 285.771C90.8945 292.046 68.7809 289.371 31.0333 271.472C-6.61137 253.675 -26.2565 205.327 1.71983 185.268Z" fill="#FFEEE7"/>
<path d="M1.71983 185.268C18.3822 173.335 40.7016 196.172 48.7243 210.676C56.7469 225.181 67.0323 239.171 89.7632 249.046C112.494 258.922 112.288 279.496 101.591 285.771C90.8945 292.046 68.7809 289.371 31.0333 271.472C-6.61137 253.675 -26.2565 205.327 1.71983 185.268Z" fill="url(#paint0_linear)"/>
<path d="M356.988 27.9284C310.788 57.1801 280.423 51.086 200.291 17.1332C115.635 -18.7349 15.8402 7.55674 10.7069 80.7729C7.66169 124.215 38.2005 159.735 59.4298 176.537C89.5336 200.391 77.9619 219.457 101.801 247.316C124.423 273.869 186.022 262.899 203.424 289.974C213.951 306.341 203.337 332.981 203.163 347.346C202.727 383.127 222.826 401.583 233.44 413.859C287.123 476.193 384.395 456.779 416.325 398.798C448.256 340.817 494.978 453.993 564.147 414.468C633.316 374.944 723.628 283.88 700.224 116.119C676.732 -51.643 609.216 44.5566 564.06 52.9142C525.256 60.053 450.344 -31.2713 356.988 27.9284Z" fill="#FFEEE7"/>
<path opacity="0.55" d="M325.505 36.9302H87.8085C78.963 36.9302 71.7632 44.131 71.7632 52.9778V303.052C71.7632 311.899 78.963 319.1 87.8085 319.1H325.505C334.35 319.1 341.55 311.899 341.55 303.052V52.9778C341.653 44.131 334.453 36.9302 325.505 36.9302Z" fill="#E0BAAD"/>
<path d="M316.66 27.5688H78.9633C70.1178 27.5688 62.918 34.7697 62.918 43.6164V293.691C62.918 302.538 70.1178 309.739 78.9633 309.739H316.66C325.505 309.739 332.705 302.538 332.705 293.691V43.6164C332.808 34.7697 325.608 27.5688 316.66 27.5688Z" fill="white"/>
<path d="M316.66 27.5688H78.9633C70.1178 27.5688 62.918 34.7697 62.918 43.6164V66.762H332.808V43.6164C332.808 34.7697 325.608 27.5688 316.66 27.5688Z" fill="#FF4D00"/>
<path d="M80.8142 53.0802C83.7681 53.0802 86.1627 50.6853 86.1627 47.731C86.1627 44.7767 83.7681 42.3818 80.8142 42.3818C77.8604 42.3818 75.4658 44.7767 75.4658 47.731C75.4658 50.6853 77.8604 53.0802 80.8142 53.0802Z" fill="white"/>
<path d="M105.191 53.0807C108.145 53.0807 110.539 50.6858 110.539 47.7315C110.539 44.7772 108.145 42.3823 105.191 42.3823C102.237 42.3823 99.8423 44.7772 99.8423 47.7315C99.8423 50.6858 102.237 53.0807 105.191 53.0807Z" fill="white"/>
<path d="M135.019 47.7312C135.019 50.7144 132.653 53.0804 129.67 53.0804C126.687 53.0804 124.322 50.7144 124.322 47.7312C124.322 44.748 126.687 42.382 129.67 42.382C132.55 42.2791 135.019 44.748 135.019 47.7312Z" fill="white"/>
<path d="M308.946 40.5303H291.667V42.7934H308.946V40.5303Z" fill="white"/>
<path d="M308.946 46.0854H291.666V48.3486H308.946V46.0854Z" fill="white"/>
<path d="M308.946 51.6401H291.666V53.9033H308.946V51.6401Z" fill="white"/>
<path d="M302.671 92.0674H93.0537V168.602H302.671V92.0674Z" fill="#9DCAF3"/>
<path d="M302.671 199.36H93.0537V275.895H302.671V199.36Z" fill="#9DCAF3"/>
<path d="M302.671 92.0674H93.0537V168.602H302.671V92.0674Z" fill="url(#paint1_linear)"/>
<path d="M302.671 199.36H93.0537V275.895H302.671V199.36Z" fill="url(#paint2_linear)"/>
<path d="M200.743 363.951C200.743 382.262 185.932 397.075 167.623 397.075C149.315 397.075 134.504 382.262 134.504 363.951C134.504 345.64 149.315 330.827 167.623 330.827C185.932 330.827 200.743 345.64 200.743 363.951Z" fill="#FFEEE7"/>
<path d="M539.648 483.177C539.648 489.657 534.402 495.007 527.819 495.007C521.34 495.007 515.991 489.76 515.991 483.177C515.991 476.696 521.237 471.347 527.819 471.347C534.402 471.45 539.648 476.696 539.648 483.177Z" fill="#FFEEE7"/>
<path d="M200.743 363.951C200.743 382.262 185.932 397.075 167.623 397.075C149.315 397.075 134.504 382.262 134.504 363.951C134.504 345.64 149.315 330.827 167.623 330.827C185.932 330.827 200.743 345.64 200.743 363.951Z" fill="url(#paint3_linear)"/>
<path d="M539.648 483.177C539.648 489.657 534.402 495.007 527.819 495.007C521.34 495.007 515.991 489.76 515.991 483.177C515.991 476.696 521.237 471.347 527.819 471.347C534.402 471.45 539.648 476.696 539.648 483.177Z" fill="url(#paint4_linear)"/>
<path d="M529.568 27.3632L512.186 56.6809L592.823 96.1826L580.584 126.735L646.41 164.282L640.342 178.992L683.747 175.083L661.736 135.993L652.89 151.115L592.618 119.431L609.794 85.3814L524.631 52.7719L538.722 21.4996L448.622 0L529.568 27.3632Z" fill="#FF4D00"/>
<path d="M512.186 56.681L592.824 96.1827L580.584 126.735L646.411 164.282L640.342 178.992L683.747 175.083L661.736 135.993L652.891 151.115L592.618 119.431L609.795 85.3815L524.631 52.772L512.186 56.681Z" fill="url(#paint5_linear)"/>
<path opacity="0.55" d="M387.527 194.011H277.678V329.284H387.527V194.011Z" fill="#E0BAAD"/>
<path d="M391.641 189.176H281.793V324.449H391.641V189.176Z" fill="white"/>
<path d="M336.717 245.445C348.759 245.445 358.522 235.681 358.522 223.636C358.522 211.592 348.759 201.828 336.717 201.828C324.674 201.828 314.912 211.592 314.912 223.636C314.912 235.681 324.674 245.445 336.717 245.445Z" fill="#9DCAF3"/>
<path d="M336.717 245.444C342.991 245.444 348.648 242.769 352.556 238.551C349.162 233.408 343.299 230.013 336.717 230.013C330.031 230.013 324.271 233.408 320.877 238.551C324.888 242.769 330.545 245.444 336.717 245.444Z" fill="white"/>
<path d="M336.717 227.339C341.489 227.339 345.357 223.47 345.357 218.698C345.357 213.926 341.489 210.057 336.717 210.057C331.945 210.057 328.077 213.926 328.077 218.698C328.077 223.47 331.945 227.339 336.717 227.339Z" fill="white"/>
<path d="M379.607 281.552H293.724V283.713H379.607V281.552Z" fill="#9DCAF3"/>
<path d="M379.607 290.501H293.724V292.662H379.607V290.501Z" fill="#9DCAF3"/>
<path d="M379.607 299.349H293.724V301.509H379.607V299.349Z" fill="#9DCAF3"/>
<path d="M346.591 308.298H293.724V310.459H346.591V308.298Z" fill="#9DCAF3"/>
<path d="M299.998 257.995L300.409 259.127C300.512 259.538 300.924 259.847 301.335 259.847H302.569C303.495 259.847 303.906 261.081 303.186 261.596L302.158 262.316C301.849 262.521 301.644 263.036 301.849 263.447L302.261 264.579C302.569 265.505 301.541 266.225 300.718 265.71L299.689 264.99C299.381 264.785 298.866 264.785 298.558 264.99L297.529 265.71C296.809 266.225 295.678 265.505 295.987 264.579L296.398 263.447C296.501 263.036 296.398 262.624 296.089 262.316L295.061 261.596C294.341 261.081 294.649 259.847 295.678 259.847H296.912C297.324 259.847 297.735 259.538 297.838 259.127L298.249 257.995C298.455 257.069 299.792 257.069 299.998 257.995Z" fill="#9DCAF3"/>
<path d="M319.026 257.995L319.437 259.127C319.54 259.538 319.951 259.847 320.363 259.847H321.597C322.523 259.847 322.934 261.081 322.214 261.596L321.186 262.316C320.877 262.521 320.671 263.036 320.877 263.447L321.288 264.579C321.597 265.505 320.569 266.225 319.746 265.71L318.717 264.99C318.409 264.785 317.894 264.785 317.586 264.99L316.557 265.71C315.837 266.225 314.706 265.505 315.014 264.579L315.426 263.447C315.529 263.036 315.426 262.624 315.117 262.316L314.089 261.596C313.369 261.081 313.677 259.847 314.706 259.847H315.94C316.351 259.847 316.763 259.538 316.866 259.127L317.277 257.995C317.483 257.069 318.717 257.069 319.026 257.995Z" fill="#9DCAF3"/>
<path d="M338.054 257.995L338.465 259.127C338.568 259.538 338.979 259.847 339.391 259.847H340.625C341.551 259.847 341.962 261.081 341.242 261.596L340.213 262.316C339.905 262.521 339.699 263.036 339.905 263.447L340.316 264.579C340.625 265.505 339.596 266.225 338.773 265.71L337.745 264.99C337.436 264.785 336.922 264.785 336.614 264.99L335.585 265.71C334.865 266.225 333.734 265.505 334.042 264.579L334.454 263.447C334.556 263.036 334.454 262.624 334.145 262.316L333.117 261.596C332.397 261.081 332.705 259.847 333.734 259.847H334.968C335.379 259.847 335.791 259.538 335.894 259.127L336.305 257.995C336.408 257.069 337.745 257.069 338.054 257.995Z" fill="#9DCAF3"/>
<path d="M356.979 257.995L357.391 259.127C357.494 259.538 357.905 259.847 358.316 259.847H359.551C360.476 259.847 360.888 261.081 360.168 261.596L359.139 262.316C358.831 262.521 358.625 263.036 358.831 263.447L359.242 264.579C359.551 265.505 358.522 266.225 357.699 265.71L356.671 264.99C356.362 264.785 355.848 264.785 355.539 264.99L354.511 265.71C353.791 266.225 352.659 265.505 352.968 264.579L353.379 263.447C353.482 263.036 353.379 262.624 353.071 262.316L352.042 261.596C351.322 261.081 351.631 259.847 352.659 259.847H353.894C354.305 259.847 354.717 259.538 354.819 259.127L355.231 257.995C355.436 257.069 356.774 257.069 356.979 257.995Z" fill="#9DCAF3"/>
<path d="M376.007 257.995L376.419 259.127C376.521 259.538 376.933 259.847 377.344 259.847H378.579C379.504 259.847 379.916 261.081 379.196 261.596L378.167 262.316C377.859 262.521 377.653 263.036 377.859 263.447L378.27 264.579C378.578 265.505 377.55 266.225 376.727 265.71L375.699 264.99C375.39 264.785 374.876 264.785 374.567 264.99L373.539 265.71C372.819 266.225 371.687 265.505 371.996 264.579L372.407 263.447C372.51 263.036 372.407 262.624 372.099 262.316L371.07 261.596C370.35 261.081 370.659 259.847 371.687 259.847H372.922C373.333 259.847 373.744 259.538 373.847 259.127L374.259 257.995C374.464 257.069 375.699 257.069 376.007 257.995Z" fill="#9DCAF3"/>
<path opacity="0.55" d="M652.274 194.011H542.425V329.284H652.274V194.011Z" fill="#E0BAAD"/>
<path d="M656.388 189.176H546.54V324.449H656.388V189.176Z" fill="white"/>
<path d="M601.464 245.445C613.507 245.445 623.269 235.681 623.269 223.636C623.269 211.592 613.507 201.828 601.464 201.828C589.421 201.828 579.659 211.592 579.659 223.636C579.659 235.681 589.421 245.445 601.464 245.445Z" fill="#9DCAF3"/>
<path d="M601.463 245.444C607.737 245.444 613.394 242.769 617.303 238.551C613.908 233.408 608.046 230.013 601.463 230.013C594.778 230.013 589.018 233.408 585.624 238.551C589.532 242.769 595.189 245.444 601.463 245.444Z" fill="white"/>
<path d="M601.464 227.339C606.236 227.339 610.104 223.47 610.104 218.698C610.104 213.926 606.236 210.057 601.464 210.057C596.692 210.057 592.824 213.926 592.824 218.698C592.824 223.47 596.692 227.339 601.464 227.339Z" fill="white"/>
<path d="M644.251 281.552H558.367V283.713H644.251V281.552Z" fill="#9DCAF3"/>
<path d="M644.251 290.501H558.367V292.662H644.251V290.501Z" fill="#9DCAF3"/>
<path d="M644.251 299.349H558.367V301.509H644.251V299.349Z" fill="#9DCAF3"/>
<path d="M611.234 308.298H558.367V310.459H611.234V308.298Z" fill="#9DCAF3"/>
<path d="M564.745 257.995L565.156 259.127C565.259 259.538 565.671 259.847 566.082 259.847H567.316C568.242 259.847 568.653 261.081 567.933 261.596L566.905 262.316C566.596 262.521 566.391 263.036 566.596 263.447L567.008 264.579C567.316 265.505 566.288 266.225 565.465 265.71L564.436 264.99C564.128 264.785 563.614 264.785 563.305 264.99L562.276 265.71C561.556 266.225 560.425 265.505 560.734 264.579L561.145 263.447C561.248 263.036 561.145 262.624 560.836 262.316L559.808 261.596C559.088 261.081 559.397 259.847 560.425 259.847H561.659C562.071 259.847 562.482 259.538 562.585 259.127L562.996 257.995C563.202 257.069 564.436 257.069 564.745 257.995Z" fill="#9DCAF3"/>
<path d="M583.773 257.995L584.184 259.127C584.287 259.538 584.699 259.847 585.11 259.847H586.344C587.27 259.847 587.681 261.081 586.961 261.596L585.933 262.316C585.624 262.521 585.418 263.036 585.624 263.447L586.036 264.579C586.344 265.505 585.316 266.225 584.493 265.71L583.464 264.99C583.156 264.785 582.641 264.785 582.333 264.99L581.304 265.71C580.584 266.225 579.453 265.505 579.761 264.579L580.173 263.447C580.276 263.036 580.173 262.624 579.864 262.316L578.836 261.596C578.116 261.081 578.424 259.847 579.453 259.847H580.687C581.099 259.847 581.51 259.538 581.613 259.127L582.024 257.995C582.127 257.069 583.464 257.069 583.773 257.995Z" fill="#9DCAF3"/>
<path d="M602.698 257.995L603.109 259.127C603.212 259.538 603.624 259.847 604.035 259.847H605.269C606.195 259.847 606.606 261.081 605.886 261.596L604.858 262.316C604.549 262.521 604.344 263.036 604.549 263.447L604.961 264.579C605.269 265.505 604.241 266.225 603.418 265.71L602.389 264.99C602.081 264.785 601.567 264.785 601.258 264.99L600.229 265.71C599.51 266.225 598.378 265.505 598.687 264.579L599.098 263.447C599.201 263.036 599.098 262.624 598.79 262.316L597.761 261.596C597.041 261.081 597.35 259.847 598.378 259.847H599.612C600.024 259.847 600.435 259.538 600.538 259.127L600.949 257.995C601.155 257.069 602.389 257.069 602.698 257.995Z" fill="#9DCAF3"/>
<path d="M621.726 257.995L622.138 259.127C622.241 259.538 622.652 259.847 623.063 259.847H624.298C625.223 259.847 625.635 261.081 624.915 261.596L623.886 262.316C623.578 262.521 623.372 263.036 623.578 263.447L623.989 264.579C624.298 265.505 623.269 266.225 622.446 265.71L621.418 264.99C621.109 264.785 620.595 264.785 620.286 264.99L619.258 265.71C618.538 266.225 617.406 265.505 617.715 264.579L618.126 263.447C618.229 263.036 618.126 262.624 617.818 262.316L616.789 261.596C616.069 261.081 616.378 259.847 617.406 259.847H618.641C619.052 259.847 619.464 259.538 619.566 259.127L619.978 257.995C620.184 257.069 621.418 257.069 621.726 257.995Z" fill="#9DCAF3"/>
<path d="M640.754 257.995L641.166 259.127C641.269 259.538 641.68 259.847 642.091 259.847H643.326C644.251 259.847 644.663 261.081 643.943 261.596L642.914 262.316C642.606 262.521 642.4 263.036 642.606 263.447L643.017 264.579C643.326 265.505 642.297 266.225 641.474 265.71L640.446 264.99C640.137 264.785 639.623 264.785 639.314 264.99L638.286 265.71C637.566 266.225 636.434 265.505 636.743 264.579L637.154 263.447C637.257 263.036 637.154 262.624 636.846 262.316L635.817 261.596C635.097 261.081 635.406 259.847 636.434 259.847H637.669C638.08 259.847 638.491 259.538 638.594 259.127L639.006 257.995C639.109 257.069 640.446 257.069 640.754 257.995Z" fill="#9DCAF3"/>
<path opacity="0.55" d="M529.157 184.445H399.149V344.612H529.157V184.445Z" fill="#E0BAAD"/>
<path d="M534.094 178.787H404.086V338.954H534.094V178.787Z" fill="white"/>
<path d="M469.09 245.343C483.348 245.343 494.907 233.783 494.907 219.523C494.907 205.263 483.348 193.703 469.09 193.703C454.832 193.703 443.274 205.263 443.274 219.523C443.274 233.783 454.832 245.343 469.09 245.343Z" fill="#9DCAF3"/>
<path d="M469.09 245.344C476.496 245.344 483.181 242.155 487.913 237.217C483.901 231.148 477.01 227.136 469.09 227.136C461.274 227.136 454.279 231.148 450.268 237.217C454.999 242.258 461.685 245.344 469.09 245.344Z" fill="white"/>
<path d="M469.09 223.946C474.714 223.946 479.273 219.387 479.273 213.762C479.273 208.138 474.714 203.578 469.09 203.578C463.467 203.578 458.908 208.138 458.908 213.762C458.908 219.387 463.467 223.946 469.09 223.946Z" fill="white"/>
<path d="M519.798 288.137H418.178V290.708H519.798V288.137Z" fill="#9DCAF3"/>
<path d="M519.798 298.63H418.178V301.202H519.798V298.63Z" fill="#9DCAF3"/>
<path d="M519.798 309.225H418.178V311.797H519.798V309.225Z" fill="#9DCAF3"/>
<path d="M480.713 319.82H418.178V322.392H480.713V319.82Z" fill="#9DCAF3"/>
<path d="M425.686 260.26L426.098 261.7C426.303 262.214 426.715 262.523 427.229 262.523H428.669C429.801 262.523 430.212 263.963 429.389 264.58L428.155 265.403C427.743 265.712 427.538 266.226 427.743 266.741L428.155 268.181C428.463 269.209 427.229 270.135 426.406 269.518L425.172 268.695C424.761 268.386 424.246 268.386 423.835 268.695L422.601 269.518C421.675 270.135 420.441 269.312 420.852 268.181L421.264 266.741C421.469 266.226 421.264 265.712 420.852 265.403L419.618 264.58C418.692 263.963 419.207 262.523 420.338 262.523H421.778C422.292 262.523 422.704 262.214 422.909 261.7L423.321 260.26C423.835 259.231 425.275 259.231 425.686 260.26Z" fill="#9DCAF3"/>
<path d="M448.108 260.26L448.52 261.7C448.725 262.214 449.137 262.523 449.651 262.523H451.091C452.222 262.523 452.634 263.963 451.811 264.58L450.577 265.403C450.165 265.712 449.96 266.226 450.165 266.741L450.577 268.181C450.885 269.209 449.651 270.135 448.828 269.518L447.594 268.695C447.183 268.386 446.668 268.386 446.257 268.695L445.023 269.518C444.097 270.135 442.863 269.312 443.274 268.181L443.685 266.741C443.891 266.226 443.685 265.712 443.274 265.403L442.04 264.58C441.114 263.963 441.628 262.523 442.76 262.523H444.2C444.714 262.523 445.125 262.214 445.331 261.7L445.743 260.26C446.257 259.231 447.8 259.231 448.108 260.26Z" fill="#9DCAF3"/>
<path d="M470.633 260.26L471.044 261.7C471.25 262.214 471.661 262.523 472.175 262.523H473.615C474.747 262.523 475.158 263.963 474.335 264.58L473.101 265.403C472.69 265.712 472.484 266.226 472.69 266.741L473.101 268.181C473.41 269.209 472.175 270.135 471.353 269.518L470.118 268.695C469.707 268.386 469.193 268.386 468.781 268.695L467.547 269.518C466.621 270.135 465.387 269.312 465.798 268.181L466.21 266.741C466.416 266.226 466.21 265.712 465.798 265.403L464.564 264.58C463.639 263.963 464.153 262.523 465.284 262.523H466.724C467.238 262.523 467.65 262.214 467.856 261.7L468.267 260.26C468.781 259.231 470.221 259.231 470.633 260.26Z" fill="#9DCAF3"/>
<path d="M493.055 260.26L493.466 261.7C493.672 262.214 494.084 262.523 494.598 262.523H496.038C497.169 262.523 497.581 263.963 496.758 264.58L495.523 265.403C495.112 265.712 494.906 266.226 495.112 266.741L495.523 268.181C495.832 269.209 494.598 270.135 493.775 269.518L492.541 268.695C492.129 268.386 491.615 268.386 491.204 268.695L489.969 269.518C489.044 270.135 487.809 269.312 488.221 268.181L488.632 266.741C488.838 266.226 488.632 265.712 488.221 265.403L486.987 264.58C486.061 263.963 486.575 262.523 487.707 262.523H489.147C489.661 262.523 490.072 262.214 490.278 261.7L490.689 260.26C491.204 259.231 492.746 259.231 493.055 260.26Z" fill="#9DCAF3"/>
<path d="M515.58 260.26L515.991 261.7C516.197 262.214 516.608 262.523 517.123 262.523H518.563C519.694 262.523 520.106 263.963 519.283 264.58L518.048 265.403C517.637 265.712 517.431 266.226 517.637 266.741L518.048 268.181C518.357 269.209 517.123 270.135 516.3 269.518L515.066 268.695C514.654 268.386 514.14 268.386 513.729 268.695L512.494 269.518C511.569 270.135 510.334 269.312 510.746 268.181L511.157 266.741C511.363 266.226 511.157 265.712 510.746 265.403L509.511 264.58C508.586 263.963 509.1 262.523 510.231 262.523H511.671C512.186 262.523 512.597 262.214 512.803 261.7L513.214 260.26C513.729 259.231 515.271 259.231 515.58 260.26Z" fill="#9DCAF3"/>
<path d="M264.616 237.216L251.245 250.589L264.924 264.271" stroke="white" stroke-width="2.7419" stroke-miterlimit="10" stroke-linecap="round" stroke-linejoin="round"/>
<path d="M671.713 237.216L685.084 250.589L671.404 264.271" stroke="white" stroke-width="2.7419" stroke-miterlimit="10" stroke-linecap="round" stroke-linejoin="round"/>
<path d="M461.589 350.034L474.136 350.185L474.565 314.287L462.018 314.137L461.589 350.034Z" fill="#6E311E"/>
<path d="M466.828 436.68C474.748 436.783 481.125 431.125 480.816 424.13L478.039 348.624L457.674 348.418L453.046 423.821C452.634 430.713 458.908 436.577 466.828 436.68Z" fill="#6E311E"/>
<path d="M466.828 436.68C474.748 436.783 481.125 431.125 480.816 424.13L478.039 348.624L457.674 348.418L453.046 423.821C452.634 430.713 458.908 436.577 466.828 436.68Z" fill="url(#paint6_linear)"/>
<path d="M410.258 214.791L524.118 284.742C524.118 284.742 537.18 261.391 536.769 254.601C536.357 247.709 525.352 211.396 522.883 208.516C520.415 205.738 489.559 183.21 481.844 182.078C474.13 180.947 459.011 178.889 451.811 182.387C444.405 185.782 410.258 214.791 410.258 214.791Z" fill="url(#paint7_linear)"/>
<path d="M522.06 305.213C507.66 317.763 488.735 325.272 468.062 325.066C423.423 324.552 387.629 287.828 388.144 243.183C388.452 221.58 397.092 201.315 412.52 186.296C428.051 171.174 448.416 163.048 470.016 163.253C491.615 163.459 511.877 172.203 526.894 187.633C542.014 203.064 550.139 223.535 549.934 245.137C549.728 269.106 538.928 290.502 522.06 305.213ZM430.211 199.155C429.285 199.875 428.463 200.698 427.64 201.521C416.326 212.631 409.949 227.444 409.743 243.285C409.537 259.127 415.503 274.146 426.611 285.462C437.719 296.777 452.53 303.155 468.37 303.361C501.078 303.773 528.128 277.438 528.437 244.623C528.643 228.781 522.677 213.762 511.569 202.446C500.461 191.131 485.65 184.753 469.81 184.547C455.102 184.547 441.216 189.691 430.211 199.155Z" fill="#FF4D00" stroke="#FF4D00" stroke-miterlimit="10"/>
<path d="M522.06 305.213C507.66 317.763 488.735 325.272 468.062 325.066C423.423 324.552 387.629 287.828 388.144 243.183C388.452 221.58 397.092 201.315 412.52 186.296C428.051 171.174 448.416 163.048 470.016 163.253C491.615 163.459 511.877 172.203 526.894 187.633C542.014 203.064 550.139 223.535 549.934 245.137C549.728 269.106 538.928 290.502 522.06 305.213ZM430.211 199.155C429.285 199.875 428.463 200.698 427.64 201.521C416.326 212.631 409.949 227.444 409.743 243.285C409.537 259.127 415.503 274.146 426.611 285.462C437.719 296.777 452.53 303.155 468.37 303.361C501.078 303.773 528.128 277.438 528.437 244.623C528.643 228.781 522.677 213.762 511.569 202.446C500.461 191.131 485.65 184.753 469.81 184.547C455.102 184.547 441.216 189.691 430.211 199.155Z" fill="url(#paint8_linear)"/>
<path d="M469.192 113.259V119.843V120.357C469.398 120.357 469.501 120.254 469.707 120.254C470.632 120.049 471.352 119.74 471.867 119.226C472.484 118.608 472.689 117.786 472.689 116.86C472.689 116.037 472.381 115.317 471.661 114.802C471.044 114.185 470.221 113.774 469.192 113.259Z" fill="#9DCAF3"/>
<path d="M465.285 102.56C465.285 102.766 465.182 103.075 465.182 103.281C465.182 104.104 465.49 104.721 466.107 105.338C466.724 105.852 467.547 106.367 468.473 106.881V105.955V100.297C467.239 100.297 466.313 100.709 465.902 101.223C465.593 101.532 465.387 102.046 465.285 102.56Z" fill="#9DCAF3"/>
<path d="M492.027 110.379C492.027 107.087 491.307 104.001 490.072 101.223C489.969 101.018 489.867 100.915 489.867 100.709C487.707 96.0798 484.107 92.2737 479.581 89.9077C476.393 88.2618 472.793 87.3359 468.987 87.3359C467.444 87.3359 465.902 87.5417 464.359 87.7474C463.639 87.8503 462.919 88.056 462.302 88.2618C461.787 88.4675 461.273 88.5704 460.759 88.7761C453.662 91.4507 448.313 97.52 446.565 105.029C446.153 106.778 445.948 108.527 445.948 110.379C445.948 123.134 456.336 133.421 468.987 133.421C469.193 133.421 469.296 133.421 469.501 133.421C475.467 133.318 480.918 130.85 484.93 127.043C488.324 123.854 490.689 119.637 491.615 114.802C491.924 113.362 492.027 111.922 492.027 110.379ZM475.673 110.893C476.29 111.51 476.907 112.333 477.318 113.156C477.73 113.979 477.935 115.111 477.935 116.242C477.935 118.711 477.318 120.666 476.084 122.003C475.673 122.517 475.056 122.826 474.541 123.134C473.513 123.854 472.381 124.369 470.941 124.677V128.381H466.724V124.883C465.284 124.883 463.947 124.677 462.816 124.472H462.713C461.582 124.163 460.656 123.854 460.039 123.546L461.582 118.917C461.787 119.02 461.993 119.122 462.302 119.225C462.713 119.431 463.124 119.534 463.639 119.74C464.462 120.048 465.593 120.151 466.724 120.254V117.579V112.127C465.901 111.716 465.079 111.304 464.256 110.893C463.536 110.481 463.022 110.07 462.404 109.556C462.404 109.556 462.302 109.453 462.199 109.453C462.096 109.35 462.096 109.35 461.993 109.247C461.376 108.63 460.862 107.807 460.45 106.984C460.039 106.058 459.833 105.029 459.833 103.795C459.833 101.532 460.45 99.6802 461.684 98.4458C461.787 98.3429 462.096 98.2401 462.199 98.0343C462.404 97.9315 462.61 97.7257 462.713 97.6228C463.742 96.7999 465.079 96.1827 466.621 95.8741V95.6683V92.2737H468.061H470.736V94.2282V94.4339V95.8741C471.97 95.9769 472.998 96.0798 473.821 96.3884C473.924 96.3884 473.924 96.3884 474.027 96.4913C474.85 96.697 475.57 97.0056 476.29 97.2114L476.187 97.52L474.85 101.635C474.336 101.429 473.821 101.223 473.101 101.018C472.381 100.812 471.661 100.606 470.736 100.503V107.704V107.91V108.116C471.353 108.424 471.97 108.733 472.484 109.041C472.69 109.144 472.998 109.247 473.204 109.453C473.307 109.453 473.307 109.556 473.41 109.659C474.438 109.864 475.158 110.276 475.673 110.893Z" fill="#9DCAF3"/>
<path d="M468.987 146.794C449.445 146.794 433.605 130.849 433.605 111.407C433.605 91.8619 449.548 76.02 468.987 76.02C488.53 76.02 504.369 91.9647 504.369 111.407C504.369 130.952 488.53 146.794 468.987 146.794ZM468.987 76.7401C449.856 76.7401 434.428 92.2733 434.428 111.304C434.428 130.438 449.959 145.868 468.987 145.868C488.118 145.868 503.546 130.335 503.546 111.304C503.546 92.2733 488.015 76.7401 468.987 76.7401Z" fill="#9DCAF3"/>
<path opacity="0.48" d="M599.509 375.575C617.233 375.575 631.6 361.206 631.6 343.48C631.6 325.754 617.233 311.385 599.509 311.385C581.786 311.385 567.419 325.754 567.419 343.48C567.419 361.206 581.786 375.575 599.509 375.575Z" fill="#FF4D00"/>
<path d="M619.875 338.851L585.933 330.313L594.47 364.26L600.641 358.088L637.154 398.309L653.919 381.542L613.703 345.023L619.875 338.851Z" fill="white"/>
<path d="M279.632 386.274C279.632 386.274 284.672 408.082 283.437 422.278C280.763 453.962 263.792 456.534 260.192 461.574C254.741 469.392 261.838 471.552 257.827 476.49C257.827 476.49 332.087 514.037 370.041 505.705C420.851 494.595 338.979 441.72 338.979 441.72C338.979 441.72 351.733 428.759 341.036 425.158C334.659 422.998 323.242 401.19 323.242 401.19L279.632 386.274Z" fill="#F5C7B0"/>
<path d="M320.774 308.299C327.562 310.253 339.493 315.088 341.55 320.643C343.607 326.198 350.498 342.246 352.556 352.224C354.613 362.202 361.607 387.405 363.252 399.235C365.001 411.065 368.087 426.907 365.927 429.684C363.767 432.462 336.922 441.309 330.339 440.177C323.859 439.045 289.403 418.369 283.54 393.68C283.54 393.68 272.535 402.733 257.621 383.393C253.713 378.353 266.364 350.887 266.775 343.48C267.701 325.581 301.848 320.437 310.385 316.528C319.025 312.825 320.774 308.299 320.774 308.299Z" fill="#F5C7B0"/>
<path d="M271.712 370.534L275.723 359.424L273.049 355.618C273.049 355.618 267.289 333.707 268.626 333.193C269.963 332.678 296.705 312.825 300.408 314.368C304.008 315.911 328.076 315.396 328.076 315.396C328.076 315.396 339.596 336.896 335.687 338.439C331.779 339.982 304.625 347.492 295.78 355.618C291.357 359.63 291.254 363.951 291.563 367.448C291.974 373.517 294.031 376.604 294.854 377.426C302.98 386.273 317.791 380.101 321.39 381.644C324.99 383.187 336.51 396.766 336.51 396.766C336.51 396.766 360.784 423.306 357.389 426.186C353.995 429.067 343.298 436.37 340.727 437.399C338.156 438.428 326.43 435.548 321.39 435.753C316.351 435.959 305.037 427.524 299.071 423.82C293.105 420.22 277.677 380.821 277.677 380.821L271.712 370.534Z" fill="url(#paint9_linear)"/>
<path d="M341.653 320.643C341.653 320.643 336.202 313.854 330.648 318.997C325.094 324.14 311.928 330.21 301.129 332.473C290.329 334.736 278.912 333.296 278.912 333.296C278.912 333.296 283.335 348.315 281.689 353.15C280.043 357.984 275.004 364.774 276.032 369.814C277.061 374.752 278.912 379.587 278.912 379.587L281.998 394.503C281.998 394.503 284.055 401.395 284.363 407.053C284.672 412.711 283.54 422.278 283.54 422.278C283.54 422.278 264.512 394.812 251.45 385.039C238.49 375.266 226.353 350.578 241.782 335.559C241.782 335.559 234.685 311.282 258.855 299.246C283.026 287.313 303.288 296.674 313.06 289.679C322.831 282.787 324.476 280.524 330.751 281.038C338.773 281.656 349.881 292.045 348.236 305.727C346.487 319.511 341.653 320.643 341.653 320.643Z" fill="#202020"/>
<path d="M359.55 381.439C360.373 387.508 360.578 392.548 356.464 393.371C352.247 394.194 350.19 389.977 340.83 392.446C331.471 395.017 326.945 403.761 321.391 407.156C315.837 410.55 296.397 401.292 289.3 389.257C282.203 377.221 276.546 365.288 276.546 365.288L273.358 371.049C273.358 371.049 283.129 393.68 287.552 407.362C291.975 421.043 305.14 438.737 323.345 442.234C341.55 445.732 363.561 435.239 366.647 429.478C369.835 423.718 365.413 407.876 365.31 400.366C365.104 392.96 359.55 381.439 359.55 381.439Z" fill="#202020"/>
<path d="M241.575 335.559C241.575 335.559 234.478 311.282 258.649 299.246C265.849 295.646 272.74 294 279.117 293.28C273.255 303.67 271.917 316.631 276.752 328.667C277.472 330.313 278.192 331.959 279.117 333.502C278.912 333.502 278.809 333.502 278.809 333.502C278.809 333.502 283.231 348.521 281.586 353.355C279.94 358.19 274.9 364.98 275.929 370.02C276.957 374.958 278.809 379.793 278.809 379.793L281.894 394.709C281.894 394.709 283.951 401.601 284.26 407.259C284.568 412.917 283.54 422.483 283.54 422.483C283.54 422.483 264.409 395.12 251.449 385.245C238.284 375.266 226.25 350.578 241.575 335.559Z" fill="url(#paint10_linear)"/>
<path d="M328.488 360.35C330.956 368.991 333.631 377.529 336.51 385.965C336.716 386.685 337.025 387.405 337.539 387.919C338.67 389.051 340.625 388.742 342.167 388.331C342.682 388.228 343.196 388.022 343.505 387.714C344.327 386.891 343.813 385.45 343.196 384.319C338.465 375.781 334.556 366.831 331.471 357.573C331.265 357.059 331.059 356.441 330.648 356.133C328.282 354.59 328.179 359.322 328.488 360.35Z" fill="#E99B8D"/>
<path d="M326.637 338.748C326.123 338.028 325.608 336.999 326.225 336.382C326.843 335.662 328.077 336.176 328.797 336.896C329.414 337.616 330.134 338.542 331.06 338.542C331.368 337.514 331.162 336.279 330.442 335.456C330.237 335.25 330.031 334.942 330.031 334.633C330.031 334.325 330.237 334.119 330.545 333.913C335.997 329.593 344.328 329.49 349.882 333.707C350.396 334.016 350.705 334.942 350.19 335.148C348.545 334.736 346.796 334.325 345.151 333.913C343.505 333.502 341.859 333.193 340.111 333.296C337.848 333.605 335.791 334.839 334.351 336.588C333.631 337.514 332.191 342.143 331.368 342.451C329.928 343.171 327.357 339.571 326.637 338.748Z" fill="#202020"/>
<path d="M317.482 346.566C317.276 346.36 316.968 346.051 316.659 346.154C316.145 346.154 315.939 346.771 315.734 347.286C315.219 349.137 314.808 350.989 314.294 352.841C313.471 351.915 312.956 350.783 312.956 349.549C312.956 349.24 312.956 348.932 312.751 348.726C312.545 348.52 312.236 348.417 311.928 348.417C307.299 348.314 302.671 349.549 298.763 352.018C297.22 352.944 295.78 354.384 295.985 356.132C297.528 354.589 299.277 353.355 301.334 352.738C307.094 350.989 309.974 354.487 314.705 356.441C317.174 357.47 317.174 356.441 317.688 353.869C318.202 351.606 319.231 348.52 317.482 346.566Z" fill="#202020"/>
<path d="M345.664 413.328C354.51 407.156 353.584 405.304 359.138 404.172" stroke="#F5C7B0" stroke-miterlimit="10" stroke-linecap="round"/>
<path d="M310.694 368.991C311.517 371.46 313.163 373.209 314.294 372.797C315.426 372.386 315.734 370.123 314.911 367.551C314.089 365.082 312.443 363.333 311.312 363.745C310.077 364.156 309.872 366.522 310.694 368.991Z" fill="#202020"/>
<path d="M346.077 357.161C346.9 359.63 348.545 361.379 349.677 360.967C350.808 360.556 351.117 358.292 350.294 355.721C349.471 353.252 347.825 351.503 346.694 351.915C345.562 352.429 345.254 354.692 346.077 357.161Z" fill="#202020"/>
<path d="M359.344 357.985L354.407 356.544" stroke="#202020" stroke-miterlimit="10" stroke-linecap="round"/>
<path d="M266.467 369.918C266.467 369.918 269.45 369.506 276.958 370.843C284.569 372.181 304.934 374.958 304.934 374.958" stroke="#202020" stroke-miterlimit="10"/>
<path d="M337.23 366.934L329.311 369.506" stroke="#202020" stroke-miterlimit="10"/>
<path d="M309.151 383.291L329.928 376.81C330.751 376.501 331.265 375.678 330.956 374.752L329.105 368.683C328.796 367.86 327.974 367.346 327.048 367.654L306.271 374.135C305.449 374.444 304.934 375.267 305.243 376.193L307.094 382.262C307.3 382.982 308.226 383.496 309.151 383.291Z" stroke="#202020" stroke-miterlimit="10"/>
<path d="M340.522 373.518L361.299 367.037C362.121 366.728 362.636 365.905 362.327 364.979L360.476 358.91C360.167 358.087 359.344 357.573 358.419 357.882L337.642 364.362C336.819 364.671 336.305 365.494 336.613 366.42L338.465 372.489C338.773 373.312 339.699 373.723 340.522 373.518Z" stroke="#202020" stroke-miterlimit="10"/>
<path d="M340.522 373.518L361.299 367.037C362.121 366.728 362.636 365.905 362.327 364.979L360.476 358.91C360.167 358.087 359.344 357.573 358.419 357.882L337.642 364.362C336.819 364.671 336.305 365.494 336.613 366.42L338.465 372.489C338.773 373.312 339.699 373.723 340.522 373.518Z" fill="url(#paint11_linear)"/>
<path d="M309.151 383.291L329.928 376.81C330.751 376.501 331.265 375.678 330.956 374.752L329.105 368.683C328.796 367.86 327.974 367.346 327.048 367.654L306.271 374.135C305.449 374.444 304.934 375.267 305.243 376.193L307.094 382.262C307.3 382.982 308.226 383.496 309.151 383.291Z" fill="url(#paint12_linear)"/>
<path d="M271.712 370.534C269.964 370.329 268.421 369.403 266.775 368.888C265.129 368.374 263.175 368.374 261.941 369.506C261.015 370.431 260.707 371.769 260.604 373.003C259.884 377.838 260.192 383.393 263.689 386.891C265.849 389.051 268.935 389.977 271.918 390.182C274.901 390.388 277.883 389.771 280.866 389.257" fill="#F5C7B0"/>
<path d="M273.358 374.135C271.918 373.929 270.581 373.415 269.141 373.312C267.701 373.209 266.158 373.415 265.233 374.546C264.204 375.781 264.307 377.632 264.513 379.278C264.718 380.616 265.027 381.953 265.335 383.29C265.438 383.702 265.541 384.113 265.85 384.422C266.261 384.936 266.878 385.245 267.495 385.451C269.964 386.376 272.947 385.862 275.107 384.216C275.518 383.907 275.827 383.599 275.929 383.187C276.032 382.673 275.929 382.159 275.724 381.644C274.901 379.176 274.078 374.341 273.358 374.135Z" fill="#E99B8D"/>
<path d="M271.712 370.534C269.964 370.329 268.421 369.403 266.775 368.888C265.129 368.374 263.175 368.374 261.941 369.506C261.015 370.431 260.707 371.769 260.604 373.003C259.884 377.838 260.192 383.393 263.689 386.891C265.849 389.051 268.935 389.977 271.918 390.182C274.901 390.388 277.883 389.771 280.866 389.257" fill="url(#paint13_linear)"/>
<path d="M210.617 469.803C210.617 469.803 202.491 460.34 152.916 534.611C103.34 608.882 100.769 607.648 111.465 619.581C122.162 631.514 188.195 578.536 188.195 578.536L234.582 542.429L210.617 469.803Z" fill="#9DCAF3"/>
<path d="M702.98 621.638H-17V699.819H702.98V621.638Z" fill="#FFEEE7"/>
<path d="M374.361 699.818C366.338 586.662 370.35 452.007 370.35 452.007L342.373 444.291C342.373 444.291 359.961 484.102 333.528 488.422C291.563 495.417 278.809 441.72 278.809 441.72L268.112 447.172C271.506 455.71 309.357 571.026 317.174 699.715H374.361V699.818Z" fill="white"/>
<path d="M232.524 465.585L268.112 447.275C268.009 446.966 267.906 446.863 267.906 446.76L204.753 472.066C204.753 472.066 208.559 527.718 210.616 550.967C212.673 574.215 225.941 598.801 227.998 646.223C228.513 658.362 227.793 677.804 226.456 699.818H253.815L232.524 465.585Z" fill="#9DCAF3"/>
<path d="M253.712 699.819H317.174C309.357 571.129 271.403 455.813 268.112 447.275L232.524 465.586L253.712 699.819Z" fill="#9DCAF3"/>
<path d="M413.034 699.818H447.079C439.879 633.468 433.4 567.117 433.4 562.282C433.4 538.52 429.08 464.454 429.08 464.454L370.247 452.007L373.95 453.036C373.95 453.036 396.269 586.045 413.034 699.818Z" fill="#9DCAF3"/>
<path d="M374.361 699.818H413.034C396.269 586.045 374.052 453.036 374.052 453.036L370.35 452.007C370.35 452.007 366.338 586.662 374.361 699.818Z" fill="#9DCAF3"/>
<path d="M702.98 621.638H-17V699.819H702.98V621.638Z" fill="#FFEEE7"/>
<path d="M312.031 597.155C324.065 595.818 342.887 597.772 359.652 606.002C376.418 614.231 370.761 626.575 370.761 626.575C370.761 626.575 318.614 631.205 286.214 621.329C253.815 611.454 303.288 598.081 312.031 597.155Z" fill="#F5C7B0"/>
<path d="M167.624 590.365C167.624 590.365 285.392 603.121 289.506 606.824C293.62 610.528 298.557 622.049 289.506 625.752C280.455 629.455 111.465 627.398 111.465 627.398C111.465 627.398 88.9403 611.453 117.739 587.073C127.202 578.844 167.624 590.365 167.624 590.365Z" fill="#9DCAF3"/>
<path d="M167.624 590.365C167.624 590.365 285.392 603.121 289.506 606.824C293.62 610.528 298.557 622.049 289.506 625.752C280.455 629.455 111.465 627.398 111.465 627.398C111.465 627.398 88.9403 611.453 117.739 587.073C127.202 578.844 167.624 590.365 167.624 590.365Z" fill="url(#paint14_linear)"/>
<path d="M429.079 464.454C429.079 464.454 476.083 500.767 498.3 522.987C514.962 539.651 589.429 606.105 559.807 619.684C545.304 626.37 476.495 588.926 476.495 588.926L419.822 545.515L429.079 464.454Z" fill="#9DCAF3"/>
<path d="M503.545 590.365C503.545 590.365 385.777 603.121 381.663 606.824C377.549 610.528 372.612 622.049 381.663 625.752C390.714 629.455 559.704 627.398 559.704 627.398C559.704 627.398 582.229 611.453 553.43 587.073C543.967 578.844 503.545 590.365 503.545 590.365Z" fill="#9DCAF3"/>
<path d="M503.545 590.365C503.545 590.365 385.777 603.121 381.663 606.824C377.549 610.528 372.612 622.049 381.663 625.752C390.714 629.455 559.704 627.398 559.704 627.398C559.704 627.398 582.229 611.453 553.43 587.073C543.967 578.844 503.545 590.365 503.545 590.365Z" fill="url(#paint15_linear)"/>
<path d="M405.218 597.67C407.172 577.713 414.166 568.146 411.492 549.63C408.818 531.113 395.447 532.759 395.447 532.759C395.447 532.759 374.876 580.902 374.361 614.849C373.847 648.693 404.395 606.413 405.218 597.67Z" fill="#F5C7B0"/>
<path d="M372.406 585.839C372.612 584.502 371.892 560.019 375.183 559.608C377.961 559.299 379.606 580.182 379.606 580.182C379.606 580.182 385.263 615.26 383.823 616.906C382.383 618.552 380.635 629.25 374.361 623.284C367.984 617.317 372.406 585.839 372.406 585.839Z" fill="#F5C7B0"/>
<path d="M73.8204 574.214C68.2662 575.654 63.5349 569.791 63.9464 564.133C64.3578 558.475 68.1634 553.538 71.7633 548.908C75.3632 544.279 79.0659 539.239 79.3745 533.684C79.8888 524.426 71.0433 517.533 70.6319 508.275C70.2205 499.12 77.9345 491.405 84.8258 484.718C91.717 478.032 98.9168 469.494 97.0655 460.647C96.3455 457.458 94.4941 454.578 94.0827 451.286C93.5684 447.994 95.2141 443.776 98.6083 443.159C101.9 442.542 104.265 445.731 105.911 448.405C110.642 456.532 115.374 464.556 120.105 472.683C125.35 481.735 130.802 492.125 127.51 502.515C124.63 511.67 115.682 518.562 113.625 527.82C110.951 540.062 121.236 551.686 117.739 563.722C115.065 572.774 104.985 578.638 95.6255 579.358C86.2657 580.078 77.3174 576.889 68.7805 573.803" fill="#FCCE6C"/>
<path d="M97.7854 444.29C106.322 455.503 107.968 476.797 104.265 491.096C101.9 500.045 97.0655 508.686 96.654 517.739C96.3455 525.66 99.3283 533.066 100.151 540.781C101.385 553.434 93.7741 568.247 84.3115 577.608" stroke="#FFF8F6" stroke-width="0.4395" stroke-miterlimit="10"/>
<path d="M73.8204 574.214C68.2662 575.654 63.5349 569.791 63.9464 564.133C64.3578 558.475 68.1634 553.538 71.7633 548.908C75.3632 544.279 79.0659 539.239 79.3745 533.684C79.8888 524.426 71.0433 517.533 70.6319 508.275C70.2205 499.12 77.9345 491.405 84.8258 484.718C91.717 478.032 98.9168 469.494 97.0655 460.647C96.3455 457.458 94.4941 454.578 94.0827 451.286C93.5684 447.994 95.2141 443.776 98.6083 443.159C101.9 442.542 104.265 445.731 105.911 448.405C110.642 456.532 115.374 464.556 120.105 472.683C125.35 481.735 130.802 492.125 127.51 502.515C124.63 511.67 115.682 518.562 113.625 527.82C110.951 540.062 121.236 551.686 117.739 563.722C115.065 572.774 104.985 578.638 95.6255 579.358C86.2657 580.078 77.3174 576.889 68.7805 573.803" fill="url(#paint16_linear)"/>
<path d="M63.4321 590.983C57.5694 588.411 57.2608 579.461 61.375 574.524C65.3863 569.586 71.969 567.528 78.1402 565.78C84.3115 564.031 90.8942 561.973 94.8026 556.933C101.282 548.6 98.094 535.845 103.751 526.895C109.305 518.048 121.236 516.197 131.624 514.859C142.013 513.522 153.944 510.539 158.161 500.972C159.704 497.475 159.909 493.463 161.658 490.068C163.406 486.673 167.624 483.896 170.915 485.747C174.206 487.599 174.206 492.125 173.898 495.931C172.766 506.836 171.635 517.843 170.503 528.747C169.269 540.988 167.212 554.567 157.544 562.076C149.007 568.557 136.664 568.66 128.745 575.964C118.459 585.53 119.899 603.841 108.894 612.585C100.562 619.169 88.0143 617.523 79.2716 611.556C70.529 605.59 64.7692 596.229 59.215 587.176" fill="#52C798"/>
<path d="M169.372 486.158C169.578 502.72 157.132 523.911 144.481 534.712C136.561 541.399 126.687 546.131 120.413 554.36C114.962 561.561 112.802 570.614 108.379 578.535C101.282 591.29 84.8257 599.829 70.3232 601.783" stroke="#FFF8F6" stroke-width="0.6738" stroke-miterlimit="10"/>
<path d="M63.4321 590.983C57.5694 588.411 57.2608 579.461 61.375 574.524C65.3863 569.586 71.969 567.528 78.1402 565.78C84.3115 564.031 90.8942 561.973 94.8026 556.933C101.282 548.6 98.094 535.845 103.751 526.895C109.305 518.048 121.236 516.197 131.624 514.859C142.013 513.522 153.944 510.539 158.161 500.972C159.704 497.475 159.909 493.463 161.658 490.068C163.406 486.673 167.624 483.896 170.915 485.747C174.206 487.599 174.206 492.125 173.898 495.931C172.766 506.836 171.635 517.843 170.503 528.747C169.269 540.988 167.212 554.567 157.544 562.076C149.007 568.557 136.664 568.66 128.745 575.964C118.459 585.53 119.899 603.841 108.894 612.585C100.562 619.169 88.0143 617.523 79.2716 611.556C70.529 605.59 64.7692 596.229 59.215 587.176" fill="url(#paint17_linear)"/>
<path d="M60.9637 587.794C55.9238 591.805 47.9012 587.794 45.4327 581.827C42.9642 575.861 44.3013 569.174 45.6384 562.899C46.9755 556.624 48.3126 549.835 45.6384 543.971C41.4213 534.302 28.5646 531.113 23.319 521.957C18.1763 512.802 22.1876 501.486 25.8903 491.714C29.5931 481.941 32.6787 469.906 26.0961 461.779C23.7304 458.796 20.3362 456.738 18.0734 453.549C15.8106 450.463 15.3992 445.423 18.5877 443.263C21.7762 441.205 25.7875 443.365 28.976 445.423C38.13 451.595 47.1812 457.767 56.3352 463.836C66.5178 470.729 77.6261 478.855 79.5803 490.994C81.3288 501.589 75.4661 512.493 78.2432 522.883C81.8431 536.462 98.6084 543.766 101.18 557.653C103.134 568.043 95.6256 578.432 86.2658 583.267C76.9061 588.205 65.9007 588.822 55.3067 589.439" fill="#52C798"/>
<path d="M18.4849 444.909C33.193 452.521 46.0498 473.506 49.5469 489.76C51.7068 499.944 51.1925 510.848 55.5124 520.312C59.2152 528.541 66.2093 534.713 71.1463 542.326C79.0661 554.67 78.7575 573.084 73.7176 586.868" stroke="#FFF8F6" stroke-width="0.6738" stroke-miterlimit="10"/>
<path d="M67.3408 610.63C65.4894 614.128 60.3467 613.819 57.7753 610.939C55.1011 608.162 54.3811 603.944 53.6612 600.035C53.044 596.126 52.2212 591.908 49.4441 589.131C45.0214 584.605 37.513 585.839 32.6789 581.827C27.9476 577.815 27.5361 570.409 27.3304 563.825C27.1247 557.344 26.0962 549.732 20.8506 546.543C18.8964 545.411 16.6336 545 14.7822 543.765C12.9308 542.531 11.5937 539.754 12.828 537.799C14.0622 535.845 16.7364 536.153 18.7935 536.565C25.0676 537.902 31.2389 539.239 37.513 540.577C44.5071 542.12 52.2212 544.074 55.924 550.555C59.2153 556.213 58.4953 563.928 62.3009 569.174C67.2379 576.169 77.8319 576.272 82.2547 583.576C85.546 589.131 83.9003 596.846 79.9919 601.887C76.0834 606.927 70.3236 610.013 64.8723 612.894" fill="#FCCE6C"/>
<path d="M12.9307 538.828C22.4961 539.651 34.0158 548.6 39.4671 557.138C42.8613 562.488 45.0212 568.865 49.444 573.186C53.2496 576.992 58.3923 578.844 62.6093 582.033C69.5006 587.176 73.5119 597.874 73.8204 606.927" stroke="#FFF8F6" stroke-width="0.4395" stroke-miterlimit="10"/>
<path d="M72.3803 597.463C72.3803 597.463 62.8148 602.298 53.1465 596.537" stroke="#FFF8F6" stroke-width="0.4395" stroke-miterlimit="10"/>
<path d="M63.6377 664.843H110.848C113.213 664.843 115.168 663.094 115.476 660.728L121.956 606.001C122.265 603.224 120.105 600.858 117.328 600.858H57.1578C54.3808 600.858 52.2208 603.327 52.5294 606.001L59.0092 660.728C59.3178 663.094 61.3749 664.843 63.6377 664.843Z" fill="#FF4D00"/>
<path d="M51.0895 624.724H123.499C125.042 624.724 126.276 622.255 126.482 618.86L127.922 597.669C128.23 593.452 126.79 589.646 124.939 589.646H49.6496C47.7982 589.646 46.3582 593.452 46.6668 597.669L48.1068 618.86C48.3125 622.255 49.5467 624.724 51.0895 624.724Z" fill="#FF4D00"/>
<path d="M51.0895 624.724H123.499C125.042 624.724 126.276 622.255 126.482 618.86L127.922 597.669C128.23 593.452 126.79 589.646 124.939 589.646H49.6496C47.7982 589.646 46.3582 593.452 46.6668 597.669L48.1068 618.86C48.3125 622.255 49.5467 624.724 51.0895 624.724Z" fill="url(#paint18_linear)"/>
</g>
<defs>
<linearGradient id="paint0_linear" x1="-3.40115" y1="249.322" x2="96.8514" y2="223.794" gradientUnits="userSpaceOnUse">
<stop stop-color="white" stop-opacity="0"/>
<stop offset="0.9798" stop-color="white" stop-opacity="0.4899"/>
<stop offset="1" stop-color="white" stop-opacity="0.5"/>
</linearGradient>
<linearGradient id="paint1_linear" x1="93.0238" y1="130.36" x2="302.629" y2="130.36" gradientUnits="userSpaceOnUse">
<stop stop-color="white" stop-opacity="0"/>
<stop offset="0.9798" stop-color="white" stop-opacity="0.4899"/>
<stop offset="1" stop-color="white" stop-opacity="0.5"/>
</linearGradient>
<linearGradient id="paint2_linear" x1="93.0238" y1="237.673" x2="302.629" y2="237.673" gradientUnits="userSpaceOnUse">
<stop stop-color="white" stop-opacity="0"/>
<stop offset="0.9798" stop-color="white" stop-opacity="0.4899"/>
<stop offset="1" stop-color="white" stop-opacity="0.5"/>
</linearGradient>
<linearGradient id="paint3_linear" x1="134.495" y1="363.929" x2="200.708" y2="363.929" gradientUnits="userSpaceOnUse">
<stop stop-color="white" stop-opacity="0"/>
<stop offset="0.9798" stop-color="white" stop-opacity="0.4899"/>
<stop offset="1" stop-color="white" stop-opacity="0.5"/>
</linearGradient>
<linearGradient id="paint4_linear" x1="516.072" y1="483.219" x2="539.696" y2="483.219" gradientUnits="userSpaceOnUse">
<stop stop-color="white" stop-opacity="0"/>
<stop offset="0.9798" stop-color="white" stop-opacity="0.4899"/>
<stop offset="1" stop-color="white" stop-opacity="0.5"/>
</linearGradient>
<linearGradient id="paint5_linear" x1="512.177" y1="115.88" x2="683.776" y2="115.88" gradientUnits="userSpaceOnUse">
<stop stop-color="white" stop-opacity="0"/>
<stop offset="0.9798" stop-color="white" stop-opacity="0.4899"/>
<stop offset="1" stop-color="white" stop-opacity="0.5"/>
</linearGradient>
<linearGradient id="paint6_linear" x1="453.062" y1="392.538" x2="480.854" y2="392.538" gradientUnits="userSpaceOnUse">
<stop stop-color="white" stop-opacity="0"/>
<stop offset="0.9798" stop-color="white" stop-opacity="0.4899"/>
<stop offset="1" stop-color="white" stop-opacity="0.5"/>
</linearGradient>
<linearGradient id="paint7_linear" x1="478.916" y1="248.121" x2="458.961" y2="187.139" gradientUnits="userSpaceOnUse">
<stop stop-color="white" stop-opacity="0"/>
<stop offset="0.9798" stop-color="white" stop-opacity="0.4899"/>
<stop offset="1" stop-color="white" stop-opacity="0.5"/>
</linearGradient>
<linearGradient id="paint8_linear" x1="388.232" y1="244.107" x2="549.998" y2="244.107" gradientUnits="userSpaceOnUse">
<stop stop-color="white" stop-opacity="0"/>
<stop offset="0.9798" stop-color="white" stop-opacity="0.4899"/>
<stop offset="1" stop-color="white" stop-opacity="0.5"/>
</linearGradient>
<linearGradient id="paint9_linear" x1="348.57" y1="364.396" x2="280.321" y2="391.787" gradientUnits="userSpaceOnUse">
<stop stop-color="white" stop-opacity="0"/>
<stop offset="0.9798" stop-color="white" stop-opacity="0.4899"/>
<stop offset="1" stop-color="white" stop-opacity="0.5"/>
</linearGradient>
<linearGradient id="paint10_linear" x1="301.457" y1="348.576" x2="240.135" y2="373.187" gradientUnits="userSpaceOnUse">
<stop stop-color="white" stop-opacity="0"/>
<stop offset="0.9798" stop-color="white" stop-opacity="0.4899"/>
<stop offset="1" stop-color="white" stop-opacity="0.5"/>
</linearGradient>
<linearGradient id="paint11_linear" x1="361.072" y1="360.434" x2="337.686" y2="370.822" gradientUnits="userSpaceOnUse">
<stop stop-color="white" stop-opacity="0"/>
<stop offset="0.9798" stop-color="white" stop-opacity="0.4899"/>
<stop offset="1" stop-color="white" stop-opacity="0.5"/>
</linearGradient>
<linearGradient id="paint12_linear" x1="329.627" y1="370.191" x2="306.242" y2="380.579" gradientUnits="userSpaceOnUse">
<stop stop-color="white" stop-opacity="0"/>
<stop offset="0.9798" stop-color="white" stop-opacity="0.4899"/>
<stop offset="1" stop-color="white" stop-opacity="0.5"/>
</linearGradient>
<linearGradient id="paint13_linear" x1="291.206" y1="375.408" x2="260.519" y2="380.961" gradientUnits="userSpaceOnUse">
<stop stop-color="white" stop-opacity="0"/>
<stop offset="0.9798" stop-color="white" stop-opacity="0.4899"/>
<stop offset="1" stop-color="white" stop-opacity="0.5"/>
</linearGradient>
<linearGradient id="paint14_linear" x1="102.967" y1="606.008" x2="294.549" y2="606.008" gradientUnits="userSpaceOnUse">
<stop stop-color="white" stop-opacity="0"/>
<stop offset="0.9798" stop-color="white" stop-opacity="0.4899"/>
<stop offset="1" stop-color="white" stop-opacity="0.5"/>
</linearGradient>
<linearGradient id="paint15_linear" x1="570.345" y1="648.574" x2="437.699" y2="593.8" gradientUnits="userSpaceOnUse">
<stop stop-color="white" stop-opacity="0"/>
<stop offset="0.9798" stop-color="white" stop-opacity="0.4899"/>
<stop offset="1" stop-color="white" stop-opacity="0.5"/>
</linearGradient>
<linearGradient id="paint16_linear" x1="63.9023" y1="511.274" x2="128.511" y2="511.274" gradientUnits="userSpaceOnUse">
<stop stop-color="white" stop-opacity="0"/>
<stop offset="0.9798" stop-color="white" stop-opacity="0.4899"/>
<stop offset="1" stop-color="white" stop-opacity="0.5"/>
</linearGradient>
<linearGradient id="paint17_linear" x1="58.645" y1="550.842" x2="174.052" y2="550.842" gradientUnits="userSpaceOnUse">
<stop stop-color="white" stop-opacity="0"/>
<stop offset="0.9798" stop-color="white" stop-opacity="0.4899"/>
<stop offset="1" stop-color="white" stop-opacity="0.5"/>
</linearGradient>
<linearGradient id="paint18_linear" x1="46.6125" y1="607.209" x2="127.933" y2="607.209" gradientUnits="userSpaceOnUse">
<stop stop-color="white" stop-opacity="0"/>
<stop offset="0.9798" stop-color="white" stop-opacity="0.4899"/>
<stop offset="1" stop-color="white" stop-opacity="0.5"/>
</linearGradient>
</defs>
</svg>
