<?xml version="1.0" encoding="utf-8"?>
<svg width="700" height="690" viewBox="0 0 700 690" fill="none" xmlns="http://www.w3.org/2000/svg">
<g clip-path="url(#clip0)">
<g clip-path="url(#clip1)">
<path d="M876.9 360.1C861.6 321.8 837.6 310.1 814.7 285.5C786.8 255.5 767.9 233.6 775.2 195C787.1 131.9 792.1 -25.6002 606.5 -5.00017C539.9 2.39983 487.4 48.2998 449.1 94.0998C416.5 133.1 358 136.5 310.9 145.6C253 156.8 194 173.6 140.4 198.4C29.9002 249.3 -3.09983 322.5 1.40017 416.1C2.80017 444.4 7.20017 489 60.3002 541.1C132 611.5 236.1 620.9 361.4 588.6C390.1 581.2 417.2 569.6 445.4 560.9C474.7 551.8 505.2 545.9 536.1 543.2C608.1 536.9 682.7 548.3 751.8 528.9C788.3 518.7 821.8 499.9 848.3 475C881.3 443.9 893 400.6 876.9 360.1Z" fill="#FFEEE7"/>
<path opacity="0.55" d="M588.2 376.4L92.8001 377.4C86.2001 377.4 80.8001 372.1 80.8001 365.5L80.1001 37.2998C80.1001 30.6998 85.4001 25.2998 92.0001 25.2998L587.4 24.2998C594 24.2998 599.4 29.5998 599.4 36.1998L600.1 364.4C600.1 371 594.8 376.4 588.2 376.4Z" fill="#E0BAAD"/>
<path d="M610.9 353.6C610.9 360.2 605.6 365.6 599 365.6L282 366.2L103.6 366.6C96.9999 366.6 91.5999 361.3 91.5999 354.7L90.8999 26.5C90.8999 19.9 96.1999 14.5 102.8 14.5L598.2 13.5C604.8 13.5 610.2 18.8 610.2 25.4V38.2L610.9 353.6Z" fill="white"/>
<path d="M597.4 16.2998L104.1 17.2998C96.9001 17.2998 91.1001 23.1998 91.1001 30.3998V41.6998L610.4 40.5998V29.2998C610.4 22.0998 604.6 16.2998 597.4 16.2998Z" fill="#FF4D00"/>
<path d="M119.6 29.2996C119.6 31.5996 117.7 33.4996 115.4 33.4996C113.1 33.4996 111.2 31.5996 111.2 29.2996C111.2 26.9996 113.1 25.0996 115.4 25.0996C117.7 25.0996 119.6 26.9996 119.6 29.2996Z" fill="white"/>
<path d="M137.4 29.2C137.4 31.5 135.5 33.4 133.2 33.4C130.9 33.4 129 31.5 129 29.2C129 26.9 130.9 25 133.2 25C135.5 25.1 137.4 26.9 137.4 29.2Z" fill="white"/>
<path d="M155.1 29.2C155.1 31.5 153.2 33.4 150.9 33.4C148.6 33.4 146.7 31.5 146.7 29.2C146.7 26.9 148.6 25 150.9 25C153.2 25 155.1 26.9 155.1 29.2Z" fill="white"/>
<path d="M602.9 131.701L540.3 131.801C539.9 131.801 539.5 131.401 539.5 131.001V127.501C539.5 127.101 539.9 126.701 540.3 126.701L602.9 126.601C603.3 126.601 603.7 127.001 603.7 127.401V130.901C603.7 131.401 603.4 131.701 602.9 131.701Z" fill="#FFEEE7"/>
<path d="M602.9 120.5L540.3 120.6C539.9 120.6 539.5 120.2 539.5 119.8V116.3C539.5 115.9 539.9 115.5 540.3 115.5L602.9 115.4C603.3 115.4 603.7 115.8 603.7 116.2V119.7C603.7 120.2 603.3 120.5 602.9 120.5Z" fill="#FFEEE7"/>
<path d="M602.9 142.901L540.3 143.001C539.9 143.001 539.5 142.601 539.5 142.201V138.701C539.5 138.301 539.9 137.901 540.3 137.901L602.9 137.801C603.3 137.801 603.7 138.201 603.7 138.601V142.101C603.7 142.501 603.4 142.901 602.9 142.901Z" fill="#FFEEE7"/>
<path d="M603 154.1L540.4 154.2C540 154.2 539.6 153.8 539.6 153.4V149.9C539.6 149.5 540 149.1 540.4 149.1L603 149C603.4 149 603.8 149.4 603.8 149.8V153.3C603.8 153.7 603.4 154.1 603 154.1Z" fill="#FFEEE7"/>
<path d="M588.3 165.201L540.4 165.301C540 165.301 539.6 164.901 539.6 164.501V161.001C539.6 160.601 540 160.201 540.4 160.201L588.3 160.101C588.7 160.101 589.1 160.501 589.1 160.901V164.401C589.1 164.901 588.7 165.201 588.3 165.201Z" fill="#FFEEE7"/>
<path d="M602.9 191.9L540.3 192C539.9 192 539.5 191.6 539.5 191.2V187.7C539.5 187.3 539.9 186.9 540.3 186.9L602.9 186.8C603.3 186.8 603.7 187.2 603.7 187.6V191.1C603.7 191.6 603.4 191.9 602.9 191.9Z" fill="#FF4D00"/>
<path d="M602.9 180.7L540.3 180.8C539.9 180.8 539.5 180.4 539.5 180V176.5C539.5 176.1 539.9 175.7 540.3 175.7L602.9 175.6C603.3 175.6 603.7 176 603.7 176.4V179.9C603.7 180.4 603.3 180.7 602.9 180.7Z" fill="#FF4D00"/>
<path d="M602.9 203.1L540.3 203.2C539.9 203.2 539.5 202.8 539.5 202.4V198.9C539.5 198.5 539.9 198.1 540.3 198.1L602.9 198C603.3 198 603.7 198.4 603.7 198.8V202.3C603.7 202.7 603.4 203.1 602.9 203.1Z" fill="#FF4D00"/>
<path d="M603 214.299L540.4 214.399C540 214.399 539.6 213.999 539.6 213.599V210.099C539.6 209.699 540 209.299 540.4 209.299L603 209.199C603.4 209.199 603.8 209.599 603.8 209.999V213.499C603.8 213.899 603.4 214.299 603 214.299Z" fill="#FF4D00"/>
<path d="M588.3 225.4L540.4 225.5C540 225.5 539.6 225.1 539.6 224.7V221.2C539.6 220.8 540 220.4 540.4 220.4L588.3 220.3C588.7 220.3 589.1 220.7 589.1 221.1V224.6C589.1 225.1 588.7 225.4 588.3 225.4Z" fill="#FF4D00"/>
<path d="M602.9 252.1L540.3 252.2C539.9 252.2 539.5 251.8 539.5 251.4V247.9C539.5 247.5 539.9 247.1 540.3 247.1L602.9 247C603.3 247 603.7 247.4 603.7 247.8V251.3C603.7 251.8 603.4 252.1 602.9 252.1Z" fill="#FFEEE7"/>
<path d="M602.9 241L540.3 241.1C539.9 241.1 539.5 240.7 539.5 240.3V236.8C539.5 236.4 539.9 236 540.3 236L602.9 235.9C603.3 235.9 603.7 236.3 603.7 236.7V240.2C603.7 240.6 603.3 241 602.9 241Z" fill="#FFEEE7"/>
<path d="M602.9 263.3L540.3 263.4C539.9 263.4 539.5 263 539.5 262.6V259.1C539.5 258.7 539.9 258.3 540.3 258.3L602.9 258.2C603.3 258.2 603.7 258.6 603.7 259V262.5C603.7 262.9 603.4 263.3 602.9 263.3Z" fill="#FFEEE7"/>
<path d="M603 274.5L540.4 274.6C540 274.6 539.6 274.2 539.6 273.8V270.3C539.6 269.9 540 269.5 540.4 269.5L603 269.4C603.4 269.4 603.8 269.8 603.8 270.2V273.7C603.8 274.1 603.4 274.5 603 274.5Z" fill="#FFEEE7"/>
<path d="M588.3 285.6L540.4 285.7C540 285.7 539.6 285.3 539.6 284.9V281.4C539.6 281 540 280.6 540.4 280.6L588.3 280.5C588.7 280.5 589.1 280.9 589.1 281.3V284.8C589.1 285.3 588.7 285.6 588.3 285.6Z" fill="#FFEEE7"/>
<path d="M335 321.699L250.2 321.899C249.8 321.899 249.4 321.499 249.4 321.099V319.699C249.4 319.299 249.8 318.899 250.2 318.899L335 318.699C335.4 318.699 335.8 319.099 335.8 319.499V320.899C335.8 321.299 335.4 321.699 335 321.699Z" fill="#FFEEE7"/>
<path d="M335 315.1L250.2 315.3C249.8 315.3 249.4 314.9 249.4 314.5V313.1C249.4 312.7 249.8 312.3 250.2 312.3L335 312.1C335.4 312.1 335.8 312.5 335.8 312.9V314.3C335.8 314.8 335.4 315.1 335 315.1Z" fill="#FFEEE7"/>
<path d="M335 328.199L250.2 328.399C249.8 328.399 249.4 327.999 249.4 327.599V326.199C249.4 325.799 249.8 325.399 250.2 325.399L335 325.199C335.4 325.199 335.8 325.599 335.8 325.999V327.399C335.8 327.899 335.4 328.199 335 328.199Z" fill="#FFEEE7"/>
<path d="M335 334.8L250.2 335C249.8 335 249.4 334.6 249.4 334.2V332.8C249.4 332.4 249.8 332 250.2 332L335 331.8C335.4 331.8 335.8 332.2 335.8 332.6V334C335.8 334.4 335.4 334.8 335 334.8Z" fill="#FFEEE7"/>
<path d="M315.3 341.399L250.3 341.499C249.9 341.499 249.5 341.099 249.5 340.699V339.299C249.5 338.899 249.9 338.499 250.3 338.499L315.3 338.399C315.7 338.399 316.1 338.799 316.1 339.199V340.599C316.1 340.999 315.7 341.399 315.3 341.399Z" fill="#FFEEE7"/>
<path d="M238.8 321.6L113.8 321.9C113.4 321.9 113 321.5 113 321.1V319.7C113 319.3 113.4 318.9 113.8 318.9L238.8 318.6C239.2 318.6 239.6 319 239.6 319.4V320.8C239.6 321.2 239.3 321.6 238.8 321.6Z" fill="#FFEEE7"/>
<path d="M238.8 315L113.8 315.3C113.4 315.3 113 314.9 113 314.5V313.1C113 312.7 113.4 312.3 113.8 312.3L238.8 312C239.2 312 239.6 312.4 239.6 312.8V314.2C239.6 314.7 239.3 315 238.8 315Z" fill="#FFEEE7"/>
<path d="M238.8 328.1L113.8 328.4C113.4 328.4 113 328 113 327.6V326.2C113 325.8 113.4 325.4 113.8 325.4L238.8 325.1C239.2 325.1 239.6 325.5 239.6 325.9V327.3C239.6 327.8 239.3 328.1 238.8 328.1Z" fill="#FFEEE7"/>
<path d="M238.8 334.7L113.8 335C113.4 335 113 334.6 113 334.2V332.8C113 332.4 113.4 332 113.8 332L238.8 331.7C239.2 331.7 239.6 332.1 239.6 332.5V333.9C239.6 334.3 239.3 334.7 238.8 334.7Z" fill="#FFEEE7"/>
<path d="M209.9 341.3L113.8 341.5C113.4 341.5 113 341.1 113 340.7V339.3C113 338.9 113.4 338.5 113.8 338.5L209.9 338.3C210.3 338.3 210.7 338.7 210.7 339.1V340.5C210.7 340.9 210.4 341.3 209.9 341.3Z" fill="#FFEEE7"/>
<path d="M429.8 321.699L345 321.899C344.6 321.899 344.2 321.499 344.2 321.099V319.699C344.2 319.299 344.6 318.899 345 318.899L429.8 318.699C430.2 318.699 430.6 319.099 430.6 319.499V320.899C430.6 321.299 430.2 321.699 429.8 321.699Z" fill="#FFEEE7"/>
<path d="M429.8 315.1L345 315.3C344.6 315.3 344.2 314.9 344.2 314.5V313.1C344.2 312.7 344.6 312.3 345 312.3L429.8 312.1C430.2 312.1 430.6 312.5 430.6 312.9V314.3C430.6 314.8 430.2 315.1 429.8 315.1Z" fill="#FFEEE7"/>
<path d="M429.8 328.199L345 328.399C344.6 328.399 344.2 327.999 344.2 327.599V326.199C344.2 325.799 344.6 325.399 345 325.399L429.8 325.199C430.2 325.199 430.6 325.599 430.6 325.999V327.399C430.6 327.899 430.2 328.199 429.8 328.199Z" fill="#FFEEE7"/>
<path d="M429.8 334.8L345 335C344.6 335 344.2 334.6 344.2 334.2V332.8C344.2 332.4 344.6 332 345 332L429.8 331.8C430.2 331.8 430.6 332.2 430.6 332.6V334C430.6 334.4 430.2 334.8 429.8 334.8Z" fill="#FFEEE7"/>
<path d="M410 341.399L345 341.499C344.6 341.499 344.2 341.099 344.2 340.699V339.299C344.2 338.899 344.6 338.499 345 338.499L410 338.399C410.4 338.399 410.8 338.799 410.8 339.199V340.599C410.8 340.999 410.5 341.399 410 341.399Z" fill="#FFEEE7"/>
<path d="M524.5 321.699L439.7 321.899C439.3 321.899 438.9 321.499 438.9 321.099V319.699C438.9 319.299 439.3 318.899 439.7 318.899L524.5 318.699C524.9 318.699 525.3 319.099 525.3 319.499V320.899C525.4 321.299 525 321.699 524.5 321.699Z" fill="#FFEEE7"/>
<path d="M524.5 315.1L439.7 315.3C439.3 315.3 438.9 314.9 438.9 314.5V313.1C438.9 312.7 439.3 312.3 439.7 312.3L524.5 312.1C524.9 312.1 525.3 312.5 525.3 312.9V314.3C525.3 314.8 525 315.1 524.5 315.1Z" fill="#FFEEE7"/>
<path d="M524.6 328.199L439.8 328.399C439.4 328.399 439 327.999 439 327.599V326.199C439 325.799 439.4 325.399 439.8 325.399L524.6 325.199C525 325.199 525.4 325.599 525.4 325.999V327.399C525.4 327.899 525 328.199 524.6 328.199Z" fill="#FFEEE7"/>
<path d="M524.6 334.8L439.8 335C439.4 335 439 334.6 439 334.2V332.8C439 332.4 439.4 332 439.8 332L524.6 331.8C525 331.8 525.4 332.2 525.4 332.6V334C525.4 334.4 525 334.8 524.6 334.8Z" fill="#FFEEE7"/>
<path d="M504.8 341.399L439.8 341.499C439.4 341.499 439 341.099 439 340.699V339.299C439 338.899 439.4 338.499 439.8 338.499L504.8 338.399C505.2 338.399 505.6 338.799 505.6 339.199V340.599C505.6 340.999 505.3 341.399 504.8 341.399Z" fill="#FFEEE7"/>
<path d="M565.4 109.9C579.925 109.9 591.7 98.1249 591.7 83.5998C591.7 69.0747 579.925 57.2998 565.4 57.2998C550.875 57.2998 539.1 69.0747 539.1 83.5998C539.1 98.1249 550.875 109.9 565.4 109.9Z" fill="#FF4D00"/>
<path d="M522.1 286.199H251.7C249.9 286.199 248.4 284.699 248.4 282.899V171.199C248.4 169.399 249.9 167.899 251.7 167.899H522.1C523.9 167.899 525.4 169.399 525.4 171.199V282.899C525.4 284.699 523.9 286.199 522.1 286.199Z" fill="#FFEEE7"/>
<path d="M517.9 231.199V276.099C517.9 278.099 516.3 279.699 514.3 279.699H258.5C256.5 279.699 254.9 278.099 254.9 276.099V177.399C278.5 177.399 290.3 186.199 297.2 197.799C297.7 198.499 298.1 199.299 298.5 200.099C310.2 222.199 306.7 252.399 332.3 252.399C333.3 252.399 334.2 252.299 335 252.099C335.5 251.999 336.1 251.799 336.6 251.599C353.9 244.299 351.2 192.699 381.9 193.099C388.5 193.199 393.4 195.699 397.2 199.699C397.6 200.099 397.9 200.499 398.3 200.899C412 216.999 412.2 252.999 433.4 259.499C441 261.899 447.7 258.699 454.4 253.399C454.8 253.099 455.3 252.699 455.7 252.399C469.7 240.699 483.7 220.799 505.4 225.699C506 225.799 506.7 225.999 507.3 226.199C510.4 227.299 514.1 228.899 517.9 231.199Z" fill="#FF4D00"/>
<path opacity="0.8" d="M517.9 222.199C513.3 222.299 509.8 223.799 507 226.299C501.8 230.899 499 238.799 496.2 246.499C492.1 258.099 487.9 269.999 475.5 269.999C474.8 269.999 474.1 269.999 473.4 269.899C465.3 269.099 459.4 262.499 454.1 253.499C450.8 247.899 447.9 241.399 444.8 234.699C436.2 215.899 427.3 196.399 411 195.999C410.8 195.999 410.6 195.999 410.5 195.999C405.6 195.999 401.5 197.899 398.1 200.999C391.2 207.299 386.8 218.699 382.5 229.799C376.1 246.299 369.6 263.299 354.7 263.599C344 263.799 339.2 259.799 334.8 252.199C333.1 249.199 331.5 245.699 329.7 241.699C326.3 234.399 322.2 225.199 315.2 214.599C310.5 207.499 304.6 202.899 298.3 200.199C281.2 192.699 261 198.199 254.8 200.199V198.499C261.5 196.399 280.4 191.599 297.1 197.899C304.4 200.699 311.3 205.499 316.6 213.699C323.6 224.399 327.8 233.599 331.2 240.999C333.1 245.199 334.7 248.699 336.4 251.699C340.5 258.799 345 262.299 354.7 261.999C368.5 261.699 374.6 245.899 381 229.199C385.4 217.899 389.8 206.299 397 199.799C400.8 196.299 405.4 194.299 411.1 194.399C428.5 194.899 437.5 214.799 446.3 234.099C449.3 240.599 452.2 246.999 455.4 252.499C460.4 261.199 466.1 267.599 473.5 268.299C486.3 269.599 490.3 258.099 494.6 245.999C497.3 238.399 500 230.699 505 225.799C508.2 222.599 512.2 220.599 517.8 220.599L517.9 222.199Z" fill="white"/>
<path d="M240.7 121.6H111.3C109.5 121.6 108 120.1 108 118.3V67.5998C108 65.7998 109.5 64.2998 111.3 64.2998H240.6C242.4 64.2998 243.9 65.7998 243.9 67.5998V118.3C244 120.1 242.5 121.6 240.7 121.6Z" fill="#FF4D00"/>
<g opacity="0.3">
<path opacity="0.3" d="M225.3 116.7H217.5C217 116.7 216.7 116.3 216.7 115.9V79.5002C216.7 79.0002 217.1 78.7002 217.5 78.7002H225.3C225.8 78.7002 226.1 79.1002 226.1 79.5002V115.9C226.1 116.4 225.8 116.7 225.3 116.7Z" fill="white"/>
<path opacity="0.3" d="M238.1 116.7H230.5C230 116.7 229.6 116.3 229.6 115.8V70.6998C229.6 70.1998 230 69.7998 230.5 69.7998H238.1C238.6 69.7998 239 70.1998 239 70.6998V115.8C239.1 116.3 238.7 116.7 238.1 116.7Z" fill="white"/>
<path opacity="0.3" d="M121.9 116.7H114.3C113.8 116.7 113.4 116.3 113.4 115.8V70.6998C113.4 70.1998 113.8 69.7998 114.3 69.7998H121.9C122.4 69.7998 122.8 70.1998 122.8 70.6998V115.8C122.8 116.3 122.4 116.7 121.9 116.7Z" fill="white"/>
<path opacity="0.3" d="M134.9 116.699H127.1C126.7 116.699 126.3 116.299 126.3 115.899V81.6994C126.3 81.2994 126.7 80.8994 127.1 80.8994H134.9C135.3 80.8994 135.7 81.2994 135.7 81.6994V115.899C135.7 116.399 135.4 116.699 134.9 116.699Z" fill="white"/>
<path opacity="0.3" d="M147.7 116.7H140.1C139.6 116.7 139.2 116.3 139.2 115.8V70.6998C139.2 70.1998 139.6 69.7998 140.1 69.7998H147.7C148.2 69.7998 148.6 70.1998 148.6 70.6998V115.8C148.7 116.3 148.2 116.7 147.7 116.7Z" fill="white"/>
<path opacity="0.3" d="M160.9 116.7H152.9C152.5 116.7 152.2 116.4 152.2 116V91.4998C152.2 91.0998 152.5 90.7998 152.9 90.7998H160.9C161.3 90.7998 161.6 91.0998 161.6 91.4998V116C161.6 116.4 161.3 116.7 160.9 116.7Z" fill="white"/>
<path opacity="0.3" d="M173.6 116.7H166C165.5 116.7 165.1 116.3 165.1 115.8V70.6998C165.1 70.1998 165.5 69.7998 166 69.7998H173.6C174.1 69.7998 174.5 70.1998 174.5 70.6998V115.8C174.5 116.3 174.1 116.7 173.6 116.7Z" fill="white"/>
<path opacity="0.3" d="M186.6 116.7H178.8C178.3 116.7 178 116.3 178 115.9V79.5002C178 79.0002 178.4 78.7002 178.8 78.7002H186.6C187.1 78.7002 187.4 79.1002 187.4 79.5002V115.9C187.4 116.4 187 116.7 186.6 116.7Z" fill="white"/>
<path opacity="0.3" d="M199.4 116.7H191.8C191.3 116.7 190.9 116.3 190.9 115.8V70.6998C190.9 70.1998 191.3 69.7998 191.8 69.7998H199.4C199.9 69.7998 200.3 70.1998 200.3 70.6998V115.8C200.3 116.3 199.9 116.7 199.4 116.7Z" fill="white"/>
<path opacity="0.3" d="M212.4 116.699H204.6C204.2 116.699 203.8 116.299 203.8 115.899V81.6994C203.8 81.2994 204.2 80.8994 204.6 80.8994H212.4C212.8 80.8994 213.2 81.2994 213.2 81.6994V115.899C213.2 116.399 212.9 116.699 212.4 116.699Z" fill="white"/>
</g>
<path d="M240.7 183.199H111.3C109.5 183.199 108 181.699 108 179.899V129.199C108 127.399 109.5 125.899 111.3 125.899H240.6C242.4 125.899 243.9 127.399 243.9 129.199V179.899C244 181.699 242.5 183.199 240.7 183.199Z" fill="#FFEEE7"/>
<path d="M240.7 292.099H111.3C109.5 292.099 108 290.599 108 288.799V190.799C108 188.999 109.5 187.499 111.3 187.499H240.6C242.4 187.499 243.9 188.999 243.9 190.799V288.799C244 290.699 242.5 292.099 240.7 292.099Z" fill="url(#paint0_linear)"/>
<path d="M237.1 133.399C235.7 133.399 234.5 134.499 234.5 135.999C234.5 136.499 234.6 136.899 234.9 137.299L214.1 160.799C213.8 160.699 213.5 160.599 213.1 160.599C212.7 160.599 212.4 160.699 212.1 160.799L189.7 138.799C189.8 138.499 189.9 138.099 189.9 137.699C189.9 136.299 188.8 135.099 187.3 135.099C185.9 135.099 184.7 136.199 184.7 137.699C184.7 138.099 184.8 138.499 184.9 138.799L156.1 169.799C155.7 169.499 155.2 169.299 154.6 169.299C154.2 169.299 153.7 169.399 153.4 169.599L138 149.199C138.3 148.799 138.5 148.299 138.5 147.699C138.5 146.299 137.4 145.099 135.9 145.099C134.5 145.099 133.3 146.199 133.3 147.699C133.3 148.199 133.4 148.599 133.6 148.899L116 171.699C115.7 171.599 115.4 171.499 115.1 171.499C113.7 171.499 112.5 172.599 112.5 174.099C112.5 175.499 113.6 176.699 115.1 176.699C116.5 176.699 117.7 175.599 117.7 174.099C117.7 173.599 117.5 173.099 117.3 172.699L134.9 149.899C135.2 149.999 135.6 150.099 135.9 150.099C136.2 150.099 136.4 149.999 136.7 149.999L152.6 170.799C152.5 171.099 152.4 171.499 152.4 171.799C152.4 173.199 153.5 174.399 155 174.399C156.4 174.399 157.6 173.299 157.6 171.799C157.6 171.499 157.5 171.299 157.5 170.999L186.4 139.799C186.8 139.999 187.2 140.099 187.6 140.099C188 140.099 188.5 139.999 188.8 139.799L211.1 161.699C210.9 162.099 210.8 162.499 210.8 162.899C210.8 164.299 211.9 165.499 213.4 165.499C214.8 165.499 216 164.399 216 162.899C216 162.399 215.9 161.999 215.6 161.599L236.4 138.199C236.7 138.299 237 138.399 237.4 138.399C238.8 138.399 240 137.299 240 135.799C239.7 134.499 238.5 133.399 237.1 133.399Z" fill="#FF4D00"/>
<path d="M226.6 204.299H114.5C113.7 204.299 113.1 203.699 113.1 202.899V196.899C113.1 196.099 113.7 195.499 114.5 195.499H226.6C227.4 195.499 228 196.099 228 196.899V202.899C228 203.699 227.3 204.299 226.6 204.299Z" fill="#FFEEE7"/>
<path d="M215.1 220.099H114.4C113.7 220.099 113 219.499 113 218.699V212.599C113 211.899 113.6 211.199 114.4 211.199H215.1C215.8 211.199 216.5 211.799 216.5 212.599V218.699C216.4 219.499 215.8 220.099 215.1 220.099Z" fill="#FFEEE7"/>
<path d="M237.2 235.9H115.4C114.1 235.9 113 233.9 113 231.5C113 229.1 114.1 227.1 115.4 227.1H237.2C238.5 227.1 239.6 229.1 239.6 231.5C239.7 233.9 238.6 235.9 237.2 235.9Z" fill="#FFEEE7"/>
<path d="M203.7 251.599H114.3C113.6 251.599 113 250.999 113 250.299V243.999C113 243.299 113.6 242.699 114.3 242.699H203.7C204.4 242.699 205 243.299 205 243.999V250.299C205 251.099 204.4 251.599 203.7 251.599Z" fill="#FFEEE7"/>
<path d="M227.8 267.4H114.5C113.7 267.4 113.1 266.8 113.1 266V260C113.1 259.2 113.7 258.6 114.5 258.6H227.8C228.6 258.6 229.2 259.2 229.2 260V266C229.2 266.8 228.5 267.4 227.8 267.4Z" fill="#FFEEE7"/>
<path d="M237.2 283.199H115.4C114.1 283.199 113 281.199 113 278.799C113 276.399 114.1 274.399 115.4 274.399H237.2C238.5 274.399 239.6 276.399 239.6 278.799C239.7 281.199 238.6 283.199 237.2 283.199Z" fill="#FFEEE7"/>
<path d="M514.4 109.901H435C429 109.901 424.1 105.001 424.1 99.0006V95.0006C424.1 89.0006 429 84.1006 435 84.1006H514.4C520.4 84.1006 525.3 89.0006 525.3 95.0006V99.0006C525.4 105.001 520.5 109.901 514.4 109.901Z" fill="#FF4D00"/>
<path d="M514.4 141.2H435C429 141.2 424.1 136.3 424.1 130.3V126.3C424.1 120.3 429 115.4 435 115.4H514.4C520.4 115.4 525.3 120.3 525.3 126.3V130.3C525.4 136.3 520.5 141.2 514.4 141.2Z" fill="#FFEEE7"/>
<path d="M276.6 65.8002C296.9 60.1002 318.1 71.9002 323.8 92.2002C329.5 112.5 317.7 133.7 297.4 139.4C277.1 145.1 255.9 133.3 250.2 113C249.4 110.1 248.9 107.1 248.8 104.2C248.1 87.9002 258 72.5002 273.7 66.7002C274.7 66.4002 275.6 66.1002 276.6 65.8002Z" fill="#FFEEE7"/>
<path d="M273.7 66.7998L287 102.7L248.8 104.3C248.1 87.8998 258 72.5998 273.7 66.7998Z" fill="#FF4D00"/>
<path d="M410.5 70.4004H336.9C335.5 70.4004 334.4 69.3004 334.4 67.9004C334.4 66.5004 335.5 65.4004 336.9 65.4004H410.5C411.9 65.4004 413 66.5004 413 67.9004C413 69.3004 411.9 70.4004 410.5 70.4004Z" fill="#FFEEE7"/>
<path d="M400.9 80.5004H335.4C334.8 80.5004 334.3 80.0004 334.3 79.4004V76.5004C334.3 75.9004 334.8 75.4004 335.4 75.4004H400.9C401.5 75.4004 402 75.9004 402 76.5004V79.4004C402 80.0004 401.5 80.5004 400.9 80.5004Z" fill="#FFEEE7"/>
<path d="M385.7 90.5004H335.3C334.8 90.5004 334.3 90.1004 334.3 89.5004V86.4004C334.3 85.9004 334.7 85.4004 335.3 85.4004H385.7C386.2 85.4004 386.7 85.8004 386.7 86.4004V89.5004C386.6 90.1004 386.2 90.5004 385.7 90.5004Z" fill="#FFEEE7"/>
<path d="M410.5 100.5H336.9C335.5 100.5 334.4 99.4 334.4 98C334.4 96.6 335.5 95.5 336.9 95.5H410.5C411.9 95.5 413 96.6 413 98C413 99.4 411.9 100.5 410.5 100.5Z" fill="#FFEEE7"/>
<path d="M403.3 110.5H335.5C334.9 110.5 334.4 110 334.4 109.4V106.6C334.4 106 334.9 105.5 335.5 105.5H403.3C403.9 105.5 404.4 106 404.4 106.6V109.4C404.4 110 403.9 110.5 403.3 110.5Z" fill="#FFEEE7"/>
<path d="M410.5 120.601H336.9C335.5 120.601 334.4 119.501 334.4 118.101C334.4 116.701 335.5 115.601 336.9 115.601H410.5C411.9 115.601 413 116.701 413 118.101C413 119.401 411.9 120.601 410.5 120.601Z" fill="#FFEEE7"/>
<path d="M396.9 130.6H335.4C334.8 130.6 334.3 130.1 334.3 129.5V126.6C334.3 126 334.8 125.5 335.4 125.5H396.9C397.5 125.5 398 126 398 126.6V129.5C397.9 130.1 397.5 130.6 396.9 130.6Z" fill="#FFEEE7"/>
<path d="M410.5 140.601H336.9C335.5 140.601 334.4 139.501 334.4 138.101C334.4 136.701 335.5 135.601 336.9 135.601H410.5C411.9 135.601 413 136.701 413 138.101C413 139.501 411.9 140.601 410.5 140.601Z" fill="#FFEEE7"/>
<path d="M606.9 371.2L111.5 372.2C104.9 372.2 99.5003 366.9 99.5003 360.3L98.8003 32.0996C98.8003 25.4996 104.1 20.0996 110.7 20.0996L606.1 19.0996C612.7 19.0996 618.1 24.3996 618.1 30.9996L618.8 359.2C618.8 365.8 613.5 371.2 606.9 371.2Z" fill="url(#paint1_linear)"/>
<path opacity="0.55" d="M335 622.5C392.493 622.5 439.1 613.68 439.1 602.8C439.1 591.92 392.493 583.1 335 583.1C277.508 583.1 230.9 591.92 230.9 602.8C230.9 613.68 277.508 622.5 335 622.5Z" fill="#E0BAAD"/>
<path d="M111 432.801H160.7C167.3 432.801 172.7 427.401 172.7 420.801V318.301C172.7 311.701 167.3 306.301 160.7 306.301H111C104.4 306.301 99 311.701 99 318.301V420.801C99 427.401 104.4 432.801 111 432.801Z" fill="#52C798"/>
<path d="M125.8 434H161.2C167.8 434 173.2 428.6 173.2 422V317.9C173.2 311.3 167.8 305.9 161.2 305.9H125.8C119.2 305.9 113.8 311.3 113.8 317.9V422C113.8 428.6 119.2 434 125.8 434Z" fill="url(#paint2_linear)"/>
<path d="M189.4 545.3C192.7 545.3 195.3 542.6 195.3 539.4V464.3C195.3 461 192.6 458.4 189.4 458.4C186.1 458.4 183.5 461.1 183.5 464.3V539.4C183.4 542.6 186.1 545.3 189.4 545.3Z" fill="#202020"/>
<path d="M147.7 536.9H231.1C233.4 536.9 235.3 538.8 235.3 541.1C235.3 543.4 233.4 545.3 231.1 545.3H147.7C145.4 545.3 143.5 543.4 143.5 541.1C143.5 538.7 145.4 536.9 147.7 536.9Z" fill="#202020"/>
<path d="M189.4 545.3C192.7 545.3 195.3 542.6 195.3 539.4V464.3C195.3 461 192.6 458.4 189.4 458.4C186.1 458.4 183.5 461.1 183.5 464.3V539.4C183.4 542.6 186.1 545.3 189.4 545.3Z" fill="url(#paint3_linear)"/>
<path d="M147.7 536.9H231.1C233.4 536.9 235.3 538.8 235.3 541.1C235.3 543.4 233.4 545.3 231.1 545.3H147.7C145.4 545.3 143.5 543.4 143.5 541.1C143.5 538.7 145.4 536.9 147.7 536.9Z" fill="url(#paint4_linear)"/>
<path d="M148.8 469.801H230C236.6 469.801 242 464.401 242 457.801V449.101C242 442.501 236.6 437.101 230 437.101H148.8C142.2 437.101 136.8 442.501 136.8 449.101V457.801C136.8 464.401 142.2 469.801 148.8 469.801Z" fill="#52C798"/>
<path d="M195.6 470.201H148.8C142.2 470.201 136.8 464.801 136.8 458.201V453.101C136.8 446.501 142.2 441.101 148.8 441.101H195.6C202.2 441.101 207.6 446.501 207.6 453.101V458.201C207.6 464.801 202.2 470.201 195.6 470.201Z" fill="url(#paint5_linear)"/>
<path d="M288.8 548.6C289.5 552.3 282.5 562 291.8 570.1C301.1 578.2 322.301 586.8 308.201 587.2C294.201 587.5 280.7 584.3 273.6 580.8C266.5 577.3 272.2 571.7 263.3 568.9C251.6 565.2 251.8 564.5 257.4 551.8C265.2 534.4 286.7 536.8 288.8 548.6Z" fill="#202020"/>
<path d="M302.3 561.1C303.9 564.3 311.7 571.6 322.5 576.4C333.3 581.2 356.2 583.5 343.5 587.7C330.8 591.9 316 589.4 308.5 588.2C301 587 293.7 586.8 284.9 586.8C273.2 586.7 273.1 586 274.7 572.8C276.8 554.7 297 550.8 302.3 561.1Z" fill="#202020"/>
<path d="M302.3 561.1C303.9 564.3 311.7 571.6 322.5 576.4C333.3 581.2 356.2 583.5 343.5 587.7C330.8 591.9 316 589.4 308.5 588.2C301 587 293.7 586.8 284.9 586.8C273.2 586.7 273.1 586 274.7 572.8C276.8 554.7 297 550.8 302.3 561.1Z" fill="url(#paint6_linear)"/>
<path d="M274.8 553.7L279.3 564.8C279.3 564.8 290.5 567.5 295.8 564.7C301.1 561.9 299 559.4 299 559.4L294.3 543L274.8 553.7Z" fill="#F5C7B0"/>
<path d="M224.1 405.1C224.1 405.1 272 415.5 289.4 419.8C306.8 424.1 320.3 431.4 312.2 460.4C304.1 489.4 290.6 542.3 290.6 542.3H259.7L275.9 447L185.5 436.3L168.8 399.3L224.1 405.1Z" fill="#9DCAF3"/>
<path d="M153.5 405.1C155.6 420 151.2 437.2 174.4 444C197.6 450.7 233.8 451.3 233.8 451.3L275.701 568.1C275.701 568.1 282.9 570.6 295.3 566.8C300.4 565.2 302 560.4 302 560.4L266.701 438.5C264.101 429.8 257.2 423.1 248.4 420.8L192.7 403.9L153.5 405.1Z" fill="#9DCAF3"/>
<path d="M153.5 405.1C155.6 420 151.2 437.2 174.4 444C197.6 450.7 233.8 451.3 233.8 451.3L275.701 568.1C275.701 568.1 282.9 570.6 295.3 566.8C300.4 565.2 302 560.4 302 560.4L266.701 438.5C264.101 429.8 257.2 423.1 248.4 420.8L192.7 403.9L153.5 405.1Z" fill="url(#paint7_linear)"/>
<path d="M254.4 227.9C254.4 227.9 255.1 223 258.3 213.4C258.5 212.9 256.5 213.3 256.1 213.6C252 216.7 248.6 230.2 248 235.3C247.4 240.4 247.9 253.4 247.9 253.4L256.4 254.9C256.4 254.9 261.9 242.8 262.7 238.4C263.1 236.2 262.9 231.6 261.1 229.7C259.5 228 253.1 227.2 253.1 227.2C253.1 227.2 248.2 233.5 247.9 235.4" fill="#F5C7B0"/>
<path d="M168.9 244.1C168.8 244.8 167.2 260 166.9 271.7C166.8 277.4 172.5 282.9 178.2 283C178.3 283 178.4 283 178.5 283C184.1 283 190.7 277.9 190.2 272.3C189.3 262.1 190 251.7 190 251.6L168.9 244.1Z" fill="#F5C7B0"/>
<path d="M168.9 244.1C168.8 244.8 167.2 260 166.9 271.7C166.8 277.4 172.5 282.9 178.2 283C178.3 283 178.4 283 178.5 283C184.1 283 190.7 277.9 190.2 272.3C189.3 262.1 190 251.7 190 251.6L168.9 244.1Z" fill="url(#paint8_linear)"/>
<path d="M196.3 235.6C201 237.8 203 237.8 204.7 232C206 227.5 208.2 211.6 201 210.5C193.7 209.4 188.1 209.2 188.9 219C189.7 228.8 190.7 232.9 196.3 235.6Z" fill="#202020"/>
<path d="M203.9 228.8C203.9 229.4 203.9 230 203.9 230.6C203.9 230.8 203.9 231.1 203.9 231.3C203.9 232.2 203.8 233.2 203.8 234.1C203.8 234.2 203.8 234.2 203.8 234.3C203.7 235.8 203.6 237.3 203.5 238.7C203.5 238.8 203.5 238.9 203.5 239C203.5 239.3 203.4 239.6 203.4 239.9C203.4 240.1 203.4 240.3 203.3 240.5C202.9 244 202.3 246.9 201.8 249C201.8 249.2 201.7 249.4 201.7 249.5C201.3 250.8 200.8 252.2 200 253.6C199.9 253.7 199.9 253.8 199.8 253.9C198.7 255.8 197.3 257.7 195.6 259.2C195.5 259.3 195.3 259.4 195.2 259.5C195.1 259.6 195 259.7 194.8 259.8C194.7 259.9 194.6 259.9 194.6 260C194.4 260.1 194.3 260.2 194.1 260.3C193.8 260.5 193.6 260.6 193.3 260.8C193.2 260.9 193 260.9 192.9 261C192.2 261.3 191.5 261.6 190.8 261.8C190.5 261.9 190.2 261.9 189.9 262C189.8 262 189.6 262 189.5 262C189.2 262 188.8 262.1 188.5 262.1C182.3 262.1 174.2 259.7 168.5 254.3C167.6 253.4 166.8 252.6 166.1 251.9C163.8 249.2 162.8 246.6 162.1 241.9V241.8C162.1 241.7 162.1 241.7 162.1 241.6C161.9 240.3 161.7 238.9 161.6 237.4V237.3C161.5 236.1 161.3 234.7 161.2 233.2C161.1 232.1 161 231.1 160.9 230.1C161.1 229.5 161.3 228.8 161.5 228.2C161.8 226.6 161.7 225 161.7 223.4C161.8 221.8 162.1 220.1 163.2 218.9C164.4 217.7 166.2 217.4 167.7 216.6C169.5 215.7 170.9 214.1 172.5 212.8C176.8 209.1 182.5 207.1 188.2 207.2C191.5 207.3 194.7 208 197.8 209C197.9 209 198 209.1 198.1 209.1C198.9 209.4 199.8 209.7 200.6 210C201.4 211.1 202 212.3 202.4 213.4C202.5 213.6 202.5 213.7 202.6 213.9C202.7 214.2 202.8 214.5 202.9 214.8C203 215.3 203.1 215.8 203.2 216.3C203.3 216.9 203.4 217.5 203.4 218.1C203.5 218.6 203.5 219.1 203.6 219.6C203.6 220 203.7 220.5 203.7 220.9C203.8 222.6 203.9 224.2 204 225.8C204 226.5 204 227.1 204 227.8C203.9 228.2 203.9 228.5 203.9 228.8Z" fill="#F5C7B0"/>
<path d="M203.8 225.9C200.1 223.3 193.2 221.5 190.6 221.3C188 221.1 185.4 220.4 182.8 221C180.3 221.6 178.2 223.5 177.4 226C176.1 230 178.2 234.3 180.8 237.6C182.1 239.2 184.4 241.3 184.7 243.3C185.2 246.6 183 250.1 180.7 252.1C178.8 253.7 175.3 255.4 173.3 255.4C171.5 255.4 168 253.9 166.2 251.9C163.9 249.2 162.9 246.6 162.2 241.9V241.8C162.2 241.7 162.2 241.7 162.2 241.6C162 240.3 161.8 238.9 161.7 237.4V237.3C161.6 236.1 161.4 234.7 161.3 233.2C161.2 232.1 161.1 231.1 161 230.1C161.2 229.5 161.4 228.8 161.6 228.2C161.9 226.6 161.8 225 161.8 223.4C161.9 221.8 162.2 220.1 163.3 218.9C164.5 217.7 166.3 217.4 167.8 216.6C169.6 215.7 171 214.1 172.6 212.8C176.9 209.1 182.6 207.1 188.3 207.2C191.6 207.3 194.8 208 197.9 209C198 209 198.1 209.1 198.2 209.1C198.3 210.8 201.5 211.2 202.5 213.4C202.6 213.5 202.6 213.7 202.7 213.9C202.7 213.9 202.7 213.9 202.7 214C202.8 214.2 202.9 214.5 203 214.9C203.1 215.4 203.2 215.9 203.3 216.4C203.4 217 203.5 217.6 203.5 218.2C203.6 218.7 203.6 219.2 203.7 219.7C203.7 220.1 203.8 220.6 203.8 221C203.7 222.6 203.8 224.2 203.8 225.9Z" fill="url(#paint9_linear)"/>
<path d="M254.6 317.6C250.4 312.3 241.2 300.2 222.3 280.4C211.7 269.3 203.4 269.5 196.2 272.6C190.6 275 187.7 282.7 193.4 290C196.6 294.1 200.9 299.9 213 311.6C232.8 330.8 242.6 336.3 247.4 338.1C252.8 340.1 263 328.3 254.6 317.6Z" fill="#F1A557"/>
<path d="M254.6 317.6C250.4 312.3 241.2 300.2 222.3 280.4C211.7 269.3 203.4 269.5 196.2 272.6C190.6 275 187.7 282.7 193.4 290C196.6 294.1 200.9 299.9 213 311.6C232.8 330.8 242.6 336.3 247.4 338.1C252.8 340.1 263 328.3 254.6 317.6Z" fill="#D89150"/>
<path d="M140.5 307.5C150.9 341.8 155.6 383.4 153.6 407.4H232.2C232.2 407.4 231.7 333.8 226.5 293.5C225.3 284.1 219.9 275.7 209.9 270.4C204 267.3 193.3 265.8 188.9 265.8H174.4C169.5 265.8 152.5 268.3 148 270.2C135 275.6 134.4 287.6 140.5 307.5Z" fill="#F1A557"/>
<path d="M70.5004 303.2C70.5004 303.2 70.5004 305.4 67.1004 304.7C63.7004 304 51.2004 293.6 51.1004 289.2C51.0004 282.7 50.3004 271.8 52.3004 271.4C54.3004 271 60.6004 279.7 61.3004 280.9C64.5004 285.9 63.4004 286.9 65.7004 288.9C68.0004 290.9 72.6004 292.8 73.8004 295.5C75.0004 298.2 75.9004 301.1 75.4004 301.9C74.9004 302.7 70.5004 303.2 70.5004 303.2Z" fill="#F5C7B0"/>
<path d="M67.0002 306.5C72.1002 310.3 93.6002 341.9 102 348.2C112 355.6 128.5 346.4 124.4 338.1C120.3 329.9 111.9 322.5 93.5002 310.9C80.7002 302.8 76.5002 299.3 70.1002 299C64.8002 298.9 63.6002 304 67.0002 306.5Z" fill="#DD924E"/>
<path d="M257.2 253.8C257.6 260.2 262.4 316.8 262.7 327.3C263.1 339.7 244.1 342.7 241.8 333.8C239.4 324.1 241.5 305.1 242.3 284.8C242.7 273.6 244.5 264.8 248.1 251.1C248.5 249.3 257 251.3 257.2 253.8Z" fill="#F1A557"/>
<path d="M257.2 253.8C257.6 260.2 262.4 316.8 262.7 327.3C263.1 339.7 244.1 342.7 241.8 333.8C239.4 324.1 241.5 305.1 242.3 284.8C242.7 273.6 244.5 264.8 248.1 251.1C248.5 249.3 257 251.3 257.2 253.8Z" fill="url(#paint10_linear)"/>
<path d="M161.2 231C164.7 234.5 166.6 235.2 170 230.5C172.7 226.8 179.9 213.2 173.7 209.9C167.5 206.6 162.4 204.5 160 213.7C157.5 222.8 157 226.9 161.2 231Z" fill="#202020"/>
<path d="M165.001 233.2C166.801 237.7 166.401 242.1 164.101 243.1C161.701 244.1 158.301 241.2 156.501 236.7C154.701 232.2 155.101 227.8 157.401 226.8C159.801 225.8 163.201 228.7 165.001 233.2Z" fill="#F5C7B0"/>
<path d="M162.7 233.6C159.6 241.3 165.3 240.6 163.8 241.3C162.1 242 159.5 239.9 158.2 236.6C156.8 233.3 157.2 230 158.9 229.3C160.6 228.6 163.1 232.5 162.7 233.6Z" fill="#E99B8D"/>
<path d="M165.001 233.2C166.801 237.7 166.401 242.1 164.101 243.1C161.701 244.1 158.301 241.2 156.501 236.7C154.701 232.2 155.101 227.8 157.401 226.8C159.801 225.8 163.201 228.7 165.001 233.2Z" fill="url(#paint11_linear)"/>
<path d="M126.7 340.4C129.9 334.5 144.2 319 161.1 297.5C164.1 293.7 164 281.9 160.5 274.9C158.3 270.6 149 268.4 142.9 275.3C139.5 279.2 134.5 284.5 125.1 298.4C109.8 321.3 104.4 333.4 105.4 338.4C106.6 343.7 122.1 349 126.7 340.4Z" fill="#DD924E"/>
<path d="M190.201 234.4C189.501 236.8 190.901 238.9 188.701 244.3C188.601 244.7 191.801 245.6 192.801 245.6C193.101 245.6 193.401 245.6 193.701 245.5C194.401 245.2 194.301 244.3 194.101 243.7C192.901 238.5 193.301 239.4 192.201 233.3C192.101 233 192.201 232.7 192.001 232.4C191.001 231.3 190.501 233.7 190.201 234.4Z" fill="#E99B8D"/>
<path d="M187.2 222.9C187.1 222.8 186.9 222.7 186.8 222.7C186.6 222.8 184.2 223.9 184.1 223.8C184 223.7 183.8 223.7 183.7 223.7C181.6 223.9 180.6 224.7 179 226.1C178.4 226.6 177.8 227.8 178 228.6C178.6 227.8 179.4 227.1 180.3 226.7C182.9 225.5 184.4 227 186.6 227.6C187.8 227.9 187.7 227.4 187.8 226.2C187.8 225.2 188.1 223.7 187.2 222.9Z" fill="#202020"/>
<path d="M196.9 223.5C197 223.4 197.2 223.4 197.3 223.4C197.5 223.5 199.3 225.1 199.4 225C199.5 224.9 199.7 225 199.8 225C201.6 225.7 202.2 226.6 203.2 228.3C203.6 228.9 203.8 230.1 203.3 230.8C203 229.9 202.6 229.1 201.9 228.5C200 226.9 198.2 227.9 196 228C194.8 228 195.1 227.6 195.3 226.5C195.6 225.5 195.8 224 196.9 223.5Z" fill="#202020"/>
<path d="M194.3 251.7C191.7 253 188.2 252.6 186 250.7" stroke="#E99B8D" stroke-miterlimit="10" stroke-linecap="round" stroke-linejoin="round"/>
<path d="M182.3 233C182.2 234.2 182.6 235.3 183.2 235.3C183.8 235.3 184.3 234.4 184.4 233.1C184.5 231.9 184.1 230.8 183.5 230.8C183 230.8 182.4 231.8 182.3 233Z" fill="#202020"/>
<path d="M197.401 233.8C197.301 235 197.701 236.1 198.301 236.1C198.901 236.1 199.401 235.2 199.501 233.9C199.601 232.7 199.201 231.6 198.701 231.6C198.101 231.6 197.501 232.5 197.401 233.8Z" fill="#202020"/>
<path d="M204 212.4C202.9 214.8 194.2 215.7 194.2 215.7C192.5 215.3 189.6 214.8 186.3 214.2C185 214 183.6 213.7 182.2 213.5C175.3 212.3 167.8 210.7 165.3 209.1C162.6 207.3 162.4 204.2 165 201.5C166.5 199.9 169.1 198.4 172.6 197.3C177.4 195.9 181.9 195.6 185.8 195.8C185.9 195.8 186.1 195.8 186.2 195.8C196.7 196.6 203.7 201.4 204.4 201.8H204.5C204 206.8 205.1 209.9 204 212.4Z" fill="#202020"/>
<path d="M322.2 617C344.954 617 363.4 611.27 363.4 604.2C363.4 597.131 344.954 591.4 322.2 591.4C299.446 591.4 281 597.131 281 604.2C281 611.27 299.446 617 322.2 617Z" fill="#3C9971"/>
<path d="M574 324.701C574 337.601 574 344.601 560.5 344.601C547 344.601 535.7 333.701 535.7 320.801C535.7 307.901 558.6 298.101 572.1 298.101C572.1 298.101 574 311.801 574 324.701Z" fill="#75A4C6"/>
<path d="M415.8 331.5C411.7 328.3 406.5 317.7 406 315.5C405.5 313.3 403.5 308.7 408.1 308.6C412.7 308.4 417.3 311.4 419.7 313.3C422.1 315.2 424.2 316.8 426.2 317.8C428.3 318.8 431.5 322.8 433.1 324.1C434.7 325.4 440.5 329.2 437.7 332.4C434.8 335.6 431.6 340.6 431.6 340.6C431.6 340.6 419.9 334.7 415.8 331.5Z" fill="#F5C7B0"/>
<path d="M447.8 335.6C447.8 335.6 447.8 328 443.8 324.4C439.8 320.8 433.2 316.4 428.3 314.4C423.4 312.4 419.1 311.9 419.1 311.9C419.1 311.9 416.9 312.5 419.7 315.9C422.5 319.4 426.3 321.3 426.3 321.3C426.3 321.3 423.4 324.2 423.2 327.3C423 330.4 431.4 346 440.2 342C449 338 447.8 335.6 447.8 335.6Z" fill="#F5C7B0"/>
<path d="M447.8 335.6C447.8 335.6 447.8 328 443.8 324.4C439.8 320.8 433.2 316.4 428.3 314.4C423.4 312.4 419.1 311.9 419.1 311.9C419.1 311.9 416.9 312.5 419.7 315.9C422.5 319.4 426.3 321.3 426.3 321.3C426.3 321.3 423.4 324.2 423.2 327.3C423 330.4 431.4 346 440.2 342C449 338 447.8 335.6 447.8 335.6Z" fill="url(#paint12_linear)"/>
<path d="M525.001 464.9C533.201 464.1 537.901 454.9 542.301 447.2C542.901 446.1 544.401 445.8 545.401 446.6C545.401 446.6 601.701 455.2 601.601 455.9C600.101 482 599.601 506.9 582.801 511.6C550.201 520.5 477.001 501.6 464.001 506.5C475.001 520 469.601 550.5 468.201 579.7C468.201 579.9 468.201 580.1 468.201 580.3C466.001 584 469.701 587.1 469.801 591.1C469.801 591.4 469.701 591.6 469.601 591.8C469.001 593.4 467.301 595 467.701 596.2C467.701 596.4 467.701 596.5 467.701 596.7C467.701 597.5 470.701 602.2 470.701 603C470.701 604 470.001 606.9 469.101 607.1C464.401 608.2 458.101 605.2 452.901 606.3C452.901 606.2 453.001 604.7 453.601 602.4C453.601 602.2 453.501 602 453.501 601.7C449.401 599.5 450.001 597.8 451.301 595.2C451.401 594.4 451.501 593.4 451.601 592.6C447.001 589.8 449.501 588.7 449.901 584.4C449.801 584.1 449.801 583.8 449.701 583.6C444.101 555.8 434.301 507 431.401 486.5C430.701 481.5 434.001 476.7 439.101 475.9C473.201 470 515.401 465.9 525.001 464.9Z" fill="#202020"/>
<path d="M429.9 622.301C441.5 614.301 451.4 608.601 452.6 605.701C452.7 605.401 452.9 605.101 453 604.801C458.4 605.501 463.8 606.001 469.2 606.601C470.6 612.201 473.5 622.701 471.2 625.301C468.8 628.101 459.5 628.301 453.4 627.301C446.6 626.201 445.3 630.001 438.6 630.801C434.2 631.301 412.6 631.301 414.7 627.301C415.9 624.901 429.7 622.401 429.9 622.301Z" fill="#202020"/>
<path d="M525 464.9C533.2 464.1 537.9 454.9 542.3 447.2C542.9 446.1 544.4 445.8 545.4 446.6C545.4 446.6 601.7 455.2 601.6 455.9C600.1 482 599.6 506.9 582.8 511.6C550.2 520.5 477 501.6 464 506.5C475 520 469.6 550.5 468.2 579.7C468.2 579.9 468.2 580.1 468.2 580.3C466 584 469.7 587.1 469.8 591.1C469.8 591.4 469.7 591.6 469.6 591.8C469 593.4 467.3 595 467.7 596.2C467.7 596.4 467.7 596.5 467.7 596.7C467.7 597.5 470.7 602.2 470.7 603C470.7 604 470.1 606.4 469.2 606.6C464.5 607.7 457.9 605.6 452.8 605.3C452.8 605.2 453 604.8 453.5 602.5C453.5 602.3 453.4 602.1 453.4 601.8C449.3 599.6 449.9 597.9 451.2 595.3C451.3 594.5 451.4 593.5 451.5 592.7C446.9 589.9 449.4 588.8 449.8 584.5C449.7 584.2 449.7 583.9 449.6 583.7C444 555.9 434.2 507.1 431.3 486.6C430.6 481.6 433.9 476.8 439 476C473.2 470 515.4 465.9 525 464.9Z" fill="url(#paint13_linear)"/>
<path d="M429.9 622.301C441.5 614.301 451.4 608.601 452.6 605.701C452.7 605.401 452.9 605.101 453 604.801C458.4 605.501 463.8 606.001 469.2 606.601C470.6 612.201 473.5 622.701 471.2 625.301C468.8 628.101 459.5 628.301 453.4 627.301C446.6 626.201 445.3 630.001 438.6 630.801C434.2 631.301 412.6 631.301 414.7 627.301C415.9 624.901 429.7 622.401 429.9 622.301Z" fill="url(#paint14_linear)"/>
<path d="M573.8 313.8C594.6 322.3 611.2 350.6 609.6 371.4C607.7 395.7 603.7 458.2 603.7 458.3C603.5 460.7 603.9 484 603.3 486.3C601.7 492.7 590.9 493.1 584.9 493.7C571.1 495.1 551.1 490 538.6 483.8C534.4 481.7 533.3 459.7 532.6 454L528.9 360.7C526.8 345.9 531.3 334.6 544.5 322.8C550.7 317.3 571.6 312.9 573.8 313.8Z" fill="#9DCAF3"/>
<path d="M533.201 460.7C530.701 463.4 528.601 464.5 525.001 464.9C520.901 465.3 510.701 466.3 497.801 467.8C488.001 459 480.201 452.5 476.201 451.5C477.201 457.4 476.201 463.8 473.901 470.7C468.901 485.6 457.701 502.6 448.301 520.1C448.201 520.3 448.101 520.4 448.001 520.6C444.601 522.7 446.301 527.6 444.701 531.3C444.601 531.5 444.401 531.7 444.301 531.9C443.101 533 441.001 533.4 440.801 534.8C440.701 535 440.701 535.1 440.601 535.3C440.501 535.5 440.501 536.2 440.501 537.1C440.501 539.1 440.601 542.2 440.401 542.7C440.001 543.6 438.201 546.1 437.401 545.8C433.101 544.1 427.201 541.7 423.601 536.7C423.801 536.7 425.601 533 426.401 532.1C426.501 532 426.501 531.7 426.601 531.4C424.101 527 425.401 525.8 427.501 524.3C427.901 523.7 428.501 522.8 428.901 522.2C426.301 517 428.801 517.5 431.001 513.8C431.101 513.5 431.101 513.2 431.201 513C432.001 509.7 433.001 506.1 433.901 502.3C436.001 494.2 438.301 485.1 440.801 475.8C447.001 452.1 453.701 427.3 457.701 414.5C459.301 409.5 464.101 407.3 468.601 409.4C489.201 419.2 515.501 435.6 532.401 446.1L532.601 452.6C532.901 456 533.201 457.9 533.201 460.7Z" fill="#202020"/>
<path d="M395.1 542.5C409 540.3 420.4 539.3 422.7 537.3C423 537.1 423.2 536.9 423.4 536.7C428 539.6 432.7 542.4 437.3 545.3C436.2 550.9 434.3 561.7 431.1 563.1C427.7 564.5 419.3 560.8 414.2 557.2C408.6 553.3 405.8 556.1 399.3 553.9C395.1 552.5 375.7 543.2 379.2 540.5C381.4 538.9 395 542.6 395.1 542.5Z" fill="#202020"/>
<path d="M533.4 321.8C527.3 325.2 522.7 334.8 520.5 341.1C517.9 348.3 516.8 355.9 515 363.3C514.5 365.3 507.3 372.9 503.9 372C503.7 371.4 447.5 332.4 447.5 332.4L436.7 342.9C436.7 342.9 493.3 408.2 497.6 410.5C503.9 414 510.6 417.1 517.8 417.8C525 418.5 532.7 416.5 537.5 411.1C541.7 406.4 543.1 399.8 543.9 393.5C546.5 374.5 537.3 319.7 533.4 321.8Z" fill="#9DCAF3"/>
<path d="M566.5 278.4C566.5 278.4 566 289.8 568 296.8C572.3 312.4 581.1 312.1 583.3 314.3C586.8 317.7 583.4 319.5 585.9 321.5C585.9 321.5 561.7 347.3 542 346.6C515.5 345.8 542 311.6 542 311.6C542 311.6 534.4 306.3 539.4 303.5C542.4 301.8 546.1 289.8 546.1 289.8L566.5 278.4Z" fill="#F5C7B0"/>
<path d="M538.5 243.2C535.3 244.8 529.8 248.4 529.2 251.3C528.7 254.3 526.7 262.9 526.6 268.1C526.5 273.3 525.4 286.6 525.6 292.7C525.9 298.8 525.8 307 527.1 308.2C528.4 309.4 542.7 311.3 545.9 310.1C549 308.9 564.3 295.4 565 282.4C565 282.4 571.4 285.9 577 274.8C578.5 271.9 569.6 259.3 568.7 255.7C566.5 246.8 549 247.4 544.3 246.3C539.6 245.2 538.5 243.2 538.5 243.2Z" fill="#F5C7B0"/>
<path d="M569 269.7L566 264.5L567 262.3C567 262.3 567.8 250.8 567.1 250.7C566.4 250.6 551.1 243.1 549.4 244.3C547.7 245.4 535.7 247.4 535.7 247.4C535.7 247.4 531.9 259.2 534 259.6C536.1 260 550.4 261.2 555.6 264.4C558.2 266 558.6 268.1 558.8 269.9C559.1 273 558.4 274.7 558.1 275.2C554.9 280.4 546.9 278.7 545.2 279.8C543.5 280.9 539 288.8 539 288.8C539 288.8 529.3 304.4 531.3 305.5C533.3 306.6 539.3 309.3 540.7 309.6C542.1 309.9 547.7 307.4 550.3 307C552.8 306.6 557.7 301.3 560.4 298.9C563.1 296.5 567.1 275.4 567.1 275.4L569 269.7Z" fill="url(#paint15_linear)"/>
<path d="M529.3 251.3C529.3 251.3 531.401 247.4 534.701 249.5C538.001 251.6 545.101 253.4 550.701 253.5C556.301 253.6 561.901 251.8 561.901 251.8C561.901 251.8 561.101 259.7 562.401 262C563.701 264.3 566.8 267.2 566.8 269.8C566.8 272.4 566.3 274.9 566.3 274.9L566.201 282.7C566.201 282.7 565.801 286.3 566.201 289.2C566.601 292 568.001 296.7 568.001 296.7C568.001 296.7 575 281.2 580.6 275C586.2 268.9 589.9 255.4 580.8 249.3C580.8 249.3 582.1 236.5 568.8 232.7C555.6 229 546.301 235.6 540.701 233C535.201 230.5 534.101 229.5 531.001 230.3C527.001 231.4 522.4 237.6 524.6 244.3C526.7 251.2 529.3 251.3 529.3 251.3Z" fill="#202020"/>
<path d="M526 283.401C526.2 286.501 526.5 289.101 528.7 289.101C530.9 289.101 531.5 286.801 536.5 287.201C541.4 287.601 544.5 291.601 547.6 292.801C550.7 294.001 559.6 287.501 562 280.801C564.4 274.101 566.1 267.601 566.1 267.601L568.2 270.201C568.2 270.201 565.4 282.501 564.5 289.701C563.6 297.001 558.6 307.101 549.9 310.501C541.1 313.901 529.1 310.801 527 308.201C524.9 305.601 525.6 297.201 525 293.501C524.2 289.701 526 283.401 526 283.401Z" fill="#202020"/>
<path d="M580.7 249.4C580.7 249.4 582 236.6 568.7 232.8C564.7 231.7 561.1 231.5 557.9 231.7C561.8 236.4 563.7 242.7 562.4 249.2C562.2 250.1 562 251 561.7 251.8C561.8 251.8 561.8 251.8 561.8 251.8C561.8 251.8 561 259.7 562.3 262C563.6 264.3 566.7 267.2 566.7 269.8C566.7 272.4 566.2 274.9 566.2 274.9L566.1 282.7C566.1 282.7 565.7 286.3 566.1 289.2C566.5 292 567.9 296.7 567.9 296.7C567.9 296.7 574.9 281.2 580.5 275C586.1 268.9 589.9 255.5 580.7 249.4Z" fill="url(#paint16_linear)"/>
<path d="M539.6 269.9C539.2 274.4 538.6 279 538 283.5C537.9 283.9 537.9 284.2 537.7 284.5C537.2 285.2 536.2 285.2 535.4 285.1C535.1 285.1 534.9 285.1 534.7 284.9C534.2 284.6 534.3 283.8 534.5 283.2C536 278.5 537.2 273.6 537.9 268.7C537.9 268.4 538 268.1 538.2 267.9C539.1 267 539.6 269.4 539.6 269.9Z" fill="#E99B8D"/>
<path d="M538.5 258.9C538.7 258.5 538.9 257.9 538.5 257.7C538.1 257.4 537.6 257.8 537.3 258.2C537 258.6 536.8 259.1 536.3 259.2C536 258.7 536.1 258.1 536.3 257.6C536.4 257.5 536.5 257.3 536.4 257.2C536.4 257.1 536.2 257 536.1 256.9C533 255.3 528.8 256 526.4 258.6C526.2 258.8 526.1 259.3 526.4 259.3C527.2 258.9 528 258.6 528.8 258.2C529.6 257.9 530.4 257.5 531.2 257.4C532.4 257.3 533.5 257.8 534.4 258.5C534.9 258.9 536 261.1 536.4 261.2C537.2 261.5 538.2 259.5 538.5 258.9Z" fill="#202020"/>
<path d="M546.2 257.1C546.4 257 546.6 256.9 546.8 257C547.1 257.1 547.1 257.5 547.1 257.9C547 259.1 546.9 260.3 546.8 261.4C547.5 261 548 260.4 548.2 259.7C548.3 259.5 548.3 259.4 548.5 259.3C548.7 259.2 548.9 259.2 549.1 259.3C551.9 260.1 554.4 261.8 556.2 264C556.9 264.9 557.5 266 557.1 267C556.5 265.8 555.7 264.7 554.6 263.9C551.5 261.7 549.2 263.3 546 263.5C544.3 263.6 544.6 263 544.7 261.4C544.8 260 544.8 258 546.2 257.1Z" fill="#202020"/>
<path d="M549.3 272.6C549.1 273.9 548.5 274.9 547.9 274.8C547.3 274.7 546.9 273.6 547.1 272.3C547.3 271 547.9 270 548.5 270.1C549.1 270.1 549.5 271.3 549.3 272.6Z" fill="#202020"/>
<path d="M530.4 270C530.2 271.3 529.6 272.3 529 272.2C528.4 272.1 528 271 528.2 269.7C528.4 268.4 529 267.4 529.6 267.5C530.3 267.6 530.6 268.7 530.4 270Z" fill="#202020"/>
<path d="M523.9 271.7L526.2 270.5" stroke="#202020" stroke-miterlimit="10" stroke-linecap="round"/>
<path d="M571.5 268.9C571.5 268.9 570 269 566.3 270.4C562.6 271.8 552.7 275.1 552.7 275.1" stroke="#202020" stroke-miterlimit="10"/>
<path d="M535.8 274L540 274.6" stroke="#202020" stroke-miterlimit="10"/>
<path d="M550.7 279.5L541.2 278.4C540.3 278.3 539.7 277.5 539.8 276.7L540 274.9C540.1 274 540.9 273.4 541.7 273.5L551.2 274.6C552.1 274.7 552.7 275.5 552.6 276.3L552.4 278.1C552.3 279 551.5 279.6 550.7 279.5Z" stroke="#202020" stroke-miterlimit="10"/>
<path d="M534 277.601L524.5 276.501C523.6 276.401 523 275.601 523.1 274.801L523.3 273.001C523.4 272.101 524.2 271.501 525 271.601L534.5 272.701C535.4 272.801 536 273.601 535.9 274.401L535.7 276.201C535.6 277.001 534.9 277.701 534 277.601Z" stroke="#202020" stroke-miterlimit="10"/>
<path d="M534 277.601L524.5 276.501C523.6 276.401 523 275.601 523.1 274.801L523.3 273.001C523.4 272.101 524.2 271.501 525 271.601L534.5 272.701C535.4 272.801 536 273.601 535.9 274.401L535.7 276.201C535.6 277.001 534.9 277.701 534 277.601Z" fill="url(#paint17_linear)"/>
<path d="M550.7 279.5L541.2 278.4C540.3 278.3 539.7 277.5 539.8 276.7L540 274.9C540.1 274 540.9 273.4 541.7 273.5L551.2 274.6C552.1 274.7 552.7 275.5 552.6 276.3L552.4 278.1C552.3 279 551.5 279.6 550.7 279.5Z" fill="url(#paint18_linear)"/>
<path d="M569 269.701C569.8 269.401 570.5 268.801 571.3 268.401C572.1 268.001 573.1 267.801 573.8 268.301C574.3 268.701 574.6 269.301 574.8 269.901C575.6 272.301 576 275.101 574.6 277.101C573.7 278.401 572.3 279.101 570.8 279.501C569.3 279.901 567.8 279.901 566.2 279.901L569 269.701Z" fill="#F5C7B0"/>
<path d="M568.5 271.701C569.2 271.501 569.8 271.101 570.5 270.901C571.2 270.701 572 270.701 572.6 271.101C573.3 271.601 573.4 272.601 573.4 273.401C573.4 274.101 573.4 274.801 573.3 275.501C573.3 275.701 573.3 275.901 573.2 276.101C573.1 276.401 572.8 276.601 572.5 276.801C571.3 277.501 569.8 277.501 568.6 276.901C568.4 276.801 568.2 276.701 568.1 276.401C568 276.201 568 275.901 568 275.601C568.1 274.301 568.1 271.801 568.5 271.701Z" fill="#E99B8D"/>
<path d="M569 269.701C569.8 269.401 570.5 268.801 571.3 268.401C572.1 268.001 573.1 267.801 573.8 268.301C574.3 268.701 574.6 269.301 574.8 269.901C575.6 272.301 576 275.101 574.6 277.101C573.7 278.401 572.3 279.101 570.8 279.501C569.3 279.901 567.8 279.901 566.2 279.901L569 269.701Z" fill="url(#paint19_linear)"/>
<path d="M550.9 295.801C550.9 295.801 552.2 302.101 541.7 301.301" stroke="#F5C7B0" stroke-miterlimit="10" stroke-linecap="round"/>
<path d="M599 440.301L600.4 421.201L599.8 419.901L601 397.001L601.7 396.801L602.1 395.201L602.9 386.301L605.5 352.201C603.7 337.701 603.8 325.401 592.2 317.001C586.5 312.801 579.9 308.201 572.1 298.101C572.1 298.101 569.9 303.901 564.7 311.701C560.8 317.401 545.1 318.101 537.7 314.801C535.2 315.601 531.1 323.101 530 325.101C522.5 338.001 523.4 348.001 524.9 360.001L525.8 371.001L527.8 396.601L529.1 414.101V414.201L531.6 440.501H599V440.301Z" fill="#9DCAF3"/>
<path d="M541.6 316C541.6 316 534.7 343.9 534.3 348.9C532.1 377.7 533.2 462.4 533.2 462.4C533.2 462.4 535.1 476.2 535.8 478.9C537.7 485.6 541.3 485.2 541.3 485.2C541.3 485.2 548.8 388.7 551.2 361.8C552 352.5 561.4 314.4 561.4 314.4C555 316.7 551.7 317.4 541.6 316Z" fill="white"/>
<path d="M649.9 391.5C648.4 387.8 642.3 374.5 639.9 371.3C635.8 365.9 601.4 318.2 590.3 316.3C587.5 315.8 584.9 316 582.3 316.6C567.5 320.3 562.7 338.9 573.3 349.8C573.4 349.9 573.6 350.1 573.7 350.2C578.1 354.5 582.3 359 585.7 364.2C587.3 366.7 603 384.9 604.4 388.9C604.7 389.8 604.5 391.3 604.2 392.5C603.9 394 602.8 395.1 601.5 395.9L601.4 395.8L546.7 420.3L548.8 430.6C548.8 430.6 600.4 421 617 417.6C632.5 414.4 644.4 406.9 648.4 402.7C651.3 399.9 651.3 395.2 649.9 391.5Z" fill="#9DCAF3"/>
<path d="M649.9 391.5C648.4 387.8 642.3 374.5 639.9 371.3C635.8 365.9 601.4 318.2 590.3 316.3C587.5 315.8 584.9 316 582.3 316.6C567.5 320.3 562.7 338.9 573.3 349.8C573.4 349.9 573.6 350.1 573.7 350.2C578.1 354.5 582.3 359 585.7 364.2C587.3 366.7 603 384.9 604.4 388.9C604.7 389.8 604.5 391.3 604.2 392.5C603.9 394 602.8 395.1 601.5 395.9L601.4 395.8L546.7 420.3L548.8 430.6C548.8 430.6 600.4 421 617 417.6C632.5 414.4 644.4 406.9 648.4 402.7C651.3 399.9 651.3 395.2 649.9 391.5Z" fill="url(#paint20_linear)"/>
<path d="M532.3 411.4C529.9 410.2 527 409 524.5 410.1C522.9 410.9 521.8 412.6 521.4 414.3C521 416.1 521.1 417.9 521.2 419.7C521.4 423 543.2 434.9 549 430.5C550.8 429.1 549.5 427.3 549.2 425C548.2 418.1 538.6 414.7 532.3 411.4Z" fill="#F5C7B0"/>
<path d="M525.7 433.9C526.3 433.5 525.7 426.7 529.1 425.1C532.5 423.6 533.7 423.6 534 420.6C534.3 417.6 534.1 412.3 533.2 411.9C532.3 411.5 526.1 405.5 519.4 411.9C512.6 418.3 511.2 420.4 513.9 424.5C516.5 428.7 522.9 435.5 525.7 433.9Z" fill="#F5C7B0"/>
<path d="M616.6 504.7H566.9C560.3 504.7 554.9 499.3 554.9 492.7V390.3C554.9 383.7 560.3 378.3 566.9 378.3H616.6C623.2 378.3 628.6 383.7 628.6 390.3V492.8C628.6 499.3 623.2 504.7 616.6 504.7Z" fill="#52C798"/>
<path d="M616.6 505.9H581.2C574.6 505.9 569.2 500.5 569.2 493.9V389.8C569.2 383.2 574.6 377.8 581.2 377.8H616.6C623.2 377.8 628.6 383.2 628.6 389.8V493.9C628.6 500.5 623.2 505.9 616.6 505.9Z" fill="url(#paint21_linear)"/>
<path d="M538.2 617.2C534.9 617.2 532.3 614.5 532.3 611.3V536.2C532.3 532.9 535 530.3 538.2 530.3C541.5 530.3 544.1 533 544.1 536.2V611.3C544.2 614.5 541.5 617.2 538.2 617.2Z" fill="#202020"/>
<path d="M579.9 608.8H496.5C494.2 608.8 492.3 610.7 492.3 613C492.3 615.3 494.2 617.2 496.5 617.2H579.9C582.2 617.2 584.1 615.3 584.1 613C584.1 610.7 582.2 608.8 579.9 608.8Z" fill="#202020"/>
<path d="M538.2 617.2C534.9 617.2 532.3 614.5 532.3 611.3V536.2C532.3 532.9 535 530.3 538.2 530.3C541.5 530.3 544.1 533 544.1 536.2V611.3C544.2 614.5 541.5 617.2 538.2 617.2Z" fill="url(#paint22_linear)"/>
<path d="M579.9 608.8H496.5C494.2 608.8 492.3 610.7 492.3 613C492.3 615.3 494.2 617.2 496.5 617.2H579.9C582.2 617.2 584.1 615.3 584.1 613C584.1 610.7 582.2 608.8 579.9 608.8Z" fill="url(#paint23_linear)"/>
<path d="M578.8 541.7H497.6C491 541.7 485.6 536.3 485.6 529.7V521C485.6 514.4 491 509 497.6 509H578.8C585.4 509 590.8 514.4 590.8 521V529.7C590.8 536.3 585.4 541.7 578.8 541.7Z" fill="#52C798"/>
<path d="M532 542.2H578.8C585.4 542.2 590.8 536.8 590.8 530.2V525C590.8 518.4 585.4 513 578.8 513H532C525.4 513 520 518.4 520 525V530.1C520 536.8 525.4 542.2 532 542.2Z" fill="url(#paint24_linear)"/>
<path d="M363.3 422.2H281V605.3H363.3V422.2Z" fill="#3C9971"/>
<path d="M281 422.2H363.4V620H281V422.2Z" fill="url(#paint25_linear)"/>
<path d="M363.3 422.2H281V617.1H363.3V422.2Z" fill="url(#paint26_linear)"/>
<path d="M322.2 424.6C422.661 424.6 504.1 412.78 504.1 398.2C504.1 383.62 422.661 371.8 322.2 371.8C221.74 371.8 140.3 383.62 140.3 398.2C140.3 412.78 221.74 424.6 322.2 424.6Z" fill="#3C9971"/>
<path d="M322.2 419.2C422.661 419.2 504.1 408.724 504.1 395.8C504.1 382.877 422.661 372.4 322.2 372.4C221.74 372.4 140.3 382.877 140.3 395.8C140.3 408.724 221.74 419.2 322.2 419.2Z" fill="#52C798"/>
<path d="M198.5 334.7C193.2 331.5 183.8 336.7 183.8 336.7C183.8 336.7 185.3 334.6 186.4 331.5C187.5 328.4 186.4 326 186.1 326.4C185.8 326.8 176.4 339.2 176.4 339.2C176.4 339.2 176.4 339.5 176.3 339.9C175.7 340.4 175.1 340.9 174.5 341.3C169.3 343.9 164.1 347.5 162.9 349.1L118.8 386.9C122.8 392.9 127 398.7 131.5 404.4C150 382.1 173.1 353.4 173.1 353.4C173.4 353.4 173.9 353.3 174.3 353.2L174.4 353.3C176.9 355.7 184.9 349.5 185.5 349C186.1 348.5 188.9 347.4 190.3 346.7C191.7 346.1 192.6 345.4 194.3 347.4C196 349.4 203.8 337.9 198.5 334.7Z" fill="#F5C7B0"/>
<path d="M256.6 303.2C255.9 301.5 254.3 296.3 252.5 296.8C250.8 297.3 240.8 312.7 238.8 317.7C238.1 319.4 236.6 324.5 236 328.1C235.7 329.7 235.5 330.9 235.4 331.7C235.2 332.4 235 333.2 234.9 333.9C230 337.2 198.5 358.7 179.6 373.9L171.1 367.5C167.8 372.6 162.9 389.1 167.7 397.7C174.3 399.9 183.1 403.7 183.1 403.7L242.4 338C244.9 336.6 256.6 322.8 258.2 322.4C262.7 321.1 255.8 319.3 250.2 324.4C248 326.4 250.5 321.1 252.7 315.3C253.9 312.2 258.3 307.6 256.6 303.2Z" fill="#F5C7B0"/>
<path d="M256.6 303.2C255.9 301.5 254.3 296.3 252.5 296.8C250.8 297.3 240.8 312.7 238.8 317.7C238.1 319.4 236.6 324.5 236 328.1C235.7 329.7 235.5 330.9 235.4 331.7C235.2 332.4 235 333.2 234.9 333.9C230 337.2 198.5 358.7 179.6 373.9L171.1 367.5C167.8 372.6 162.9 389.1 167.7 397.7C174.3 399.9 183.1 403.7 183.1 403.7L242.4 338C244.9 336.6 256.6 322.8 258.2 322.4C262.7 321.1 255.8 319.3 250.2 324.4C248 326.4 250.5 321.1 252.7 315.3C253.9 312.2 258.3 307.6 256.6 303.2Z" fill="url(#paint27_linear)"/>
<path d="M242.3 497.001C245.6 493.001 244.9 487.701 240.6 485.101C215.6 469.901 146.2 474.201 132.3 467.101C126.1 480.701 118.8 493.701 111 506.401C135.5 512.701 185.9 507.801 190.8 512.301C173.4 519.801 175.7 527.101 161.9 552.701C161.8 552.901 161.7 553.001 161.6 553.201C161.8 557.201 156.6 558.501 154.5 561.901C154.4 562.101 154.3 562.401 154.3 562.601C154 564.201 154.9 566.201 153.8 567.101C153.7 567.201 153.6 567.401 153.5 567.501C153.1 568.201 146.7 573.801 146.3 574.401C145.8 575.201 146 576.201 146.8 576.701C150.6 579.301 157 582.601 161.5 585.301C163.1 583.701 163.7 578.701 164.1 577.601C164.2 577.401 164.4 577.301 164.6 577.101C169.7 576.701 170 575.001 170 572.401C170.3 571.701 170.7 570.701 171 570.101C176.8 569.401 175 567.601 176.8 563.701C177 563.501 177.2 563.301 177.4 563.101C197.1 541.301 228.8 513.401 242.3 497.001Z" fill="#202020"/>
<path d="M172.4 609.301C166.6 596.401 161.1 586.401 161.6 583.401C161.7 583.101 161.7 582.701 161.7 582.401C156.7 580.201 151.9 577.801 146.9 575.501C142.8 579.501 134.8 587.101 135.5 590.401C136.2 594.001 143.9 599.001 149.7 601.301C156 603.901 155.2 607.801 160.6 612.001C164.1 614.701 182.5 625.901 182.8 621.501C183 618.801 172.4 609.501 172.4 609.301Z" fill="#202020"/>
<path d="M144 471.301C135.8 470.501 131.1 461.301 126.7 453.601C126.1 452.501 124.6 452.201 123.6 453.001C123.6 453.001 67.3 461.601 67.4 462.301C68.9 488.401 69.4 513.301 86.2 518.001C118.8 526.901 192 508.001 205 512.901C194 526.401 199.4 556.901 200.8 586.101C200.8 586.301 200.8 586.501 200.8 586.701C203 590.401 199.3 593.501 199.2 597.501C199.2 597.801 199.3 598.001 199.4 598.201C200 599.801 201.7 601.401 201.3 602.601C201.3 602.801 201.3 602.901 201.3 603.101C201.3 603.901 197.7 611.601 197.7 612.301C197.7 613.301 198.4 614.101 199.3 614.301C204 615.401 212.2 612.501 217.5 613.601C217.5 613.501 216.1 611.101 215.6 608.801C215.6 608.601 215.7 608.401 215.7 608.101C219.8 605.901 219.2 604.201 217.9 601.601C217.8 600.801 217.7 599.801 217.6 599.001C222.2 596.201 219.7 595.101 219.3 590.801C219.4 590.501 219.4 590.201 219.5 590.001C225.1 562.201 234.9 513.401 237.8 492.901C238.5 487.901 235.2 483.101 230.1 482.301C195.8 476.301 153.6 472.301 144 471.301Z" fill="#202020"/>
<path d="M239.1 628.601C227.5 620.601 217.6 614.901 216.4 612.001C216.3 611.701 216.1 611.401 216 611.101C210.6 611.801 205.2 612.301 199.8 612.901C198.4 618.501 195.5 629.001 197.8 631.601C200.2 634.401 209.5 634.601 215.6 633.601C222.4 632.501 223.7 636.301 230.4 637.101C234.8 637.601 256.4 637.601 254.3 633.601C253.1 631.201 239.2 628.701 239.1 628.601Z" fill="#202020"/>
<path d="M144 471.301C135.8 470.501 131.1 461.301 126.7 453.601C126.1 452.501 124.6 452.201 123.6 453.001C123.6 453.001 67.3 461.601 67.4 462.301C68.9 488.401 69.4 513.301 86.2 518.001C118.8 526.901 192 508.001 205 512.901C194 526.401 199.4 556.901 200.8 586.101C200.8 586.301 200.8 586.501 200.8 586.701C203 590.401 199.3 593.501 199.2 597.501C199.2 597.801 199.3 598.001 199.4 598.201C200 599.801 201.7 601.401 201.3 602.601C201.3 602.801 201.3 602.901 201.3 603.101C201.3 603.901 197.7 611.601 197.7 612.301C197.7 613.301 198.4 614.101 199.3 614.301C204 615.401 212.2 612.501 217.5 613.601C217.5 613.501 216.1 611.101 215.6 608.801C215.6 608.601 215.7 608.401 215.7 608.101C219.8 605.901 219.2 604.201 217.9 601.601C217.8 600.801 217.7 599.801 217.6 599.001C222.2 596.201 219.7 595.101 219.3 590.801C219.4 590.501 219.4 590.201 219.5 590.001C225.1 562.201 234.9 513.401 237.8 492.901C238.5 487.901 235.2 483.101 230.1 482.301C195.8 476.301 153.6 472.301 144 471.301Z" fill="url(#paint28_linear)"/>
<path d="M239.1 628.601C227.5 620.601 217.6 614.901 216.4 612.001C216.3 611.701 216.1 611.401 216 611.101C210.6 611.801 205.2 612.301 199.8 612.901C198.4 618.501 195.5 629.001 197.8 631.601C200.2 634.401 209.5 634.601 215.6 633.601C222.4 632.501 223.7 636.301 230.4 637.101C234.8 637.601 256.4 637.601 254.3 633.601C253.1 631.201 239.2 628.701 239.1 628.601Z" fill="url(#paint29_linear)"/>
<path d="M95.2002 305.8C74.4002 315.1 57.8002 345.9 59.4002 368.6C61.3002 395.1 65.3002 463.4 65.3002 463.4C65.5002 466 65.1002 468.6 65.7002 471.2C67.3002 478.2 78.1002 479.9 84.1002 480.5C97.9002 482 117.6 475.8 130.4 469.7C136.1 467 135.7 465 136.4 458.8L140.1 357C142.2 340.8 137.7 328.5 124.5 315.7C118.2 309.6 97.4002 304.8 95.2002 305.8Z" fill="#52C798"/>
<path d="M175.1 368.4C175.1 368.3 138.5 331 138.4 330.9C126.3 312 105.9 313.3 100.3 329.3C97.0003 338.8 110.3 355.6 127 369.8C132.6 374.8 168.8 400.3 170 399.5C180.2 393.6 177.1 390 180.1 384.1C183 377.8 186.1 373.6 175.1 368.4Z" fill="#43A87D"/>
<path d="M100 293.301C100 293.301 121.7 304.001 122.9 303.301C124.1 302.601 121.6 316.401 121.6 316.401C121.6 316.401 95.2001 306.301 95.3001 305.801C95.4001 305.301 99.2001 291.801 99.2001 291.801C99.2001 291.801 99.4001 293.001 100 293.301Z" fill="#52C798"/>
<path d="M96.1999 257.901C96.1999 257.901 100.3 291.801 100.9 292.801C103.2 296.501 115 305.501 123 305.901C131 306.401 136.5 294.601 135.9 286.201C135.9 285.601 135.8 284.801 135.8 284.001C135.6 280.701 135.3 276.201 135 271.701C134.7 266.601 134.4 261.401 134.2 257.901C134 255.301 133.9 253.701 133.9 253.701C133.9 253.701 134.2 251.501 133.2 249.201C131.5 245.101 126.1 240.401 108.9 245.601C95.3999 249.601 96.1999 257.901 96.1999 257.901Z" fill="#F5C7B0"/>
<path d="M127.3 281.801C127.3 283.101 129 286.001 130 286.801C131.1 287.601 132.9 287.201 134.2 286.701C134.7 286.501 135.4 284.201 135.8 283.901C135.6 280.601 135.3 276.101 135 271.601C135.1 272.801 133.4 274.001 132.5 274.501C131.6 275.101 128.2 275.201 127.6 276.201C127 277.501 127.3 280.501 127.3 281.801Z" fill="url(#paint30_linear)"/>
<path d="M97.8001 261.301C98.0001 258.801 98.6001 256.401 100 254.301C102.3 251.001 106.3 249.201 110.1 248.001C115.1 246.401 120.4 245.501 125.7 245.301C126.4 245.301 127 245.301 127.7 245.501C128.2 245.701 128.6 246.101 129 246.401C130.3 247.501 131.8 248.301 133.2 249.201C134.2 251.501 133.9 253.701 133.9 253.701C134 255.101 134.2 256.501 134.1 257.901C134.1 257.701 130.3 257.001 130.1 256.901C128.2 256.501 126.1 256.501 124.2 257.001C122.5 257.501 121.5 259.801 119.6 259.701C118.5 259.701 117.8 258.701 116.9 258.001C114.5 256.101 111.8 257.201 109.6 258.801C107.7 260.201 105.4 261.601 104.2 263.701C103.4 265.101 103.5 268.401 103.6 270.001C103.6 270.401 104.2 272.401 104.8 274.501C105 274.701 105.1 274.801 105.3 275.001C106.2 275.801 107.2 276.401 108.4 276.801C110.6 277.701 113.2 277.901 115.5 277.201C116.2 277.001 116.8 276.801 117.5 276.901C118.4 277.101 119 277.801 119.5 278.501C120.6 280.101 121.5 282.101 121 284.101C120.7 285.201 120 286.001 119.3 286.901C118.8 287.501 118.2 288.101 117.5 288.401C116.9 288.701 116.1 288.701 115.4 288.701C114 288.701 112.5 288.701 111.1 288.301C108.7 287.501 107 285.501 105.7 283.301C104.7 281.601 103.9 279.801 103.4 278.001C102.4 277.201 101.4 276.401 101.1 276.501C100.1 276.901 100 272.601 99.3001 271.801C98.6001 270.901 98.4001 269.801 98.2001 268.801C98.0001 266.301 97.6001 263.801 97.8001 261.301Z" fill="url(#paint31_linear)"/>
<path d="M94.9 270.9C94.9 270.9 97.2 271.1 98.4 272.9L99.6999 280C99.6999 280 100.7 279.6 102 279C101.7 275.1 101.4 262 101.4 262C101.4 262 106.5 259.6 106.8 251.1C106.8 251 106.8 250.9 106.8 250.8C106.8 250.8 114.4 252.1 122.9 251.4C122.9 251.4 146.1 251.6 135.6 242.1C135.6 242.1 115.1 222.6 97.6999 244.8C97.6999 244.8 97.6999 244.8 97.5999 244.8C96.9999 245 91.0999 246.8 90.6999 252.5C90.2999 261 94.9 270.9 94.9 270.9Z" fill="#6E311E"/>
<path d="M94.8997 270.901C94.8997 270.901 97.1997 271.101 98.3997 272.901L99.6997 280.001C99.6997 280.001 100.7 279.601 102 279.001C101.7 275.101 101.4 262.001 101.4 262.001C101.4 262.001 106.5 259.601 106.8 251.101C105 249.801 100.7 246.901 97.6997 244.801C97.0997 245.001 91.1997 246.801 90.7997 252.501C90.2997 261.001 94.8997 270.901 94.8997 270.901Z" fill="url(#paint32_linear)"/>
<path d="M99.1997 277.1V292.8C99.1997 292.8 107.8 301.7 117.1 304.9C119.1 305.6 121.1 306 123 306C133 306.2 135.3 296.7 135.3 296.7C135.3 296.7 138.4 290.4 135.3 277C135.3 277 136.5 286.2 132.5 286.9C130.8 287.2 129.2 285 125.4 285C121.3 284.9 118.7 286.8 116.6 286.1C116.2 286 115.8 285.7 115.2 285.4C110.7 282.7 101.6 274.2 101.6 274.2L99.1997 277.1Z" fill="#6E311E"/>
<path d="M124 269.501C124.5 274.601 124.7 278.201 126.2 282.501C126.3 282.901 126.5 283.201 126.7 283.501C127.2 284.101 130.1 284.101 130.8 283.901C131 283.801 131.2 283.801 131.3 283.601C131.6 283.201 131.3 282.401 131.1 281.901C128.8 277.501 126.8 272.801 125.2 268.101C125.1 267.801 125 267.501 124.8 267.401C123.7 266.501 124 268.901 124 269.501Z" fill="#E99B8D"/>
<path d="M126 259C125.9 258.6 126 258 126.4 257.9C126.8 257.8 127.2 258.3 127.3 258.7C127.4 259.2 127.3 257.4 127.7 257.7C128.1 257.3 128.5 259.1 128.4 258.6C128.4 258.5 128.3 258.3 128.4 258.2C128.5 258.1 128.6 258.1 128.8 258C132.2 257.6 135.7 259.6 137 262.7C137.1 263 137.1 263.4 136.8 263.4C136.2 262.8 135.6 262.2 135 261.6C134.4 261 133.8 260.4 133 260.1C132 259.7 130.8 259.7 129.8 260.1C129.3 260.3 127.5 261.9 127.1 261.8C126.3 261.7 126.1 259.5 126 259Z" fill="#602A1C"/>
<path d="M119 260.201C119 259.801 118.9 259.201 118.5 259.101C118.1 259.001 117.7 259.501 117.6 260.001C117.5 260.501 117.5 258.701 117.2 259.001C116.8 258.701 116.5 260.401 116.6 259.901C116.6 259.801 116.6 259.601 116.6 259.501C116.5 259.401 116.4 259.401 116.2 259.401C112.9 259.201 109.6 261.501 108.5 264.601C108.4 264.901 108.5 265.301 108.8 265.201C109.3 264.601 109.9 264.001 110.4 263.401C110.9 262.801 111.5 262.201 112.2 261.801C113.2 261.301 114.3 261.301 115.4 261.501C115.9 261.701 117.8 263.101 118.2 263.001C118.9 262.801 118.9 260.701 119 260.201Z" fill="#602A1C"/>
<path d="M113.8 269.401C113.9 270.701 114.5 271.801 115.2 271.701C115.8 271.601 116.2 270.501 116.1 269.201C116 267.901 115.4 266.801 114.7 266.901C114.1 266.901 113.7 268.001 113.8 269.401Z" fill="#202020"/>
<path d="M130.2 268.901C130.3 270.201 130.9 271.301 131.6 271.201C132.2 271.101 132.6 270.001 132.5 268.701C132.4 267.401 131.8 266.301 131.1 266.401C130.5 266.401 130.1 267.501 130.2 268.901Z" fill="#202020"/>
<path d="M111.5 269.601L98 269.901" stroke="#F5F1F0" stroke-miterlimit="10" stroke-linecap="round" stroke-linejoin="round"/>
<path d="M110.5 271.101L98.2998 270.101" stroke="#F5F1F0" stroke-miterlimit="10" stroke-linecap="round" stroke-linejoin="round"/>
<path opacity="0.26" d="M115.5 278.701H118.7C121.5 278.701 123.7 276.401 123.7 273.701V272.801C123.7 270.001 121.4 267.801 118.7 267.801H115.5C112.7 267.801 110.5 270.101 110.5 272.801V273.701C110.5 276.501 112.7 278.701 115.5 278.701Z" fill="#F5F1F0"/>
<path opacity="0.26" d="M134.5 278.701H137.7C140.5 278.701 142.7 276.401 142.7 273.701V272.801C142.7 270.001 140.4 267.801 137.7 267.801H134.5C131.7 267.801 129.5 270.101 129.5 272.801V273.701C129.4 276.501 131.7 278.701 134.5 278.701Z" fill="#F5F1F0"/>
<path d="M115.5 278.701H118.7C121.5 278.701 123.7 276.401 123.7 273.701V272.801C123.7 270.001 121.4 267.801 118.7 267.801H115.5C112.7 267.801 110.5 270.101 110.5 272.801V273.701C110.5 276.501 112.7 278.701 115.5 278.701Z" stroke="white" stroke-miterlimit="10"/>
<path d="M134.5 278.701H137.7C140.5 278.701 142.7 276.401 142.7 273.701V272.801C142.7 270.001 140.4 267.801 137.7 267.801H134.5C131.7 267.801 129.5 270.101 129.5 272.801V273.701C129.4 276.501 131.7 278.701 134.5 278.701Z" stroke="white" stroke-miterlimit="10"/>
<path d="M129.4 270.4H123.7" stroke="white" stroke-miterlimit="10"/>
<path d="M99.1997 277.101V292.801C99.1997 292.801 107.8 301.701 117.1 304.901C114.9 301.501 109.6 291.901 115.3 285.301C110.8 282.601 101.7 274.101 101.7 274.101L99.1997 277.101Z" fill="url(#paint33_linear)"/>
<path d="M98.3999 270.201C97.5999 269.701 97.3999 269.201 96.5999 268.601C95.8999 268.001 94.7999 267.601 93.8999 267.901C93.1999 268.201 92.7999 268.801 92.4999 269.401C91.0999 271.801 90.0999 274.701 91.1999 277.201C91.8999 278.701 93.2999 279.901 94.7999 280.601C96.2999 281.301 97.4999 281.401 99.1999 281.801" fill="#F5C7B0"/>
<path d="M97.7998 272.201C97.2998 271.801 96.8998 271.301 96.4998 271.001C95.9998 270.701 95.3998 270.501 94.8998 271.001C94.2998 271.501 93.9998 272.501 93.7998 273.501C93.5998 274.301 93.4998 275.101 93.3998 275.901C93.3998 276.101 93.2998 276.401 93.2998 276.601C93.2998 277.001 93.4998 277.201 93.6998 277.501C94.3998 278.501 95.5998 278.701 96.5998 278.201C96.7998 278.101 96.9998 278.001 97.0998 277.801C97.1998 277.601 97.2998 277.201 97.2998 276.901C97.3998 275.201 97.9998 272.401 97.7998 272.201Z" fill="#E99B8D"/>
<path d="M98.6 270.901C97.8 270.401 97.4 269.201 96.7 268.601C96 268.001 94.9 267.601 94 267.901C93.3 268.201 92.9 268.801 92.6 269.401C91.2 271.801 90.2 274.701 91.3 277.201C92 278.701 93.4 279.901 94.9 280.601C96.4 281.301 97.6 281.301 99.2 281.601" fill="url(#paint34_linear)"/>
<path d="M121.8 295.601C117.8 295.501 113.9 292.901 112.5 289.101" stroke="#E99B8D" stroke-miterlimit="10" stroke-linecap="round" stroke-linejoin="round"/>
<path d="M31.2002 504.7H80.9002C87.5002 504.7 92.9002 499.3 92.9002 492.7V390.3C92.9002 383.7 87.5002 378.3 80.9002 378.3H31.2002C24.6002 378.3 19.2002 383.7 19.2002 390.3V492.8C19.2002 499.3 24.6002 504.7 31.2002 504.7Z" fill="#FCCE6C"/>
<path d="M31.2002 505.9H66.6002C73.2002 505.9 78.6002 500.5 78.6002 493.9V389.8C78.6002 383.2 73.2002 377.8 66.6002 377.8H31.2002C24.6002 377.8 19.2002 383.2 19.2002 389.8V493.9C19.2002 500.5 24.6002 505.9 31.2002 505.9Z" fill="url(#paint35_linear)"/>
<path d="M109.6 617.2C112.9 617.2 115.5 614.5 115.5 611.3V536.2C115.5 532.9 112.8 530.3 109.6 530.3C106.3 530.3 103.7 533 103.7 536.2V611.3C103.7 614.5 106.3 617.2 109.6 617.2Z" fill="#202020"/>
<path d="M67.9002 608.8H151.3C153.6 608.8 155.5 610.7 155.5 613C155.5 615.3 153.6 617.2 151.3 617.2H67.9002C65.6002 617.2 63.7002 615.3 63.7002 613C63.7002 610.7 65.6002 608.8 67.9002 608.8Z" fill="#202020"/>
<path d="M109.6 617.2C112.9 617.2 115.5 614.5 115.5 611.3V536.2C115.5 532.9 112.8 530.3 109.6 530.3C106.3 530.3 103.7 533 103.7 536.2V611.3C103.7 614.5 106.3 617.2 109.6 617.2Z" fill="url(#paint36_linear)"/>
<path d="M67.9002 608.8H151.3C153.6 608.8 155.5 610.7 155.5 613C155.5 615.3 153.6 617.2 151.3 617.2H67.9002C65.6002 617.2 63.7002 615.3 63.7002 613C63.7002 610.7 65.6002 608.8 67.9002 608.8Z" fill="url(#paint37_linear)"/>
<path d="M69 541.7H150.2C156.8 541.7 162.2 536.3 162.2 529.7V521C162.2 514.4 156.8 509 150.2 509H69C62.4 509 57 514.4 57 521V529.7C57 536.3 62.4 541.7 69 541.7Z" fill="#FCCE6C"/>
<path d="M115.8 542.2H69C62.4 542.2 57 536.8 57 530.2V525C57 518.4 62.4 513 69 513H115.8C122.4 513 127.8 518.4 127.8 525V530.1C127.8 536.8 122.4 542.2 115.8 542.2Z" fill="url(#paint38_linear)"/>
<path d="M376 394L395 380L457 387L442 404L376 394Z" fill="white"/>
<path d="M283.1 378.7L269.2 393.5L215.8 397.3L225.8 380.6L283.1 378.7Z" fill="white"/>
<path d="M289.1 382.7L275.2 397.5L221.8 401.3L231.8 384.6L289.1 382.7Z" fill="#EFEFEF"/>
<path d="M391.4 339.1C395.6 339.4 399.8 340.3 403.3 342.6C406.7 345 409.2 349.2 408.4 353.3C407.5 358.1 402.5 361.2 397.7 361.8C392.9 362.4 388 361.1 383.3 360.1C372.7 357.9 361.8 357.4 351.1 358.6C348.4 358.9 345.9 359.4 343.6 360.8C342.8 354.4 358.7 346.1 363.6 344C372.2 340 381.9 338.3 391.4 339.1Z" fill="#FCCE6C"/>
<path d="M391.4 339.1C395.6 339.4 399.8 340.3 403.3 342.6C406.7 345 409.2 349.2 408.4 353.3C407.5 358.1 402.5 361.2 397.7 361.8C392.9 362.4 388 361.1 383.3 360.1C372.7 357.9 361.8 357.4 351.1 358.6C348.4 358.9 345.9 359.4 343.6 360.8C342.8 354.4 358.7 346.1 363.6 344C372.2 340 381.9 338.3 391.4 339.1Z" fill="url(#paint39_linear)"/>
<path d="M347.2 356.3C355.1 349.4 375.3 344.7 389.7 346.2C394 346.7 398.4 347.9 401.7 350.7" stroke="#FFF8F6" stroke-width="0.4395" stroke-miterlimit="10"/>
<path d="M318.4 338.4C315.3 337.2 311.9 336.3 308.6 336.8C305.3 337.3 302.1 339.5 301.2 342.8C300.2 346.6 302.7 350.5 306 352.6C309.3 354.7 313.2 355.4 317 356.4C325.4 358.5 333.4 361.9 340.7 366.5C342.5 367.6 344.2 368.9 345.4 370.7C348.2 366.4 339.6 354.8 336.8 351.6C332 345.8 325.6 341.2 318.4 338.4Z" fill="#FCCE6C"/>
<path d="M318.4 338.4C315.3 337.2 311.9 336.3 308.6 336.8C305.3 337.3 302.1 339.5 301.2 342.8C300.2 346.6 302.7 350.5 306 352.6C309.3 354.7 313.2 355.4 317 356.4C325.4 358.5 333.4 361.9 340.7 366.5C342.5 367.6 344.2 368.9 345.4 370.7C348.2 366.4 339.6 354.8 336.8 351.6C332 345.8 325.6 341.2 318.4 338.4Z" fill="url(#paint40_linear)"/>
<path d="M344.401 366.3C341.101 358.6 328.101 348.1 317.301 344.2C314.001 343 310.401 342.4 307.101 343.3" stroke="#FFF8F6" stroke-width="0.4395" stroke-miterlimit="10"/>
<path d="M347.501 346.2C352.701 337.6 350.001 326.6 351.901 316.7C353.301 309.1 357.501 302.1 363.601 297.3C367.401 294.3 372.701 292.1 377.001 294.4C380.701 296.3 381.101 290.7 381.201 288.4C381.501 281.9 380.501 275.9 386.201 271.4C390.901 267.7 398.501 265.2 404.501 265.8C406.301 266 408.001 266.7 409.201 268C411.101 270 411.201 273.2 410.301 275.8C407.601 283.3 399.701 288.5 395.501 295.1C393.601 298.1 391.901 301.8 393.001 305.4C393.601 307.3 395.501 308.6 395.601 310.5C395.901 313.4 392.701 315.9 390.401 317C387.501 318.4 384.301 319.3 381.101 319.6C374.901 320.2 373.101 322.5 374.301 328.8C375.201 333.5 374.101 336.5 370.701 339.7C367.301 343 363.501 345.9 359.601 348.5C356.401 350.6 352.901 352.4 350.101 355C347.201 357.6 344.901 361 344.701 364.9C342.801 362 342.301 358.2 342.701 354.8C343.101 351.4 345.701 349.2 347.501 346.2Z" fill="#52C798"/>
<path d="M347.501 346.2C352.701 337.6 350.001 326.6 351.901 316.7C353.301 309.1 357.501 302.1 363.601 297.3C367.401 294.3 372.701 292.1 377.001 294.4C380.701 296.3 381.101 290.7 381.201 288.4C381.501 281.9 380.501 275.9 386.201 271.4C390.901 267.7 398.501 265.2 404.501 265.8C406.301 266 408.001 266.7 409.201 268C411.101 270 411.201 273.2 410.301 275.8C407.601 283.3 399.701 288.5 395.501 295.1C393.601 298.1 391.901 301.8 393.001 305.4C393.601 307.3 395.501 308.6 395.601 310.5C395.901 313.4 392.701 315.9 390.401 317C387.501 318.4 384.301 319.3 381.101 319.6C374.901 320.2 373.101 322.5 374.301 328.8C375.201 333.5 374.101 336.5 370.701 339.7C367.301 343 363.501 345.9 359.601 348.5C356.401 350.6 352.901 352.4 350.101 355C347.201 357.6 344.901 361 344.701 364.9C342.801 362 342.301 358.2 342.701 354.8C343.101 351.4 345.701 349.2 347.501 346.2Z" fill="url(#paint41_linear)"/>
<path d="M345.101 360C345.601 357.6 345.901 355.4 347.101 353.1C348.301 350.8 349.701 348.7 351.001 346.5C354.601 340.5 356.701 333.6 358.601 326.9C360.401 320.6 365.101 314.1 369.501 309.3C372.901 305.6 377.101 302.7 380.601 299.1C383.101 296.5 385.201 293.6 386.901 290.4C387.801 288.7 388.601 286.9 389.801 285.3C391.201 283.5 393.201 282.2 394.901 280.7C397.201 278.6 399.101 276 400.401 273.2" stroke="#FFF8F6" stroke-width="0.4395" stroke-miterlimit="10"/>
<path d="M352.501 328.2C354.901 326 357.601 323.9 360.801 323.2C364.001 322.5 367.701 323.3 369.701 325.9C372.001 329 371.201 333.5 368.901 336.6C366.701 339.7 363.401 341.8 360.301 344C353.501 349 347.401 355 342.401 361.8C341.201 363.5 340.101 365.3 339.701 367.3C335.601 364.4 339.201 350.8 340.501 346.8C342.901 339.9 347.101 333.3 352.501 328.2Z" fill="#FCCE6C"/>
<path d="M340 363.799C339.9 355.399 347.5 340.699 355.7 332.799C358.2 330.399 361.2 328.499 364.5 327.899" stroke="#FFF8F6" stroke-width="0.4395" stroke-miterlimit="10"/>
<path d="M336.6 355.2C334.4 347.7 326.6 343.4 321.9 337.1C318.2 332.3 316.4 326.1 316.8 320.1C317.1 316.3 318.6 312.1 322.2 310.8C325.3 309.7 322.3 306.5 321 305.2C317.4 301.6 313.4 299 313.8 293.3C314.1 288.7 316.7 282.9 320.2 279.8C321.2 278.9 322.6 278.2 324 278.2C326.2 278.2 328.1 279.8 329.1 281.7C332 287.2 330.8 294.5 332.5 300.5C333.2 303.2 334.5 306.1 337.2 307.4C338.6 308.1 340.4 307.7 341.5 308.6C343.3 310 343.1 313.2 342.5 315.1C341.8 317.5 340.6 319.8 339.1 321.8C336.2 325.7 336.6 328 340.8 330.6C344 332.5 345.1 334.8 345.2 338.5C345.3 342.2 345 345.9 344.4 349.6C343.9 352.6 343.1 355.5 343.1 358.5C343.1 361.5 343.8 364.7 346 366.8C343.4 366.4 340.8 364.6 339.1 362.6C337.3 360.5 337.4 357.8 336.6 355.2Z" fill="#52C798"/>
<path d="M336.6 355.2C334.4 347.7 326.6 343.4 321.9 337.1C318.2 332.3 316.4 326.1 316.8 320.1C317.1 316.3 318.6 312.1 322.2 310.8C325.3 309.7 322.3 306.5 321 305.2C317.4 301.6 313.4 299 313.8 293.3C314.1 288.7 316.7 282.9 320.2 279.8C321.2 278.9 322.6 278.2 324 278.2C326.2 278.2 328.1 279.8 329.1 281.7C332 287.2 330.8 294.5 332.5 300.5C333.2 303.2 334.5 306.1 337.2 307.4C338.6 308.1 340.4 307.7 341.5 308.6C343.3 310 343.1 313.2 342.5 315.1C341.8 317.5 340.6 319.8 339.1 321.8C336.2 325.7 336.6 328 340.8 330.6C344 332.5 345.1 334.8 345.2 338.5C345.3 342.2 345 345.9 344.4 349.6C343.9 352.6 343.1 355.5 343.1 358.5C343.1 361.5 343.8 364.7 346 366.8C343.4 366.4 340.8 364.6 339.1 362.6C337.3 360.5 337.4 357.8 336.6 355.2Z" fill="url(#paint42_linear)"/>
<path d="M343.3 363.8C342.2 362.2 341.1 360.9 340.4 359C339.7 357.1 339.2 355.2 338.7 353.2C337.1 347.9 334.2 343.1 331.4 338.4C328.7 334 327.4 327.9 327 322.8C326.7 318.9 327.2 314.9 326.9 311C326.7 308.2 326.1 305.4 325.2 302.8C324.7 301.4 324 300 323.8 298.5C323.5 296.7 323.8 294.9 323.8 293.1C323.8 290.7 323.3 288.2 322.3 286" stroke="#FFF8F6" stroke-width="0.4395" stroke-miterlimit="10"/>
<path d="M374.3 358.1H322.1C322.1 358.1 317.9 368.3 317.9 370.8C317.9 373.3 323.7 378.5 329.9 378.5H366.6C372.8 378.5 378.6 373.3 378.6 370.8C378.6 368.3 374.3 358.1 374.3 358.1Z" fill="#FF4D00"/>
<path d="M368.8 381.1H327.7L329.1 378.5H367.4L368.8 381.1Z" fill="#FF4D00"/>
<path d="M333.8 370.8C333.8 368.3 338 358.1 338 358.1H322.1C322.1 358.1 317.9 368.3 317.9 370.8C317.9 373.3 323.7 378.5 329.9 378.5H345.8C339.5 378.5 333.8 373.3 333.8 370.8Z" fill="#FF4D00"/>
<path d="M333.8 370.8C333.8 368.3 338 358.1 338 358.1H322.1C322.1 358.1 317.9 368.3 317.9 370.8C317.9 373.3 323.7 378.5 329.9 378.5H345.8C339.5 378.5 333.8 373.3 333.8 370.8Z" fill="url(#paint43_linear)"/>
<path opacity="0.55" d="M329.1 378.5L327.7 381.1H343.6L345 378.5H329.1Z" fill="#EFAF11"/>
<g opacity="0.31">
<g opacity="0.31">
<g opacity="0.31">
<path opacity="0.31" d="M416.6 401.7L419.3 349.4H393.7L396.4 401.7H416.6Z" fill="#9DCAF3"/>
</g>
</g>
</g>
<g opacity="0.38">
<g opacity="0.38">
<g opacity="0.38">
<path opacity="0.38" d="M398.5 400.7L396 351.9H417L414.5 400.7H398.5Z" fill="#9DCAF3"/>
</g>
</g>
</g>
<path d="M396.8 363.9L398.5 400.7H414.5L416.2 363.9H396.8Z" fill="#9DCAF3"/>
<g opacity="0.5">
<g opacity="0.5">
<g opacity="0.5">
<path opacity="0.5" d="M400.2 395.401H404.6L402 357.001C401.5 352.401 397.1 352.101 397.8 357.401L400.2 395.401Z" fill="white"/>
</g>
</g>
</g>
<path d="M215.3 390.1C215.3 393.4 212.7 396.2 209.6 396.2C206.5 396.2 203.9 393.5 203.9 390.1C203.9 386.8 206.5 384 209.6 384C212.8 384 215.3 386.7 215.3 390.1Z" stroke="#FF4D00" stroke-width="3" stroke-miterlimit="10"/>
<path d="M209 379.5C209 383 218.2 385.9 229.6 385.9C241 385.9 250.201 383.1 250.201 379.5C250.201 376 241 373.1 229.6 373.1C218.3 373.1 209 376 209 379.5Z" fill="#EF3E00"/>
<path d="M214.4 387.199C214.4 390.699 221.3 393.499 229.9 393.499C238.4 393.499 245.4 390.699 245.4 387.199C245.4 383.699 238.5 380.899 229.9 380.899C221.3 380.899 214.4 383.699 214.4 387.199Z" fill="#6E311E"/>
<path d="M229.5 385.8C240.2 385.8 249 383.3 249.9 380.1C250 380 250.1 379.9 250.2 379.8C250.2 393.3 241 404.2 229.7 404.2C218.5 404.2 209.4 393.5 209.2 380.3C210.4 383.4 219.1 385.8 229.5 385.8Z" fill="#FF4D00"/>
<path d="M229.5 385.8C240.2 385.8 249 383.3 249.9 380.1C250 380 250.1 379.9 250.2 379.8C250.2 393.3 241 404.2 229.7 404.2C218.5 404.2 209.4 393.5 209.2 380.3C210.4 383.4 219.1 385.8 229.5 385.8Z" fill="url(#paint44_linear)"/>
<path d="M302.7 374.099C303.1 377.399 300.5 380.399 297.1 380.799C293.6 381.199 290.5 378.799 290.2 375.499C289.8 372.199 292.4 369.199 295.8 368.799C299.2 368.399 302.4 370.799 302.7 374.099ZM293 375.099C293.2 376.799 294.9 378.099 296.8 377.899C298.7 377.699 300.1 376.099 299.9 374.399C299.7 372.699 298 371.399 296.1 371.599C294.2 371.799 292.8 373.399 293 375.099Z" fill="#DD924E"/>
<path d="M296.9 366.2C296.9 369 289.5 371.3 280.3 371.3C271.1 371.3 263.7 369 263.7 366.2C263.7 363.4 271.1 361.1 280.3 361.1C289.5 361.1 296.9 363.4 296.9 366.2Z" fill="#DD924E"/>
<path d="M292.6 372.499C292.6 375.299 287 377.599 280.1 377.599C273.2 377.599 267.6 375.299 267.6 372.499C267.6 369.699 273.2 367.399 280.1 367.399C287 367.399 292.6 369.699 292.6 372.499Z" fill="#6E311E"/>
<path d="M280.4 371.3C271.8 371.3 264.7 369.3 263.9 366.7C263.8 366.6 263.7 366.6 263.7 366.5C263.7 377.3 271.1 386.1 280.2 386.1C289.2 386.1 296.6 377.5 296.7 366.8C295.8 369.4 288.8 371.3 280.4 371.3Z" fill="#FCCE6C"/>
<path d="M280.4 371.3C271.8 371.3 264.7 369.3 263.9 366.7C263.8 366.6 263.7 366.6 263.7 366.5C263.7 377.3 271.1 386.1 280.2 386.1C289.2 386.1 296.6 377.5 296.7 366.8C295.8 369.4 288.8 371.3 280.4 371.3Z" fill="url(#paint45_linear)"/>
<path d="M649.4 391.5C647.9 387.8 641.8 374.5 639.4 371.3C635.3 365.9 600.9 318.2 589.8 316.3C587 315.8 584.4 316 581.8 316.6C567 320.3 562.2 338.9 572.8 349.8C572.9 349.9 573.1 350.1 573.2 350.2C577.6 354.5 581.8 359 585.2 364.2C586.8 366.7 602.5 384.9 603.9 388.8C604.2 389.7 604 391.2 603.7 392.4C603.4 393.9 602.3 395 601 395.8L600.9 395.7L546.2 420.2L548.3 430.5C548.3 430.5 599.8 420.9 616.5 417.5C632 414.3 643.9 406.8 647.9 402.6C650.8 399.8 650.9 395.2 649.4 391.5Z" fill="#9DCAF3"/>
<path d="M649.4 391.5C647.9 387.8 641.8 374.5 639.4 371.3C635.3 365.9 600.9 318.2 589.8 316.3C587 315.8 584.4 316 581.8 316.6C567 320.3 562.2 338.9 572.8 349.8C572.9 349.9 573.1 350.1 573.2 350.2C577.6 354.5 581.8 359 585.2 364.2C586.8 366.7 602.5 384.9 603.9 388.8C604.2 389.7 604 391.2 603.7 392.4C603.4 393.9 602.3 395 601 395.8L600.9 395.7L546.2 420.2L548.3 430.5C548.3 430.5 599.8 420.9 616.5 417.5C632 414.3 643.9 406.8 647.9 402.6C650.8 399.8 650.9 395.2 649.4 391.5Z" fill="url(#paint46_linear)"/>
<path d="M531.8 411.4C529.4 410.2 526.5 409 524 410.1C522.4 410.9 521.3 412.6 520.9 414.3C520.5 416.1 520.6 417.9 520.7 419.7C520.9 423 542.6 434.9 548.5 430.5C550.3 429.1 549 427.3 548.7 425C547.8 418.1 538.2 414.7 531.8 411.4Z" fill="#F5C7B0"/>
<path d="M525.2 433.9C525.8 433.5 525.2 426.7 528.6 425.1C532 423.6 533.2 423.6 533.5 420.6C533.8 417.7 533.6 412.3 532.7 411.9C531.8 411.5 525.6 405.5 518.9 411.9C512.2 418.3 510.7 420.4 513.4 424.5C516.1 428.6 522.5 435.5 525.2 433.9Z" fill="#F5C7B0"/>
</g>
</g>
<defs>
<linearGradient id="paint0_linear" x1="108.056" y1="239.875" x2="243.963" y2="239.875" gradientUnits="userSpaceOnUse">
<stop stop-color="white" stop-opacity="0"/>
<stop offset="0.9798" stop-color="white" stop-opacity="0.4899"/>
<stop offset="1" stop-color="white" stop-opacity="0.5"/>
</linearGradient>
<linearGradient id="paint1_linear" x1="98.8135" y1="195.661" x2="618.837" y2="195.661" gradientUnits="userSpaceOnUse">
<stop stop-color="white" stop-opacity="0"/>
<stop offset="0.9798" stop-color="white" stop-opacity="0.4899"/>
<stop offset="1" stop-color="white" stop-opacity="0.5"/>
</linearGradient>
<linearGradient id="paint2_linear" x1="59.1087" y1="374.39" x2="170.538" y2="368.499" gradientUnits="userSpaceOnUse">
<stop stop-color="white" stop-opacity="0"/>
<stop offset="0.9798" stop-color="white" stop-opacity="0.4899"/>
<stop offset="1" stop-color="white" stop-opacity="0.5"/>
</linearGradient>
<linearGradient id="paint3_linear" x1="195.323" y1="501.749" x2="183.436" y2="501.749" gradientUnits="userSpaceOnUse">
<stop offset="0.7604" stop-color="white" stop-opacity="0"/>
<stop offset="0.9952" stop-color="white" stop-opacity="0.4899"/>
<stop offset="1" stop-color="white" stop-opacity="0.5"/>
</linearGradient>
<linearGradient id="paint4_linear" x1="235.275" y1="541.059" x2="143.485" y2="541.059" gradientUnits="userSpaceOnUse">
<stop offset="0.7604" stop-color="white" stop-opacity="0"/>
<stop offset="0.9952" stop-color="white" stop-opacity="0.4899"/>
<stop offset="1" stop-color="white" stop-opacity="0.5"/>
</linearGradient>
<linearGradient id="paint5_linear" x1="265.868" y1="457.294" x2="145.687" y2="435.652" gradientUnits="userSpaceOnUse">
<stop stop-color="white" stop-opacity="0"/>
<stop offset="0.9798" stop-color="white" stop-opacity="0.4899"/>
<stop offset="1" stop-color="white" stop-opacity="0.5"/>
</linearGradient>
<linearGradient id="paint6_linear" x1="273.872" y1="572.755" x2="347.179" y2="572.755" gradientUnits="userSpaceOnUse">
<stop stop-color="white" stop-opacity="0"/>
<stop offset="0.9798" stop-color="white" stop-opacity="0.4899"/>
<stop offset="1" stop-color="white" stop-opacity="0.5"/>
</linearGradient>
<linearGradient id="paint7_linear" x1="204.43" y1="499.175" x2="303.509" y2="434.392" gradientUnits="userSpaceOnUse">
<stop stop-color="white" stop-opacity="0"/>
<stop offset="0.9798" stop-color="white" stop-opacity="0.4899"/>
<stop offset="1" stop-color="white" stop-opacity="0.5"/>
</linearGradient>
<linearGradient id="paint8_linear" x1="166.9" y1="263.548" x2="190.238" y2="263.548" gradientUnits="userSpaceOnUse">
<stop stop-color="#F5B48D" stop-opacity="0.5"/>
<stop offset="1" stop-color="#F5A77B" stop-opacity="0.5"/>
</linearGradient>
<linearGradient id="paint9_linear" x1="143.505" y1="211.517" x2="258.534" y2="268.809" gradientUnits="userSpaceOnUse">
<stop stop-color="white" stop-opacity="0"/>
<stop offset="0.9798" stop-color="white" stop-opacity="0.4899"/>
<stop offset="1" stop-color="white" stop-opacity="0.5"/>
</linearGradient>
<linearGradient id="paint10_linear" x1="293.396" y1="293.926" x2="238.678" y2="294.881" gradientUnits="userSpaceOnUse">
<stop stop-color="white" stop-opacity="0"/>
<stop offset="0.9798" stop-color="white" stop-opacity="0.4899"/>
<stop offset="1" stop-color="white" stop-opacity="0.5"/>
</linearGradient>
<linearGradient id="paint11_linear" x1="168.359" y1="236.062" x2="155.724" y2="234.225" gradientUnits="userSpaceOnUse">
<stop stop-color="white" stop-opacity="0"/>
<stop offset="0.9798" stop-color="white" stop-opacity="0.4899"/>
<stop offset="1" stop-color="white" stop-opacity="0.5"/>
</linearGradient>
<linearGradient id="paint12_linear" x1="462.494" y1="328.799" x2="404.857" y2="326.258" gradientUnits="userSpaceOnUse">
<stop stop-color="white" stop-opacity="0"/>
<stop offset="0.9798" stop-color="white" stop-opacity="0.4899"/>
<stop offset="1" stop-color="white" stop-opacity="0.5"/>
</linearGradient>
<linearGradient id="paint13_linear" x1="431.168" y1="526.538" x2="601.62" y2="526.538" gradientUnits="userSpaceOnUse">
<stop stop-color="white" stop-opacity="0"/>
<stop offset="0.9798" stop-color="white" stop-opacity="0.4899"/>
<stop offset="1" stop-color="white" stop-opacity="0.5"/>
</linearGradient>
<linearGradient id="paint14_linear" x1="414.48" y1="617.907" x2="472.01" y2="617.907" gradientUnits="userSpaceOnUse">
<stop stop-color="white" stop-opacity="0"/>
<stop offset="0.9798" stop-color="white" stop-opacity="0.4899"/>
<stop offset="1" stop-color="white" stop-opacity="0.5"/>
</linearGradient>
<linearGradient id="paint15_linear" x1="530.001" y1="273.805" x2="566.757" y2="281.128" gradientUnits="userSpaceOnUse">
<stop stop-color="white" stop-opacity="0"/>
<stop offset="0.9798" stop-color="white" stop-opacity="0.4899"/>
<stop offset="1" stop-color="white" stop-opacity="0.5"/>
</linearGradient>
<linearGradient id="paint16_linear" x1="552.119" y1="261.464" x2="585.144" y2="268.044" gradientUnits="userSpaceOnUse">
<stop stop-color="white" stop-opacity="0"/>
<stop offset="0.9798" stop-color="white" stop-opacity="0.4899"/>
<stop offset="1" stop-color="white" stop-opacity="0.5"/>
</linearGradient>
<linearGradient id="paint17_linear" x1="523.109" y1="273.105" x2="535.637" y2="276.079" gradientUnits="userSpaceOnUse">
<stop stop-color="white" stop-opacity="0"/>
<stop offset="0.9798" stop-color="white" stop-opacity="0.4899"/>
<stop offset="1" stop-color="white" stop-opacity="0.5"/>
</linearGradient>
<linearGradient id="paint18_linear" x1="539.775" y1="275.044" x2="552.303" y2="278.018" gradientUnits="userSpaceOnUse">
<stop stop-color="white" stop-opacity="0"/>
<stop offset="0.9798" stop-color="white" stop-opacity="0.4899"/>
<stop offset="1" stop-color="white" stop-opacity="0.5"/>
</linearGradient>
<linearGradient id="paint19_linear" x1="559.603" y1="274.104" x2="575.496" y2="274.01" gradientUnits="userSpaceOnUse">
<stop stop-color="white" stop-opacity="0"/>
<stop offset="0.9798" stop-color="white" stop-opacity="0.4899"/>
<stop offset="1" stop-color="white" stop-opacity="0.5"/>
</linearGradient>
<linearGradient id="paint20_linear" x1="546.787" y1="373.274" x2="650.818" y2="373.274" gradientUnits="userSpaceOnUse">
<stop stop-color="white" stop-opacity="0"/>
<stop offset="0.9798" stop-color="white" stop-opacity="0.4899"/>
<stop offset="1" stop-color="white" stop-opacity="0.5"/>
</linearGradient>
<linearGradient id="paint21_linear" x1="683.332" y1="446.33" x2="571.902" y2="440.439" gradientUnits="userSpaceOnUse">
<stop stop-color="white" stop-opacity="0"/>
<stop offset="0.9798" stop-color="white" stop-opacity="0.4899"/>
<stop offset="1" stop-color="white" stop-opacity="0.5"/>
</linearGradient>
<linearGradient id="paint22_linear" x1="532.28" y1="573.689" x2="544.168" y2="573.689" gradientUnits="userSpaceOnUse">
<stop offset="0.7604" stop-color="white" stop-opacity="0"/>
<stop offset="0.9952" stop-color="white" stop-opacity="0.4899"/>
<stop offset="1" stop-color="white" stop-opacity="0.5"/>
</linearGradient>
<linearGradient id="paint23_linear" x1="492.329" y1="612.999" x2="584.119" y2="612.999" gradientUnits="userSpaceOnUse">
<stop offset="0.7604" stop-color="white" stop-opacity="0"/>
<stop offset="0.9952" stop-color="white" stop-opacity="0.4899"/>
<stop offset="1" stop-color="white" stop-opacity="0.5"/>
</linearGradient>
<linearGradient id="paint24_linear" x1="461.554" y1="529.229" x2="581.735" y2="507.585" gradientUnits="userSpaceOnUse">
<stop stop-color="white" stop-opacity="0"/>
<stop offset="0.9798" stop-color="white" stop-opacity="0.4899"/>
<stop offset="1" stop-color="white" stop-opacity="0.5"/>
</linearGradient>
<linearGradient id="paint25_linear" x1="363.367" y1="521.079" x2="281.026" y2="521.079" gradientUnits="userSpaceOnUse">
<stop offset="0.7604" stop-color="white" stop-opacity="0"/>
<stop offset="0.9952" stop-color="white" stop-opacity="0.4899"/>
<stop offset="1" stop-color="white" stop-opacity="0.5"/>
</linearGradient>
<linearGradient id="paint26_linear" x1="281.005" y1="519.607" x2="363.345" y2="519.607" gradientUnits="userSpaceOnUse">
<stop offset="0.7604" stop-color="white" stop-opacity="0"/>
<stop offset="0.9952" stop-color="white" stop-opacity="0.4899"/>
<stop offset="1" stop-color="white" stop-opacity="0.5"/>
</linearGradient>
<linearGradient id="paint27_linear" x1="165.618" y1="350.3" x2="259.68" y2="350.3" gradientUnits="userSpaceOnUse">
<stop stop-color="white" stop-opacity="0"/>
<stop offset="0.9798" stop-color="white" stop-opacity="0.4899"/>
<stop offset="1" stop-color="white" stop-opacity="0.5"/>
</linearGradient>
<linearGradient id="paint28_linear" x1="67.343" y1="533.552" x2="237.795" y2="533.552" gradientUnits="userSpaceOnUse">
<stop stop-color="white" stop-opacity="0"/>
<stop offset="0.9798" stop-color="white" stop-opacity="0.4899"/>
<stop offset="1" stop-color="white" stop-opacity="0.5"/>
</linearGradient>
<linearGradient id="paint29_linear" x1="196.954" y1="624.231" x2="254.484" y2="624.231" gradientUnits="userSpaceOnUse">
<stop stop-color="white" stop-opacity="0"/>
<stop offset="0.9798" stop-color="white" stop-opacity="0.4899"/>
<stop offset="1" stop-color="white" stop-opacity="0.5"/>
</linearGradient>
<linearGradient id="paint30_linear" x1="123.369" y1="278.78" x2="134.826" y2="279.625" gradientUnits="userSpaceOnUse">
<stop stop-color="white" stop-opacity="0"/>
<stop offset="0.9798" stop-color="white" stop-opacity="0.4899"/>
<stop offset="1" stop-color="white" stop-opacity="0.5"/>
</linearGradient>
<linearGradient id="paint31_linear" x1="134.186" y1="266.979" x2="97.7667" y2="266.979" gradientUnits="userSpaceOnUse">
<stop stop-color="white" stop-opacity="0"/>
<stop offset="0.9798" stop-color="white" stop-opacity="0.4899"/>
<stop offset="1" stop-color="white" stop-opacity="0.5"/>
</linearGradient>
<linearGradient id="paint32_linear" x1="106.75" y1="262.444" x2="90.7429" y2="262.444" gradientUnits="userSpaceOnUse">
<stop stop-color="#6E311E" stop-opacity="0.5"/>
<stop offset="1" stop-color="#592719"/>
</linearGradient>
<linearGradient id="paint33_linear" x1="117.098" y1="289.408" x2="99.1741" y2="289.408" gradientUnits="userSpaceOnUse">
<stop stop-color="#6E311E" stop-opacity="0.5"/>
<stop offset="1" stop-color="#592719"/>
</linearGradient>
<linearGradient id="paint34_linear" x1="99.1729" y1="274.723" x2="90.8321" y2="274.723" gradientUnits="userSpaceOnUse">
<stop stop-color="white" stop-opacity="0"/>
<stop offset="0.9798" stop-color="white" stop-opacity="0.4899"/>
<stop offset="1" stop-color="white" stop-opacity="0.5"/>
</linearGradient>
<linearGradient id="paint35_linear" x1="-35.5023" y1="446.33" x2="75.9274" y2="440.439" gradientUnits="userSpaceOnUse">
<stop stop-color="white" stop-opacity="0"/>
<stop offset="0.9798" stop-color="white" stop-opacity="0.4899"/>
<stop offset="1" stop-color="white" stop-opacity="0.5"/>
</linearGradient>
<linearGradient id="paint36_linear" x1="115.549" y1="573.689" x2="103.662" y2="573.689" gradientUnits="userSpaceOnUse">
<stop offset="0.7604" stop-color="white" stop-opacity="0"/>
<stop offset="0.9952" stop-color="white" stop-opacity="0.4899"/>
<stop offset="1" stop-color="white" stop-opacity="0.5"/>
</linearGradient>
<linearGradient id="paint37_linear" x1="155.501" y1="612.999" x2="63.7111" y2="612.999" gradientUnits="userSpaceOnUse">
<stop offset="0.7604" stop-color="white" stop-opacity="0"/>
<stop offset="0.9952" stop-color="white" stop-opacity="0.4899"/>
<stop offset="1" stop-color="white" stop-opacity="0.5"/>
</linearGradient>
<linearGradient id="paint38_linear" x1="186.082" y1="529.229" x2="65.9009" y2="507.585" gradientUnits="userSpaceOnUse">
<stop stop-color="white" stop-opacity="0"/>
<stop offset="0.9798" stop-color="white" stop-opacity="0.4899"/>
<stop offset="1" stop-color="white" stop-opacity="0.5"/>
</linearGradient>
<linearGradient id="paint39_linear" x1="343.484" y1="350.42" x2="408.554" y2="350.42" gradientUnits="userSpaceOnUse">
<stop stop-color="white" stop-opacity="0"/>
<stop offset="0.9798" stop-color="white" stop-opacity="0.4899"/>
<stop offset="1" stop-color="white" stop-opacity="0.5"/>
</linearGradient>
<linearGradient id="paint40_linear" x1="348.87" y1="362.908" x2="301.931" y2="340.29" gradientUnits="userSpaceOnUse">
<stop stop-color="white" stop-opacity="0"/>
<stop offset="0.9798" stop-color="white" stop-opacity="0.4899"/>
<stop offset="1" stop-color="white" stop-opacity="0.5"/>
</linearGradient>
<linearGradient id="paint41_linear" x1="342.577" y1="315.388" x2="410.869" y2="315.388" gradientUnits="userSpaceOnUse">
<stop stop-color="white" stop-opacity="0"/>
<stop offset="0.9798" stop-color="white" stop-opacity="0.4899"/>
<stop offset="1" stop-color="white" stop-opacity="0.5"/>
</linearGradient>
<linearGradient id="paint42_linear" x1="316.025" y1="341.844" x2="352.097" y2="302.332" gradientUnits="userSpaceOnUse">
<stop stop-color="white" stop-opacity="0"/>
<stop offset="0.9798" stop-color="white" stop-opacity="0.4899"/>
<stop offset="1" stop-color="white" stop-opacity="0.5"/>
</linearGradient>
<linearGradient id="paint43_linear" x1="317.907" y1="368.278" x2="345.751" y2="368.278" gradientUnits="userSpaceOnUse">
<stop stop-color="white" stop-opacity="0"/>
<stop offset="0.9798" stop-color="white" stop-opacity="0.4899"/>
<stop offset="1" stop-color="white" stop-opacity="0.5"/>
</linearGradient>
<linearGradient id="paint44_linear" x1="209.197" y1="391.975" x2="250.242" y2="391.975" gradientUnits="userSpaceOnUse">
<stop stop-color="white" stop-opacity="0"/>
<stop offset="0.9798" stop-color="white" stop-opacity="0.4899"/>
<stop offset="1" stop-color="white" stop-opacity="0.5"/>
</linearGradient>
<linearGradient id="paint45_linear" x1="296.776" y1="376.304" x2="263.697" y2="376.304" gradientUnits="userSpaceOnUse">
<stop stop-color="white" stop-opacity="0"/>
<stop offset="0.9798" stop-color="white" stop-opacity="0.4899"/>
<stop offset="1" stop-color="white" stop-opacity="0.5"/>
</linearGradient>
<linearGradient id="paint46_linear" x1="675.111" y1="372.811" x2="600.193" y2="373.128" gradientUnits="userSpaceOnUse">
<stop stop-color="white" stop-opacity="0"/>
<stop offset="0.9798" stop-color="white" stop-opacity="0.4899"/>
<stop offset="1" stop-color="white" stop-opacity="0.5"/>
</linearGradient>
<clipPath id="clip0">
<rect width="700" height="690" fill="white"/>
</clipPath>
<clipPath id="clip1">
<rect width="700" height="690" fill="white" transform="translate(-15 -22)"/>
</clipPath>
</defs>
</svg>
