<?xml version="1.0" encoding="utf-8"?>
<svg width="705" height="700" viewBox="0 0 705 700" fill="none" xmlns="http://www.w3.org/2000/svg">
<mask id="mask0" mask-type="alpha" maskUnits="userSpaceOnUse" x="0" y="0" width="705" height="700">
<rect width="705" height="700" fill="#C4C4C4"/>
</mask>
<g mask="url(#mask0)">
<path d="M33.1192 145.174C-25.4908 212.869 17.5141 269.024 64.3295 280.564C130.742 296.919 152.426 266.388 169.755 372.247C175.652 408.139 195.884 443.122 229.091 459.933C252.952 472.018 282.257 473.653 306.663 462.659C320.272 456.571 331.885 446.939 344.768 439.579C357.652 432.128 372.894 426.857 387.32 430.674C401.201 434.308 411.725 445.576 419.437 457.661C438.036 486.738 451.101 513.543 472.331 540.985C490.205 564.156 530.397 591.87 559.883 594.596C598.443 598.23 634.28 575.423 663.676 553.07C698.152 526.81 709.13 494.098 731.721 457.025C760.573 409.593 779.172 356.346 789.606 301.826C798.86 253.304 801.854 203.055 792.781 154.442C778.537 77.5694 789.969 69.5732 662.133 30.4101C555.075 -2.48333 339.053 -26.8354 279.807 81.204C219.746 190.97 117.677 47.7654 33.1192 145.174Z" fill="#FFEEE7"/>
<path d="M108.695 343.715C108.695 343.715 519.872 328.904 613.14 349.44C785.885 387.513 718.384 648.206 718.384 648.206L408.096 700L25.2256 570.062L108.695 343.715Z" fill="url(#paint0_linear)"/>
<path d="M288.426 399.78L289.787 400.052L283.526 350.712C283.617 350.621 283.617 350.53 283.617 350.53V342.716L257.85 346.35L254.494 345.896C250.774 345.442 245.693 345.805 242.517 346.714L226.277 346.896L226.096 354.165L220.924 400.87L222.92 400.961L231.721 356.527C236.439 357.254 248.596 358.799 254.856 359.253L259.211 407.049L261.298 407.23L260.3 359.072L279.171 353.711L288.426 399.78Z" fill="#9DCAF3"/>
<path d="M259.302 350.439C256.217 351.53 228.999 347.804 228.999 347.804C225.279 347.441 224.463 346.26 227.185 345.169C227.185 345.169 251.227 340.262 255.401 340.717L279.988 341.444C284.343 341.898 284.887 343.261 281.168 344.533L259.302 350.439Z" fill="#9DCAF3"/>
<path d="M259.938 345.987C260.21 348.804 256.49 350.621 251.591 350.076L233.264 347.532C228.455 346.986 226.278 345.442 225.28 342.625L217.205 301.008C215.753 296.465 218.203 292.83 224.554 293.376L247.871 296.465C253.133 296.828 253.496 301.553 253.95 306.097L259.938 345.987Z" fill="#9DCAF3"/>
<path d="M334.516 405.232L335.877 405.504L329.617 356.164C329.707 356.073 329.707 355.982 329.707 355.982V348.168L303.941 351.803L300.584 351.348C296.864 350.894 291.783 351.257 288.608 352.166L272.368 352.348L272.186 359.617L267.015 406.322L269.011 406.413L277.811 361.98C282.529 362.706 294.687 364.251 300.947 364.706L305.302 412.501L307.388 412.683L306.39 364.524L325.262 359.163L334.516 405.232Z" fill="#82BCE8"/>
<path d="M305.393 355.891C302.308 356.982 275.089 353.256 275.089 353.256C271.37 352.893 270.553 351.712 273.275 350.621C273.275 350.621 297.318 345.715 301.491 346.169L326.078 346.896C330.433 347.35 330.978 348.713 327.258 349.985L305.393 355.891Z" fill="#82BCE8"/>
<path d="M306.027 351.439C306.3 354.256 302.58 356.073 297.681 355.528L279.354 352.984C274.545 352.439 272.368 350.894 271.37 348.077L263.295 306.46C261.843 301.917 264.293 298.283 270.644 298.828L293.961 301.917C299.223 302.281 299.586 307.006 300.039 311.549L306.027 351.439Z" fill="#82BCE8"/>
<path d="M377.883 412.774L379.244 413.046L372.984 363.706C373.075 363.615 373.075 363.524 373.075 363.524V355.71L347.308 359.345L343.951 358.89C340.231 358.436 335.15 358.799 331.975 359.708L315.735 359.89L315.553 367.159L310.382 413.864L312.378 413.955L321.178 369.522C325.896 370.248 338.054 371.793 344.314 372.248L348.669 420.043L350.756 420.225L349.758 372.066L368.629 366.705L377.883 412.774Z" fill="#9DCAF3"/>
<path d="M348.85 363.434C345.766 364.524 318.547 360.798 318.547 360.798C314.828 360.435 314.011 359.254 316.733 358.163C316.733 358.163 340.776 353.257 344.949 353.711L369.536 354.438C373.891 354.892 374.436 356.255 370.716 357.527L348.85 363.434Z" fill="#9DCAF3"/>
<path d="M349.395 358.981C349.667 361.798 345.947 363.615 341.048 363.07L322.721 360.526C317.913 359.981 315.735 358.436 314.737 355.619L306.662 314.002C305.211 309.459 307.66 305.825 314.011 306.37L337.328 309.459C342.591 309.823 342.953 314.548 343.407 319.091L349.395 358.981Z" fill="#9DCAF3"/>
<path d="M422.068 419.043L423.429 419.316L417.168 369.976C417.259 369.885 417.259 369.794 417.259 369.794V361.979L391.493 365.614L388.136 365.16C384.416 364.705 379.335 365.069 376.16 365.978L359.919 366.159L359.738 373.429L354.566 420.134L356.562 420.224L365.363 375.791C370.081 376.518 382.238 378.063 388.499 378.517L392.853 426.312L394.94 426.494L393.942 378.335L412.814 372.974L422.068 419.043Z" fill="#82BCE8"/>
<path d="M392.944 369.794C389.86 370.884 362.641 367.159 362.641 367.159C358.921 366.795 358.105 365.614 360.827 364.524C360.827 364.524 384.869 359.617 389.043 360.071L413.63 360.798C417.985 361.252 418.529 362.615 414.81 363.888L392.944 369.794Z" fill="#82BCE8"/>
<path d="M393.58 365.341C393.852 368.158 390.132 369.975 385.233 369.43L366.906 366.886C362.097 366.341 359.92 364.796 358.922 361.979L350.847 320.363C349.395 315.819 351.845 312.185 358.196 312.73L381.513 315.819C386.775 316.183 387.138 320.908 387.592 325.451L393.58 365.341Z" fill="#82BCE8"/>
<g opacity="0.82">
<g opacity="0.82">
<path opacity="0.41" d="M631.921 279.11L315.373 280.382V75.0253L631.921 53.7627V279.11Z" fill="#9DCAF3"/>
<path opacity="0.82" d="M641.72 65.4844V293.648H322.722V85.7474L641.72 65.4844Z" fill="#9DCAF3"/>
<path opacity="0.82" d="M405.918 216.231L473.783 214.595V121.185L405.918 124.638V216.231Z" fill="#52C798"/>
<g opacity="0.82">
<path opacity="0.82" d="M467.886 182.701L336.421 185.245V100.74L467.886 96.0151V182.701Z" fill="url(#paint1_linear)"/>
<path opacity="0.82" d="M400.566 140.267C400.566 155.169 389.315 167.708 375.616 168.253C362.006 168.798 351.028 157.259 351.028 142.538C351.028 127.818 362.006 115.279 375.616 114.552C389.315 113.825 400.566 125.365 400.566 140.267Z" fill="#9DCAF3"/>
</g>
<g opacity="0.82">
<path opacity="0.82" d="M641.72 65.4842L322.722 85.7473V55.7616L641.72 32.5908V65.4842Z" fill="#52C798"/>
<path opacity="0.82" d="M635.278 59.0328L328.075 79.1141V69.2098L635.278 48.1289V59.0328Z" fill="url(#paint2_linear)"/>
<path opacity="0.82" d="M330.524 65.5752C331.877 65.5752 332.974 64.4768 332.974 63.1218C332.974 61.7669 331.877 60.6685 330.524 60.6685C329.171 60.6685 328.075 61.7669 328.075 63.1218C328.075 64.4768 329.171 65.5752 330.524 65.5752Z" fill="#9DCAF3"/>
<path opacity="0.82" d="M338.78 64.939C340.133 64.939 341.23 63.8406 341.23 62.4856C341.23 61.1306 340.133 60.0322 338.78 60.0322C337.427 60.0322 336.331 61.1306 336.331 62.4856C336.331 63.8406 337.427 64.939 338.78 64.939Z" fill="#9DCAF3"/>
<path opacity="0.82" d="M347.218 64.3936C348.571 64.3936 349.668 63.2952 349.668 61.9402C349.668 60.5852 348.571 59.4868 347.218 59.4868C345.865 59.4868 344.769 60.5852 344.769 61.9402C344.769 63.2952 345.865 64.3936 347.218 64.3936Z" fill="#9DCAF3"/>
</g>
<g opacity="0.82">
<path opacity="0.82" d="M484.942 127.091C483.853 127.091 482.855 126.728 482.129 126.001C481.313 125.183 480.769 124.093 480.769 122.821V99.1047C480.769 96.6513 482.674 94.5614 485.033 94.4705L624.39 86.4744C625.57 86.3835 626.749 86.8378 627.657 87.6556C628.564 88.4734 629.017 89.6547 629.017 90.8359V115.551C629.017 118.096 627.021 120.186 624.481 120.367L485.123 127.182C485.033 127.091 484.942 127.091 484.942 127.091ZM624.572 88.5643C624.481 88.5643 624.481 88.5643 624.39 88.5643L485.123 96.5605C483.853 96.6513 482.855 97.7417 482.855 99.1047V122.821C482.855 123.457 483.127 124.093 483.581 124.456C483.944 124.82 484.579 125.001 485.033 125.001L624.39 118.187C625.751 118.096 626.931 116.914 626.931 115.461V90.8359C626.931 90.1998 626.659 89.5638 626.205 89.1095C625.751 88.746 625.207 88.5643 624.572 88.5643Z" fill="url(#paint3_linear)"/>
<path opacity="0.82" d="M484.942 167.436C483.854 167.436 482.856 167.072 482.13 166.255C481.313 165.437 480.769 164.346 480.769 163.074V139.358C480.769 136.905 482.674 134.906 485.033 134.724L624.391 128.364C625.57 128.273 626.75 128.727 627.657 129.545C628.564 130.363 629.018 131.544 629.018 132.725V157.441C629.018 159.985 627.022 162.075 624.482 162.166L485.124 167.436C485.033 167.436 485.033 167.436 484.942 167.436ZM624.572 130.453H624.482L485.124 136.814C483.854 136.905 482.856 137.995 482.856 139.358V163.074C482.856 163.71 483.128 164.346 483.582 164.71C483.944 165.073 484.489 165.255 485.033 165.255L624.391 160.076C625.752 159.985 626.931 158.804 626.931 157.441V132.725C626.931 132.089 626.659 131.453 626.205 130.999C625.752 130.635 625.207 130.453 624.572 130.453Z" fill="url(#paint4_linear)"/>
<path opacity="0.82" d="M484.942 207.689C483.854 207.689 482.856 207.235 482.039 206.508C481.223 205.69 480.678 204.509 480.678 203.328V179.612C480.678 177.158 482.584 175.159 484.942 175.068L624.3 170.343C625.57 170.343 626.659 170.707 627.566 171.615C628.473 172.433 628.927 173.614 628.927 174.887V199.602C628.927 202.146 626.931 204.236 624.391 204.327L485.033 207.871C485.033 207.689 485.033 207.689 484.942 207.689ZM624.481 172.342L485.033 177.067C483.763 177.067 482.765 178.249 482.765 179.521V203.237C482.765 203.873 483.037 204.509 483.491 204.963C483.854 205.327 484.489 205.508 484.942 205.508L624.3 201.965C625.661 201.965 626.84 200.783 626.84 199.329V174.705C626.84 174.069 626.568 173.433 626.114 172.978C625.752 172.615 625.116 172.342 624.481 172.342Z" fill="url(#paint5_linear)"/>
<path opacity="0.82" d="M485.033 247.943C483.944 247.943 482.856 247.488 482.13 246.761C481.313 245.944 480.769 244.762 480.769 243.581V219.865C480.769 217.412 482.674 215.413 485.033 215.322L624.391 212.142C625.661 212.142 626.75 212.596 627.657 213.414C628.564 214.232 629.018 215.413 629.018 216.685V241.4C629.018 243.945 626.931 246.035 624.482 246.035L485.033 247.943ZM485.033 245.853V246.852V245.853L624.391 243.945C625.752 243.945 626.931 242.763 626.931 241.4V216.685C626.931 216.049 626.659 215.413 626.205 214.958C625.752 214.504 625.026 214.232 624.482 214.232L485.124 217.412C483.854 217.412 482.856 218.502 482.856 219.865V243.581C482.856 244.217 483.128 244.853 483.582 245.308C483.944 245.671 484.398 245.853 485.033 245.853Z" fill="url(#paint6_linear)"/>
<path opacity="0.5" d="M551.809 187.517L612.052 185.7V180.884L551.809 182.792V187.517Z" fill="url(#paint7_linear)"/>
<path opacity="0.5" d="M571.224 195.422L612.052 194.332V189.425L571.224 190.607V195.422Z" fill="url(#paint8_linear)"/>
<path opacity="0.5" d="M556.617 195.877L566.597 195.513V190.788L556.617 191.061V195.877Z" fill="url(#paint9_linear)"/>
<path opacity="0.5" d="M551.809 106.374L612.052 103.194V98.2871L551.809 101.649V106.374Z" fill="url(#paint10_linear)"/>
<path opacity="0.5" d="M575.942 113.643L612.052 111.735V106.919L575.942 108.827V113.643Z" fill="url(#paint11_linear)"/>
<path opacity="0.5" d="M533.936 115.733L571.225 113.825V109.1L533.936 111.008V115.733Z" fill="url(#paint12_linear)"/>
<path opacity="0.5" d="M587.737 227.861L612.052 227.498V222.591L587.737 223.136V227.861Z" fill="url(#paint13_linear)"/>
<path opacity="0.5" d="M559.339 228.407L583.291 227.953V223.228L559.339 223.682V228.407Z" fill="url(#paint14_linear)"/>
<path opacity="0.5" d="M571.224 236.676L612.052 236.04V231.224L571.224 231.951V236.676Z" fill="url(#paint15_linear)"/>
<path opacity="0.5" d="M527.403 237.403L566.597 236.766V232.042L527.403 232.678V237.403Z" fill="url(#paint16_linear)"/>
</g>
<path opacity="0.82" d="M492.11 160.258L632.012 154.806C634.008 154.715 635.55 153.079 635.55 151.08V126.365C635.55 124.366 633.917 122.912 632.012 123.003L492.11 129.636C490.295 129.727 488.844 131.362 488.844 133.18V156.896C488.844 158.804 490.295 160.258 492.11 160.258Z" fill="#F6F3FF"/>
<g opacity="0.6">
<path opacity="0.6" d="M567.686 134.815L627.929 132.089V128.545L567.686 131.271V134.815Z" fill="#7BCAFF"/>
<path opacity="0.6" d="M567.686 141.176L627.929 138.54V134.906L567.686 137.632V141.176Z" fill="#7BCAFF"/>
<path opacity="0.6" d="M600.982 146.082L627.928 144.992V141.357L600.982 142.538V146.082Z" fill="#7BCAFF"/>
</g>
<path opacity="0.82" d="M500.184 144.991C503.541 144.991 506.263 142.266 506.263 138.903C506.263 135.541 503.541 132.815 500.184 132.815C496.827 132.815 494.105 135.541 494.105 138.903C494.105 142.266 496.827 144.991 500.184 144.991Z" fill="#52C798"/>
<path opacity="0.82" d="M515.245 144.083C518.602 144.083 521.324 141.357 521.324 137.995C521.324 134.632 518.602 131.907 515.245 131.907C511.888 131.907 509.167 134.632 509.167 137.995C509.167 141.357 511.888 144.083 515.245 144.083Z" fill="#F4D5CB"/>
</g>
</g>
<path d="M583.019 376.427C582.656 377.881 582.747 378.335 582.656 379.244C582.475 380.425 581.386 380.788 580.751 381.788C580.025 382.787 578.936 384.514 583.2 384.605C587.827 384.696 590.549 384.423 589.733 381.879C588.916 379.335 588.826 378.244 588.826 377.426C588.916 376.609 588.826 375.791 588.281 375.246C587.828 374.882 583.654 373.973 583.019 376.427Z" fill="#202020"/>
<path d="M541.647 241.582C543.462 240.674 547.091 237.948 553.895 229.225C558.069 223.954 559.521 221.41 560.519 219.593C562.424 216.413 560.791 213.505 558.523 212.778C555.528 211.96 552.172 212.324 548.542 217.23C542.101 226.135 539.016 231.405 537.655 233.768C534.933 238.493 539.56 242.673 541.647 241.582Z" fill="#202020"/>
<path d="M557.706 199.239C555.8 200.148 554.984 200.148 554.349 197.785C553.804 195.968 552.897 189.607 555.8 189.153C558.704 188.698 560.972 188.608 560.609 192.606C560.337 196.513 559.883 198.148 557.706 199.239Z" fill="#202020"/>
<path d="M568.684 202.691C568.684 202.964 569.319 209.052 569.5 213.777C569.591 216.049 567.232 218.229 564.964 218.32H564.873C562.605 218.32 559.974 216.321 560.155 214.05C560.518 209.961 560.246 205.781 560.246 205.69L568.684 202.691Z" fill="#F5C7B0"/>
<path d="M580.75 228.134C576.577 241.945 577.666 258.665 578.482 268.297L549.54 268.569C549.54 268.569 546.093 238.947 548.27 222.773C548.724 219.047 548.905 215.413 552.897 213.323C555.256 212.051 559.52 211.415 561.335 211.415H567.141C569.137 211.415 571.315 211.778 573.311 212.141C581.658 213.686 583.2 220.138 580.75 228.134Z" fill="#202020"/>
<path d="M581.748 287.56C581.748 287.56 580.387 274.385 578.482 268.206L549.54 268.479C549.54 268.479 547.635 273.749 549.722 288.197L581.748 287.56Z" fill="#52C798"/>
<path d="M573.674 329.358C571.133 319.09 581.658 317.273 584.924 324.724C589.642 335.264 589.188 370.338 589.007 376.972C589.007 377.88 589.007 377.789 588.553 377.608C587.737 377.426 587.011 375.7 585.015 375.79C583.835 375.79 582.837 377.244 582.837 377.244C581.839 368.249 576.124 339.353 573.674 329.358Z" fill="#52C798"/>
<path d="M565.146 289.468C564.057 276.656 568.14 266.752 576.124 271.023C579.481 272.84 581.386 284.289 581.84 287.56C582.293 290.922 584.017 317.728 584.924 323.997C586.83 338.172 575.67 334.356 574.491 330.449C571.406 320.544 565.781 296.374 565.146 289.468Z" fill="#52C798"/>
<path d="M554.167 329.359C552.171 320 561.425 318.637 564.964 325.906C570.589 337.355 568.683 364.978 570.77 379.88C568.774 377.608 567.232 377.608 566.506 377.79C565.327 378.063 565.054 378.881 565.054 378.881C562.06 359.254 556.254 339.445 554.167 329.359Z" fill="#52C798"/>
<path d="M565.054 328.632C564.51 332.721 554.711 338.9 553.441 324.725C552.897 318.455 550.084 291.649 549.721 288.287C549.449 284.925 548.542 272.022 549.359 271.114C555.437 264.481 565.145 275.112 565.054 287.924C565.054 296.465 566.234 320.181 565.054 328.632Z" fill="#52C798"/>
<path d="M515.88 218.502C518.421 218.684 520.507 219.32 525.588 222.591C532.393 227.044 541.738 232.768 544.278 235.858C546.637 238.765 541.102 244.127 537.201 241.037C533.935 238.402 516.606 222.955 514.519 221.41C513.249 220.32 513.794 218.321 515.88 218.502Z" fill="#202020"/>
<path d="M571.768 198.239C571.224 203.418 571.133 204.6 568.774 206.78C566.506 208.961 563.24 209.87 560.79 209.87C558.159 209.87 556.163 207.053 555.528 204.872C554.893 202.601 554.167 197.239 554.893 191.515C555.256 188.607 558.885 185.063 562.514 185.063C566.234 185.063 573.038 185.427 571.768 198.239Z" fill="#F5C7B0"/>
<path d="M565.055 378.517C564.692 379.153 562.968 380.788 560.609 381.788C558.251 382.787 553.17 383.333 555.982 384.241C558.795 385.15 562.061 384.605 563.694 384.332C565.327 384.06 566.96 384.06 568.956 384.06C571.497 384.06 571.587 383.878 571.225 381.061C570.68 377.154 566.235 376.336 565.055 378.517Z" fill="#202020"/>
<path d="M571.768 197.421C570.317 198.875 569.591 199.148 568.23 197.24C567.141 195.786 564.238 190.243 566.778 188.971C569.228 187.608 571.315 186.79 572.313 190.516C573.22 194.059 573.401 195.695 571.768 197.421Z" fill="#202020"/>
<path d="M569.863 197.513C569.409 199.239 569.682 201.056 570.498 201.511C571.315 201.965 572.313 200.965 572.766 199.239C573.22 197.513 572.948 195.695 572.131 195.241C571.315 194.696 570.317 195.786 569.863 197.513Z" fill="#F5C7B0"/>
<path d="M513.34 220.411C512.433 219.593 505.356 212.414 507.443 211.597C509.62 210.688 513.068 212.96 514.157 213.777C516.062 215.413 516.515 218.048 515.88 219.411C515.336 220.411 514.247 221.228 513.34 220.411Z" fill="#F5C7B0"/>
<path d="M597.626 238.674C597.807 236.675 595.086 232.041 587.918 223.681C583.563 218.593 581.295 216.685 579.753 215.322C576.94 212.868 573.402 214.231 572.676 216.049C571.587 218.956 572.131 223.681 573.492 225.135C581.204 232.95 587.646 238.402 589.188 240.673C591.457 243.763 597.354 240.946 597.626 238.674Z" fill="#202020"/>
<path d="M605.701 216.14C606.336 214.413 607.334 211.869 607.969 210.506C608.604 209.143 608.332 204.146 607.425 204.509C606.064 205.145 600.257 211.869 601.165 213.596C602.072 215.322 600.711 216.594 601.981 217.866C603.07 219.048 604.612 218.866 605.701 216.14Z" fill="#F5C7B0"/>
<path d="M602.435 216.049C600.166 217.23 599.168 219.229 595.902 224.318C591.184 231.678 589.279 235.767 589.188 239.401C589.098 243.127 596.628 243.672 599.078 239.31C601.074 235.585 603.614 220.501 604.884 218.23C605.61 216.776 604.34 215.049 602.435 216.049Z" fill="#202020"/>
<path d="M572.222 190.152C572.041 190.606 570.68 190.061 570.226 190.334C569.137 190.97 567.867 191.242 566.597 191.152C564.057 190.879 562.968 189.425 560.155 190.606C558.795 191.152 554.984 191.424 554.349 190.788C551.083 187.971 557.434 184.518 559.339 184.155C564.51 183.155 567.323 184.518 568.502 184.973C571.587 186.063 572.585 189.243 572.222 190.152Z" fill="#202020"/>
<path d="M554.258 195.695C553.714 196.149 553.351 196.603 552.988 197.24C551.718 199.148 551.99 201.874 553.079 203.782C555.165 207.326 555.71 205.508 555.71 205.508" stroke="#202020" stroke-width="0.75" stroke-miterlimit="10" stroke-linecap="round" stroke-linejoin="round"/>
<path d="M554.893 207.235C555.895 207.235 556.708 206.422 556.708 205.418C556.708 204.414 555.895 203.601 554.893 203.601C553.891 203.601 553.079 204.414 553.079 205.418C553.079 206.422 553.891 207.235 554.893 207.235Z" fill="#202020"/>
<path d="M465.345 428.129L466.706 428.402L460.446 379.152C460.536 379.062 460.536 378.971 460.536 378.971V371.156L434.77 374.791L431.413 374.337C427.693 373.882 422.612 374.246 419.437 375.154L403.197 375.336L403.015 382.605L397.844 429.31L399.84 429.401L408.64 384.968C413.358 385.695 425.516 387.239 431.776 387.694L436.131 435.489L438.218 435.671L437.22 387.512L456.091 382.151L465.345 428.129Z" fill="#82BCE8"/>
<path d="M436.312 378.88C433.228 379.971 406.009 376.245 406.009 376.245C402.29 375.882 401.473 374.7 404.195 373.61C404.195 373.61 428.238 368.703 432.411 369.158L456.998 369.885C461.353 370.339 461.898 371.702 458.178 372.974L436.312 378.88Z" fill="#82BCE8"/>
<path d="M436.857 374.428C437.129 377.245 433.409 379.062 428.51 378.517L410.183 375.973C405.374 375.427 403.197 373.883 402.199 371.066L394.124 329.449C392.672 324.906 395.122 321.271 401.473 321.816L424.79 324.906C430.052 325.269 430.415 329.994 430.869 334.538L436.857 374.428Z" fill="#82BCE8"/>
<path d="M508.803 435.672L510.164 435.945L503.904 386.605C503.995 386.514 503.995 386.423 503.995 386.423V378.608L478.228 382.243L474.871 381.789C471.151 381.334 466.07 381.698 462.895 382.606L446.655 382.788L446.473 390.057L441.302 436.762L443.298 436.853L452.098 392.42C456.816 393.147 468.974 394.692 475.234 395.146L479.589 442.941L481.676 443.123L480.678 394.964L499.549 389.603L508.803 435.672Z" fill="#9DCAF3"/>
<path d="M479.68 386.422C476.595 387.513 449.377 383.787 449.377 383.787C445.657 383.424 444.84 382.242 447.562 381.152C447.562 381.152 471.605 376.245 475.778 376.7L500.366 377.427C504.72 377.881 505.265 379.244 501.545 380.516L479.68 386.422Z" fill="#9DCAF3"/>
<path d="M480.315 381.879C480.587 384.696 476.867 386.513 471.968 385.968L453.641 383.424C448.833 382.879 446.655 381.334 445.657 378.517L437.582 336.9C436.131 332.357 438.58 328.722 444.931 329.268L468.248 332.357C473.511 332.721 473.873 337.446 474.327 341.989L480.315 381.879Z" fill="#9DCAF3"/>
<path d="M552.897 442.032L554.258 442.304L547.998 392.964C548.089 392.873 548.089 392.782 548.089 392.782V384.968L522.322 388.602L518.965 388.148C515.245 387.694 510.165 388.057 506.989 388.966L490.749 389.148L490.567 396.417L485.396 443.122L487.392 443.213L496.193 398.779C500.91 399.506 513.068 401.051 519.328 401.505L523.683 449.301L525.77 449.482L524.772 401.324L543.643 395.963L552.897 442.032Z" fill="#82BCE8"/>
<path d="M523.864 392.692C520.779 393.782 493.561 390.057 493.561 390.057C489.841 389.693 489.025 388.512 491.747 387.422C491.747 387.422 515.789 382.515 519.963 382.969L544.55 383.696C548.905 384.15 549.449 385.513 545.73 386.786L523.864 392.692Z" fill="#82BCE8"/>
<path d="M524.409 388.239C524.681 391.056 520.961 392.873 516.062 392.328L497.735 389.784C492.926 389.239 490.749 387.694 489.751 384.877L481.676 343.261C480.224 338.717 482.674 335.083 489.025 335.628L512.342 338.717C517.604 339.081 517.967 343.806 518.421 348.349L524.409 388.239Z" fill="#82BCE8"/>
<path d="M259.666 428.402L261.027 428.675L254.767 379.335C254.857 379.244 254.857 379.153 254.857 379.153V371.338L229.091 374.973L225.734 374.519C222.014 374.064 216.933 374.428 213.758 375.336L197.517 375.518L197.336 382.787L192.165 429.493L194.161 429.583L202.961 385.15C207.679 385.877 219.836 387.422 226.097 387.876L230.452 435.671L232.538 435.853L231.54 387.694L250.412 382.333L259.666 428.402Z" fill="#82BCE8"/>
<path d="M230.542 379.062C227.458 380.153 200.239 376.427 200.239 376.427C196.52 376.064 195.703 374.883 198.425 373.792C198.425 373.792 222.468 368.885 226.641 369.34L251.228 370.067C255.583 370.521 256.128 371.884 252.408 373.156L230.542 379.062Z" fill="#82BCE8"/>
<path d="M231.177 374.61C231.45 377.427 227.73 379.244 222.83 378.699L204.503 376.155C199.695 375.609 197.517 374.065 196.519 371.248L188.445 329.631C186.993 325.088 189.443 321.453 195.794 321.999L219.111 325.088C224.373 325.452 224.736 330.177 225.189 334.72L231.177 374.61Z" fill="#82BCE8"/>
<path d="M230.27 387.512L231.631 387.785L225.371 338.445C225.461 338.354 225.461 338.263 225.461 338.263V330.449L199.695 334.083L196.429 333.72C192.709 333.266 187.628 333.629 184.453 334.538L168.212 334.719L168.031 341.989L162.859 388.694L164.855 388.785L173.656 344.351C178.374 345.078 190.531 346.623 196.791 347.077L201.146 394.873L203.233 395.054L202.235 346.895L221.106 341.534L230.27 387.512Z" fill="#82BCE8"/>
<path d="M201.237 338.173C198.153 339.263 170.934 335.538 170.934 335.538C167.214 335.174 166.398 333.993 169.12 332.903C169.12 332.903 193.162 327.996 197.336 328.45L221.923 329.177C226.278 329.631 226.822 330.994 223.103 332.266L201.237 338.173Z" fill="#82BCE8"/>
<path d="M201.781 333.72C202.054 336.537 198.334 338.354 193.434 337.809L175.107 335.265C170.299 334.72 168.121 333.175 167.123 330.358L159.049 288.742C157.597 284.198 160.047 280.564 166.398 281.109L189.715 284.198C194.977 284.562 195.34 289.287 195.793 293.83L201.781 333.72Z" fill="#82BCE8"/>
<path d="M303.033 435.944L304.394 436.216L298.134 386.876C298.224 386.785 298.224 386.694 298.224 386.694V378.88L272.458 382.515L269.101 382.06C265.381 381.606 260.3 381.969 257.125 382.878L240.885 383.06L240.703 390.329L235.532 437.034L237.528 437.125L246.328 392.691C251.046 393.418 263.204 394.963 269.464 395.417L273.819 443.213L275.906 443.395L274.908 395.236L293.779 389.875L303.033 435.944Z" fill="#9DCAF3"/>
<path d="M274 386.604C270.916 387.694 243.697 383.969 243.697 383.969C239.978 383.605 239.161 382.424 241.883 381.334C241.883 381.334 265.926 376.427 270.099 376.881L294.686 377.608C299.041 378.063 299.586 379.426 295.866 380.698L274 386.604Z" fill="#9DCAF3"/>
<path d="M274.545 382.151C274.817 384.968 271.097 386.785 266.198 386.24L247.871 383.696C243.063 383.151 240.885 381.606 239.887 378.789L231.812 337.173C230.361 332.63 232.81 328.995 239.161 329.54L262.478 332.63C267.74 332.993 268.103 337.718 268.557 342.261L274.545 382.151Z" fill="#9DCAF3"/>
<path d="M214.574 422.495L215.935 422.768L209.675 373.428C209.766 373.337 209.766 373.246 209.766 373.246V365.522L183.999 369.157L180.642 368.703C176.922 368.248 171.841 368.612 168.666 369.521L152.426 369.702L152.244 376.972L147.073 423.677L149.069 423.767L157.869 379.334C162.587 380.061 174.745 381.606 181.005 382.06L185.36 429.855L187.447 430.037L186.449 381.878L205.32 376.517L214.574 422.495Z" fill="#9DCAF3"/>
<path d="M185.541 373.246C182.457 374.337 155.238 370.611 155.238 370.611C151.519 370.248 150.702 369.067 153.424 367.976C153.424 367.976 177.467 363.07 181.64 363.524L206.227 364.251C210.582 364.705 211.127 366.068 207.407 367.34L185.541 373.246Z" fill="#9DCAF3"/>
<path d="M186.086 368.794C186.358 371.611 182.638 373.428 177.739 372.883L159.412 370.339C154.603 369.793 152.426 368.249 151.428 365.432L143.353 323.815C141.901 319.272 144.351 315.638 150.702 316.183L174.019 319.272C179.281 319.636 179.644 324.361 180.098 328.904L186.086 368.794Z" fill="#9DCAF3"/>
<path d="M347.217 442.214L348.578 442.486L342.318 393.146C342.409 393.055 342.409 392.964 342.409 392.964V385.15L316.642 388.785L313.285 388.33C309.565 387.876 304.484 388.239 301.309 389.148L285.069 389.33L284.887 396.599L279.716 443.304L281.712 443.395L290.512 398.962C295.23 399.688 307.388 401.233 313.648 401.687L318.003 449.483L320.09 449.665L319.092 401.506L337.963 396.145L347.217 442.214Z" fill="#82BCE8"/>
<path d="M318.094 392.965C315.009 394.055 287.791 390.33 287.791 390.33C284.071 389.966 283.255 388.785 285.977 387.695C285.977 387.695 310.019 382.788 314.193 383.242L338.78 383.969C343.135 384.423 343.679 385.786 339.96 387.058L318.094 392.965Z" fill="#82BCE8"/>
<path d="M318.729 388.512C319.001 391.329 315.281 393.146 310.382 392.601L292.055 390.057C287.247 389.512 285.069 387.967 284.071 385.15L275.996 343.534C274.545 338.99 276.994 335.356 283.345 335.901L306.662 338.99C311.925 339.354 312.287 344.079 312.741 348.622L318.729 388.512Z" fill="#82BCE8"/>
<path d="M390.495 451.3L391.856 451.573L385.596 402.233C385.686 402.142 385.686 402.051 385.686 402.051V394.237L359.92 397.871L356.563 397.417C352.843 396.963 347.762 397.326 344.587 398.235L328.347 398.417L328.165 405.686L322.994 452.391L324.99 452.482L333.79 408.048C338.508 408.775 350.666 410.32 356.926 410.774L361.281 458.57L363.367 458.751L362.369 410.593L381.241 405.232L390.495 451.3Z" fill="#82BCE8"/>
<path d="M361.462 402.052C358.378 403.142 331.159 399.417 331.159 399.417C327.439 399.053 326.623 397.872 329.345 396.781C329.345 396.781 353.388 391.875 357.561 392.329L382.148 393.056C386.503 393.51 387.048 394.873 383.328 396.145L361.462 402.052Z" fill="#82BCE8"/>
<path d="M362.006 397.599C362.279 400.415 358.559 402.233 353.659 401.688L335.333 399.143C330.524 398.598 328.347 397.053 327.349 394.237L319.274 352.62C317.822 348.077 320.272 344.442 326.623 344.987L349.94 348.077C355.202 348.44 355.565 353.165 356.018 357.709L362.006 397.599Z" fill="#82BCE8"/>
<path d="M433.953 458.842L435.314 459.115L429.054 409.775C429.144 409.684 429.144 409.593 429.144 409.593V401.87L403.378 405.504L400.021 405.05C396.301 404.596 391.22 404.959 388.045 405.868L371.805 406.049L371.623 413.319L366.452 460.024L368.448 460.114L377.248 415.681C381.966 416.408 394.124 417.953 400.384 418.407L404.739 466.202L406.825 466.384L405.827 418.225L424.699 412.864L433.953 458.842Z" fill="#9DCAF3"/>
<path d="M404.83 409.593C401.745 410.684 374.526 406.958 374.526 406.958C370.807 406.595 369.99 405.413 372.712 404.323C372.712 404.323 396.755 399.416 400.928 399.871L425.515 400.597C429.87 401.052 430.415 402.415 426.695 403.687L404.83 409.593Z" fill="#9DCAF3"/>
<path d="M405.465 405.05C405.737 407.867 402.017 409.684 397.118 409.139L378.791 406.595C373.983 406.049 371.805 404.505 370.807 401.688L362.732 360.071C361.281 355.528 363.73 351.893 370.081 352.439L393.398 355.528C398.66 355.891 399.023 360.616 399.477 365.16L405.465 405.05Z" fill="#9DCAF3"/>
<path d="M478.047 465.203L479.408 465.476L473.147 416.136C473.238 416.045 473.238 415.954 473.238 415.954V408.23L447.471 411.865L444.115 411.411C440.395 410.956 435.314 411.32 432.139 412.229L415.898 412.41L415.717 419.68L410.545 466.385L412.541 466.475L421.342 422.042C426.06 422.769 438.217 424.314 444.477 424.768L448.832 472.563L450.919 472.745L449.921 424.586L468.792 419.225L478.047 465.203Z" fill="#82BCE8"/>
<path d="M449.014 415.863C445.929 416.954 418.711 413.228 418.711 413.228C414.991 412.865 414.174 411.683 416.896 410.593C416.896 410.593 440.939 405.686 445.112 406.141L469.699 406.867C474.054 407.322 474.599 408.685 470.879 409.957L449.014 415.863Z" fill="#82BCE8"/>
<path d="M449.558 411.411C449.83 414.228 446.111 416.045 441.211 415.5L422.884 412.955C418.076 412.41 415.898 410.865 414.9 408.049L406.826 366.432C405.374 361.889 407.824 358.254 414.174 358.799L437.491 361.889C442.754 362.252 443.117 366.977 443.57 371.521L449.558 411.411Z" fill="#82BCE8"/>
<path d="M205.229 454.027L206.59 454.299L200.33 404.959C200.42 404.868 200.42 404.777 200.42 404.777V396.963L174.654 400.598L171.297 400.143C167.577 399.689 162.496 400.052 159.321 400.961L143.08 401.143L142.899 408.412L137.728 455.117L139.724 455.208L148.524 410.774C153.242 411.501 165.399 413.046 171.66 413.5L176.015 461.296L178.101 461.478L177.103 413.319L195.975 407.958L205.229 454.027Z" fill="#82BCE8"/>
<path d="M176.196 404.777C173.111 405.868 145.893 402.142 145.893 402.142C142.173 401.779 141.357 400.597 144.079 399.507C144.079 399.507 168.121 394.6 172.295 395.055L196.882 395.782C201.237 396.236 201.781 397.599 198.062 398.871L176.196 404.777Z" fill="#82BCE8"/>
<path d="M176.741 400.234C177.013 403.051 173.293 404.868 168.394 404.323L150.067 401.779C145.258 401.233 143.081 399.689 142.083 396.872L134.008 355.255C132.556 350.712 135.006 347.077 141.357 347.623L164.674 350.712C169.936 351.076 170.299 355.801 170.753 360.344L176.741 400.234Z" fill="#82BCE8"/>
<path d="M249.413 460.387L250.774 460.659L244.514 411.319C244.604 411.228 244.604 411.137 244.604 411.137V403.323L218.838 406.957L215.481 406.503C211.761 406.049 206.68 406.412 203.505 407.321L187.265 407.503L187.083 414.772L181.912 461.477L183.908 461.568L192.708 417.134C197.426 417.861 209.584 419.406 215.844 419.86L220.199 467.656L222.285 467.838L221.287 419.679L240.159 414.318L249.413 460.387Z" fill="#82BCE8"/>
<path d="M220.29 411.047C217.205 412.137 189.986 408.412 189.986 408.412C186.267 408.048 185.45 406.867 188.172 405.777C188.172 405.777 212.215 400.87 216.388 401.324L240.975 402.051C245.33 402.505 245.875 403.868 242.155 405.141L220.29 411.047Z" fill="#82BCE8"/>
<path d="M220.925 406.594C221.197 409.411 217.477 411.228 212.578 410.683L194.251 408.139C189.442 407.594 187.265 406.049 186.267 403.232L178.192 361.616C176.741 357.072 179.19 353.438 185.541 353.983L208.858 357.072C214.12 357.436 214.483 362.161 214.937 366.704L220.925 406.594Z" fill="#82BCE8"/>
<path d="M292.69 469.474L294.051 469.747L287.791 420.407C287.882 420.316 287.882 420.225 287.882 420.225V412.411L262.115 416.045L258.758 415.591C255.038 415.137 249.958 415.5 246.782 416.409L230.542 416.59L230.36 423.86L225.189 470.565L227.185 470.656L235.986 426.222C240.703 426.949 252.861 428.494 259.121 428.948L263.476 476.744L265.563 476.925L264.565 428.766L283.436 423.405L292.69 469.474Z" fill="#82BCE8"/>
<path d="M263.658 420.134C260.573 421.225 233.355 417.499 233.355 417.499C229.635 417.136 228.818 415.954 231.54 414.864C231.54 414.864 255.583 409.957 259.756 410.412L284.344 411.138C288.698 411.593 289.243 412.956 285.523 414.228L263.658 420.134Z" fill="#82BCE8"/>
<path d="M264.202 415.681C264.474 418.498 260.754 420.315 255.855 419.77L237.528 417.226C232.719 416.681 230.542 415.136 229.544 412.319L221.469 370.703C220.017 366.159 222.467 362.525 228.818 363.07L252.135 366.159C257.397 366.523 257.76 371.248 258.214 375.791L264.202 415.681Z" fill="#82BCE8"/>
<path d="M336.15 477.015L337.511 477.288L331.25 427.948C331.341 427.857 331.341 427.766 331.341 427.766V419.952L305.575 423.586L302.218 423.132C298.498 422.678 293.417 423.041 290.242 423.95L274.001 424.131L273.82 431.401L268.648 478.106L270.644 478.197L279.445 433.763C284.163 434.49 296.32 436.035 302.581 436.489L306.935 484.285L309.022 484.466L308.024 436.308L326.895 430.946L336.15 477.015Z" fill="#9DCAF3"/>
<path d="M307.026 427.676C303.941 428.766 276.723 425.041 276.723 425.041C273.003 424.677 272.186 423.496 274.908 422.405C274.908 422.405 298.951 417.499 303.125 417.953L327.712 418.68C332.067 419.134 332.611 420.497 328.891 421.769L307.026 427.676Z" fill="#9DCAF3"/>
<path d="M307.661 423.223C307.933 426.04 304.213 427.857 299.314 427.312L280.987 424.768C276.178 424.223 274.001 422.678 273.003 419.861L264.928 378.245C263.476 373.701 265.926 370.067 272.277 370.612L295.594 373.701C300.856 374.065 301.219 378.79 301.673 383.333L307.661 423.223Z" fill="#9DCAF3"/>
<path d="M380.242 483.376L381.603 483.649L375.343 434.309C375.433 434.218 375.433 434.127 375.433 434.127V426.312L349.667 429.947L346.31 429.493C342.59 429.038 337.509 429.402 334.334 430.311L318.094 430.492L317.912 437.762L312.741 484.467L314.737 484.558L323.537 440.124C328.255 440.851 340.413 442.396 346.673 442.85L351.028 490.646L353.115 490.827L352.116 442.668L370.988 437.307L380.242 483.376Z" fill="#82BCE8"/>
<path d="M351.209 434.036C348.125 435.126 320.906 431.401 320.906 431.401C317.187 431.038 316.37 429.856 319.092 428.766C319.092 428.766 343.135 423.859 347.308 424.313L371.895 425.04C376.25 425.495 376.795 426.858 373.075 428.13L351.209 434.036Z" fill="#82BCE8"/>
<path d="M351.754 429.584C352.026 432.4 348.306 434.218 343.407 433.672L325.08 431.128C320.272 430.583 318.094 429.038 317.096 426.221L309.021 384.605C307.57 380.062 310.019 376.427 316.37 376.972L339.687 380.062C344.949 380.425 345.312 385.15 345.766 389.693L351.754 429.584Z" fill="#82BCE8"/>
<path d="M66.3257 483.375C59.5212 480.377 59.249 470.109 63.8761 464.294C68.5939 458.569 76.1243 456.297 83.2918 454.207C90.3685 452.208 97.9897 449.755 102.526 443.94C110.056 434.308 106.337 419.588 112.778 409.229C119.22 398.961 132.92 396.962 144.896 395.417C156.872 393.873 170.662 390.42 175.471 379.334C177.195 375.245 177.467 370.702 179.463 366.704C181.459 362.706 186.268 359.525 190.169 361.706C193.979 363.796 193.979 369.157 193.617 373.428C192.346 386.058 190.985 398.689 189.715 411.319C188.264 425.403 185.995 441.123 174.745 449.755C164.947 457.297 150.612 457.297 141.539 465.747C129.654 476.742 131.287 497.914 118.676 508C109.149 515.633 94.542 513.634 84.4712 506.728C74.4005 499.822 67.6866 489.009 61.3357 478.56" fill="#52C798"/>
<path d="M188.536 362.342C188.808 381.515 174.383 405.958 159.866 418.406C150.703 426.221 139.362 431.582 132.104 441.123C125.843 449.392 123.303 459.932 118.222 469.019C109.966 483.739 91.0947 493.552 74.4009 495.915" stroke="#FFF8F6" stroke-width="0.6738" stroke-miterlimit="10"/>
<path d="M129.835 444.758C129.835 444.758 166.489 455.117 180.461 443.849" stroke="#FFF8F6" stroke-width="0.6738" stroke-miterlimit="10"/>
<path d="M175.925 399.234C175.925 399.234 168.758 393.327 175.653 379.425" stroke="#FFF8F6" stroke-width="0.6738" stroke-miterlimit="10"/>
<path d="M105.611 482.376C105.611 482.376 120.218 492.553 131.197 482.739" stroke="#FFF8F6" stroke-width="0.6738" stroke-miterlimit="10"/>
<path d="M91.4578 491.008C91.4578 491.008 80.7519 472.926 89.5525 452.481" stroke="#FFF8F6" stroke-width="0.6738" stroke-miterlimit="10"/>
<path d="M186.358 433.036C186.358 433.036 171.661 440.85 140.087 432.309" stroke="#FFF8F6" stroke-width="0.6738" stroke-miterlimit="10"/>
<path d="M132.013 441.123C132.013 441.123 120.581 416.225 129.2 398.961" stroke="#FFF8F6" stroke-width="0.6738" stroke-miterlimit="10"/>
<path d="M160.955 391.964C160.955 391.964 152.154 410.41 157.235 419.86" stroke="#FFF8F6" stroke-width="0.6738" stroke-miterlimit="10"/>
<path d="M193.072 380.606C193.072 380.606 193.072 384.968 183.455 387.058" stroke="#FFF8F6" stroke-width="0.6738" stroke-miterlimit="10"/>
<path d="M190.351 404.322C190.351 404.322 184.272 408.502 172.296 405.594" stroke="#FFF8F6" stroke-width="0.6738" stroke-miterlimit="10"/>
<path d="M102.527 444.03C102.527 444.03 90.2783 471.472 109.966 479.195" stroke="#FFF8F6" stroke-width="0.6738" stroke-miterlimit="10"/>
<path d="M141.63 465.838C141.63 465.838 130.561 469.927 123.484 460.659" stroke="#FFF8F6" stroke-width="0.6738" stroke-miterlimit="10"/>
<path d="M120.944 505.637C120.944 505.637 99.0787 505.546 87.1934 493.916" stroke="#FFF8F6" stroke-width="0.6738" stroke-miterlimit="10"/>
<path d="M66.3257 483.375C59.5212 480.377 59.249 470.109 63.8761 464.294C68.5939 458.569 76.1243 456.297 83.2918 454.207C90.3685 452.208 97.9897 449.755 102.526 443.94C110.056 434.308 106.337 419.588 112.778 409.229C119.22 398.961 132.92 396.962 144.896 395.417C156.872 393.873 170.662 390.42 175.471 379.334C177.195 375.245 177.467 370.702 179.463 366.704C181.459 362.706 186.268 359.525 190.169 361.706C193.979 363.796 193.979 369.157 193.617 373.428C192.346 386.058 190.985 398.689 189.715 411.319C188.264 425.403 185.995 441.123 174.745 449.755C164.947 457.297 150.612 457.297 141.539 465.747C129.654 476.742 131.287 497.914 118.676 508C109.149 515.633 94.542 513.634 84.4712 506.728C74.4005 499.822 67.6866 489.009 61.3357 478.56" fill="url(#paint17_linear)"/>
<path d="M63.4223 479.741C57.6157 484.284 48.3615 479.741 45.5489 472.926C42.7364 466.111 44.2788 458.297 45.8211 451.027C47.3635 443.758 48.8151 435.944 45.9118 429.22C41.0126 418.043 26.224 414.409 20.2359 403.777C14.2479 393.237 18.875 380.152 23.23 368.885C27.4942 357.617 31.0325 343.715 23.5021 334.265C20.7803 330.812 16.7883 328.45 14.2479 324.815C11.7076 321.18 11.1632 315.365 14.883 313.002C18.5121 310.64 23.23 313.093 26.7683 315.547C37.2927 322.634 47.8171 329.722 58.3415 336.9C70.0454 344.805 82.838 354.255 85.1062 368.249C87.1022 380.425 80.3883 393.146 83.5638 405.049C87.6465 420.769 107.062 429.22 109.966 445.212C112.143 457.206 103.615 469.201 92.7273 474.834C81.9307 480.468 69.2288 481.286 57.0713 481.922" fill="#52C798"/>
<path d="M14.4297 314.82C31.3957 323.634 46.1843 347.895 50.2671 366.613C52.8075 378.335 52.1724 390.965 57.1624 401.869C61.5173 411.319 69.5921 418.498 75.1264 427.221C84.1992 441.396 83.927 462.749 78.1204 478.651" stroke="#FFF8F6" stroke-width="0.6738" stroke-miterlimit="10"/>
<path d="M59.3398 405.413C59.3398 405.413 85.7416 377.971 82.3846 360.252" stroke="#FFF8F6" stroke-width="0.6738" stroke-miterlimit="10"/>
<path d="M40.9219 343.261C40.9219 343.261 32.3936 346.805 23.3208 334.174" stroke="#FFF8F6" stroke-width="0.6738" stroke-miterlimit="10"/>
<path d="M81.0234 444.576C81.0234 444.576 96.9007 436.489 93.4531 422.132" stroke="#FFF8F6" stroke-width="0.6738" stroke-miterlimit="10"/>
<path d="M82.0216 461.205C82.0216 461.205 61.0635 462.113 47.2729 444.667" stroke="#FFF8F6" stroke-width="0.6738" stroke-miterlimit="10"/>
<path d="M75.6705 349.985C75.6705 349.985 75.5797 366.613 53.2607 390.511" stroke="#FFF8F6" stroke-width="0.6738" stroke-miterlimit="10"/>
<path d="M57.1619 401.779C57.1619 401.779 29.8529 400.143 18.6934 384.333" stroke="#FFF8F6" stroke-width="0.6738" stroke-miterlimit="10"/>
<path d="M27.4941 353.074C27.4941 353.074 39.6516 369.521 50.2668 369.521" stroke="#FFF8F6" stroke-width="0.6738" stroke-miterlimit="10"/>
<path d="M32.666 319.363C32.666 319.363 36.4766 321.453 33.7547 330.903" stroke="#FFF8F6" stroke-width="0.6738" stroke-miterlimit="10"/>
<path d="M52.263 332.902C52.263 332.902 53.0796 340.262 44.9141 349.44" stroke="#FFF8F6" stroke-width="0.6738" stroke-miterlimit="10"/>
<path d="M45.8213 429.22C45.8213 429.22 64.239 453.027 80.2978 439.215" stroke="#FFF8F6" stroke-width="0.6738" stroke-miterlimit="10"/>
<path d="M83.4729 404.958C83.4729 404.958 81.8398 416.68 70.3174 418.497" stroke="#FFF8F6" stroke-width="0.6738" stroke-miterlimit="10"/>
<path d="M108.786 441.941C108.786 441.941 98.3525 461.205 82.5659 466.293" stroke="#FFF8F6" stroke-width="0.6738" stroke-miterlimit="10"/>
<path d="M78.2111 464.022C71.7694 465.748 66.3258 458.842 66.8701 452.391C67.4145 445.848 71.7694 440.124 75.8521 434.854C80.0256 429.493 84.2898 423.768 84.6527 417.226C85.2878 406.504 75.1263 398.507 74.582 387.876C74.1283 377.336 83.0196 368.34 91.0037 360.707C98.897 353.074 107.244 343.079 105.157 332.811C104.341 329.086 102.254 325.815 101.71 321.998C101.165 318.182 103.07 313.366 106.972 312.639C110.782 312.003 113.504 315.547 115.409 318.727C120.853 328.086 126.297 337.355 131.74 346.714C137.819 357.163 144.079 369.158 140.269 381.243C136.912 391.783 126.569 399.689 124.21 410.502C121.125 424.586 133.011 438.034 128.928 451.936C125.843 462.386 114.23 469.11 103.433 470.019C92.6367 470.927 82.2938 467.202 72.4045 463.567" fill="#FCCE6C"/>
<path d="M105.974 314.093C115.863 326.996 117.768 351.62 113.413 368.158C110.692 378.517 105.157 388.421 104.704 398.961C104.341 408.048 107.788 416.589 108.696 425.585C110.147 440.124 101.347 457.297 90.3687 468.11" stroke="#FFF8F6" stroke-width="0.4395" stroke-miterlimit="10"/>
<path d="M93.7256 357.436C93.7256 357.436 96.9918 373.701 109.149 380.243" stroke="#FFF8F6" stroke-width="0.4395" stroke-miterlimit="10"/>
<path d="M107.425 423.041C107.425 423.041 77.3945 397.78 75.4893 381.333" stroke="#FFF8F6" stroke-width="0.4395" stroke-miterlimit="10"/>
<path d="M115.409 346.169C115.409 346.169 107.244 346.169 105.157 332.812" stroke="#FFF8F6" stroke-width="0.4395" stroke-miterlimit="10"/>
<path d="M106.336 441.668C106.336 441.668 122.123 440.487 125.117 427.766" stroke="#FFF8F6" stroke-width="0.4395" stroke-miterlimit="10"/>
<path d="M100.348 455.389C100.348 455.389 83.3823 448.938 79.5718 430.219" stroke="#FFF8F6" stroke-width="0.4395" stroke-miterlimit="10"/>
<path d="M140.087 363.433C140.087 363.433 133.373 376.881 106.064 388.512" stroke="#FFF8F6" stroke-width="0.4395" stroke-miterlimit="10"/>
<path d="M118.403 323.998C118.403 323.998 120.581 326.996 114.684 333.72" stroke="#FFF8F6" stroke-width="0.4395" stroke-miterlimit="10"/>
<path d="M128.474 341.625C128.474 341.625 126.115 347.804 115.953 352.529" stroke="#FFF8F6" stroke-width="0.4395" stroke-miterlimit="10"/>
<path d="M84.6528 417.226C84.6528 417.226 89.6428 442.668 107.788 437.035" stroke="#FFF8F6" stroke-width="0.4395" stroke-miterlimit="10"/>
<path d="M124.119 410.501C124.119 410.501 118.131 419.406 108.333 416.953" stroke="#FFF8F6" stroke-width="0.4395" stroke-miterlimit="10"/>
<path d="M129.2 449.029C129.2 449.029 113.232 461.023 98.7153 459.751" stroke="#FFF8F6" stroke-width="0.4395" stroke-miterlimit="10"/>
<path d="M78.2111 464.022C71.7694 465.748 66.3258 458.842 66.8701 452.391C67.4145 445.848 71.7694 440.124 75.8521 434.854C80.0256 429.493 84.2898 423.768 84.6527 417.226C85.2878 406.504 75.1263 398.507 74.582 387.876C74.1283 377.336 83.0196 368.34 91.0037 360.707C98.897 353.074 107.244 343.079 105.157 332.811C104.341 329.086 102.254 325.815 101.71 321.998C101.165 318.182 103.07 313.366 106.972 312.639C110.782 312.003 113.504 315.547 115.409 318.727C120.853 328.086 126.297 337.355 131.74 346.714C137.819 357.163 144.079 369.158 140.269 381.243C136.912 391.783 126.569 399.689 124.21 410.502C121.125 424.586 133.011 438.034 128.928 451.936C125.843 462.386 114.23 469.11 103.433 470.019C92.6367 470.927 82.2938 467.202 72.4045 463.567" fill="url(#paint18_linear)"/>
<path d="M70.7711 506.092C68.6844 510.09 62.6963 509.727 59.7023 506.455C56.7083 503.184 55.801 498.368 54.9845 493.825C54.2587 489.282 53.2607 484.466 50.1759 481.286C45.0952 476.015 36.3853 477.469 30.7602 472.835C25.2259 468.201 24.8629 459.569 24.5908 452.027C24.4093 444.485 23.2298 435.762 17.0604 432.127C14.7922 430.764 12.1611 430.401 9.98362 428.947C7.80616 427.493 6.26379 424.313 7.71543 422.041C9.16707 419.77 12.1611 420.042 14.6107 420.587C21.7782 422.132 29.0364 423.677 36.2039 425.222C44.1879 426.948 53.1699 429.31 57.5249 436.761C61.3354 443.304 60.5189 452.209 64.8738 458.297C70.5896 466.293 82.7471 466.475 87.9186 475.016C91.7292 481.377 89.8239 490.281 85.2875 496.188C80.7511 502.003 74.128 505.547 67.7771 508.909" fill="#FCCE6C"/>
<path d="M8.07812 423.223C19.1469 424.222 32.3931 434.581 38.6533 444.304C42.6453 450.392 45.095 457.842 50.1757 462.84C54.6214 467.202 60.5187 469.382 65.4179 473.108C73.402 479.105 78.0291 491.372 78.392 501.912" stroke="#FFF8F6" stroke-width="0.4395" stroke-miterlimit="10"/>
<path d="M24.228 449.21C24.228 449.21 33.9359 455.025 42.8272 451.936" stroke="#FFF8F6" stroke-width="0.4395" stroke-miterlimit="10"/>
<path d="M63.5129 472.563C63.5129 472.563 37.0204 476.106 27.8569 469.473" stroke="#FFF8F6" stroke-width="0.4395" stroke-miterlimit="10"/>
<path d="M28.4917 433.218C28.4917 433.218 24.6812 437.307 17.0601 432.218" stroke="#FFF8F6" stroke-width="0.4395" stroke-miterlimit="10"/>
<path d="M72.4043 481.649C72.4043 481.649 79.1181 473.199 74.0374 465.748" stroke="#FFF8F6" stroke-width="0.4395" stroke-miterlimit="10"/>
<path d="M76.5779 491.008C76.5779 491.008 65.5998 496.642 54.3496 489.918" stroke="#FFF8F6" stroke-width="0.4395" stroke-miterlimit="10"/>
<path d="M48.5428 428.674C48.5428 428.674 52.172 438.215 45.5488 457.297" stroke="#FFF8F6" stroke-width="0.4395" stroke-miterlimit="10"/>
<path d="M18.7842 421.405C18.7842 421.405 21.3246 421.677 21.9596 427.765" stroke="#FFF8F6" stroke-width="0.4395" stroke-miterlimit="10"/>
<path d="M32.3025 424.495C32.3025 424.495 34.2985 428.493 32.0303 435.762" stroke="#FFF8F6" stroke-width="0.4395" stroke-miterlimit="10"/>
<path d="M50.1758 481.377C50.1758 481.377 65.2366 490.554 70.7709 478.833" stroke="#FFF8F6" stroke-width="0.4395" stroke-miterlimit="10"/>
<path d="M64.8738 458.388C64.8738 458.388 66.5977 465.475 60.8818 469.382" stroke="#FFF8F6" stroke-width="0.4395" stroke-miterlimit="10"/>
<path d="M86.6484 473.471C86.6484 473.471 85.3782 487.01 78.0293 493.734" stroke="#FFF8F6" stroke-width="0.4395" stroke-miterlimit="10"/>
<path d="M66.5972 568.789H121.034C123.756 568.789 126.024 566.79 126.296 564.064L133.826 500.913C134.189 497.732 131.74 494.916 128.564 494.916H59.0668C55.8913 494.916 53.3509 497.732 53.8046 500.913L61.335 564.064C61.6071 566.79 63.8753 568.789 66.5972 568.789Z" fill="#9DCAF3"/>
<path d="M51.9903 507.455H135.46C137.183 507.455 138.635 506.183 138.907 504.457L140.54 493.734C140.903 491.645 139.179 489.646 137.093 489.646H50.3572C48.1797 489.646 46.5466 491.554 46.9095 493.734L48.5426 504.457C48.8148 506.183 50.2664 507.455 51.9903 507.455Z" fill="#9DCAF3"/>
<path d="M51.9903 507.455H135.46C137.183 507.455 138.635 506.183 138.907 504.457L140.54 493.734C140.903 491.645 139.179 489.646 137.093 489.646H50.3572C48.1797 489.646 46.5466 491.554 46.9095 493.734L48.5426 504.457C48.8148 506.183 50.2664 507.455 51.9903 507.455Z" fill="url(#paint19_linear)"/>
<path d="M297.681 282.017C293.508 285.561 280.715 290.105 274.818 286.379C270.554 283.744 262.751 280.109 266.38 278.474C270.009 276.838 270.463 272.931 276.269 273.204C281.622 273.476 286.431 277.929 287.066 278.201C294.506 281.2 300.403 279.746 297.681 282.017Z" fill="#F5C7B0"/>
<path d="M309.113 264.026C309.113 264.026 302.762 259.483 299.042 258.392C295.322 257.302 287.519 259.937 286.431 260.028C285.251 260.119 278.81 263.753 280.533 265.207C282.257 266.661 287.157 265.571 287.157 265.571C287.157 265.571 294.415 264.571 294.778 264.571C295.141 264.571 303.669 264.935 305.846 267.297C308.115 269.66 308.75 271.114 309.294 270.205C309.838 269.296 311.472 266.298 311.472 266.298L309.113 264.026Z" fill="#F5C7B0"/>
<path d="M386.413 252.214C391.724 252.214 396.03 247.901 396.03 242.582C396.03 237.262 391.724 232.95 386.413 232.95C381.101 232.95 376.795 237.262 376.795 242.582C376.795 247.901 381.101 252.214 386.413 252.214Z" fill="#FFC550"/>
<path d="M386.413 252.214C391.724 252.214 396.03 247.901 396.03 242.582C396.03 237.262 391.724 232.95 386.413 232.95C381.101 232.95 376.795 237.262 376.795 242.582C376.795 247.901 381.101 252.214 386.413 252.214Z" fill="url(#paint20_linear)"/>
<path d="M478.319 469.655C478.319 469.655 482.493 375.246 482.221 356.255C482.039 342.807 479.953 302.553 479.953 302.553L472.785 305.007C459.539 294.648 404.014 327.905 404.377 340.717C404.377 340.717 404.195 353.892 404.83 362.343C406.191 378.79 410.274 459.388 410.637 461.568C418.621 502.004 423.248 570.426 422.976 586.691C422.794 595.595 434.861 593.778 435.315 590.78C444.206 538.804 443.752 507.456 437.129 462.568L440.123 374.065L452.462 466.384C453.46 469.837 454.912 477.016 455.365 480.287C459.63 514.089 462.079 584.055 462.079 584.055C462.079 584.055 475.779 587.508 475.961 585.055C480.951 532.353 486.031 523.902 478.319 469.655Z" fill="#202020"/>
<path d="M482.856 247.489C482.856 247.489 483.31 258.211 482.856 276.566C482.584 288.924 484.035 320.636 482.584 339.082C443.027 357.527 403.288 340.263 403.288 340.263C407.189 319.727 405.828 257.666 405.828 257.666L401.292 238.948C401.292 238.948 400.294 213.596 409.185 201.147C414.175 194.151 434.77 188.154 442.664 186.609C451.011 184.973 460.174 184.519 467.523 185.155C474.328 185.791 492.292 187.427 498.098 190.88C499.368 191.606 501.364 194.06 501.727 194.605C510.982 208.871 482.856 247.489 482.856 247.489Z" fill="#FF4D00"/>
<path d="M312.56 284.38C312.56 284.38 301.673 288.469 298.135 288.742C291.693 289.196 280.171 297.192 274.273 293.467C270.009 290.832 270.372 279.019 274.001 277.293C277.63 275.657 286.522 266.661 292.328 267.025C297.681 267.297 304.214 269.024 304.849 269.297C312.288 272.295 312.56 275.384 312.56 275.384V284.38Z" fill="#F5C7B0"/>
<path d="M416.625 199.148C415.99 199.148 409.185 201.147 409.185 201.147C409.185 201.147 400.748 215.322 398.207 231.224C395.667 247.125 371.08 282.744 371.08 282.744L385.324 300.918C385.324 300.918 416.806 266.298 419.075 256.03C421.252 245.944 416.625 199.148 416.625 199.148Z" fill="#FF4D00"/>
<path d="M304.849 287.379L312.107 274.203L389.225 282.926C389.225 282.926 391.947 298.283 382.511 302.644C373.076 306.915 304.849 287.379 304.849 287.379Z" fill="#FF4D00"/>
<path d="M497.373 246.944C495.104 255.212 488.663 269.024 482.856 276.566C473.511 288.833 464.62 301.009 464.62 301.009L449.105 284.471C449.105 284.471 473.965 247.216 476.505 231.315C479.046 215.413 477.322 197.604 483.128 193.515C486.757 190.97 491.294 186.881 498.461 190.97C507.262 195.877 502.635 227.408 497.373 246.944Z" fill="#60D8A4"/>
<path d="M407.098 252.305C407.098 252.305 406.282 241.492 405.102 238.13C403.106 232.496 392.763 217.776 392.763 217.776C392.763 217.776 388.318 223.5 395.485 231.497C395.485 231.497 390.042 238.312 387.138 235.858C384.326 233.405 379.427 230.225 379.427 230.225C379.427 230.225 378.519 225.59 375.979 221.229C373.438 216.867 372.985 227.862 373.166 231.86C373.348 235.858 373.62 237.948 376.432 241.492C379.245 245.036 399.024 256.394 399.024 256.394L407.098 252.305Z" fill="#F5C7B0"/>
<path d="M394.125 254.031L407.28 246.943L467.251 296.283C467.251 296.283 461.263 310.731 450.92 309.186C440.668 307.551 394.125 254.031 394.125 254.031Z" fill="#60D8A4"/>
<path d="M498.552 190.88C491.385 186.791 486.848 190.88 483.219 193.424C477.412 197.513 479.136 215.322 476.596 231.224C474.418 244.945 455.638 274.476 450.557 282.381L407.371 246.853L394.215 253.94C394.215 253.94 440.759 307.551 451.102 309.005C457.362 309.914 462.08 304.916 464.801 300.827C464.801 300.827 473.693 288.651 483.038 276.384C488.753 268.842 495.286 255.031 497.554 246.762C502.635 227.408 507.262 195.877 498.552 190.88Z" fill="#FF4D00"/>
<path d="M498.552 190.88C491.385 186.791 486.848 190.88 483.219 193.424C477.412 197.513 479.136 215.322 476.596 231.224C474.418 244.945 455.638 274.476 450.557 282.381L407.371 246.853L394.215 253.94C394.215 253.94 440.759 307.551 451.102 309.005C457.362 309.914 462.08 304.916 464.801 300.827C464.801 300.827 473.693 288.651 483.038 276.384C488.753 268.842 495.286 255.031 497.554 246.762C502.635 227.408 507.262 195.877 498.552 190.88Z" fill="url(#paint21_linear)"/>
<path d="M461.807 585.055C460.9 588.417 461.263 589.598 460.809 591.779C460.355 594.505 457.634 595.505 456.091 597.685C454.367 600.139 451.736 604.046 462.17 604.228C473.42 604.41 480.043 603.683 478.138 597.867C476.233 591.961 475.87 589.417 475.96 587.508C476.051 585.6 475.96 583.601 474.69 582.42C473.511 581.239 463.44 579.149 461.807 585.055Z" fill="#6E311E"/>
<path d="M421.433 588.508C420.526 590.144 416.262 594.051 410.455 596.595C404.558 599.139 392.128 600.321 399.024 602.592C405.919 604.864 413.994 603.501 418.167 602.865C422.25 602.229 426.242 602.138 431.051 602.138C437.402 602.138 437.492 601.684 436.585 594.778C435.406 585.146 424.337 583.147 421.433 588.508Z" fill="#6E311E"/>
<path d="M396.03 216.413V231.951C396.03 231.951 395.848 236.948 389.407 236.857C382.965 236.767 377.975 229.861 377.159 224.954C377.068 224.318 376.977 223.682 376.886 223.046C376.614 219.866 376.796 216.503 376.796 216.503H396.03V216.413Z" fill="#FFC550"/>
<path d="M396.03 216.413V231.951C396.03 231.951 395.848 236.948 389.407 236.857C382.965 236.767 377.975 229.861 377.159 224.954C377.068 224.318 376.977 223.682 376.886 223.046C376.614 219.866 376.796 216.503 376.796 216.503H396.03V216.413Z" fill="url(#paint22_linear)"/>
<path d="M395.939 231.133C395.939 231.133 396.029 231.042 395.939 231.133C396.211 233.041 395.031 234.949 393.398 235.949C391.765 236.948 389.678 237.13 387.773 236.675C382.602 235.494 378.428 230.678 377.249 225.59C377.158 225.317 377.158 225.136 377.067 224.863C377.067 224.772 377.067 224.772 377.067 224.772C377.249 224.499 378.791 226.68 378.973 226.953C380.334 228.588 381.876 230.133 383.69 231.314C385.414 232.496 387.592 233.223 389.679 233.313C390.767 233.313 391.765 233.132 392.763 232.768C393.943 232.223 394.85 231.496 395.939 231.133Z" fill="url(#paint23_linear)"/>
<path d="M386.413 217.775C391.724 217.775 396.03 217.165 396.03 216.412C396.03 215.66 391.724 215.049 386.413 215.049C381.101 215.049 376.795 215.66 376.795 216.412C376.795 217.165 381.101 217.775 386.413 217.775Z" fill="#6E311E"/>
<path d="M381.242 223.864H377.25C377.25 223.864 369.084 233.859 375.616 242.582C377.431 245.036 378.792 243.218 378.792 243.218C378.792 243.218 373.167 232.133 381.242 223.864Z" fill="#F1A557"/>
<path d="M440.305 171.616C440.305 171.616 438.037 192.515 437.765 194.514C437.493 196.513 450.739 197.512 457.816 193.332C464.802 189.153 467.433 186.063 467.614 185.155C467.796 184.337 464.983 177.249 463.622 168.98C462.261 160.712 462.261 156.259 462.261 156.259L461.082 154.351H458.179L440.305 171.616Z" fill="#F5C7B0"/>
<path d="M440.305 171.616C440.305 171.616 438.037 192.515 437.765 194.514C437.493 196.513 450.739 197.512 457.816 193.332C464.802 189.153 467.433 186.063 467.614 185.155C467.796 184.337 464.983 177.249 463.622 168.98C462.261 160.712 462.261 156.259 462.261 156.259L461.082 154.351H458.179L440.305 171.616Z" fill="url(#paint24_linear)"/>
<path d="M454.458 164.801C451.555 169.344 446.656 171.071 442.664 172.343C439.579 173.342 435.95 172.343 434.226 171.525C433.682 171.252 433.319 171.071 433.137 170.889C432.321 170.162 432.049 163.711 431.867 159.803C431.686 155.805 431.867 136.814 431.867 136.814C431.867 132.998 433.047 125.82 433.228 125.547C433.41 125.274 436.404 124.184 436.404 124.184C436.404 124.184 439.67 123.094 443.208 122.003C446.747 120.913 450.648 120.004 451.646 120.186C453.733 120.64 460.628 128.091 460.991 140.358C461.444 152.625 457.362 160.258 454.458 164.801Z" fill="#F5C7B0"/>
<path d="M443.571 164.801C441.212 168.526 437.583 170.253 434.226 171.525C433.682 171.252 433.319 171.07 433.137 170.889C432.321 170.162 432.049 163.71 431.867 159.803C431.686 155.805 431.867 136.814 431.867 136.814C431.867 132.998 433.047 125.819 433.228 125.547C433.41 125.274 436.404 124.184 436.404 124.184C436.404 124.184 439.67 123.093 443.208 122.003C446.021 124.911 449.831 131.362 450.194 140.358C450.557 152.625 446.474 160.257 443.571 164.801Z" fill="url(#paint25_linear)"/>
<path d="M432.14 143.084C432.23 147.173 432.049 145.992 432.049 151.444C432.049 151.989 432.049 152.625 431.777 152.989C431.142 153.806 430.053 153.443 429.055 153.352C428.783 153.352 427.694 152.989 427.422 152.807C426.877 152.352 427.966 150.626 428.329 149.899C429.69 147.718 430.506 145.356 431.414 140.176C431.504 139.813 431.777 137.541 431.777 136.814C431.867 136.814 432.14 142.448 432.14 143.084Z" fill="#E99B8D"/>
<path d="M436.222 130.544C436.313 130.453 436.495 130.362 436.676 130.362C436.948 130.453 437.039 130.726 437.039 130.998C437.13 131.998 443.571 132.997 445.386 134.542C446.112 135.087 446.747 135.996 446.565 136.814C445.93 135.905 445.023 135.178 444.025 134.724C441.212 133.452 439.489 135.087 436.948 135.723C435.587 136.087 435.678 135.542 435.587 134.179C435.587 133.088 435.224 131.453 436.222 130.544Z" fill="#6E311E"/>
<path d="M440.033 142.993C439.942 144.174 439.398 145.083 438.853 145.083C438.309 144.992 437.946 144.083 438.037 142.902C438.128 141.721 438.672 140.812 439.216 140.812C439.761 140.903 440.124 141.812 440.033 142.993Z" fill="#202020"/>
<path d="M434.771 161.62C434.771 161.62 439.761 162.62 441.121 159.349" stroke="#E99B8D" stroke-miterlimit="10" stroke-linecap="round" stroke-linejoin="round"/>
<path d="M476.777 130.181C476.233 139.722 473.874 149.444 467.886 156.986C466.707 158.44 465.164 159.894 463.35 159.894C461.444 159.894 459.811 157.35 461.263 156.078C462.079 155.351 463.44 155.442 464.438 154.896C465.89 154.169 466.253 152.17 466.434 150.535C466.616 148.536 466.888 146.537 466.162 144.629C465.436 142.811 463.531 141.176 461.626 141.63C460.809 141.812 460.083 142.266 459.267 142.448C456.817 142.993 454.73 140.449 454.005 137.995C453.642 136.905 453.46 135.815 453.188 134.633C452.825 133.27 452.372 131.907 451.464 130.908C449.74 128.909 446.746 128.364 444.115 128.636C441.484 128.818 438.853 129.636 436.131 129.545C431.323 129.454 426.605 126.546 424.609 122.094C422.704 117.823 422.976 114.37 424.7 111.826C427.694 107.192 435.133 105.465 441.212 106.919C451.283 109.373 465.709 105.284 473.33 114.461C473.511 114.643 473.693 114.915 473.874 115.188C474.146 115.551 474.328 115.824 474.509 116.188C476.777 120.186 477.049 125.365 476.777 130.181Z" fill="#6E311E"/>
<path d="M476.778 130.181C476.233 139.722 473.874 149.444 467.886 156.986C466.707 158.44 465.164 159.894 463.35 159.894C461.445 159.894 459.811 157.35 461.172 156.078C461.989 155.26 463.35 155.442 464.348 154.896C465.8 154.079 466.162 152.17 466.344 150.535C466.525 148.536 466.798 146.537 466.072 144.629C465.346 142.811 463.441 141.267 461.535 141.63C460.719 141.812 459.993 142.266 459.176 142.448C456.727 142.993 454.64 140.449 453.914 137.995C453.551 136.905 453.37 135.815 453.098 134.633C454.731 132.634 456.636 130.999 458.632 129.363C463.441 125.365 468.158 121.185 472.423 116.551C472.876 116.097 473.33 115.551 473.693 115.097C476.687 119.277 477.14 124.911 476.778 130.181Z" fill="url(#paint26_linear)"/>
<path d="M462.533 140.449C462.533 140.449 464.076 139.722 465.165 140.449C466.253 141.175 468.703 143.538 467.977 147.263C467.251 151.08 466.435 156.259 461.717 156.35C456.999 156.441 457.816 156.35 457.816 156.35L460.175 142.084L462.533 140.449Z" fill="#F5C7B0"/>
<path d="M460.446 144.901C461.263 144.719 462.17 144.356 462.987 144.174C463.894 144.083 464.801 144.265 465.346 144.992C465.981 145.9 465.799 147.173 465.618 148.354C465.437 149.353 465.255 150.262 464.983 151.261C464.892 151.534 464.801 151.898 464.711 152.079C464.438 152.443 464.076 152.715 463.713 152.897C462.17 153.533 460.356 153.261 459.176 152.17C458.995 151.988 458.723 151.716 458.723 151.443C458.632 151.08 458.723 150.716 458.904 150.353C459.358 148.535 459.993 144.992 460.446 144.901Z" fill="#E99B8D"/>
<path d="M462.533 140.449C462.533 140.449 464.076 139.722 465.165 140.449C466.253 141.175 468.703 143.538 467.977 147.263C467.251 151.08 466.435 156.259 461.717 156.35C456.999 156.441 457.816 156.35 457.816 156.35L460.175 142.084L462.533 140.449Z" fill="url(#paint27_linear)"/>
<path d="M474.327 116.097C472.513 117.278 470.154 117.823 467.886 118.096C464.892 118.55 461.807 118.823 458.994 117.914C457.634 117.46 456.273 116.824 454.821 116.824C452.099 116.824 450.103 119.186 447.926 120.731C445.113 122.73 441.575 123.457 438.127 123.093C434.68 122.73 431.504 121.458 428.601 119.55C427.603 118.914 426.605 118.096 425.879 117.096C424.79 115.552 424.518 113.734 424.518 111.826C427.512 107.192 434.952 105.465 441.03 106.919C451.101 109.373 465.527 105.284 473.148 114.461C473.329 114.643 473.511 114.915 473.692 115.188C473.965 115.461 474.146 115.733 474.327 116.097Z" fill="url(#paint28_linear)"/>
<path d="M169.937 587.236C170.844 590.779 170.481 592.052 170.935 594.323C171.388 597.14 174.11 598.23 175.653 600.502C177.376 603.046 180.098 607.226 169.483 607.408C158.142 607.59 151.428 606.863 153.334 600.684C155.239 594.505 155.602 591.779 155.511 589.78C155.42 587.781 155.511 585.691 156.781 584.419C158.052 583.238 168.213 581.057 169.937 587.236Z" fill="#9DCAF3"/>
<path d="M174.382 369.794C174.382 369.794 167.396 352.711 174.019 320.09H255.13C255.13 320.09 256.128 341.898 251.954 369.794H174.382Z" fill="#202020"/>
<path d="M192.982 470.927C199.242 445.485 173.294 441.033 165.128 459.478C153.606 485.466 154.513 572.152 155.148 588.689C155.239 590.87 155.058 590.689 156.328 590.325C158.233 589.871 160.048 585.691 165.128 585.873C168.032 585.963 170.391 589.507 170.391 589.507C172.84 566.882 186.903 495.552 192.982 470.927Z" fill="#202020"/>
<path d="M214.031 372.157C216.753 340.626 206.591 316.092 186.994 326.542C178.738 330.903 175.744 339.717 174.655 347.986C173.566 356.255 167.487 442.123 165.401 457.661C160.592 492.645 188.173 483.195 191.167 473.563C198.698 449.029 212.488 389.33 214.031 372.157Z" fill="#202020"/>
<path d="M241.249 470.837C246.148 447.666 223.375 444.304 214.484 462.386C200.512 490.827 205.32 558.886 200.149 595.777C205.139 590.144 208.949 590.144 210.673 590.507C213.486 591.234 214.393 593.142 214.393 593.142C221.833 544.711 235.986 495.643 241.249 470.837Z" fill="#202020"/>
<path d="M214.302 468.928C215.754 479.015 239.888 494.371 242.972 459.206C244.333 443.577 253.315 357.981 254.041 349.622C254.767 341.353 255.856 328.723 252.952 326.724C234.716 314.184 213.94 336.537 214.212 368.249C214.393 389.421 211.399 448.12 214.302 468.928Z" fill="#202020"/>
<path d="M214.303 592.415C215.21 594.05 219.474 597.958 225.371 600.502C231.269 603.046 243.789 604.227 236.803 606.499C229.817 608.771 221.742 607.408 217.659 606.772C213.577 606.135 209.585 606.045 204.776 606.045C198.425 606.045 198.334 605.59 199.242 598.684C200.33 589.053 211.399 587.054 214.303 592.415Z" fill="#9DCAF3"/>
<path d="M325.715 193.878C325.715 197.058 323.266 199.693 320.272 199.693C317.278 199.693 314.828 197.149 314.828 193.878C314.828 190.698 317.278 188.062 320.272 188.062C323.266 188.062 325.715 190.698 325.715 193.878Z" stroke="#FF4D00" stroke-width="3" stroke-miterlimit="10"/>
<path d="M319.637 183.701C319.637 187.063 328.437 189.789 339.234 189.789C350.03 189.789 358.831 187.063 358.831 183.701C358.831 180.339 350.03 177.613 339.234 177.613C328.437 177.704 319.637 180.339 319.637 183.701Z" fill="#EF3E00"/>
<path d="M324.808 191.152C324.808 194.514 331.431 197.149 339.506 197.149C347.671 197.149 354.204 194.423 354.204 191.152C354.204 187.79 347.581 185.155 339.506 185.155C331.431 185.064 324.808 187.79 324.808 191.152Z" fill="#6E311E"/>
<path d="M339.234 189.789C349.395 189.789 357.742 187.426 358.649 184.337C358.74 184.246 358.831 184.155 358.921 184.064C358.921 196.876 350.121 207.326 339.324 207.326C328.618 207.326 319.999 197.149 319.818 184.518C320.997 187.426 329.254 189.789 339.234 189.789Z" fill="#FF4D00"/>
<path d="M339.234 189.789C349.395 189.789 357.742 187.426 358.649 184.337C358.74 184.246 358.831 184.155 358.921 184.064C358.921 196.876 350.121 207.326 339.324 207.326C328.618 207.326 319.999 197.149 319.818 184.518C320.997 187.426 329.254 189.789 339.234 189.789Z" fill="url(#paint29_linear)"/>
<path d="M291.693 198.875C291.693 198.875 296.592 191.152 302.398 187.971C302.398 187.971 318.367 183.428 318.367 185.972C318.367 189.97 307.933 190.334 307.933 190.334C307.933 190.334 320.363 188.062 319.002 192.151C319.002 192.151 320.272 195.422 319.002 198.33C319.002 198.33 321.088 202.964 317.913 205.508C317.913 205.508 322.086 212.232 315.1 212.323C299.858 212.687 295.957 222.228 295.957 222.228L284.797 210.324L291.693 198.875Z" fill="#F5C7B0"/>
<path d="M284.706 206.872L300.13 218.048C300.13 218.048 296.773 242.218 289.243 272.113C286.158 284.38 280.533 294.92 270.644 295.92C243.97 298.555 211.671 220.229 215.209 196.331C218.385 174.523 242.7 181.974 250.865 193.514C259.031 205.054 270.644 259.21 270.644 259.21C270.644 259.21 276.36 220.956 284.706 206.872Z" fill="#9DCAF3"/>
<path d="M317.64 212.323C314.646 213.141 311.38 213.323 308.295 212.959C306.844 212.778 305.392 212.414 304.213 211.596C302.58 210.506 301.672 208.598 301.219 206.69C300.221 202.419 301.491 197.603 304.485 194.332C307.479 191.061 312.015 189.334 316.461 189.698C317.096 189.789 317.822 189.879 318.366 190.152C318.911 190.425 319.273 190.97 319.727 191.424C320.997 192.969 322.267 194.514 322.812 196.422C323.084 197.603 323.084 198.784 323.084 199.966C323.084 202.601 323.628 206.054 322.721 208.689C321.995 210.869 319.636 211.778 317.64 212.323Z" fill="#F5C7B0"/>
<path d="M317.64 212.323C314.646 213.141 311.38 213.323 308.295 212.959C306.844 212.778 305.392 212.414 304.213 211.596C302.58 210.506 301.672 208.598 301.219 206.69C300.221 202.419 301.491 197.603 304.485 194.332C307.479 191.061 312.015 189.334 316.461 189.698C317.096 189.789 317.822 189.879 318.366 190.152C318.911 190.425 319.273 190.97 319.727 191.424C320.997 192.969 322.267 194.514 322.812 196.422C323.084 197.603 323.084 198.784 323.084 199.966C323.084 202.601 323.628 206.054 322.721 208.689C321.995 210.869 319.636 211.778 317.64 212.323Z" fill="url(#paint30_linear)"/>
<path d="M191.62 140.54C191.62 140.54 189.171 150.262 189.352 156.714C189.534 163.165 187.81 165.164 185.632 166.981C182.366 169.798 174.473 175.795 172.205 177.522C172.205 177.522 200.693 205.69 217.931 202.601C250.775 196.785 213.849 171.161 213.849 171.161C213.849 171.161 218.476 166.981 214.211 164.256C211.671 162.62 209.131 151.807 209.131 151.807L191.62 140.54Z" fill="#F5C7B0"/>
<path d="M218.113 111.099C220.835 112.735 225.552 116.097 225.825 118.823C226.097 121.458 227.367 129.181 227.186 133.816C227.004 138.359 227.276 150.171 226.732 155.532C226.188 160.894 225.825 168.163 224.554 169.162C223.284 170.162 210.582 171.071 207.951 169.798C205.23 168.526 192.528 155.805 192.618 144.356C192.618 144.356 186.812 147.082 182.457 136.996C181.277 134.361 189.806 123.729 190.804 120.64C193.163 112.916 208.586 114.461 212.76 113.734C216.933 112.826 218.113 111.099 218.113 111.099Z" fill="#F5C7B0"/>
<path d="M211.943 170.162C211.943 170.162 219.836 188.062 207.951 190.061C189.08 193.242 183.364 169.071 183.364 169.071L162.587 179.793L177.195 340.626C177.195 340.626 251.863 348.35 250.956 339.99C246.329 294.648 221.651 176.25 221.651 176.25L211.943 170.162Z" fill="white"/>
<path d="M178.556 171.252C179.1 172.07 208.95 260.482 199.514 337.355C197.337 355.255 161.862 353.074 154.06 353.074C154.06 353.074 158.687 299.373 157.779 278.019C156.872 256.666 159.594 226.68 158.687 216.231C157.779 205.781 146.438 187.153 146.438 187.153L178.556 171.252Z" fill="#9DCAF3"/>
<path d="M189.896 132.816L192.89 128.455L192.165 126.456C192.165 126.456 192.074 116.279 192.709 116.188C193.344 116.097 207.225 110.372 208.586 111.463C210.038 112.553 220.472 114.916 220.472 114.916C220.472 114.916 223.103 125.547 221.288 125.82C219.383 126.092 206.772 126.365 202.054 128.909C199.695 130.181 199.151 132.089 198.878 133.634C198.425 136.36 198.969 137.905 199.241 138.359C201.782 143.084 208.949 142.085 210.31 143.175C211.762 144.265 215.209 151.444 215.209 151.444C215.209 151.444 222.831 165.71 221.107 166.618C219.292 167.527 213.849 169.526 212.578 169.708C211.308 169.889 206.5 167.345 204.322 166.891C202.145 166.437 198.153 161.53 195.884 159.258C193.707 156.987 191.257 138.177 191.257 138.177L189.896 132.816Z" fill="url(#paint31_linear)"/>
<path d="M225.825 118.732C225.825 118.732 224.192 115.188 221.198 116.824C218.204 118.459 211.853 119.64 206.863 119.459C201.873 119.277 197.064 117.369 197.064 117.369C197.064 117.369 197.336 124.365 196.066 126.365C194.796 128.273 191.893 130.726 191.802 132.998C191.711 135.269 191.983 137.541 191.983 137.541L191.711 144.356C191.711 144.356 191.802 147.627 191.348 150.08C190.895 152.534 189.352 156.623 189.352 156.623C189.352 156.623 184.09 142.539 179.463 136.814C174.836 131.09 172.296 119.004 180.643 114.098C180.643 114.098 180.189 102.739 192.074 100.195C203.96 97.6509 211.762 103.921 216.752 102.013C221.742 100.104 222.74 99.2865 225.371 100.195C228.819 101.376 232.539 107.101 230.271 112.916C228.093 118.732 225.825 118.732 225.825 118.732Z" fill="#202020"/>
<path d="M227.004 147.264C226.732 149.989 226.278 152.261 224.373 152.079C222.468 151.989 222.014 149.899 217.659 149.989C213.304 150.08 210.401 153.442 207.588 154.26C204.776 155.169 197.336 148.99 195.612 142.902C193.888 136.905 192.709 130.999 192.709 130.999L190.713 133.179C190.713 133.179 192.437 144.174 192.89 150.626C193.344 157.077 197.064 166.254 204.685 169.798C212.215 173.342 223.012 171.161 225.008 168.98C227.004 166.8 226.822 159.44 227.639 156.168C228.183 152.897 227.004 147.264 227.004 147.264Z" fill="#202020"/>
<path d="M180.643 114.188C180.643 114.188 180.189 102.83 192.074 100.286C195.613 99.5589 198.788 99.5589 201.601 99.9223C197.881 103.83 195.885 109.282 196.701 115.097C196.792 115.915 196.973 116.733 197.155 117.459C197.064 117.459 197.064 117.459 197.064 117.459C197.064 117.459 197.336 124.456 196.066 126.455C194.796 128.363 191.893 130.817 191.802 133.088C191.711 135.36 191.983 137.632 191.983 137.632L191.711 144.447C191.711 144.447 191.802 147.718 191.348 150.171C190.895 152.624 189.352 156.713 189.352 156.713C189.352 156.713 183.999 142.629 179.463 136.905C174.836 131.18 172.296 119.095 180.643 114.188Z" fill="url(#paint32_linear)"/>
<path d="M215.754 134.633C215.935 138.631 216.117 142.72 216.48 146.718C216.48 147.082 216.57 147.354 216.661 147.627C217.024 148.263 217.931 148.354 218.657 148.354C218.839 148.354 219.111 148.354 219.292 148.263C219.746 147.991 219.655 147.264 219.564 146.718C218.476 142.448 217.75 138.177 217.387 133.725C217.387 133.452 217.296 133.179 217.206 132.998C216.298 132.089 215.754 134.088 215.754 134.633Z" fill="#E99B8D"/>
<path d="M219.383 126.455C219.292 126.092 219.292 125.638 219.564 125.456C219.927 125.274 220.29 125.728 220.472 126.092C220.653 126.455 220.744 126.91 221.107 127.091C221.379 126.728 221.47 126.274 221.379 125.819C221.379 125.728 221.288 125.547 221.379 125.456C221.47 125.365 221.56 125.274 221.651 125.274C224.464 124.547 227.73 125.819 229.272 128.364C229.363 128.545 229.454 129 229.181 129C228.637 128.545 228.002 128.091 227.458 127.728C226.913 127.273 226.278 126.91 225.643 126.637C224.736 126.365 223.738 126.546 222.831 127.001C222.377 127.273 221.016 128.818 220.744 128.818C219.927 128.818 219.474 126.91 219.383 126.455Z" fill="#202020"/>
<path d="M210.945 128C210.854 127.909 210.764 127.728 210.673 127.728C210.491 127.728 210.31 127.909 210.219 128.091C209.856 128.727 209.493 129.363 209.221 129.999C209.04 129.545 208.949 129.091 209.04 128.636C209.04 128.545 209.13 128.454 209.04 128.273C208.949 128.182 208.858 128.091 208.768 128.091C207.044 127.637 205.229 127.637 203.505 128.182C202.87 128.364 202.144 128.818 202.054 129.454C202.78 129 203.596 128.727 204.413 128.636C206.772 128.545 207.497 130.09 209.04 131.271C209.856 131.907 209.947 131.453 210.401 130.635C210.764 129.908 211.489 128.909 210.945 128Z" fill="#202020"/>
<path d="M220.29 160.167C218.113 161.53 215.119 161.439 213.032 159.985" stroke="#F5C7B0" stroke-miterlimit="10" stroke-linecap="round"/>
<path d="M207.044 136.45C207.134 137.632 207.679 138.54 208.223 138.54C208.768 138.54 209.13 137.541 209.04 136.359C208.949 135.178 208.405 134.27 207.86 134.27C207.316 134.27 206.953 135.269 207.044 136.45Z" fill="#202020"/>
<path d="M223.828 135.178C223.919 136.36 224.463 137.268 225.008 137.268C225.552 137.268 225.915 136.269 225.824 135.087C225.734 133.906 225.189 132.998 224.645 132.998C224.101 132.998 223.738 133.997 223.828 135.178Z" fill="#202020"/>
<path d="M239.978 350.712C220.018 327.269 221.742 176.159 221.742 176.159L242.337 185.972C242.337 185.972 247.509 265.207 247.509 275.838C247.509 280.109 259.757 343.352 262.479 353.074C256.037 353.983 244.152 355.619 239.978 350.712Z" fill="#9DCAF3"/>
<path d="M189.897 132.816C189.171 132.543 188.627 131.998 187.901 131.544C187.266 131.18 186.358 130.908 185.723 131.271C185.27 131.544 184.997 132.089 184.725 132.634C183.909 134.633 183.364 137.087 184.544 138.995C185.27 140.176 186.449 140.903 187.81 141.357C189.08 141.812 190.441 141.903 191.802 141.993" fill="#F5C7B0"/>
<path d="M190.26 134.542C189.624 134.27 189.171 133.906 188.536 133.724C187.901 133.543 187.175 133.452 186.721 133.815C186.086 134.27 185.995 135.087 185.905 135.814C185.814 136.45 185.814 137.086 185.814 137.632C185.814 137.813 185.814 137.995 185.905 138.177C185.995 138.449 186.268 138.631 186.449 138.813C187.447 139.449 188.808 139.631 189.897 139.086C190.078 138.995 190.26 138.904 190.35 138.722C190.441 138.54 190.441 138.268 190.441 138.086C190.35 136.905 190.532 134.724 190.26 134.542Z" fill="#E99B8D"/>
<path d="M189.897 132.816C189.171 132.543 188.627 131.998 187.901 131.544C187.266 131.18 186.358 130.908 185.723 131.271C185.27 131.544 184.997 132.089 184.725 132.634C183.909 134.633 183.364 137.087 184.544 138.995C185.27 140.176 186.449 140.903 187.81 141.357C189.08 141.812 190.441 141.903 191.802 141.993" fill="url(#paint33_linear)"/>
<path d="M246.783 275.203L259.575 276.02C259.575 276.02 268.557 267.661 272.368 266.661C278.174 265.207 281.622 267.842 282.802 267.933C289.969 268.842 296.229 270.659 299.223 271.841C302.127 272.931 309.476 273.749 307.298 279.837C306.663 281.563 303.941 288.832 297.499 290.832C293.507 292.104 281.894 290.014 281.894 290.014L265.926 286.47L252.408 287.742L246.783 275.203Z" fill="#F5C7B0"/>
<path d="M246.783 275.203L259.575 276.02C259.575 276.02 268.557 267.661 272.368 266.661C278.174 265.207 281.622 267.842 282.802 267.933C289.969 268.842 296.229 270.659 299.223 271.841C302.127 272.931 309.476 273.749 307.298 279.837C306.663 281.563 303.941 288.832 297.499 290.832C293.507 292.104 281.894 290.014 281.894 290.014L265.926 286.47L252.408 287.742L246.783 275.203Z" fill="url(#paint34_linear)"/>
<path d="M254.858 275.203V287.651L173.656 297.283C173.656 297.283 105.52 208.598 146.892 186.881C154.241 182.974 163.949 201.965 165.219 216.049C166.489 230.133 188.626 270.841 188.626 270.841C188.626 270.841 227.639 272.931 254.858 275.203Z" fill="#9DCAF3"/>
<path d="M254.858 275.203V287.651L173.656 297.283C173.656 297.283 105.52 208.598 146.892 186.881C154.241 182.974 163.949 201.965 165.219 216.049C166.489 230.133 188.626 270.841 188.626 270.841C188.626 270.841 227.639 272.931 254.858 275.203Z" fill="url(#paint35_linear)"/>
<path d="M229.182 136.36L227.186 135.087" stroke="#202020" stroke-miterlimit="10" stroke-linecap="round"/>
<path d="M187.356 131.271C187.356 131.271 188.717 131.453 191.802 132.816C194.977 134.27 203.505 137.722 203.505 137.722" stroke="#202020" stroke-miterlimit="10"/>
<path d="M218.566 137.723L214.847 137.995" stroke="#202020" stroke-miterlimit="10"/>
<path d="M205.23 141.721L213.577 141.267C214.393 141.267 214.938 140.54 214.938 139.722L214.847 138.268C214.847 137.45 214.121 136.905 213.305 136.905L204.958 137.36C204.141 137.36 203.597 138.087 203.597 138.904L203.687 140.358C203.778 141.176 204.413 141.812 205.23 141.721Z" stroke="#202020" stroke-miterlimit="10"/>
<path d="M220.018 140.994L228.365 140.539C229.182 140.539 229.726 139.812 229.726 138.995L229.635 137.541C229.635 136.723 228.91 136.178 228.093 136.178L219.746 136.632C218.93 136.632 218.385 137.359 218.385 138.177L218.476 139.631C218.567 140.358 219.202 140.994 220.018 140.994Z" stroke="#202020" stroke-miterlimit="10"/>
<path d="M220.018 140.994L228.365 140.539C229.182 140.539 229.726 139.812 229.726 138.995L229.635 137.541C229.635 136.723 228.91 136.178 228.093 136.178L219.746 136.632C218.93 136.632 218.385 137.359 218.385 138.177L218.476 139.631C218.567 140.358 219.202 140.994 220.018 140.994Z" fill="url(#paint36_linear)"/>
<path d="M205.23 141.721L213.577 141.267C214.393 141.267 214.938 140.54 214.938 139.722L214.847 138.268C214.847 137.45 214.121 136.905 213.305 136.905L204.958 137.36C204.141 137.36 203.597 138.087 203.597 138.904L203.687 140.358C203.778 141.176 204.413 141.812 205.23 141.721Z" fill="url(#paint37_linear)"/>
<path d="M298.407 289.832C294.233 293.376 281.441 297.919 275.543 294.194C271.279 291.558 263.477 287.924 267.106 286.288C270.735 284.653 271.189 280.745 276.995 281.018C282.348 281.291 287.157 285.743 287.792 286.016C295.231 289.014 301.129 287.469 298.407 289.832Z" fill="#F5C7B0"/>
<path d="M298.407 289.832C294.233 293.376 281.441 297.919 275.543 294.194C271.279 291.558 263.477 287.924 267.106 286.288C270.735 284.653 271.189 280.745 276.995 281.018C282.348 281.291 287.157 285.743 287.792 286.016C295.231 289.014 301.129 287.469 298.407 289.832Z" fill="url(#paint38_linear)"/>
<path d="M309.748 271.841C309.748 271.841 303.397 267.298 299.677 266.207C295.957 265.117 288.155 267.752 287.066 267.843C285.977 267.934 279.445 271.568 281.169 273.022C282.893 274.476 287.792 273.386 287.792 273.386C287.792 273.386 295.05 272.386 295.413 272.386C295.776 272.386 304.304 272.75 306.482 275.112C308.659 277.475 309.385 278.928 309.93 278.02C310.383 277.111 312.107 274.113 312.107 274.113L309.748 271.841Z" fill="#F5C7B0"/>
<path d="M309.748 271.841C309.748 271.841 303.397 267.298 299.677 266.207C295.957 265.117 288.155 267.752 287.066 267.843C285.977 267.934 279.445 271.568 281.169 273.022C282.893 274.476 287.792 273.386 287.792 273.386C287.792 273.386 295.05 272.386 295.413 272.386C295.776 272.386 304.304 272.75 306.482 275.112C308.659 277.475 309.385 278.928 309.93 278.02C310.383 277.111 312.107 274.113 312.107 274.113L309.748 271.841Z" fill="url(#paint39_linear)"/>
</g>
<defs>
<linearGradient id="paint0_linear" x1="25.2093" y1="519.308" x2="731.348" y2="519.308" gradientUnits="userSpaceOnUse">
<stop stop-color="#F5B48D" stop-opacity="0.5"/>
<stop offset="1" stop-color="#F5A77B" stop-opacity="0.5"/>
</linearGradient>
<linearGradient id="paint1_linear" x1="336.443" y1="140.667" x2="467.907" y2="140.667" gradientUnits="userSpaceOnUse">
<stop stop-color="white" stop-opacity="0.5"/>
<stop offset="0.9798" stop-color="white" stop-opacity="0.8919"/>
<stop offset="1" stop-color="white" stop-opacity="0.9"/>
</linearGradient>
<linearGradient id="paint2_linear" x1="328.076" y1="63.6322" x2="635.243" y2="63.6322" gradientUnits="userSpaceOnUse">
<stop stop-color="white" stop-opacity="0.5"/>
<stop offset="0.9798" stop-color="white" stop-opacity="0.8919"/>
<stop offset="1" stop-color="white" stop-opacity="0.9"/>
</linearGradient>
<linearGradient id="paint3_linear" x1="480.758" y1="106.783" x2="628.966" y2="106.783" gradientUnits="userSpaceOnUse">
<stop stop-color="white" stop-opacity="0.5"/>
<stop offset="0.9798" stop-color="white" stop-opacity="0.8919"/>
<stop offset="1" stop-color="white" stop-opacity="0.9"/>
</linearGradient>
<linearGradient id="paint4_linear" x1="480.759" y1="147.875" x2="628.966" y2="147.875" gradientUnits="userSpaceOnUse">
<stop stop-color="white" stop-opacity="0.5"/>
<stop offset="0.9798" stop-color="white" stop-opacity="0.8919"/>
<stop offset="1" stop-color="white" stop-opacity="0.9"/>
</linearGradient>
<linearGradient id="paint5_linear" x1="480.759" y1="188.97" x2="628.966" y2="188.97" gradientUnits="userSpaceOnUse">
<stop stop-color="white" stop-opacity="0.5"/>
<stop offset="0.9798" stop-color="white" stop-opacity="0.8919"/>
<stop offset="1" stop-color="white" stop-opacity="0.9"/>
</linearGradient>
<linearGradient id="paint6_linear" x1="480.759" y1="230.062" x2="628.966" y2="230.062" gradientUnits="userSpaceOnUse">
<stop stop-color="white" stop-opacity="0.5"/>
<stop offset="0.9798" stop-color="white" stop-opacity="0.8919"/>
<stop offset="1" stop-color="white" stop-opacity="0.9"/>
</linearGradient>
<linearGradient id="paint7_linear" x1="551.795" y1="184.184" x2="612.044" y2="184.184" gradientUnits="userSpaceOnUse">
<stop stop-color="white" stop-opacity="0.5"/>
<stop offset="0.9798" stop-color="white" stop-opacity="0.8919"/>
<stop offset="1" stop-color="white" stop-opacity="0.9"/>
</linearGradient>
<linearGradient id="paint8_linear" x1="571.257" y1="192.44" x2="612.044" y2="192.44" gradientUnits="userSpaceOnUse">
<stop stop-color="white" stop-opacity="0.5"/>
<stop offset="0.9798" stop-color="white" stop-opacity="0.8919"/>
<stop offset="1" stop-color="white" stop-opacity="0.9"/>
</linearGradient>
<linearGradient id="paint9_linear" x1="556.573" y1="193.31" x2="566.582" y2="193.31" gradientUnits="userSpaceOnUse">
<stop stop-color="white" stop-opacity="0.5"/>
<stop offset="0.9798" stop-color="white" stop-opacity="0.8919"/>
<stop offset="1" stop-color="white" stop-opacity="0.9"/>
</linearGradient>
<linearGradient id="paint10_linear" x1="551.795" y1="102.358" x2="612.044" y2="102.358" gradientUnits="userSpaceOnUse">
<stop stop-color="white" stop-opacity="0.5"/>
<stop offset="0.9798" stop-color="white" stop-opacity="0.8919"/>
<stop offset="1" stop-color="white" stop-opacity="0.9"/>
</linearGradient>
<linearGradient id="paint11_linear" x1="575.944" y1="110.268" x2="612.045" y2="110.268" gradientUnits="userSpaceOnUse">
<stop stop-color="white" stop-opacity="0.5"/>
<stop offset="0.9798" stop-color="white" stop-opacity="0.8919"/>
<stop offset="1" stop-color="white" stop-opacity="0.9"/>
</linearGradient>
<linearGradient id="paint12_linear" x1="533.922" y1="112.411" x2="571.257" y2="112.411" gradientUnits="userSpaceOnUse">
<stop stop-color="white" stop-opacity="0.5"/>
<stop offset="0.9798" stop-color="white" stop-opacity="0.8919"/>
<stop offset="1" stop-color="white" stop-opacity="0.9"/>
</linearGradient>
<linearGradient id="paint13_linear" x1="587.738" y1="225.262" x2="612.044" y2="225.262" gradientUnits="userSpaceOnUse">
<stop stop-color="white" stop-opacity="0.5"/>
<stop offset="0.9798" stop-color="white" stop-opacity="0.8919"/>
<stop offset="1" stop-color="white" stop-opacity="0.9"/>
</linearGradient>
<linearGradient id="paint14_linear" x1="559.337" y1="225.813" x2="583.256" y2="225.813" gradientUnits="userSpaceOnUse">
<stop stop-color="white" stop-opacity="0.5"/>
<stop offset="0.9798" stop-color="white" stop-opacity="0.8919"/>
<stop offset="1" stop-color="white" stop-opacity="0.9"/>
</linearGradient>
<linearGradient id="paint15_linear" x1="571.257" y1="233.966" x2="612.044" y2="233.966" gradientUnits="userSpaceOnUse">
<stop stop-color="white" stop-opacity="0.5"/>
<stop offset="0.9798" stop-color="white" stop-opacity="0.8919"/>
<stop offset="1" stop-color="white" stop-opacity="0.9"/>
</linearGradient>
<linearGradient id="paint16_linear" x1="527.402" y1="234.719" x2="566.582" y2="234.719" gradientUnits="userSpaceOnUse">
<stop stop-color="white" stop-opacity="0.5"/>
<stop offset="0.9798" stop-color="white" stop-opacity="0.8919"/>
<stop offset="1" stop-color="white" stop-opacity="0.9"/>
</linearGradient>
<linearGradient id="paint17_linear" x1="60.7483" y1="437.08" x2="193.863" y2="437.08" gradientUnits="userSpaceOnUse">
<stop stop-color="white" stop-opacity="0"/>
<stop offset="0.9798" stop-color="white" stop-opacity="0.4899"/>
<stop offset="1" stop-color="white" stop-opacity="0.5"/>
</linearGradient>
<linearGradient id="paint18_linear" x1="66.8121" y1="391.38" x2="141.334" y2="391.38" gradientUnits="userSpaceOnUse">
<stop stop-color="white" stop-opacity="0"/>
<stop offset="0.9798" stop-color="white" stop-opacity="0.4899"/>
<stop offset="1" stop-color="white" stop-opacity="0.5"/>
</linearGradient>
<linearGradient id="paint19_linear" x1="46.869" y1="498.571" x2="140.667" y2="498.571" gradientUnits="userSpaceOnUse">
<stop stop-color="white" stop-opacity="0"/>
<stop offset="0.9798" stop-color="white" stop-opacity="0.4899"/>
<stop offset="1" stop-color="white" stop-opacity="0.5"/>
</linearGradient>
<linearGradient id="paint20_linear" x1="376.763" y1="242.599" x2="396.01" y2="242.599" gradientUnits="userSpaceOnUse">
<stop stop-color="#F5B48D" stop-opacity="0.5"/>
<stop offset="1" stop-color="#F5A77B" stop-opacity="0.5"/>
</linearGradient>
<linearGradient id="paint21_linear" x1="579.979" y1="202.615" x2="378.919" y2="289.578" gradientUnits="userSpaceOnUse">
<stop stop-color="white" stop-opacity="0"/>
<stop offset="0.9798" stop-color="white" stop-opacity="0.4899"/>
<stop offset="1" stop-color="white" stop-opacity="0.5"/>
</linearGradient>
<linearGradient id="paint22_linear" x1="376.725" y1="226.6" x2="396.011" y2="226.6" gradientUnits="userSpaceOnUse">
<stop stop-color="white" stop-opacity="0"/>
<stop offset="0.9798" stop-color="white" stop-opacity="0.4899"/>
<stop offset="1" stop-color="white" stop-opacity="0.5"/>
</linearGradient>
<linearGradient id="paint23_linear" x1="377.124" y1="230.8" x2="396.041" y2="230.8" gradientUnits="userSpaceOnUse">
<stop stop-color="#F5B48D" stop-opacity="0.5"/>
<stop offset="1" stop-color="#F5A77B" stop-opacity="0.5"/>
</linearGradient>
<linearGradient id="paint24_linear" x1="437.758" y1="175.295" x2="467.593" y2="175.295" gradientUnits="userSpaceOnUse">
<stop stop-color="#F5B48D" stop-opacity="0.5"/>
<stop offset="1" stop-color="#F5A77B" stop-opacity="0.5"/>
</linearGradient>
<linearGradient id="paint25_linear" x1="425.932" y1="146.83" x2="471.236" y2="146.83" gradientUnits="userSpaceOnUse">
<stop stop-color="white" stop-opacity="0"/>
<stop offset="0.9798" stop-color="white" stop-opacity="0.4899"/>
<stop offset="1" stop-color="white" stop-opacity="0.5"/>
</linearGradient>
<linearGradient id="paint26_linear" x1="453.096" y1="137.492" x2="476.89" y2="137.492" gradientUnits="userSpaceOnUse">
<stop stop-color="#6E311E" stop-opacity="0.5"/>
<stop offset="1" stop-color="#592719"/>
</linearGradient>
<linearGradient id="paint27_linear" x1="457.778" y1="148.246" x2="468.142" y2="148.246" gradientUnits="userSpaceOnUse">
<stop stop-color="white" stop-opacity="0"/>
<stop offset="0.9798" stop-color="white" stop-opacity="0.4899"/>
<stop offset="1" stop-color="white" stop-opacity="0.5"/>
</linearGradient>
<linearGradient id="paint28_linear" x1="424.547" y1="114.815" x2="474.338" y2="114.815" gradientUnits="userSpaceOnUse">
<stop stop-color="#6E311E" stop-opacity="0.5"/>
<stop offset="1" stop-color="#592719"/>
</linearGradient>
<linearGradient id="paint29_linear" x1="319.842" y1="195.659" x2="358.931" y2="195.659" gradientUnits="userSpaceOnUse">
<stop stop-color="white" stop-opacity="0"/>
<stop offset="0.9798" stop-color="white" stop-opacity="0.4899"/>
<stop offset="1" stop-color="white" stop-opacity="0.5"/>
</linearGradient>
<linearGradient id="paint30_linear" x1="340.568" y1="192.247" x2="301.033" y2="205.959" gradientUnits="userSpaceOnUse">
<stop stop-color="white" stop-opacity="0"/>
<stop offset="0.9798" stop-color="white" stop-opacity="0.4899"/>
<stop offset="1" stop-color="white" stop-opacity="0.5"/>
</linearGradient>
<linearGradient id="paint31_linear" x1="223.838" y1="138.357" x2="191.08" y2="142.783" gradientUnits="userSpaceOnUse">
<stop stop-color="white" stop-opacity="0"/>
<stop offset="0.9798" stop-color="white" stop-opacity="0.4899"/>
<stop offset="1" stop-color="white" stop-opacity="0.5"/>
</linearGradient>
<linearGradient id="paint32_linear" x1="205.045" y1="126.262" x2="175.612" y2="130.239" gradientUnits="userSpaceOnUse">
<stop stop-color="white" stop-opacity="0"/>
<stop offset="0.9798" stop-color="white" stop-opacity="0.4899"/>
<stop offset="1" stop-color="white" stop-opacity="0.5"/>
</linearGradient>
<linearGradient id="paint33_linear" x1="197.794" y1="137.167" x2="183.809" y2="136.216" gradientUnits="userSpaceOnUse">
<stop stop-color="white" stop-opacity="0"/>
<stop offset="0.9798" stop-color="white" stop-opacity="0.4899"/>
<stop offset="1" stop-color="white" stop-opacity="0.5"/>
</linearGradient>
<linearGradient id="paint34_linear" x1="246.756" y1="278.646" x2="307.67" y2="278.646" gradientUnits="userSpaceOnUse">
<stop stop-color="white" stop-opacity="0"/>
<stop offset="0.9798" stop-color="white" stop-opacity="0.4899"/>
<stop offset="1" stop-color="white" stop-opacity="0.5"/>
</linearGradient>
<linearGradient id="paint35_linear" x1="130.432" y1="234.964" x2="228.274" y2="256.533" gradientUnits="userSpaceOnUse">
<stop stop-color="white" stop-opacity="0"/>
<stop offset="0.9798" stop-color="white" stop-opacity="0.4899"/>
<stop offset="1" stop-color="white" stop-opacity="0.5"/>
</linearGradient>
<linearGradient id="paint36_linear" x1="229.762" y1="137.577" x2="218.58" y2="139.504" gradientUnits="userSpaceOnUse">
<stop stop-color="white" stop-opacity="0"/>
<stop offset="0.9798" stop-color="white" stop-opacity="0.4899"/>
<stop offset="1" stop-color="white" stop-opacity="0.5"/>
</linearGradient>
<linearGradient id="paint37_linear" x1="214.987" y1="138.373" x2="203.805" y2="140.3" gradientUnits="userSpaceOnUse">
<stop stop-color="white" stop-opacity="0"/>
<stop offset="0.9798" stop-color="white" stop-opacity="0.4899"/>
<stop offset="1" stop-color="white" stop-opacity="0.5"/>
</linearGradient>
<linearGradient id="paint38_linear" x1="266.093" y1="288.31" x2="299.042" y2="288.31" gradientUnits="userSpaceOnUse">
<stop stop-color="#F5B48D" stop-opacity="0.5"/>
<stop offset="1" stop-color="#F5A77B" stop-opacity="0.5"/>
</linearGradient>
<linearGradient id="paint39_linear" x1="280.846" y1="272.172" x2="312.092" y2="272.172" gradientUnits="userSpaceOnUse">
<stop stop-color="#F5B48D" stop-opacity="0.5"/>
<stop offset="1" stop-color="#F5A77B" stop-opacity="0.5"/>
</linearGradient>
</defs>
</svg>
