<?xml version="1.0" encoding="utf-8"?>
<svg width="705" height="700" viewBox="0 0 705 700" fill="none" xmlns="http://www.w3.org/2000/svg">
<mask id="mask0" mask-type="alpha" maskUnits="userSpaceOnUse" x="0" y="0" width="705" height="700">
<rect width="705" height="700" fill="#C4C4C4"/>
</mask>
<g mask="url(#mask0)">
<path d="M29.0452 431.655C32.1759 425.073 35.9326 418.57 40.2373 412.146C50.4901 397.181 64.265 380.571 59.0211 363.255C53.0729 343.824 30.2192 329.957 20.3577 311.858C-11.7314 253.017 13.079 142.152 73.109 108.461C122.26 80.8818 179.786 109.088 231.519 93.8879C258.13 86.0529 276.522 65.9953 298.359 50.0119C355.023 8.64311 433.368 -10.0825 499.659 16.008C560.785 40.0615 609.544 88.9519 645.703 143.875C684.836 203.343 711.682 274.328 703.542 345.078C695.402 415.828 654.782 486.422 589.9 515.724C536.679 539.778 552.645 542.99 521.182 598.462C462.326 702.276 309.081 702.119 224.632 690.445C192.152 685.901 138.618 662.396 117.251 650.408C41.4895 608.021 -9.61819 512.904 29.0452 431.655Z" fill="#FFEEE7"/>
<path d="M306.556 328.388C306.556 328.388 308.004 328.479 308.004 326.488L306.556 326.125V328.388Z" fill="#F39E8C"/>
<path fill-rule="evenodd" clip-rule="evenodd" d="M519.574 357.365C517.312 364.245 508.352 393.935 520.298 399.457C530.254 404.073 545.186 403.802 552.246 403.349C551.522 400.272 550.888 397.465 550.255 394.931C549.621 394.297 548.897 393.664 548.263 393.03L548.173 392.939C547.901 392.668 547.63 392.396 547.449 392.215C546.996 391.853 546.634 391.401 546.272 390.948L545.91 390.495L545.458 390.043L545.367 389.952L545.005 389.59L544.553 389.138L544.191 388.685C543.919 388.414 543.738 388.142 543.467 387.961L543.286 387.78L542.924 387.418L542.471 386.965L542.109 386.603L541.928 386.332L541.385 385.788L541.114 385.426L540.842 385.155L540.752 385.064L540.299 384.521L540.028 384.25L539.666 383.797L539.394 383.525L538.851 382.982L538.58 382.711L538.489 382.62L538.037 382.168L537.946 382.077L537.856 381.896L537.494 381.444L537.222 381.081L536.77 380.538L536.679 380.448L536.317 379.995L535.865 379.452L535.684 379.181L535.322 378.728L535.141 378.547L535.05 378.456L534.507 377.732L534.417 377.551L533.874 376.827L533.783 376.737L533.693 376.646L533.15 375.922L533.059 375.831L532.969 375.741L532.426 375.107L532.335 374.926L531.792 374.293L531.521 373.93L531.068 373.387L530.978 373.297L530.887 373.206L530.344 372.573L530.254 372.482L529.711 371.758L529.62 371.667L528.987 370.762C528.806 370.491 528.624 370.219 528.443 369.948L528.262 369.676L527.81 369.042L527.719 368.952L527.629 368.861L527.086 368.228L526.995 368.137L526.905 367.956L526.452 367.232L526.362 367.142L525.728 366.327L525.095 365.512L525.004 365.331C524.642 364.788 524.19 364.245 523.828 363.702C523.647 363.43 523.375 363.068 523.194 362.797C523.013 362.525 522.832 362.254 522.561 361.891C522.38 361.62 522.199 361.258 522.018 361.077C521.837 360.805 521.656 360.534 521.475 360.262L521.384 360.172C521.203 359.9 521.022 359.628 520.932 359.447L520.841 359.357C520.66 359.085 520.57 358.814 520.389 358.633L520.298 358.452L520.208 358.361C520.117 358.18 519.936 357.909 519.846 357.728L519.574 357.365Z" fill="#F5C7B0"/>
<path fill-rule="evenodd" clip-rule="evenodd" d="M519.575 357.365C518.67 360.172 516.679 366.689 515.412 373.84C523.828 385.607 550.165 402.444 551.703 403.44H552.065C552.156 403.349 552.156 403.349 552.246 403.349C551.522 400.362 550.889 397.465 550.255 394.931C549.622 394.297 548.897 393.664 548.264 393.03L548.173 392.939C547.902 392.668 547.63 392.396 547.449 392.215C546.997 391.853 546.635 391.401 546.273 390.948L545.911 390.495L545.458 390.043L545.368 389.952L545.006 389.59L544.553 389.138L544.191 388.685C543.92 388.414 543.739 388.142 543.467 387.961L543.286 387.78L542.924 387.418L542.472 386.965L542.11 386.603L541.929 386.332L541.386 385.788L541.114 385.426L540.843 385.155L540.752 385.064L540.3 384.521L540.028 384.25L539.666 383.797L539.395 383.525L538.852 382.982L538.58 382.711L538.49 382.62L538.037 382.168L537.947 382.077L537.856 381.896L537.494 381.444L537.223 381.081L536.77 380.538L536.68 380.448L536.318 379.995L535.865 379.452L535.684 379.181L535.322 378.728L535.141 378.547L535.051 378.456L534.508 377.732L534.417 377.551L533.874 376.827L533.784 376.737L533.693 376.646L533.15 375.922L533.06 375.831L532.969 375.741L532.426 375.107L532.336 374.926L531.793 374.293L531.521 373.93L531.069 373.387L530.978 373.297L530.888 373.206L530.345 372.573L530.254 372.482L529.711 371.758L529.62 371.667L528.987 370.762C528.806 370.491 528.625 370.219 528.444 369.948L528.263 369.676L527.81 369.042L527.72 368.952L527.629 368.861L527.086 368.228L526.996 368.137L526.905 367.956L526.453 367.232L526.362 367.142L525.729 366.327L525.095 365.512L525.005 365.331C524.643 364.788 524.19 364.245 523.828 363.702C523.647 363.43 523.376 363.068 523.195 362.797C523.014 362.525 522.833 362.254 522.561 361.891C522.38 361.62 522.199 361.258 522.018 361.077C521.837 360.805 521.656 360.534 521.475 360.262L521.385 360.172C521.204 359.9 521.023 359.628 520.932 359.447L520.842 359.357C520.661 359.085 520.57 358.814 520.389 358.633L520.299 358.452L520.208 358.361C520.118 358.18 519.937 357.909 519.846 357.728L519.575 357.365Z" fill="url(#paint0_linear)"/>
<path fill-rule="evenodd" clip-rule="evenodd" d="M531.249 402.535C533.059 411.949 538.218 434.397 547.177 436.208C552.517 437.294 557.766 436.479 561.929 435.212C557.947 424.621 554.689 412.944 552.336 403.259C547.449 403.711 539.213 403.892 531.249 402.535Z" fill="#F5C7B0"/>
<path fill-rule="evenodd" clip-rule="evenodd" d="M531.249 402.535C531.611 404.345 532.064 406.518 532.607 408.962L544.734 409.324C544.734 409.324 542.833 407.875 548.716 416.203C553.151 422.539 558.4 429.328 560.753 432.315C557.223 422.539 554.327 412.13 552.246 403.349C547.449 403.711 539.213 403.892 531.249 402.535Z" fill="url(#paint1_linear)"/>
<path fill-rule="evenodd" clip-rule="evenodd" d="M549.621 436.661C551.069 441.277 555.775 454.04 563.83 456.394C567.179 457.39 570.346 457.48 572.971 457.118C571.07 454.584 569.532 452.049 568.174 449.515C565.912 445.26 563.83 440.463 561.929 435.394C558.4 436.299 554.056 437.113 549.621 436.661Z" fill="#F5C7B0"/>
<path fill-rule="evenodd" clip-rule="evenodd" d="M549.621 436.661C551.069 441.277 555.775 454.04 563.83 456.394C567.179 457.39 570.346 457.48 572.971 457.118C571.07 454.584 569.532 452.049 568.174 449.515C565.912 445.26 563.83 440.463 561.929 435.394C558.4 436.299 554.056 437.113 549.621 436.661Z" fill="url(#paint2_linear)"/>
<path fill-rule="evenodd" clip-rule="evenodd" d="M541.295 307.761C541.295 307.761 600.393 332.111 613.335 346.503C624.195 358.452 660.034 437.927 666.641 465.083C669.446 476.489 693.429 509.8 693.429 509.8V667.574C686.551 671.648 624.467 498.937 616.231 495.136C605.008 489.976 578.31 469.157 567.993 449.423C555.142 424.983 547.539 382.077 547.539 382.077C547.539 382.077 550.255 343.607 543.557 341.163C536.86 338.809 521.022 342.52 517.945 346.684C514.868 350.939 513.149 366.598 500.207 363.34C487.265 360.081 493.147 336.365 499.03 328.852C505.094 321.339 525.366 303.597 541.295 307.761Z" fill="#F5C7B0"/>
<path fill-rule="evenodd" clip-rule="evenodd" d="M566.273 358.271C567.993 359.448 571.432 361.892 577.767 364.245C585.46 367.142 595.415 365.331 595.415 365.331C595.415 365.331 585.46 347.68 576.862 342.249C572.88 339.714 569.079 338.085 566.183 337.089L537.312 328.037C541.838 333.197 550.345 345.417 564.373 356.913L566.273 358.271Z" fill="url(#paint3_linear)"/>
<path fill-rule="evenodd" clip-rule="evenodd" d="M397.849 207.104C402.917 218.962 404.275 232.359 401.198 245.122C398.12 257.795 390.247 268.114 380.472 276.442C370.879 284.769 356.037 290.925 351.512 303.597C348.797 311.11 350.607 319.619 354.679 326.408C366.354 346.141 409.071 354.288 410.157 379.543C410.519 387.237 404.546 393.121 399.025 397.647C380.02 413.216 349.159 432.678 360.924 461.915C369.884 484.183 430.792 502.015 409.795 532.611C404.727 540.033 396.582 544.197 391.242 551.348C388.889 554.516 386.989 558.228 386.174 562.029C480.206 557.141 554.961 479.295 554.961 383.978C554.961 292.826 486.36 217.514 397.849 207.104Z" fill="#82BCE8"/>
<path opacity="0.62" d="M425.904 271.101H406.898" stroke="white" stroke-width="2" stroke-miterlimit="10" stroke-linecap="round" stroke-linejoin="round"/>
<path opacity="0.62" d="M423.641 352.568H406.898" stroke="white" stroke-width="2" stroke-miterlimit="10" stroke-linecap="round" stroke-linejoin="round"/>
<path opacity="0.62" d="M423.641 436.751H406.898" stroke="white" stroke-width="2" stroke-miterlimit="10" stroke-linecap="round" stroke-linejoin="round"/>
<path opacity="0.62" d="M423.641 514.688H406.898" stroke="white" stroke-width="2" stroke-miterlimit="10" stroke-linecap="round" stroke-linejoin="round"/>
<path opacity="0.43" d="M536.227 309.843H432.783C425.361 309.843 419.388 303.869 419.388 296.446V246.299C419.388 238.876 425.361 232.902 432.783 232.902H536.136C543.557 232.902 549.531 238.876 549.531 246.299V296.446C549.621 303.869 543.558 309.843 536.227 309.843Z" fill="#52C798"/>
<path d="M536.227 309.843H432.783C425.361 309.843 419.388 303.869 419.388 296.446V246.299C419.388 238.876 425.361 232.902 432.783 232.902H536.136C543.557 232.902 549.531 238.876 549.531 246.299V296.446C549.621 303.869 543.558 309.843 536.227 309.843Z" fill="url(#paint4_linear)"/>
<path opacity="0.54" d="M536.226 390.314H432.782C425.361 390.314 419.388 384.34 419.388 376.917V326.77C419.388 319.347 425.361 313.373 432.782 313.373H536.136C543.557 313.373 549.53 319.347 549.53 326.77V376.917C549.621 384.34 543.557 390.314 536.226 390.314Z" fill="#FF4D00"/>
<path d="M536.226 390.314H432.782C425.361 390.314 419.388 384.34 419.388 376.917V326.77C419.388 319.347 425.361 313.373 432.782 313.373H536.136C543.557 313.373 549.53 319.347 549.53 326.77V376.917C549.621 384.34 543.557 390.314 536.226 390.314Z" fill="url(#paint5_linear)"/>
<path opacity="0.54" d="M536.226 470.877H432.782C425.361 470.877 419.388 464.902 419.388 457.48V407.332C419.388 399.91 425.361 393.936 432.782 393.936H536.136C543.557 393.936 549.53 399.91 549.53 407.332V457.48C549.621 464.902 543.557 470.877 536.226 470.877Z" fill="#FCCE6C"/>
<path d="M536.226 470.877H432.782C425.361 470.877 419.388 464.902 419.388 457.48V407.332C419.388 399.91 425.361 393.936 432.782 393.936H536.136C543.557 393.936 549.53 399.91 549.53 407.332V457.48C549.621 464.902 543.557 470.877 536.226 470.877Z" fill="url(#paint6_linear)"/>
<path opacity="0.43" d="M536.226 551.891H432.782C425.361 551.891 419.388 545.917 419.388 538.494V488.347C419.388 480.924 425.361 474.95 432.782 474.95H536.136C543.557 474.95 549.53 480.924 549.53 488.347V538.494C549.621 545.917 543.557 551.891 536.226 551.891Z" fill="#52C798"/>
<path d="M536.226 551.891H432.782C425.361 551.891 419.388 545.917 419.388 538.494V488.347C419.388 480.924 425.361 474.95 432.782 474.95H536.136C543.557 474.95 549.53 480.924 549.53 488.347V538.494C549.621 545.917 543.557 551.891 536.226 551.891Z" fill="url(#paint7_linear)"/>
<path opacity="0.62" d="M520.208 266.122H438.031C433.687 266.122 430.158 262.592 430.158 258.247C430.158 253.902 433.687 250.372 438.031 250.372H520.208C524.552 250.372 528.081 253.902 528.081 258.247C528.081 262.592 524.552 266.122 520.208 266.122Z" fill="white"/>
<path d="M440.837 264.312C448.534 264.312 454.774 258.071 454.774 250.372C454.774 242.673 448.534 236.432 440.837 236.432C433.139 236.432 426.899 242.673 426.899 250.372C426.899 258.071 433.139 264.312 440.837 264.312Z" fill="#52C798"/>
<path d="M439.841 242.678H438.755V241.229L439.841 240.143H442.375V259.876H439.841V242.678Z" fill="white"/>
<path opacity="0.62" d="M520.208 306.493H438.031C433.687 306.493 430.158 302.963 430.158 298.618C430.158 294.273 433.687 290.743 438.031 290.743H520.208C524.552 290.743 528.081 294.273 528.081 298.618C528.081 302.963 524.552 306.493 520.208 306.493Z" fill="white"/>
<path d="M440.837 303.869C448.534 303.869 454.774 297.628 454.774 289.929C454.774 282.23 448.534 275.989 440.837 275.989C433.139 275.989 426.899 282.23 426.899 289.929C426.899 297.628 433.139 303.869 440.837 303.869Z" fill="#52C798"/>
<path d="M441.922 296.808V294.545H444.457V299.343H437.216V290.291C437.216 289.386 437.94 288.571 438.936 288.571H441.922V282.144H439.75V285.403H437.216V281.239C437.216 280.243 437.94 279.61 438.936 279.61H442.737C443.733 279.61 444.457 280.334 444.457 281.329V289.476C444.457 290.291 443.733 291.106 442.737 291.106H439.75V296.808H441.922Z" fill="white"/>
<path opacity="0.62" d="M520.208 346.775H438.031C433.687 346.775 430.158 343.245 430.158 338.9C430.158 334.555 433.687 331.025 438.031 331.025H520.208C524.552 331.025 528.081 334.555 528.081 338.9C528.081 343.245 524.552 346.775 520.208 346.775Z" fill="white"/>
<path d="M440.837 344.15C448.534 344.15 454.774 337.909 454.774 330.21C454.774 322.511 448.534 316.27 440.837 316.27C433.139 316.27 426.899 322.511 426.899 330.21C426.899 337.909 433.139 344.15 440.837 344.15Z" fill="#FF4D00"/>
<path d="M439.841 333.831V337.089H442.013V330.753H439.479V328.218H442.013V322.425H439.841V325.774H437.307V321.52C437.307 320.524 438.031 319.891 439.027 319.891H442.828C443.823 319.891 444.547 320.705 444.547 321.61V327.947C444.547 328.671 444.095 329.124 443.371 329.305C444.095 329.486 444.547 330.3 444.547 330.934V337.904C444.547 338.809 443.823 339.533 442.828 339.533H439.027C438.936 339.533 438.755 339.533 438.665 339.533C437.85 339.352 437.307 338.719 437.307 337.904V333.831H439.841Z" fill="white"/>
<path opacity="0.62" d="M520.208 387.056H438.031C433.687 387.056 430.158 383.526 430.158 379.181C430.158 374.836 433.687 371.306 438.031 371.306H520.208C524.552 371.306 528.081 374.836 528.081 379.181C528.081 383.616 524.552 387.056 520.208 387.056Z" fill="white"/>
<path d="M440.837 384.431C448.534 384.431 454.774 378.19 454.774 370.491C454.774 362.792 448.534 356.551 440.837 356.551C433.139 356.551 426.899 362.792 426.899 370.491C426.899 378.19 433.139 384.431 440.837 384.431Z" fill="#FF4D00"/>
<path d="M437.036 360.262H439.57V369.405H441.38V360.262H443.914V369.405H445.633V371.939H443.914V379.995H441.38V371.849H437.036V360.262Z" fill="white"/>
<path opacity="0.62" d="M520.208 427.427H438.031C433.687 427.427 430.158 423.897 430.158 419.552C430.158 415.207 433.687 411.677 438.031 411.677H520.208C524.552 411.677 528.081 415.207 528.081 419.552C528.081 423.897 524.552 427.427 520.208 427.427Z" fill="white"/>
<path d="M440.837 424.802C448.534 424.802 454.774 418.561 454.774 410.862C454.774 403.163 448.534 396.922 440.837 396.922C433.139 396.922 426.899 403.163 426.899 410.862C426.899 418.561 433.139 424.802 440.837 424.802Z" fill="#FCCE6C"/>
<path d="M439.75 414.393V417.833H441.922V411.496H437.216V400.634H444.457V403.169H439.75V408.962H442.737C443.733 408.962 444.457 409.776 444.457 410.682V418.738C444.457 419.643 443.733 420.367 442.737 420.367H438.936C438.031 420.367 437.216 419.643 437.216 418.738V414.393H439.75Z" fill="white"/>
<path opacity="0.62" d="M520.208 467.708H438.031C433.687 467.708 430.158 464.178 430.158 459.833C430.158 455.488 433.687 451.958 438.031 451.958H520.208C524.552 451.958 528.081 455.488 528.081 459.833C528.081 464.178 524.552 467.708 520.208 467.708Z" fill="white"/>
<path d="M440.837 465.083C448.534 465.083 454.774 458.842 454.774 451.143C454.774 443.444 448.534 437.203 440.837 437.203C433.139 437.203 426.899 443.444 426.899 451.143C426.899 458.842 433.139 465.083 440.837 465.083Z" fill="#FCCE6C"/>
<path d="M437.307 442.544C437.307 441.638 438.122 440.824 439.027 440.824H442.828C443.823 440.824 444.547 441.638 444.547 442.544V446.255H442.013V443.358H439.841V449.151H442.828C443.823 449.151 444.547 449.966 444.547 450.871V458.928C444.547 459.833 443.823 460.557 442.828 460.557H439.027C438.122 460.557 437.307 459.833 437.307 458.928V442.544ZM441.923 451.686H439.751V458.022H441.923V451.686Z" fill="white"/>
<path opacity="0.62" d="M520.208 508.08H438.031C433.687 508.08 430.158 504.55 430.158 500.205C430.158 495.86 433.687 492.33 438.031 492.33H520.208C524.552 492.33 528.081 495.86 528.081 500.205C528.081 504.55 524.552 508.08 520.208 508.08Z" fill="white"/>
<path d="M440.837 505.455C448.534 505.455 454.774 499.214 454.774 491.515C454.774 483.816 448.534 477.575 440.837 477.575C433.139 477.575 426.899 483.816 426.899 491.515C426.899 499.214 433.139 505.455 440.837 505.455Z" fill="#52C798"/>
<path d="M442.013 483.73H437.216V481.195H444.638V484.273L441.56 500.929H438.845L442.013 483.73Z" fill="white"/>
<path opacity="0.62" d="M520.208 548.361H438.031C433.687 548.361 430.158 544.83 430.158 540.486C430.158 536.141 433.687 532.61 438.031 532.61H520.208C524.552 532.61 528.081 536.141 528.081 540.486C528.081 544.83 524.552 548.361 520.208 548.361Z" fill="white"/>
<path d="M440.837 545.736C448.534 545.736 454.774 539.495 454.774 531.796C454.774 524.097 448.534 517.856 440.837 517.856C433.139 517.856 426.899 524.097 426.899 531.796C426.899 539.495 433.139 545.736 440.837 545.736Z" fill="#52C798"/>
<path d="M437.579 523.197C437.579 522.201 438.303 521.567 439.298 521.567H442.556C443.552 521.567 444.276 522.382 444.276 523.287V529.624C444.276 530.348 443.914 530.891 443.371 530.981C444.095 531.162 444.547 531.977 444.547 532.611V539.581C444.547 540.486 443.823 541.21 442.828 541.21H439.027C438.936 541.21 438.755 541.21 438.665 541.21C437.85 541.029 437.307 540.395 437.307 539.581V532.611C437.307 531.887 437.76 531.072 438.484 530.981C437.941 530.8 437.579 530.348 437.579 529.624V523.197ZM439.841 538.766H442.013V532.43H439.841V538.766ZM441.651 529.805V524.011H440.113V529.805H441.651Z" fill="white"/>
<path opacity="0.62" d="M406.898 271.101V520.934" stroke="white" stroke-width="2" stroke-miterlimit="10" stroke-linecap="round" stroke-linejoin="round"/>
<path fill-rule="evenodd" clip-rule="evenodd" d="M545.096 337.27C545.096 337.27 532.878 317.99 522.018 323.511C511.248 328.943 509.8 344.331 523.647 363.702C537.494 383.164 554.961 401.81 565.459 405.793C575.867 409.686 602.837 378.638 602.837 378.638C602.837 378.638 562.292 363.249 545.096 337.27Z" fill="#F5C7B0"/>
<path fill-rule="evenodd" clip-rule="evenodd" d="M545.096 337.27C545.096 337.27 532.878 317.99 522.018 323.511C511.248 328.943 509.8 344.331 523.647 363.702C537.494 383.164 554.961 401.81 565.459 405.793C575.867 409.686 602.837 378.638 602.837 378.638C602.837 378.638 562.292 363.249 545.096 337.27Z" fill="url(#paint8_linear)"/>
<path fill-rule="evenodd" clip-rule="evenodd" d="M532.516 324.416C529.168 322.515 525.548 321.701 522.018 323.421C517.402 325.774 514.597 329.848 513.782 335.279C515.864 340.167 520.389 349.4 524.1 349.943C529.168 350.667 541.385 341.977 539.304 335.822C537.946 332.201 535.322 327.766 532.516 324.416Z" fill="#F5C7B0"/>
<path fill-rule="evenodd" clip-rule="evenodd" d="M532.516 324.416C529.168 322.515 525.548 321.701 522.018 323.421C517.402 325.774 514.597 329.848 513.782 335.279C515.864 340.167 520.389 349.4 524.1 349.943C529.168 350.667 541.385 341.977 539.304 335.822C537.946 332.201 535.322 327.766 532.516 324.416Z" fill="url(#paint9_linear)"/>
<path fill-rule="evenodd" clip-rule="evenodd" d="M173.855 357.365C176.118 364.245 185.078 393.935 173.131 399.457C163.176 404.073 148.243 403.802 141.184 403.349C141.908 400.272 142.542 397.465 143.175 394.931C143.809 394.297 144.533 393.664 145.166 393.03L145.257 392.939C145.528 392.668 145.8 392.396 145.981 392.215C146.433 391.853 146.795 391.401 147.157 390.948L147.519 390.495L147.972 390.043L148.062 389.952L148.424 389.59L148.877 389.138L149.239 388.685C149.51 388.414 149.691 388.142 149.963 387.961L150.144 387.78L150.506 387.418L150.958 386.965L151.32 386.603L151.501 386.332L152.044 385.788L152.316 385.426L152.587 385.155L152.678 385.064L153.13 384.521L153.402 384.25L153.764 383.797L154.035 383.525L154.578 382.982L154.85 382.711L154.94 382.62L155.393 382.168L155.483 382.077L155.574 381.896L155.936 381.444L156.207 381.081L156.66 380.538L156.751 380.448L157.113 379.995L157.565 379.452L157.746 379.181L158.108 378.728L158.289 378.547L158.38 378.456L158.923 377.732L159.013 377.551L159.556 376.827L159.647 376.737L159.737 376.646L160.28 375.922L160.371 375.831L160.461 375.741L161.004 375.107L161.095 374.926L161.638 374.293L161.909 373.93L162.362 373.387L162.452 373.297L162.543 373.206L163.086 372.573L163.176 372.482L163.719 371.758L163.81 371.667L164.443 370.762C164.624 370.491 164.805 370.219 164.986 369.948L165.167 369.676L165.62 369.042L165.71 368.952L165.801 368.861L166.344 368.228L166.434 368.137L166.525 367.956L166.977 367.232L167.068 367.142L167.701 366.327L168.335 365.512L168.425 365.331C168.787 364.788 169.24 364.245 169.602 363.702C169.783 363.43 170.054 363.068 170.235 362.797C170.416 362.525 170.597 362.254 170.778 361.891C170.959 361.62 171.14 361.258 171.321 361.077C171.502 360.805 171.683 360.534 171.864 360.262L171.955 360.172C172.136 359.9 172.317 359.628 172.407 359.447L172.498 359.357C172.679 359.085 172.769 358.814 172.95 358.633L173.041 358.452L173.131 358.361C173.222 358.18 173.403 357.909 173.493 357.728L173.855 357.365Z" fill="#F5C7B0"/>
<path fill-rule="evenodd" clip-rule="evenodd" d="M173.855 357.365C174.76 360.172 176.752 366.689 178.019 373.84C169.602 385.607 143.266 402.444 141.727 403.44H141.365C141.275 403.349 141.275 403.349 141.184 403.349C141.908 400.362 142.542 397.465 143.175 394.931C143.809 394.297 144.533 393.664 145.166 393.03L145.257 392.939C145.528 392.668 145.8 392.396 145.981 392.215C146.433 391.853 146.795 391.401 147.157 390.948L147.519 390.495L147.972 390.043L148.062 389.952L148.424 389.59L148.877 389.138L149.239 388.685C149.51 388.414 149.691 388.142 149.963 387.961L150.144 387.78L150.506 387.418L150.958 386.965L151.32 386.603L151.501 386.332L152.044 385.788L152.316 385.426L152.587 385.155L152.678 385.064L153.13 384.521L153.402 384.25L153.764 383.797L154.035 383.525L154.578 382.982L154.85 382.711L154.94 382.62L155.393 382.168L155.483 382.077L155.574 381.896L155.936 381.444L156.207 381.081L156.66 380.538L156.751 380.448L157.113 379.995L157.565 379.452L157.746 379.181L158.108 378.728L158.289 378.547L158.38 378.456L158.923 377.732L159.013 377.551L159.556 376.827L159.647 376.737L159.737 376.646L160.28 375.922L160.371 375.831L160.461 375.741L161.004 375.107L161.095 374.926L161.638 374.293L161.909 373.93L162.362 373.387L162.452 373.297L162.543 373.206L163.086 372.573L163.176 372.482L163.719 371.758L163.81 371.667L164.443 370.762C164.624 370.491 164.805 370.219 164.986 369.948L165.167 369.676L165.62 369.042L165.71 368.952L165.801 368.861L166.344 368.228L166.434 368.137L166.525 367.956L166.977 367.232L167.068 367.142L167.701 366.327L168.335 365.512L168.425 365.331C168.787 364.788 169.24 364.245 169.602 363.702C169.783 363.43 170.054 363.068 170.235 362.797C170.416 362.525 170.597 362.254 170.778 361.891C170.959 361.62 171.14 361.258 171.321 361.077C171.502 360.805 171.683 360.534 171.864 360.262L171.955 360.172C172.136 359.9 172.317 359.628 172.407 359.447L172.498 359.357C172.679 359.085 172.769 358.814 172.95 358.633L173.041 358.452L173.131 358.361C173.222 358.18 173.403 357.909 173.493 357.728L173.855 357.365Z" fill="url(#paint10_linear)"/>
<path fill-rule="evenodd" clip-rule="evenodd" d="M162.181 402.535C160.371 411.949 155.212 434.398 146.252 436.208C140.913 437.294 135.664 436.48 131.5 435.212C135.483 424.622 138.741 412.945 141.094 403.259C145.981 403.712 154.217 403.893 162.181 402.535Z" fill="#F5C7B0"/>
<path fill-rule="evenodd" clip-rule="evenodd" d="M162.181 402.535C161.819 404.345 161.366 406.518 160.823 408.962L148.696 409.324C148.696 409.324 150.596 407.875 144.714 416.203C140.279 422.539 135.03 429.328 132.677 432.315C136.206 422.539 139.102 412.13 141.184 403.349C145.981 403.711 154.216 403.892 162.181 402.535Z" fill="url(#paint11_linear)"/>
<path fill-rule="evenodd" clip-rule="evenodd" d="M143.809 436.661C142.361 441.277 137.654 454.04 129.6 456.394C126.251 457.39 123.084 457.48 120.459 457.118C122.36 454.584 123.898 452.049 125.256 449.515C127.518 445.26 129.6 440.463 131.5 435.394C135.03 436.299 139.374 437.113 143.809 436.661Z" fill="#F5C7B0"/>
<path fill-rule="evenodd" clip-rule="evenodd" d="M143.809 436.661C142.361 441.277 137.654 454.04 129.6 456.394C126.251 457.39 123.084 457.48 120.459 457.118C122.36 454.584 123.898 452.049 125.256 449.515C127.518 445.26 129.6 440.463 131.5 435.394C135.03 436.299 139.374 437.113 143.809 436.661Z" fill="url(#paint12_linear)"/>
<path fill-rule="evenodd" clip-rule="evenodd" d="M152.135 307.761C152.135 307.761 93.0365 332.111 80.0947 346.503C69.2344 358.452 33.3954 437.928 26.7887 465.083C23.9831 476.489 0 509.8 0 509.8V660.333C6.87818 664.407 68.9629 498.938 77.1986 495.136C88.4209 489.976 115.119 469.157 125.436 449.424C138.288 424.984 145.89 382.077 145.89 382.077C145.89 382.077 143.175 343.607 149.872 341.163C156.569 338.809 172.407 342.521 175.484 346.684C178.561 350.939 180.281 366.599 193.223 363.34C206.165 360.081 200.282 336.365 194.399 328.852C188.336 321.339 168.063 303.597 152.135 307.761Z" fill="#F5C7B0"/>
<path fill-rule="evenodd" clip-rule="evenodd" d="M127.155 358.271C125.436 359.448 121.997 361.892 115.662 364.245C107.969 367.142 98.0137 365.331 98.0137 365.331C98.0137 365.331 107.969 347.68 116.567 342.249C120.549 339.715 124.35 338.085 127.246 337.09L156.116 328.038C151.591 333.197 143.084 345.417 129.056 356.913L127.155 358.271Z" fill="url(#paint13_linear)"/>
<path fill-rule="evenodd" clip-rule="evenodd" d="M349.792 532.701C370.789 502.106 309.881 484.273 300.921 462.006C289.155 432.768 320.107 413.306 339.022 397.737C344.543 393.211 350.516 387.418 350.154 379.633C349.068 354.379 306.351 346.232 294.676 326.499C290.604 319.619 288.793 311.11 291.509 303.688C296.034 291.015 310.786 284.769 320.469 276.532C330.244 268.114 338.117 257.885 341.194 245.213C344.271 232.359 342.914 218.962 337.846 207.195C330.877 206.38 323.818 205.927 316.668 205.927C218.202 205.927 138.378 285.765 138.378 384.25C138.378 482.735 218.202 562.572 316.668 562.572C319.836 562.572 323.003 562.482 326.081 562.301C326.895 558.409 328.705 554.788 331.149 551.62C336.579 544.197 344.724 540.124 349.792 532.701Z" fill="#9DCAF3"/>
<path d="M292.594 351.029H172.588C166.615 351.029 161.728 346.141 161.728 340.167V261.506C161.728 255.532 166.615 250.644 172.588 250.644H292.594C298.567 250.644 303.454 255.532 303.454 261.506V340.167C303.454 346.141 298.567 351.029 292.594 351.029Z" fill="url(#paint14_linear)"/>
<path d="M296.486 357.366H176.57C170.597 357.366 165.71 352.478 165.71 346.503V267.842C165.71 261.868 170.597 256.98 176.57 256.98H296.577C302.55 256.98 307.437 261.868 307.437 267.842V346.503C307.346 352.478 302.459 357.366 296.486 357.366Z" fill="url(#paint15_linear)"/>
<path d="M187.159 267.933H170.326V282.959H187.159V267.933Z" fill="#FCCE6C"/>
<path d="M206.436 267.933H189.603V282.959H206.436V267.933Z" fill="#FCCE6C"/>
<path d="M225.713 267.933H208.88V282.959H225.713V267.933Z" fill="#FCCE6C"/>
<path d="M244.899 267.933H228.066V282.959H244.899V267.933Z" fill="#FCCE6C"/>
<path d="M264.177 267.933H247.343V282.959H264.177V267.933Z" fill="#FCCE6C"/>
<path d="M283.454 267.933H266.62V282.959H283.454V267.933Z" fill="#FCCE6C"/>
<path d="M302.73 267.933H285.897V282.959H302.73V267.933Z" fill="#FCCE6C"/>
<path d="M187.159 287.666H170.326V302.692H187.159V287.666Z" fill="#FCCE6C"/>
<path d="M206.436 287.666H189.603V302.692H206.436V287.666Z" fill="#FCCE6C"/>
<path d="M225.713 287.666H208.88V302.692H225.713V287.666Z" fill="#FCCE6C"/>
<path d="M244.899 287.666H228.066V302.692H244.899V287.666Z" fill="#FCCE6C"/>
<path d="M264.177 287.666H247.343V302.692H264.177V287.666Z" fill="#FCCE6C"/>
<path d="M283.454 287.666H266.62V302.692H283.454V287.666Z" fill="#FF4D00"/>
<path d="M302.73 287.666H285.897V302.692H302.73V287.666Z" fill="#FF4D00"/>
<path d="M187.159 307.309H170.326V322.335H187.159V307.309Z" fill="#FCCE6C"/>
<path d="M206.436 307.309H189.603V322.335H206.436V307.309Z" fill="#FCCE6C"/>
<path d="M225.713 307.309H208.88V322.335H225.713V307.309Z" fill="#FCCE6C"/>
<path d="M244.899 307.309H228.066V322.335H244.899V307.309Z" fill="#FCCE6C"/>
<path d="M264.177 307.309H247.343V322.335H264.177V307.309Z" fill="#FCCE6C"/>
<path d="M283.454 307.309H266.62V322.335H283.454V307.309Z" fill="#FCCE6C"/>
<path d="M302.73 307.309H285.897V322.335H302.73V307.309Z" fill="#FCCE6C"/>
<path d="M187.159 326.951H170.326V341.977H187.159V326.951Z" fill="#FCCE6C"/>
<path d="M206.436 326.951H189.603V341.977H206.436V326.951Z" fill="#FCCE6C"/>
<path d="M225.713 326.951H208.88V341.977H225.713V326.951Z" fill="#FCCE6C"/>
<path d="M244.899 326.951H228.066V341.977H244.899V326.951Z" fill="#FCCE6C"/>
<path d="M264.177 326.951H247.343V341.977H264.177V326.951Z" fill="#FCCE6C"/>
<path d="M283.454 326.951H266.62V341.977H283.454V326.951Z" fill="#FCCE6C"/>
<path d="M302.73 326.951H285.897V341.977H302.73V326.951Z" fill="#FCCE6C"/>
<path d="M278.205 345.779L270.693 337.542L277.028 331.749C279.019 329.938 282.096 330.029 283.997 332.02L284.902 333.016C286.712 335.007 286.621 338.085 284.63 339.986L278.205 345.779Z" fill="#FF4D00"/>
<path d="M281.01 340.391L276.309 335.247L268.092 342.759L272.794 347.903L281.01 340.391Z" fill="#FF4D00"/>
<path d="M278.205 345.779L270.693 337.542L277.028 331.749C279.019 329.938 282.096 330.029 283.997 332.02L284.902 333.016C286.712 335.007 286.621 338.085 284.63 339.986L278.205 345.779Z" fill="url(#paint16_linear)"/>
<path d="M251.888 452.707C286.639 435.143 300.575 392.729 283.015 357.971C265.454 323.213 223.047 309.275 188.296 326.839C153.545 344.403 139.609 386.817 157.17 421.575C174.73 456.332 217.137 470.271 251.888 452.707Z" fill="#FF4D00"/>
<path d="M220.102 460.286C259.038 460.286 290.603 428.715 290.603 389.771C290.603 350.827 259.038 319.257 220.102 319.257C181.165 319.257 149.6 350.827 149.6 389.771C149.6 428.715 181.165 460.286 220.102 460.286Z" fill="url(#paint17_linear)"/>
<path d="M274.727 415.484C288.925 385.314 275.983 349.343 245.818 335.141C215.653 320.94 179.689 333.885 165.49 364.056C151.291 394.226 164.234 430.197 194.399 444.398C224.564 458.6 260.528 445.655 274.727 415.484Z" fill="#9DCAF3"/>
<path d="M238.022 335.188C207.885 325.322 175.394 341.706 165.53 371.849C155.665 401.992 172.046 434.488 202.183 444.355C232.32 454.221 264.811 437.837 274.675 407.694L220.102 389.771L238.022 335.188Z" fill="white"/>
<path d="M238.022 335.188L220.102 389.771L274.675 407.694C284.63 377.551 268.159 345.055 238.022 335.188Z" fill="#FCCE6C"/>
<path d="M222.817 381.444C220.283 380.629 218.925 377.913 219.74 375.379L230.962 341.253C231.777 338.719 234.492 337.361 237.026 338.176C239.56 338.99 240.918 341.706 240.103 344.24L228.881 378.366C228.066 380.901 225.351 382.258 222.817 381.444Z" fill="#FF4D00"/>
<path d="M222.817 381.444C220.283 380.629 218.925 377.913 219.74 375.379L230.962 341.253C231.777 338.719 234.492 337.361 237.026 338.176C239.56 338.99 240.918 341.706 240.103 344.24L228.881 378.366C228.066 380.901 225.351 382.258 222.817 381.444Z" fill="url(#paint18_linear)"/>
<path d="M244.99 440.281C244.357 440.643 243.542 440.372 243.18 439.647L221.731 397.194C221.369 396.56 221.64 395.746 222.364 395.384C222.998 395.021 223.813 395.293 224.175 396.017L245.624 438.471C245.895 439.104 245.624 439.919 244.99 440.281Z" fill="#FF4D00"/>
<path d="M229.152 392.758C227.523 397.737 222.183 400.453 217.206 398.823C212.228 397.194 209.513 391.853 211.142 386.875C212.771 381.896 218.111 379.181 223.088 380.81C228.066 382.439 230.781 387.78 229.152 392.758Z" fill="#82BCE8"/>
<path d="M223.541 390.948C222.908 392.849 220.826 393.935 218.926 393.302C217.025 392.668 215.939 390.586 216.573 388.685C217.206 386.784 219.288 385.698 221.188 386.332C223.179 386.965 224.175 389.047 223.541 390.948Z" fill="#FF4D00"/>
<path d="M252.634 304.412L244.638 301.783L237.461 323.626L245.457 326.254L252.634 304.412Z" fill="#FF4D00"/>
<path d="M252.784 314.697L238.168 309.893L236.812 314.02L251.428 318.824L252.784 314.697Z" fill="#FF4D00"/>
<path d="M254.493 309.481L239.832 304.684L241.913 298.347C241.913 298.347 244.719 296.989 249.877 298.619C254.583 300.158 256.484 303.145 256.484 303.145L254.493 309.481Z" fill="#FF4D00"/>
<path d="M254.002 310.929L239.386 306.124L238.708 308.188L253.324 312.992L254.002 310.929Z" fill="#FF4D00"/>
<path d="M251.506 318.804L236.845 314.007L238.202 309.934L252.773 314.731L251.506 318.804Z" fill="url(#paint19_linear)"/>
<path d="M254.493 309.481L239.832 304.684L241.913 298.347C241.913 298.347 244.719 296.989 249.877 298.619C254.583 300.158 256.484 303.145 256.484 303.145L254.493 309.481Z" fill="url(#paint20_linear)"/>
<path d="M253.316 313.011L238.745 308.214L239.379 306.132L254.04 311.02L253.316 313.011Z" fill="url(#paint21_linear)"/>
<path d="M266.168 312.377C264.629 316.994 260.647 320.343 255.67 321.791C251.778 322.878 248.158 319.981 243.633 318.533C239.289 317.084 234.763 317.447 232.229 314.369C228.881 310.205 227.523 305.045 229.062 300.248C231.777 291.92 242.366 287.937 252.592 291.287C262.729 294.545 268.883 304.05 266.168 312.377Z" stroke="#FF4D00" stroke-width="3" stroke-miterlimit="10"/>
<path d="M222.817 381.444C220.283 380.629 218.925 377.913 219.74 375.379L230.962 341.253C231.776 338.719 234.491 337.361 237.026 338.176C239.56 338.99 240.917 341.706 240.103 344.24L228.88 378.366C228.066 380.901 225.351 382.258 222.817 381.444Z" fill="#FF4D00"/>
<path opacity="0.68" d="M308.071 527.361C308.252 530.348 305.99 532.973 302.913 533.154L245.172 536.503L239.923 536.775L236.393 536.956L231.054 537.227L222.546 537.68L215.578 538.042L212.591 538.223L205.622 538.585L150.235 541.844C147.248 542.025 144.624 539.762 144.443 536.684L138.56 435.755L302.188 426.251L308.071 527.361Z" fill="#52C798"/>
<path opacity="0.5" d="M288.975 522.926L144.895 537.228C139.736 537.771 135.211 533.969 134.668 528.809L126.975 451.868C126.432 446.708 130.234 442.182 135.392 441.639L279.472 427.337C284.631 426.794 289.156 430.596 289.699 435.756L297.392 512.697C297.935 517.856 294.134 522.382 288.975 522.926Z" fill="#7BCAFF"/>
<path opacity="0.42" d="M230.239 530.348H161.729C159.285 530.348 157.294 528.356 157.294 525.912V449.695C157.294 447.251 159.285 445.26 161.729 445.26H230.239C232.683 445.26 234.674 447.251 234.674 449.695V525.912C234.764 528.356 232.773 530.348 230.239 530.348Z" fill="white"/>
<path d="M302.188 426.251L138.56 435.756L137.836 422.631C137.745 421.363 138.741 420.368 139.917 420.277L299.111 411.044C300.378 410.954 301.374 411.949 301.464 413.126L302.188 426.251Z" fill="#52C798"/>
<path d="M299.02 423.174L141.455 432.406L141.093 427.337L298.749 418.104L299.02 423.174Z" fill="url(#paint22_linear)"/>
<path d="M143.627 425.436L141.003 425.617L140.822 422.992L143.537 422.811L143.627 425.436Z" fill="url(#paint23_linear)"/>
<path d="M148.334 425.165L145.709 425.346L145.528 422.721L148.153 422.54L148.334 425.165Z" fill="url(#paint24_linear)"/>
<path d="M153.039 424.893L150.415 425.074L150.234 422.449L152.858 422.268L153.039 424.893Z" fill="url(#paint25_linear)"/>
<path d="M154.036 467.256C152.86 467.256 151.864 466.351 151.864 465.174L151.23 453.588C151.23 453.045 151.411 452.411 151.773 451.958C152.135 451.506 152.679 451.234 153.312 451.234L221.732 447.251C222.908 447.161 223.994 448.066 224.085 449.333L224.718 460.92C224.718 461.463 224.537 462.097 224.175 462.549C223.813 463.002 223.27 463.273 222.637 463.273L154.217 467.256C154.127 467.256 154.036 467.256 154.036 467.256ZM221.732 448.428L153.222 452.411C152.95 452.411 152.679 452.592 152.407 452.773C152.226 452.954 152.135 453.316 152.135 453.588L152.769 465.174C152.769 465.808 153.312 466.26 153.946 466.26L222.365 462.278C222.637 462.278 222.908 462.097 223.18 461.915C223.361 461.734 223.451 461.372 223.451 461.101L222.818 449.514C222.908 448.881 222.365 448.428 221.732 448.428Z" fill="white"/>
<path d="M155.122 486.989C153.945 486.989 152.95 486.084 152.95 484.908L152.316 473.321C152.226 472.144 153.131 471.058 154.398 470.968L222.818 466.985C223.994 466.894 225.08 467.799 225.171 469.067L225.804 480.653C225.895 481.83 224.99 482.916 223.723 483.007L155.303 486.989C155.212 486.989 155.212 486.989 155.122 486.989ZM222.908 468.071L154.398 472.054C153.764 472.054 153.312 472.597 153.312 473.231L153.945 484.817C153.945 485.451 154.488 485.903 155.122 485.903L223.542 481.92C224.175 481.92 224.628 481.377 224.628 480.744L223.994 469.157C223.994 468.524 223.542 468.071 222.908 468.071Z" fill="white"/>
<path d="M156.298 506.632C155.755 506.632 155.212 506.451 154.85 506.089C154.398 505.727 154.126 505.184 154.126 504.55L153.493 492.964C153.493 492.421 153.674 491.787 154.036 491.334C154.398 490.882 154.941 490.61 155.574 490.61L223.994 486.627C225.171 486.537 226.257 487.442 226.347 488.709L226.981 500.296C227.071 501.472 226.166 502.559 224.899 502.649L156.479 506.632C156.389 506.632 156.389 506.632 156.298 506.632ZM224.085 487.714C224.085 487.714 223.994 487.714 224.085 487.714L155.574 491.696C155.303 491.696 155.031 491.877 154.76 492.058C154.579 492.24 154.488 492.602 154.488 492.873L155.122 504.46C155.122 505.093 155.665 505.546 156.298 505.546L224.718 501.563C225.352 501.563 225.804 501.02 225.804 500.386L225.171 488.8C225.171 488.166 224.628 487.714 224.085 487.714Z" fill="white"/>
<path opacity="0.6" d="M316.578 498.757L252.231 495.136C250.33 495.045 248.882 493.416 248.973 491.425L253.769 406.88C253.86 404.979 255.489 403.531 257.48 403.621L321.827 407.242C323.728 407.332 325.176 408.962 325.085 410.953L320.289 495.498C320.108 497.399 318.479 498.847 316.578 498.757Z" fill="#FCCE6C"/>
<path d="M157.475 526.275C156.931 526.275 156.388 526.094 156.026 525.732C155.574 525.37 155.302 524.827 155.302 524.193L154.669 512.607C154.669 512.064 154.85 511.43 155.212 510.977C155.574 510.525 156.117 510.253 156.751 510.253L225.17 506.271C225.804 506.271 226.347 506.452 226.799 506.814C227.252 507.176 227.523 507.719 227.523 508.352L228.157 519.939C228.247 521.116 227.342 522.202 226.075 522.292L157.656 526.275C157.565 526.275 157.475 526.275 157.475 526.275ZM225.17 507.357L156.66 511.34C156.388 511.34 156.117 511.521 155.845 511.702C155.664 511.883 155.574 512.245 155.574 512.516L156.207 524.103C156.207 524.736 156.751 525.189 157.384 525.189L225.804 521.206C226.437 521.206 226.89 520.663 226.89 520.029L226.256 508.443C226.256 508.171 226.075 507.9 225.894 507.628C225.713 507.447 225.532 507.357 225.17 507.357Z" fill="white"/>
<path d="M289.31 476.822L288.946 520.633L290.032 520.642L290.396 476.831L289.31 476.822Z" fill="white"/>
<path d="M241.227 505.564L241.104 520.318L242.191 520.327L242.313 505.573L241.227 505.564Z" fill="white"/>
<path d="M265.269 489.628L265.011 520.495L266.097 520.504L266.355 489.637L265.269 489.628Z" fill="white"/>
<path d="M289.699 510.434C289.609 510.434 289.609 510.434 289.699 510.434C283.183 510.344 280.106 503.283 277.119 496.494C274.133 489.705 271.327 483.278 265.716 483.278C265.716 483.278 265.716 483.278 265.625 483.278C260.014 483.278 257.118 489.615 254.041 496.313C250.964 503.102 247.706 510.072 241.371 510.072H241.28V508.895C241.28 508.895 241.28 508.895 241.371 508.895C246.982 508.895 249.878 502.559 252.955 495.86C256.032 489.072 259.29 482.102 265.625 482.102H265.716C272.142 482.192 275.219 489.253 278.205 496.042C281.192 502.83 283.997 509.257 289.609 509.257C289.609 509.257 289.609 509.257 289.699 509.257C295.31 509.257 298.206 502.921 301.283 496.223C304.36 489.434 307.619 482.464 313.954 482.464H314.044V483.64C314.044 483.64 314.044 483.64 313.954 483.64C308.343 483.64 305.447 489.977 302.369 496.675C299.202 503.464 296.034 510.434 289.699 510.434Z" fill="white"/>
<path d="M296.208 470.422L296.475 465.722L287.077 465.189L286.811 469.888L296.208 470.422Z" fill="white"/>
<path d="M279.579 469.412L279.846 464.713L270.449 464.179L270.182 468.879L279.579 469.412Z" fill="white"/>
<path d="M262.855 468.488L263.122 463.789L253.725 463.255L253.458 467.954L262.855 468.488Z" fill="white"/>
<path opacity="0.42" d="M190.685 493.385L161.593 495.079L161.725 497.338L190.817 495.644L190.685 493.385Z" fill="white"/>
<path opacity="0.42" d="M181.465 498.005L161.859 499.148L161.991 501.407L181.596 500.264L181.465 498.005Z" fill="white"/>
<path opacity="0.42" d="M188.627 497.617L183.748 497.9L183.879 500.16L188.758 499.876L188.627 497.617Z" fill="white"/>
<path opacity="0.42" d="M188.424 454.553L159.332 456.248L159.463 458.507L188.555 456.812L188.424 454.553Z" fill="white"/>
<path opacity="0.42" d="M176.943 459.328L159.596 460.338L159.728 462.598L177.075 461.587L176.943 459.328Z" fill="white"/>
<path opacity="0.42" d="M197.576 458.121L179.235 459.189L179.366 461.448L197.707 460.38L197.576 458.121Z" fill="white"/>
<path opacity="0.42" d="M174.411 514.075L162.756 514.754L162.887 517.013L174.542 516.335L174.411 514.075Z" fill="white"/>
<path opacity="0.42" d="M188.257 513.258L176.602 513.936L176.734 516.195L188.388 515.517L188.257 513.258Z" fill="white"/>
<path opacity="0.42" d="M182.64 517.645L163.034 518.789L163.166 521.048L182.772 519.905L182.64 517.645Z" fill="white"/>
<path opacity="0.42" d="M204.27 516.384L184.935 517.51L185.067 519.769L204.401 518.643L204.27 516.384Z" fill="white"/>
<path opacity="0.42" d="M311.872 436.299C311.782 448.971 301.464 459.2 288.794 459.2H288.613C275.852 459.11 265.625 448.7 265.716 435.937V435.846C265.897 423.083 276.305 412.945 288.975 413.035C301.736 413.035 311.963 423.536 311.872 436.299Z" fill="white"/>
<path opacity="0.53" d="M288.794 435.756V459.11H288.613C275.852 459.019 265.625 448.61 265.716 435.846V435.756H288.794Z" fill="#FF4D00"/>
<path fill-rule="evenodd" clip-rule="evenodd" d="M148.334 337.271C148.334 337.271 160.552 317.99 171.412 323.512C182.182 328.943 183.63 344.331 169.783 363.702C155.936 383.164 138.469 401.811 127.971 405.794C117.563 409.686 90.5933 378.638 90.5933 378.638C90.5933 378.638 131.138 363.25 148.334 337.271Z" fill="#F5C7B0"/>
<path fill-rule="evenodd" clip-rule="evenodd" d="M148.334 337.271C148.334 337.271 160.552 317.99 171.412 323.512C182.182 328.943 183.63 344.331 169.783 363.702C155.936 383.164 138.469 401.811 127.971 405.794C117.563 409.686 90.5933 378.638 90.5933 378.638C90.5933 378.638 131.138 363.25 148.334 337.271Z" fill="url(#paint26_linear)"/>
<path fill-rule="evenodd" clip-rule="evenodd" d="M160.914 324.417C164.262 322.516 167.882 321.701 171.412 323.421C176.028 325.775 178.833 329.848 179.648 335.279C177.566 340.167 173.041 349.4 169.33 349.943C164.262 350.667 152.044 341.978 154.126 335.822C155.483 332.202 158.108 327.766 160.914 324.417Z" fill="#F5C7B0"/>
<path fill-rule="evenodd" clip-rule="evenodd" d="M160.914 324.417C164.262 322.516 167.882 321.701 171.412 323.421C176.028 325.775 178.833 329.848 179.648 335.279C177.566 340.167 173.041 349.4 169.33 349.943C164.262 350.667 152.044 341.978 154.126 335.822C155.483 332.202 158.108 327.766 160.914 324.417Z" fill="url(#paint27_linear)"/>
<path d="M335.367 230.299C351.929 230.118 365.776 243.606 365.957 260.171C366.138 276.736 352.563 290.494 336.001 290.675C319.348 290.857 305.592 277.369 305.411 260.804C305.139 244.239 318.715 230.48 335.367 230.299ZM335.096 18.3035C382.338 17.8509 429.128 39.0324 429.671 90.9903C430.123 138.875 375.279 157.793 363.604 175.173C354.825 188.117 357.993 206.131 333.648 206.402C317.81 206.583 309.845 193.729 309.755 181.962C309.302 138.151 373.831 127.56 373.469 91.5334C373.288 71.7098 359.893 60.0328 337.72 60.2138C290.478 60.6664 309.393 109.094 273.554 109.456C260.612 109.547 249.48 101.943 249.299 87.279C248.937 51.1619 290.025 18.7561 335.096 18.3035Z" fill="url(#paint28_linear)"/>
<path d="M178.054 589.909C188.462 589.819 197.15 598.237 197.24 608.646C197.331 619.056 188.824 627.656 178.416 627.746C168.008 627.837 159.32 619.418 159.229 609.009C159.139 598.689 167.646 590.09 178.054 589.909ZM177.873 457.027C207.558 456.755 236.79 470.062 237.152 502.558C237.423 532.52 203.033 544.468 195.792 555.331C190.272 563.477 192.263 574.792 176.968 574.883C167.013 574.973 162.035 566.917 162.035 559.585C161.763 532.067 202.218 525.459 202.037 502.83C201.947 490.338 193.53 483.097 179.592 483.187C149.908 483.459 161.854 513.782 139.409 514.054C131.264 514.145 124.295 509.347 124.205 500.114C123.843 477.665 149.636 457.299 177.873 457.027Z" fill="url(#paint29_linear)"/>
</g>
<defs>
<linearGradient id="paint0_linear" x1="552.216" y1="380.402" x2="515.375" y2="380.402" gradientUnits="userSpaceOnUse">
<stop stop-color="#F5B48D" stop-opacity="0.5"/>
<stop offset="1" stop-color="#F5A77B" stop-opacity="0.5"/>
</linearGradient>
<linearGradient id="paint1_linear" x1="560.769" y1="417.476" x2="531.222" y2="417.476" gradientUnits="userSpaceOnUse">
<stop stop-color="#F5B48D" stop-opacity="0.5"/>
<stop offset="1" stop-color="#F5A77B" stop-opacity="0.5"/>
</linearGradient>
<linearGradient id="paint2_linear" x1="572.878" y1="446.277" x2="549.589" y2="446.277" gradientUnits="userSpaceOnUse">
<stop stop-color="#F5B48D" stop-opacity="0.5"/>
<stop offset="1" stop-color="#F5A77B" stop-opacity="0.5"/>
</linearGradient>
<linearGradient id="paint3_linear" x1="595.473" y1="347.014" x2="537.344" y2="347.014" gradientUnits="userSpaceOnUse">
<stop stop-color="#F5B48D" stop-opacity="0.5"/>
<stop offset="1" stop-color="#F5A77B" stop-opacity="0.5"/>
</linearGradient>
<linearGradient id="paint4_linear" x1="419.418" y1="271.367" x2="549.589" y2="271.367" gradientUnits="userSpaceOnUse">
<stop stop-color="white" stop-opacity="0"/>
<stop offset="0.9798" stop-color="white" stop-opacity="0.4899"/>
<stop offset="1" stop-color="white" stop-opacity="0.5"/>
</linearGradient>
<linearGradient id="paint5_linear" x1="419.418" y1="351.884" x2="549.588" y2="351.884" gradientUnits="userSpaceOnUse">
<stop stop-color="white" stop-opacity="0"/>
<stop offset="0.9798" stop-color="white" stop-opacity="0.4899"/>
<stop offset="1" stop-color="white" stop-opacity="0.5"/>
</linearGradient>
<linearGradient id="paint6_linear" x1="419.418" y1="432.402" x2="549.588" y2="432.402" gradientUnits="userSpaceOnUse">
<stop stop-color="white" stop-opacity="0"/>
<stop offset="0.9798" stop-color="white" stop-opacity="0.4899"/>
<stop offset="1" stop-color="white" stop-opacity="0.5"/>
</linearGradient>
<linearGradient id="paint7_linear" x1="419.418" y1="513.416" x2="549.588" y2="513.416" gradientUnits="userSpaceOnUse">
<stop stop-color="white" stop-opacity="0"/>
<stop offset="0.9798" stop-color="white" stop-opacity="0.4899"/>
<stop offset="1" stop-color="white" stop-opacity="0.5"/>
</linearGradient>
<linearGradient id="paint8_linear" x1="602.74" y1="364.269" x2="513.577" y2="364.269" gradientUnits="userSpaceOnUse">
<stop stop-color="white" stop-opacity="0"/>
<stop offset="0.9798" stop-color="white" stop-opacity="0.4899"/>
<stop offset="1" stop-color="white" stop-opacity="0.5"/>
</linearGradient>
<linearGradient id="paint9_linear" x1="539.505" y1="336.236" x2="513.775" y2="336.236" gradientUnits="userSpaceOnUse">
<stop stop-color="white" stop-opacity="0"/>
<stop offset="0.9798" stop-color="white" stop-opacity="0.4899"/>
<stop offset="1" stop-color="white" stop-opacity="0.5"/>
</linearGradient>
<linearGradient id="paint10_linear" x1="141.214" y1="380.402" x2="178.055" y2="380.402" gradientUnits="userSpaceOnUse">
<stop stop-color="#F5B48D" stop-opacity="0.5"/>
<stop offset="1" stop-color="#F5A77B" stop-opacity="0.5"/>
</linearGradient>
<linearGradient id="paint11_linear" x1="132.661" y1="417.476" x2="162.208" y2="417.476" gradientUnits="userSpaceOnUse">
<stop stop-color="#F5B48D" stop-opacity="0.5"/>
<stop offset="1" stop-color="#F5A77B" stop-opacity="0.5"/>
</linearGradient>
<linearGradient id="paint12_linear" x1="120.552" y1="446.277" x2="143.841" y2="446.277" gradientUnits="userSpaceOnUse">
<stop stop-color="#F5B48D" stop-opacity="0.5"/>
<stop offset="1" stop-color="#F5A77B" stop-opacity="0.5"/>
</linearGradient>
<linearGradient id="paint13_linear" x1="97.9555" y1="347.015" x2="156.085" y2="347.015" gradientUnits="userSpaceOnUse">
<stop stop-color="#F5B48D" stop-opacity="0.5"/>
<stop offset="1" stop-color="#F5A77B" stop-opacity="0.5"/>
</linearGradient>
<linearGradient id="paint14_linear" x1="161.742" y1="300.816" x2="303.453" y2="300.816" gradientUnits="userSpaceOnUse">
<stop stop-color="white" stop-opacity="0"/>
<stop offset="0.9798" stop-color="white" stop-opacity="0.4899"/>
<stop offset="1" stop-color="white" stop-opacity="0.5"/>
</linearGradient>
<linearGradient id="paint15_linear" x1="165.672" y1="307.149" x2="307.383" y2="307.149" gradientUnits="userSpaceOnUse">
<stop stop-color="white" stop-opacity="0"/>
<stop offset="0.9798" stop-color="white" stop-opacity="0.4899"/>
<stop offset="1" stop-color="white" stop-opacity="0.5"/>
</linearGradient>
<linearGradient id="paint16_linear" x1="271.382" y1="335.436" x2="285.211" y2="339.98" gradientUnits="userSpaceOnUse">
<stop stop-color="white" stop-opacity="0"/>
<stop offset="0.9798" stop-color="white" stop-opacity="0.4899"/>
<stop offset="1" stop-color="white" stop-opacity="0.5"/>
</linearGradient>
<linearGradient id="paint17_linear" x1="153.171" y1="367.765" x2="287.093" y2="411.768" gradientUnits="userSpaceOnUse">
<stop stop-color="white" stop-opacity="0"/>
<stop offset="0.9798" stop-color="white" stop-opacity="0.4899"/>
<stop offset="1" stop-color="white" stop-opacity="0.5"/>
</linearGradient>
<linearGradient id="paint18_linear" x1="234.904" y1="361.631" x2="226.004" y2="358.464" gradientUnits="userSpaceOnUse">
<stop stop-color="white" stop-opacity="0"/>
<stop offset="0.9798" stop-color="white" stop-opacity="0.4899"/>
<stop offset="1" stop-color="white" stop-opacity="0.5"/>
</linearGradient>
<linearGradient id="paint19_linear" x1="237.526" y1="311.932" x2="252.154" y2="316.738" gradientUnits="userSpaceOnUse">
<stop stop-color="white" stop-opacity="0"/>
<stop offset="0.9798" stop-color="white" stop-opacity="0.4899"/>
<stop offset="1" stop-color="white" stop-opacity="0.5"/>
</linearGradient>
<linearGradient id="paint20_linear" x1="241.296" y1="300.458" x2="255.925" y2="305.265" gradientUnits="userSpaceOnUse">
<stop stop-color="white" stop-opacity="0"/>
<stop offset="0.9798" stop-color="white" stop-opacity="0.4899"/>
<stop offset="1" stop-color="white" stop-opacity="0.5"/>
</linearGradient>
<linearGradient id="paint21_linear" x1="239.083" y1="307.191" x2="253.712" y2="311.997" gradientUnits="userSpaceOnUse">
<stop stop-color="white" stop-opacity="0"/>
<stop offset="0.9798" stop-color="white" stop-opacity="0.4899"/>
<stop offset="1" stop-color="white" stop-opacity="0.5"/>
</linearGradient>
<linearGradient id="paint22_linear" x1="234.092" y1="462.106" x2="219.607" y2="424.089" gradientUnits="userSpaceOnUse">
<stop stop-color="white" stop-opacity="0"/>
<stop offset="0.9798" stop-color="white" stop-opacity="0.4899"/>
<stop offset="1" stop-color="white" stop-opacity="0.5"/>
</linearGradient>
<linearGradient id="paint23_linear" x1="166.497" y1="487.861" x2="152.012" y2="449.844" gradientUnits="userSpaceOnUse">
<stop stop-color="white" stop-opacity="0"/>
<stop offset="0.9798" stop-color="white" stop-opacity="0.4899"/>
<stop offset="1" stop-color="white" stop-opacity="0.5"/>
</linearGradient>
<linearGradient id="paint24_linear" x1="170.679" y1="486.268" x2="156.194" y2="448.252" gradientUnits="userSpaceOnUse">
<stop stop-color="white" stop-opacity="0"/>
<stop offset="0.9798" stop-color="white" stop-opacity="0.4899"/>
<stop offset="1" stop-color="white" stop-opacity="0.5"/>
</linearGradient>
<linearGradient id="paint25_linear" x1="174.859" y1="484.675" x2="160.374" y2="446.658" gradientUnits="userSpaceOnUse">
<stop stop-color="white" stop-opacity="0"/>
<stop offset="0.9798" stop-color="white" stop-opacity="0.4899"/>
<stop offset="1" stop-color="white" stop-opacity="0.5"/>
</linearGradient>
<linearGradient id="paint26_linear" x1="90.6896" y1="364.269" x2="179.853" y2="364.269" gradientUnits="userSpaceOnUse">
<stop stop-color="white" stop-opacity="0"/>
<stop offset="0.9798" stop-color="white" stop-opacity="0.4899"/>
<stop offset="1" stop-color="white" stop-opacity="0.5"/>
</linearGradient>
<linearGradient id="paint27_linear" x1="153.925" y1="336.236" x2="179.655" y2="336.236" gradientUnits="userSpaceOnUse">
<stop stop-color="white" stop-opacity="0"/>
<stop offset="0.9798" stop-color="white" stop-opacity="0.4899"/>
<stop offset="1" stop-color="white" stop-opacity="0.5"/>
</linearGradient>
<linearGradient id="paint28_linear" x1="158.189" y1="296.93" x2="298.831" y2="175.569" gradientUnits="userSpaceOnUse">
<stop stop-color="#F5B48D" stop-opacity="0.5"/>
<stop offset="1" stop-color="#F5A77B" stop-opacity="0.5"/>
</linearGradient>
<linearGradient id="paint29_linear" x1="66.9434" y1="631.733" x2="155.13" y2="555.636" gradientUnits="userSpaceOnUse">
<stop stop-color="#F5B48D" stop-opacity="0.5"/>
<stop offset="1" stop-color="#F5A77B" stop-opacity="0.5"/>
</linearGradient>
</defs>
</svg>
