<?xml version="1.0" encoding="utf-8"?>
<svg width="90" height="90" viewBox="0 0 90 90" fill="none" xmlns="http://www.w3.org/2000/svg">
<g clip-path="url(#clip0)">
<path d="M44.9997 89.9702C67.6489 89.9702 86.0098 71.6094 86.0098 48.9602C86.0098 26.311 67.6489 7.9502 44.9997 7.9502C22.3505 7.9502 3.98975 26.311 3.98975 48.9602C3.98975 71.6094 22.3505 89.9702 44.9997 89.9702Z" fill="#FFEEE7"/>
<path d="M38.5195 44.0996C38.5195 44.0996 38.8495 50.6396 37.7695 54.6896C35.3695 63.6896 30.3295 63.5696 29.0095 64.8596C27.0295 66.8396 28.9496 67.8296 27.5396 69.0296C27.5396 69.0296 47.0995 83.6996 58.4695 83.2496C73.7395 82.6496 52.7695 63.1796 52.7695 63.1796C52.7695 63.1796 57.1195 60.0896 54.2095 58.4996C52.4995 57.5696 50.3095 50.6696 50.3095 50.6696L38.5195 44.0996Z" fill="#F5C7B0"/>
<path d="M54.4199 23.6699C56.2799 24.5999 59.4899 26.6099 59.7899 28.3199C60.0899 30.0299 61.2599 35.0099 61.3499 38.0099C61.4399 40.9799 62.1599 48.6599 62.0399 52.1399C61.9199 55.6499 62.0099 60.3599 61.2299 61.0799C60.4799 61.7999 52.2299 62.9399 50.4299 62.2799C48.5999 61.6199 39.7199 53.8799 39.2999 46.4399C39.2999 46.4399 35.6399 48.5099 32.3399 42.1199C31.4699 40.4699 36.5399 33.1799 37.0499 31.0799C38.2499 25.9499 48.3599 26.2199 51.0299 25.5599C53.6999 24.8999 54.4199 23.6699 54.4199 23.6699Z" fill="#F5C7B0"/>
<path d="M66.48 89.9995H22.74L20.73 68.0095L31.17 62.6395L34.29 61.0195C34.29 61.0195 38.04 76.7695 50.34 74.7295C58.08 73.4395 52.95 61.7695 52.95 61.7695L61.17 64.0195L62.25 64.3195C62.28 64.3195 64.08 75.0295 66.48 89.9995Z" fill="white"/>
<path d="M38.7299 90.0002H14.0699H3.35986V79.7102C3.35986 79.7102 9.80986 71.8202 12.5999 69.9302C16.7399 67.1102 31.1399 62.4902 31.1399 62.4902C31.1399 62.4902 31.1699 62.5502 31.1999 62.6402C31.7399 64.0202 35.2499 74.5802 38.7299 90.0002Z" fill="#9DCAF3"/>
<path d="M37.0195 39.1501L38.7295 36.1501L38.1595 34.8901C38.1595 34.8901 37.6195 28.2601 38.0095 28.2001C38.3995 28.1401 47.1895 23.7601 48.1495 24.3901C49.1395 25.0201 56.0995 26.1001 56.0995 26.1001C56.0995 26.1001 58.3195 32.8801 57.1195 33.1501C55.9195 33.3901 47.6995 34.1701 44.7295 36.0601C43.2595 36.9901 42.9895 38.2201 42.8995 39.2701C42.7195 41.0401 43.1395 42.0301 43.3195 42.3301C45.2095 45.3001 49.7995 44.2801 50.7895 44.9101C51.7495 45.5401 54.3895 50.0401 54.3895 50.0401C54.3895 50.0401 60.0295 58.9501 58.9195 59.6101C57.8095 60.2701 54.3295 61.8301 53.5195 62.0101C52.7095 62.1901 49.4695 60.7501 47.9995 60.5401C46.5295 60.3301 43.7095 57.3001 42.1495 55.9501C40.5895 54.6001 38.1595 42.4201 38.1595 42.4201L37.0195 39.1501Z" fill="url(#paint0_linear)"/>
<path d="M59.7901 28.3198C59.7901 28.3198 58.56 26.0998 56.67 27.2998C54.81 28.4998 50.7 29.5798 47.46 29.6998C44.22 29.8198 41.01 28.7998 41.01 28.7998C41.01 28.7998 41.52 33.3598 40.77 34.6798C40.05 35.9998 38.22 37.7098 38.28 39.1798C38.31 40.6798 38.61 42.1498 38.61 42.1498L38.7301 46.6198C38.7301 46.6198 38.97 48.7198 38.76 50.3698C38.58 52.0198 37.7401 54.7198 37.7401 54.7198C37.7401 54.7198 33.6601 45.8098 30.3901 42.2998C27.1501 38.7898 24.9001 31.0498 30.1201 27.4798C30.1201 27.4798 29.31 20.0998 36.93 17.8798C44.55 15.6598 49.92 19.4098 53.1 17.9098C56.28 16.4098 56.88 15.8698 58.65 16.3198C60.96 16.9198 63.6301 20.4898 62.43 24.3598C61.2601 28.2298 59.7901 28.3198 59.7901 28.3198Z" fill="#202020"/>
<path d="M61.8597 46.7994C61.7997 48.5994 61.5897 50.0694 60.3597 50.0694C59.0997 50.0694 58.7097 48.7494 55.8897 49.0194C53.0397 49.2594 51.2997 51.5694 49.4997 52.2594C47.6997 52.9494 42.5697 49.2894 41.1297 45.4494C39.7197 41.6094 38.6697 37.8594 38.6697 37.8594L37.4697 39.3594C37.4697 39.3594 39.1197 46.4094 39.6897 50.5794C40.2597 54.7494 43.1697 60.5394 48.2397 62.4894C53.3097 64.4394 60.2097 62.5494 61.4097 61.0494C62.6097 59.5494 62.1597 54.7194 62.5197 52.5594C62.8797 50.4294 61.8597 46.7994 61.8597 46.7994Z" fill="#202020"/>
<path d="M30.1197 27.4794C30.1197 27.4794 29.3097 20.0994 36.9297 17.8794C39.2097 17.2194 41.2797 17.0994 43.1397 17.1894C40.8897 19.8894 39.8697 23.5794 40.6497 27.2694C40.7697 27.7794 40.8897 28.2894 41.0697 28.7994C41.0397 28.7994 40.9797 28.7694 40.9797 28.7694C40.9797 28.7694 41.4897 33.3294 40.7397 34.6494C40.0197 35.9694 38.1897 37.6794 38.2497 39.1494C38.2797 40.6494 38.5797 42.1194 38.5797 42.1194L38.6997 46.5894C38.6997 46.5894 38.9397 48.6894 38.7297 50.3394C38.5497 51.9894 37.7397 54.6894 37.7397 54.6894C37.7397 54.6894 33.6297 45.7794 30.3597 42.2694C27.1197 38.7594 24.8997 31.0494 30.1197 27.4794Z" fill="url(#paint1_linear)"/>
<path d="M53.9699 39.1205C54.2399 41.7305 54.5999 44.3405 54.9899 46.9205C55.0199 47.1305 55.0499 47.3405 55.1699 47.5205C55.4399 47.9105 56.0099 47.9105 56.4899 47.8805C56.6399 47.8805 56.7899 47.8505 56.9099 47.7605C57.2099 47.5505 57.1199 47.1005 56.9999 46.7705C56.0699 44.0705 55.4099 41.2805 54.9899 38.4305C54.9599 38.2805 54.9299 38.1005 54.8099 37.9805C54.2099 37.4405 53.9099 38.7905 53.9699 39.1205Z" fill="#E99B8D"/>
<path d="M54.6296 33.75C54.5396 33.51 54.5096 33.18 54.7496 33.03C54.9896 32.88 55.2896 33.15 55.4096 33.42C55.5296 33.69 55.6196 33.99 55.8596 34.11C56.0396 33.87 56.0996 33.51 55.9796 33.21C55.9496 33.12 55.8896 33.03 55.9496 32.94C55.9796 32.85 56.0696 32.82 56.1596 32.79C58.0796 32.16 60.4196 32.94 61.5296 34.65C61.6196 34.8 61.6496 35.07 61.4696 35.07C61.0496 34.8 60.6296 34.5 60.2096 34.23C59.7896 33.96 59.3696 33.69 58.8896 33.57C58.2296 33.42 57.5396 33.57 56.9696 33.93C56.6696 34.11 55.8296 35.25 55.5596 35.25C55.1396 35.31 54.7496 34.08 54.6296 33.75Z" fill="#202020"/>
<path d="M50.9399 33.33C50.8499 33.24 50.7599 33.18 50.6399 33.21C50.4599 33.24 50.3999 33.45 50.3699 33.6C50.2499 34.23 50.1599 34.83 50.0399 35.46C49.7399 35.19 49.5599 34.8 49.5299 34.41C49.5299 34.32 49.4999 34.2 49.4399 34.14C49.3799 34.08 49.2599 34.05 49.1399 34.08C47.6099 34.14 46.1099 34.68 44.8799 35.61C44.3999 35.97 43.9499 36.48 44.0399 37.05C44.4899 36.51 45.0599 36.06 45.7199 35.79C47.5799 35.07 48.5999 36.18 50.2199 36.69C51.0599 36.96 51.0299 36.63 51.1499 35.76C51.2999 35.01 51.5399 33.93 50.9399 33.33Z" fill="#202020"/>
<path d="M47.6096 40.9497C47.7296 41.6997 48.0896 42.2997 48.4496 42.2397C48.8096 42.1797 48.9896 41.5197 48.8996 40.7697C48.7796 40.0197 48.4196 39.4197 48.0596 39.4797C47.6996 39.5397 47.4896 40.1997 47.6096 40.9497Z" fill="#202020"/>
<path d="M58.4699 39.3599C58.5899 40.1099 58.9499 40.7099 59.3099 40.6499C59.6699 40.5899 59.8499 39.9299 59.7599 39.1799C59.6399 38.4299 59.2799 37.8299 58.9199 37.8899C58.5299 37.9499 58.3499 38.6099 58.4699 39.3599Z" fill="#202020"/>
<path d="M86.6399 89.9998H60.8999C60.8699 74.8798 61.1999 64.0498 61.1999 64.0498C61.1999 64.0498 81.4799 66.3598 86.6399 72.6598V89.9998Z" fill="#9DCAF3"/>
<path d="M63.0002 39.93L61.4102 39.21" stroke="#202020" stroke-miterlimit="10" stroke-linecap="round"/>
<path d="M35.52 38.7002C35.52 38.7002 36.39 38.7302 38.52 39.5102C40.65 40.2902 46.41 42.1202 46.41 42.1202" stroke="#202020" stroke-miterlimit="10"/>
<path d="M56.16 41.46L53.73 41.79" stroke="#202020" stroke-miterlimit="10"/>
<path d="M47.19 44.7302L53.52 43.9502C53.79 43.9202 53.97 43.6802 53.94 43.4102L53.7 41.5502C53.67 41.2802 53.43 41.1002 53.16 41.1302L46.83 41.9102C46.56 41.9402 46.38 42.1802 46.41 42.4502L46.65 44.3102C46.68 44.5802 46.92 44.7602 47.19 44.7302Z" stroke="#202020" stroke-miterlimit="10"/>
<path d="M56.7603 43.53L63.0903 42.75C63.3603 42.72 63.5403 42.48 63.5103 42.21L63.2703 40.35C63.2403 40.08 63.0003 39.9 62.7303 39.93L56.4003 40.71C56.1303 40.74 55.9503 40.98 55.9803 41.25L56.2203 43.11C56.2803 43.38 56.5203 43.56 56.7603 43.53Z" stroke="#202020" stroke-miterlimit="10"/>
<path d="M56.7603 43.53L63.0903 42.75C63.3603 42.72 63.5403 42.48 63.5103 42.21L63.2703 40.35C63.2403 40.08 63.0003 39.9 62.7303 39.93L56.4003 40.71C56.1303 40.74 55.9503 40.98 55.9803 41.25L56.2203 43.11C56.2803 43.38 56.5203 43.56 56.7603 43.53Z" fill="url(#paint2_linear)"/>
<path d="M47.19 44.7302L53.52 43.9502C53.79 43.9202 53.97 43.6802 53.94 43.4102L53.7 41.5502C53.67 41.2802 53.43 41.1002 53.16 41.1302L46.83 41.9102C46.56 41.9402 46.38 42.1802 46.41 42.4502L46.65 44.3102C46.68 44.5802 46.92 44.7602 47.19 44.7302Z" fill="url(#paint3_linear)"/>
<path d="M37.0197 39.1494C36.5397 38.9994 36.1497 38.6694 35.6997 38.4294C35.2497 38.1894 34.6797 38.0994 34.2597 38.3694C33.9597 38.5794 33.8097 38.9394 33.6897 39.2994C33.2397 40.6794 33.0297 42.2694 33.8697 43.4694C34.3797 44.1894 35.2197 44.6394 36.0897 44.8494C36.9597 45.0594 37.8597 45.0594 38.7297 45.0594" fill="#F5C7B0"/>
<path d="M37.3195 40.2589C36.9295 40.1089 36.5695 39.8989 36.1495 39.7789C35.7595 39.6589 35.2795 39.6589 34.9495 39.9289C34.5895 40.2289 34.4995 40.7689 34.4995 41.2489C34.4995 41.6389 34.4995 42.0589 34.5295 42.4489C34.5295 42.5689 34.5595 42.6889 34.5895 42.8089C34.6795 42.9889 34.8295 43.1089 35.0095 43.1989C35.6995 43.5889 36.5695 43.5889 37.2595 43.2289C37.3795 43.1689 37.4995 43.0789 37.5595 42.9589C37.6195 42.8389 37.6195 42.6589 37.5895 42.5089C37.4995 41.7889 37.4995 40.3489 37.3195 40.2589Z" fill="#E99B8D"/>
<path d="M37.0197 39.1494C36.5397 38.9994 36.1497 38.6694 35.6997 38.4294C35.2497 38.1894 34.6797 38.0994 34.2597 38.3694C33.9597 38.5794 33.8097 38.9394 33.6897 39.2994C33.2397 40.6794 33.0297 42.2694 33.8697 43.4694C34.3797 44.1894 35.2197 44.6394 36.0897 44.8494C36.9597 45.0594 37.8597 45.0594 38.7297 45.0594" fill="url(#paint4_linear)"/>
<path d="M53.3696 55.1094C53.3696 55.1094 56.3696 56.3994 58.1696 55.1094" stroke="#F5C7B0" stroke-miterlimit="10" stroke-linecap="round"/>
</g>
<defs>
<linearGradient id="paint0_linear" x1="59.4606" y1="41.3697" x2="38.3248" y2="45.776" gradientUnits="userSpaceOnUse">
<stop stop-color="white" stop-opacity="0"/>
<stop offset="0.9798" stop-color="white" stop-opacity="0.4899"/>
<stop offset="1" stop-color="white" stop-opacity="0.5"/>
</linearGradient>
<linearGradient id="paint1_linear" x1="46.657" y1="34.3724" x2="27.6663" y2="38.3316" gradientUnits="userSpaceOnUse">
<stop stop-color="white" stop-opacity="0"/>
<stop offset="0.9798" stop-color="white" stop-opacity="0.4899"/>
<stop offset="1" stop-color="white" stop-opacity="0.5"/>
</linearGradient>
<linearGradient id="paint2_linear" x1="63.3925" y1="40.7736" x2="56.0987" y2="42.5728" gradientUnits="userSpaceOnUse">
<stop stop-color="white" stop-opacity="0"/>
<stop offset="0.9798" stop-color="white" stop-opacity="0.4899"/>
<stop offset="1" stop-color="white" stop-opacity="0.5"/>
</linearGradient>
<linearGradient id="paint3_linear" x1="53.8022" y1="41.975" x2="46.5084" y2="43.7743" gradientUnits="userSpaceOnUse">
<stop stop-color="white" stop-opacity="0"/>
<stop offset="0.9798" stop-color="white" stop-opacity="0.4899"/>
<stop offset="1" stop-color="white" stop-opacity="0.5"/>
</linearGradient>
<linearGradient id="paint4_linear" x1="42.41" y1="41.5936" x2="33.255" y2="41.6201" gradientUnits="userSpaceOnUse">
<stop stop-color="white" stop-opacity="0"/>
<stop offset="0.9798" stop-color="white" stop-opacity="0.4899"/>
<stop offset="1" stop-color="white" stop-opacity="0.5"/>
</linearGradient>
<clipPath id="clip0">
<rect width="90" height="90" fill="white"/>
</clipPath>
</defs>
</svg>
