<?xml version="1.0" encoding="utf-8"?>
<svg width="90" height="90" viewBox="0 0 90 90" fill="none" xmlns="http://www.w3.org/2000/svg">
<g clip-path="url(#clip0)">
<path d="M45.0002 89.9097C67.6494 89.9097 86.0102 71.5488 86.0102 48.8996C86.0102 26.2505 67.6494 7.88965 45.0002 7.88965C22.351 7.88965 3.99023 26.2505 3.99023 48.8996C3.99023 71.5488 22.351 89.9097 45.0002 89.9097Z" fill="#FFEEE7"/>
<path d="M36.8102 30.3889C36.8102 30.3889 39.4502 52.2589 39.8402 52.9189C41.3102 55.3189 48.9603 61.0789 54.0903 61.3789C59.2203 61.6789 62.8203 54.0889 62.4303 48.6589C62.4003 48.2389 62.3703 47.7889 62.3403 47.2489C62.1903 45.1489 62.0103 42.2389 61.8303 39.3289C61.6203 36.0289 61.4103 32.6689 61.2903 30.4489C61.2003 28.7689 61.1103 27.7189 61.1103 27.7189C61.1103 27.7189 61.2903 26.3389 60.6903 24.8089C59.6103 22.1689 56.1303 19.1689 45.0303 22.4689C36.2402 25.1089 36.8102 30.3889 36.8102 30.3889Z" fill="#F5C7B0"/>
<path d="M56.8504 45.8394C56.8804 46.6494 57.9604 48.5694 58.5904 49.0794C59.2804 49.6194 60.4504 49.3194 61.2904 49.0494C61.5904 48.9594 62.0704 47.4294 62.3404 47.2794C62.1904 45.1794 62.0104 42.2694 61.8304 39.3594C61.8904 40.1394 60.7804 40.8894 60.1804 41.2494C59.5804 41.6094 57.3904 41.7294 57.0304 42.3594C56.6104 43.1094 56.8204 45.0294 56.8504 45.8394Z" fill="url(#paint0_linear)"/>
<path d="M37.8302 32.6393C37.9202 31.0493 38.3702 29.4593 39.2702 28.1393C40.7702 25.9793 43.3202 24.8693 45.8102 24.0593C49.0502 23.0393 52.4702 22.4393 55.8602 22.2893C56.2802 22.2593 56.7302 22.2593 57.1202 22.4393C57.4202 22.5593 57.6902 22.7993 57.9602 23.0393C58.8002 23.7293 59.7602 24.2393 60.6902 24.8093C61.2902 26.3093 61.1102 27.7193 61.1102 27.7193C61.1702 28.5893 61.3202 29.5193 61.2602 30.4193C61.2602 30.3293 58.8302 29.8193 58.6802 29.7893C57.4202 29.5493 56.1002 29.4893 54.8702 29.8493C53.7902 30.1493 53.1002 31.6193 51.9302 31.5893C51.2402 31.5593 50.7602 30.9293 50.2202 30.5093C48.6602 29.2793 46.9502 29.9993 45.5402 31.0493C44.3102 31.9493 42.8102 32.8493 42.0602 34.2293C41.5802 35.1293 41.6402 37.2893 41.7002 38.2793C41.7302 38.5193 42.0902 39.8093 42.4802 41.1593C42.6002 41.2793 42.6902 41.3693 42.8102 41.4593C43.4102 41.9693 44.0702 42.3593 44.7902 42.6593C46.2302 43.2293 47.8802 43.3793 49.3802 42.9593C49.8002 42.8393 50.2202 42.6893 50.6702 42.7493C51.2402 42.8393 51.6302 43.3193 51.9602 43.7993C52.6802 44.8493 53.2502 46.1393 52.9202 47.3693C52.7402 48.0593 52.2902 48.6293 51.8402 49.1393C51.5102 49.5293 51.1502 49.8893 50.6702 50.0993C50.2502 50.2793 49.8002 50.2793 49.3502 50.2793C48.4202 50.2793 47.4602 50.3093 46.5902 50.0093C45.0602 49.4993 43.9202 48.1793 43.1102 46.7993C42.4802 45.7193 41.9702 44.5793 41.6102 43.3793C40.9802 42.8393 40.3502 42.3293 40.1402 42.4193C39.4802 42.6893 39.4202 39.9293 39.0002 39.3593C38.5802 38.8193 38.4002 38.0993 38.2802 37.4093C37.9502 35.8193 37.7102 34.2293 37.8302 32.6393Z" fill="url(#paint1_linear)"/>
<path d="M12.0903 89.9997H79.1403C79.1403 89.9997 79.7103 81.4497 74.2803 73.8597C71.1903 69.5697 56.6403 65.1297 56.6403 65.1297C56.6403 65.1297 58.5603 72.1197 47.4903 71.2497C40.4703 70.7097 35.9103 63.1797 35.9103 63.1797C35.9103 63.1797 23.3103 65.4897 19.7403 67.5897C18.9903 68.0397 17.7303 69.5397 17.5203 69.8697C11.8503 78.5697 12.0903 89.9997 12.0903 89.9997Z" fill="#52C798"/>
<path d="M63.9901 67.7997L54.3901 64.1997L54.0901 61.3797L40.0201 52.8896L39.8701 62.1297L33.1201 63.9297C33.1201 63.9297 45.4201 74.8797 50.3701 74.1297C55.2901 73.3497 63.9901 67.7997 63.9901 67.7997Z" fill="#52C798"/>
<path opacity="0.6" d="M39.9004 58.0194L40.0204 53.3994L54.1204 61.3494L54.1804 61.9494C49.2004 62.5794 44.4904 61.7694 39.9004 58.0194Z" fill="#46A57C"/>
<path d="M35.94 38.8191C35.94 38.8191 37.41 38.9391 38.19 40.1091L39.03 44.6991C39.03 44.6991 39.66 44.4591 40.5 44.0391C40.32 41.5191 40.11 33.0891 40.11 33.0891C40.11 33.0891 43.38 31.5291 43.56 26.0991C43.56 26.0391 43.56 25.9791 43.56 25.8891C43.56 25.8891 48.45 26.6991 53.97 26.3091C53.97 26.3091 68.91 26.4291 62.16 20.2791C62.16 20.2791 48.96 7.67911 37.71 22.0191C37.71 22.0191 37.71 22.0191 37.68 22.0191C37.26 22.1391 33.48 23.2791 33.24 26.9991C32.97 32.3991 35.94 38.8191 35.94 38.8191Z" fill="#6E311E"/>
<path d="M35.94 38.8188C35.94 38.8188 37.41 38.9388 38.19 40.1088L39.03 44.6988C39.03 44.6988 39.66 44.4588 40.5 44.0388C40.32 41.5188 40.11 33.0888 40.11 33.0888C40.11 33.0888 43.38 31.5288 43.56 26.0988C42.39 25.2888 39.66 23.3988 37.68 22.0488C37.26 22.1688 33.48 23.3088 33.24 27.0288C32.97 32.3988 35.94 38.8188 35.94 38.8188Z" fill="url(#paint2_linear)"/>
<path d="M38.7002 42.7788V52.8888C38.7002 52.8888 44.2502 58.6188 50.2502 60.6588C51.5102 61.0788 52.8302 61.3488 54.0902 61.3788C60.5102 61.4988 62.0402 55.3788 62.0402 55.3788C62.0402 55.3788 64.0202 51.3288 62.0402 42.6588C62.0402 42.6588 62.8202 48.5988 60.2402 49.0488C59.1602 49.2288 58.1402 47.8488 55.6502 47.7888C53.0102 47.7288 51.3602 48.9588 49.9802 48.4788C49.7402 48.3888 49.4402 48.2388 49.0802 48.0288C46.1702 46.2888 40.3202 40.7988 40.3202 40.7988L38.7002 42.7788Z" fill="#6E311E"/>
<path d="M52.6502 38.0394C52.8302 41.3394 52.8602 43.7094 53.8802 46.5294C53.9702 46.7694 54.0601 46.9794 54.2101 47.1594C54.6001 47.5494 56.8801 47.3994 57.3901 47.2494C57.5401 47.2194 57.7201 47.1594 57.8401 47.0394C58.1101 46.7394 57.9301 46.2594 57.7201 45.9294C56.1001 43.1094 54.7201 40.1694 53.6402 37.1094C53.5802 36.9294 53.5202 36.7494 53.3402 36.6594C52.5602 36.1194 52.6202 37.6794 52.6502 38.0394Z" fill="#E99B8D"/>
<path d="M55.1705 31.1391C55.1405 30.8691 55.1705 30.5091 55.4405 30.4191C55.7405 30.3291 55.9805 30.6591 56.0405 30.9591C56.1005 31.2591 56.0105 30.1191 56.2805 30.2991C56.5205 30.0591 56.7905 31.1991 56.7305 30.8691C56.7005 30.7791 56.7005 30.6591 56.7305 30.5991C56.7905 30.5391 56.8805 30.5091 56.9705 30.4791C59.1305 30.2091 61.4105 31.4991 62.2505 33.5091C62.3105 33.6891 62.2805 33.9891 62.1005 33.9291C61.7105 33.5391 61.3205 33.1791 60.9305 32.7891C60.5405 32.4291 60.1505 32.0391 59.6705 31.8291C59.0105 31.5291 58.2605 31.5591 57.5705 31.7991C57.2105 31.9191 56.1005 32.9391 55.8305 32.9091C55.3505 32.8791 55.2005 31.4991 55.1705 31.1391Z" fill="#602A1C"/>
<path d="M48.9903 31.3797C48.9603 31.1097 48.8403 30.7497 48.5703 30.7497C48.2703 30.7197 48.0903 31.1097 48.1203 31.4097C48.1203 31.7097 47.9403 30.5997 47.7303 30.8097C47.4303 30.6597 47.4603 31.7997 47.4303 31.4697C47.4303 31.3797 47.4303 31.2597 47.3703 31.1997C47.3103 31.1397 47.1903 31.1397 47.1303 31.1397C44.9703 31.3497 43.0503 33.1497 42.6903 35.3097C42.6603 35.4897 42.7503 35.7597 42.9303 35.6997C43.2303 35.2497 43.5003 34.7997 43.8003 34.3197C44.1003 33.8697 44.4003 33.4197 44.8203 33.0897C45.3903 32.6697 46.1403 32.5197 46.8603 32.6097C47.2203 32.6397 48.5703 33.3897 48.8103 33.2997C49.1703 33.1197 49.0203 31.7397 48.9903 31.3797Z" fill="#602A1C"/>
<path d="M46.6502 37.8287C46.7402 38.6987 47.1302 39.3587 47.5202 39.3287C47.9102 39.2987 48.1802 38.5487 48.0902 37.6787C48.0002 36.8087 47.6102 36.1487 47.2202 36.1787C46.8302 36.2087 46.5602 36.9587 46.6502 37.8287Z" fill="#202020"/>
<path d="M57.24 37.4986C57.33 38.3686 57.72 39.0286 58.11 38.9986C58.5 38.9686 58.77 38.2186 58.68 37.3486C58.59 36.4786 58.2 35.8186 57.81 35.8486C57.42 35.8786 57.15 36.6286 57.24 37.4986Z" fill="#202020"/>
<path d="M57.8105 52.5293C55.7405 54.0593 52.7105 54.1793 50.5205 52.8593" stroke="#E99B8D" stroke-miterlimit="10" stroke-linecap="round" stroke-linejoin="round"/>
<path d="M42.9306 35.8496L36.3906 37.4396" stroke="#F5F1F0" stroke-miterlimit="10" stroke-linecap="round" stroke-linejoin="round"/>
<path d="M42.9306 36.6592L36.3906 37.4392" stroke="#F5F1F0" stroke-miterlimit="10" stroke-linecap="round" stroke-linejoin="round"/>
<path opacity="0.26" d="M44.4604 41.5493H49.9804C50.8204 41.5493 51.4804 40.8593 51.4804 40.0493V36.0293C51.4804 35.1893 50.7904 34.5293 49.9804 34.5293H44.4604C43.6204 34.5293 42.9604 35.2193 42.9604 36.0293V40.0493C42.9304 40.8893 43.6204 41.5493 44.4604 41.5493Z" fill="#F5F1F0"/>
<path opacity="0.26" d="M56.6704 41.5493H62.1904C63.0304 41.5493 63.6904 40.8593 63.6904 40.0493V36.0293C63.6904 35.1893 63.0004 34.5293 62.1904 34.5293H56.6704C55.8304 34.5293 55.1704 35.2193 55.1704 36.0293V40.0493C55.1404 40.8893 55.8304 41.5493 56.6704 41.5493Z" fill="#F5F1F0"/>
<path d="M44.4604 41.5493H49.9804C50.8204 41.5493 51.4804 40.8593 51.4804 40.0493V36.0293C51.4804 35.1893 50.7904 34.5293 49.9804 34.5293H44.4604C43.6204 34.5293 42.9604 35.2193 42.9604 36.0293V40.0493C42.9304 40.8893 43.6204 41.5493 44.4604 41.5493Z" stroke="white" stroke-miterlimit="10"/>
<path d="M56.6704 41.5493H62.1904C63.0304 41.5493 63.6904 40.8593 63.6904 40.0493V36.0293C63.6904 35.1893 63.0004 34.5293 62.1904 34.5293H56.6704C55.8304 34.5293 55.1704 35.2193 55.1704 36.0293V40.0493C55.1404 40.8893 55.8304 41.5493 56.6704 41.5493Z" stroke="white" stroke-miterlimit="10"/>
<path d="M55.171 36.1797H51.481" stroke="white" stroke-miterlimit="10"/>
<path d="M38.7002 42.7791V52.8891C38.7002 52.8891 44.2502 58.6191 50.2502 60.6591C48.8402 58.4691 45.4202 52.2591 49.1102 48.0591C46.2002 46.3191 40.3502 40.8291 40.3502 40.8291L38.7002 42.7791Z" fill="url(#paint3_linear)"/>
<path d="M38.2206 38.3392C37.6806 38.0392 37.5606 37.7092 37.0806 37.3192C36.6006 36.9292 35.9406 36.6592 35.3706 36.8992C34.9506 37.0792 34.6806 37.4692 34.4406 37.8892C33.5406 39.4192 32.9106 41.2792 33.6006 42.8992C34.0206 43.8892 34.9206 44.6392 35.9106 45.0892C36.9006 45.5392 37.6506 45.6292 38.7306 45.8392" fill="#F5C7B0"/>
<path d="M37.8006 39.6591C37.5006 39.4191 37.2606 39.0891 36.9306 38.8491C36.6306 38.6391 36.2106 38.5491 35.8806 38.8191C35.4906 39.1491 35.2806 39.8091 35.1606 40.4391C35.0406 40.9491 34.9506 41.4591 34.8906 41.9991C34.8606 42.1491 34.8306 42.3291 34.8606 42.4791C34.8906 42.7191 34.9806 42.8991 35.1006 43.0491C35.5806 43.6491 36.3006 43.8291 36.9906 43.4991C37.1106 43.4391 37.2306 43.3491 37.3206 43.2291C37.4106 43.0791 37.4406 42.8691 37.4706 42.6591C37.5606 41.6091 37.9206 39.7491 37.8006 39.6591Z" fill="#E99B8D"/>
<path d="M38.3404 38.8192C37.8004 38.5192 37.5904 37.7092 37.1104 37.3192C36.6304 36.9292 35.9704 36.6592 35.4004 36.8992C34.9804 37.0792 34.7104 37.4692 34.4704 37.8892C33.5704 39.4192 32.9404 41.2792 33.6304 42.8992C34.0504 43.8892 34.9504 44.6392 35.9404 45.0892C36.9304 45.5392 37.6504 45.5092 38.7304 45.7192" fill="url(#paint4_linear)"/>
</g>
<defs>
<linearGradient id="paint0_linear" x1="54.3063" y1="43.8946" x2="61.6941" y2="44.4396" gradientUnits="userSpaceOnUse">
<stop stop-color="white" stop-opacity="0"/>
<stop offset="0.9798" stop-color="white" stop-opacity="0.4899"/>
<stop offset="1" stop-color="white" stop-opacity="0.5"/>
</linearGradient>
<linearGradient id="paint1_linear" x1="61.2814" y1="36.2842" x2="37.7967" y2="36.2842" gradientUnits="userSpaceOnUse">
<stop stop-color="white" stop-opacity="0"/>
<stop offset="0.9798" stop-color="white" stop-opacity="0.4899"/>
<stop offset="1" stop-color="white" stop-opacity="0.5"/>
</linearGradient>
<linearGradient id="paint2_linear" x1="43.5895" y1="33.3595" x2="33.2675" y2="33.3595" gradientUnits="userSpaceOnUse">
<stop stop-color="#6E311E" stop-opacity="0.5"/>
<stop offset="1" stop-color="#592719"/>
</linearGradient>
<linearGradient id="paint3_linear" x1="50.2628" y1="50.7477" x2="38.7045" y2="50.7477" gradientUnits="userSpaceOnUse">
<stop stop-color="#6E311E" stop-opacity="0.5"/>
<stop offset="1" stop-color="#592719"/>
</linearGradient>
<linearGradient id="paint4_linear" x1="38.7038" y1="41.2782" x2="33.3252" y2="41.2782" gradientUnits="userSpaceOnUse">
<stop stop-color="white" stop-opacity="0"/>
<stop offset="0.9798" stop-color="white" stop-opacity="0.4899"/>
<stop offset="1" stop-color="white" stop-opacity="0.5"/>
</linearGradient>
<clipPath id="clip0">
<rect width="90" height="90" fill="white"/>
</clipPath>
</defs>
</svg>
