<?xml version="1.0" encoding="utf-8"?>
<svg width="90" height="90" viewBox="0 0 90 90" fill="none" xmlns="http://www.w3.org/2000/svg">
<g clip-path="url(#clip0)">
<path d="M45.0002 89.9106C67.6494 89.9106 86.0102 71.5498 86.0102 48.9006C86.0102 26.2514 67.6494 7.89062 45.0002 7.89062C22.351 7.89062 3.99023 26.2514 3.99023 48.9006C3.99023 71.5498 22.351 89.9106 45.0002 89.9106Z" fill="#FFEEE7"/>
<path d="M53.0105 47.9111C53.0705 48.3911 54.1205 58.4111 54.3005 66.0911C54.3905 69.8711 50.6105 73.4411 46.8305 73.5311C46.7705 73.5311 46.7105 73.5311 46.6505 73.5311C42.9605 73.5311 38.6105 70.1711 38.9405 66.4811C39.5405 59.7911 39.0905 52.9211 39.0605 52.8311L53.0105 47.9111Z" fill="#F5C7B0"/>
<path d="M53.0105 47.9111C53.0705 48.3911 54.1205 58.4111 54.3005 66.0911C54.3905 69.8711 50.6105 73.4411 46.8305 73.5311C46.7705 73.5311 46.7105 73.5311 46.6505 73.5311C42.9605 73.5311 38.6105 70.1711 38.9405 66.4811C39.5405 59.7911 39.0905 52.9211 39.0605 52.8311L53.0105 47.9111Z" fill="url(#paint0_linear)"/>
<path d="M34.9803 42.3007C31.8903 43.7407 30.5703 43.7707 29.4303 39.9307C28.5603 36.9607 27.1203 26.4907 31.8903 25.8007C36.6603 25.1107 40.4103 24.9607 39.8403 31.4107C39.3303 37.8607 38.6403 40.5907 34.9803 42.3007Z" fill="#202020"/>
<path d="M29.9704 37.8605C29.9704 38.2505 29.9704 38.6405 29.9704 39.0305C29.9704 39.1805 29.9704 39.3605 29.9704 39.5105C29.9704 40.1405 30.0004 40.7405 30.0304 41.3405C30.0304 41.3705 30.0304 41.4005 30.0304 41.4605C30.0604 41.8505 30.0604 42.2105 30.0904 42.5705C30.1204 43.1705 30.1804 43.7705 30.2404 44.3405C30.2404 44.4005 30.2404 44.4605 30.2704 44.5205C30.3004 44.7305 30.3004 44.9405 30.3304 45.1205L30.3604 45.5105C30.6304 47.8205 30.9904 49.7405 31.3504 51.1205C31.3804 51.2405 31.4104 51.3605 31.4404 51.4805C31.6804 52.3505 32.0404 53.2805 32.5204 54.1805C32.5504 54.2405 32.5804 54.3005 32.6404 54.3605C33.3304 55.6505 34.2904 56.8505 35.4004 57.8105C35.4904 57.8705 35.5804 57.9605 35.6404 58.0205C35.6404 58.0205 35.6704 58.0505 35.7004 58.0505C35.7604 58.1105 35.8204 58.1405 35.8804 58.2005C35.9404 58.2305 36.0004 58.2905 36.0304 58.3205C36.1504 58.4105 36.2404 58.4705 36.3604 58.5605C36.5404 58.6805 36.6904 58.7705 36.8704 58.8605C36.9604 58.9205 37.0504 58.9505 37.1404 59.0105C37.5904 59.2505 38.0704 59.4005 38.5504 59.5205C38.7304 59.5805 38.9404 59.6105 39.1504 59.6405C39.2404 59.6405 39.3304 59.6705 39.4204 59.6705C39.6304 59.7005 39.8404 59.7005 40.0804 59.7005C44.1304 59.7005 49.4704 58.0805 53.2204 54.6005C53.8204 54.0305 54.3304 53.5205 54.7804 53.0105C56.3104 51.2105 56.9404 49.5005 57.4204 46.4105C57.4204 46.3805 57.4204 46.3805 57.4204 46.3505C57.4204 46.3205 57.4204 46.2605 57.4504 46.2005C57.5704 45.3605 57.6904 44.4605 57.8104 43.4105C57.8104 43.3805 57.8104 43.3805 57.8104 43.3505V43.3205C57.9004 42.5105 57.9904 41.6105 58.0804 40.6505C58.1404 39.9305 58.2004 39.2405 58.2604 38.5805C58.1404 38.1605 57.9904 37.7405 57.9004 37.3205C57.6904 36.2705 57.8104 35.2205 57.7504 34.1405C57.7204 33.0905 57.4804 31.9505 56.7304 31.2005C55.9504 30.4205 54.7804 30.1805 53.7904 29.7005C52.5904 29.1005 51.6604 28.0805 50.6404 27.2105C47.7904 24.7805 44.0404 23.4605 40.3204 23.5205C38.1604 23.5805 36.0304 24.0605 33.9904 24.7205C33.9304 24.7505 33.8704 24.7505 33.8104 24.7805C33.2704 24.9605 32.7004 25.1405 32.1904 25.3805C31.6804 26.1305 31.2904 26.8805 30.9904 27.6305C30.9604 27.7505 30.9004 27.8705 30.8704 27.9605C30.8704 27.9605 30.8704 27.9605 30.8704 27.9905C30.8104 28.2005 30.7504 28.3805 30.6904 28.5905C30.6004 28.9205 30.5404 29.2505 30.4804 29.5505C30.4204 29.9405 30.3904 30.3305 30.3304 30.7505C30.3004 31.0805 30.2704 31.4405 30.2104 31.7705V31.8005C30.1804 32.1005 30.1504 32.3705 30.1504 32.6705C30.0604 33.7805 30.0004 34.8605 29.9704 35.9405C29.9704 36.3905 29.9404 36.8405 29.9404 37.2605C29.9704 37.4405 29.9704 37.6505 29.9704 37.8605Z" fill="#F5C7B0"/>
<path d="M30.0005 35.9105C32.4605 34.2005 37.0205 33.0305 38.7305 32.9105C40.4405 32.7905 42.1805 32.3105 43.8305 32.7305C45.4505 33.1205 46.8605 34.4105 47.4005 36.0005C48.3005 38.6105 46.8905 41.4605 45.1505 43.6205C44.3105 44.6705 42.8105 46.0505 42.6005 47.4005C42.2705 49.5305 43.7405 51.9005 45.2405 53.1605C46.5005 54.2105 48.7805 55.3205 50.1305 55.3205C51.3305 55.3205 53.5805 54.3305 54.8405 53.0105C56.3705 51.2105 57.0005 49.5005 57.4805 46.4105C57.4805 46.3805 57.4805 46.3805 57.4805 46.3505C57.4805 46.3205 57.4805 46.2605 57.5105 46.2005C57.6305 45.3605 57.7505 44.4605 57.8705 43.4105C57.8705 43.3805 57.8705 43.3805 57.8705 43.3505V43.3205C57.9605 42.5105 58.0505 41.6105 58.1405 40.6505C58.2005 39.9305 58.2605 39.2405 58.3205 38.5805C58.2005 38.1605 58.0505 37.7405 57.9605 37.3205C57.7505 36.2705 57.8705 35.2205 57.8105 34.1405C57.7805 33.0905 57.5405 31.9505 56.7905 31.2005C56.0105 30.4205 54.8405 30.1805 53.8505 29.7005C52.6505 29.1005 51.7205 28.0805 50.7005 27.2105C47.8505 24.7805 44.1005 23.4605 40.3805 23.5205C38.2205 23.5805 36.0905 24.0605 34.0505 24.7205C33.9905 24.7505 33.9305 24.7505 33.8705 24.7805C33.7805 25.8605 31.7105 26.1905 31.0505 27.6305C30.9905 27.7205 30.9605 27.8405 30.9305 27.9305V27.9605C30.9305 27.9605 30.9305 27.9605 30.9305 27.9905C30.9005 28.1405 30.8105 28.3505 30.7505 28.5905C30.6605 28.9205 30.6005 29.2505 30.5405 29.5505C30.4805 29.9405 30.4505 30.3305 30.3905 30.7505C30.3605 31.0805 30.3305 31.4405 30.2705 31.7705V31.8005C30.2405 32.1005 30.2105 32.3705 30.2105 32.6705C30.0905 33.7805 30.0305 34.8605 30.0005 35.9105Z" fill="url(#paint1_linear)"/>
<path d="M16.7106 76.5911C17.9106 72.3311 21.3306 67.7411 26.0406 65.2211C29.9406 63.1511 36.9606 62.1611 39.8406 62.1611H49.4106C52.6206 62.1611 63.8106 63.7811 66.8106 65.0411C75.3006 68.6411 75.6906 76.5611 71.7006 89.6411C71.6706 89.7611 71.6406 89.8811 71.6106 90.0011H29.1906H14.5806C15.0606 84.3611 15.7206 80.1311 16.7106 76.5911Z" fill="#F1A557"/>
<path d="M58.0807 39.3303C55.7707 41.6403 54.5407 42.0903 52.2907 39.0003C50.5507 36.6003 45.8107 27.6003 49.8907 25.4103C53.9707 23.2203 57.3307 21.8703 58.9207 27.8703C60.5407 33.9003 60.8407 36.5703 58.0807 39.3303Z" fill="#202020"/>
<path d="M55.5609 40.7709C54.3609 43.741 54.6309 46.651 56.1909 47.281C57.7509 47.911 59.9709 46.021 61.2009 43.081C62.4009 40.111 62.1309 37.201 60.5709 36.5709C59.0109 35.9109 56.7609 37.8009 55.5609 40.7709Z" fill="#F5C7B0"/>
<path d="M57.0904 41.0403C59.1004 46.1403 55.3504 45.6903 56.3704 46.1103C57.5104 46.5903 59.1604 45.1803 60.0604 42.9903C60.9604 40.8003 60.7504 38.6403 59.6104 38.1903C58.4704 37.7103 56.7904 40.3203 57.0904 41.0403Z" fill="#E99B8D"/>
<path d="M55.5609 40.7709C54.3609 43.741 54.6309 46.651 56.1909 47.281C57.7509 47.911 59.9709 46.021 61.2009 43.081C62.4009 40.111 62.1309 37.201 60.5709 36.5709C59.0109 35.9109 56.7609 37.8009 55.5609 40.7709Z" fill="url(#paint2_linear)"/>
<path d="M51.8105 90.0006H70.8906C72.7806 83.6706 73.3505 80.2206 73.8605 77.6106C75.0005 71.6406 70.3206 67.9506 67.2006 67.3506C60.3605 66.0306 55.7106 73.9206 54.9306 77.0106C53.7605 81.6606 52.7405 86.0106 51.8105 90.0006Z" fill="#DD924E"/>
<path d="M38.9409 41.5809C39.4209 43.1409 38.4609 44.5508 39.9009 48.1208C39.9909 48.3608 37.8609 48.9609 37.2309 48.9909C37.0209 48.9909 36.8409 49.0209 36.6609 48.9309C36.2409 48.7209 36.2709 48.1809 36.3609 47.7309C37.1409 44.2809 36.9009 44.8809 37.6209 40.8908C37.6509 40.6808 37.6509 40.4708 37.7709 40.3208C38.4909 39.5108 38.8209 41.1009 38.9409 41.5809Z" fill="#E99B8D"/>
<path d="M40.9803 33.9906C41.0703 33.9306 41.1603 33.8706 41.2503 33.9006C41.4003 33.9306 42.9903 34.6506 43.0503 34.5906C43.1103 34.5306 43.2303 34.5306 43.3203 34.5306C44.7303 34.6806 45.3603 35.1906 46.4403 36.0906C46.8603 36.4206 47.2503 37.2006 47.1003 37.7106C46.7103 37.2006 46.2003 36.7506 45.6003 36.4806C43.9203 35.7306 42.9303 36.6906 41.4303 37.1106C40.6503 37.3206 40.7103 37.0206 40.6203 36.2106C40.5603 35.5206 40.3803 34.5306 40.9803 33.9906Z" fill="#202020"/>
<path d="M34.5903 34.3801C34.5003 34.3201 34.4103 34.2901 34.3203 34.3501C34.2003 34.4101 33.0303 35.4601 32.9703 35.4001C32.8803 35.3401 32.7903 35.3701 32.7003 35.4001C31.5003 35.8501 31.1103 36.4801 30.4503 37.5601C30.1803 37.9801 30.0903 38.7601 30.3603 39.2401C30.5403 38.6701 30.8403 38.1301 31.2903 37.7401C32.5203 36.6601 33.6903 37.3501 35.1303 37.3801C35.8803 37.4101 35.7303 37.1101 35.5803 36.3601C35.4303 35.7001 35.2803 34.7401 34.5903 34.3801Z" fill="#202020"/>
<path d="M36.3008 52.951C38.0408 53.821 40.2908 53.551 41.7608 52.291" stroke="#E99B8D" stroke-miterlimit="10" stroke-linecap="round" stroke-linejoin="round"/>
<path d="M44.1606 40.6503C44.2206 41.4603 43.9806 42.1503 43.5906 42.1803C43.2006 42.2103 42.8406 41.5803 42.7806 40.7703C42.7206 39.9603 42.9606 39.2703 43.3506 39.2403C43.7106 39.1803 44.1006 39.8103 44.1606 40.6503Z" fill="#202020"/>
<path d="M34.2305 41.1308C34.2905 41.9408 34.0505 42.6308 33.6605 42.6608C33.2705 42.6908 32.9105 42.0608 32.8505 41.2508C32.7905 40.4408 33.0305 39.7508 33.4205 39.7208C33.7805 39.6908 34.1405 40.3208 34.2305 41.1308Z" fill="#202020"/>
<path d="M29.8802 27.0907C30.5702 28.6507 36.3002 29.2507 36.3002 29.2507C37.4402 28.9807 39.3302 28.6207 41.4902 28.2607C42.3602 28.1107 43.2602 27.9607 44.1902 27.7807C48.7502 26.9707 53.6402 25.9807 55.2902 24.8407C57.0602 23.6407 57.1802 21.6307 55.4702 19.8307C54.4502 18.7507 52.8002 17.7607 50.4602 17.0707C47.3102 16.1707 44.3702 15.9607 41.7602 16.1107C41.6702 16.1107 41.5802 16.1107 41.4902 16.1407C34.5902 16.6507 29.9702 19.8007 29.5202 20.1007C29.4902 20.1007 29.4902 20.1007 29.4902 20.1007C29.8802 23.3707 29.1602 25.4407 29.8802 27.0907Z" fill="#202020"/>
<path d="M30.1504 42.5703C30.1804 43.1703 30.2404 43.7703 30.3004 44.3403C30.3004 44.4003 30.3004 44.4603 30.3304 44.5203C30.3604 44.7303 30.3604 44.9403 30.3904 45.1203L30.4204 45.5103C30.6904 47.8203 31.0504 49.7403 31.4104 51.1203C31.4404 51.2403 31.4704 51.3603 31.5004 51.4803C31.7404 52.3503 32.1004 53.2803 32.5804 54.1803C32.6104 54.2403 32.6404 54.3003 32.7004 54.3603C33.3904 55.6503 34.3504 56.8503 35.4604 57.8103C35.5504 57.8703 35.6404 57.9603 35.7004 58.0203C35.7004 58.0203 35.7304 58.0503 35.7604 58.0503C35.5204 57.9003 35.3704 57.0303 35.2204 56.7303C34.8604 56.0103 34.2304 55.2903 34.0804 54.4803C33.9304 53.7903 34.0804 53.1003 34.2904 52.4703C34.7104 51.2103 35.4904 49.9203 35.2204 48.5403C34.9804 47.3103 33.9004 46.5003 32.9704 45.6603C32.3104 45.0603 31.7104 44.4003 31.1104 43.7403C30.7504 43.3803 30.3904 42.9903 30.1504 42.5703Z" fill="url(#paint3_linear)"/>
</g>
<defs>
<linearGradient id="paint0_linear" x1="54.3159" y1="60.7337" x2="38.9548" y2="60.7337" gradientUnits="userSpaceOnUse">
<stop stop-color="#F5B48D" stop-opacity="0.5"/>
<stop offset="1" stop-color="#F5A77B" stop-opacity="0.5"/>
</linearGradient>
<linearGradient id="paint1_linear" x1="69.7144" y1="26.4862" x2="-5.99701" y2="64.1954" gradientUnits="userSpaceOnUse">
<stop stop-color="white" stop-opacity="0"/>
<stop offset="0.9798" stop-color="white" stop-opacity="0.4899"/>
<stop offset="1" stop-color="white" stop-opacity="0.5"/>
</linearGradient>
<linearGradient id="paint2_linear" x1="53.3565" y1="42.6422" x2="61.6726" y2="41.4333" gradientUnits="userSpaceOnUse">
<stop stop-color="white" stop-opacity="0"/>
<stop offset="0.9798" stop-color="white" stop-opacity="0.4899"/>
<stop offset="1" stop-color="white" stop-opacity="0.5"/>
</linearGradient>
<linearGradient id="paint3_linear" x1="35.7303" y1="50.3214" x2="30.1502" y2="50.3214" gradientUnits="userSpaceOnUse">
<stop stop-color="white" stop-opacity="0"/>
<stop offset="0.9798" stop-color="white" stop-opacity="0.4899"/>
<stop offset="1" stop-color="white" stop-opacity="0.5"/>
</linearGradient>
<clipPath id="clip0">
<rect width="90" height="90" fill="white"/>
</clipPath>
</defs>
</svg>
