<?xml version="1.0" encoding="utf-8"?>
<svg width="936" height="904" viewBox="0 0 936 904" fill="none" xmlns="http://www.w3.org/2000/svg">
<mask id="mask0" mask-type="alpha" maskUnits="userSpaceOnUse" x="4" y="-23" width="936" height="919">
<path d="M939.676 896C811.721 380.218 -160.238 841.658 29 -23H939.676V896Z" fill="#AEAEAE"/>
</mask>
<g mask="url(#mask0)">
<g filter="url(#filter0_d)">
<g clip-path="url(#clip0)">
<path d="M1018.92 -59.8297H-75.2456V944.893H1018.92V-59.8297Z" fill="#FFEEE7"/>
<g opacity="0.31">
<g opacity="0.31">
<path opacity="0.31" d="M897.201 288.535H604.89C603.069 288.535 601.551 287.017 601.551 285.196V164.184C601.551 162.363 603.069 160.845 604.89 160.845H897.201C899.022 160.845 900.54 162.363 900.54 164.184V285.196C900.54 287.017 899.022 288.535 897.201 288.535Z" fill="white"/>
<path opacity="0.31" d="M892.547 229.243V277.81C892.547 279.935 890.826 281.756 888.6 281.756H612.479C610.354 281.756 608.533 280.036 608.533 277.81V171.165C634.03 171.165 646.779 180.676 654.165 193.223C654.671 194.032 655.076 194.842 655.481 195.651C668.027 219.53 664.283 252.11 692.007 252.11C693.018 252.11 694.03 252.009 694.941 251.705C695.548 251.604 696.155 251.402 696.661 251.098C715.278 243.206 712.344 187.557 745.531 187.961C752.614 188.063 757.875 190.795 762.125 195.044C762.529 195.449 762.934 195.955 763.339 196.359C778.213 213.763 778.415 252.616 801.181 259.597C809.376 262.127 816.661 258.687 823.845 253.021C824.25 252.616 824.756 252.312 825.261 251.908C840.439 239.361 855.514 217.81 878.887 223.071C879.595 223.273 880.202 223.375 880.911 223.577C884.452 224.892 888.398 226.612 892.547 229.243Z" fill="#FF4D00"/>
<path opacity="0.8" d="M892.547 219.429C887.589 219.53 883.845 221.149 880.708 223.881C875.042 228.838 872.007 237.439 869.073 245.736C864.621 258.181 860.068 271.031 846.712 271.031C846.004 271.031 845.295 271.031 844.486 270.93C835.784 270.12 829.309 262.936 823.744 253.223C820.202 247.253 816.965 240.171 813.727 232.987C804.519 212.65 794.907 191.705 777.201 191.199C776.998 191.199 776.796 191.199 776.594 191.199C771.231 191.199 766.88 193.223 763.238 196.562C755.75 203.341 750.995 215.584 746.341 227.624C739.46 245.432 732.378 263.746 716.391 264.15C704.857 264.353 699.595 260.002 694.941 251.806C693.12 248.569 691.4 244.825 689.376 240.474C685.734 232.582 681.282 222.666 673.794 211.233C668.735 203.543 662.361 198.687 655.481 195.651C636.965 187.557 615.312 193.526 608.432 195.752V193.931C615.717 191.604 636.054 186.444 654.064 193.223C661.956 196.157 669.342 201.418 675.11 210.221C682.698 221.756 687.251 231.773 690.894 239.665C692.917 244.117 694.739 247.962 696.56 251.199C701.012 258.788 705.868 262.633 716.29 262.329C731.164 262.026 737.74 244.926 744.722 226.916C749.477 214.673 754.233 202.228 762.024 195.145C766.172 191.402 771.029 189.176 777.201 189.378C795.919 189.884 805.734 211.334 815.245 232.177C818.482 239.26 821.619 246.14 825.059 252.009C830.523 261.419 836.594 268.299 844.688 269.108C858.449 270.424 862.799 258.08 867.454 245.027C870.388 236.832 873.322 228.535 878.685 223.273C882.125 219.833 886.476 217.709 892.547 217.607V219.429Z" fill="white"/>
</g>
<g opacity="0.31">
<path opacity="0.31" d="M593.457 110.862H453.423C451.602 110.862 450.084 109.344 450.084 107.523V52.3795C450.084 50.5583 451.602 49.0406 453.423 49.0406H593.457C595.278 49.0406 596.796 50.5583 596.796 52.3795V107.523C596.796 109.344 595.278 110.862 593.457 110.862Z" fill="#FF4D00"/>
<g opacity="0.3">
<path opacity="0.3" d="M576.762 105.601H568.262C567.757 105.601 567.453 105.196 567.453 104.791V65.4318C567.453 64.9259 567.858 64.6224 568.262 64.6224H576.762C577.268 64.6224 577.571 65.0271 577.571 65.4318V104.791C577.571 105.196 577.166 105.601 576.762 105.601Z" fill="white"/>
<path opacity="0.3" d="M590.624 105.601H582.327C581.821 105.601 581.416 105.196 581.416 104.69V55.9209C581.416 55.4149 581.821 55.0102 582.327 55.0102H590.624C591.129 55.0102 591.534 55.4149 591.534 55.9209V104.69C591.534 105.196 591.129 105.601 590.624 105.601Z" fill="white"/>
<path opacity="0.3" d="M465.16 105.601H456.863C456.357 105.601 455.952 105.196 455.952 104.69V55.9209C455.952 55.4149 456.357 55.0102 456.863 55.0102H465.16C465.666 55.0102 466.07 55.4149 466.07 55.9209V104.69C466.07 105.196 465.666 105.601 465.16 105.601Z" fill="white"/>
<path opacity="0.3" d="M479.123 105.601H470.623C470.219 105.601 469.814 105.196 469.814 104.791V67.759C469.814 67.3542 470.219 66.9495 470.623 66.9495H479.123C479.527 66.9495 479.932 67.3542 479.932 67.759V104.791C479.932 105.196 479.629 105.601 479.123 105.601Z" fill="white"/>
<path opacity="0.3" d="M492.984 105.601H484.688C484.182 105.601 483.777 105.196 483.777 104.69V55.9209C483.777 55.4149 484.182 55.0102 484.688 55.0102H492.984C493.49 55.0102 493.895 55.4149 493.895 55.9209V104.69C493.895 105.196 493.49 105.601 492.984 105.601Z" fill="white"/>
<path opacity="0.3" d="M507.15 105.601H498.347C497.942 105.601 497.639 105.297 497.639 104.892V78.2817C497.639 77.877 497.942 77.5735 498.347 77.5735H507.15C507.554 77.5735 507.858 77.877 507.858 78.2817V104.892C507.858 105.297 507.554 105.601 507.15 105.601Z" fill="white"/>
<path opacity="0.3" d="M520.91 105.601H512.613C512.107 105.601 511.703 105.196 511.703 104.69V55.9209C511.703 55.4149 512.107 55.0102 512.613 55.0102H520.91C521.416 55.0102 521.821 55.4149 521.821 55.9209V104.69C521.821 105.196 521.416 105.601 520.91 105.601Z" fill="white"/>
<path opacity="0.3" d="M534.873 105.601H526.374C525.868 105.601 525.564 105.196 525.564 104.791V65.4318C525.564 64.9259 525.969 64.6224 526.374 64.6224H534.873C535.379 64.6224 535.683 65.0271 535.683 65.4318V104.791C535.784 105.196 535.379 105.601 534.873 105.601Z" fill="white"/>
<path opacity="0.3" d="M548.735 105.601H540.438C539.932 105.601 539.527 105.196 539.527 104.69V55.9209C539.527 55.4149 539.932 55.0102 540.438 55.0102H548.735C549.241 55.0102 549.646 55.4149 549.646 55.9209V104.69C549.646 105.196 549.241 105.601 548.735 105.601Z" fill="white"/>
<path opacity="0.3" d="M562.799 105.601H554.3C553.895 105.601 553.49 105.196 553.49 104.791V67.759C553.49 67.3542 553.895 66.9495 554.3 66.9495H562.799C563.204 66.9495 563.608 67.3542 563.608 67.759V104.791C563.608 105.196 563.305 105.601 562.799 105.601Z" fill="white"/>
</g>
</g>
<g opacity="0.31">
<path opacity="0.31" d="M593.457 177.337H453.423C451.602 177.337 450.084 175.82 450.084 173.999V118.855C450.084 117.034 451.602 115.516 453.423 115.516H593.457C595.278 115.516 596.796 117.034 596.796 118.855V173.999C596.796 175.921 595.278 177.337 593.457 177.337Z" fill="white"/>
<path opacity="0.31" d="M593.457 295.011H453.423C451.602 295.011 450.084 293.493 450.084 291.672V185.432C450.084 183.611 451.602 182.093 453.423 182.093H593.457C595.278 182.093 596.796 183.611 596.796 185.432V291.672C596.796 293.493 595.278 295.011 593.457 295.011Z" fill="url(#paint0_linear)"/>
<path opacity="0.31" d="M589.41 123.611C587.892 123.611 586.678 124.825 586.678 126.342C586.678 126.848 586.779 127.354 587.082 127.759L564.62 153.054C564.317 152.953 563.912 152.852 563.609 152.852C563.204 152.852 562.799 152.953 562.496 153.054L538.314 129.378C538.516 129.074 538.516 128.67 538.516 128.265C538.516 126.747 537.302 125.533 535.784 125.533C534.266 125.533 533.052 126.747 533.052 128.265C533.052 128.67 533.153 129.074 533.356 129.479L502.293 162.97C501.889 162.666 501.281 162.464 500.674 162.464C500.168 162.464 499.764 162.565 499.359 162.869L482.361 140.71C482.664 140.305 482.867 139.698 482.867 139.091C482.867 137.574 481.652 136.359 480.135 136.359C478.617 136.359 477.403 137.574 477.403 139.091C477.403 139.597 477.504 140.002 477.808 140.407L458.786 165.095C458.482 164.993 458.179 164.892 457.774 164.892C456.256 164.892 455.042 166.106 455.042 167.624C455.042 169.142 456.256 170.356 457.774 170.356C459.292 170.356 460.506 169.142 460.506 167.624C460.506 167.118 460.303 166.612 460.101 166.106L479.022 141.52C479.325 141.621 479.73 141.722 480.135 141.722C480.438 141.722 480.742 141.621 480.944 141.621L498.145 163.982C498.044 164.285 497.942 164.69 497.942 165.095C497.942 166.612 499.157 167.827 500.674 167.827C502.192 167.827 503.406 166.612 503.406 165.095C503.406 164.791 503.305 164.488 503.305 164.285L534.469 130.592C534.873 130.794 535.278 130.896 535.784 130.896C536.29 130.896 536.695 130.794 537.099 130.592L561.18 154.268C560.978 154.673 560.776 155.078 560.776 155.584C560.776 157.101 561.99 158.316 563.508 158.316C565.025 158.316 566.239 157.101 566.239 155.584C566.239 155.078 566.138 154.572 565.835 154.167L588.196 128.872C588.499 128.973 588.904 129.074 589.309 129.074C590.826 129.074 592.04 127.86 592.04 126.342C592.142 124.825 590.927 123.611 589.41 123.611Z" fill="#FF4D00"/>
<path opacity="0.31" d="M578.077 200.204H456.863C456.053 200.204 455.446 199.597 455.446 198.788V192.11C455.446 191.3 456.053 190.693 456.863 190.693H578.077C578.887 190.693 579.494 191.3 579.494 192.11V198.788C579.595 199.496 578.887 200.204 578.077 200.204Z" fill="white"/>
<path opacity="0.31" d="M565.733 217.203H456.863C456.155 217.203 455.446 216.596 455.446 215.786V209.007C455.446 208.299 456.053 207.59 456.863 207.59H565.733C566.441 207.59 567.15 208.198 567.15 209.007V215.786C567.048 216.596 566.441 217.203 565.733 217.203Z" fill="white"/>
<path opacity="0.31" d="M589.511 234.201H458.077C456.66 234.201 455.446 232.076 455.446 229.445C455.446 226.815 456.66 224.69 458.077 224.69H589.511C590.927 224.69 592.141 226.815 592.141 229.445C592.141 232.076 591.028 234.201 589.511 234.201Z" fill="white"/>
<path opacity="0.31" d="M553.49 251.199H456.762C456.053 251.199 455.446 250.592 455.446 249.884V242.902C455.446 242.194 456.053 241.587 456.762 241.587H553.49C554.199 241.587 554.806 242.194 554.806 242.902V249.884C554.806 250.693 554.199 251.199 553.49 251.199Z" fill="white"/>
<path opacity="0.31" d="M579.393 268.198H456.863C456.053 268.198 455.446 267.591 455.446 266.781V260.204C455.446 259.395 456.053 258.788 456.863 258.788H579.393C580.202 258.788 580.809 259.395 580.809 260.204V266.781C580.809 267.591 580.202 268.198 579.393 268.198Z" fill="white"/>
<path opacity="0.31" d="M589.511 285.297H458.077C456.66 285.297 455.446 283.172 455.446 280.542C455.446 277.911 456.66 275.786 458.077 275.786H589.511C590.927 275.786 592.141 277.911 592.141 280.542C592.141 283.172 591.028 285.297 589.511 285.297Z" fill="white"/>
</g>
<path opacity="0.31" d="M892.951 98.2143H798.853C794.604 98.2143 791.265 94.7742 791.265 90.6258V77.877C791.265 73.6274 794.705 70.2885 798.853 70.2885H892.951C897.201 70.2885 900.54 73.7286 900.54 77.877V90.6258C900.54 94.8754 897.099 98.2143 892.951 98.2143Z" fill="#FF4D00"/>
<path opacity="0.31" d="M892.951 132.11H798.853C794.604 132.11 791.265 128.67 791.265 124.521V111.773C791.265 107.523 794.705 104.184 798.853 104.184H892.951C897.201 104.184 900.54 107.624 900.54 111.773V124.521C900.54 128.67 897.099 132.11 892.951 132.11Z" fill="white"/>
<g opacity="0.31">
<path opacity="0.31" d="M632.006 50.6595C653.963 44.4875 676.829 57.2362 683.001 79.1924C689.173 101.149 676.425 124.015 654.469 130.187C632.512 136.359 609.747 123.611 603.474 101.654C602.563 98.5179 602.057 95.2801 601.956 92.1435C601.146 74.5381 611.872 57.9445 628.87 51.6713C629.983 51.2665 630.995 50.963 632.006 50.6595Z" fill="white"/>
<path opacity="0.31" d="M628.971 51.6713L643.339 90.4234L602.057 92.1435C601.248 74.5381 611.973 57.9445 628.971 51.6713Z" fill="#FF4D00"/>
<path opacity="0.31" d="M776.594 55.6173H697.167C695.649 55.6173 694.435 54.4031 694.435 52.8854C694.435 51.3677 695.649 50.1536 697.167 50.1536H776.594C778.111 50.1536 779.325 51.3677 779.325 52.8854C779.224 54.4031 778.01 55.6173 776.594 55.6173Z" fill="white"/>
<path opacity="0.31" d="M766.273 66.4436H695.447C694.84 66.4436 694.334 65.9377 694.334 65.3306V62.0928C694.334 61.4858 694.84 60.9799 695.447 60.9799H766.273C766.88 60.9799 767.386 61.4858 767.386 62.0928V65.3306C767.386 65.9377 766.88 66.4436 766.273 66.4436Z" fill="white"/>
<path opacity="0.31" d="M749.781 77.27H695.244C694.738 77.27 694.232 76.8652 694.232 76.2581V72.7168C694.232 72.2109 694.637 71.705 695.244 71.705H749.781C750.286 71.705 750.792 72.1097 750.792 72.7168V76.2581C750.792 76.8652 750.388 77.27 749.781 77.27Z" fill="white"/>
<path opacity="0.31" d="M776.594 88.0963H697.167C695.649 88.0963 694.435 86.8821 694.435 85.3644C694.435 83.8467 695.649 82.6325 697.167 82.6325H776.594C778.111 82.6325 779.325 83.8467 779.325 85.3644C779.224 86.8821 778.01 88.0963 776.594 88.0963Z" fill="white"/>
<path opacity="0.31" d="M768.803 98.9226H695.447C694.84 98.9226 694.334 98.4167 694.334 97.8096V94.5718C694.334 93.9647 694.84 93.4588 695.447 93.4588H768.803C769.41 93.4588 769.916 93.9647 769.916 94.5718V97.8096C770.017 98.4167 769.511 98.9226 768.803 98.9226Z" fill="white"/>
<path opacity="0.31" d="M776.594 109.749H697.167C695.649 109.749 694.435 108.535 694.435 107.017C694.435 105.499 695.649 104.285 697.167 104.285H776.594C778.111 104.285 779.325 105.499 779.325 107.017C779.224 108.535 778.01 109.749 776.594 109.749Z" fill="white"/>
<path opacity="0.31" d="M761.923 120.575H695.447C694.84 120.575 694.334 120.069 694.334 119.462V116.123C694.334 115.516 694.84 115.01 695.447 115.01H761.923C762.53 115.01 763.036 115.516 763.036 116.123V119.462C763.036 120.069 762.53 120.575 761.923 120.575Z" fill="white"/>
<path opacity="0.31" d="M776.594 131.402H697.167C695.649 131.402 694.435 130.187 694.435 128.67C694.435 127.152 695.649 125.938 697.167 125.938H776.594C778.111 125.938 779.325 127.152 779.325 128.67C779.224 130.187 778.01 131.402 776.594 131.402Z" fill="white"/>
</g>
</g>
<path opacity="0.55" d="M411.635 50.1536H127.419C116.795 50.1536 108.195 58.7539 108.195 69.3779V368.265C108.195 378.889 116.795 387.49 127.419 387.49H411.635C422.259 387.49 430.86 378.889 430.86 368.265V69.2767C430.758 58.6527 422.158 50.1536 411.635 50.1536Z" fill="#E0BAAD"/>
<path d="M401.011 38.9225H116.795C106.171 38.9225 97.5708 47.5229 97.5708 58.1468V357.034C97.5708 367.658 106.171 376.258 116.795 376.258H401.011C411.635 376.258 420.235 367.658 420.235 357.034V58.1468C420.235 47.5229 411.635 38.9225 401.011 38.9225Z" fill="white"/>
<path d="M401.011 38.9225H116.795C106.171 38.9225 97.5708 47.5229 97.5708 58.1468V85.7691H420.134V58.1468C420.236 47.5229 411.635 38.9225 401.011 38.9225Z" fill="#FF4D00"/>
<path d="M119.122 69.3779C122.698 69.3779 125.598 66.4787 125.598 62.9023C125.598 59.326 122.698 56.4268 119.122 56.4268C115.546 56.4268 112.646 59.326 112.646 62.9023C112.646 66.4787 115.546 69.3779 119.122 69.3779Z" fill="white"/>
<path d="M148.262 69.3779C151.839 69.3779 154.738 66.4787 154.738 62.9023C154.738 59.326 151.839 56.4268 148.262 56.4268C144.686 56.4268 141.787 59.326 141.787 62.9023C141.787 66.4787 144.686 69.3779 148.262 69.3779Z" fill="white"/>
<path d="M183.776 62.9023C183.776 66.4436 180.943 69.3779 177.301 69.3779C173.759 69.3779 170.825 66.5448 170.825 62.9023C170.825 59.361 173.658 56.4268 177.301 56.4268C180.943 56.5279 183.776 59.361 183.776 62.9023Z" fill="white"/>
<path d="M391.703 54.3019H371.062V57.0338H391.703V54.3019Z" fill="white"/>
<path d="M391.703 60.9799H371.062V63.7117H391.703V60.9799Z" fill="white"/>
<path d="M391.703 67.6578H371.062V70.3897H391.703V67.6578Z" fill="white"/>
<path d="M384.114 116.022H133.591V207.59H384.114V116.022Z" fill="#9DCAF3"/>
<path d="M384.114 244.218H133.591V335.786H384.114V244.218Z" fill="#9DCAF3"/>
<path d="M384.114 116.022H133.591V207.59H384.114V116.022Z" fill="url(#paint1_linear)"/>
<path d="M384.114 244.218H133.591V335.786H384.114V244.218Z" fill="url(#paint2_linear)"/>
<g opacity="0.55">
<path opacity="0.55" d="M514.333 921.521C539.224 923.544 569.173 916.158 601.45 887.524C670.556 826.31 687.251 734.539 655.683 718.35C655.683 718.35 699.494 690.222 717.302 623.443C735.008 556.663 669.342 525.399 618.752 559.496C618.752 559.496 639.393 512.043 602.664 468.535C565.834 425.129 522.327 429.985 485.699 455.685C485.699 455.685 510.995 400.339 456.256 340.339C453.018 336.798 449.578 333.257 445.834 329.715C424.08 309.378 399.089 300.474 376.02 297.54C334.434 292.279 298.819 306.039 298.819 306.039C298.819 306.039 298.313 278.518 281.719 251.199C272.107 235.415 257.132 219.833 233.659 209.614C178.313 185.533 124.991 243.105 124.991 243.105C124.991 243.105 134.299 211.031 82.2924 181.688C73.5909 176.73 64.5859 174.808 55.8843 175.01C13.3885 176.326 -24.0483 231.671 -1.88977 266.478C-1.48505 267.186 -0.979153 267.894 -0.47325 268.501C-0.169708 268.906 0.133821 269.311 0.336182 269.715C7.0141 279.024 15.2097 286.916 24.923 293.29C30.3868 296.832 36.0529 299.665 42.0226 301.992C32.2081 340.946 40.7072 377.574 66.913 394.673C70.5555 397 74.4004 398.923 78.3464 400.339C97.7731 407.422 121.045 403.881 143.304 391.84C150.083 400.643 158.178 408.232 167.588 414.404C168.802 415.213 170.016 415.921 171.23 416.63C165.665 471.166 182.057 519.53 219.999 544.117C246.306 561.217 278.785 564.151 312.074 555.348C334.131 549.48 356.593 538.35 377.841 522.667C381.382 532.886 386.037 542.296 391.804 550.694C395.042 555.449 398.684 559.901 402.63 563.948C407.689 569.21 413.355 573.864 419.527 577.911C433.187 586.815 448.566 591.874 464.856 593.392C468.701 593.797 472.647 593.898 476.694 593.898C469.409 622.33 467.689 650.053 471.635 674.842C472.849 682.33 474.468 689.615 476.694 696.495L476.188 697.304C471.939 703.78 468.094 710.357 464.451 716.933C458.785 727.254 454.03 737.777 449.881 748.299C449.679 748.805 449.477 749.311 449.274 749.817C430.657 798.586 428.634 847.558 442.698 885.399C443.305 886.31 471.534 917.979 514.333 921.521Z" fill="#E0BAAD"/>
</g>
<path d="M1390.05 716.832C1376.39 716.832 1363.24 719.159 1350.79 723.611C1330.66 669.783 1290.89 628.198 1241.92 611.099C1240.91 610.694 1239.9 610.39 1238.89 610.087C1238.28 609.884 1237.67 609.682 1237.07 609.48C1222.7 605.028 1207.72 602.599 1192.14 602.599C1183.44 602.599 1174.94 603.308 1166.54 604.825C1149.14 563.746 1112.82 535.517 1070.83 535.517C1065.06 535.517 1059.29 536.023 1053.73 537.136C1026.71 542.195 1003.04 559.092 986.847 583.072C972.783 579.125 958.111 576.9 943.035 576.9C941.113 576.9 939.191 577.001 937.268 577.001C903.777 524.286 849.949 490.188 789.241 490.188C747.251 490.188 708.499 506.579 677.436 534.201C656.897 552.515 639.696 575.787 627.251 602.498C615.818 595.314 603.676 589.547 591.028 585.297C583.844 582.869 576.559 580.947 569.173 579.631C559.662 577.911 549.949 576.9 540.033 576.9C518.077 576.9 497.133 581.352 477.605 589.547C472.951 591.47 468.397 593.695 463.945 596.023C451.399 565.972 433.085 539.867 410.522 519.733C403.743 513.662 396.559 508.097 389.072 503.139V502.127C389.072 493.729 388.667 485.533 387.858 477.439C386.644 464.69 384.418 452.447 381.281 440.508C381.18 439.901 380.977 439.294 380.876 438.687C366.306 383.442 332.917 337.911 289.51 311.908C271.601 301.182 251.972 293.796 231.23 290.356C222.832 288.94 214.232 288.231 205.53 288.231C188.836 288.231 172.647 290.862 157.166 295.719C147.149 298.855 137.436 303.004 128.127 308.063C110.825 287.118 88.4644 271.941 63.2705 265.263C66.1035 259.8 68.633 254.235 70.9602 248.366C72.1743 245.432 73.2874 242.599 74.2992 239.564C75.0074 237.641 75.7157 235.617 76.3228 233.594C77.3346 230.558 78.2452 227.523 79.0546 224.488C79.5605 222.565 80.0664 220.643 80.5723 218.72C84.7207 201.924 86.8455 184.218 86.8455 165.904C86.8455 144.656 83.9113 124.218 78.4475 105.095C75.7157 95.5836 72.3767 86.275 68.4306 77.4723C68.0259 76.5617 67.6212 75.7522 67.2165 74.8416C66.3059 72.818 65.2941 70.6932 64.2823 68.6696C63.7764 67.6578 63.2705 66.646 62.7645 65.6342C61.7527 63.6105 60.6397 61.6881 59.5268 59.6645C53.4559 48.8382 46.4745 38.8213 38.6836 29.7151C36.66 27.3879 34.6364 25.1619 32.6128 22.936C42.2249 6.24117 47.7898 -13.6914 47.7898 -35.2429C47.7898 -39.5936 47.5875 -43.9444 47.0816 -48.194H23.0006C8.63296 -48.194 -3.104 -34.5346 -3.104 -17.7386V874.269C-3.104 890.964 8.63296 904.623 23.0006 904.623H1498.42C1511.27 904.623 1522.09 893.595 1524.22 879.227V853.831C1515.52 776.529 1458.75 716.832 1390.05 716.832Z" fill="#FFE5DC"/>
<path opacity="0.55" d="M1390.05 716.832C1376.39 716.832 1363.24 719.159 1350.79 723.611C1330.66 669.783 1290.89 628.198 1241.92 611.099C1292.31 629.615 1290.59 701.655 1243.64 727.962C1234.03 733.325 1222.5 736.866 1209.04 737.473C1129.21 741.419 1116.16 706.917 1116.16 706.917C1116.16 706.917 1098.15 790.492 1018.31 801.217C984.519 805.77 956.189 800.407 933.828 791.807C895.177 776.934 874.536 752.246 874.536 752.246C874.536 752.246 844.587 785.736 793.895 805.365C765.767 816.293 731.264 822.971 691.804 817.305C685.025 816.293 678.448 815.18 672.276 813.864C566.846 791.605 554.907 726.647 554.907 726.647C532.546 771.571 487.116 801.52 413.962 783.814C340.809 766.107 329.476 710.964 329.476 710.964C297.402 771.571 200.674 781.891 171.837 710.964C143.001 640.036 171.837 588.738 171.837 588.738C124.383 592.684 76.1203 499.598 109.206 403.577C124.687 358.653 152.815 334.37 182.36 321.52C233.153 299.564 287.992 311.604 289.105 311.908C271.196 301.183 251.567 293.796 230.825 290.356C222.427 288.94 213.827 288.231 205.126 288.231C188.431 288.231 172.242 290.862 156.761 295.719C146.744 298.855 137.031 303.004 127.722 308.063C110.421 287.118 88.0596 271.941 62.8656 265.263C65.6987 259.8 68.2282 254.235 70.5554 248.366C71.7696 245.432 72.8825 242.599 73.8943 239.564C74.6026 237.641 75.3109 235.618 75.918 233.594C76.9298 230.559 77.8404 227.523 78.6498 224.488C79.1557 222.565 79.6617 220.643 80.1675 218.72C84.316 201.924 86.4408 184.218 86.4408 165.904C86.4408 144.656 83.5065 124.218 78.0427 105.095C75.3108 95.5836 71.9719 86.275 68.0259 77.4723C67.6212 76.5617 67.2164 75.7522 66.8117 74.8416C65.9011 72.7168 64.8893 70.6932 63.8774 68.6696C63.3715 67.6578 62.8656 66.646 62.3597 65.6342C61.3479 63.6106 60.235 61.6881 59.122 59.6645C53.0512 48.8382 46.0697 38.8213 38.2788 29.7151C36.2552 27.3879 34.2315 25.0608 32.2079 22.8348C41.8201 6.14001 47.385 -13.7926 47.385 -35.344C47.385 -39.6948 47.1826 -44.0456 46.6767 -48.2951H22.5958C8.22814 -48.2951 -3.50879 -34.6358 -3.50879 -17.8398V874.168C-3.50879 890.863 8.22814 904.522 22.5958 904.522H1498.01C1510.86 904.522 1521.69 893.494 1523.81 879.126V853.73C1515.52 776.529 1458.75 716.832 1390.05 716.832Z" fill="#E0BAAD"/>
<path d="M929.983 395.179C982.064 395.179 1024.28 352.96 1024.28 300.879C1024.28 248.798 982.064 206.579 929.983 206.579C877.903 206.579 835.683 248.798 835.683 300.879C835.683 352.96 877.903 395.179 929.983 395.179Z" fill="#E0BAAD"/>
<path opacity="0.55" d="M948.196 398.316C993.571 398.316 1030.35 361.532 1030.35 316.157C1030.35 270.782 993.571 233.999 948.196 233.999C902.821 233.999 866.037 270.782 866.037 316.157C866.037 361.532 902.821 398.316 948.196 398.316Z" fill="#E0BAAD"/>
<path d="M415.379 274.268C449.131 274.268 476.492 246.907 476.492 213.155C476.492 179.404 449.131 152.042 415.379 152.042C381.627 152.042 354.266 179.404 354.266 213.155C354.266 246.907 381.627 274.268 415.379 274.268Z" fill="#FFE5DC"/>
<path d="M842.26 116.123C860.98 116.123 876.155 100.948 876.155 82.2278C876.155 63.5078 860.98 48.3323 842.26 48.3323C823.54 48.3323 808.364 63.5078 808.364 82.2278C808.364 100.948 823.54 116.123 842.26 116.123Z" fill="#FFE5DC"/>
<path d="M884.857 422.498C908.382 422.498 927.454 403.427 927.454 379.901C927.454 356.375 908.382 337.304 884.857 337.304C861.331 337.304 842.26 356.375 842.26 379.901C842.26 403.427 861.331 422.498 884.857 422.498Z" fill="#FFE5DC"/>
<path d="M741.382 266.68H325.328C316.93 266.68 310.151 273.56 310.151 281.857V529.952H755.649V280.845C755.548 273.054 749.173 266.68 741.382 266.68ZM736.323 493.021C736.323 499.699 730.86 505.162 724.182 505.162H340.91C334.232 505.162 328.768 499.699 328.768 493.021V298.046C328.768 291.368 334.232 285.904 340.91 285.904H724.182C730.86 285.904 736.323 291.368 736.323 298.046V493.021Z" fill="#9DCAF3"/>
<path d="M741.382 266.68H325.328C316.93 266.68 310.151 273.56 310.151 281.857V529.952H755.649V280.845C755.548 273.054 749.173 266.68 741.382 266.68ZM736.323 493.021C736.323 499.699 730.86 505.162 724.182 505.162H340.91C334.232 505.162 328.768 499.699 328.768 493.021V298.046C328.768 291.368 334.232 285.904 340.91 285.904H724.182C730.86 285.904 736.323 291.368 736.323 298.046V493.021Z" fill="url(#paint3_linear)"/>
<path d="M350.016 569.817H492.074H572.917H715.581C737.639 569.817 755.548 551.908 755.548 529.851H310.05C310.05 552.009 327.959 569.817 350.016 569.817Z" fill="#9DCAF3"/>
<path d="M350.016 569.817H492.074H572.917H715.581C737.639 569.817 755.548 551.908 755.548 529.851H310.05C310.05 552.009 327.959 569.817 350.016 569.817Z" fill="url(#paint4_linear)"/>
<path d="M572.917 569.817H492.074V637.102H572.917V569.817Z" fill="#9DCAF3"/>
<path d="M435.918 637.102C421.854 637.102 410.32 648.637 410.32 662.701H654.772C654.772 648.637 643.237 637.102 629.173 637.102H572.917H492.074H435.918Z" fill="#9DCAF3"/>
<path d="M435.918 637.102C421.854 637.102 410.32 648.637 410.32 662.701H654.772C654.772 648.637 643.237 637.102 629.173 637.102H572.917H492.074H435.918Z" fill="url(#paint5_linear)"/>
<path opacity="0.25" d="M724.182 285.904H340.91C334.232 285.904 328.768 291.368 328.768 298.046V493.021C328.768 499.699 334.232 505.163 340.91 505.163H724.182C730.859 505.163 736.323 499.699 736.323 493.021V298.046C736.323 291.368 730.859 285.904 724.182 285.904Z" fill="url(#paint6_linear)"/>
<path d="M328.768 374.235V401.25V462.464V497.574C328.768 501.419 331.905 504.555 335.749 504.555H338.785H400.201H418.616H533.153L328.768 327.894V374.235Z" fill="url(#paint7_linear)"/>
<path d="M729.342 285.904H686.644H668.229H606.812H545.194H470.219H455.345L708.297 504.555H729.342C733.187 504.555 736.324 501.419 736.324 497.574V420.07V393.054V292.886C736.324 289.041 733.187 285.904 729.342 285.904Z" fill="url(#paint8_linear)"/>
<path d="M543.574 548.569C543.574 555.55 537.908 561.217 530.927 561.217C523.945 561.217 518.279 555.55 518.279 548.569C518.279 541.588 523.945 535.921 530.927 535.921C537.908 535.921 543.574 541.588 543.574 548.569Z" fill="#FFEEE7"/>
<path opacity="0.55" d="M591.028 269.817C489.848 383.543 509.477 505.163 509.477 505.163H437.132H387.25C396.256 282.059 644.856 172.683 646.576 172.076C508.667 271.435 491.264 402.363 491.264 402.363C507.858 338.72 589.814 270.828 591.028 269.817Z" fill="#E0BAAD"/>
<path d="M437.537 505.163H388.566C397.571 282.059 644.957 172.683 646.576 172.076C645.261 172.886 475.075 279.631 446.138 377.27C429.443 433.628 430.354 485.028 437.537 505.163Z" fill="#FFE5DC"/>
<path d="M379.46 219.935C381.584 229.243 375.817 238.552 366.508 240.677C357.2 242.801 347.891 237.034 345.766 227.725C343.642 218.417 349.409 209.108 358.718 206.983C368.026 204.859 377.234 210.626 379.46 219.935Z" fill="#E0BAAD"/>
<path d="M379.055 218.214C380.573 224.994 376.424 231.671 369.645 233.29C362.866 234.808 356.188 230.66 354.569 223.881C353.052 217.101 357.2 210.424 363.979 208.805C370.758 207.186 377.436 211.537 379.055 218.214Z" fill="#E0BAAD"/>
<path d="M658.617 435.146C659.932 441.014 656.29 446.781 650.421 448.198C644.553 449.513 638.786 445.871 637.369 440.002C636.054 434.134 639.696 428.366 645.565 426.95C651.534 425.635 657.302 429.277 658.617 435.146Z" fill="#E0BAAD"/>
<path d="M658.415 434.033C659.427 438.282 656.695 442.532 652.546 443.442C648.297 444.454 644.047 441.722 643.137 437.574C642.125 433.324 644.857 429.075 649.005 428.164C653.255 427.152 657.403 429.783 658.415 434.033Z" fill="#E0BAAD"/>
<path d="M500.269 222.363C500.977 225.499 499.055 228.636 495.918 229.344C492.782 230.053 489.645 228.13 488.937 224.994C488.228 221.857 490.151 218.72 493.287 218.012C496.424 217.304 499.561 219.327 500.269 222.363Z" fill="#E0BAAD"/>
<path d="M500.067 221.857C500.573 224.083 499.156 226.41 496.93 226.916C494.704 227.422 492.377 226.005 491.871 223.779C491.365 221.553 492.782 219.226 495.008 218.72C497.335 218.214 499.561 219.53 500.067 221.857Z" fill="#E0BAAD"/>
<path opacity="0.1" d="M538.009 189.074C428.836 302.093 291.635 463.78 264.215 529.243C329.679 501.824 493.692 366.849 607.015 258.08C584.047 235.112 560.977 212.144 538.009 189.074Z" fill="#FFFDC0"/>
<path d="M542.158 194.032C528.803 222.666 523.642 248.771 520.708 274.268C545.902 270.727 569.781 263.341 595.986 247.86C578.077 229.85 560.168 211.941 542.158 194.032Z" fill="#F1A557"/>
<path d="M538.212 180.171C525.463 207.692 520.506 232.582 517.571 257.068C541.753 253.729 564.62 246.545 589.713 231.773C572.614 214.471 555.413 197.371 538.212 180.171Z" fill="#FCCE6C"/>
<path d="M538.212 180.171C525.463 207.692 520.506 232.582 517.571 257.068C541.753 253.729 564.62 246.545 589.713 231.773C572.614 214.471 555.413 197.371 538.212 180.171Z" fill="url(#paint9_linear)"/>
<path d="M560.573 210.019C547.824 237.54 542.866 262.43 539.932 286.916C564.114 283.577 586.981 276.393 612.074 261.621C594.974 244.42 577.774 227.22 560.573 210.019Z" fill="#FCCE6C"/>
<path d="M600.539 121.081L576.256 125.634C533.558 133.628 496.627 160.339 475.784 198.484L466.576 215.28C464.451 219.125 468.195 223.476 472.344 222.059L540.033 198.282L600.539 121.081Z" fill="#9DCAF3"/>
<path d="M600.539 121.081L576.256 125.634C533.558 133.628 496.627 160.339 475.784 198.484L466.576 215.28C464.451 219.125 468.195 223.476 472.344 222.059L540.033 198.282L600.539 121.081Z" fill="url(#paint10_linear)"/>
<path d="M672.276 189.985L668.735 209.007C660.135 255.044 631.298 294.808 590.219 317.27L577.066 324.454C573.625 326.376 569.578 322.936 570.893 319.193L594.974 250.491L672.276 189.985Z" fill="#9DCAF3"/>
<g opacity="0.2">
<path opacity="0.2" d="M551.871 140.002C530.016 164.083 511.804 188.973 497.841 213.155L540.033 198.383L600.539 121.081L578.482 125.23C568.262 127.152 558.853 132.312 551.871 140.002Z" fill="black"/>
<path opacity="0.2" d="M672.276 189.985L594.974 250.491L579.494 294.606C604.586 280.036 630.489 261.014 655.581 237.843C661.652 232.279 665.7 224.892 667.217 216.899L672.276 189.985Z" fill="black"/>
</g>
<path d="M568.87 223.678C578.381 233.189 586.779 242.903 594.165 252.616C617.234 240.272 641.618 222.16 664.485 199.294C714.469 149.311 741.888 92.0423 735.716 56.8315C700.506 50.7606 643.237 78.0794 593.355 128.063C570.489 150.929 552.377 175.213 540.033 198.383C549.645 205.668 559.46 214.167 568.87 223.678Z" fill="#FF4D00"/>
<path d="M568.87 223.678C578.381 233.189 586.779 242.903 594.165 252.616C617.234 240.272 641.618 222.16 664.485 199.294C714.469 149.311 741.888 92.0423 735.716 56.8315C700.506 50.7606 643.237 78.0794 593.355 128.063C570.489 150.929 552.377 175.213 540.033 198.383C549.645 205.668 559.46 214.167 568.87 223.678Z" fill="url(#paint11_linear)"/>
<path d="M612.377 180.171C600.337 168.13 588.094 157.101 575.851 146.882C561.079 163.982 549.038 181.486 540.033 198.383C549.747 205.769 559.46 214.268 568.971 223.678C578.482 233.189 586.88 242.903 594.266 252.616C611.062 243.611 628.667 231.469 645.767 216.798C635.548 204.353 624.418 192.11 612.377 180.171Z" fill="#9DCAF3"/>
<path d="M671.467 153.459C662.563 162.363 648.094 162.363 639.089 153.459C630.185 144.555 630.185 130.086 639.089 121.081C647.993 112.177 662.462 112.177 671.467 121.081C680.371 130.086 680.371 144.555 671.467 153.459Z" fill="#E43901"/>
<path d="M659.73 149.513C668.95 149.513 676.425 142.038 676.425 132.818C676.425 123.598 668.95 116.123 659.73 116.123C650.51 116.123 643.035 123.598 643.035 132.818C643.035 142.038 650.51 149.513 659.73 149.513Z" fill="#9DCAF3"/>
<path d="M659.73 149.513C668.95 149.513 676.425 142.038 676.425 132.818C676.425 123.598 668.95 116.123 659.73 116.123C650.51 116.123 643.035 123.598 643.035 132.818C643.035 142.038 650.51 149.513 659.73 149.513Z" fill="url(#paint12_linear)"/>
<path d="M514.435 286.815C513.119 287.422 511.703 287.118 510.792 286.309C509.881 285.5 509.477 284.184 509.983 282.768C530.016 232.076 596.188 179.462 624.013 159.024C625.43 158.012 627.048 158.316 628.06 159.226C629.072 160.137 629.578 161.756 628.566 163.273C610.455 192.616 563.406 262.835 514.435 286.815Z" fill="#9DCAF3"/>
<path d="M514.435 286.815C513.119 287.422 511.703 287.118 510.792 286.309C509.881 285.5 509.477 284.184 509.983 282.768C530.016 232.076 596.188 179.462 624.013 159.024C625.43 158.012 627.048 158.316 628.06 159.226C629.072 160.137 629.578 161.756 628.566 163.273C610.455 192.616 563.406 262.835 514.435 286.815Z" fill="url(#paint13_linear)"/>
<path d="M628.06 159.226L510.792 286.309C509.881 285.5 509.477 284.184 509.983 282.768C530.016 232.076 596.188 179.462 624.013 159.024C625.43 158.012 627.048 158.316 628.06 159.226Z" fill="#9DCAF3"/>
<path d="M628.06 159.226L510.792 286.309C509.881 285.5 509.477 284.184 509.983 282.768C530.016 232.076 596.188 179.462 624.013 159.024C625.43 158.012 627.048 158.316 628.06 159.226Z" fill="url(#paint14_linear)"/>
<path d="M799.46 610.593C799.46 610.593 799.258 535.112 798.954 515.685C798.752 501.925 796.627 460.643 796.627 460.643L789.342 463.173C775.683 452.549 718.617 465.196 718.617 465.196C718.617 465.196 718.718 474.404 719.123 487.456L718.212 487.759C718.212 487.759 717.403 513.864 718.111 522.566C719.527 539.463 729.544 600.07 730.05 602.296C738.246 643.78 742.698 717.136 742.293 733.729C742.091 742.836 750.084 741.621 750.59 738.485C759.089 675.753 772.445 645.905 758.178 610.188L756.357 532.38L773.052 607.254C774.165 610.795 775.582 618.181 775.986 621.52C780.337 656.225 784.182 742.532 784.182 742.532C784.182 742.532 790.455 747.591 790.759 745.062C795.818 691.031 815.042 648.029 799.46 610.593Z" fill="#202020"/>
<path d="M757.875 354.606L758.179 347.827L781.652 345.601V348.94L763.035 358.147L757.875 354.606Z" fill="#52C798"/>
<path d="M658.516 516.191C658.516 516.191 655.379 527.119 653.862 530.559C651.13 536.731 639.292 552.009 639.292 552.009C639.292 552.009 631.501 550.39 641.416 538.653C641.416 538.653 638.583 534.808 635.548 537.338C632.512 539.867 627.757 546.343 627.757 546.343C627.757 546.343 632.31 555.753 629.477 560.306C626.745 564.758 620.775 552.313 621.079 548.063C621.383 543.915 624.317 533.493 627.352 529.851C630.388 526.208 650.118 511.84 650.118 511.84L658.516 516.191Z" fill="#F5C7B0"/>
<path d="M733.896 371.199C733.289 371.199 726.307 373.527 726.307 373.527C726.307 373.527 717.909 380.913 715.987 397.304C714.064 413.695 690.186 451.132 690.186 451.132L705.464 469.243C705.464 469.243 736.425 432.515 738.348 421.992C740.27 411.469 733.896 371.199 733.896 371.199Z" fill="#52C798"/>
<path d="M799.663 415.415C799.663 415.415 800.067 426.343 799.663 445.264C799.359 458.012 799.663 473.493 798.145 492.515C757.571 511.436 718.212 487.861 718.212 487.861C715.885 469.952 724.789 419.766 724.789 419.766L715.885 406.815C715.885 406.815 714.873 388.198 723.979 375.449C729.14 368.265 753.524 360.778 753.524 360.778C753.524 360.778 750.286 372.515 768.904 370.997C780.641 370.086 788.229 357.439 788.229 357.439C788.229 357.439 809.275 361.284 815.346 364.825C816.661 365.533 818.684 368.063 819.089 368.67C828.6 383.341 799.663 415.415 799.663 415.415Z" fill="#52C798"/>
<path d="M741.281 365.331L757.369 359.26L757.875 354.505L781.45 340.238L781.753 355.719L793.086 358.754C793.086 358.754 772.546 377.068 764.249 375.854C755.851 374.64 741.281 365.331 741.281 365.331Z" fill="#52C798"/>
<path opacity="0.6" d="M781.653 348.94L781.45 341.25L758.179 349.648L757.673 355.618C765.97 356.528 773.963 355.213 781.653 348.94Z" fill="#46A57C"/>
<path d="M802.395 315.348C802.395 315.348 782.159 346.208 781.147 346.916C777.1 349.446 761.417 352.38 753.524 349.041C745.632 345.702 745.835 331.638 750.489 323.746C750.793 323.139 751.197 322.43 751.703 321.722C753.525 318.687 755.953 314.437 758.381 310.188C761.113 305.331 763.946 300.474 765.767 297.236C767.184 294.808 768.094 293.29 768.094 293.29C768.094 293.29 768.803 291.064 770.928 289.243C774.469 286.107 781.956 284.184 796.122 297.338C807.15 307.759 802.395 315.348 802.395 315.348Z" fill="#F5C7B0"/>
<path d="M760.91 323.645C760.303 324.859 757.167 326.882 755.851 327.186C754.435 327.489 752.917 326.174 751.804 325.162C751.399 324.758 751.804 322.127 751.5 321.722C753.322 318.687 755.75 314.437 758.179 310.188C757.47 311.301 758.583 313.324 759.19 314.235C759.797 315.247 763.035 317.068 763.136 318.282C763.238 319.597 761.517 322.43 760.91 323.645Z" fill="url(#paint15_linear)"/>
<path d="M799.258 317.877C800.27 315.449 800.776 312.717 800.472 310.086C799.865 305.736 796.83 302.194 793.693 299.159C789.545 295.213 784.89 291.773 779.933 289.041C779.325 288.737 778.617 288.333 777.909 288.333C777.302 288.333 776.796 288.434 776.189 288.636C774.469 289.041 772.546 289.142 770.725 289.243C768.701 291.064 767.892 293.29 767.892 293.29C767.184 294.606 766.273 295.82 765.666 297.236C765.767 297.034 769.713 298.147 770.017 298.248C772.04 298.855 774.064 299.766 775.683 301.183C777.099 302.498 776.998 305.129 778.819 306.039C779.831 306.545 781.045 305.938 782.26 305.634C785.497 304.926 787.521 307.355 788.836 309.884C790.051 312.11 791.568 314.64 791.669 317.27C791.771 318.99 790.051 322.228 789.241 323.645C789.039 323.948 787.521 325.668 785.902 327.388C785.599 327.489 785.396 327.591 785.194 327.591C783.98 327.894 782.664 327.995 781.349 327.894C778.718 327.692 776.189 326.68 774.266 324.96C773.76 324.454 773.153 323.948 772.445 323.746C771.535 323.442 770.523 323.847 769.713 324.353C767.791 325.365 765.97 326.882 765.565 329.007C765.362 330.12 765.565 331.334 765.868 332.447C766.071 333.257 766.374 334.066 766.88 334.774C767.386 335.382 768.094 335.685 768.701 335.989C770.118 336.697 771.535 337.405 773.052 337.608C775.683 338.012 778.415 336.899 780.641 335.382C782.361 334.269 783.98 332.852 785.396 331.334C786.813 331.031 788.027 330.727 788.33 331.031C789.14 331.941 791.265 327.793 792.276 327.287C793.288 326.781 794.098 325.871 794.806 324.859C796.627 322.633 798.145 320.407 799.258 317.877Z" fill="url(#paint16_linear)"/>
<path d="M797.436 328.602C797.436 328.602 795.109 327.692 793.086 328.906L788.431 335.179C788.431 335.179 787.723 334.37 786.711 333.054C788.836 329.412 795.413 316.865 795.413 316.865C795.413 316.865 791.669 312.11 795.413 303.813C795.413 303.712 795.514 303.611 795.514 303.51C795.514 303.51 787.521 301.081 779.629 296.427C779.629 296.427 757.065 285.5 771.838 281.351C771.838 281.351 800.978 272.245 807.251 302.093C807.757 302.599 812.614 307.152 810.185 312.919C806.644 321.216 797.436 328.602 797.436 328.602Z" fill="#6E311E"/>
<path d="M797.437 328.602C797.437 328.602 795.109 327.692 793.086 328.906L788.431 335.179C788.431 335.179 787.723 334.37 786.711 333.054C788.836 329.412 795.413 316.866 795.413 316.866C795.413 316.866 791.669 312.11 795.413 303.813C797.74 303.51 803.305 302.7 807.251 302.093C807.757 302.599 812.614 307.152 810.185 312.919C806.644 321.216 797.437 328.602 797.437 328.602Z" fill="url(#paint17_linear)"/>
<path d="M794.401 326.174C795.413 326.073 795.818 325.769 796.829 325.466C797.841 325.263 799.055 325.263 799.764 326.073C800.27 326.68 800.371 327.489 800.472 328.198C800.674 331.132 800.269 334.471 797.942 336.393C796.526 337.608 794.705 338.012 792.883 338.012C791.062 338.012 789.848 337.506 788.128 337" fill="#F5C7B0"/>
<path d="M794.098 328.501C794.705 328.4 795.312 327.995 796.02 327.894C796.627 327.793 797.335 327.995 797.639 328.602C798.044 329.412 797.74 330.525 797.538 331.537C797.335 332.346 797.032 333.257 796.83 334.066C796.728 334.37 796.627 334.572 796.526 334.774C796.324 335.078 796.02 335.28 795.717 335.483C794.502 336.09 793.288 335.786 792.58 334.774C792.479 334.572 792.276 334.37 792.276 334.066C792.276 333.763 792.377 333.459 792.479 333.156C792.985 331.537 793.794 328.501 794.098 328.501Z" fill="#E99B8D"/>
<path d="M793.895 326.781C794.907 326.68 795.818 325.668 796.829 325.466C797.841 325.263 799.055 325.263 799.764 326.073C800.27 326.68 800.371 327.489 800.472 328.198C800.674 331.132 800.269 334.471 797.942 336.393C796.526 337.608 794.705 338.012 792.883 338.012C791.062 338.012 789.949 337.405 788.229 336.899" fill="url(#paint18_linear)"/>
<path d="M790.354 332.548L782.867 347.726C782.867 347.726 770.219 352.177 759.696 350.761C757.47 350.457 755.345 349.952 753.423 348.94C743.71 344.285 745.936 333.965 745.936 333.965C745.936 333.965 745.936 326.376 755.346 314.842C755.346 314.842 749.781 323.24 753.322 325.769C754.84 326.882 757.369 325.567 761.113 327.287C765.16 329.108 766.678 332.245 769.106 332.548C769.511 332.65 770.118 332.65 770.725 332.548C776.391 332.144 789.241 328.198 789.241 328.198L790.354 332.548Z" fill="#6E311E"/>
<path d="M772.951 315.044C770.219 319.901 768.398 323.442 764.857 326.882C764.553 327.186 764.249 327.489 763.845 327.591C762.934 327.894 759.696 325.972 758.988 325.365C758.786 325.162 758.583 324.96 758.482 324.758C758.28 324.15 758.887 323.543 759.494 323.139C764.047 320.103 768.297 316.663 772.142 312.919C772.344 312.717 772.648 312.515 772.951 312.414C774.57 312.211 773.255 314.437 772.951 315.044Z" fill="#E99B8D"/>
<path d="M774.266 302.801C774.57 302.397 774.772 301.891 774.368 301.486C773.963 301.081 773.356 301.486 773.052 301.891C772.749 302.296 773.659 300.677 773.153 300.677C772.951 300.171 771.737 301.688 772.04 301.183C772.141 301.081 772.243 300.879 772.243 300.778C772.243 300.677 772.04 300.575 771.939 300.474C768.904 298.451 764.553 298.754 761.72 301.081C761.518 301.284 761.315 301.79 761.619 301.79C762.529 301.486 763.339 301.183 764.249 300.98C765.059 300.677 765.969 300.474 766.88 300.474C768.094 300.474 769.207 301.183 770.017 301.992C770.421 302.397 771.433 304.825 771.838 304.926C772.749 305.23 773.963 303.307 774.266 302.801Z" fill="#602A1C"/>
<path d="M783.372 307.759C783.575 307.355 784.081 306.95 784.486 307.152C784.991 307.355 784.89 308.063 784.688 308.468C784.485 308.973 785.598 307.355 785.7 307.86C786.307 307.86 785.396 309.581 785.7 309.075C785.801 308.973 785.902 308.771 786.003 308.67C786.104 308.67 786.307 308.67 786.408 308.771C789.544 310.693 791.062 314.842 789.949 318.282C789.848 318.586 789.544 318.889 789.342 318.687C789.241 317.776 789.14 316.865 789.039 315.955C788.937 315.044 788.836 314.134 788.431 313.425C787.926 312.312 786.914 311.604 785.7 311.199C785.093 310.997 782.563 311.098 782.259 310.795C781.855 310.188 783.069 308.265 783.372 307.759Z" fill="#602A1C"/>
<path d="M782.057 319.193C781.248 320.407 780.236 321.115 779.629 320.812C779.022 320.407 779.224 319.193 779.933 317.877C780.742 316.663 781.754 315.955 782.361 316.258C783.069 316.562 782.867 317.877 782.057 319.193Z" fill="#202020"/>
<path d="M766.475 310.795C765.666 312.009 764.654 312.717 764.047 312.414C763.44 312.009 763.642 310.795 764.351 309.479C765.16 308.265 766.172 307.557 766.779 307.86C767.386 308.265 767.285 309.581 766.475 310.795Z" fill="#202020"/>
<path d="M754.03 335.078C757.369 337.81 762.428 338.215 766.273 336.09" stroke="#E99B8D" stroke-miterlimit="10" stroke-linecap="round" stroke-linejoin="round"/>
<path d="M789.14 318.889L797.841 326.174" stroke="#F5F1F0" stroke-miterlimit="10" stroke-linecap="round" stroke-linejoin="round"/>
<path d="M788.533 320.103L797.841 326.174" stroke="#F5F1F0" stroke-miterlimit="10" stroke-linecap="round" stroke-linejoin="round"/>
<path opacity="0.26" d="M780.337 325.263L776.695 323.442C774.165 322.228 773.153 319.091 774.368 316.663L775.076 315.247C776.29 312.717 779.427 311.705 781.855 312.919L785.498 314.741C788.027 315.955 789.039 319.091 787.825 321.52L787.116 322.936C785.902 325.466 782.867 326.478 780.337 325.263Z" fill="#F5F1F0"/>
<path opacity="0.26" d="M762.023 316.157L758.381 314.336C755.851 313.122 754.839 309.985 756.054 307.557L756.762 306.14C757.976 303.611 761.113 302.599 763.541 303.813L767.183 305.634C769.713 306.849 770.725 309.985 769.511 312.414L768.802 313.83C767.588 316.36 764.553 317.371 762.023 316.157Z" fill="#F5F1F0"/>
<path d="M780.337 325.263L776.695 323.442C774.165 322.228 773.153 319.091 774.368 316.663L775.076 315.247C776.29 312.717 779.427 311.705 781.855 312.919L785.498 314.741C788.027 315.955 789.039 319.091 787.825 321.52L787.116 322.936C785.902 325.466 782.867 326.478 780.337 325.263Z" stroke="white" stroke-miterlimit="10"/>
<path d="M762.023 316.157L758.381 314.336C755.851 313.122 754.839 309.985 756.054 307.557L756.762 306.14C757.976 303.611 761.113 302.599 763.541 303.813L767.183 305.634C769.713 306.849 770.725 309.985 769.511 312.414L768.802 313.83C767.588 316.36 764.553 317.371 762.023 316.157Z" stroke="white" stroke-miterlimit="10"/>
<path d="M770.522 310.39L776.087 313.122" stroke="white" stroke-miterlimit="10"/>
<path d="M790.354 332.548L782.867 347.726C782.867 347.726 770.219 352.177 759.696 350.761C763.44 348.535 773.153 341.756 770.826 332.65C776.492 332.245 789.342 328.299 789.342 328.299L790.354 332.548Z" fill="url(#paint19_linear)"/>
<path d="M657.504 524.893L648.802 511.739L694.637 444.353C694.637 444.353 710.32 449.311 709.612 460.238C709.005 471.065 657.504 524.893 657.504 524.893Z" fill="#52C798"/>
<path d="M816.762 413.291C814.435 421.79 805.633 437.574 799.663 445.264C790.051 457.81 780.945 470.356 780.945 470.356L765.059 453.358C765.059 453.358 790.557 415.112 793.187 398.822C795.818 382.532 793.997 371.705 799.966 367.456C803.71 364.825 808.364 360.677 815.751 364.825C824.654 369.985 822.125 393.257 816.762 413.291Z" fill="#60D8A4"/>
<path d="M721.855 420.474L719.831 406.006L706.779 399.834C706.779 399.834 689.578 389.614 685.025 384.656C681.585 380.913 677.74 390.424 679.258 394.269C686.34 411.773 697.47 416.731 701.517 417.844C707.892 419.665 713.659 424.623 713.659 424.623L721.855 420.474Z" fill="#F5C7B0"/>
<path d="M708.6 422.194L722.158 414.909L783.777 465.5C783.777 465.5 777.605 480.272 767.082 478.754C756.357 477.135 708.6 422.194 708.6 422.194Z" fill="#60D8A4"/>
<path d="M815.751 364.926C808.364 360.677 803.71 364.926 799.966 367.557C793.997 371.705 795.717 382.633 793.187 398.923C790.961 412.987 771.737 443.24 766.374 451.334L722.057 414.909L708.499 422.194C708.499 422.194 756.358 477.135 766.88 478.653C773.356 479.564 778.111 474.505 780.944 470.356C780.944 470.356 790.051 457.81 799.663 445.264C805.531 437.574 814.435 421.689 816.762 413.291C822.125 393.257 824.654 369.985 815.751 364.926Z" fill="url(#paint20_linear)"/>
<path d="M781.147 734.438C780.236 737.675 780.641 738.89 780.236 741.014C779.832 743.645 777.302 744.657 775.784 746.782C774.165 749.21 771.636 753.055 781.552 753.257C792.176 753.46 798.449 752.751 796.628 746.984C794.806 741.217 794.503 738.687 794.604 736.765C794.705 734.842 794.604 732.92 793.39 731.807C792.277 730.694 782.766 728.67 781.147 734.438Z" fill="#52C798"/>
<path d="M739.663 739.294C738.853 740.812 734.806 744.455 729.342 746.883C723.879 749.21 712.141 750.323 718.617 752.448C725.093 754.573 732.681 753.257 736.526 752.65C740.371 752.043 744.115 751.942 748.567 751.942C754.536 751.942 754.536 751.537 753.727 745.062C752.715 736.158 742.293 734.235 739.663 739.294Z" fill="#52C798"/>
<path d="M781.147 734.438C780.236 737.675 780.641 738.89 780.236 741.014C779.832 743.645 777.302 744.657 775.784 746.782C774.165 749.21 771.636 753.055 781.552 753.257C792.176 753.46 798.449 752.751 796.628 746.984C794.806 741.217 794.503 738.687 794.604 736.765C794.705 734.842 794.604 732.92 793.39 731.807C792.277 730.694 782.766 728.67 781.147 734.438Z" fill="url(#paint21_linear)"/>
<path d="M739.663 739.294C738.853 740.812 734.806 744.455 729.342 746.883C723.879 749.21 712.141 750.323 718.617 752.448C725.093 754.573 732.681 753.257 736.526 752.65C740.371 752.043 744.115 751.942 748.567 751.942C754.536 751.942 754.536 751.537 753.727 745.062C752.715 736.158 742.293 734.235 739.663 739.294Z" fill="url(#paint22_linear)"/>
<path d="M707.588 397.304C707.588 397.304 705.463 391.334 705.767 387.793C706.071 384.252 705.362 381.216 707.285 383.139C709.207 385.061 719.831 406.006 719.831 406.006C719.831 406.006 720.337 408.029 719.224 411.065C718.111 414.1 716.695 414.505 714.57 412.684C712.445 410.862 706.374 406.107 705.868 404.791C705.362 403.476 707.588 397.304 707.588 397.304Z" fill="#F5C7B0"/>
</g>
</g>
</g>
<defs>
<filter id="filter0_d" x="-521" y="-23" width="1465" height="932.487" filterUnits="userSpaceOnUse" color-interpolation-filters="sRGB">
<feFlood flood-opacity="0" result="BackgroundImageFix"/>
<feColorMatrix in="SourceAlpha" type="matrix" values="0 0 0 0 0 0 0 0 0 0 0 0 0 0 0 0 0 0 127 0"/>
<feOffset dy="4"/>
<feGaussianBlur stdDeviation="2"/>
<feColorMatrix type="matrix" values="0 0 0 0 0 0 0 0 0 0 0 0 0 0 0 0 0 0 0.25 0"/>
<feBlend mode="normal" in2="BackgroundImageFix" result="effect1_dropShadow"/>
<feBlend mode="normal" in="SourceGraphic" in2="effect1_dropShadow" result="shape"/>
</filter>
<linearGradient id="paint0_linear" x1="450.092" y1="238.537" x2="596.796" y2="238.537" gradientUnits="userSpaceOnUse">
<stop stop-color="white" stop-opacity="0"/>
<stop offset="0.9798" stop-color="white" stop-opacity="0.4899"/>
<stop offset="1" stop-color="white" stop-opacity="0.5"/>
</linearGradient>
<linearGradient id="paint1_linear" x1="133.633" y1="161.761" x2="384.19" y2="161.761" gradientUnits="userSpaceOnUse">
<stop stop-color="white" stop-opacity="0"/>
<stop offset="0.9798" stop-color="white" stop-opacity="0.4899"/>
<stop offset="1" stop-color="white" stop-opacity="0.5"/>
</linearGradient>
<linearGradient id="paint2_linear" x1="133.633" y1="290.021" x2="384.19" y2="290.021" gradientUnits="userSpaceOnUse">
<stop stop-color="white" stop-opacity="0"/>
<stop offset="0.9798" stop-color="white" stop-opacity="0.4899"/>
<stop offset="1" stop-color="white" stop-opacity="0.5"/>
</linearGradient>
<linearGradient id="paint3_linear" x1="850.982" y1="569.501" x2="389.598" y2="325.319" gradientUnits="userSpaceOnUse">
<stop stop-color="white" stop-opacity="0"/>
<stop offset="0.9798" stop-color="white" stop-opacity="0.4899"/>
<stop offset="1" stop-color="white" stop-opacity="0.5"/>
</linearGradient>
<linearGradient id="paint4_linear" x1="310.085" y1="549.878" x2="755.55" y2="549.878" gradientUnits="userSpaceOnUse">
<stop stop-color="white" stop-opacity="0"/>
<stop offset="0.9798" stop-color="white" stop-opacity="0.4899"/>
<stop offset="1" stop-color="white" stop-opacity="0.5"/>
</linearGradient>
<linearGradient id="paint5_linear" x1="410.286" y1="649.904" x2="654.767" y2="649.904" gradientUnits="userSpaceOnUse">
<stop stop-color="white" stop-opacity="0"/>
<stop offset="0.9798" stop-color="white" stop-opacity="0.4899"/>
<stop offset="1" stop-color="white" stop-opacity="0.5"/>
</linearGradient>
<linearGradient id="paint6_linear" x1="328.761" y1="395.528" x2="736.292" y2="395.528" gradientUnits="userSpaceOnUse">
<stop stop-color="white" stop-opacity="0"/>
<stop offset="0.9798" stop-color="white" stop-opacity="0.4899"/>
<stop offset="1" stop-color="white" stop-opacity="0.5"/>
</linearGradient>
<linearGradient id="paint7_linear" x1="275.958" y1="509.163" x2="539.027" y2="351.322" gradientUnits="userSpaceOnUse">
<stop stop-color="white" stop-opacity="0"/>
<stop offset="0.9798" stop-color="white" stop-opacity="0.4899"/>
<stop offset="1" stop-color="white" stop-opacity="0.5"/>
</linearGradient>
<linearGradient id="paint8_linear" x1="309.679" y1="565.365" x2="572.748" y2="407.523" gradientUnits="userSpaceOnUse">
<stop stop-color="white" stop-opacity="0"/>
<stop offset="0.9798" stop-color="white" stop-opacity="0.4899"/>
<stop offset="1" stop-color="white" stop-opacity="0.5"/>
</linearGradient>
<linearGradient id="paint9_linear" x1="603.462" y1="217.051" x2="536.683" y2="218.4" gradientUnits="userSpaceOnUse">
<stop stop-color="white" stop-opacity="0"/>
<stop offset="0.9798" stop-color="white" stop-opacity="0.4899"/>
<stop offset="1" stop-color="white" stop-opacity="0.5"/>
</linearGradient>
<linearGradient id="paint10_linear" x1="465.989" y1="171.693" x2="600.548" y2="171.693" gradientUnits="userSpaceOnUse">
<stop stop-color="white" stop-opacity="0"/>
<stop offset="0.9798" stop-color="white" stop-opacity="0.4899"/>
<stop offset="1" stop-color="white" stop-opacity="0.5"/>
</linearGradient>
<linearGradient id="paint11_linear" x1="540.014" y1="154.246" x2="736.585" y2="154.246" gradientUnits="userSpaceOnUse">
<stop stop-color="white" stop-opacity="0"/>
<stop offset="0.9798" stop-color="white" stop-opacity="0.4899"/>
<stop offset="1" stop-color="white" stop-opacity="0.5"/>
</linearGradient>
<linearGradient id="paint12_linear" x1="642.973" y1="132.852" x2="676.415" y2="132.852" gradientUnits="userSpaceOnUse">
<stop stop-color="white" stop-opacity="0"/>
<stop offset="0.9798" stop-color="white" stop-opacity="0.4899"/>
<stop offset="1" stop-color="white" stop-opacity="0.5"/>
</linearGradient>
<linearGradient id="paint13_linear" x1="534.97" y1="175.181" x2="578.477" y2="235.215" gradientUnits="userSpaceOnUse">
<stop stop-color="white" stop-opacity="0"/>
<stop offset="0.9798" stop-color="white" stop-opacity="0.4899"/>
<stop offset="1" stop-color="white" stop-opacity="0.5"/>
</linearGradient>
<linearGradient id="paint14_linear" x1="509.802" y1="222.352" x2="628.1" y2="222.352" gradientUnits="userSpaceOnUse">
<stop stop-color="white" stop-opacity="0"/>
<stop offset="0.9798" stop-color="white" stop-opacity="0.4899"/>
<stop offset="1" stop-color="white" stop-opacity="0.5"/>
</linearGradient>
<linearGradient id="paint15_linear" x1="766.057" y1="322.578" x2="754.567" y2="317.906" gradientUnits="userSpaceOnUse">
<stop stop-color="white" stop-opacity="0"/>
<stop offset="0.9798" stop-color="white" stop-opacity="0.4899"/>
<stop offset="1" stop-color="white" stop-opacity="0.5"/>
</linearGradient>
<linearGradient id="paint16_linear" x1="761.246" y1="305.976" x2="796.484" y2="323.427" gradientUnits="userSpaceOnUse">
<stop stop-color="white" stop-opacity="0"/>
<stop offset="0.9798" stop-color="white" stop-opacity="0.4899"/>
<stop offset="1" stop-color="white" stop-opacity="0.5"/>
</linearGradient>
<linearGradient id="paint17_linear" x1="789.965" y1="314.735" x2="805.452" y2="322.405" gradientUnits="userSpaceOnUse">
<stop stop-color="#6E311E" stop-opacity="0.5"/>
<stop offset="1" stop-color="#592719"/>
</linearGradient>
<linearGradient id="paint18_linear" x1="791.412" y1="330.247" x2="799.482" y2="334.244" gradientUnits="userSpaceOnUse">
<stop stop-color="white" stop-opacity="0"/>
<stop offset="0.9798" stop-color="white" stop-opacity="0.4899"/>
<stop offset="1" stop-color="white" stop-opacity="0.5"/>
</linearGradient>
<linearGradient id="paint19_linear" x1="767.031" y1="335.866" x2="784.374" y2="344.455" gradientUnits="userSpaceOnUse">
<stop stop-color="#6E311E" stop-opacity="0.5"/>
<stop offset="1" stop-color="#592719"/>
</linearGradient>
<linearGradient id="paint20_linear" x1="708.564" y1="420.968" x2="821.648" y2="420.968" gradientUnits="userSpaceOnUse">
<stop stop-color="white" stop-opacity="0"/>
<stop offset="0.9798" stop-color="white" stop-opacity="0.4899"/>
<stop offset="1" stop-color="white" stop-opacity="0.5"/>
</linearGradient>
<linearGradient id="paint21_linear" x1="774.281" y1="741.983" x2="797.001" y2="741.983" gradientUnits="userSpaceOnUse">
<stop stop-color="white" stop-opacity="0"/>
<stop offset="0.9798" stop-color="white" stop-opacity="0.4899"/>
<stop offset="1" stop-color="white" stop-opacity="0.5"/>
</linearGradient>
<linearGradient id="paint22_linear" x1="716.701" y1="745.075" x2="754.162" y2="745.075" gradientUnits="userSpaceOnUse">
<stop stop-color="white" stop-opacity="0"/>
<stop offset="0.9798" stop-color="white" stop-opacity="0.4899"/>
<stop offset="1" stop-color="white" stop-opacity="0.5"/>
</linearGradient>
<clipPath id="clip0">
<rect width="1457" height="924.487" fill="white" transform="translate(-517 -23)"/>
</clipPath>
</defs>
</svg>
