<?xml version="1.0" encoding="utf-8"?>
<svg width="700" height="700" viewBox="0 0 700 700" fill="none" xmlns="http://www.w3.org/2000/svg">
<circle cx="350" cy="350" r="350" fill="#9DCAF3"/>
<path d="M143.855 127.77H136.988V135H134.023V117.938H144.863V120.328H136.988V125.402H143.855V127.77ZM149.973 135H147.125V122.32H149.973V135ZM146.949 119.027C146.949 118.59 147.086 118.227 147.359 117.938C147.641 117.648 148.039 117.504 148.555 117.504C149.07 117.504 149.469 117.648 149.75 117.938C150.031 118.227 150.172 118.59 150.172 119.027C150.172 119.457 150.031 119.816 149.75 120.105C149.469 120.387 149.07 120.527 148.555 120.527C148.039 120.527 147.641 120.387 147.359 120.105C147.086 119.816 146.949 119.457 146.949 119.027ZM155.727 122.32L155.809 123.785C156.746 122.652 157.977 122.086 159.5 122.086C162.141 122.086 163.484 123.598 163.531 126.621V135H160.684V126.785C160.684 125.98 160.508 125.387 160.156 125.004C159.812 124.613 159.246 124.418 158.457 124.418C157.309 124.418 156.453 124.938 155.891 125.977V135H153.043V122.32H155.727ZM174.02 135C173.895 134.758 173.785 134.363 173.691 133.816C172.785 134.762 171.676 135.234 170.363 135.234C169.09 135.234 168.051 134.871 167.246 134.145C166.441 133.418 166.039 132.52 166.039 131.449C166.039 130.098 166.539 129.062 167.539 128.344C168.547 127.617 169.984 127.254 171.852 127.254H173.598V126.422C173.598 125.766 173.414 125.242 173.047 124.852C172.68 124.453 172.121 124.254 171.371 124.254C170.723 124.254 170.191 124.418 169.777 124.746C169.363 125.066 169.156 125.477 169.156 125.977H166.309C166.309 125.281 166.539 124.633 167 124.031C167.461 123.422 168.086 122.945 168.875 122.602C169.672 122.258 170.559 122.086 171.535 122.086C173.02 122.086 174.203 122.461 175.086 123.211C175.969 123.953 176.422 125 176.445 126.352V132.07C176.445 133.211 176.605 134.121 176.926 134.801V135H174.02ZM170.891 132.949C171.453 132.949 171.98 132.812 172.473 132.539C172.973 132.266 173.348 131.898 173.598 131.438V129.047H172.062C171.008 129.047 170.215 129.23 169.684 129.598C169.152 129.965 168.887 130.484 168.887 131.156C168.887 131.703 169.066 132.141 169.426 132.469C169.793 132.789 170.281 132.949 170.891 132.949ZM182.07 122.32L182.152 123.785C183.09 122.652 184.32 122.086 185.844 122.086C188.484 122.086 189.828 123.598 189.875 126.621V135H187.027V126.785C187.027 125.98 186.852 125.387 186.5 125.004C186.156 124.613 185.59 124.418 184.801 124.418C183.652 124.418 182.797 124.938 182.234 125.977V135H179.387V122.32H182.07ZM197.996 132.961C198.707 132.961 199.297 132.754 199.766 132.34C200.234 131.926 200.484 131.414 200.516 130.805H203.199C203.168 131.594 202.922 132.332 202.461 133.02C202 133.699 201.375 134.238 200.586 134.637C199.797 135.035 198.945 135.234 198.031 135.234C196.258 135.234 194.852 134.66 193.812 133.512C192.773 132.363 192.254 130.777 192.254 128.754V128.461C192.254 126.531 192.77 124.988 193.801 123.832C194.832 122.668 196.238 122.086 198.02 122.086C199.527 122.086 200.754 122.527 201.699 123.41C202.652 124.285 203.152 125.438 203.199 126.867H200.516C200.484 126.141 200.234 125.543 199.766 125.074C199.305 124.605 198.715 124.371 197.996 124.371C197.074 124.371 196.363 124.707 195.863 125.379C195.363 126.043 195.109 127.055 195.102 128.414V128.871C195.102 130.246 195.348 131.273 195.84 131.953C196.34 132.625 197.059 132.961 197.996 132.961ZM208.379 135H205.531V122.32H208.379V135ZM205.355 119.027C205.355 118.59 205.492 118.227 205.766 117.938C206.047 117.648 206.445 117.504 206.961 117.504C207.477 117.504 207.875 117.648 208.156 117.938C208.438 118.227 208.578 118.59 208.578 119.027C208.578 119.457 208.438 119.816 208.156 120.105C207.875 120.387 207.477 120.527 206.961 120.527C206.445 120.527 206.047 120.387 205.766 120.105C205.492 119.816 205.355 119.457 205.355 119.027ZM219.066 135C218.941 134.758 218.832 134.363 218.738 133.816C217.832 134.762 216.723 135.234 215.41 135.234C214.137 135.234 213.098 134.871 212.293 134.145C211.488 133.418 211.086 132.52 211.086 131.449C211.086 130.098 211.586 129.062 212.586 128.344C213.594 127.617 215.031 127.254 216.898 127.254H218.645V126.422C218.645 125.766 218.461 125.242 218.094 124.852C217.727 124.453 217.168 124.254 216.418 124.254C215.77 124.254 215.238 124.418 214.824 124.746C214.41 125.066 214.203 125.477 214.203 125.977H211.355C211.355 125.281 211.586 124.633 212.047 124.031C212.508 123.422 213.133 122.945 213.922 122.602C214.719 122.258 215.605 122.086 216.582 122.086C218.066 122.086 219.25 122.461 220.133 123.211C221.016 123.953 221.469 125 221.492 126.352V132.07C221.492 133.211 221.652 134.121 221.973 134.801V135H219.066ZM215.938 132.949C216.5 132.949 217.027 132.812 217.52 132.539C218.02 132.266 218.395 131.898 218.645 131.438V129.047H217.109C216.055 129.047 215.262 129.23 214.73 129.598C214.199 129.965 213.934 130.484 213.934 131.156C213.934 131.703 214.113 132.141 214.473 132.469C214.84 132.789 215.328 132.949 215.938 132.949ZM227.504 135H224.656V117H227.504V135ZM236.059 128.566C236.059 126.613 236.512 125.047 237.418 123.867C238.324 122.68 239.539 122.086 241.062 122.086C242.406 122.086 243.492 122.555 244.32 123.492V117H247.168V135H244.59L244.449 133.688C243.598 134.719 242.461 135.234 241.039 135.234C239.555 135.234 238.352 134.637 237.43 133.441C236.516 132.246 236.059 130.621 236.059 128.566ZM238.906 128.812C238.906 130.102 239.152 131.109 239.645 131.836C240.145 132.555 240.852 132.914 241.766 132.914C242.93 132.914 243.781 132.395 244.32 131.355V125.941C243.797 124.926 242.953 124.418 241.789 124.418C240.867 124.418 240.156 124.785 239.656 125.52C239.156 126.246 238.906 127.344 238.906 128.812ZM249.605 128.543C249.605 127.301 249.852 126.184 250.344 125.191C250.836 124.191 251.527 123.426 252.418 122.895C253.309 122.355 254.332 122.086 255.488 122.086C257.199 122.086 258.586 122.637 259.648 123.738C260.719 124.84 261.297 126.301 261.383 128.121L261.395 128.789C261.395 130.039 261.152 131.156 260.668 132.141C260.191 133.125 259.504 133.887 258.605 134.426C257.715 134.965 256.684 135.234 255.512 135.234C253.723 135.234 252.289 134.641 251.211 133.453C250.141 132.258 249.605 130.668 249.605 128.684V128.543ZM252.453 128.789C252.453 130.094 252.723 131.117 253.262 131.859C253.801 132.594 254.551 132.961 255.512 132.961C256.473 132.961 257.219 132.586 257.75 131.836C258.289 131.086 258.559 129.988 258.559 128.543C258.559 127.262 258.281 126.246 257.727 125.496C257.18 124.746 256.434 124.371 255.488 124.371C254.559 124.371 253.82 124.742 253.273 125.484C252.727 126.219 252.453 127.32 252.453 128.789ZM266.48 122.32L266.562 123.645C267.453 122.605 268.672 122.086 270.219 122.086C271.914 122.086 273.074 122.734 273.699 124.031C274.621 122.734 275.918 122.086 277.59 122.086C278.988 122.086 280.027 122.473 280.707 123.246C281.395 124.02 281.746 125.16 281.762 126.668V135H278.914V126.75C278.914 125.945 278.738 125.355 278.387 124.98C278.035 124.605 277.453 124.418 276.641 124.418C275.992 124.418 275.461 124.594 275.047 124.945C274.641 125.289 274.355 125.742 274.191 126.305L274.203 135H271.355V126.656C271.316 125.164 270.555 124.418 269.07 124.418C267.93 124.418 267.121 124.883 266.645 125.812V135H263.797V122.32H266.48ZM292.262 135C292.137 134.758 292.027 134.363 291.934 133.816C291.027 134.762 289.918 135.234 288.605 135.234C287.332 135.234 286.293 134.871 285.488 134.145C284.684 133.418 284.281 132.52 284.281 131.449C284.281 130.098 284.781 129.062 285.781 128.344C286.789 127.617 288.227 127.254 290.094 127.254H291.84V126.422C291.84 125.766 291.656 125.242 291.289 124.852C290.922 124.453 290.363 124.254 289.613 124.254C288.965 124.254 288.434 124.418 288.02 124.746C287.605 125.066 287.398 125.477 287.398 125.977H284.551C284.551 125.281 284.781 124.633 285.242 124.031C285.703 123.422 286.328 122.945 287.117 122.602C287.914 122.258 288.801 122.086 289.777 122.086C291.262 122.086 292.445 122.461 293.328 123.211C294.211 123.953 294.664 125 294.688 126.352V132.07C294.688 133.211 294.848 134.121 295.168 134.801V135H292.262ZM289.133 132.949C289.695 132.949 290.223 132.812 290.715 132.539C291.215 132.266 291.59 131.898 291.84 131.438V129.047H290.305C289.25 129.047 288.457 129.23 287.926 129.598C287.395 129.965 287.129 130.484 287.129 131.156C287.129 131.703 287.309 132.141 287.668 132.469C288.035 132.789 288.523 132.949 289.133 132.949ZM300.699 135H297.852V122.32H300.699V135ZM297.676 119.027C297.676 118.59 297.812 118.227 298.086 117.938C298.367 117.648 298.766 117.504 299.281 117.504C299.797 117.504 300.195 117.648 300.477 117.938C300.758 118.227 300.898 118.59 300.898 119.027C300.898 119.457 300.758 119.816 300.477 120.105C300.195 120.387 299.797 120.527 299.281 120.527C298.766 120.527 298.367 120.387 298.086 120.105C297.812 119.816 297.676 119.457 297.676 119.027ZM306.453 122.32L306.535 123.785C307.473 122.652 308.703 122.086 310.227 122.086C312.867 122.086 314.211 123.598 314.258 126.621V135H311.41V126.785C311.41 125.98 311.234 125.387 310.883 125.004C310.539 124.613 309.973 124.418 309.184 124.418C308.035 124.418 307.18 124.938 306.617 125.977V135H303.77V122.32H306.453ZM171.336 163.562L170.07 164.863V169H167.223V151H170.07V161.383L170.961 160.27L174.465 156.32H177.887L173.176 161.605L178.391 169H175.098L171.336 163.562ZM182.398 156.32L182.48 157.785C183.418 156.652 184.648 156.086 186.172 156.086C188.812 156.086 190.156 157.598 190.203 160.621V169H187.355V160.785C187.355 159.98 187.18 159.387 186.828 159.004C186.484 158.613 185.918 158.418 185.129 158.418C183.98 158.418 183.125 158.938 182.562 159.977V169H179.715V156.32H182.398ZM192.582 162.543C192.582 161.301 192.828 160.184 193.32 159.191C193.812 158.191 194.504 157.426 195.395 156.895C196.285 156.355 197.309 156.086 198.465 156.086C200.176 156.086 201.562 156.637 202.625 157.738C203.695 158.84 204.273 160.301 204.359 162.121L204.371 162.789C204.371 164.039 204.129 165.156 203.645 166.141C203.168 167.125 202.48 167.887 201.582 168.426C200.691 168.965 199.66 169.234 198.488 169.234C196.699 169.234 195.266 168.641 194.188 167.453C193.117 166.258 192.582 164.668 192.582 162.684V162.543ZM195.43 162.789C195.43 164.094 195.699 165.117 196.238 165.859C196.777 166.594 197.527 166.961 198.488 166.961C199.449 166.961 200.195 166.586 200.727 165.836C201.266 165.086 201.535 163.988 201.535 162.543C201.535 161.262 201.258 160.246 200.703 159.496C200.156 158.746 199.41 158.371 198.465 158.371C197.535 158.371 196.797 158.742 196.25 159.484C195.703 160.219 195.43 161.32 195.43 162.789ZM217.918 165.074L219.934 156.32H222.711L219.254 169H216.91L214.191 160.293L211.52 169H209.176L205.707 156.32H208.484L210.535 164.98L213.137 156.32H215.281L217.918 165.074ZM227.645 169H224.797V151H227.645V169ZM236.34 169.234C234.535 169.234 233.07 168.668 231.945 167.535C230.828 166.395 230.27 164.879 230.27 162.988V162.637C230.27 161.371 230.512 160.242 230.996 159.25C231.488 158.25 232.176 157.473 233.059 156.918C233.941 156.363 234.926 156.086 236.012 156.086C237.738 156.086 239.07 156.637 240.008 157.738C240.953 158.84 241.426 160.398 241.426 162.414V163.562H233.141C233.227 164.609 233.574 165.438 234.184 166.047C234.801 166.656 235.574 166.961 236.504 166.961C237.809 166.961 238.871 166.434 239.691 165.379L241.227 166.844C240.719 167.602 240.039 168.191 239.188 168.613C238.344 169.027 237.395 169.234 236.34 169.234ZM236 158.371C235.219 158.371 234.586 158.645 234.102 159.191C233.625 159.738 233.32 160.5 233.188 161.477H238.613V161.266C238.551 160.312 238.297 159.594 237.852 159.109C237.406 158.617 236.789 158.371 236 158.371ZM243.113 162.566C243.113 160.613 243.566 159.047 244.473 157.867C245.379 156.68 246.594 156.086 248.117 156.086C249.461 156.086 250.547 156.555 251.375 157.492V151H254.223V169H251.645L251.504 167.688C250.652 168.719 249.516 169.234 248.094 169.234C246.609 169.234 245.406 168.637 244.484 167.441C243.57 166.246 243.113 164.621 243.113 162.566ZM245.961 162.812C245.961 164.102 246.207 165.109 246.699 165.836C247.199 166.555 247.906 166.914 248.82 166.914C249.984 166.914 250.836 166.395 251.375 165.355V159.941C250.852 158.926 250.008 158.418 248.844 158.418C247.922 158.418 247.211 158.785 246.711 159.52C246.211 160.246 245.961 161.344 245.961 162.812ZM256.695 162.566C256.695 160.598 257.156 159.027 258.078 157.855C259.008 156.676 260.238 156.086 261.77 156.086C263.215 156.086 264.352 156.59 265.18 157.598L265.309 156.32H267.875V168.613C267.875 170.277 267.355 171.59 266.316 172.551C265.285 173.512 263.891 173.992 262.133 173.992C261.203 173.992 260.293 173.797 259.402 173.406C258.52 173.023 257.848 172.52 257.387 171.895L258.734 170.184C259.609 171.223 260.688 171.742 261.969 171.742C262.914 171.742 263.66 171.484 264.207 170.969C264.754 170.461 265.027 169.711 265.027 168.719V167.863C264.207 168.777 263.113 169.234 261.746 169.234C260.262 169.234 259.047 168.645 258.102 167.465C257.164 166.285 256.695 164.652 256.695 162.566ZM259.531 162.812C259.531 164.086 259.789 165.09 260.305 165.824C260.828 166.551 261.551 166.914 262.473 166.914C263.621 166.914 264.473 166.422 265.027 165.438V159.859C264.488 158.898 263.645 158.418 262.496 158.418C261.559 158.418 260.828 158.789 260.305 159.531C259.789 160.273 259.531 161.367 259.531 162.812ZM276.395 169.234C274.59 169.234 273.125 168.668 272 167.535C270.883 166.395 270.324 164.879 270.324 162.988V162.637C270.324 161.371 270.566 160.242 271.051 159.25C271.543 158.25 272.23 157.473 273.113 156.918C273.996 156.363 274.98 156.086 276.066 156.086C277.793 156.086 279.125 156.637 280.062 157.738C281.008 158.84 281.48 160.398 281.48 162.414V163.562H273.195C273.281 164.609 273.629 165.438 274.238 166.047C274.855 166.656 275.629 166.961 276.559 166.961C277.863 166.961 278.926 166.434 279.746 165.379L281.281 166.844C280.773 167.602 280.094 168.191 279.242 168.613C278.398 169.027 277.449 169.234 276.395 169.234ZM276.055 158.371C275.273 158.371 274.641 158.645 274.156 159.191C273.68 159.738 273.375 160.5 273.242 161.477H278.668V161.266C278.605 160.312 278.352 159.594 277.906 159.109C277.461 158.617 276.844 158.371 276.055 158.371Z" fill="#545454" fill-opacity="0.6"/>
<path d="M156.48 556.66V563H153.516V545.938H160.043C161.949 545.938 163.461 546.434 164.578 547.426C165.703 548.418 166.266 549.73 166.266 551.363C166.266 553.035 165.715 554.336 164.613 555.266C163.52 556.195 161.984 556.66 160.008 556.66H156.48ZM156.48 554.281H160.043C161.098 554.281 161.902 554.035 162.457 553.543C163.012 553.043 163.289 552.324 163.289 551.387C163.289 550.465 163.008 549.73 162.445 549.184C161.883 548.629 161.109 548.344 160.125 548.328H156.48V554.281ZM175.23 552.922C174.855 552.859 174.469 552.828 174.07 552.828C172.766 552.828 171.887 553.328 171.434 554.328V563H168.586V550.32H171.305L171.375 551.738C172.062 550.637 173.016 550.086 174.234 550.086C174.641 550.086 174.977 550.141 175.242 550.25L175.23 552.922ZM176.074 556.543C176.074 555.301 176.32 554.184 176.812 553.191C177.305 552.191 177.996 551.426 178.887 550.895C179.777 550.355 180.801 550.086 181.957 550.086C183.668 550.086 185.055 550.637 186.117 551.738C187.188 552.84 187.766 554.301 187.852 556.121L187.863 556.789C187.863 558.039 187.621 559.156 187.137 560.141C186.66 561.125 185.973 561.887 185.074 562.426C184.184 562.965 183.152 563.234 181.98 563.234C180.191 563.234 178.758 562.641 177.68 561.453C176.609 560.258 176.074 558.668 176.074 556.684V556.543ZM178.922 556.789C178.922 558.094 179.191 559.117 179.73 559.859C180.27 560.594 181.02 560.961 181.98 560.961C182.941 560.961 183.688 560.586 184.219 559.836C184.758 559.086 185.027 557.988 185.027 556.543C185.027 555.262 184.75 554.246 184.195 553.496C183.648 552.746 182.902 552.371 181.957 552.371C181.027 552.371 180.289 552.742 179.742 553.484C179.195 554.219 178.922 555.32 178.922 556.789ZM195.48 560.961C196.191 560.961 196.781 560.754 197.25 560.34C197.719 559.926 197.969 559.414 198 558.805H200.684C200.652 559.594 200.406 560.332 199.945 561.02C199.484 561.699 198.859 562.238 198.07 562.637C197.281 563.035 196.43 563.234 195.516 563.234C193.742 563.234 192.336 562.66 191.297 561.512C190.258 560.363 189.738 558.777 189.738 556.754V556.461C189.738 554.531 190.254 552.988 191.285 551.832C192.316 550.668 193.723 550.086 195.504 550.086C197.012 550.086 198.238 550.527 199.184 551.41C200.137 552.285 200.637 553.438 200.684 554.867H198C197.969 554.141 197.719 553.543 197.25 553.074C196.789 552.605 196.199 552.371 195.48 552.371C194.559 552.371 193.848 552.707 193.348 553.379C192.848 554.043 192.594 555.055 192.586 556.414V556.871C192.586 558.246 192.832 559.273 193.324 559.953C193.824 560.625 194.543 560.961 195.48 560.961ZM208.418 563.234C206.613 563.234 205.148 562.668 204.023 561.535C202.906 560.395 202.348 558.879 202.348 556.988V556.637C202.348 555.371 202.59 554.242 203.074 553.25C203.566 552.25 204.254 551.473 205.137 550.918C206.02 550.363 207.004 550.086 208.09 550.086C209.816 550.086 211.148 550.637 212.086 551.738C213.031 552.84 213.504 554.398 213.504 556.414V557.562H205.219C205.305 558.609 205.652 559.438 206.262 560.047C206.879 560.656 207.652 560.961 208.582 560.961C209.887 560.961 210.949 560.434 211.77 559.379L213.305 560.844C212.797 561.602 212.117 562.191 211.266 562.613C210.422 563.027 209.473 563.234 208.418 563.234ZM208.078 552.371C207.297 552.371 206.664 552.645 206.18 553.191C205.703 553.738 205.398 554.5 205.266 555.477H210.691V555.266C210.629 554.312 210.375 553.594 209.93 553.109C209.484 552.617 208.867 552.371 208.078 552.371ZM222.832 559.555C222.832 559.047 222.621 558.66 222.199 558.395C221.785 558.129 221.094 557.895 220.125 557.691C219.156 557.488 218.348 557.23 217.699 556.918C216.277 556.23 215.566 555.234 215.566 553.93C215.566 552.836 216.027 551.922 216.949 551.188C217.871 550.453 219.043 550.086 220.465 550.086C221.98 550.086 223.203 550.461 224.133 551.211C225.07 551.961 225.539 552.934 225.539 554.129H222.691C222.691 553.582 222.488 553.129 222.082 552.77C221.676 552.402 221.137 552.219 220.465 552.219C219.84 552.219 219.328 552.363 218.93 552.652C218.539 552.941 218.344 553.328 218.344 553.812C218.344 554.25 218.527 554.59 218.895 554.832C219.262 555.074 220.004 555.32 221.121 555.57C222.238 555.812 223.113 556.105 223.746 556.449C224.387 556.785 224.859 557.191 225.164 557.668C225.477 558.145 225.633 558.723 225.633 559.402C225.633 560.543 225.16 561.469 224.215 562.18C223.27 562.883 222.031 563.234 220.5 563.234C219.461 563.234 218.535 563.047 217.723 562.672C216.91 562.297 216.277 561.781 215.824 561.125C215.371 560.469 215.145 559.762 215.145 559.004H217.91C217.949 559.676 218.203 560.195 218.672 560.562C219.141 560.922 219.762 561.102 220.535 561.102C221.285 561.102 221.855 560.961 222.246 560.68C222.637 560.391 222.832 560.016 222.832 559.555ZM235.23 559.555C235.23 559.047 235.02 558.66 234.598 558.395C234.184 558.129 233.492 557.895 232.523 557.691C231.555 557.488 230.746 557.23 230.098 556.918C228.676 556.23 227.965 555.234 227.965 553.93C227.965 552.836 228.426 551.922 229.348 551.188C230.27 550.453 231.441 550.086 232.863 550.086C234.379 550.086 235.602 550.461 236.531 551.211C237.469 551.961 237.938 552.934 237.938 554.129H235.09C235.09 553.582 234.887 553.129 234.48 552.77C234.074 552.402 233.535 552.219 232.863 552.219C232.238 552.219 231.727 552.363 231.328 552.652C230.938 552.941 230.742 553.328 230.742 553.812C230.742 554.25 230.926 554.59 231.293 554.832C231.66 555.074 232.402 555.32 233.52 555.57C234.637 555.812 235.512 556.105 236.145 556.449C236.785 556.785 237.258 557.191 237.562 557.668C237.875 558.145 238.031 558.723 238.031 559.402C238.031 560.543 237.559 561.469 236.613 562.18C235.668 562.883 234.43 563.234 232.898 563.234C231.859 563.234 230.934 563.047 230.121 562.672C229.309 562.297 228.676 561.781 228.223 561.125C227.77 560.469 227.543 559.762 227.543 559.004H230.309C230.348 559.676 230.602 560.195 231.07 560.562C231.539 560.922 232.16 561.102 232.934 561.102C233.684 561.102 234.254 560.961 234.645 560.68C235.035 560.391 235.23 560.016 235.23 559.555ZM246.105 563.234C244.301 563.234 242.836 562.668 241.711 561.535C240.594 560.395 240.035 558.879 240.035 556.988V556.637C240.035 555.371 240.277 554.242 240.762 553.25C241.254 552.25 241.941 551.473 242.824 550.918C243.707 550.363 244.691 550.086 245.777 550.086C247.504 550.086 248.836 550.637 249.773 551.738C250.719 552.84 251.191 554.398 251.191 556.414V557.562H242.906C242.992 558.609 243.34 559.438 243.949 560.047C244.566 560.656 245.34 560.961 246.27 560.961C247.574 560.961 248.637 560.434 249.457 559.379L250.992 560.844C250.484 561.602 249.805 562.191 248.953 562.613C248.109 563.027 247.16 563.234 246.105 563.234ZM245.766 552.371C244.984 552.371 244.352 552.645 243.867 553.191C243.391 553.738 243.086 554.5 242.953 555.477H248.379V555.266C248.316 554.312 248.062 553.594 247.617 553.109C247.172 552.617 246.555 552.371 245.766 552.371ZM260.52 559.555C260.52 559.047 260.309 558.66 259.887 558.395C259.473 558.129 258.781 557.895 257.812 557.691C256.844 557.488 256.035 557.23 255.387 556.918C253.965 556.23 253.254 555.234 253.254 553.93C253.254 552.836 253.715 551.922 254.637 551.188C255.559 550.453 256.73 550.086 258.152 550.086C259.668 550.086 260.891 550.461 261.82 551.211C262.758 551.961 263.227 552.934 263.227 554.129H260.379C260.379 553.582 260.176 553.129 259.77 552.77C259.363 552.402 258.824 552.219 258.152 552.219C257.527 552.219 257.016 552.363 256.617 552.652C256.227 552.941 256.031 553.328 256.031 553.812C256.031 554.25 256.215 554.59 256.582 554.832C256.949 555.074 257.691 555.32 258.809 555.57C259.926 555.812 260.801 556.105 261.434 556.449C262.074 556.785 262.547 557.191 262.852 557.668C263.164 558.145 263.32 558.723 263.32 559.402C263.32 560.543 262.848 561.469 261.902 562.18C260.957 562.883 259.719 563.234 258.188 563.234C257.148 563.234 256.223 563.047 255.41 562.672C254.598 562.297 253.965 561.781 253.512 561.125C253.059 560.469 252.832 559.762 252.832 559.004H255.598C255.637 559.676 255.891 560.195 256.359 560.562C256.828 560.922 257.449 561.102 258.223 561.102C258.973 561.102 259.543 560.961 259.934 560.68C260.324 560.391 260.52 560.016 260.52 559.555ZM279.363 563C279.238 562.758 279.129 562.363 279.035 561.816C278.129 562.762 277.02 563.234 275.707 563.234C274.434 563.234 273.395 562.871 272.59 562.145C271.785 561.418 271.383 560.52 271.383 559.449C271.383 558.098 271.883 557.062 272.883 556.344C273.891 555.617 275.328 555.254 277.195 555.254H278.941V554.422C278.941 553.766 278.758 553.242 278.391 552.852C278.023 552.453 277.465 552.254 276.715 552.254C276.066 552.254 275.535 552.418 275.121 552.746C274.707 553.066 274.5 553.477 274.5 553.977H271.652C271.652 553.281 271.883 552.633 272.344 552.031C272.805 551.422 273.43 550.945 274.219 550.602C275.016 550.258 275.902 550.086 276.879 550.086C278.363 550.086 279.547 550.461 280.43 551.211C281.312 551.953 281.766 553 281.789 554.352V560.07C281.789 561.211 281.949 562.121 282.27 562.801V563H279.363ZM276.234 560.949C276.797 560.949 277.324 560.812 277.816 560.539C278.316 560.266 278.691 559.898 278.941 559.438V557.047H277.406C276.352 557.047 275.559 557.23 275.027 557.598C274.496 557.965 274.23 558.484 274.23 559.156C274.23 559.703 274.41 560.141 274.77 560.469C275.137 560.789 275.625 560.949 276.234 560.949ZM287.414 550.32L287.496 551.785C288.434 550.652 289.664 550.086 291.188 550.086C293.828 550.086 295.172 551.598 295.219 554.621V563H292.371V554.785C292.371 553.98 292.195 553.387 291.844 553.004C291.5 552.613 290.934 552.418 290.145 552.418C288.996 552.418 288.141 552.938 287.578 553.977V563H284.73V550.32H287.414ZM297.598 556.566C297.598 554.613 298.051 553.047 298.957 551.867C299.863 550.68 301.078 550.086 302.602 550.086C303.945 550.086 305.031 550.555 305.859 551.492V545H308.707V563H306.129L305.988 561.688C305.137 562.719 304 563.234 302.578 563.234C301.094 563.234 299.891 562.637 298.969 561.441C298.055 560.246 297.598 558.621 297.598 556.566ZM300.445 556.812C300.445 558.102 300.691 559.109 301.184 559.836C301.684 560.555 302.391 560.914 303.305 560.914C304.469 560.914 305.32 560.395 305.859 559.355V553.941C305.336 552.926 304.492 552.418 303.328 552.418C302.406 552.418 301.695 552.785 301.195 553.52C300.695 554.246 300.445 555.344 300.445 556.812ZM188.309 593.074L190.324 584.32H193.102L189.645 597H187.301L184.582 588.293L181.91 597H179.566L176.098 584.32H178.875L180.926 592.98L183.527 584.32H185.672L188.309 593.074ZM194.473 590.543C194.473 589.301 194.719 588.184 195.211 587.191C195.703 586.191 196.395 585.426 197.285 584.895C198.176 584.355 199.199 584.086 200.355 584.086C202.066 584.086 203.453 584.637 204.516 585.738C205.586 586.84 206.164 588.301 206.25 590.121L206.262 590.789C206.262 592.039 206.02 593.156 205.535 594.141C205.059 595.125 204.371 595.887 203.473 596.426C202.582 596.965 201.551 597.234 200.379 597.234C198.59 597.234 197.156 596.641 196.078 595.453C195.008 594.258 194.473 592.668 194.473 590.684V590.543ZM197.32 590.789C197.32 592.094 197.59 593.117 198.129 593.859C198.668 594.594 199.418 594.961 200.379 594.961C201.34 594.961 202.086 594.586 202.617 593.836C203.156 593.086 203.426 591.988 203.426 590.543C203.426 589.262 203.148 588.246 202.594 587.496C202.047 586.746 201.301 586.371 200.355 586.371C199.426 586.371 198.688 586.742 198.141 587.484C197.594 588.219 197.32 589.32 197.32 590.789ZM215.309 586.922C214.934 586.859 214.547 586.828 214.148 586.828C212.844 586.828 211.965 587.328 211.512 588.328V597H208.664V584.32H211.383L211.453 585.738C212.141 584.637 213.094 584.086 214.312 584.086C214.719 584.086 215.055 584.141 215.32 584.25L215.309 586.922ZM221.227 591.562L219.961 592.863V597H217.113V579H219.961V589.383L220.852 588.27L224.355 584.32H227.777L223.066 589.605L228.281 597H224.988L221.227 591.562ZM237.855 581.262C237.059 581.152 236.371 581.098 235.793 581.098C234.262 581.098 233.496 581.816 233.496 583.254V584.32H236.074V586.43H233.496V597H230.648V586.43H228.715V584.32H230.648V583.184C230.656 581.754 231.078 580.66 231.914 579.902C232.758 579.137 233.945 578.754 235.477 578.754C236.43 578.754 238.172 578.941 240.703 579.316V597H237.855V581.262ZM243.316 590.543C243.316 589.301 243.562 588.184 244.055 587.191C244.547 586.191 245.238 585.426 246.129 584.895C247.02 584.355 248.043 584.086 249.199 584.086C250.91 584.086 252.297 584.637 253.359 585.738C254.43 586.84 255.008 588.301 255.094 590.121L255.105 590.789C255.105 592.039 254.863 593.156 254.379 594.141C253.902 595.125 253.215 595.887 252.316 596.426C251.426 596.965 250.395 597.234 249.223 597.234C247.434 597.234 246 596.641 244.922 595.453C243.852 594.258 243.316 592.668 243.316 590.684V590.543ZM246.164 590.789C246.164 592.094 246.434 593.117 246.973 593.859C247.512 594.594 248.262 594.961 249.223 594.961C250.184 594.961 250.93 594.586 251.461 593.836C252 593.086 252.27 591.988 252.27 590.543C252.27 589.262 251.992 588.246 251.438 587.496C250.891 586.746 250.145 586.371 249.199 586.371C248.27 586.371 247.531 586.742 246.984 587.484C246.438 588.219 246.164 589.32 246.164 590.789ZM268.652 593.074L270.668 584.32H273.445L269.988 597H267.645L264.926 588.293L262.254 597H259.91L256.441 584.32H259.219L261.27 592.98L263.871 584.32H266.016L268.652 593.074ZM282.457 593.555C282.457 593.047 282.246 592.66 281.824 592.395C281.41 592.129 280.719 591.895 279.75 591.691C278.781 591.488 277.973 591.23 277.324 590.918C275.902 590.23 275.191 589.234 275.191 587.93C275.191 586.836 275.652 585.922 276.574 585.188C277.496 584.453 278.668 584.086 280.09 584.086C281.605 584.086 282.828 584.461 283.758 585.211C284.695 585.961 285.164 586.934 285.164 588.129H282.316C282.316 587.582 282.113 587.129 281.707 586.77C281.301 586.402 280.762 586.219 280.09 586.219C279.465 586.219 278.953 586.363 278.555 586.652C278.164 586.941 277.969 587.328 277.969 587.812C277.969 588.25 278.152 588.59 278.52 588.832C278.887 589.074 279.629 589.32 280.746 589.57C281.863 589.812 282.738 590.105 283.371 590.449C284.012 590.785 284.484 591.191 284.789 591.668C285.102 592.145 285.258 592.723 285.258 593.402C285.258 594.543 284.785 595.469 283.84 596.18C282.895 596.883 281.656 597.234 280.125 597.234C279.086 597.234 278.16 597.047 277.348 596.672C276.535 596.297 275.902 595.781 275.449 595.125C274.996 594.469 274.77 593.762 274.77 593.004H277.535C277.574 593.676 277.828 594.195 278.297 594.562C278.766 594.922 279.387 595.102 280.16 595.102C280.91 595.102 281.48 594.961 281.871 594.68C282.262 594.391 282.457 594.016 282.457 593.555Z" fill="#545454" fill-opacity="0.6"/>
<path d="M401.535 548.328H396.215V563H393.273V548.328H388V545.938H401.535V548.328ZM408.039 563.234C406.234 563.234 404.77 562.668 403.645 561.535C402.527 560.395 401.969 558.879 401.969 556.988V556.637C401.969 555.371 402.211 554.242 402.695 553.25C403.188 552.25 403.875 551.473 404.758 550.918C405.641 550.363 406.625 550.086 407.711 550.086C409.438 550.086 410.77 550.637 411.707 551.738C412.652 552.84 413.125 554.398 413.125 556.414V557.562H404.84C404.926 558.609 405.273 559.438 405.883 560.047C406.5 560.656 407.273 560.961 408.203 560.961C409.508 560.961 410.57 560.434 411.391 559.379L412.926 560.844C412.418 561.602 411.738 562.191 410.887 562.613C410.043 563.027 409.094 563.234 408.039 563.234ZM407.699 552.371C406.918 552.371 406.285 552.645 405.801 553.191C405.324 553.738 405.02 554.5 404.887 555.477H410.312V555.266C410.25 554.312 409.996 553.594 409.551 553.109C409.105 552.617 408.488 552.371 407.699 552.371ZM420.555 560.961C421.266 560.961 421.855 560.754 422.324 560.34C422.793 559.926 423.043 559.414 423.074 558.805H425.758C425.727 559.594 425.48 560.332 425.02 561.02C424.559 561.699 423.934 562.238 423.145 562.637C422.355 563.035 421.504 563.234 420.59 563.234C418.816 563.234 417.41 562.66 416.371 561.512C415.332 560.363 414.812 558.777 414.812 556.754V556.461C414.812 554.531 415.328 552.988 416.359 551.832C417.391 550.668 418.797 550.086 420.578 550.086C422.086 550.086 423.312 550.527 424.258 551.41C425.211 552.285 425.711 553.438 425.758 554.867H423.074C423.043 554.141 422.793 553.543 422.324 553.074C421.863 552.605 421.273 552.371 420.555 552.371C419.633 552.371 418.922 552.707 418.422 553.379C417.922 554.043 417.668 555.055 417.66 556.414V556.871C417.66 558.246 417.906 559.273 418.398 559.953C418.898 560.625 419.617 560.961 420.555 560.961ZM430.715 551.703C431.645 550.625 432.82 550.086 434.242 550.086C436.945 550.086 438.316 551.629 438.355 554.715V563H435.508V554.82C435.508 553.945 435.316 553.328 434.934 552.969C434.559 552.602 434.004 552.418 433.27 552.418C432.129 552.418 431.277 552.926 430.715 553.941V563H427.867V545H430.715V551.703ZM443.887 550.32L443.969 551.785C444.906 550.652 446.137 550.086 447.66 550.086C450.301 550.086 451.645 551.598 451.691 554.621V563H448.844V554.785C448.844 553.98 448.668 553.387 448.316 553.004C447.973 552.613 447.406 552.418 446.617 552.418C445.469 552.418 444.613 552.938 444.051 553.977V563H441.203V550.32H443.887ZM454.07 556.543C454.07 555.301 454.316 554.184 454.809 553.191C455.301 552.191 455.992 551.426 456.883 550.895C457.773 550.355 458.797 550.086 459.953 550.086C461.664 550.086 463.051 550.637 464.113 551.738C465.184 552.84 465.762 554.301 465.848 556.121L465.859 556.789C465.859 558.039 465.617 559.156 465.133 560.141C464.656 561.125 463.969 561.887 463.07 562.426C462.18 562.965 461.148 563.234 459.977 563.234C458.188 563.234 456.754 562.641 455.676 561.453C454.605 560.258 454.07 558.668 454.07 556.684V556.543ZM456.918 556.789C456.918 558.094 457.188 559.117 457.727 559.859C458.266 560.594 459.016 560.961 459.977 560.961C460.938 560.961 461.684 560.586 462.215 559.836C462.754 559.086 463.023 557.988 463.023 556.543C463.023 555.262 462.746 554.246 462.191 553.496C461.645 552.746 460.898 552.371 459.953 552.371C459.023 552.371 458.285 552.742 457.738 553.484C457.191 554.219 456.918 555.32 456.918 556.789ZM471.297 563H468.449V545H471.297V563ZM473.875 556.543C473.875 555.301 474.121 554.184 474.613 553.191C475.105 552.191 475.797 551.426 476.688 550.895C477.578 550.355 478.602 550.086 479.758 550.086C481.469 550.086 482.855 550.637 483.918 551.738C484.988 552.84 485.566 554.301 485.652 556.121L485.664 556.789C485.664 558.039 485.422 559.156 484.938 560.141C484.461 561.125 483.773 561.887 482.875 562.426C481.984 562.965 480.953 563.234 479.781 563.234C477.992 563.234 476.559 562.641 475.48 561.453C474.41 560.258 473.875 558.668 473.875 556.684V556.543ZM476.723 556.789C476.723 558.094 476.992 559.117 477.531 559.859C478.07 560.594 478.82 560.961 479.781 560.961C480.742 560.961 481.488 560.586 482.02 559.836C482.559 559.086 482.828 557.988 482.828 556.543C482.828 555.262 482.551 554.246 481.996 553.496C481.449 552.746 480.703 552.371 479.758 552.371C478.828 552.371 478.09 552.742 477.543 553.484C476.996 554.219 476.723 555.32 476.723 556.789ZM487.574 556.566C487.574 554.598 488.035 553.027 488.957 551.855C489.887 550.676 491.117 550.086 492.648 550.086C494.094 550.086 495.23 550.59 496.059 551.598L496.188 550.32H498.754V562.613C498.754 564.277 498.234 565.59 497.195 566.551C496.164 567.512 494.77 567.992 493.012 567.992C492.082 567.992 491.172 567.797 490.281 567.406C489.398 567.023 488.727 566.52 488.266 565.895L489.613 564.184C490.488 565.223 491.566 565.742 492.848 565.742C493.793 565.742 494.539 565.484 495.086 564.969C495.633 564.461 495.906 563.711 495.906 562.719V561.863C495.086 562.777 493.992 563.234 492.625 563.234C491.141 563.234 489.926 562.645 488.98 561.465C488.043 560.285 487.574 558.652 487.574 556.566ZM490.41 556.812C490.41 558.086 490.668 559.09 491.184 559.824C491.707 560.551 492.43 560.914 493.352 560.914C494.5 560.914 495.352 560.422 495.906 559.438V553.859C495.367 552.898 494.523 552.418 493.375 552.418C492.438 552.418 491.707 552.789 491.184 553.531C490.668 554.273 490.41 555.367 490.41 556.812ZM504.719 563H501.871V550.32H504.719V563ZM501.695 547.027C501.695 546.59 501.832 546.227 502.105 545.938C502.387 545.648 502.785 545.504 503.301 545.504C503.816 545.504 504.215 545.648 504.496 545.938C504.777 546.227 504.918 546.59 504.918 547.027C504.918 547.457 504.777 547.816 504.496 548.105C504.215 548.387 503.816 548.527 503.301 548.527C502.785 548.527 502.387 548.387 502.105 548.105C501.832 547.816 501.695 547.457 501.695 547.027ZM513.414 563.234C511.609 563.234 510.145 562.668 509.02 561.535C507.902 560.395 507.344 558.879 507.344 556.988V556.637C507.344 555.371 507.586 554.242 508.07 553.25C508.562 552.25 509.25 551.473 510.133 550.918C511.016 550.363 512 550.086 513.086 550.086C514.812 550.086 516.145 550.637 517.082 551.738C518.027 552.84 518.5 554.398 518.5 556.414V557.562H510.215C510.301 558.609 510.648 559.438 511.258 560.047C511.875 560.656 512.648 560.961 513.578 560.961C514.883 560.961 515.945 560.434 516.766 559.379L518.301 560.844C517.793 561.602 517.113 562.191 516.262 562.613C515.418 563.027 514.469 563.234 513.414 563.234ZM513.074 552.371C512.293 552.371 511.66 552.645 511.176 553.191C510.699 553.738 510.395 554.5 510.262 555.477H515.688V555.266C515.625 554.312 515.371 553.594 514.926 553.109C514.48 552.617 513.863 552.371 513.074 552.371ZM527.828 559.555C527.828 559.047 527.617 558.66 527.195 558.395C526.781 558.129 526.09 557.895 525.121 557.691C524.152 557.488 523.344 557.23 522.695 556.918C521.273 556.23 520.562 555.234 520.562 553.93C520.562 552.836 521.023 551.922 521.945 551.188C522.867 550.453 524.039 550.086 525.461 550.086C526.977 550.086 528.199 550.461 529.129 551.211C530.066 551.961 530.535 552.934 530.535 554.129H527.688C527.688 553.582 527.484 553.129 527.078 552.77C526.672 552.402 526.133 552.219 525.461 552.219C524.836 552.219 524.324 552.363 523.926 552.652C523.535 552.941 523.34 553.328 523.34 553.812C523.34 554.25 523.523 554.59 523.891 554.832C524.258 555.074 525 555.32 526.117 555.57C527.234 555.812 528.109 556.105 528.742 556.449C529.383 556.785 529.855 557.191 530.16 557.668C530.473 558.145 530.629 558.723 530.629 559.402C530.629 560.543 530.156 561.469 529.211 562.18C528.266 562.883 527.027 563.234 525.496 563.234C524.457 563.234 523.531 563.047 522.719 562.672C521.906 562.297 521.273 561.781 520.82 561.125C520.367 560.469 520.141 559.762 520.141 559.004H522.906C522.945 559.676 523.199 560.195 523.668 560.562C524.137 560.922 524.758 561.102 525.531 561.102C526.281 561.102 526.852 560.961 527.242 560.68C527.633 560.391 527.828 560.016 527.828 559.555ZM546.672 563C546.547 562.758 546.438 562.363 546.344 561.816C545.438 562.762 544.328 563.234 543.016 563.234C541.742 563.234 540.703 562.871 539.898 562.145C539.094 561.418 538.691 560.52 538.691 559.449C538.691 558.098 539.191 557.062 540.191 556.344C541.199 555.617 542.637 555.254 544.504 555.254H546.25V554.422C546.25 553.766 546.066 553.242 545.699 552.852C545.332 552.453 544.773 552.254 544.023 552.254C543.375 552.254 542.844 552.418 542.43 552.746C542.016 553.066 541.809 553.477 541.809 553.977H538.961C538.961 553.281 539.191 552.633 539.652 552.031C540.113 551.422 540.738 550.945 541.527 550.602C542.324 550.258 543.211 550.086 544.188 550.086C545.672 550.086 546.855 550.461 547.738 551.211C548.621 551.953 549.074 553 549.098 554.352V560.07C549.098 561.211 549.258 562.121 549.578 562.801V563H546.672ZM543.543 560.949C544.105 560.949 544.633 560.812 545.125 560.539C545.625 560.266 546 559.898 546.25 559.438V557.047H544.715C543.66 557.047 542.867 557.23 542.336 557.598C541.805 557.965 541.539 558.484 541.539 559.156C541.539 559.703 541.719 560.141 542.078 560.469C542.445 560.789 542.934 560.949 543.543 560.949ZM554.723 550.32L554.805 551.785C555.742 550.652 556.973 550.086 558.496 550.086C561.137 550.086 562.48 551.598 562.527 554.621V563H559.68V554.785C559.68 553.98 559.504 553.387 559.152 553.004C558.809 552.613 558.242 552.418 557.453 552.418C556.305 552.418 555.449 552.938 554.887 553.977V563H552.039V550.32H554.723ZM564.906 556.566C564.906 554.613 565.359 553.047 566.266 551.867C567.172 550.68 568.387 550.086 569.91 550.086C571.254 550.086 572.34 550.555 573.168 551.492V545H576.016V563H573.438L573.297 561.688C572.445 562.719 571.309 563.234 569.887 563.234C568.402 563.234 567.199 562.637 566.277 561.441C565.363 560.246 564.906 558.621 564.906 556.566ZM567.754 556.812C567.754 558.102 568 559.109 568.492 559.836C568.992 560.555 569.699 560.914 570.613 560.914C571.777 560.914 572.629 560.395 573.168 559.355V553.941C572.645 552.926 571.801 552.418 570.637 552.418C569.715 552.418 569.004 552.785 568.504 553.52C568.004 554.246 567.754 555.344 567.754 556.812ZM426.988 597C426.863 596.758 426.754 596.363 426.66 595.816C425.754 596.762 424.645 597.234 423.332 597.234C422.059 597.234 421.02 596.871 420.215 596.145C419.41 595.418 419.008 594.52 419.008 593.449C419.008 592.098 419.508 591.062 420.508 590.344C421.516 589.617 422.953 589.254 424.82 589.254H426.566V588.422C426.566 587.766 426.383 587.242 426.016 586.852C425.648 586.453 425.09 586.254 424.34 586.254C423.691 586.254 423.16 586.418 422.746 586.746C422.332 587.066 422.125 587.477 422.125 587.977H419.277C419.277 587.281 419.508 586.633 419.969 586.031C420.43 585.422 421.055 584.945 421.844 584.602C422.641 584.258 423.527 584.086 424.504 584.086C425.988 584.086 427.172 584.461 428.055 585.211C428.938 585.953 429.391 587 429.414 588.352V594.07C429.414 595.211 429.574 596.121 429.895 596.801V597H426.988ZM423.859 594.949C424.422 594.949 424.949 594.812 425.441 594.539C425.941 594.266 426.316 593.898 426.566 593.438V591.047H425.031C423.977 591.047 423.184 591.23 422.652 591.598C422.121 591.965 421.855 592.484 421.855 593.156C421.855 593.703 422.035 594.141 422.395 594.469C422.762 594.789 423.25 594.949 423.859 594.949ZM439.035 586.922C438.66 586.859 438.273 586.828 437.875 586.828C436.57 586.828 435.691 587.328 435.238 588.328V597H432.391V584.32H435.109L435.18 585.738C435.867 584.637 436.82 584.086 438.039 584.086C438.445 584.086 438.781 584.141 439.047 584.25L439.035 586.922ZM445.809 594.961C446.52 594.961 447.109 594.754 447.578 594.34C448.047 593.926 448.297 593.414 448.328 592.805H451.012C450.98 593.594 450.734 594.332 450.273 595.02C449.812 595.699 449.188 596.238 448.398 596.637C447.609 597.035 446.758 597.234 445.844 597.234C444.07 597.234 442.664 596.66 441.625 595.512C440.586 594.363 440.066 592.777 440.066 590.754V590.461C440.066 588.531 440.582 586.988 441.613 585.832C442.645 584.668 444.051 584.086 445.832 584.086C447.34 584.086 448.566 584.527 449.512 585.41C450.465 586.285 450.965 587.438 451.012 588.867H448.328C448.297 588.141 448.047 587.543 447.578 587.074C447.117 586.605 446.527 586.371 445.809 586.371C444.887 586.371 444.176 586.707 443.676 587.379C443.176 588.043 442.922 589.055 442.914 590.414V590.871C442.914 592.246 443.16 593.273 443.652 593.953C444.152 594.625 444.871 594.961 445.809 594.961ZM455.969 585.703C456.898 584.625 458.074 584.086 459.496 584.086C462.199 584.086 463.57 585.629 463.609 588.715V597H460.762V588.82C460.762 587.945 460.57 587.328 460.188 586.969C459.812 586.602 459.258 586.418 458.523 586.418C457.383 586.418 456.531 586.926 455.969 587.941V597H453.121V579H455.969V585.703ZM469.527 597H466.68V584.32H469.527V597ZM466.504 581.027C466.504 580.59 466.641 580.227 466.914 579.938C467.195 579.648 467.594 579.504 468.109 579.504C468.625 579.504 469.023 579.648 469.305 579.938C469.586 580.227 469.727 580.59 469.727 581.027C469.727 581.457 469.586 581.816 469.305 582.105C469.023 582.387 468.625 582.527 468.109 582.527C467.594 582.527 467.195 582.387 466.914 582.105C466.641 581.816 466.504 581.457 466.504 581.027ZM476.207 581.238V584.32H478.445V586.43H476.207V593.508C476.207 593.992 476.301 594.344 476.488 594.562C476.684 594.773 477.027 594.879 477.52 594.879C477.848 594.879 478.18 594.84 478.516 594.762V596.965C477.867 597.145 477.242 597.234 476.641 597.234C474.453 597.234 473.359 596.027 473.359 593.613V586.43H471.273V584.32H473.359V581.238H476.207ZM486.215 597.234C484.41 597.234 482.945 596.668 481.82 595.535C480.703 594.395 480.145 592.879 480.145 590.988V590.637C480.145 589.371 480.387 588.242 480.871 587.25C481.363 586.25 482.051 585.473 482.934 584.918C483.816 584.363 484.801 584.086 485.887 584.086C487.613 584.086 488.945 584.637 489.883 585.738C490.828 586.84 491.301 588.398 491.301 590.414V591.562H483.016C483.102 592.609 483.449 593.438 484.059 594.047C484.676 594.656 485.449 594.961 486.379 594.961C487.684 594.961 488.746 594.434 489.566 593.379L491.102 594.844C490.594 595.602 489.914 596.191 489.062 596.613C488.219 597.027 487.27 597.234 486.215 597.234ZM485.875 586.371C485.094 586.371 484.461 586.645 483.977 587.191C483.5 587.738 483.195 588.5 483.062 589.477H488.488V589.266C488.426 588.312 488.172 587.594 487.727 587.109C487.281 586.617 486.664 586.371 485.875 586.371ZM498.73 594.961C499.441 594.961 500.031 594.754 500.5 594.34C500.969 593.926 501.219 593.414 501.25 592.805H503.934C503.902 593.594 503.656 594.332 503.195 595.02C502.734 595.699 502.109 596.238 501.32 596.637C500.531 597.035 499.68 597.234 498.766 597.234C496.992 597.234 495.586 596.66 494.547 595.512C493.508 594.363 492.988 592.777 492.988 590.754V590.461C492.988 588.531 493.504 586.988 494.535 585.832C495.566 584.668 496.973 584.086 498.754 584.086C500.262 584.086 501.488 584.527 502.434 585.41C503.387 586.285 503.887 587.438 503.934 588.867H501.25C501.219 588.141 500.969 587.543 500.5 587.074C500.039 586.605 499.449 586.371 498.73 586.371C497.809 586.371 497.098 586.707 496.598 587.379C496.098 588.043 495.844 589.055 495.836 590.414V590.871C495.836 592.246 496.082 593.273 496.574 593.953C497.074 594.625 497.793 594.961 498.73 594.961ZM509.652 581.238V584.32H511.891V586.43H509.652V593.508C509.652 593.992 509.746 594.344 509.934 594.562C510.129 594.773 510.473 594.879 510.965 594.879C511.293 594.879 511.625 594.84 511.961 594.762V596.965C511.312 597.145 510.688 597.234 510.086 597.234C507.898 597.234 506.805 596.027 506.805 593.613V586.43H504.719V584.32H506.805V581.238H509.652ZM521.758 595.758C520.922 596.742 519.734 597.234 518.195 597.234C516.82 597.234 515.777 596.832 515.066 596.027C514.363 595.223 514.012 594.059 514.012 592.535V584.32H516.859V592.5C516.859 594.109 517.527 594.914 518.863 594.914C520.246 594.914 521.18 594.418 521.664 593.426V584.32H524.512V597H521.828L521.758 595.758ZM534.051 586.922C533.676 586.859 533.289 586.828 532.891 586.828C531.586 586.828 530.707 587.328 530.254 588.328V597H527.406V584.32H530.125L530.195 585.738C530.883 584.637 531.836 584.086 533.055 584.086C533.461 584.086 533.797 584.141 534.062 584.25L534.051 586.922ZM541.199 597.234C539.395 597.234 537.93 596.668 536.805 595.535C535.688 594.395 535.129 592.879 535.129 590.988V590.637C535.129 589.371 535.371 588.242 535.855 587.25C536.348 586.25 537.035 585.473 537.918 584.918C538.801 584.363 539.785 584.086 540.871 584.086C542.598 584.086 543.93 584.637 544.867 585.738C545.812 586.84 546.285 588.398 546.285 590.414V591.562H538C538.086 592.609 538.434 593.438 539.043 594.047C539.66 594.656 540.434 594.961 541.363 594.961C542.668 594.961 543.73 594.434 544.551 593.379L546.086 594.844C545.578 595.602 544.898 596.191 544.047 596.613C543.203 597.027 542.254 597.234 541.199 597.234ZM540.859 586.371C540.078 586.371 539.445 586.645 538.961 587.191C538.484 587.738 538.18 588.5 538.047 589.477H543.473V589.266C543.41 588.312 543.156 587.594 542.711 587.109C542.266 586.617 541.648 586.371 540.859 586.371Z" fill="#545454" fill-opacity="0.6"/>
<path d="M399.062 120.328H393.742V135H390.801V120.328H385.527V117.938H399.062V120.328ZM405.566 135.234C403.762 135.234 402.297 134.668 401.172 133.535C400.055 132.395 399.496 130.879 399.496 128.988V128.637C399.496 127.371 399.738 126.242 400.223 125.25C400.715 124.25 401.402 123.473 402.285 122.918C403.168 122.363 404.152 122.086 405.238 122.086C406.965 122.086 408.297 122.637 409.234 123.738C410.18 124.84 410.652 126.398 410.652 128.414V129.562H402.367C402.453 130.609 402.801 131.438 403.41 132.047C404.027 132.656 404.801 132.961 405.73 132.961C407.035 132.961 408.098 132.434 408.918 131.379L410.453 132.844C409.945 133.602 409.266 134.191 408.414 134.613C407.57 135.027 406.621 135.234 405.566 135.234ZM405.227 124.371C404.445 124.371 403.812 124.645 403.328 125.191C402.852 125.738 402.547 126.5 402.414 127.477H407.84V127.266C407.777 126.312 407.523 125.594 407.078 125.109C406.633 124.617 406.016 124.371 405.227 124.371ZM420.449 135C420.324 134.758 420.215 134.363 420.121 133.816C419.215 134.762 418.105 135.234 416.793 135.234C415.52 135.234 414.48 134.871 413.676 134.145C412.871 133.418 412.469 132.52 412.469 131.449C412.469 130.098 412.969 129.062 413.969 128.344C414.977 127.617 416.414 127.254 418.281 127.254H420.027V126.422C420.027 125.766 419.844 125.242 419.477 124.852C419.109 124.453 418.551 124.254 417.801 124.254C417.152 124.254 416.621 124.418 416.207 124.746C415.793 125.066 415.586 125.477 415.586 125.977H412.738C412.738 125.281 412.969 124.633 413.43 124.031C413.891 123.422 414.516 122.945 415.305 122.602C416.102 122.258 416.988 122.086 417.965 122.086C419.449 122.086 420.633 122.461 421.516 123.211C422.398 123.953 422.852 125 422.875 126.352V132.07C422.875 133.211 423.035 134.121 423.355 134.801V135H420.449ZM417.32 132.949C417.883 132.949 418.41 132.812 418.902 132.539C419.402 132.266 419.777 131.898 420.027 131.438V129.047H418.492C417.438 129.047 416.645 129.23 416.113 129.598C415.582 129.965 415.316 130.484 415.316 131.156C415.316 131.703 415.496 132.141 415.855 132.469C416.223 132.789 416.711 132.949 417.32 132.949ZM428.535 122.32L428.617 123.645C429.508 122.605 430.727 122.086 432.273 122.086C433.969 122.086 435.129 122.734 435.754 124.031C436.676 122.734 437.973 122.086 439.645 122.086C441.043 122.086 442.082 122.473 442.762 123.246C443.449 124.02 443.801 125.16 443.816 126.668V135H440.969V126.75C440.969 125.945 440.793 125.355 440.441 124.98C440.09 124.605 439.508 124.418 438.695 124.418C438.047 124.418 437.516 124.594 437.102 124.945C436.695 125.289 436.41 125.742 436.246 126.305L436.258 135H433.41V126.656C433.371 125.164 432.609 124.418 431.125 124.418C429.984 124.418 429.176 124.883 428.699 125.812V135H425.852V122.32H428.535ZM459.824 131.555C459.824 131.047 459.613 130.66 459.191 130.395C458.777 130.129 458.086 129.895 457.117 129.691C456.148 129.488 455.34 129.23 454.691 128.918C453.27 128.23 452.559 127.234 452.559 125.93C452.559 124.836 453.02 123.922 453.941 123.188C454.863 122.453 456.035 122.086 457.457 122.086C458.973 122.086 460.195 122.461 461.125 123.211C462.062 123.961 462.531 124.934 462.531 126.129H459.684C459.684 125.582 459.48 125.129 459.074 124.77C458.668 124.402 458.129 124.219 457.457 124.219C456.832 124.219 456.32 124.363 455.922 124.652C455.531 124.941 455.336 125.328 455.336 125.812C455.336 126.25 455.52 126.59 455.887 126.832C456.254 127.074 456.996 127.32 458.113 127.57C459.23 127.812 460.105 128.105 460.738 128.449C461.379 128.785 461.852 129.191 462.156 129.668C462.469 130.145 462.625 130.723 462.625 131.402C462.625 132.543 462.152 133.469 461.207 134.18C460.262 134.883 459.023 135.234 457.492 135.234C456.453 135.234 455.527 135.047 454.715 134.672C453.902 134.297 453.27 133.781 452.816 133.125C452.363 132.469 452.137 131.762 452.137 131.004H454.902C454.941 131.676 455.195 132.195 455.664 132.562C456.133 132.922 456.754 133.102 457.527 133.102C458.277 133.102 458.848 132.961 459.238 132.68C459.629 132.391 459.824 132.016 459.824 131.555ZM468.684 119.238V122.32H470.922V124.43H468.684V131.508C468.684 131.992 468.777 132.344 468.965 132.562C469.16 132.773 469.504 132.879 469.996 132.879C470.324 132.879 470.656 132.84 470.992 132.762V134.965C470.344 135.145 469.719 135.234 469.117 135.234C466.93 135.234 465.836 134.027 465.836 131.613V124.43H463.75V122.32H465.836V119.238H468.684ZM479.746 124.922C479.371 124.859 478.984 124.828 478.586 124.828C477.281 124.828 476.402 125.328 475.949 126.328V135H473.102V122.32H475.82L475.891 123.738C476.578 122.637 477.531 122.086 478.75 122.086C479.156 122.086 479.492 122.141 479.758 122.25L479.746 124.922ZM489.227 133.758C488.391 134.742 487.203 135.234 485.664 135.234C484.289 135.234 483.246 134.832 482.535 134.027C481.832 133.223 481.48 132.059 481.48 130.535V122.32H484.328V130.5C484.328 132.109 484.996 132.914 486.332 132.914C487.715 132.914 488.648 132.418 489.133 131.426V122.32H491.98V135H489.297L489.227 133.758ZM500.09 132.961C500.801 132.961 501.391 132.754 501.859 132.34C502.328 131.926 502.578 131.414 502.609 130.805H505.293C505.262 131.594 505.016 132.332 504.555 133.02C504.094 133.699 503.469 134.238 502.68 134.637C501.891 135.035 501.039 135.234 500.125 135.234C498.352 135.234 496.945 134.66 495.906 133.512C494.867 132.363 494.348 130.777 494.348 128.754V128.461C494.348 126.531 494.863 124.988 495.895 123.832C496.926 122.668 498.332 122.086 500.113 122.086C501.621 122.086 502.848 122.527 503.793 123.41C504.746 124.285 505.246 125.438 505.293 126.867H502.609C502.578 126.141 502.328 125.543 501.859 125.074C501.398 124.605 500.809 124.371 500.09 124.371C499.168 124.371 498.457 124.707 497.957 125.379C497.457 126.043 497.203 127.055 497.195 128.414V128.871C497.195 130.246 497.441 131.273 497.934 131.953C498.434 132.625 499.152 132.961 500.09 132.961ZM511.012 119.238V122.32H513.25V124.43H511.012V131.508C511.012 131.992 511.105 132.344 511.293 132.562C511.488 132.773 511.832 132.879 512.324 132.879C512.652 132.879 512.984 132.84 513.32 132.762V134.965C512.672 135.145 512.047 135.234 511.445 135.234C509.258 135.234 508.164 134.027 508.164 131.613V124.43H506.078V122.32H508.164V119.238H511.012ZM523.117 133.758C522.281 134.742 521.094 135.234 519.555 135.234C518.18 135.234 517.137 134.832 516.426 134.027C515.723 133.223 515.371 132.059 515.371 130.535V122.32H518.219V130.5C518.219 132.109 518.887 132.914 520.223 132.914C521.605 132.914 522.539 132.418 523.023 131.426V122.32H525.871V135H523.188L523.117 133.758ZM535.41 124.922C535.035 124.859 534.648 124.828 534.25 124.828C532.945 124.828 532.066 125.328 531.613 126.328V135H528.766V122.32H531.484L531.555 123.738C532.242 122.637 533.195 122.086 534.414 122.086C534.82 122.086 535.156 122.141 535.422 122.25L535.41 124.922ZM540.238 135H537.391V122.32H540.238V135ZM537.215 119.027C537.215 118.59 537.352 118.227 537.625 117.938C537.906 117.648 538.305 117.504 538.82 117.504C539.336 117.504 539.734 117.648 540.016 117.938C540.297 118.227 540.438 118.59 540.438 119.027C540.438 119.457 540.297 119.816 540.016 120.105C539.734 120.387 539.336 120.527 538.82 120.527C538.305 120.527 537.906 120.387 537.625 120.105C537.352 119.816 537.215 119.457 537.215 119.027ZM545.992 122.32L546.074 123.785C547.012 122.652 548.242 122.086 549.766 122.086C552.406 122.086 553.75 123.598 553.797 126.621V135H550.949V126.785C550.949 125.98 550.773 125.387 550.422 125.004C550.078 124.613 549.512 124.418 548.723 124.418C547.574 124.418 546.719 124.938 546.156 125.977V135H543.309V122.32H545.992ZM556.211 128.566C556.211 126.598 556.672 125.027 557.594 123.855C558.523 122.676 559.754 122.086 561.285 122.086C562.73 122.086 563.867 122.59 564.695 123.598L564.824 122.32H567.391V134.613C567.391 136.277 566.871 137.59 565.832 138.551C564.801 139.512 563.406 139.992 561.648 139.992C560.719 139.992 559.809 139.797 558.918 139.406C558.035 139.023 557.363 138.52 556.902 137.895L558.25 136.184C559.125 137.223 560.203 137.742 561.484 137.742C562.43 137.742 563.176 137.484 563.723 136.969C564.27 136.461 564.543 135.711 564.543 134.719V133.863C563.723 134.777 562.629 135.234 561.262 135.234C559.777 135.234 558.562 134.645 557.617 133.465C556.68 132.285 556.211 130.652 556.211 128.566ZM559.047 128.812C559.047 130.086 559.305 131.09 559.82 131.824C560.344 132.551 561.066 132.914 561.988 132.914C563.137 132.914 563.988 132.422 564.543 131.438V125.859C564.004 124.898 563.16 124.418 562.012 124.418C561.074 124.418 560.344 124.789 559.82 125.531C559.305 126.273 559.047 127.367 559.047 128.812Z" fill="#545454" fill-opacity="0.6"/>
<path d="M246.445 269.758H223.945V293H212.227V236.125H249.258V245.617H223.945V260.305H246.445V269.758ZM267.227 293H255.898V250.734H267.227V293ZM255.234 239.797C255.234 238.104 255.794 236.711 256.914 235.617C258.06 234.523 259.609 233.977 261.562 233.977C263.49 233.977 265.026 234.523 266.172 235.617C267.318 236.711 267.891 238.104 267.891 239.797C267.891 241.516 267.305 242.922 266.133 244.016C264.987 245.109 263.464 245.656 261.562 245.656C259.661 245.656 258.125 245.109 256.953 244.016C255.807 242.922 255.234 241.516 255.234 239.797ZM286.953 250.734L287.305 255.617C290.326 251.841 294.375 249.953 299.453 249.953C303.932 249.953 307.266 251.268 309.453 253.898C311.641 256.529 312.76 260.461 312.812 265.695V293H301.523V265.969C301.523 263.573 301.003 261.841 299.961 260.773C298.919 259.68 297.188 259.133 294.766 259.133C291.589 259.133 289.206 260.487 287.617 263.195V293H276.328V250.734H286.953ZM364.961 245.617H347.539V293H335.82V245.617H318.633V236.125H364.961V245.617ZM386.875 293.781C380.677 293.781 375.625 291.88 371.719 288.078C367.839 284.276 365.898 279.211 365.898 272.883V271.789C365.898 267.544 366.719 263.755 368.359 260.422C370 257.062 372.318 254.484 375.312 252.688C378.333 250.865 381.771 249.953 385.625 249.953C391.406 249.953 395.951 251.776 399.258 255.422C402.591 259.068 404.258 264.237 404.258 270.93V275.539H377.344C377.708 278.299 378.802 280.513 380.625 282.18C382.474 283.846 384.805 284.68 387.617 284.68C391.966 284.68 395.365 283.104 397.812 279.953L403.359 286.164C401.667 288.56 399.375 290.435 396.484 291.789C393.594 293.117 390.391 293.781 386.875 293.781ZM385.586 259.094C383.346 259.094 381.523 259.849 380.117 261.359C378.737 262.87 377.852 265.031 377.461 267.844H393.164V266.945C393.112 264.445 392.435 262.518 391.133 261.164C389.831 259.784 387.982 259.094 385.586 259.094ZM428.281 284.68C430.365 284.68 432.057 284.107 433.359 282.961C434.661 281.815 435.339 280.292 435.391 278.391H445.977C445.951 281.255 445.169 283.885 443.633 286.281C442.096 288.651 439.987 290.5 437.305 291.828C434.648 293.13 431.706 293.781 428.477 293.781C422.435 293.781 417.669 291.867 414.18 288.039C410.69 284.185 408.945 278.872 408.945 272.102V271.359C408.945 264.849 410.677 259.654 414.141 255.773C417.604 251.893 422.357 249.953 428.398 249.953C433.685 249.953 437.917 251.464 441.094 254.484C444.297 257.479 445.924 261.477 445.977 266.477H435.391C435.339 264.289 434.661 262.518 433.359 261.164C432.057 259.784 430.339 259.094 428.203 259.094C425.573 259.094 423.581 260.057 422.227 261.984C420.898 263.885 420.234 266.984 420.234 271.281V272.453C420.234 276.802 420.898 279.927 422.227 281.828C423.555 283.729 425.573 284.68 428.281 284.68ZM463.438 255.344C466.432 251.75 470.195 249.953 474.727 249.953C483.893 249.953 488.542 255.279 488.672 265.93V293H477.383V266.242C477.383 263.82 476.862 262.036 475.82 260.891C474.779 259.719 473.047 259.133 470.625 259.133C467.318 259.133 464.922 260.409 463.438 262.961V293H452.148V233H463.438V255.344ZM174.688 362.352H152.188V377.586H178.594V387H140.469V330.125H178.516V339.617H152.188V353.172H174.688V362.352ZM195.117 344.734L195.469 349.617C198.49 345.841 202.539 343.953 207.617 343.953C212.096 343.953 215.43 345.268 217.617 347.898C219.805 350.529 220.924 354.461 220.977 359.695V387H209.688V359.969C209.688 357.573 209.167 355.841 208.125 354.773C207.083 353.68 205.352 353.133 202.93 353.133C199.753 353.133 197.37 354.487 195.781 357.195V387H184.492V344.734H195.117ZM227.93 365.555C227.93 359.07 229.466 353.849 232.539 349.891C235.638 345.932 239.805 343.953 245.039 343.953C249.674 343.953 253.281 345.542 255.859 348.719L256.328 344.734H266.562V385.594C266.562 389.292 265.716 392.508 264.023 395.242C262.357 397.977 260 400.06 256.953 401.492C253.906 402.924 250.339 403.641 246.25 403.641C243.151 403.641 240.13 403.016 237.188 401.766C234.245 400.542 232.018 398.953 230.508 397L235.508 390.125C238.32 393.276 241.732 394.852 245.742 394.852C248.737 394.852 251.068 394.044 252.734 392.43C254.401 390.841 255.234 388.576 255.234 385.633V383.367C252.63 386.31 249.206 387.781 244.961 387.781C239.883 387.781 235.768 385.802 232.617 381.844C229.492 377.859 227.93 372.586 227.93 366.023V365.555ZM239.219 366.375C239.219 370.203 239.987 373.211 241.523 375.398C243.06 377.56 245.169 378.641 247.852 378.641C251.289 378.641 253.75 377.352 255.234 374.773V357C253.724 354.422 251.289 353.133 247.93 353.133C245.221 353.133 243.086 354.24 241.523 356.453C239.987 358.667 239.219 361.974 239.219 366.375ZM287.188 387H275.859V344.734H287.188V387ZM275.195 333.797C275.195 332.104 275.755 330.711 276.875 329.617C278.021 328.523 279.57 327.977 281.523 327.977C283.451 327.977 284.987 328.523 286.133 329.617C287.279 330.711 287.852 332.104 287.852 333.797C287.852 335.516 287.266 336.922 286.094 338.016C284.948 339.109 283.424 339.656 281.523 339.656C279.622 339.656 278.086 339.109 276.914 338.016C275.768 336.922 275.195 335.516 275.195 333.797ZM306.914 344.734L307.266 349.617C310.286 345.841 314.336 343.953 319.414 343.953C323.893 343.953 327.227 345.268 329.414 347.898C331.602 350.529 332.721 354.461 332.773 359.695V387H321.484V359.969C321.484 357.573 320.964 355.841 319.922 354.773C318.88 353.68 317.148 353.133 314.727 353.133C311.549 353.133 309.167 354.487 307.578 357.195V387H296.289V344.734H306.914ZM360.82 387.781C354.622 387.781 349.57 385.88 345.664 382.078C341.784 378.276 339.844 373.211 339.844 366.883V365.789C339.844 361.544 340.664 357.755 342.305 354.422C343.945 351.062 346.263 348.484 349.258 346.688C352.279 344.865 355.716 343.953 359.57 343.953C365.352 343.953 369.896 345.776 373.203 349.422C376.536 353.068 378.203 358.237 378.203 364.93V369.539H351.289C351.654 372.299 352.747 374.513 354.57 376.18C356.419 377.846 358.75 378.68 361.562 378.68C365.911 378.68 369.31 377.104 371.758 373.953L377.305 380.164C375.612 382.56 373.32 384.435 370.43 385.789C367.539 387.117 364.336 387.781 360.82 387.781ZM359.531 353.094C357.292 353.094 355.469 353.849 354.062 355.359C352.682 356.87 351.797 359.031 351.406 361.844H367.109V360.945C367.057 358.445 366.38 356.518 365.078 355.164C363.776 353.784 361.927 353.094 359.531 353.094ZM404.102 387.781C397.904 387.781 392.852 385.88 388.945 382.078C385.065 378.276 383.125 373.211 383.125 366.883V365.789C383.125 361.544 383.945 357.755 385.586 354.422C387.227 351.062 389.544 348.484 392.539 346.688C395.56 344.865 398.997 343.953 402.852 343.953C408.633 343.953 413.177 345.776 416.484 349.422C419.818 353.068 421.484 358.237 421.484 364.93V369.539H394.57C394.935 372.299 396.029 374.513 397.852 376.18C399.701 377.846 402.031 378.68 404.844 378.68C409.193 378.68 412.591 377.104 415.039 373.953L420.586 380.164C418.893 382.56 416.602 384.435 413.711 385.789C410.82 387.117 407.617 387.781 404.102 387.781ZM402.812 353.094C400.573 353.094 398.75 353.849 397.344 355.359C395.964 356.87 395.078 359.031 394.688 361.844H410.391V360.945C410.339 358.445 409.661 356.518 408.359 355.164C407.057 353.784 405.208 353.094 402.812 353.094ZM451.68 355.32C450.143 355.112 448.789 355.008 447.617 355.008C443.346 355.008 440.547 356.453 439.219 359.344V387H427.93V344.734H438.594L438.906 349.773C441.172 345.893 444.31 343.953 448.32 343.953C449.57 343.953 450.742 344.122 451.836 344.461L451.68 355.32ZM469.062 387H457.734V344.734H469.062V387ZM457.07 333.797C457.07 332.104 457.63 330.711 458.75 329.617C459.896 328.523 461.445 327.977 463.398 327.977C465.326 327.977 466.862 328.523 468.008 329.617C469.154 330.711 469.727 332.104 469.727 333.797C469.727 335.516 469.141 336.922 467.969 338.016C466.823 339.109 465.299 339.656 463.398 339.656C461.497 339.656 459.961 339.109 458.789 338.016C457.643 336.922 457.07 335.516 457.07 333.797ZM488.789 344.734L489.141 349.617C492.161 345.841 496.211 343.953 501.289 343.953C505.768 343.953 509.102 345.268 511.289 347.898C513.477 350.529 514.596 354.461 514.648 359.695V387H503.359V359.969C503.359 357.573 502.839 355.841 501.797 354.773C500.755 353.68 499.023 353.133 496.602 353.133C493.424 353.133 491.042 354.487 489.453 357.195V387H478.164V344.734H488.789ZM521.602 365.555C521.602 359.07 523.138 353.849 526.211 349.891C529.31 345.932 533.477 343.953 538.711 343.953C543.346 343.953 546.953 345.542 549.531 348.719L550 344.734H560.234V385.594C560.234 389.292 559.388 392.508 557.695 395.242C556.029 397.977 553.672 400.06 550.625 401.492C547.578 402.924 544.01 403.641 539.922 403.641C536.823 403.641 533.802 403.016 530.859 401.766C527.917 400.542 525.69 398.953 524.18 397L529.18 390.125C531.992 393.276 535.404 394.852 539.414 394.852C542.409 394.852 544.74 394.044 546.406 392.43C548.073 390.841 548.906 388.576 548.906 385.633V383.367C546.302 386.31 542.878 387.781 538.633 387.781C533.555 387.781 529.44 385.802 526.289 381.844C523.164 377.859 521.602 372.586 521.602 366.023V365.555ZM532.891 366.375C532.891 370.203 533.659 373.211 535.195 375.398C536.732 377.56 538.841 378.641 541.523 378.641C544.961 378.641 547.422 377.352 548.906 374.773V357C547.396 354.422 544.961 353.133 541.602 353.133C538.893 353.133 536.758 354.24 535.195 356.453C533.659 358.667 532.891 361.974 532.891 366.375ZM214.922 469.281H194.375L190.469 481H178.008L199.18 424.125H210.039L231.328 481H218.867L214.922 469.281ZM197.539 459.789H211.758L204.609 438.5L197.539 459.789ZM272.07 460.258C272.07 466.768 270.586 471.99 267.617 475.922C264.674 479.828 260.69 481.781 255.664 481.781C251.393 481.781 247.943 480.297 245.312 477.328V497.25H234.023V438.734H244.492L244.883 442.875C247.617 439.594 251.185 437.953 255.586 437.953C260.794 437.953 264.844 439.88 267.734 443.734C270.625 447.589 272.07 452.901 272.07 459.672V460.258ZM260.781 459.438C260.781 455.505 260.078 452.471 258.672 450.336C257.292 448.201 255.273 447.133 252.617 447.133C249.076 447.133 246.641 448.487 245.312 451.195V468.5C246.693 471.286 249.154 472.68 252.695 472.68C258.086 472.68 260.781 468.266 260.781 459.438ZM317.148 460.258C317.148 466.768 315.664 471.99 312.695 475.922C309.753 479.828 305.768 481.781 300.742 481.781C296.471 481.781 293.021 480.297 290.391 477.328V497.25H279.102V438.734H289.57L289.961 442.875C292.695 439.594 296.263 437.953 300.664 437.953C305.872 437.953 309.922 439.88 312.812 443.734C315.703 447.589 317.148 452.901 317.148 459.672V460.258ZM305.859 459.438C305.859 455.505 305.156 452.471 303.75 450.336C302.37 448.201 300.352 447.133 297.695 447.133C294.154 447.133 291.719 448.487 290.391 451.195V468.5C291.771 471.286 294.232 472.68 297.773 472.68C303.164 472.68 305.859 468.266 305.859 459.438ZM347.93 449.32C346.393 449.112 345.039 449.008 343.867 449.008C339.596 449.008 336.797 450.453 335.469 453.344V481H324.18V438.734H334.844L335.156 443.773C337.422 439.893 340.56 437.953 344.57 437.953C345.82 437.953 346.992 438.122 348.086 438.461L347.93 449.32ZM350.234 459.477C350.234 455.284 351.042 451.547 352.656 448.266C354.271 444.984 356.589 442.445 359.609 440.648C362.656 438.852 366.185 437.953 370.195 437.953C375.898 437.953 380.547 439.698 384.141 443.188C387.76 446.677 389.779 451.417 390.195 457.406L390.273 460.297C390.273 466.781 388.464 471.99 384.844 475.922C381.224 479.828 376.367 481.781 370.273 481.781C364.18 481.781 359.31 479.828 355.664 475.922C352.044 472.016 350.234 466.703 350.234 459.984V459.477ZM361.523 460.297C361.523 464.307 362.279 467.38 363.789 469.516C365.299 471.625 367.461 472.68 370.273 472.68C373.008 472.68 375.143 471.638 376.68 469.555C378.216 467.445 378.984 464.086 378.984 459.477C378.984 455.544 378.216 452.497 376.68 450.336C375.143 448.174 372.982 447.094 370.195 447.094C367.435 447.094 365.299 448.174 363.789 450.336C362.279 452.471 361.523 455.792 361.523 460.297ZM421.719 481C421.198 479.984 420.82 478.721 420.586 477.211C417.852 480.258 414.297 481.781 409.922 481.781C405.781 481.781 402.344 480.583 399.609 478.188C396.901 475.792 395.547 472.771 395.547 469.125C395.547 464.646 397.201 461.208 400.508 458.812C403.841 456.417 408.646 455.206 414.922 455.18H420.117V452.758C420.117 450.805 419.609 449.242 418.594 448.07C417.604 446.898 416.029 446.312 413.867 446.312C411.966 446.312 410.469 446.768 409.375 447.68C408.307 448.591 407.773 449.841 407.773 451.43H396.484C396.484 448.982 397.24 446.716 398.75 444.633C400.26 442.549 402.396 440.922 405.156 439.75C407.917 438.552 411.016 437.953 414.453 437.953C419.661 437.953 423.789 439.268 426.836 441.898C429.909 444.503 431.445 448.174 431.445 452.914V471.234C431.471 475.245 432.031 478.279 433.125 480.336V481H421.719ZM412.383 473.148C414.049 473.148 415.586 472.784 416.992 472.055C418.398 471.299 419.44 470.297 420.117 469.047V461.781H415.898C410.247 461.781 407.24 463.734 406.875 467.641L406.836 468.305C406.836 469.711 407.331 470.87 408.32 471.781C409.31 472.693 410.664 473.148 412.383 473.148ZM457.695 472.68C459.779 472.68 461.471 472.107 462.773 470.961C464.076 469.815 464.753 468.292 464.805 466.391H475.391C475.365 469.255 474.583 471.885 473.047 474.281C471.51 476.651 469.401 478.5 466.719 479.828C464.062 481.13 461.12 481.781 457.891 481.781C451.849 481.781 447.083 479.867 443.594 476.039C440.104 472.185 438.359 466.872 438.359 460.102V459.359C438.359 452.849 440.091 447.654 443.555 443.773C447.018 439.893 451.771 437.953 457.812 437.953C463.099 437.953 467.331 439.464 470.508 442.484C473.711 445.479 475.339 449.477 475.391 454.477H464.805C464.753 452.289 464.076 450.518 462.773 449.164C461.471 447.784 459.753 447.094 457.617 447.094C454.987 447.094 452.995 448.057 451.641 449.984C450.312 451.885 449.648 454.984 449.648 459.281V460.453C449.648 464.802 450.312 467.927 451.641 469.828C452.969 471.729 454.987 472.68 457.695 472.68ZM492.852 443.344C495.846 439.75 499.609 437.953 504.141 437.953C513.307 437.953 517.956 443.279 518.086 453.93V481H506.797V454.242C506.797 451.82 506.276 450.036 505.234 448.891C504.193 447.719 502.461 447.133 500.039 447.133C496.732 447.133 494.336 448.409 492.852 450.961V481H481.562V421H492.852V443.344Z" fill="white"/>
<rect x="350" y="540" width="1" height="160" fill="white"/>
<rect x="350" width="1" height="160" fill="white"/>
<rect y="351" width="1" height="100" transform="rotate(-90 0 351)" fill="white"/>
<rect x="600" y="351" width="1" height="100" transform="rotate(-90 600 351)" fill="white"/>
</svg>
