<!-- Embeded svg sprite reference -->
<svg display="none" 
    xmlns="http://www.w3.org/2000/svg">
    <symbol id="icon-arr-left" viewBox="0 0 16 28" 
        xmlns="http://www.w3.org/2000/svg">
        <path d="M13.605 27.21c.186.185.418.278.674.278a.954.954 0 0 0 .674-1.628L3.094 14l11.86-11.86A.954.954 0 0 0 13.605.79L1.07 13.327a.954.954 0 0 0 0 1.348L13.605 27.21z" />
    </symbol>
    <symbol id="icon-arr-right" viewBox="0 0 16 28" 
        xmlns="http://www.w3.org/2000/svg">
        <path d="M2.395 27.21a.932.932 0 0 1-.674.278.954.954 0 0 1-.674-1.628L12.907 14 1.047 2.14A.954.954 0 0 1 2.395.79L14.93 13.327a.954.954 0 0 1 0 1.348L2.395 27.21z" />
    </symbol>
    <symbol id="icon-close" viewBox="0 0 40 40" 
        xmlns="http://www.w3.org/2000/svg">
        <path d="M18.088 19.866L.383 37.571a1.259 1.259 0 1 0 1.78 1.78L20 21.515l17.838 17.838c.246.246.568.369.89.369a1.259 1.259 0 0 0 .89-2.15L21.915 19.866 39.63 2.15a1.259 1.259 0 0 0-1.78-1.78L20 18.218 2.151.369a1.26 1.26 0 0 0-1.78 1.78l17.717 17.717z" />
    </symbol>
    <symbol id="icon-ic-fb" viewBox="0 0 20 20" 
        xmlns="http://www.w3.org/2000/svg">
        <path d="M14.9993 0.00416134L12.4058 0C9.49203 0 7.60905 1.9319 7.60905 4.92203V7.19141H5.00137C4.77604 7.19141 4.59357 7.37409 4.59357 7.59943V10.8875C4.59357 11.1128 4.77625 11.2953 5.00137 11.2953H7.60905V19.5922C7.60905 19.8175 7.79152 20 8.01685 20H11.4191C11.6445 20 11.8269 19.8173 11.8269 19.5922V11.2953H14.8759C15.1012 11.2953 15.2837 11.1128 15.2837 10.8875L15.285 7.59943C15.285 7.49123 15.2419 7.38762 15.1655 7.31105C15.0892 7.23448 14.9851 7.19141 14.877 7.19141H11.8269V5.26763C11.8269 4.34298 12.0473 3.87358 13.2518 3.87358L14.9989 3.87295C15.224 3.87295 15.4065 3.69027 15.4065 3.46514V0.411972C15.4065 0.187052 15.2242 0.00457747 14.9993 0.00416134Z" />
    </symbol>
    <symbol id="icon-ic-lin" viewBox="0 0 20 20" 
        xmlns="http://www.w3.org/2000/svg">
        <path d="M20 12.1616V19.5557H15.7134V12.6568C15.7134 10.9238 15.0933 9.74103 13.5417 9.74103C12.3572 9.74103 11.6524 10.5381 11.3423 11.3092C11.2292 11.5848 11.2001 11.9685 11.2001 12.3543V19.5557H6.91198C6.91198 19.5557 6.96973 7.87126 6.91198 6.66066H11.1997V8.48848C11.191 8.50215 11.1797 8.5169 11.1715 8.53015H11.1997V8.48848C11.7693 7.61109 12.7867 6.35772 15.0638 6.35772C17.885 6.35767 20 8.20075 20 12.1616ZM2.42646 0.44458C0.959506 0.44458 0 1.40678 0 2.67211C0 3.90987 0.931746 4.90127 2.36954 4.90127H2.39818C3.89355 4.90127 4.82352 3.91006 4.82352 2.67211C4.79535 1.40678 3.89355 0.44458 2.42646 0.44458ZM0.254675 19.5557H4.54114V6.66066H0.254675V19.5557Z" />
    </symbol>
    <symbol id="icon-ic-loup" viewBox="0 0 22 22" 
        xmlns="http://www.w3.org/2000/svg">
        <path d="M21.2695 20.032L16.2078 14.9703C17.4625 13.4406 18.2188 11.4812 18.2188 9.3457C18.2188 4.44727 14.2441 0.472656 9.3457 0.472656C4.44297 0.472656 0.472656 4.44727 0.472656 9.3457C0.472656 14.2441 4.44297 18.2188 9.3457 18.2188C11.4812 18.2188 13.4363 17.4668 14.966 16.2121L20.0277 21.2695C20.3715 21.6133 20.9258 21.6133 21.2695 21.2695C21.6133 20.9301 21.6133 20.3715 21.2695 20.032ZM9.3457 16.4527C5.42266 16.4527 2.23438 13.2645 2.23438 9.3457C2.23438 5.42695 5.42266 2.23438 9.3457 2.23438C13.2645 2.23438 16.457 5.42695 16.457 9.3457C16.457 13.2645 13.2645 16.4527 9.3457 16.4527Z" />
    </symbol>
    <symbol id="icon-ic-twitt" viewBox="0 0 20 18" 
        xmlns="http://www.w3.org/2000/svg">
        <path d="M20 2.79875C19.2563 3.125 18.4637 3.34125 17.6375 3.44625C18.4875 2.93875 19.1363 2.14125 19.4412 1.18C18.6488 1.6525 17.7738 1.98625 16.8412 2.1725C16.0887 1.37125 15.0162 0.875 13.8462 0.875C11.5763 0.875 9.74875 2.7175 9.74875 4.97625C9.74875 5.30125 9.77625 5.61375 9.84375 5.91125C6.435 5.745 3.41875 4.11125 1.3925 1.6225C1.03875 2.23625 0.83125 2.93875 0.83125 3.695C0.83125 5.115 1.5625 6.37375 2.6525 7.1025C1.99375 7.09 1.3475 6.89875 0.8 6.5975C0.8 6.61 0.8 6.62625 0.8 6.6425C0.8 8.635 2.22125 10.29 4.085 10.6712C3.75125 10.7625 3.3875 10.8062 3.01 10.8062C2.7475 10.8062 2.4825 10.7913 2.23375 10.7362C2.765 12.36 4.2725 13.5538 6.065 13.5925C4.67 14.6838 2.89875 15.3412 0.98125 15.3412C0.645 15.3412 0.3225 15.3263 0 15.285C1.81625 16.4563 3.96875 17.125 6.29 17.125C13.835 17.125 17.96 10.875 17.96 5.4575C17.96 5.27625 17.9538 5.10125 17.945 4.9275C18.7588 4.35 19.4425 3.62875 20 2.79875Z" />
    </symbol>
    <symbol id="icon-ic-more" viewBox="0 0 14 8" 
        xmlns="http://www.w3.org/2000/svg">
        <path d="M0.835763 1.38451C0.748941 1.29769 0.70553 1.18916 0.70553 1.06978C0.70553 0.950398 0.748941 0.841871 0.835763 0.755049C1.00941 0.581406 1.29158 0.581406 1.46522 0.755049L7.0001 6.28993L12.535 0.755049C12.7086 0.581406 12.9908 0.581406 13.1644 0.755049C13.3381 0.928693 13.3381 1.21086 13.1644 1.38451L7.31483 7.23412C7.14119 7.40776 6.85902 7.40776 6.68538 7.23412L0.835763 1.38451Z" fill="#0351C1" />
    </symbol>
    <symbol id="ic-inst-2" viewBox="0 0 50 50" 
        xmlns="http://www.w3.org/2000/svg">
        <path d="M29.7852 25C29.7852 27.6428 27.6428 29.7852 25 29.7852C22.3572 29.7852 20.2148 27.6428 20.2148 25C20.2148 22.3572 22.3572 20.2148 25 20.2148C27.6428 20.2148 29.7852 22.3572 29.7852 25Z" fill="#FFAF50" />
        <path d="M36.1909 16.5348C35.9608 15.9115 35.5939 15.3473 35.117 14.8842C34.6539 14.4073 34.0901 14.0404 33.4664 13.8103C32.9606 13.6139 32.2007 13.3801 30.8011 13.3163C29.287 13.2473 28.8331 13.2324 25.0001 13.2324C21.1667 13.2324 20.7127 13.2469 19.1991 13.316C17.7994 13.3801 17.0392 13.6139 16.5337 13.8103C15.91 14.0404 15.3458 14.4073 14.8831 14.8842C14.4063 15.3473 14.0393 15.9111 13.8089 16.5348C13.6124 17.0406 13.3786 17.8009 13.3149 19.2005C13.2458 20.7142 13.231 21.1681 13.231 25.0015C13.231 28.8345 13.2458 29.2885 13.3149 30.8025C13.3786 32.2021 13.6124 32.962 13.8089 33.4679C14.0393 34.0916 14.4059 34.6554 14.8827 35.1185C15.3458 35.5953 15.9096 35.9623 16.5333 36.1923C17.0392 36.3892 17.7994 36.623 19.1991 36.6867C20.7127 36.7558 21.1663 36.7702 24.9997 36.7702C28.8334 36.7702 29.2874 36.7558 30.8007 36.6867C32.2003 36.623 32.9606 36.3892 33.4664 36.1923C34.7184 35.7094 35.7079 34.7198 36.1909 33.4679C36.3873 32.962 36.6212 32.2021 36.6852 30.8025C36.7543 29.2885 36.7688 28.8345 36.7688 25.0015C36.7688 21.1681 36.7543 20.7142 36.6852 19.2005C36.6215 17.8009 36.3877 17.0406 36.1909 16.5348ZM25.0001 32.3727C20.9286 32.3727 17.6282 29.0726 17.6282 25.0011C17.6282 20.9297 20.9286 17.6296 25.0001 17.6296C29.0711 17.6296 32.3716 20.9297 32.3716 25.0011C32.3716 29.0726 29.0711 32.3727 25.0001 32.3727ZM32.663 19.0609C31.7116 19.0609 30.9403 18.2896 30.9403 17.3382C30.9403 16.3868 31.7116 15.6155 32.663 15.6155C33.6144 15.6155 34.3857 16.3868 34.3857 17.3382C34.3854 18.2896 33.6144 19.0609 32.663 19.0609Z" fill="#FFAF50" />
        <path d="M25 0C11.195 0 0 11.195 0 25C0 38.805 11.195 50 25 50C38.805 50 50 38.805 50 25C50 11.195 38.805 0 25 0ZM39.2689 30.9185C39.1994 32.4467 38.9565 33.49 38.6017 34.4032C37.8559 36.3316 36.3316 37.8559 34.4032 38.6017C33.4904 38.9565 32.4467 39.1991 30.9189 39.2689C29.388 39.3387 28.899 39.3555 25.0004 39.3555C21.1014 39.3555 20.6127 39.3387 19.0815 39.2689C17.5537 39.1991 16.51 38.9565 15.5972 38.6017C14.6389 38.2412 13.7714 37.6762 13.0543 36.9457C12.3241 36.2289 11.7592 35.3611 11.3987 34.4032C11.0439 33.4904 10.8009 32.4467 10.7315 30.9189C10.6609 29.3877 10.6445 28.8986 10.6445 25C10.6445 21.1014 10.6609 20.6123 10.7311 19.0815C10.8006 17.5533 11.0432 16.51 11.3979 15.5968C11.7584 14.6389 12.3238 13.7711 13.0543 13.0543C13.7711 12.3238 14.6389 11.7588 15.5968 11.3983C16.51 11.0435 17.5533 10.8009 19.0815 10.7311C20.6123 10.6613 21.1014 10.6445 25 10.6445C28.8986 10.6445 29.3877 10.6613 30.9185 10.7315C32.4467 10.8009 33.49 11.0435 34.4032 11.3979C35.3611 11.7584 36.2289 12.3238 36.9461 13.0543C37.6762 13.7714 38.2416 14.6389 38.6017 15.5968C38.9568 16.51 39.1994 17.5533 39.2693 19.0815C39.3391 20.6123 39.3555 21.1014 39.3555 25C39.3555 28.8986 39.3391 29.3877 39.2689 30.9185Z" fill="#FFAF50" />
    </symbol>
    <symbol id="ic-fb-2" viewBox="0 0 50 50">
        <path d="M25 0C11.2151 0 0 11.2151 0 25C0 38.7839 11.2151 50 25 50C38.7839 50 50 38.7839 50 25C50 11.2151 38.7859 0 25 0ZM31.2173 25.8801H27.15C27.15 32.3784 27.15 40.377 27.15 40.377H21.123C21.123 40.377 21.123 32.4559 21.123 25.8801H18.2581V20.7565H21.123V17.4424C21.123 15.0689 22.2509 11.3601 27.2054 11.3601L31.6714 11.3772V16.3508C31.6714 16.3508 28.9575 16.3508 28.4299 16.3508C27.9022 16.3508 27.152 16.6146 27.152 17.7465V20.7575H31.7439L31.2173 25.8801Z" fill="#FFAF50" />
    </symbol>
    <symbol id="ic-in-2" viewBox="0 0 50 50">
        <path d="M25 0C11.195 0 0 11.195 0 25C0 38.805 11.195 50 25 50C38.805 50 50 38.805 50 25C50 11.195 38.805 0 25 0ZM17.7353 37.793H11.6467V19.4752H17.7353V37.793ZM14.6912 16.9739H14.6515C12.6083 16.9739 11.2869 15.5674 11.2869 13.8096C11.2869 12.0121 12.6488 10.6445 14.7316 10.6445C16.8144 10.6445 18.0962 12.0121 18.1358 13.8096C18.1358 15.5674 16.8144 16.9739 14.6912 16.9739ZM39.6896 37.793H33.6018V27.9934C33.6018 25.5306 32.7202 23.851 30.5172 23.851C28.8353 23.851 27.8336 24.984 27.3933 26.0777C27.2324 26.469 27.1931 27.0161 27.1931 27.5635V37.793H21.1048C21.1048 37.793 21.1845 21.1937 21.1048 19.4752H27.1931V22.0688C28.0022 20.8206 29.4498 19.0453 32.6801 19.0453C36.6859 19.0453 39.6896 21.6633 39.6896 27.2896V37.793Z" fill="#FFAF50" />
    </symbol>
    <symbol id="ic-mark-tr" viewBox="0 0 11 18">
        <path d="M0 0L0 18L11 9L0 0Z" fill="#FFAF50" />
    </symbol>
    <symbol id="ic-twitter-2" viewBox="0 0 50 50" fill="none" 
        xmlns="http://www.w3.org/2000/svg">
        <path d="M25 0C11.2151 0 0 11.2151 0 25C0 38.7839 11.2151 50 25 50C38.7839 50 50 38.7839 50 25C50 11.2151 38.786 0 25 0ZM36.1526 19.2782C36.1637 19.5259 36.1697 19.7756 36.1697 20.0254C36.1697 27.6293 30.3835 36.3943 19.7968 36.3943C16.5472 36.3943 13.5221 35.4447 10.9764 33.8113C11.4265 33.8647 11.8847 33.8919 12.3489 33.8919C15.0457 33.8919 17.526 32.9715 19.4957 31.4287C16.9782 31.3824 14.8524 29.7188 14.1203 27.4319C14.4707 27.4984 14.8322 27.5356 15.2018 27.5356C15.7265 27.5356 16.236 27.4672 16.7184 27.3353C14.086 26.8076 12.1032 24.4824 12.1032 21.693C12.1032 21.6688 12.1032 21.6436 12.1042 21.6205C12.8796 22.0505 13.7668 22.3103 14.7094 22.3395C13.1666 21.3093 12.1506 19.547 12.1506 17.5512C12.1506 16.4958 12.4335 15.5069 12.929 14.657C15.7657 18.1392 20.0072 20.4292 24.7885 20.6709C24.6898 20.2489 24.6405 19.8109 24.6405 19.3587C24.6405 16.1816 27.2164 13.6047 30.3935 13.6047C32.0491 13.6047 33.5425 14.3036 34.5938 15.4213C35.9059 15.1635 37.1345 14.6862 38.2492 14.0246C37.8162 15.369 36.9069 16.4958 35.7156 17.2088C36.8807 17.0698 37.9924 16.7617 39.0206 16.3035C38.2532 17.4555 37.2775 18.4695 36.1526 19.2782Z" fill="#FFAF50"/>
    </symbol>

</svg>