<?xml version="1.0" encoding="utf-8"?>
<svg width="20" height="20" viewBox="0 0 20 20" fill="none" xmlns="http://www.w3.org/2000/svg">
<path d="M20 12.1615V19.5557H15.7134V12.6567C15.7134 10.9237 15.0933 9.74094 13.5417 9.74094C12.3572 9.74094 11.6524 10.538 11.3423 11.3091C11.2292 11.5847 11.2001 11.9684 11.2001 12.3542V19.5557H6.91198C6.91198 19.5557 6.96973 7.87117 6.91198 6.66056H11.1997V8.48839C11.191 8.50206 11.1797 8.5168 11.1715 8.53006H11.1997V8.48839C11.7693 7.611 12.7867 6.35762 15.0638 6.35762C17.885 6.35758 20 8.20066 20 12.1615ZM2.42646 0.444489C0.959506 0.444489 0 1.40669 0 2.67202C0 3.90978 0.931746 4.90118 2.36954 4.90118H2.39818C3.89355 4.90118 4.82352 3.90996 4.82352 2.67202C4.79535 1.40669 3.89355 0.444489 2.42646 0.444489ZM0.254675 19.5557H4.54114V6.66056H0.254675V19.5557Z" fill="#0351C1"/>
</svg>
