<?xml version="1.0" encoding="utf-8"?>
<svg width="189" height="47" viewBox="0 0 189 47" fill="none" xmlns="http://www.w3.org/2000/svg">
<path d="M36.48 23V9.4H45.16V11.8H39.24V15.8H44.08V18.2H39.24V23H36.48ZM47.265 23V13H49.945V23H47.265ZM47.265 11.72V9H49.945V11.72H47.265ZM55.5012 23H52.8212V13H55.4812V13.56C56.3879 13.0267 57.2212 12.76 57.9812 12.76C59.3146 12.76 60.2346 13.1533 60.7412 13.94C61.2479 14.7267 61.5012 15.94 61.5012 17.58V23H58.8212V17.66C58.8212 16.8067 58.7212 16.18 58.5212 15.78C58.3212 15.3667 57.9212 15.16 57.3212 15.16C56.7746 15.16 56.2479 15.2533 55.7412 15.44L55.5012 15.52V23ZM61.8702 11.84V9.4H71.8702V11.84H68.2702V23H65.5102V11.84H61.8702ZM74.5908 19.14C74.6041 19.7533 74.7641 20.2 75.0708 20.48C75.3908 20.7467 75.8441 20.88 76.4308 20.88C77.6708 20.88 78.7774 20.84 79.7508 20.76L80.3108 20.7L80.3508 22.68C78.8174 23.0533 77.4308 23.24 76.1908 23.24C74.6841 23.24 73.5908 22.84 72.9108 22.04C72.2308 21.24 71.8908 19.94 71.8908 18.14C71.8908 14.5533 73.3641 12.76 76.3108 12.76C79.2174 12.76 80.6708 14.2667 80.6708 17.28L80.4708 19.14H74.5908ZM78.0308 17.1C78.0308 16.3 77.9041 15.7467 77.6508 15.44C77.3974 15.12 76.9508 14.96 76.3108 14.96C75.6841 14.96 75.2374 15.1267 74.9708 15.46C74.7174 15.78 74.5841 16.3267 74.5708 17.1H78.0308ZM86.7261 12.76C87.4194 12.76 88.3061 12.8667 89.3861 13.08L89.9261 13.2L89.8461 15.32C88.7928 15.2133 88.0128 15.16 87.5061 15.16C86.5861 15.16 85.9728 15.36 85.6661 15.76C85.3728 16.1467 85.2261 16.8867 85.2261 17.98C85.2261 19.0733 85.3728 19.8267 85.6661 20.24C85.9728 20.64 86.5928 20.84 87.5261 20.84L89.8461 20.68L89.9261 22.82C88.4994 23.1 87.4128 23.24 86.6661 23.24C85.1861 23.24 84.1194 22.8267 83.4661 22C82.8261 21.16 82.5061 19.82 82.5061 17.98C82.5061 16.14 82.8394 14.8133 83.5061 14C84.1728 13.1733 85.2461 12.76 86.7261 12.76ZM94.9919 23H92.3119V9H94.9919V13.48C95.9119 13 96.7385 12.76 97.4719 12.76C98.8052 12.76 99.7252 13.1533 100.232 13.94C100.739 14.7267 100.992 15.94 100.992 17.58V23H98.3119V17.64C98.3119 16.8 98.2119 16.18 98.0119 15.78C97.8119 15.3667 97.4119 15.16 96.8119 15.16C96.2919 15.16 95.7719 15.24 95.2519 15.4L94.9919 15.48V23ZM117.421 22.78C116.008 23.0867 114.734 23.24 113.601 23.24C112.468 23.24 111.561 23.1 110.881 22.82C110.201 22.54 109.668 22.0933 109.281 21.48C108.894 20.8667 108.628 20.1467 108.481 19.32C108.334 18.4933 108.261 17.4533 108.261 16.2C108.261 13.5733 108.628 11.7467 109.361 10.72C110.108 9.68 111.474 9.16 113.461 9.16C114.608 9.16 115.934 9.34 117.441 9.7L117.361 11.9C116.041 11.7 114.941 11.6 114.061 11.6C113.194 11.6 112.574 11.72 112.201 11.96C111.828 12.1867 111.548 12.6267 111.361 13.28C111.188 13.9333 111.101 15.0467 111.101 16.62C111.101 18.1933 111.281 19.2867 111.641 19.9C112.014 20.5 112.748 20.8 113.841 20.8C114.948 20.8 116.121 20.7067 117.361 20.52L117.421 22.78ZM118.84 11.84V9.4H128.84V11.84H125.24V23H122.48V11.84H118.84ZM133.691 19.8C134.091 20.4933 134.831 20.84 135.911 20.84C136.991 20.84 137.724 20.4933 138.111 19.8C138.511 19.0933 138.711 17.92 138.711 16.28C138.711 14.6267 138.511 13.4267 138.111 12.68C137.711 11.9333 136.977 11.56 135.911 11.56C134.844 11.56 134.111 11.9333 133.711 12.68C133.311 13.4267 133.111 14.6267 133.111 16.28C133.111 17.92 133.304 19.0933 133.691 19.8ZM140.271 21.56C139.431 22.68 137.977 23.24 135.911 23.24C133.844 23.24 132.384 22.68 131.531 21.56C130.691 20.4267 130.271 18.66 130.271 16.26C130.271 13.86 130.691 12.08 131.531 10.92C132.384 9.74667 133.844 9.16 135.911 9.16C137.977 9.16 139.431 9.74667 140.271 10.92C141.124 12.08 141.551 13.86 141.551 16.26C141.551 18.66 141.124 20.4267 140.271 21.56ZM157.732 22.78C156.319 23.0867 155.045 23.24 153.912 23.24C152.779 23.24 151.872 23.1 151.192 22.82C150.512 22.54 149.979 22.0933 149.592 21.48C149.205 20.8667 148.939 20.1467 148.792 19.32C148.645 18.4933 148.572 17.4533 148.572 16.2C148.572 13.5733 148.939 11.7467 149.672 10.72C150.419 9.68 151.785 9.16 153.772 9.16C154.919 9.16 156.245 9.34 157.752 9.7L157.672 11.9C156.352 11.7 155.252 11.6 154.372 11.6C153.505 11.6 152.885 11.72 152.512 11.96C152.139 12.1867 151.859 12.6267 151.672 13.28C151.499 13.9333 151.412 15.0467 151.412 16.62C151.412 18.1933 151.592 19.2867 151.952 19.9C152.325 20.5 153.059 20.8 154.152 20.8C155.259 20.8 156.432 20.7067 157.672 20.52L157.732 22.78ZM160.251 23V9H162.931V23H160.251ZM171.822 13H174.502V23H171.842V22.44C170.882 22.9733 170.049 23.24 169.342 23.24C167.955 23.24 167.022 22.86 166.542 22.1C166.062 21.3267 165.822 20.04 165.822 18.24V13H168.502V18.28C168.502 19.2667 168.582 19.94 168.742 20.3C168.902 20.66 169.289 20.84 169.902 20.84C170.489 20.84 171.042 20.7467 171.562 20.56L171.822 20.48V13ZM182.217 12.76C183.617 12.76 184.637 13.1467 185.277 13.92C185.93 14.68 186.257 16.0467 186.257 18.02C186.257 19.9933 185.883 21.36 185.137 22.12C184.39 22.8667 183.103 23.24 181.277 23.24C180.703 23.24 179.657 23.1733 178.137 23.04L177.377 22.96V9H180.057V13.3C180.91 12.94 181.63 12.76 182.217 12.76ZM181.277 20.84C182.17 20.84 182.77 20.6267 183.077 20.2C183.383 19.76 183.537 18.98 183.537 17.86C183.537 16.06 182.977 15.16 181.857 15.16C181.323 15.16 180.817 15.2267 180.337 15.36L180.057 15.42V20.76C180.67 20.8133 181.077 20.84 181.277 20.84Z" fill="white"/>
<path d="M39.102 35.86C40.0447 35.86 40.7027 36.1307 41.076 36.672C41.4587 37.204 41.65 38.142 41.65 39.486C41.65 40.83 41.412 41.7773 40.936 42.328C40.4693 42.8693 39.606 43.14 38.346 43.14C37.954 43.14 37.3053 43.1027 36.4 43.028L36.008 42.986V32.948H37.044V36.35C37.7533 36.0233 38.4393 35.86 39.102 35.86ZM38.332 42.202C39.2467 42.202 39.8487 41.9967 40.138 41.586C40.4367 41.166 40.586 40.4613 40.586 39.472C40.586 38.4827 40.4693 37.792 40.236 37.4C40.0027 36.9987 39.5873 36.798 38.99 36.798C38.4487 36.798 37.8933 36.9007 37.324 37.106L37.044 37.204V42.132C37.6507 42.1787 38.08 42.202 38.332 42.202ZM42.8761 36H43.9261L45.6761 42.09H46.1381L47.9021 36H48.9521L46.0401 46.108H44.9901L45.9001 43H44.8641L42.8761 36ZM54.1198 43V33.312H55.1978V43H54.1198ZM57.8452 43V33.312H59.8612L63.5712 42.048H63.8652V33.312H64.9292V43H62.9552L59.1892 34.264H58.9232V43H57.8452ZM70.2601 34.11C68.8601 34.11 68.1601 34.6373 68.1601 35.692C68.1601 36.28 68.3188 36.686 68.6361 36.91C68.9628 37.1247 69.6161 37.344 70.5961 37.568C71.5854 37.7827 72.2854 38.0673 72.6961 38.422C73.1068 38.7673 73.3121 39.3413 73.3121 40.144C73.3121 42.132 72.2808 43.126 70.2181 43.126C69.5368 43.126 68.6828 43.0467 67.6561 42.888L67.1521 42.818L67.2641 41.922C68.5334 42.09 69.4994 42.174 70.1621 42.174C71.5434 42.174 72.2341 41.5253 72.2341 40.228C72.2341 39.7053 72.0801 39.332 71.7721 39.108C71.4734 38.8747 70.9088 38.6787 70.0781 38.52C68.9861 38.2867 68.2114 37.988 67.7541 37.624C67.2968 37.2507 67.0681 36.63 67.0681 35.762C67.0681 34.026 68.1088 33.158 70.1901 33.158C70.8714 33.158 71.6881 33.228 72.6401 33.368L73.1161 33.438L73.0181 34.348C71.7208 34.1893 70.8014 34.11 70.2601 34.11ZM74.4633 43L77.1233 33.312H79.4753L82.1353 43H81.0713L80.3713 40.508H76.2273L75.5273 43H74.4633ZM77.9353 34.236L76.4653 39.542H80.1333L78.6633 34.236H77.9353ZM85.0151 39.29V43H83.9371V33.312H87.5211C88.5478 33.312 89.3178 33.55 89.8311 34.026C90.3538 34.502 90.6151 35.244 90.6151 36.252C90.6151 37.7453 90.0224 38.6833 88.8371 39.066L90.6991 43H89.5091L87.7591 39.29H85.0151ZM87.5351 38.338C88.8511 38.338 89.5091 37.6613 89.5091 36.308C89.5091 34.9453 88.8464 34.264 87.5211 34.264H85.0151V38.338H87.5351ZM91.6993 34.278V33.312H98.6993V34.278H95.7453V43H94.6813V34.278H91.6993Z" fill="white" fill-opacity="0.4"/>
<path d="M15.3599 28.2036C17.5297 28.2036 19.2886 26.4587 19.2886 24.3063C19.2886 22.1538 17.5297 20.4089 15.3599 20.4089C13.1901 20.4089 11.4312 22.1538 11.4312 24.3063C11.4312 26.4587 13.1901 28.2036 15.3599 28.2036Z" fill="white"/>
<path d="M0.00974818 13.2911C0.0152514 13.3141 0.0152514 13.3381 0.00974818 13.3611C0.0400761 14.1567 0.301498 14.9266 0.762557 15.5782C0.762557 15.6482 0.856658 15.7299 0.915471 15.8232C1.62314 16.7383 2.0334 17.8453 2.09174 18.9972C2.09928 20.1095 1.72605 21.1915 1.0331 22.0661L0.797845 22.3461C0.341529 22.9678 0.0692068 23.7035 0.0115393 24.4704C-0.0461283 25.2373 0.113148 26.0049 0.471436 26.6869C0.829725 27.3688 1.3728 27.938 2.03951 28.3304C2.70623 28.7227 3.47012 28.9226 4.24517 28.9076C5.02023 28.8927 5.77568 28.6633 6.42646 28.2455C7.07725 27.8276 7.59754 27.2379 7.92875 26.5426C8.25996 25.8473 8.38894 25.0741 8.30118 24.31C8.21341 23.5459 7.91238 22.8213 7.43197 22.2178V22.1477C6.68317 21.2648 6.26732 20.151 6.25571 18.9972C6.19455 18.4896 6.24147 17.975 6.39343 17.4865C6.5454 16.9981 6.79902 16.5467 7.13791 16.1616C7.52689 15.8225 7.98343 15.5682 8.47789 15.4155C8.97234 15.2627 9.49366 15.2148 10.008 15.2748C11.1714 15.2844 12.2949 15.6971 13.1839 16.4417L13.2662 16.5C14.0826 17.123 15.1022 17.4247 16.1292 17.3472C17.1562 17.2697 18.1181 16.8183 18.83 16.08C19.395 15.5001 19.7766 14.7688 19.9275 13.9763C20.0785 13.1838 19.9924 12.3648 19.6797 11.6203C19.367 10.8758 18.8415 10.2385 18.1679 9.7868C17.4943 9.33515 16.7022 9.08897 15.8893 9.07865C15.0143 9.07439 14.161 9.34839 13.4544 9.86046C13.3537 9.92569 13.2592 9.9999 13.1721 10.0822C12.2901 10.7796 11.1948 11.1583 10.0668 11.1557C8.90461 11.103 7.78719 10.6955 6.86737 9.98882L6.5733 9.84879C5.88262 9.37235 5.06202 9.11592 4.22077 9.11366C3.66448 9.09274 3.10957 9.18206 2.58849 9.37641C2.06741 9.57076 1.59062 9.86623 1.18601 10.2455L0.99781 10.4439L0.833133 10.7473C0.00974596 11.9959 0.265188 11.685 0.139137 12.2176C0.139137 12.2876 0.0556938 12.4393 0.0556938 12.5793V12.6843C0.0556938 12.8346 -0.00145338 13.019 0.00974596 13.1627L0.00974818 13.2911Z" fill="#FF671D"/>
</svg>
