<svg width="200" height="49" viewBox="0 0 200 49" fill="none" xmlns="http://www.w3.org/2000/svg">
<g clip-path="url(#clip0)">
<path d="M3.53443 6.5287C4.13152 6.5287 4.7152 6.35252 5.21166 6.02244C5.70812 5.69236 6.09506 5.2232 6.32356 4.67429C6.55205 4.12539 6.61184 3.52139 6.49535 2.93868C6.37886 2.35597 6.09134 1.82071 5.66913 1.4006C5.24693 0.980484 4.70901 0.694383 4.12339 0.578474C3.53778 0.462565 2.93077 0.522054 2.37914 0.749417C1.8275 0.976781 1.35601 1.36181 1.02429 1.85581C0.692561 2.34981 0.515503 2.9306 0.515503 3.52473C0.515503 4.32143 0.833568 5.0855 1.39973 5.64886C1.96589 6.21221 2.73376 6.5287 3.53443 6.5287Z" fill="#001388"/>
<path d="M28.084 18.4601C29.7296 18.1935 30.8464 16.6498 30.5784 15.0124C30.3104 13.3749 28.7591 12.2636 27.1135 12.5303C25.4678 12.797 24.3511 14.3406 24.6191 15.9781C24.8871 17.6156 26.4384 18.7268 28.084 18.4601Z" fill="#001388"/>
<path d="M30.3869 28.6321C31.0295 27.1012 30.3033 25.3418 28.7648 24.7024C27.2263 24.063 25.4582 24.7856 24.8155 26.3165C24.1729 27.8474 24.8992 29.6067 26.4377 30.2462C27.9762 30.8856 29.7443 30.163 30.3869 28.6321Z" fill="#001388"/>
<path d="M16.0504 30.4352C17.6961 30.1686 18.8128 28.6249 18.5448 26.9875C18.2768 25.35 16.7255 24.2387 15.0799 24.5054C13.4343 24.7721 12.3175 26.3157 12.5855 27.9532C12.8535 29.5907 14.4048 30.7019 16.0504 30.4352Z" fill="#001388"/>
<path d="M6.0352 29.9555C6.69739 29.296 7.06935 28.4019 7.06935 27.4697C7.06935 26.5375 6.69739 25.6434 6.0352 24.9839C5.10279 24.056 4.57897 22.7976 4.57897 21.4854C4.57897 20.1733 5.10279 18.9148 6.0352 17.9869C6.96806 17.0598 8.23263 16.539 9.55112 16.539C10.8696 16.539 12.1342 17.0598 13.067 17.9869C13.3948 18.3138 13.7842 18.5732 14.2129 18.7501C14.6416 18.9271 15.1011 19.0181 15.5652 19.0181C16.0293 19.0181 16.4888 18.9271 16.9175 18.7501C17.3461 18.5732 17.7355 18.3138 18.0633 17.9869C18.725 17.3267 19.0966 16.4323 19.0966 15.4998C19.0966 14.5674 18.725 13.673 18.0633 13.0128C17.1324 12.0846 16.6095 10.8269 16.6095 9.51557C16.6095 8.20426 17.1324 6.94652 18.0633 6.01839C18.9965 5.09188 20.261 4.57155 21.5792 4.57155C22.8975 4.57155 24.162 5.09188 25.0952 6.01839C25.7579 6.67729 26.6564 7.04741 27.5933 7.04741C28.5302 7.04741 29.4287 6.67729 30.0915 6.01839C31.0242 5.09204 32.2882 4.57177 33.606 4.57177C34.9239 4.57177 36.1879 5.09204 37.1206 6.01839C37.7834 6.67729 38.6819 7.04741 39.6188 7.04741C40.5557 7.04741 41.4542 6.67729 42.1169 6.01839C42.7791 5.35893 43.1511 4.46484 43.1511 3.53262C43.1511 2.60039 42.7791 1.70631 42.1169 1.04684C41.4542 0.387942 40.5557 0.0178223 39.6188 0.0178223C38.6819 0.0178223 37.7834 0.387942 37.1206 1.04684C36.1879 1.97319 34.9239 2.49346 33.606 2.49346C32.2882 2.49346 31.0242 1.97319 30.0915 1.04684C29.4287 0.387942 28.5302 0.0178223 27.5933 0.0178223C26.6564 0.0178223 25.7579 0.387942 25.0952 1.04684C24.1619 1.97416 22.8968 2.495 21.5779 2.495C20.259 2.495 18.994 1.97416 18.0607 1.04684C17.3979 0.387942 16.4994 0.0178223 15.5625 0.0178223C14.6257 0.0178223 13.7271 0.387942 13.0644 1.04684C12.4022 1.70631 12.0302 2.60039 12.0302 3.53262C12.0302 4.46484 12.4022 5.35893 13.0644 6.01839C13.5263 6.47744 13.8928 7.02258 14.1428 7.62266C14.3928 8.22274 14.5215 8.86597 14.5215 9.51557C14.5215 10.1652 14.3928 10.8084 14.1428 11.4085C13.8928 12.0086 13.5263 12.5537 13.0644 13.0128C12.6031 13.4724 12.0552 13.837 11.4521 14.0858C10.8491 14.3346 10.2026 14.4626 9.5498 14.4626C8.89696 14.4626 8.25052 14.3346 7.64746 14.0858C7.0444 13.837 6.49653 13.4724 6.0352 13.0128C5.37246 12.3539 4.47392 11.9837 3.53705 11.9837C2.60019 11.9837 1.70165 12.3539 1.03891 13.0128C0.376723 13.6722 0.00476074 14.5663 0.00476074 15.4985C0.00476074 16.4308 0.376723 17.3248 1.03891 17.9843C1.97164 18.9131 2.49559 20.1724 2.49559 21.4854C2.49559 22.7985 1.97164 24.0578 1.03891 24.9866C0.376723 25.646 0.00476074 26.5401 0.00476074 27.4723C0.00476074 28.4046 0.376723 29.2986 1.03891 29.9581C1.70165 30.617 2.60019 30.9871 3.53705 30.9871C4.47392 30.9871 5.37246 30.617 6.0352 29.9581V29.9555Z" fill="#E66728"/>
<path d="M39.6294 18.4999C41.2967 18.4999 42.6483 17.155 42.6483 15.4959C42.6483 13.8369 41.2967 12.4919 39.6294 12.4919C37.9621 12.4919 36.6105 13.8369 36.6105 15.4959C36.6105 17.155 37.9621 18.4999 39.6294 18.4999Z" fill="#001388"/>
<path d="M42.1275 24.9814C41.4647 24.3225 40.5662 23.9524 39.6293 23.9524C38.6925 23.9524 37.7939 24.3225 37.1312 24.9814C36.469 25.6409 36.097 26.535 36.097 27.4672C36.097 28.3994 36.469 29.2935 37.1312 29.953C37.7939 30.6119 38.6925 30.982 39.6293 30.982C40.5662 30.982 41.4647 30.6119 42.1275 29.953C42.7897 29.2935 43.1616 28.3994 43.1616 27.4672C43.1616 26.535 42.7897 25.6409 42.1275 24.9814Z" fill="#E66728"/>
<path d="M1.04415 42.7368V44.9306H4.02079V45.7934H1.03358V48.9078H-0.0106201V41.8845H4.68167V42.7473L1.04415 42.7368Z" fill="#E66728"/>
<path d="M11.5867 48.9078H10.5293V41.8845H11.5867V48.9078Z" fill="#E66728"/>
<path d="M24.2043 48.9078H22.9407L19.1498 43.3076V48.9078H18.0924V41.8845H19.3534L23.1522 47.4821V41.8845H24.2096L24.2043 48.9078Z" fill="#E66728"/>
<path d="M35.0005 42.7368H32.8143V48.9078H31.7569V42.7368H29.5707V41.8845H34.9899L35.0005 42.7368Z" fill="#E66728"/>
<path d="M45.2602 48.045V48.9078H40.3776V41.8845H45.0804V42.7473H41.4244V44.828H44.4116V45.7013H41.4244V48.0556L45.2602 48.045Z" fill="#E66728"/>
<path d="M56.934 47.9347C56.5997 48.2871 56.194 48.5648 55.7437 48.7494C55.2935 48.9339 54.8089 49.0212 54.3222 49.0053C53.3609 49.0053 52.4391 48.6254 51.7594 47.949C51.0797 47.2727 50.6979 46.3554 50.6979 45.399C50.6979 44.4425 51.0797 43.5252 51.7594 42.8489C52.4391 42.1726 53.3609 41.7926 54.3222 41.7926C54.8108 41.7766 55.2973 41.8645 55.749 42.0505C56.2008 42.2365 56.6075 42.5163 56.9419 42.8711L56.2546 43.555C56.0286 43.2619 55.735 43.0272 55.3987 42.8706C55.0624 42.714 54.6932 42.6402 54.3222 42.6554C52.8603 42.6554 51.7791 43.9496 51.7791 45.3937C51.7791 46.7089 52.7572 48.1399 54.3222 48.1399C55.0016 48.1399 55.8686 47.8768 56.244 47.2508L56.934 47.9347Z" fill="#E66728"/>
<path d="M68.1162 41.8845V48.9078H67.0588V45.8302H63.7438V48.9078H62.6864V41.8845H63.7438V44.97H67.0694V41.8845H68.1162Z" fill="#E66728"/>
<path d="M89.936 48.045V48.9078H85.0533V41.8845H89.7562V42.7473H86.1002V44.828H89.0874V45.7013H86.1002V48.0556L89.936 48.045Z" fill="#E66728"/>
<path d="M101.985 48.9078H100.722L96.9335 43.3076V48.9078H95.8761V41.8845H97.1397L100.936 47.4821V41.8845H101.993L101.985 48.9078Z" fill="#E66728"/>
<path d="M114.923 44.9675V48.9131H113.865V48.0135C113.531 48.3419 113.132 48.5993 112.695 48.7702C112.257 48.9411 111.789 49.022 111.32 49.0078C110.358 49.0078 109.437 48.6279 108.757 47.9515C108.077 47.2752 107.695 46.3579 107.695 45.4015C107.695 44.445 108.077 43.5277 108.757 42.8514C109.437 42.1751 110.358 41.7951 111.32 41.7951C111.808 41.7778 112.295 41.8651 112.747 42.0511C113.199 42.2372 113.606 42.5177 113.939 42.8736L113.252 43.5575C113.019 43.2728 112.724 43.044 112.389 42.8883C112.054 42.7325 111.689 42.6538 111.32 42.6579C109.802 42.6579 108.784 43.8679 108.784 45.3962C108.784 46.7114 109.757 48.1424 111.32 48.1424C111.651 48.1582 111.983 48.102 112.29 47.9775C112.598 47.853 112.875 47.6634 113.101 47.4217C113.499 46.9801 113.755 46.4305 113.836 45.8434H112.036V44.9806L114.923 44.9675Z" fill="#E66728"/>
<path d="M122.005 48.9078H120.961V41.8845H122.005V48.9078Z" fill="#E66728"/>
<path d="M134.612 48.9078H133.348L129.56 43.3076V48.9078H128.503V41.8845H129.766L133.565 47.4821V41.8845H134.622L134.612 48.9078Z" fill="#E66728"/>
<path d="M145.731 48.045V48.9078H140.848V41.8845H145.551V42.7473H141.895V44.828H144.882V45.7013H141.895V48.0556L145.731 48.045Z" fill="#E66728"/>
<path d="M156.461 48.045V48.9078H151.578V41.8845H156.289V42.7473H152.625V44.828H155.612V45.7013H152.625V48.0556L156.461 48.045Z" fill="#E66728"/>
<path d="M165.938 46.6746L167.455 48.9078H166.298L164.912 46.864H163.263V48.9078H162.205V41.8845H164.947C165.523 41.8897 166.08 42.0917 166.525 42.4567C166.97 42.8217 167.275 43.3276 167.39 43.8897C167.505 44.4519 167.422 45.0363 167.156 45.5451C166.89 46.0539 166.456 46.4563 165.927 46.6851L165.938 46.6746ZM163.263 46.0012H164.949C165.742 46.0012 166.409 45.3251 166.409 44.3677C166.409 43.4102 165.75 42.7368 164.949 42.7368H163.263V46.0012Z" fill="#E66728"/>
<path d="M174.445 48.9078H173.387V41.8845H174.445V48.9078Z" fill="#E66728"/>
<path d="M187.06 48.9078H185.799L182.008 43.3076V48.9078H180.951V41.8845H182.214L186.01 47.4821V41.8845H187.068L187.06 48.9078Z" fill="#E66728"/>
<path d="M199.997 44.9676V48.9133H198.94V48.0137C198.606 48.3419 198.208 48.5992 197.771 48.7701C197.334 48.941 196.866 49.0219 196.397 49.008C195.436 49.008 194.514 48.628 193.834 47.9517C193.154 47.2754 192.773 46.3581 192.773 45.4017C192.773 44.4452 193.154 43.5279 193.834 42.8516C194.514 42.1753 195.436 41.7953 196.397 41.7953C196.886 41.7793 197.372 41.8672 197.824 42.0532C198.275 42.2392 198.682 42.5189 199.017 42.8738L198.327 43.5577C198.094 43.2731 197.799 43.0445 197.465 42.8888C197.131 42.733 196.766 42.6542 196.397 42.6581C194.879 42.6581 193.862 43.8681 193.862 45.3964C193.862 46.7116 194.832 48.1426 196.397 48.1426C196.728 48.1582 197.059 48.1018 197.366 47.9774C197.674 47.8529 197.95 47.6633 198.176 47.4218C198.574 46.9804 198.831 46.4309 198.914 45.8436H197.113V44.9808L199.997 44.9676Z" fill="#E66728"/>
<path d="M179.817 0.00263101C178.488 0.0212948 177.22 0.559683 176.287 1.50136C175.354 2.44304 174.831 3.71231 174.831 5.03468V5.43977H184.686V30.9867H190.15V5.43977H200.005V0L179.817 0.00263101Z" fill="#001388"/>
<path d="M133.507 0.00522947C132.449 0.00498756 131.417 0.334723 130.557 0.948091C129.697 1.56146 129.051 2.42761 128.712 3.42481L119.679 30.9867H125.428L128.601 21.3355H135.516L133.755 15.8958H130.382L133.52 6.3262L138.379 21.3198L140.14 26.7595L141.509 30.9682H147.251L137.205 -0.0131836L133.507 0.00522947Z" fill="#001388"/>
<path d="M84.2736 21.4093L70.9898 0.00537178H70.1095C69.4453 0.00502602 68.7875 0.134948 68.1738 0.387709C67.5601 0.640471 67.0025 1.01112 66.5328 1.47845C66.0631 1.94579 65.6906 2.50066 65.4366 3.11133C65.1826 3.722 65.052 4.3765 65.0524 5.03742V30.9868H70.5166V9.58284L83.803 30.9868H89.7484V0.00537178H84.2736V21.4093Z" fill="#001388"/>
<path d="M54.1133 5.03742V30.9868H59.5775V0.00537178H59.1704C58.5062 0.00502602 57.8484 0.134948 57.2347 0.387709C56.621 0.640471 56.0634 1.01112 55.5937 1.47845C55.124 1.94579 54.7515 2.50066 54.4975 3.11133C54.2435 3.722 54.1129 4.3765 54.1133 5.03742Z" fill="#001388"/>
<path d="M118.296 9.5302C118.254 8.17737 117.94 6.84661 117.373 5.61609C116.826 4.44709 116.022 3.41517 115.021 2.59633C113.945 1.73073 112.713 1.07722 111.391 0.670845C109.85 0.199091 108.245 -0.0290281 106.633 -0.00517985C105.031 -0.0381444 103.434 0.19022 101.906 0.670845C100.677 1.06537 99.5359 1.6904 98.5434 2.51216C97.6601 3.2504 96.966 4.18722 96.5185 5.2452C96.0758 6.3136 95.8521 7.4592 95.8602 8.6148C95.8602 10.1931 96.1096 11.4908 96.6084 12.5079C97.1375 13.567 97.9416 14.4661 98.9373 15.112C100.179 15.9105 101.536 16.5155 102.961 16.906C104.589 17.3882 106.516 17.8626 108.742 18.329C109.523 18.4869 110.289 18.714 111.029 19.0077C111.538 19.2064 112.008 19.4952 112.414 19.86C112.734 20.1508 112.969 20.5214 113.096 20.9332C113.217 21.3522 113.277 21.7862 113.273 22.2221C113.287 22.7836 113.157 23.3393 112.895 23.8368C112.634 24.3344 112.249 24.7573 111.777 25.0656C110.781 25.7671 109.316 26.1178 107.381 26.1178C105.592 26.1178 104.104 25.6882 102.916 24.8289C102.347 24.4336 101.883 23.9063 101.566 23.2925C101.248 22.6788 101.085 21.9971 101.092 21.3067H95.2231C95.343 24.5159 96.4718 26.9368 98.6095 28.5694C100.49 30.0021 103.182 30.8061 106.686 30.9815H109.308C110.376 30.9121 111.434 30.7268 112.462 30.4291C113.723 30.0763 114.91 29.5017 115.967 28.7325C116.951 28.0054 117.763 27.0725 118.346 25.9994C118.949 24.8529 119.252 23.5737 119.227 22.28C119.247 21.2769 119.129 20.2758 118.875 19.3049C118.673 18.5588 118.354 17.8487 117.931 17.2006C117.543 16.627 117.051 16.1302 116.48 15.7354C115.909 15.3427 115.296 15.0129 114.653 14.7516C113.426 14.2245 112.163 13.785 110.873 13.4364C109.497 13.0576 107.87 12.649 105.993 12.2106C104.407 11.8318 103.256 11.3575 102.54 10.7876C102.205 10.5443 101.932 10.2253 101.745 9.85674C101.557 9.48815 101.46 9.08053 101.462 8.66741C101.462 6.30176 103.192 5.11981 106.651 5.12157C108.528 5.12157 109.938 5.48632 110.881 6.21583C111.226 6.49675 111.519 6.83493 111.748 7.2154C112.205 7.93007 112.837 8.51744 113.585 8.92235C114.332 9.32726 115.171 9.53643 116.023 9.5302H118.296Z" fill="#001388"/>
<path d="M155.62 30.9868H150.153V5.03742C150.153 4.37638 150.284 3.72182 150.539 3.11113C150.793 2.50044 151.166 1.9456 151.635 1.47829C152.105 1.01099 152.663 0.640388 153.277 0.387659C153.891 0.13493 154.549 0.00502623 155.213 0.00537178H162.433C164.608 0.0149242 166.728 0.683566 168.512 1.92225C170.295 3.16094 171.657 4.91089 172.416 6.93906C173.175 8.96723 173.295 11.1774 172.76 13.2751C172.225 15.3729 171.061 17.2588 169.422 18.6816L173.623 30.9999H167.849L164.484 21.1226C163.783 21.2631 163.069 21.3345 162.353 21.3357H158.348V15.8959H162.369C163.069 15.9115 163.765 15.7879 164.416 15.5321C165.067 15.2764 165.661 14.8938 166.161 14.4068C166.662 13.9198 167.059 13.3382 167.331 12.6961C167.603 12.0541 167.742 11.3645 167.742 10.6679C167.742 9.9713 167.603 9.28173 167.331 8.63966C167.059 7.9976 166.662 7.41598 166.161 6.92897C165.661 6.44195 165.067 6.05936 164.416 5.80364C163.765 5.54793 163.069 5.42426 162.369 5.43988H155.62V30.9868Z" fill="#001388"/>
</g>
<defs>
<clipPath id="clip0">
<rect width="200" height="49" fill="white"/>
</clipPath>
</defs>
</svg>
