<svg width="188" height="41" viewBox="0 0 188 41" fill="none" xmlns="http://www.w3.org/2000/svg">
<path d="M35.48 23V9.4H44.16V11.8H38.24V15.8H43.08V18.2H38.24V23H35.48ZM46.265 23V13H48.945V23H46.265ZM46.265 11.72V9H48.945V11.72H46.265ZM54.5012 23H51.8212V13H54.4812V13.56C55.3879 13.0267 56.2212 12.76 56.9812 12.76C58.3146 12.76 59.2346 13.1533 59.7412 13.94C60.2479 14.7267 60.5012 15.94 60.5012 17.58V23H57.8212V17.66C57.8212 16.8067 57.7212 16.18 57.5212 15.78C57.3212 15.3667 56.9212 15.16 56.3212 15.16C55.7746 15.16 55.2479 15.2533 54.7412 15.44L54.5012 15.52V23ZM60.8702 11.84V9.4H70.8702V11.84H67.2702V23H64.5102V11.84H60.8702ZM73.5908 19.14C73.6041 19.7533 73.7641 20.2 74.0708 20.48C74.3908 20.7467 74.8441 20.88 75.4308 20.88C76.6708 20.88 77.7774 20.84 78.7508 20.76L79.3108 20.7L79.3508 22.68C77.8174 23.0533 76.4308 23.24 75.1908 23.24C73.6841 23.24 72.5908 22.84 71.9108 22.04C71.2308 21.24 70.8908 19.94 70.8908 18.14C70.8908 14.5533 72.3641 12.76 75.3108 12.76C78.2174 12.76 79.6708 14.2667 79.6708 17.28L79.4708 19.14H73.5908ZM77.0308 17.1C77.0308 16.3 76.9041 15.7467 76.6508 15.44C76.3974 15.12 75.9508 14.96 75.3108 14.96C74.6841 14.96 74.2374 15.1267 73.9708 15.46C73.7174 15.78 73.5841 16.3267 73.5708 17.1H77.0308ZM85.7261 12.76C86.4194 12.76 87.3061 12.8667 88.3861 13.08L88.9261 13.2L88.8461 15.32C87.7928 15.2133 87.0128 15.16 86.5061 15.16C85.5861 15.16 84.9728 15.36 84.6661 15.76C84.3728 16.1467 84.2261 16.8867 84.2261 17.98C84.2261 19.0733 84.3728 19.8267 84.6661 20.24C84.9728 20.64 85.5928 20.84 86.5261 20.84L88.8461 20.68L88.9261 22.82C87.4994 23.1 86.4128 23.24 85.6661 23.24C84.1861 23.24 83.1194 22.8267 82.4661 22C81.8261 21.16 81.5061 19.82 81.5061 17.98C81.5061 16.14 81.8394 14.8133 82.5061 14C83.1728 13.1733 84.2461 12.76 85.7261 12.76ZM93.9919 23H91.3119V9H93.9919V13.48C94.9119 13 95.7385 12.76 96.4719 12.76C97.8052 12.76 98.7252 13.1533 99.2319 13.94C99.7385 14.7267 99.9919 15.94 99.9919 17.58V23H97.3119V17.64C97.3119 16.8 97.2119 16.18 97.0119 15.78C96.8119 15.3667 96.4119 15.16 95.8119 15.16C95.2919 15.16 94.7719 15.24 94.2519 15.4L93.9919 15.48V23ZM116.421 22.78C115.008 23.0867 113.734 23.24 112.601 23.24C111.468 23.24 110.561 23.1 109.881 22.82C109.201 22.54 108.668 22.0933 108.281 21.48C107.894 20.8667 107.628 20.1467 107.481 19.32C107.334 18.4933 107.261 17.4533 107.261 16.2C107.261 13.5733 107.628 11.7467 108.361 10.72C109.108 9.68 110.474 9.16 112.461 9.16C113.608 9.16 114.934 9.34 116.441 9.7L116.361 11.9C115.041 11.7 113.941 11.6 113.061 11.6C112.194 11.6 111.574 11.72 111.201 11.96C110.828 12.1867 110.548 12.6267 110.361 13.28C110.188 13.9333 110.101 15.0467 110.101 16.62C110.101 18.1933 110.281 19.2867 110.641 19.9C111.014 20.5 111.748 20.8 112.841 20.8C113.948 20.8 115.121 20.7067 116.361 20.52L116.421 22.78ZM117.84 11.84V9.4H127.84V11.84H124.24V23H121.48V11.84H117.84ZM132.691 19.8C133.091 20.4933 133.831 20.84 134.911 20.84C135.991 20.84 136.724 20.4933 137.111 19.8C137.511 19.0933 137.711 17.92 137.711 16.28C137.711 14.6267 137.511 13.4267 137.111 12.68C136.711 11.9333 135.977 11.56 134.911 11.56C133.844 11.56 133.111 11.9333 132.711 12.68C132.311 13.4267 132.111 14.6267 132.111 16.28C132.111 17.92 132.304 19.0933 132.691 19.8ZM139.271 21.56C138.431 22.68 136.977 23.24 134.911 23.24C132.844 23.24 131.384 22.68 130.531 21.56C129.691 20.4267 129.271 18.66 129.271 16.26C129.271 13.86 129.691 12.08 130.531 10.92C131.384 9.74667 132.844 9.16 134.911 9.16C136.977 9.16 138.431 9.74667 139.271 10.92C140.124 12.08 140.551 13.86 140.551 16.26C140.551 18.66 140.124 20.4267 139.271 21.56ZM156.732 22.78C155.319 23.0867 154.045 23.24 152.912 23.24C151.779 23.24 150.872 23.1 150.192 22.82C149.512 22.54 148.979 22.0933 148.592 21.48C148.205 20.8667 147.939 20.1467 147.792 19.32C147.645 18.4933 147.572 17.4533 147.572 16.2C147.572 13.5733 147.939 11.7467 148.672 10.72C149.419 9.68 150.785 9.16 152.772 9.16C153.919 9.16 155.245 9.34 156.752 9.7L156.672 11.9C155.352 11.7 154.252 11.6 153.372 11.6C152.505 11.6 151.885 11.72 151.512 11.96C151.139 12.1867 150.859 12.6267 150.672 13.28C150.499 13.9333 150.412 15.0467 150.412 16.62C150.412 18.1933 150.592 19.2867 150.952 19.9C151.325 20.5 152.059 20.8 153.152 20.8C154.259 20.8 155.432 20.7067 156.672 20.52L156.732 22.78ZM159.251 23V9H161.931V23H159.251ZM170.822 13H173.502V23H170.842V22.44C169.882 22.9733 169.049 23.24 168.342 23.24C166.955 23.24 166.022 22.86 165.542 22.1C165.062 21.3267 164.822 20.04 164.822 18.24V13H167.502V18.28C167.502 19.2667 167.582 19.94 167.742 20.3C167.902 20.66 168.289 20.84 168.902 20.84C169.489 20.84 170.042 20.7467 170.562 20.56L170.822 20.48V13ZM181.217 12.76C182.617 12.76 183.637 13.1467 184.277 13.92C184.93 14.68 185.257 16.0467 185.257 18.02C185.257 19.9933 184.883 21.36 184.137 22.12C183.39 22.8667 182.103 23.24 180.277 23.24C179.703 23.24 178.657 23.1733 177.137 23.04L176.377 22.96V9H179.057V13.3C179.91 12.94 180.63 12.76 181.217 12.76ZM180.277 20.84C181.17 20.84 181.77 20.6267 182.077 20.2C182.383 19.76 182.537 18.98 182.537 17.86C182.537 16.06 181.977 15.16 180.857 15.16C180.323 15.16 179.817 15.2267 179.337 15.36L179.057 15.42V20.76C179.67 20.8133 180.077 20.84 180.277 20.84Z" fill="#00178B"/>
<path d="M37.516 31.88C38.324 31.88 38.888 32.112 39.208 32.576C39.536 33.032 39.7 33.836 39.7 34.988C39.7 36.14 39.496 36.952 39.088 37.424C38.688 37.888 37.948 38.12 36.868 38.12C36.532 38.12 35.976 38.088 35.2 38.024L34.864 37.988V29.384H35.752V32.3C36.36 32.02 36.948 31.88 37.516 31.88ZM36.856 37.316C37.64 37.316 38.156 37.14 38.404 36.788C38.66 36.428 38.788 35.824 38.788 34.976C38.788 34.128 38.688 33.536 38.488 33.2C38.288 32.856 37.932 32.684 37.42 32.684C36.956 32.684 36.48 32.772 35.992 32.948L35.752 33.032V37.256C36.272 37.296 36.64 37.316 36.856 37.316ZM40.7509 32H41.6509L43.1509 37.22H43.5469L45.0589 32H45.9589L43.4629 40.664H42.5629L43.3429 38H42.4549L40.7509 32ZM50.3884 38V29.696H51.3124V38H50.3884ZM53.5816 38V29.696H55.3096L58.4896 37.184H58.7416V29.696H59.6536V38H57.9616L54.7336 30.512H54.5056V38H53.5816ZM64.2229 30.38C63.0229 30.38 62.4229 30.832 62.4229 31.736C62.4229 32.24 62.5589 32.588 62.8309 32.78C63.1109 32.964 63.6709 33.152 64.5109 33.344C65.3589 33.528 65.9589 33.772 66.3109 34.076C66.6629 34.372 66.8389 34.864 66.8389 35.552C66.8389 37.256 65.9549 38.108 64.1869 38.108C63.6029 38.108 62.8709 38.04 61.9909 37.904L61.5589 37.844L61.6549 37.076C62.7429 37.22 63.5709 37.292 64.1389 37.292C65.3229 37.292 65.9149 36.736 65.9149 35.624C65.9149 35.176 65.7829 34.856 65.5189 34.664C65.2629 34.464 64.7789 34.296 64.0669 34.16C63.1309 33.96 62.4669 33.704 62.0749 33.392C61.6829 33.072 61.4869 32.54 61.4869 31.796C61.4869 30.308 62.3789 29.564 64.1629 29.564C64.7469 29.564 65.4469 29.624 66.2629 29.744L66.6709 29.804L66.5869 30.584C65.4749 30.448 64.6869 30.38 64.2229 30.38ZM67.8257 38L70.1057 29.696H72.1217L74.4017 38H73.4897L72.8897 35.864H69.3377L68.7377 38H67.8257ZM70.8017 30.488L69.5417 35.036H72.6857L71.4257 30.488H70.8017ZM76.8701 34.82V38H75.9461V29.696H79.0181C79.8981 29.696 80.5581 29.9 80.9981 30.308C81.4461 30.716 81.6701 31.352 81.6701 32.216C81.6701 33.496 81.1621 34.3 80.1461 34.628L81.7421 38H80.7221L79.2221 34.82H76.8701ZM79.0301 34.004C80.1581 34.004 80.7221 33.424 80.7221 32.264C80.7221 31.096 80.1541 30.512 79.0181 30.512H76.8701V34.004H79.0301ZM82.5994 30.524V29.696H88.5994V30.524H86.0674V38H85.1554V30.524H82.5994Z" fill="#808285"/>
<path d="M18.4319 33.1431C21.0356 33.1431 23.1463 31.0316 23.1463 28.427C23.1463 25.8223 21.0356 23.7108 18.4319 23.7108C15.8281 23.7108 13.7174 25.8223 13.7174 28.427C13.7174 31.0316 15.8281 33.1431 18.4319 33.1431Z" fill="#00178B"/>
<path d="M0.0116978 15.0975C0.0183016 15.1253 0.0183016 15.1543 0.0116978 15.1822C0.0480913 16.1449 0.361798 17.0765 0.915069 17.865C0.915069 17.9498 1.02799 18.0486 1.09857 18.1616C1.94777 19.2689 2.44008 20.6084 2.51008 22.0023C2.51914 23.3483 2.07126 24.6576 1.23972 25.7159L0.957414 26.0548C0.409834 26.8071 0.0830482 27.6973 0.0138471 28.6253C-0.055354 29.5533 0.135778 30.4822 0.565724 31.3075C0.99567 32.1327 1.64736 32.8215 2.44742 33.2962C3.24748 33.771 4.16414 34.013 5.09421 33.9948C6.02427 33.9767 6.93081 33.6992 7.71176 33.1935C8.4927 32.6879 9.11705 31.9742 9.5145 31.1329C9.91195 30.2915 10.0667 29.3559 9.96141 28.4313C9.85609 27.5067 9.49485 26.6298 8.91837 25.8995V25.8148C8.01981 24.7463 7.52078 23.3985 7.50685 22.0023C7.43346 21.3881 7.48976 20.7653 7.67212 20.1743C7.85448 19.5832 8.15883 19.037 8.56549 18.5711C9.03227 18.1606 9.58012 17.853 10.1735 17.6681C10.7668 17.4832 11.3924 17.4252 12.0096 17.4979C13.4057 17.5095 14.7539 18.009 15.8207 18.9099L15.9195 18.9805C16.8991 19.7344 18.1227 20.0995 19.3551 20.0057C20.5874 19.9119 21.7417 19.3657 22.596 18.4722C23.274 17.7705 23.7319 16.8856 23.9131 15.9266C24.0943 14.9676 23.9909 13.9766 23.6156 13.0757C23.2404 12.1748 22.6098 11.4035 21.8015 10.857C20.9932 10.3104 20.0427 10.0125 19.0672 10C18.0172 9.99489 16.9932 10.3265 16.1453 10.9461C16.0245 11.025 15.9111 11.1148 15.8066 11.2144C14.7481 12.0584 13.4338 12.5166 12.0802 12.5135C10.6855 12.4497 9.34463 11.9566 8.24084 11.1014L7.88796 10.932C7.05914 10.3554 6.07443 10.0451 5.06493 10.0424C4.39738 10.0171 3.73148 10.1252 3.10619 10.3604C2.48089 10.5955 1.90875 10.9531 1.42321 11.4121L1.19737 11.6521L0.99976 12.0192C0.0116952 13.5301 0.318226 13.154 0.166965 13.7984C0.166965 13.8831 0.0668325 14.0667 0.0668325 14.2361V14.3632C0.0668325 14.545 -0.00174405 14.7682 0.0116952 14.9421L0.0116978 15.0975Z" fill="#FF671D"/>
</svg>
