<svg width="44" height="44" viewBox="0 0 44 44" fill="none" xmlns="http://www.w3.org/2000/svg">
<path d="M33.7916 42.4366C38.5651 42.4366 42.4348 38.5648 42.4348 33.7887C42.4348 29.0126 38.5651 25.1409 33.7916 25.1409C29.0181 25.1409 25.1484 29.0126 25.1484 33.7887C25.1484 38.5648 29.0181 42.4366 33.7916 42.4366Z" fill="#00178B"/>
<path d="M0.021446 9.347C0.033553 9.39807 0.033553 9.45127 0.021446 9.50235C0.0881675 11.2676 0.663297 12.9759 1.67763 14.4218C1.67763 14.5771 1.88465 14.7584 2.01404 14.9655C3.57091 16.9959 4.47348 19.4522 4.60182 22.0081C4.61842 24.4763 3.79731 26.877 2.27282 28.8176L1.75526 29.439C0.751363 30.8184 0.152255 32.4508 0.0253864 34.1525C-0.101482 35.8541 0.248926 37.5574 1.03716 39.0705C1.82539 40.5837 3.02016 41.8467 4.48693 42.7173C5.95371 43.5879 7.63426 44.0315 9.33938 43.9982C11.0445 43.965 12.7065 43.4561 14.1382 42.5289C15.57 41.6018 16.7146 40.2932 17.4433 38.7504C18.1719 37.2076 18.4557 35.492 18.2626 33.7966C18.0695 32.1012 17.4072 30.4934 16.3503 29.1542V28.9988C14.703 27.0397 13.7881 24.5682 13.7626 22.0081C13.628 20.8818 13.7312 19.7399 14.0656 18.6561C14.3999 17.5723 14.9579 16.5708 15.7034 15.7164C16.5592 14.9638 17.5636 14.3997 18.6514 14.0607C19.7392 13.7217 20.886 13.6153 22.0176 13.7486C24.5771 13.7698 27.0487 14.6857 29.0046 16.3378L29.1857 16.4672C30.9817 17.8496 33.2249 18.519 35.4843 18.347C37.7436 18.1749 39.8598 17.1735 41.4259 15.5351C42.669 14.2484 43.5084 12.6257 43.8406 10.8673C44.1728 9.1089 43.9832 7.29165 43.2953 5.63974C42.6074 3.98784 41.4512 2.57357 39.9694 1.57139C38.4876 0.569215 36.7449 0.0229814 34.9565 7.90153e-05C33.0315 -0.00936673 31.1541 0.598607 29.5998 1.73483C29.3782 1.87956 29.1703 2.04422 28.9787 2.22677C27.0381 3.77438 24.6286 4.61452 22.147 4.60881C19.5901 4.49195 17.1318 3.58766 15.1082 2.01963L14.4613 1.70893C12.9418 0.651767 11.1364 0.0827892 9.2857 0.0777542C8.06186 0.0313357 6.84105 0.229539 5.69467 0.660773C4.5483 1.09201 3.49937 1.74762 2.60923 2.58925L2.19518 3.02941L1.83289 3.7026C0.0214411 6.47301 0.583414 5.78334 0.306102 6.96496C0.306102 7.12031 0.122526 7.45687 0.122526 7.76757V8.00063C0.122526 8.33398 -0.00319743 8.7433 0.0214411 9.06216L0.021446 9.347Z" fill="#FF671D"/>
</svg>
