<svg width="203" height="50" viewBox="0 0 203 50" fill="none" xmlns="http://www.w3.org/2000/svg">
<g clip-path="url(#clip0)">
<path d="M3.57635 6.66205C4.18055 6.66205 4.77117 6.48228 5.27354 6.14546C5.77591 5.80865 6.16747 5.32991 6.39868 4.76981C6.6299 4.2097 6.69039 3.59338 6.57252 2.99877C6.45465 2.40416 6.1637 1.85799 5.73647 1.4293C5.30924 1.00061 4.76491 0.708669 4.17232 0.590394C3.57974 0.47212 2.96551 0.532823 2.40731 0.764826C1.8491 0.99683 1.372 1.38972 1.03632 1.8938C0.70065 2.39788 0.521484 2.99052 0.521484 3.59678C0.521484 4.40974 0.843336 5.18941 1.41623 5.76426C1.98913 6.33911 2.76615 6.66205 3.57635 6.66205Z" fill="white"/>
<path d="M28.4172 18.8371C30.0824 18.5649 31.2125 16.9898 30.9413 15.3189C30.6701 13.648 29.1003 12.5141 27.4351 12.7862C25.7698 13.0583 24.6398 14.6335 24.911 16.3044C25.1822 17.9753 26.7519 19.1092 28.4172 18.8371Z" fill="white"/>
<path d="M30.7488 29.2165C31.3991 27.6544 30.6642 25.8591 29.1074 25.2066C27.5506 24.5541 25.7614 25.2915 25.1111 26.8536C24.4608 28.4157 25.1957 30.211 26.7525 30.8635C28.3093 31.516 30.0985 30.7786 30.7488 29.2165Z" fill="white"/>
<path d="M16.2415 31.0565C17.9067 30.7844 19.0368 29.2092 18.7656 27.5383C18.4944 25.8675 16.9246 24.7335 15.2594 25.0056C13.5942 25.2778 12.4641 26.8529 12.7353 28.5238C13.0065 30.1947 14.5763 31.3286 16.2415 31.0565Z" fill="white"/>
<path d="M6.10809 30.568C6.77816 29.895 7.15455 28.9827 7.15455 28.0315C7.15455 27.0802 6.77816 26.1679 6.10809 25.495C5.16458 24.5481 4.63453 23.264 4.63453 21.9251C4.63453 20.5861 5.16458 19.302 6.10809 18.3552C7.05205 17.409 8.33168 16.8777 9.66587 16.8777C11.0001 16.8777 12.2797 17.409 13.2236 18.3552C13.5553 18.6887 13.9494 18.9534 14.3831 19.1339C14.8169 19.3144 15.2819 19.4074 15.7515 19.4074C16.2211 19.4074 16.6861 19.3144 17.1199 19.1339C17.5537 18.9534 17.9477 18.6887 18.2794 18.3552C18.949 17.6814 19.325 16.7688 19.325 15.8173C19.325 14.8659 18.949 13.9532 18.2794 13.2795C17.3374 12.3324 16.8083 11.049 16.8083 9.71087C16.8083 8.3728 17.3374 7.08938 18.2794 6.14232C19.2237 5.1969 20.5032 4.66595 21.8372 4.66595C23.1712 4.66595 24.4507 5.1969 25.395 6.14232C26.0656 6.81467 26.9748 7.19234 27.9228 7.19234C28.8709 7.19234 29.7801 6.81467 30.4507 6.14232C31.3946 5.19706 32.6736 4.66618 34.0072 4.66618C35.3407 4.66618 36.6198 5.19706 37.5636 6.14232C38.2342 6.81467 39.1435 7.19234 40.0915 7.19234C41.0395 7.19234 41.9487 6.81467 42.6194 6.14232C43.2894 5.4694 43.6658 4.55706 43.6658 3.60581C43.6658 2.65456 43.2894 1.74223 42.6194 1.06931C41.9487 0.396961 41.0395 0.0192871 40.0915 0.0192871C39.1435 0.0192871 38.2342 0.396961 37.5636 1.06931C36.6198 2.01456 35.3407 2.54545 34.0072 2.54545C32.6736 2.54545 31.3946 2.01456 30.4507 1.06931C29.7801 0.396961 28.8709 0.0192871 27.9228 0.0192871C26.9748 0.0192871 26.0656 0.396961 25.395 1.06931C24.4505 2.01555 23.1705 2.54702 21.8358 2.54702C20.5012 2.54702 19.2212 2.01555 18.2767 1.06931C17.6061 0.396961 16.6969 0.0192871 15.7489 0.0192871C14.8008 0.0192871 13.8916 0.396961 13.221 1.06931C12.5509 1.74223 12.1745 2.65456 12.1745 3.60581C12.1745 4.55706 12.5509 5.4694 13.221 6.14232C13.6884 6.61073 14.0592 7.16701 14.3122 7.77933C14.5652 8.39165 14.6954 9.04801 14.6954 9.71087C14.6954 10.3738 14.5652 11.0301 14.3122 11.6425C14.0592 12.2548 13.6884 12.8111 13.221 13.2795C12.7541 13.7485 12.1998 14.1206 11.5895 14.3744C10.9793 14.6283 10.3251 14.759 9.66453 14.759C9.00392 14.759 8.34979 14.6283 7.73955 14.3744C7.1293 14.1206 6.57492 13.7485 6.10809 13.2795C5.43746 12.607 4.52822 12.2295 3.58021 12.2295C2.63219 12.2295 1.72295 12.607 1.05232 13.2795C0.38225 13.9524 0.00585938 14.8647 0.00585938 15.816C0.00585937 16.7672 0.38225 17.6796 1.05232 18.3525C1.99616 19.3002 2.52635 20.5852 2.52635 21.9251C2.52635 23.2649 1.99616 24.5499 1.05232 25.4976C0.38225 26.1706 0.00585937 27.0829 0.00585938 28.0342C0.00585937 28.9854 0.38225 29.8976 1.05232 30.5707C1.72295 31.243 2.63219 31.6207 3.58021 31.6207C4.52822 31.6207 5.43746 31.243 6.10809 30.5707V30.568Z" fill="#E66728"/>
<path d="M40.0998 18.8777C41.7869 18.8777 43.1547 17.5053 43.1547 15.8124C43.1547 14.1195 41.7869 12.7471 40.0998 12.7471C38.4126 12.7471 37.0449 14.1195 37.0449 15.8124C37.0449 17.5053 38.4126 18.8777 40.0998 18.8777Z" fill="white"/>
<path d="M42.6296 25.4914C41.9589 24.8191 41.0497 24.4414 40.1017 24.4414C39.1537 24.4414 38.2444 24.8191 37.5738 25.4914C36.9037 26.1643 36.5273 27.0767 36.5273 28.0279C36.5273 28.9792 36.9037 29.8915 37.5738 30.5644C38.2444 31.2368 39.1537 31.6144 40.1017 31.6144C41.0497 31.6144 41.9589 31.2368 42.6296 30.5644C43.2996 29.8915 43.676 28.9792 43.676 28.0279C43.676 27.0767 43.2996 26.1643 42.6296 25.4914Z" fill="#E66728"/>
<path d="M1.05756 43.6092V45.8477H4.06963V46.7281H1.04686V49.9062H-0.00976562V42.7395H4.73839V43.6199L1.05756 43.6092Z" fill="white"/>
<path d="M11.7243 49.9062H10.6543V42.7395H11.7243V49.9062Z" fill="white"/>
<path d="M24.4932 49.9062H23.2146L19.3786 44.1916V49.9062H18.3086V42.7395H19.5846L23.4286 48.4514V42.7395H24.4986L24.4932 49.9062Z" fill="white"/>
<path d="M35.4183 43.6092H33.2061V49.9062H32.1361V43.6092H29.9238V42.7395H35.4076L35.4183 43.6092Z" fill="white"/>
<path d="M45.7982 49.0258V49.9062H40.8574V42.7395H45.6163V43.6199H41.9167V45.7431H44.9395V46.6342H41.9167V49.0365L45.7982 49.0258Z" fill="white"/>
<path d="M57.6112 48.9131C57.2729 49.2727 56.8624 49.5561 56.4067 49.7444C55.9511 49.9327 55.4608 50.0218 54.9682 50.0056C53.9956 50.0056 53.0627 49.6179 52.375 48.9277C51.6872 48.2376 51.3008 47.3016 51.3008 46.3256C51.3008 45.3496 51.6872 44.4136 52.375 43.7235C53.0627 43.0334 53.9956 42.6457 54.9682 42.6457C55.4627 42.6293 55.9549 42.7191 56.4121 42.9088C56.8692 43.0986 57.2808 43.3841 57.6192 43.7462L56.9237 44.444C56.695 44.1449 56.3979 43.9054 56.0576 43.7456C55.7173 43.5859 55.3436 43.5106 54.9682 43.5261C53.4889 43.5261 52.3949 44.8467 52.3949 46.3202C52.3949 47.6623 53.3846 49.1225 54.9682 49.1225C55.6557 49.1225 56.5331 48.8541 56.913 48.2152L57.6112 48.9131Z" fill="white"/>
<path d="M68.9281 42.7395V49.9062H67.8581V46.7657H64.5036V49.9062H63.4336V42.7395H64.5036V45.888H67.8688V42.7395H68.9281Z" fill="white"/>
<path d="M91.0072 49.0258V49.9062H86.0664V42.7395H90.8253V43.6199H87.1257V45.7431H90.1485V46.6342H87.1257V49.0365L91.0072 49.0258Z" fill="white"/>
<path d="M103.2 49.9062H101.921L98.0876 44.1916V49.9062H97.0176V42.7395H98.2962L102.138 48.4514V42.7395H103.208L103.2 49.9062Z" fill="white"/>
<path d="M116.292 45.8852V49.9114H115.222V48.9935C114.883 49.3286 114.48 49.5913 114.038 49.7656C113.595 49.94 113.121 50.0225 112.646 50.0081C111.673 50.0081 110.74 49.6204 110.053 48.9302C109.365 48.2401 108.979 47.3041 108.979 46.3281C108.979 45.3521 109.365 44.4161 110.053 43.726C110.74 43.0359 111.673 42.6482 112.646 42.6482C113.141 42.6305 113.633 42.7195 114.091 42.9094C114.548 43.0993 114.959 43.3855 115.297 43.7487L114.601 44.4466C114.365 44.156 114.067 43.9226 113.728 43.7636C113.39 43.6047 113.02 43.5244 112.646 43.5286C111.111 43.5286 110.081 44.7633 110.081 46.3228C110.081 47.6648 111.065 49.125 112.646 49.125C112.982 49.1412 113.317 49.0837 113.628 48.9567C113.94 48.8297 114.22 48.6362 114.449 48.3895C114.851 47.9389 115.11 47.3782 115.193 46.7791H113.371V45.8987L116.292 45.8852Z" fill="white"/>
<path d="M123.457 49.9062H122.4V42.7395H123.457V49.9062Z" fill="white"/>
<path d="M136.215 49.9062H134.937L131.103 44.1916V49.9062H130.033V42.7395H131.312L135.156 48.4514V42.7395H136.226L136.215 49.9062Z" fill="white"/>
<path d="M147.466 49.0258V49.9062H142.525V42.7395H147.284V43.6199H143.585V45.7431H146.607V46.6342H143.585V49.0365L147.466 49.0258Z" fill="white"/>
<path d="M158.324 49.0258V49.9062H153.383V42.7395H158.15V43.6199H154.442V45.7431H157.465V46.6342H154.442V49.0365L158.324 49.0258Z" fill="white"/>
<path d="M167.914 47.6273L169.449 49.9062H168.278L166.876 47.8206H165.207V49.9062H164.137V42.7395H166.911C167.494 42.7448 168.058 42.9509 168.508 43.3234C168.958 43.6958 169.267 44.212 169.383 44.7857C169.499 45.3593 169.416 45.9556 169.146 46.4748C168.877 46.994 168.438 47.4046 167.903 47.6381L167.914 47.6273ZM165.207 46.9402H166.913C167.716 46.9402 168.39 46.2504 168.39 45.2733C168.39 44.2963 167.724 43.6092 166.913 43.6092H165.207V46.9402Z" fill="white"/>
<path d="M176.521 49.9062H175.451V42.7395H176.521V49.9062Z" fill="white"/>
<path d="M189.287 49.9062H188.011L184.175 44.1916V49.9062H183.105V42.7395H184.384L188.225 48.4514V42.7395H189.295L189.287 49.9062Z" fill="white"/>
<path d="M202.377 45.8854V49.9116H201.307V48.9936C200.969 49.3285 200.566 49.5911 200.124 49.7655C199.682 49.9399 199.209 50.0224 198.734 50.0082C197.761 50.0082 196.828 49.6205 196.141 48.9304C195.453 48.2403 195.066 47.3043 195.066 46.3283C195.066 45.3523 195.453 44.4163 196.141 43.7262C196.828 43.0361 197.761 42.6484 198.734 42.6484C199.228 42.632 199.721 42.7217 200.178 42.9115C200.635 43.1013 201.046 43.3868 201.385 43.7488L200.687 44.4467C200.451 44.1564 200.153 43.923 199.815 43.7641C199.477 43.6052 199.107 43.5248 198.734 43.5287C197.198 43.5287 196.169 44.7634 196.169 46.3229C196.169 47.665 197.15 49.1252 198.734 49.1252C199.069 49.1411 199.404 49.0836 199.715 48.9566C200.026 48.8296 200.305 48.6361 200.534 48.3897C200.937 47.9393 201.197 47.3786 201.281 46.7792H199.459V45.8988L202.377 45.8854Z" fill="white"/>
<path d="M181.957 0.0026847C180.613 0.0217294 179.329 0.571105 178.385 1.532C177.441 2.49289 176.912 3.78807 176.912 5.13743V5.55078H186.885V31.6191H192.414V5.55078H202.386V0L181.957 0.0026847Z" fill="white"/>
<path d="M135.097 0.00536107C134.026 0.00511423 132.982 0.341579 132.111 0.967464C131.241 1.59335 130.588 2.47718 130.244 3.49473L121.104 31.6191H126.922L130.132 21.771H137.13L135.348 16.2202H131.935L135.11 6.45533L140.027 21.7549L141.808 27.3057L143.194 31.6003H149.004L138.839 -0.0134277L135.097 0.00536107Z" fill="white"/>
<path d="M85.2762 21.8464L71.8343 0.00561594H70.9435C70.2714 0.00526313 69.6058 0.137836 68.9848 0.395756C68.3637 0.653676 67.7995 1.03189 67.3242 1.50876C66.849 1.98564 66.472 2.55183 66.215 3.17496C65.9579 3.7981 65.8258 4.46596 65.8262 5.14036V31.6193H71.3554V9.77854L84.8001 31.6193H90.8162V0.00561594H85.2762V21.8464Z" fill="white"/>
<path d="M54.7578 5.14036V31.6193H60.2871V0.00561594H59.8751C59.203 0.00526313 58.5374 0.137836 57.9164 0.395756C57.2954 0.653676 56.7311 1.03189 56.2559 1.50876C55.7806 1.98564 55.4037 2.55183 55.1466 3.17496C54.8896 3.7981 54.7575 4.46596 54.7578 5.14036Z" fill="white"/>
<path d="M119.705 9.72461C119.662 8.34417 119.345 6.98626 118.771 5.73063C118.217 4.53777 117.404 3.48479 116.391 2.64924C115.302 1.76597 114.055 1.09913 112.718 0.684461C111.159 0.203079 109.534 -0.0296953 107.903 -0.0053603C106.282 -0.0389976 104.666 0.194028 103.12 0.684461C101.877 1.08704 100.721 1.72482 99.7172 2.56335C98.8234 3.31666 98.121 4.2726 97.6682 5.35217C97.2203 6.44238 96.9938 7.61135 97.0021 8.79054C97.0021 10.401 97.2544 11.7252 97.7591 12.7631C98.2946 13.8438 99.1082 14.7612 100.116 15.4204C101.372 16.2352 102.745 16.8525 104.187 17.2509C105.835 17.743 107.785 18.2271 110.037 18.7031C110.828 18.8641 111.602 19.0959 112.351 19.3956C112.867 19.5983 113.342 19.893 113.753 20.2652C114.076 20.562 114.315 20.9401 114.443 21.3603C114.565 21.7879 114.626 22.2308 114.622 22.6756C114.637 23.2485 114.505 23.8155 114.24 24.3232C113.975 24.8309 113.586 25.2625 113.108 25.5771C112.101 26.2929 110.618 26.6508 108.66 26.6508C106.85 26.6508 105.344 26.2124 104.142 25.3355C103.566 24.9322 103.097 24.3941 102.775 23.7678C102.454 23.1415 102.289 22.446 102.296 21.7415H96.3574C96.4787 25.0161 97.6209 27.4864 99.7841 29.1524C101.687 30.6143 104.411 31.4348 107.956 31.6137H110.61C111.691 31.5429 112.761 31.3538 113.801 31.0501C115.077 30.6901 116.278 30.1037 117.348 29.3188C118.344 28.5769 119.166 27.6249 119.756 26.53C120.366 25.3601 120.672 24.0547 120.647 22.7346C120.668 21.7111 120.548 20.6896 120.291 19.6989C120.086 18.9374 119.764 18.2129 119.336 17.5516C118.943 16.9663 118.445 16.4593 117.867 16.0565C117.289 15.6558 116.669 15.3192 116.019 15.0526C114.777 14.5147 113.499 14.0662 112.194 13.7106C110.801 13.3241 109.155 12.9071 107.255 12.4598C105.65 12.0732 104.486 11.5892 103.762 11.0076C103.422 10.7595 103.146 10.434 102.956 10.0578C102.767 9.68171 102.669 9.26577 102.67 8.84422C102.67 6.43029 104.421 5.22422 107.922 5.22601C109.821 5.22601 111.247 5.59821 112.202 6.34261C112.55 6.62926 112.847 6.97434 113.079 7.36258C113.541 8.09183 114.181 8.69119 114.938 9.10436C115.694 9.51754 116.543 9.73097 117.404 9.72461H119.705Z" fill="white"/>
<path d="M157.473 31.6193H151.941V5.14036C151.941 4.46583 152.074 3.79791 152.331 3.17476C152.589 2.55161 152.966 1.98544 153.441 1.5086C153.917 1.03176 154.481 0.653592 155.102 0.395705C155.723 0.137817 156.389 0.00526333 157.061 0.00561594H164.367C166.568 0.0153633 168.713 0.697652 170.518 1.96162C172.323 3.22559 173.701 5.01125 174.469 7.08081C175.237 9.15037 175.359 11.4056 174.818 13.5462C174.276 15.6868 173.098 17.6111 171.44 19.0629L175.69 31.6327H169.848L166.443 21.5538C165.733 21.6972 165.011 21.77 164.287 21.7712H160.234V16.2204H164.303C165.011 16.2364 165.715 16.1102 166.374 15.8492C167.033 15.5883 167.633 15.1979 168.14 14.701C168.646 14.204 169.049 13.6105 169.324 12.9554C169.598 12.3002 169.74 11.5965 169.74 10.8857C169.74 10.1749 169.598 9.47129 169.324 8.81612C169.049 8.16095 168.646 7.56746 168.14 7.07051C167.633 6.57356 167.033 6.18315 166.374 5.92222C165.715 5.66129 165.011 5.53509 164.303 5.55103H157.473V31.6193Z" fill="white"/>
</g>
<defs>
<clipPath id="clip0">
<rect width="203" height="50" fill="white"/>
</clipPath>
</defs>
</svg>
