<?xml version="1.0" encoding="utf-8"?>
<svg width="705" height="700" viewBox="0 0 705 700" fill="none" xmlns="http://www.w3.org/2000/svg">
<mask id="mask0" mask-type="alpha" maskUnits="userSpaceOnUse" x="0" y="0" width="705" height="700">
<rect width="705" height="700" fill="#C4C4C4"/>
</mask>
<g mask="url(#mask0)">
<path d="M673.284 317.367C641.344 368.997 578.923 390.014 582.323 434.962C583.416 449.662 601.026 472.743 610.984 483.191C647.781 521.336 638.308 576.489 616.449 597.506C597.139 616.092 562.164 622.288 535.568 618.401C503.507 613.663 471.447 603.823 438.779 604.795C403.317 605.888 386.923 622.653 357.048 638.081C297.055 669.059 219.697 675.254 160.433 640.632C105.784 608.682 66.6793 555.108 40.3264 497.526C11.7874 435.205 -3.27144 363.774 14.9449 297.687C33.1613 231.601 82.2239 170.495 148.289 152.273C202.452 137.331 180.228 95.2978 218.361 47.1908C289.647 -42.8276 443.029 16.4558 521.602 40.1449C551.841 49.256 599.325 79.5051 617.906 94.083C674.862 138.424 723.439 236.46 673.284 317.367Z" fill="#FFEEE7"/>
<path d="M370.528 265.13C370.528 265.13 370.042 252.86 373.928 227.835C374.171 226.499 369.435 228.321 368.463 229.293C359.598 238.768 357.169 273.269 357.776 286.147C358.505 298.902 365.427 330.609 365.427 330.609H387.044C387.044 330.609 395.302 298.295 395.545 287.361C395.666 281.773 393.116 270.597 387.773 266.588C383.036 263.065 367.006 263.794 367.006 263.794C367.006 263.794 357.776 281.53 357.776 286.147" fill="#F5C7B0"/>
<path d="M370.528 265.13C370.528 265.13 370.042 252.86 373.928 227.835C374.171 226.499 369.435 228.321 368.463 229.293C359.598 238.768 357.169 273.269 357.776 286.147C358.505 298.902 365.427 330.609 365.427 330.609H387.044C387.044 330.609 395.302 298.295 395.545 287.361C395.666 281.773 393.116 270.597 387.773 266.588C383.036 263.065 367.006 263.794 367.006 263.794C367.006 263.794 357.776 281.53 357.776 286.147" fill="url(#paint0_linear)"/>
<path d="M230.869 291.249C230.626 293.071 226.619 331.095 226.012 360.251C225.647 374.586 239.978 388.192 254.308 388.435C254.551 388.435 254.672 388.435 254.915 388.435C268.881 388.435 285.397 375.679 284.183 361.709C281.997 336.319 283.575 310.322 283.697 309.836L230.869 291.249Z" fill="#F5C7B0"/>
<path d="M230.869 291.249C230.626 293.071 226.619 331.095 226.012 360.251C225.647 374.586 239.978 388.192 254.308 388.435C254.551 388.435 254.672 388.435 254.915 388.435C268.881 388.435 285.397 375.679 284.183 361.709C281.997 336.319 283.575 310.322 283.697 309.836L230.869 291.249Z" fill="url(#paint1_linear)"/>
<path d="M299.241 269.99C310.9 275.456 316 275.578 320.251 261C323.53 249.702 329.116 209.977 310.9 207.305C292.805 204.632 278.596 204.146 280.661 228.564C282.847 253.104 285.397 263.429 299.241 269.99Z" fill="#202020"/>
<path d="M318.308 253.103C318.308 254.561 318.308 256.019 318.308 257.477C318.308 258.084 318.308 258.692 318.308 259.299C318.308 261.729 318.187 264.037 318.065 266.223C318.065 266.345 318.065 266.466 318.065 266.588C317.944 268.046 317.944 269.382 317.822 270.84C317.701 273.148 317.458 275.335 317.215 277.521C317.215 277.764 317.215 278.007 317.094 278.25C316.972 278.979 316.972 279.829 316.851 280.558L316.729 282.016C315.758 290.763 314.3 298.052 313.086 303.276C312.965 303.761 312.843 304.247 312.722 304.612C311.872 307.892 310.414 311.415 308.593 314.938C308.471 315.181 308.35 315.424 308.228 315.667C305.557 320.526 302.035 325.142 297.784 328.787C297.42 329.03 297.177 329.273 296.813 329.516L296.691 329.637C296.448 329.88 296.206 330.002 295.963 330.245C295.72 330.366 295.598 330.488 295.355 330.731C294.991 330.974 294.505 331.338 294.141 331.581C293.534 331.945 292.805 332.431 292.198 332.796C291.834 332.917 291.591 333.16 291.226 333.282C289.526 334.132 287.705 334.861 285.883 335.225C285.154 335.468 284.426 335.59 283.697 335.711C283.333 335.711 283.09 335.833 282.725 335.833C281.875 335.954 281.147 335.954 280.297 335.954C264.873 335.954 244.593 329.88 230.384 316.517C228.076 314.33 226.133 312.387 224.433 310.443C218.604 303.64 216.175 297.08 214.475 285.418C214.475 285.296 214.475 285.296 214.475 285.175C214.475 285.053 214.475 284.932 214.353 284.689C213.868 281.53 213.503 278.007 213.018 274.12C213.018 273.998 213.018 273.998 213.018 273.877V273.755C212.653 270.718 212.289 267.317 211.925 263.551C211.682 260.878 211.439 258.206 211.317 255.776C211.803 254.197 212.41 252.617 212.775 250.917C213.625 247.029 213.139 242.899 213.26 238.89C213.382 234.881 214.232 230.629 217.025 227.714C219.94 224.676 224.433 223.948 228.198 222.004C232.691 219.696 236.213 215.808 240.099 212.528C250.908 203.296 265.116 198.315 279.204 198.558C287.34 198.801 295.477 200.623 303.249 203.053C303.492 203.174 303.735 203.174 303.856 203.296C305.921 203.903 307.985 204.632 310.05 205.604C311.993 208.398 313.45 211.313 314.543 214.229C314.665 214.715 314.908 215.079 315.029 215.565C315.029 215.565 315.029 215.565 315.029 215.687C315.272 216.416 315.515 217.145 315.758 217.873C316.122 219.088 316.365 220.303 316.486 221.518C316.729 222.976 316.851 224.555 316.972 226.013C317.094 227.349 317.215 228.564 317.337 229.9V230.022C317.458 231.115 317.579 232.208 317.579 233.302C317.944 237.554 318.065 241.563 318.187 245.693C318.187 247.394 318.308 249.094 318.308 250.674C318.308 251.524 318.308 252.374 318.308 253.103Z" fill="#F5C7B0"/>
<path d="M318.186 245.693C308.835 239.254 291.59 234.76 285.154 234.274C278.718 233.788 272.16 232.087 265.845 233.545C259.651 235.003 254.429 239.862 252.365 245.936C248.964 255.897 254.308 266.709 260.866 274.849C264.144 278.858 269.731 284.081 270.581 289.184C271.795 297.323 266.209 306.313 260.623 311.05C255.886 315.059 247.264 319.19 242.042 319.19C237.427 319.19 228.926 315.424 224.19 310.443C218.361 303.64 215.932 297.08 214.232 285.418C214.232 285.296 214.232 285.296 214.232 285.175C214.232 285.053 214.232 284.932 214.11 284.689C213.625 281.53 213.26 278.007 212.774 274.12C212.774 273.998 212.774 273.998 212.774 273.877V273.755C212.41 270.718 212.046 267.317 211.681 263.551C211.439 260.878 211.196 258.206 211.074 255.776C211.56 254.197 212.167 252.617 212.532 250.917C213.382 247.029 212.896 242.899 213.017 238.89C213.139 234.881 213.989 230.629 216.782 227.714C219.697 224.677 224.19 223.948 227.955 222.004C232.448 219.696 235.97 215.808 239.856 212.528C250.664 203.296 264.873 198.315 278.96 198.558C287.097 198.801 295.234 200.623 303.006 203.053C303.249 203.174 303.492 203.174 303.613 203.296C303.978 207.426 311.75 208.641 314.3 214.108C314.422 214.472 314.664 214.836 314.786 215.322V215.444C314.786 215.444 314.786 215.444 314.786 215.565C314.907 216.173 315.15 216.902 315.515 217.752C315.879 218.967 316.122 220.182 316.243 221.396C316.486 222.854 316.608 224.434 316.729 225.891C316.85 227.228 316.972 228.442 317.093 229.779V229.9C317.215 230.994 317.336 232.087 317.336 233.18C317.822 237.554 318.065 241.684 318.186 245.693Z" fill="url(#paint2_linear)"/>
<path d="M427.241 490.966C419.105 476.267 401.374 442.495 363.12 385.884C341.746 354.177 320.979 351.261 302.034 355.878C287.34 359.401 276.896 377.259 287.947 397.546C294.14 408.966 302.277 425.123 327.173 459.016C367.856 514.412 389.958 532.149 400.767 538.466C413.64 545.876 443.636 520.851 427.241 490.966Z" fill="#F1A557"/>
<path d="M427.241 490.966C419.105 476.267 401.374 442.495 363.12 385.884C341.746 354.177 320.979 351.261 302.034 355.878C287.34 359.401 276.896 377.259 287.947 397.546C294.14 408.966 302.277 425.123 327.173 459.016C367.856 514.412 389.958 532.149 400.767 538.466C413.64 545.876 443.636 520.851 427.241 490.966Z" fill="#D89150"/>
<path d="M160.068 449.662C186.178 535.429 197.837 639.296 192.736 699.187H388.987C388.987 699.187 387.894 515.263 374.657 414.554C371.621 391.108 358.141 370.091 333.245 356.85C318.429 348.953 291.833 345.309 280.903 345.309H244.592C232.448 345.309 189.943 351.383 178.528 356.242C146.467 369.97 144.888 399.976 160.068 449.662Z" fill="#F1A557"/>
<path d="M388.016 328.301C391.902 343.851 427.97 481.004 433.192 506.759C439.386 537.251 393.966 552.679 384.615 531.662C374.414 508.945 371.499 461.203 364.577 410.909C360.813 383.09 361.298 360.737 364.213 325.507C364.699 321.012 386.558 322.227 388.016 328.301Z" fill="#F1A557"/>
<path d="M388.016 328.301C391.902 343.851 427.97 481.004 433.192 506.759C439.386 537.251 393.966 552.679 384.615 531.662C374.414 508.945 371.499 461.203 364.577 410.909C360.813 383.09 361.298 360.737 364.213 325.507C364.699 321.012 386.558 322.227 388.016 328.301Z" fill="url(#paint3_linear)"/>
<path d="M211.681 258.692C220.425 267.438 225.04 269.139 233.662 257.355C240.342 248.244 258.315 214.108 242.771 205.847C227.226 197.586 214.596 192.362 208.524 215.201C202.33 238.04 201.237 248.244 211.681 258.692Z" fill="#202020"/>
<path d="M221.275 264.158C225.89 275.456 224.797 286.511 218.968 288.819C213.139 291.249 204.638 284.081 200.023 272.783C195.408 261.486 196.501 250.431 202.33 248.122C208.159 245.693 216.66 252.86 221.275 264.158Z" fill="#F5C7B0"/>
<path d="M215.446 265.13C207.795 284.446 222.004 282.745 218.118 284.324C213.746 286.146 207.552 280.801 204.152 272.54C200.752 264.28 201.48 256.019 205.852 254.318C210.224 252.496 216.539 262.457 215.446 265.13Z" fill="#E99B8D"/>
<path d="M221.275 264.158C225.89 275.456 224.797 286.511 218.968 288.819C213.139 291.249 204.638 284.081 200.023 272.783C195.408 261.486 196.501 250.431 202.33 248.122C208.159 245.693 216.66 252.86 221.275 264.158Z" fill="url(#paint4_linear)"/>
<path d="M256.251 535.307C249.329 520 240.463 468.006 223.704 401.798C220.668 390.014 203.059 360.129 177.192 365.11C165.291 367.418 147.56 381.389 151.932 403.984C154.361 416.74 157.275 434.598 170.634 474.444C192.615 539.559 208.524 568.714 219.818 574.181C232.084 580.134 266.331 557.66 256.251 535.307Z" fill="#DD924E"/>
<path d="M284.304 267.195C282.482 273.148 286.125 278.372 280.66 291.978C280.296 292.949 288.311 295.136 290.862 295.258C291.59 295.258 292.44 295.379 293.048 295.015C294.626 294.286 294.505 292.099 294.141 290.52C291.226 277.4 292.076 279.708 289.283 264.523C289.161 263.794 289.283 262.943 288.676 262.336C286.004 259.299 284.79 265.373 284.304 267.195Z" fill="#E99B8D"/>
<path d="M276.532 238.404C276.289 238.161 275.803 237.918 275.439 238.04C274.831 238.161 268.881 240.955 268.638 240.712C268.395 240.469 267.909 240.469 267.545 240.469C262.201 240.955 259.894 243.02 255.765 246.422C254.186 247.758 252.729 250.674 253.215 252.618C254.672 250.674 256.615 248.973 258.922 247.88C265.359 244.964 269.124 248.609 274.831 250.188C277.867 251.038 277.625 249.823 277.867 246.786C278.11 244.235 278.839 240.469 276.532 238.404Z" fill="#202020"/>
<path d="M300.82 239.862C301.184 239.74 301.549 239.619 301.913 239.74C302.399 239.983 306.771 243.871 307.135 243.749C307.499 243.628 307.742 243.628 308.106 243.749C312.6 245.45 314.057 247.758 316.607 251.888C317.579 253.468 317.943 256.505 316.972 258.206C316.243 256.019 315.15 253.954 313.45 252.496C308.714 248.365 304.342 251.038 298.877 251.16C295.962 251.281 296.569 250.188 297.177 247.272C297.662 244.843 298.148 241.198 300.82 239.862Z" fill="#202020"/>
<path d="M294.262 310.322C287.704 313.723 279.082 312.63 273.496 307.771" stroke="#E99B8D" stroke-miterlimit="10" stroke-linecap="round" stroke-linejoin="round"/>
<path d="M264.509 263.672C264.266 266.831 265.237 269.382 266.573 269.504C268.03 269.625 269.366 267.195 269.609 264.158C269.852 261 268.88 258.449 267.545 258.327C266.209 258.084 264.751 260.514 264.509 263.672Z" fill="#202020"/>
<path d="M302.277 265.495C302.034 268.653 303.006 271.205 304.342 271.326C305.799 271.448 307.135 269.018 307.378 265.981C307.621 262.822 306.649 260.271 305.313 260.15C303.856 260.028 302.52 262.458 302.277 265.495Z" fill="#202020"/>
<path d="M318.672 212.164C316 218.116 294.262 220.303 294.262 220.303C290.011 219.21 282.846 217.995 274.588 216.537C271.309 215.93 267.909 215.322 264.387 214.715C247.142 211.556 228.44 207.79 222.246 203.66C215.446 199.044 215.081 191.512 221.639 184.587C225.525 180.578 231.84 176.812 240.584 174.14C252.607 170.738 263.658 169.888 273.617 170.495C273.981 170.495 274.345 170.495 274.588 170.617C300.82 172.439 318.307 184.466 320.007 185.681C320.129 185.802 320.129 185.802 320.129 185.802C318.672 198.193 321.465 205.968 318.672 212.164Z" fill="#202020"/>
<path d="M317.7 270.961C317.579 273.269 317.336 275.456 317.093 277.643C317.093 277.886 317.093 278.129 316.972 278.372C316.85 279.101 316.85 279.951 316.729 280.68L316.607 282.138C315.636 290.884 314.178 298.173 312.964 303.397C312.843 303.883 312.721 304.369 312.6 304.733C311.75 308.013 310.292 311.536 308.471 315.059C308.349 315.302 308.228 315.545 308.106 315.788C305.435 320.647 301.913 325.264 297.662 328.908C297.298 329.151 297.055 329.394 296.691 329.637L296.569 329.759C297.541 329.151 298.148 325.871 298.634 324.778C300.091 321.984 302.399 319.311 303.006 316.274C303.492 313.723 303.006 311.05 302.156 308.621C300.577 303.761 297.662 299.024 298.634 293.678C299.484 289.062 303.734 285.904 307.135 282.745C309.685 280.437 311.871 277.886 314.178 275.456C315.393 274.12 316.729 272.662 317.7 270.961Z" fill="url(#paint5_linear)"/>
<path d="M401.495 526.439C462.06 526.439 511.158 477.325 511.158 416.74C511.158 356.155 462.06 307.042 401.495 307.042C340.93 307.042 291.833 356.155 291.833 416.74C291.833 477.325 340.93 526.439 401.495 526.439Z" fill="url(#paint6_linear)"/>
<g opacity="0.8">
<g opacity="0.8">
<g opacity="0.8">
<path opacity="0.8" d="M325.837 453.307H322.315L359.841 377.016L401.01 387.099L445.7 349.682L469.503 300.36V305.706L448.008 351.504L402.345 390.986L361.055 380.782L325.837 453.307Z" fill="#9DCAF3"/>
</g>
</g>
<g opacity="0.8">
<path opacity="0.8" d="M364.82 379.081C364.82 381.51 362.877 383.576 360.327 383.576C357.898 383.576 355.833 381.632 355.833 379.081C355.833 376.651 357.777 374.586 360.327 374.586C362.877 374.586 364.82 376.53 364.82 379.081Z" fill="#FF4D00"/>
<path opacity="0.8" d="M405.503 388.678C405.503 391.107 403.56 392.93 401.253 392.93C398.946 392.93 397.002 390.986 397.002 388.678C397.002 386.37 398.946 384.426 401.253 384.426C403.682 384.304 405.503 386.248 405.503 388.678Z" fill="#FF4D00"/>
<path opacity="0.8" d="M450.923 350.654C450.923 352.962 449.102 354.784 446.794 354.784C444.487 354.784 442.665 352.962 442.665 350.654C442.665 348.346 444.487 346.523 446.794 346.523C448.98 346.523 450.923 348.346 450.923 350.654Z" fill="#FF4D00"/>
</g>
</g>
<path d="M351.947 420.749H343.932V453.307H351.947V420.749Z" fill="#FF4D00"/>
<path d="M377.086 394.752H369.071V453.549H377.086V394.752Z" fill="#FF4D00"/>
<path d="M400.281 404.106H392.266V453.549H400.281V404.106Z" fill="#FF4D00"/>
<path d="M423.355 394.752H415.34V453.549H423.355V394.752Z" fill="#FF4D00"/>
<path d="M446.43 366.69H438.415V453.55H446.43V366.69Z" fill="#FF4D00"/>
<path d="M469.625 329.88H461.61V453.549H469.625V329.88Z" fill="#FF4D00"/>
<path d="M405.867 525.588C459.457 525.588 502.9 482.131 502.9 428.524C502.9 374.917 459.457 331.46 405.867 331.46C352.278 331.46 308.835 374.917 308.835 428.524C308.835 482.131 352.278 525.588 405.867 525.588Z" fill="url(#paint7_linear)"/>
<path d="M409.875 517.085C456.892 517.085 495.006 478.958 495.006 431.926C495.006 384.894 456.892 346.767 409.875 346.767C362.859 346.767 324.744 384.894 324.744 431.926C324.744 478.958 362.859 517.085 409.875 517.085Z" fill="url(#paint8_linear)"/>
<path d="M412.061 508.824C455.59 508.824 490.877 473.525 490.877 429.982C490.877 386.439 455.59 351.14 412.061 351.14C368.532 351.14 333.245 386.439 333.245 429.982C333.245 473.525 368.532 508.824 412.061 508.824Z" fill="url(#paint9_linear)"/>
<path d="M380.365 540.773C380.365 540.773 377.693 544.539 384.494 547.333C391.295 550.127 430.642 540.652 434.892 537.493C440.6 533.12 468.653 510.645 465.617 507.487C462.581 504.328 443.636 504.814 436.592 509.917C434.164 511.617 419.348 515.505 412.911 516.112C406.475 516.72 392.145 518.177 386.801 521.457C381.458 524.737 378.665 529.597 378.665 531.662C378.786 533.606 380.365 540.773 380.365 540.773Z" fill="#F5C7B0"/>
<path d="M376.6 526.924C360.812 529.475 267.059 512.468 241.07 516.477C210.345 521.215 198.079 566.892 219.939 574.059C241.677 581.105 269.487 578.919 322.558 566.528C359.355 557.902 372.956 556.566 384.615 545.511C394.087 536.521 387.044 525.224 376.6 526.924Z" fill="#DD924E"/>
<path d="M380.365 540.773C380.365 540.773 377.693 544.539 384.494 547.333C391.295 550.127 430.642 540.652 434.892 537.493C440.6 533.12 468.653 510.645 465.617 507.487C462.581 504.328 443.636 504.814 436.592 509.917C434.164 511.617 419.348 515.505 412.911 516.112C406.475 516.72 392.145 518.177 386.801 521.457C381.458 524.737 378.665 529.597 378.665 531.662C378.786 533.606 380.365 540.773 380.365 540.773Z" fill="url(#paint10_linear)"/>
<path d="M411.333 198.437H383.28C381.094 198.437 379.394 200.259 379.394 202.567C379.394 204.875 381.216 206.697 383.28 206.697H411.333C413.519 206.697 415.219 204.875 415.219 202.567C415.219 200.38 413.519 198.437 411.333 198.437Z" fill="#9DCAF3"/>
<path d="M406.475 211.678H388.137C385.951 211.678 384.251 213.5 384.251 215.808C384.251 218.117 385.951 219.939 388.137 219.939H406.475C408.661 219.939 410.361 218.117 410.361 215.808C410.361 213.622 408.661 211.678 406.475 211.678Z" fill="#9DCAF3"/>
<path d="M397.367 88.8594C374.172 88.8594 355.47 106.353 355.47 131.621C355.47 146.078 364.821 158.712 364.821 158.712C368.343 163.45 375.386 172.318 375.386 178.513V182.036C375.386 188.11 375.872 193.213 381.458 193.213H412.548C418.134 193.213 418.62 188.232 418.62 182.036V179.121C418.62 173.047 425.785 164.178 429.307 159.441C429.307 159.441 439.265 146.442 439.265 131.621C439.265 106.353 420.441 88.8594 397.367 88.8594Z" fill="#FFC550"/>
<path d="M397.367 88.8594C374.172 88.8594 355.47 106.353 355.47 131.621C355.47 146.078 364.821 158.712 364.821 158.712C368.343 163.45 375.386 172.318 375.386 178.513V182.036C375.386 188.11 375.872 193.213 381.458 193.213H412.548C418.134 193.213 418.62 188.232 418.62 182.036V179.121C418.62 173.047 425.785 164.178 429.307 159.441C429.307 159.441 439.265 146.442 439.265 131.621C439.265 106.353 420.441 88.8594 397.367 88.8594Z" fill="url(#paint11_linear)"/>
<path d="M410.118 124.818C405.139 127.855 405.382 135.873 405.503 140.975C405.503 141.947 405.503 143.04 405.625 144.012C400.767 146.563 396.274 146.685 390.809 145.227H390.687C390.687 143.891 390.687 142.554 390.809 141.218C390.93 137.331 390.566 132.836 388.38 129.556C387.165 127.612 382.672 125.547 380.243 126.397C373.442 128.705 377.571 137.695 380.608 141.461C382.551 143.891 385.344 145.713 388.38 146.928C388.38 153.609 387.894 171.71 388.015 178.392H390.444C390.809 171.953 390.687 154.095 390.687 147.657C395.059 148.871 399.917 148.75 403.803 147.292C404.41 147.049 405.139 146.806 405.746 146.442C405.989 150.937 406.232 155.31 406.475 159.805C406.596 162.113 406.596 175.962 406.718 178.27H409.268C409.146 176.569 409.025 163.571 408.904 161.87C408.661 156.282 408.296 150.694 408.053 145.227C412.547 142.797 416.797 139.031 418.133 134.172C419.105 130.528 414.611 122.145 410.118 124.818ZM380.122 137.331C377.693 133.443 377.329 128.584 382.429 129.07C386.315 129.434 387.651 134.415 387.894 137.574C388.016 139.76 388.137 142.068 388.137 144.255C384.858 142.797 382.065 140.368 380.122 137.331ZM407.811 142.676C407.811 142.068 407.811 141.582 407.811 140.975C407.811 138.788 408.053 123.482 413.761 127.976C419.955 133.079 412.547 139.517 407.811 142.676Z" fill="white"/>
<path d="M328.752 158.105C329.481 158.105 350.491 149.601 350.491 149.601" stroke="white" stroke-width="3" stroke-miterlimit="10" stroke-linecap="round" stroke-linejoin="round"/>
<path d="M350.49 127.248H315.758" stroke="white" stroke-width="3" stroke-miterlimit="10" stroke-linecap="round" stroke-linejoin="round"/>
<path d="M355.348 109.511L318.916 103.073" stroke="white" stroke-width="3" stroke-miterlimit="10" stroke-linecap="round" stroke-linejoin="round"/>
<path d="M361.421 94.5689L334.825 79.5051" stroke="white" stroke-width="3" stroke-miterlimit="10" stroke-linecap="round" stroke-linejoin="round"/>
<path d="M379.393 85.215L361.906 60.1897" stroke="white" stroke-width="3" stroke-miterlimit="10" stroke-linecap="round" stroke-linejoin="round"/>
<path d="M397.246 82.7853V56.5452" stroke="white" stroke-width="3" stroke-miterlimit="10" stroke-linecap="round" stroke-linejoin="round"/>
<path d="M411.94 85.215L426.271 62.1333" stroke="white" stroke-width="3" stroke-miterlimit="10" stroke-linecap="round" stroke-linejoin="round"/>
<path d="M428.699 93.7187L449.952 76.1038" stroke="white" stroke-width="3" stroke-miterlimit="10" stroke-linecap="round" stroke-linejoin="round"/>
<path d="M442.058 108.783L468.289 95.7839" stroke="white" stroke-width="3" stroke-miterlimit="10" stroke-linecap="round" stroke-linejoin="round"/>
<path d="M445.701 122.146L473.997 119.23" stroke="white" stroke-width="3" stroke-miterlimit="10" stroke-linecap="round" stroke-linejoin="round"/>
<path d="M444.487 140.976L476.426 149.601" stroke="white" stroke-width="3" stroke-miterlimit="10" stroke-linecap="round" stroke-linejoin="round"/>
<path d="M435.5 160.169L458.209 173.168" stroke="white" stroke-width="3" stroke-miterlimit="10" stroke-linecap="round" stroke-linejoin="round"/>
</g>
<defs>
<linearGradient id="paint0_linear" x1="357.713" y1="279.013" x2="395.572" y2="279.013" gradientUnits="userSpaceOnUse">
<stop stop-color="white" stop-opacity="0"/>
<stop offset="0.9798" stop-color="white" stop-opacity="0.4899"/>
<stop offset="1" stop-color="white" stop-opacity="0.5"/>
</linearGradient>
<linearGradient id="paint1_linear" x1="225.98" y1="339.907" x2="284.26" y2="339.907" gradientUnits="userSpaceOnUse">
<stop stop-color="#F5B48D" stop-opacity="0.5"/>
<stop offset="1" stop-color="#F5A77B" stop-opacity="0.5"/>
</linearGradient>
<linearGradient id="paint2_linear" x1="167.557" y1="209.93" x2="454.847" y2="352.972" gradientUnits="userSpaceOnUse">
<stop offset="0.00360371" stop-color="white" stop-opacity="0"/>
<stop offset="0.9799" stop-color="white" stop-opacity="0.196"/>
<stop offset="1" stop-color="white" stop-opacity="0.2"/>
</linearGradient>
<linearGradient id="paint3_linear" x1="494.32" y1="411.316" x2="360.142" y2="437.254" gradientUnits="userSpaceOnUse">
<stop stop-color="white" stop-opacity="0"/>
<stop offset="0.9798" stop-color="white" stop-opacity="0.4899"/>
<stop offset="1" stop-color="white" stop-opacity="0.5"/>
</linearGradient>
<linearGradient id="paint4_linear" x1="229.621" y1="271.245" x2="198.069" y2="266.659" gradientUnits="userSpaceOnUse">
<stop stop-color="white" stop-opacity="0"/>
<stop offset="0.9798" stop-color="white" stop-opacity="0.4899"/>
<stop offset="1" stop-color="white" stop-opacity="0.5"/>
</linearGradient>
<linearGradient id="paint5_linear" x1="296.494" y1="300.392" x2="317.665" y2="300.392" gradientUnits="userSpaceOnUse">
<stop offset="0.00360371" stop-color="white" stop-opacity="0"/>
<stop offset="0.9799" stop-color="white" stop-opacity="0.196"/>
<stop offset="1" stop-color="white" stop-opacity="0.2"/>
</linearGradient>
<linearGradient id="paint6_linear" x1="400.398" y1="307.086" x2="402.85" y2="526.408" gradientUnits="userSpaceOnUse">
<stop stop-color="#C4E9FB" stop-opacity="0"/>
<stop offset="0.1486" stop-color="#C0E8FB" stop-opacity="0.1189"/>
<stop offset="0.292" stop-color="#B5E4FA" stop-opacity="0.2336"/>
<stop offset="0.4332" stop-color="#A1DEF9" stop-opacity="0.3466"/>
<stop offset="0.5733" stop-color="#86D6F7" stop-opacity="0.4586"/>
<stop offset="0.7124" stop-color="#63CCF5" stop-opacity="0.57"/>
<stop offset="0.851" stop-color="#38BFF2" stop-opacity="0.6808"/>
<stop offset="0.9865" stop-color="#05B0EF" stop-opacity="0.7892"/>
<stop offset="1" stop-color="#00AEEF" stop-opacity="0.8"/>
</linearGradient>
<linearGradient id="paint7_linear" x1="404.826" y1="331.416" x2="406.998" y2="525.651" gradientUnits="userSpaceOnUse">
<stop stop-color="white" stop-opacity="0"/>
<stop offset="0.9798" stop-color="white" stop-opacity="0.4899"/>
<stop offset="1" stop-color="white" stop-opacity="0.5"/>
</linearGradient>
<linearGradient id="paint8_linear" x1="409.04" y1="346.797" x2="410.945" y2="517.156" gradientUnits="userSpaceOnUse">
<stop stop-color="white" stop-opacity="0"/>
<stop offset="0.9798" stop-color="white" stop-opacity="0.4899"/>
<stop offset="1" stop-color="white" stop-opacity="0.5"/>
</linearGradient>
<linearGradient id="paint9_linear" x1="411.265" y1="351.145" x2="413.029" y2="508.898" gradientUnits="userSpaceOnUse">
<stop stop-color="white" stop-opacity="0"/>
<stop offset="0.9798" stop-color="white" stop-opacity="0.4899"/>
<stop offset="1" stop-color="white" stop-opacity="0.5"/>
</linearGradient>
<linearGradient id="paint10_linear" x1="385.049" y1="513.132" x2="455.532" y2="537.881" gradientUnits="userSpaceOnUse">
<stop stop-color="white" stop-opacity="0"/>
<stop offset="0.9798" stop-color="white" stop-opacity="0.4899"/>
<stop offset="1" stop-color="white" stop-opacity="0.5"/>
</linearGradient>
<linearGradient id="paint11_linear" x1="355.379" y1="140.942" x2="439.233" y2="140.942" gradientUnits="userSpaceOnUse">
<stop stop-color="white" stop-opacity="0"/>
<stop offset="0.9798" stop-color="white" stop-opacity="0.4899"/>
<stop offset="1" stop-color="white" stop-opacity="0.5"/>
</linearGradient>
</defs>
</svg>
