<?xml version="1.0" encoding="utf-8"?>
<svg width="705" height="700" viewBox="0 0 705 700" fill="none" xmlns="http://www.w3.org/2000/svg">
<mask id="mask0" mask-type="alpha" maskUnits="userSpaceOnUse" x="0" y="0" width="705" height="700">
<rect width="705" height="700" fill="#C4C4C4"/>
</mask>
<g mask="url(#mask0)">
<path d="M537.382 302.248L561.983 290.327C561.983 290.327 581.346 261.399 590.393 255.676C601.027 249.001 637.055 245.981 637.055 245.981L669.115 245.504C669.115 245.504 660.386 249.795 657.37 251.226C653.72 252.815 642.61 256.948 642.61 256.948C642.61 256.948 646.578 259.332 646.578 261.716C646.737 265.849 643.245 268.074 638.166 269.823C634.992 270.935 630.548 271.412 630.548 271.412C630.548 271.412 632.928 273.796 633.563 275.386C634.992 279.677 626.104 283.969 622.295 285.559C618.644 286.989 610.074 289.85 610.074 289.85L586.266 304.155L561.983 321.322L537.382 302.248Z" fill="#F5C7B0"/>
<path d="M562.3 287.943L578.013 315.123L401.999 447.367C401.999 447.367 200.115 330.064 209.003 270.141C217.097 215.145 286.138 238.51 306.612 267.597C327.086 296.685 408.982 366.781 408.982 366.781C408.982 366.781 500.243 317.348 562.3 287.943Z" fill="#9DCAF3"/>
<path d="M151.231 137.737C151.231 137.737 143.93 155.38 142.184 171.593C140.438 187.647 132.978 196.23 129.011 201.475C125.043 206.72 98.2201 219.754 91.8715 223.251C91.8715 223.251 153.453 303.043 197.416 301.294C281.376 297.797 225.35 219.754 225.35 219.754C225.35 219.754 210.59 212.76 200.908 204.495C195.194 199.568 192.338 171.752 192.338 171.752L151.231 137.737Z" fill="#F5C7B0"/>
<path d="M254.713 533.358C237.572 445.619 225.351 219.437 225.351 219.437L277.091 244.073C277.091 244.073 290.106 443.552 290.106 470.414C290.106 481.064 296.137 504.588 302.962 529.066C287.09 531.291 270.902 532.404 254.713 533.358Z" fill="#9DCAF3"/>
<path d="M229.001 72.887C235.191 77.8143 245.824 87.987 245.666 94.6628C245.507 101.339 245.983 121.048 243.92 132.492C241.857 143.777 238.524 173.342 235.349 186.375C232.175 199.568 228.683 217.529 225.35 219.595C221.859 221.662 189.957 219.595 183.609 215.622C177.26 211.648 149.802 175.408 154.088 147.115C154.088 147.115 138.692 152.043 131.233 125.34C129.328 118.346 154.088 94.8217 157.579 87.3512C166.15 68.9133 204.083 77.9733 214.716 77.4964C225.35 76.8606 229.001 72.887 229.001 72.887Z" fill="#F5C7B0"/>
<path d="M200.908 204.177C200.908 204.177 220.748 249.16 190.909 254.246C143.454 262.193 129.011 201.316 129.011 201.316L76.6351 228.337L57.1132 616.01L305.184 669.575L225.35 219.436L200.908 204.177Z" fill="white"/>
<path d="M116.79 207.039C118.218 209.105 188.37 414.624 164.563 608.222C159.008 653.363 76.7937 616.01 57.2719 616.01C57.2719 616.01 50.7646 525.887 48.3839 472.163C46.1619 418.439 68.858 346.435 66.636 320.209C64.414 293.983 35.8455 247.093 35.8455 247.093L116.79 207.039Z" fill="#9DCAF3"/>
<path d="M155.675 148.546L152.5 132.651L141.549 175.885C141.549 175.885 149.326 213.714 174.721 224.841C200.115 235.967 209.479 220.39 209.479 220.39L208.051 200.998L155.675 148.546Z" fill="url(#paint0_linear)"/>
<path d="M250.109 562.286H607.217C614.359 562.286 620.39 556.405 620.39 549.252C620.39 542.1 614.518 536.06 607.217 536.06H250.109C242.967 536.06 236.936 541.941 236.936 549.252C236.936 556.405 242.809 562.286 250.109 562.286Z" fill="#77B5F2"/>
<path d="M365.812 562.286H607.058C614.2 562.286 620.231 556.405 620.231 549.252C620.231 542.1 614.359 536.06 607.058 536.06H365.812C358.67 536.06 352.639 541.941 352.639 549.252C352.798 556.405 358.67 562.286 365.812 562.286Z" fill="url(#paint1_linear)"/>
<path d="M151.231 117.551L160.119 107.538L158.849 102.292C158.849 102.292 162.023 76.8607 163.61 76.8607C165.198 76.8607 201.702 67.3238 204.876 70.5028C208.05 73.6817 233.444 83.2186 233.444 83.2186C233.444 83.2186 236.46 110.558 231.699 110.558C226.937 110.558 195.353 106.902 182.656 111.829C176.307 114.213 174.403 118.664 173.292 122.479C171.229 128.995 172.022 133.128 172.498 134.4C177.26 147.115 195.353 146.956 198.527 150.135C201.702 153.314 208.05 172.388 208.05 172.388C208.05 172.388 222.335 210.535 217.573 212.125C212.812 213.714 198.527 216.893 195.353 216.893C192.179 216.893 181.069 208.946 175.673 207.039C170.276 205.131 162.023 191.462 157.262 185.104C152.5 178.746 152.818 130.903 152.818 130.903L151.231 117.551Z" fill="url(#paint2_linear)"/>
<path d="M245.666 94.6627C245.666 94.6627 242.809 85.2849 234.715 88.3049C226.779 91.3249 210.273 92.2785 198.052 90.0533C185.831 87.987 174.403 81.4701 174.403 81.4701C174.403 81.4701 172.657 99.1133 168.848 103.564C165.039 108.014 156.944 112.942 155.833 118.664C154.881 124.386 154.723 130.108 154.723 130.108L151.707 147.115C151.707 147.115 150.913 155.222 148.85 161.262C146.787 167.302 142.978 177.474 142.978 177.474C142.978 177.474 133.137 139.963 123.614 124.227C114.092 108.491 111.87 77.4964 134.248 68.1185C134.248 68.1185 136.947 39.508 167.42 37.1238C197.893 34.7396 215.193 53.1775 228.366 49.9985C241.539 46.8196 244.237 45.2301 250.586 48.409C258.839 52.5417 266.14 68.1185 258.522 81.788C251.221 95.4575 245.666 94.6627 245.666 94.6627Z" fill="#202020"/>
<path d="M607.217 536.06L362.797 530.179L148.215 542.259C148.215 542.259 355.655 543.213 366.13 542.259C370.891 541.782 607.217 536.06 607.217 536.06Z" fill="#77B5F2"/>
<path d="M238.841 166.03C237.095 172.865 235.349 178.11 230.588 177.315C225.826 176.362 225.509 171.116 214.558 169.845C203.606 168.573 195.195 175.885 187.894 177.156C180.593 178.428 164.087 160.467 161.706 144.89C159.325 129.313 158.373 114.372 158.373 114.372L152.659 119.141C152.659 119.141 153.294 147.115 152.183 163.328C151.072 179.541 157.42 203.701 175.038 214.986C192.655 226.271 220.113 224.682 225.985 219.913C231.699 215.145 233.762 196.707 236.778 188.76C239.952 180.494 238.841 166.03 238.841 166.03Z" fill="#202020"/>
<path d="M134.407 68.1184C134.407 68.1184 137.105 39.5079 167.578 37.1237C176.625 36.4879 184.561 37.6005 191.544 39.5079C180.91 47.9321 174.244 60.9658 174.244 75.589C174.244 77.6553 174.403 79.7216 174.72 81.629C174.562 81.47 174.403 81.47 174.403 81.47C174.403 81.47 172.657 99.1132 168.848 103.564C165.039 108.014 156.944 112.942 155.833 118.664C154.881 124.386 154.722 130.108 154.722 130.108L151.707 147.115C151.707 147.115 150.913 155.222 148.85 161.262C146.787 167.302 142.977 177.474 142.977 177.474C142.977 177.474 133.137 139.963 123.614 124.227C114.25 108.332 111.869 77.3374 134.407 68.1184Z" fill="url(#paint3_linear)"/>
<path d="M216.939 130.585C214.875 140.44 212.971 150.453 211.225 160.467C211.066 161.262 210.907 162.056 211.225 162.851C211.701 164.6 213.923 165.394 215.669 165.712C216.145 165.871 216.78 166.03 217.256 165.871C218.526 165.553 218.843 163.805 218.843 162.374C218.684 151.407 219.637 140.281 221.541 129.472C221.7 128.836 221.7 128.201 221.383 127.565C219.795 124.704 217.097 129.313 216.939 130.585Z" fill="#E99B8D"/>
<path d="M226.779 114.849C226.62 113.895 226.779 112.624 227.731 112.465C228.683 112.147 229.477 113.26 229.794 114.372C229.953 115.326 230.112 116.597 230.905 117.074C231.699 116.28 232.175 115.008 232.016 113.895C232.016 113.577 231.858 113.26 232.016 112.942C232.175 112.624 232.492 112.624 232.81 112.624C240.111 111.67 247.888 116.121 250.745 122.955C251.062 123.591 250.903 124.545 250.268 124.386C248.999 123.114 247.57 121.843 246.301 120.571C245.031 119.3 243.602 118.028 242.015 117.392C239.793 116.439 237.254 116.439 234.873 117.392C233.603 117.869 229.794 121.207 229.001 121.207C227.414 120.73 226.937 116.121 226.779 114.849Z" fill="#202020"/>
<path d="M205.511 115.803C205.352 115.485 205.193 115.167 204.876 115.008C204.4 114.849 203.924 115.326 203.606 115.803C202.495 117.233 201.384 118.823 200.432 120.253C199.956 119.141 199.956 117.869 200.432 116.756C200.591 116.439 200.591 116.28 200.591 115.962C200.432 115.644 200.114 115.485 199.956 115.326C195.829 113.577 191.226 113.101 186.782 113.895C185.037 114.213 183.132 115.008 182.815 116.597C184.719 115.803 186.782 115.326 188.846 115.485C194.718 115.962 195.988 120.253 199.48 123.591C201.384 125.34 201.702 124.386 203.13 122.32C204.241 120.571 206.304 118.187 205.511 115.803Z" fill="#202020"/>
<path d="M148.374 542.258H366.289V562.286H148.374V542.258Z" fill="#77B5F2"/>
<path d="M199.163 193.528C192.814 194.164 186.148 190.508 183.133 184.786" stroke="#F5C7B0" stroke-miterlimit="10" stroke-linecap="round"/>
<path d="M189.164 135.989C188.846 139.009 189.799 141.393 191.227 141.552C192.655 141.711 193.925 139.327 194.243 136.466C194.56 133.446 193.608 131.062 192.179 130.903C190.751 130.744 189.322 133.128 189.164 135.989Z" fill="#202020"/>
<path d="M231.223 139.645C230.905 142.665 231.858 145.049 233.286 145.208C234.714 145.367 235.984 142.983 236.302 140.122C236.619 137.102 235.667 134.717 234.238 134.559C232.81 134.4 231.54 136.625 231.223 139.645Z" fill="#202020"/>
<path d="M151.231 117.551C149.485 116.597 148.215 115.008 146.787 113.736C145.199 112.465 143.136 111.67 141.39 112.306C140.121 112.783 139.168 114.213 138.533 115.326C135.677 120.094 133.772 126.134 135.994 131.221C137.422 134.4 140.121 136.625 143.295 138.214C146.31 139.645 149.802 140.44 153.135 141.075" fill="#F5C7B0"/>
<path d="M151.389 122.002C149.961 121.207 148.85 120.094 147.421 119.3C145.993 118.505 144.247 118.187 142.819 118.982C141.231 119.776 140.438 121.843 140.12 123.591C139.803 125.181 139.486 126.611 139.327 128.201C139.327 128.677 139.168 129.154 139.327 129.631C139.486 130.426 139.962 130.903 140.597 131.38C142.819 133.446 146.152 134.082 149.008 133.287C149.485 133.128 149.961 132.969 150.278 132.492C150.596 132.015 150.754 131.38 150.754 130.903C151.072 128.042 152.183 122.479 151.389 122.002Z" fill="#E99B8D"/>
<path d="M151.231 117.551C149.485 116.597 148.215 115.008 146.787 113.736C145.199 112.465 143.136 111.67 141.39 112.306C140.121 112.783 139.168 114.213 138.533 115.326C135.677 120.094 133.772 126.134 135.994 131.221C137.422 134.4 140.121 136.625 143.295 138.214C146.31 139.645 149.802 140.44 153.135 141.075" fill="url(#paint4_linear)"/>
<path d="M239.952 492.19L266.299 499.184C266.299 499.184 299.788 489.965 310.421 491.554C322.801 493.462 352.163 514.602 352.163 514.602L376.923 535.106C376.923 535.106 367.4 532.722 364.384 531.768C360.575 530.655 349.465 526.523 349.465 526.523C349.465 526.523 350.894 530.814 349.465 532.722C346.926 536.06 342.799 535.424 337.879 533.357C334.705 532.086 331.054 529.543 331.054 529.543C331.054 529.543 331.372 532.881 330.737 534.47C329.15 538.603 319.468 536.06 315.659 534.788C312.009 533.516 303.597 530.02 303.597 530.02L276.298 525.41L246.777 522.549L239.952 492.19Z" fill="#F5C7B0"/>
<path d="M266.299 499.343L260.585 530.179L41.0833 515.396C41.0833 515.396 -15.1015 279.836 35.687 246.934C53.3043 235.49 89.1737 281.267 85.8407 316.712C82.5077 352.157 98.8553 458.811 98.8553 458.811C98.8553 458.811 200.115 480.905 266.299 499.343Z" fill="#9DCAF3"/>
<path d="M265.188 499.343L259.474 530.179L39.9724 515.396C39.9724 515.396 -16.2125 279.836 34.5761 246.934C52.1934 235.49 88.0629 281.267 84.7299 316.712C81.3969 352.157 97.7444 458.811 97.7444 458.811C97.7444 458.811 199.004 480.905 265.188 499.343Z" fill="url(#paint5_linear)"/>
<path d="M645.309 506.496H272.647L316.929 270.141H689.59L645.309 506.496Z" fill="url(#paint6_linear)"/>
<path d="M633.881 333.402H523.416L524.21 328.792H634.833L633.881 333.402Z" fill="#DDCFCC"/>
<path d="M630.231 352.793H519.766L520.559 348.025H631.183L630.231 352.793Z" fill="#DDCFCC"/>
<path d="M626.58 372.026H516.115L517.068 367.417H627.533L626.58 372.026Z" fill="#DDCFCC"/>
<path d="M623.089 391.417H512.465L513.417 386.649H623.882L623.089 391.417Z" fill="#DDCFCC"/>
<path d="M619.438 410.65H508.814L509.767 405.882H620.232L619.438 410.65Z" fill="#DDCFCC"/>
<path d="M611.185 454.361H574.522L575.315 449.751H612.137L611.185 454.361Z" fill="#DDCFCC"/>
<path d="M336.609 283.969C336.133 286.83 333.276 289.214 330.419 289.214C327.562 289.214 325.658 286.83 326.134 283.969C326.61 281.108 329.467 278.724 332.324 278.724C335.181 278.724 337.085 281.108 336.609 283.969Z" fill="white"/>
<path d="M360.099 283.969C359.623 286.83 356.766 289.214 353.909 289.214C351.052 289.214 349.148 286.83 349.624 283.969C350.1 281.108 352.957 278.724 355.814 278.724C358.67 278.724 360.575 281.108 360.099 283.969Z" fill="white"/>
<path d="M383.589 283.969C383.113 286.83 380.256 289.214 377.399 289.214C374.542 289.214 372.637 286.83 373.114 283.969C373.59 281.108 376.447 278.724 379.303 278.724C382.16 278.724 384.065 281.108 383.589 283.969Z" fill="white"/>
<path d="M359.991 438.341C335.443 411.339 341.918 365.401 374.454 335.734C406.99 306.068 453.266 303.908 477.814 330.909C502.362 357.911 495.886 403.849 463.35 433.516C430.814 463.182 384.539 465.342 359.991 438.341Z" fill="#FF4D00"/>
<path d="M247.888 142.824L243.444 139.168" stroke="#202020" stroke-miterlimit="10" stroke-linecap="round"/>
<path d="M146.469 113.577C146.469 113.577 148.374 111.829 155.833 116.438C163.293 121.048 183.926 137.737 183.926 137.737" stroke="#202020" stroke-miterlimit="10"/>
<path d="M221.065 142.824L211.701 142.188" stroke="#202020" stroke-miterlimit="10"/>
<path d="M185.354 148.228L208.527 150.135C209.955 150.294 211.066 149.182 211.225 147.91L211.701 142.029C211.86 140.598 210.749 139.486 209.479 139.327L186.307 137.419C184.878 137.261 183.767 138.373 183.609 139.645L183.132 145.526C182.974 146.797 183.926 148.069 185.354 148.228Z" stroke="#202020" stroke-miterlimit="10"/>
<path d="M222.494 151.248L245.666 153.155C247.094 153.314 248.205 152.202 248.364 150.93L248.84 145.049C248.999 143.619 247.888 142.506 246.618 142.347L223.446 140.44C222.018 140.281 220.906 141.393 220.748 142.665L220.272 148.546C220.113 149.818 221.065 151.089 222.494 151.248Z" stroke="#202020" stroke-miterlimit="10"/>
<path d="M222.494 151.248L245.666 153.155C247.094 153.314 248.205 152.202 248.364 150.93L248.84 145.049C248.999 143.619 247.888 142.506 246.618 142.347L223.446 140.44C222.018 140.281 220.906 141.393 220.748 142.665L220.272 148.546C220.113 149.818 221.065 151.089 222.494 151.248Z" fill="url(#paint7_linear)"/>
<path d="M185.354 148.228L208.527 150.135C209.955 150.294 211.066 149.182 211.225 147.91L211.701 142.029C211.86 140.598 210.749 139.486 209.479 139.327L186.307 137.419C184.878 137.261 183.767 138.373 183.609 139.645L183.132 145.526C182.974 146.797 183.926 148.069 185.354 148.228Z" fill="url(#paint8_linear)"/>
</g>
<defs>
<linearGradient id="paint0_linear" x1="209.451" y1="180.721" x2="141.569" y2="180.721" gradientUnits="userSpaceOnUse">
<stop stop-color="#F5B48D" stop-opacity="0.5"/>
<stop offset="1" stop-color="#F5A77B" stop-opacity="0.5"/>
</linearGradient>
<linearGradient id="paint1_linear" x1="620.279" y1="549.189" x2="352.798" y2="549.189" gradientUnits="userSpaceOnUse">
<stop stop-color="white" stop-opacity="0"/>
<stop offset="0.9798" stop-color="white" stop-opacity="0.4899"/>
<stop offset="1" stop-color="white" stop-opacity="0.5"/>
</linearGradient>
<linearGradient id="paint2_linear" x1="234.413" y1="143.427" x2="151.221" y2="143.427" gradientUnits="userSpaceOnUse">
<stop stop-color="white" stop-opacity="0"/>
<stop offset="0.9798" stop-color="white" stop-opacity="0.4899"/>
<stop offset="1" stop-color="white" stop-opacity="0.5"/>
</linearGradient>
<linearGradient id="paint3_linear" x1="191.618" y1="107.208" x2="116.869" y2="107.208" gradientUnits="userSpaceOnUse">
<stop stop-color="white" stop-opacity="0"/>
<stop offset="0.9798" stop-color="white" stop-opacity="0.4899"/>
<stop offset="1" stop-color="white" stop-opacity="0.5"/>
</linearGradient>
<linearGradient id="paint4_linear" x1="169.686" y1="131.074" x2="135.127" y2="123.985" gradientUnits="userSpaceOnUse">
<stop stop-color="white" stop-opacity="0"/>
<stop offset="0.9798" stop-color="white" stop-opacity="0.4899"/>
<stop offset="1" stop-color="white" stop-opacity="0.5"/>
</linearGradient>
<linearGradient id="paint5_linear" x1="265.164" y1="387.681" x2="13.2719" y2="387.681" gradientUnits="userSpaceOnUse">
<stop stop-color="white" stop-opacity="0"/>
<stop offset="0.9798" stop-color="white" stop-opacity="0.4899"/>
<stop offset="1" stop-color="white" stop-opacity="0.5"/>
</linearGradient>
<linearGradient id="paint6_linear" x1="492.508" y1="327.505" x2="492.508" y2="663.672" gradientUnits="userSpaceOnUse">
<stop stop-color="white" stop-opacity="0.5"/>
<stop offset="0.9798" stop-color="white" stop-opacity="0.8919"/>
<stop offset="1" stop-color="white" stop-opacity="0.9"/>
</linearGradient>
<linearGradient id="paint7_linear" x1="248.894" y1="146.176" x2="220.115" y2="147.222" gradientUnits="userSpaceOnUse">
<stop stop-color="white" stop-opacity="0"/>
<stop offset="0.9798" stop-color="white" stop-opacity="0.4899"/>
<stop offset="1" stop-color="white" stop-opacity="0.5"/>
</linearGradient>
<linearGradient id="paint8_linear" x1="211.774" y1="143.164" x2="182.996" y2="144.21" gradientUnits="userSpaceOnUse">
<stop stop-color="white" stop-opacity="0"/>
<stop offset="0.9798" stop-color="white" stop-opacity="0.4899"/>
<stop offset="1" stop-color="white" stop-opacity="0.5"/>
</linearGradient>
</defs>
</svg>
