<?xml version="1.0" encoding="utf-8"?>
<svg width="705" height="700" viewBox="0 0 705 700" fill="none" xmlns="http://www.w3.org/2000/svg">
<mask id="mask0" mask-type="alpha" maskUnits="userSpaceOnUse" x="0" y="0" width="705" height="700">
<rect width="705" height="700" fill="#C4C4C4"/>
</mask>
<g mask="url(#mask0)">
<path d="M40.2059 159.8C-40.4354 289.235 25.532 453.463 113.186 537.979C191.36 613.407 328.749 665.856 404.455 617.561C459.774 582.249 446.01 516.428 529.897 449.958C584.437 406.726 611.318 417.891 629.108 387.253C671.571 313.902 583.269 137.73 439.906 71.7789C320.308 16.6035 126.041 21.9263 40.2059 159.8Z" fill="#FFEEE7"/>
<path d="M450.165 346.488C508.73 373.751 580.281 365.442 631.575 319.744C656.378 297.674 672.87 269.891 681.051 240.161L601.188 217.832C590.93 254.961 555.738 281.186 515.872 278.849C504.964 278.2 494.576 275.603 485.226 271.189L450.165 346.488Z" fill="#FFC550"/>
<path d="M396.274 306.372C397.443 307.8 398.741 309.098 400.04 310.396L460.034 253.144C444.711 237.046 435.751 214.716 437.049 190.698C439.646 144.61 479.123 109.428 525.222 112.025C558.076 113.842 585.476 134.484 597.423 162.786L673.779 130.33C666.896 113.972 657.157 98.393 644.691 84.5017C583.658 15.8245 478.344 9.85262 409.649 71.1298C340.955 132.407 334.981 237.824 396.274 306.372Z" fill="#C2E5FF"/>
<path d="M604.175 200.175C603.786 206.277 602.747 212.249 601.189 217.832L681.051 240.161C691.18 204.2 688.972 165.382 673.909 130.33L597.553 162.786C602.487 174.211 604.955 186.933 604.175 200.175Z" fill="#FF4D00"/>
<path d="M400.04 310.396C414.714 325.846 431.855 337.919 450.165 346.488L485.226 271.189C475.617 266.775 467.176 260.544 460.034 253.144L400.04 310.396Z" fill="#EDF4FC"/>
<path opacity="0.26" d="M262.651 24.9123C427.05 13.7474 503.276 97.0948 545.48 208.874C587.684 320.653 650.275 359.211 607.032 487.867C563.79 616.523 407.831 633.53 346.928 618.47C286.025 603.411 222.785 564.463 146.819 535.123C33.9727 491.632 6.05345 434.249 3.71602 377.775C0.469596 297.933 42.6732 288.975 56.1783 201.474C72.5403 96.7053 134.093 33.6106 262.651 24.9123Z" fill="#F5F1F0"/>
<path d="M276.286 73.207C278.494 84.3719 274.208 96.186 264.339 103.067C259.534 106.442 254.08 108.13 248.756 108.26L248.107 93.7193C254.86 93.4597 260.833 88.5263 262.002 81.6456C262.391 79.6983 262.261 77.8807 262.002 76.0632L276.286 73.207Z" fill="#C2E5FF"/>
<path d="M271.611 62.3018C271.741 62.5614 272.001 62.8211 272.131 63.0807L259.924 71C257.846 67.7544 254.34 65.2877 250.185 64.5088C242.134 63.0807 234.602 68.4035 233.174 76.3228C232.135 82.0351 234.602 87.4877 238.887 90.7333L230.187 102.418C227.72 100.6 225.382 98.2632 223.564 95.5369C214.344 82.2948 217.591 63.9895 230.966 54.7719C244.082 45.8141 262.391 49.0597 271.611 62.3018Z" fill="#FFC550"/>
<path d="M244.991 93.4597C246.03 93.5895 247.068 93.7193 248.107 93.7193L248.627 108.26C242.134 108.519 235.511 106.572 230.187 102.547L238.887 90.8632C240.576 92.1614 242.653 93.0702 244.991 93.4597Z" fill="#FFC550"/>
<path d="M272.131 63.2105C274.209 66.3263 275.507 69.8316 276.286 73.207L262.002 76.0631C261.612 74.2456 260.963 72.5579 259.924 71L272.131 63.2105Z" fill="#FF4D00"/>
<path d="M283.039 267.554C278.494 277.94 268.105 285.211 256.029 285.081C250.185 285.081 244.731 283.263 240.316 280.277L248.237 268.074C253.951 271.839 261.613 271.189 266.547 266.256C267.976 264.958 269.014 263.4 269.664 261.712L283.039 267.554Z" fill="#FF4D00"/>
<path d="M285.506 256C285.506 256.26 285.506 256.649 285.506 256.909L270.962 256.26C271.092 252.365 269.664 248.34 266.807 245.354C261.093 239.512 251.873 239.512 246.03 245.225C241.874 249.249 240.705 255.221 242.394 260.284L228.499 264.828C227.46 261.842 226.941 258.726 227.07 255.351C227.2 239.123 240.446 226.14 256.548 226.27C272.65 226.66 285.636 239.902 285.506 256Z" fill="#C2E5FF"/>
<path d="M245.77 266.126C246.549 266.905 247.328 267.554 248.237 268.074L240.316 280.277C234.862 276.642 230.577 271.319 228.499 264.958L242.394 260.414C243.043 262.491 244.082 264.439 245.77 266.126Z" fill="#EDF4FC"/>
<path d="M285.506 257.039C285.376 260.803 284.467 264.309 283.039 267.554L269.664 261.712C270.443 260.024 270.832 258.207 270.832 256.389L285.506 257.039Z" fill="#FFC550"/>
<path d="M240.186 194.203C229.798 189.66 222.526 179.274 222.656 167.2C222.656 161.358 224.474 155.905 227.46 151.491L239.667 159.411C235.901 165.123 236.55 172.782 241.485 177.716C242.783 179.144 244.342 180.182 246.03 180.832L240.186 194.203Z" fill="#C2E5FF"/>
<path d="M251.743 196.67C251.484 196.67 251.094 196.67 250.834 196.67L251.484 182.13C255.379 182.26 259.405 180.832 262.392 177.846C268.235 172.133 268.235 162.916 262.521 157.074C258.496 152.919 252.522 151.751 247.458 153.439L242.913 139.547C245.9 138.509 249.016 137.989 252.393 138.119C268.625 138.249 281.61 151.491 281.481 167.589C281.091 183.818 267.846 196.8 251.743 196.67Z" fill="#FF4D00"/>
<path d="M241.614 156.944C240.835 157.723 240.186 158.502 239.666 159.41L227.46 151.491C231.096 146.039 236.42 141.754 242.783 139.677L247.328 153.568C245.25 154.217 243.302 155.386 241.614 156.944Z" fill="#FFC550"/>
<path d="M250.704 196.67C246.939 196.54 243.432 195.632 240.186 194.203L246.03 180.832C247.718 181.61 249.536 182 251.354 182L250.704 196.67Z" fill="#EDF4FC"/>
<path d="M226.713 51.409L221.436 63.2392H219.739L224.998 51.829H218.102V50.499H226.713V51.409ZM236.539 57.8054C236.539 59.7012 236.215 61.11 235.568 62.0317C234.92 62.9534 233.908 63.4142 232.531 63.4142C231.172 63.4142 230.166 62.965 229.513 62.0667C228.859 61.1625 228.521 59.815 228.498 58.0241V55.8628C228.498 53.9903 228.821 52.599 229.469 51.689C230.116 50.779 231.131 50.324 232.514 50.324C233.885 50.324 234.894 50.7644 235.542 51.6453C236.189 52.5203 236.522 53.8736 236.539 55.7053V57.8054ZM234.92 55.5916C234.92 54.2207 234.728 53.2232 234.343 52.599C233.958 51.969 233.348 51.654 232.514 51.654C231.686 51.654 231.082 51.9661 230.703 52.5903C230.324 53.2144 230.128 54.174 230.116 55.4691V58.0591C230.116 59.4358 230.315 60.4537 230.711 61.1129C231.114 61.7663 231.721 62.0929 232.531 62.0929C233.331 62.0929 233.923 61.7838 234.308 61.1654C234.699 60.5471 234.903 59.5729 234.92 58.2429V55.5916ZM238.473 52.949C238.473 52.1848 238.715 51.5548 239.199 51.059C239.689 50.5632 240.316 50.3152 241.08 50.3152C241.856 50.3152 242.483 50.5661 242.962 51.0677C243.446 51.5636 243.688 52.2082 243.688 53.0015V53.6228C243.688 54.3928 243.443 55.0228 242.953 55.5128C242.469 55.997 241.85 56.2391 241.098 56.2391C240.34 56.2391 239.712 55.997 239.217 55.5128C238.721 55.0228 238.473 54.3724 238.473 53.5615V52.949ZM239.68 53.6228C239.68 54.0778 239.809 54.454 240.065 54.7516C240.322 55.0432 240.666 55.1891 241.098 55.1891C241.512 55.1891 241.845 55.0461 242.095 54.7603C242.352 54.4745 242.48 54.0836 242.48 53.5878V52.949C242.48 52.494 242.355 52.1178 242.104 51.8203C241.853 51.5228 241.512 51.374 241.08 51.374C240.649 51.374 240.307 51.5228 240.057 51.8203C239.806 52.1178 239.68 52.5057 239.68 52.984V53.6228ZM244.677 60.1154C244.677 59.3512 244.919 58.7241 245.403 58.2341C245.893 57.7383 246.52 57.4904 247.284 57.4904C248.048 57.4904 248.675 57.7354 249.165 58.2254C249.655 58.7154 249.901 59.3658 249.901 60.1766V60.7979C249.901 61.5621 249.655 62.1921 249.165 62.6879C248.681 63.1779 248.06 63.4229 247.302 63.4229C246.543 63.4229 245.916 63.1809 245.42 62.6967C244.925 62.2067 244.677 61.5563 244.677 60.7454V60.1154ZM245.884 60.7979C245.884 61.2587 246.013 61.6379 246.269 61.9354C246.526 62.2271 246.87 62.3729 247.302 62.3729C247.722 62.3729 248.057 62.23 248.308 61.9442C248.559 61.6525 248.684 61.2587 248.684 60.7629V60.1154C248.684 59.6546 248.556 59.2783 248.299 58.9866C248.048 58.695 247.71 58.5491 247.284 58.5491C246.87 58.5491 246.532 58.695 246.269 58.9866C246.013 59.2725 245.884 59.6604 245.884 60.1504V60.7979ZM241.465 62.2767L240.547 61.6992L246.768 51.7415L247.687 52.319L241.465 62.2767Z" fill="white"/>
<path d="M227.703 152.494H226.076V141.705L222.812 142.903V141.433L227.449 139.692H227.703V152.494ZM233.189 146.106L233.837 139.753H240.365V141.25H235.211L234.826 144.723C235.45 144.356 236.159 144.172 236.952 144.172C238.113 144.172 239.035 144.557 239.717 145.327C240.4 146.091 240.741 147.127 240.741 148.434C240.741 149.746 240.385 150.781 239.673 151.54C238.967 152.292 237.979 152.669 236.707 152.669C235.581 152.669 234.662 152.357 233.951 151.732C233.239 151.108 232.834 150.245 232.734 149.142H234.266C234.365 149.871 234.624 150.423 235.044 150.796C235.464 151.164 236.019 151.347 236.707 151.347C237.459 151.347 238.049 151.091 238.475 150.577C238.906 150.064 239.122 149.355 239.122 148.451C239.122 147.599 238.889 146.917 238.422 146.403C237.961 145.884 237.346 145.625 236.576 145.625C235.87 145.625 235.316 145.779 234.913 146.088L234.484 146.438L233.189 146.106ZM242.368 142.203C242.368 141.439 242.61 140.809 243.095 140.313C243.585 139.818 244.212 139.57 244.976 139.57C245.752 139.57 246.379 139.82 246.857 140.322C247.341 140.818 247.583 141.463 247.583 142.256V142.877C247.583 143.647 247.338 144.277 246.848 144.767C246.364 145.251 245.746 145.493 244.993 145.493C244.235 145.493 243.608 145.251 243.112 144.767C242.616 144.277 242.368 143.627 242.368 142.816V142.203ZM243.576 142.877C243.576 143.332 243.704 143.708 243.961 144.006C244.218 144.298 244.562 144.443 244.993 144.443C245.408 144.443 245.74 144.301 245.991 144.015C246.248 143.729 246.376 143.338 246.376 142.842V142.203C246.376 141.748 246.25 141.372 246 141.075C245.749 140.777 245.408 140.628 244.976 140.628C244.544 140.628 244.203 140.777 243.952 141.075C243.701 141.372 243.576 141.76 243.576 142.238V142.877ZM248.572 149.37C248.572 148.606 248.814 147.979 249.298 147.489C249.788 146.993 250.416 146.745 251.18 146.745C251.944 146.745 252.571 146.99 253.061 147.48C253.551 147.97 253.796 148.62 253.796 149.431V150.052C253.796 150.816 253.551 151.446 253.061 151.942C252.577 152.432 251.956 152.677 251.197 152.677C250.439 152.677 249.812 152.435 249.316 151.951C248.82 151.461 248.572 150.811 248.572 150V149.37ZM249.78 150.052C249.78 150.513 249.908 150.892 250.165 151.19C250.421 151.481 250.766 151.627 251.197 151.627C251.617 151.627 251.953 151.484 252.203 151.199C252.454 150.907 252.58 150.513 252.58 150.017V149.37C252.58 148.909 252.451 148.533 252.195 148.241C251.944 147.949 251.606 147.804 251.18 147.804C250.766 147.804 250.427 147.949 250.165 148.241C249.908 148.527 249.78 148.915 249.78 149.405V150.052ZM245.361 151.531L244.442 150.954L250.663 140.996L251.582 141.573L245.361 151.531Z" fill="white"/>
<path d="M234.196 243.04H232.569V232.251L229.305 233.45V231.98L233.942 230.239H234.196V243.04ZM246.928 237.606C246.928 239.502 246.604 240.911 245.956 241.833C245.309 242.754 244.297 243.215 242.92 243.215C241.561 243.215 240.555 242.766 239.901 241.868C239.248 240.964 238.91 239.616 238.886 237.825V235.664C238.886 233.791 239.21 232.4 239.858 231.49C240.505 230.58 241.52 230.125 242.903 230.125C244.273 230.125 245.283 230.565 245.93 231.446C246.578 232.321 246.91 233.675 246.928 235.506V237.606ZM245.309 235.393C245.309 234.022 245.116 233.024 244.731 232.4C244.346 231.77 243.737 231.455 242.903 231.455C242.074 231.455 241.471 231.767 241.091 232.391C240.712 233.016 240.517 233.975 240.505 235.27V237.86C240.505 239.237 240.703 240.255 241.1 240.914C241.503 241.567 242.109 241.894 242.92 241.894C243.719 241.894 244.311 241.585 244.696 240.966C245.087 240.348 245.291 239.374 245.309 238.044V235.393ZM248.861 232.75C248.861 231.986 249.104 231.356 249.588 230.86C250.078 230.364 250.705 230.116 251.469 230.116C252.245 230.116 252.872 230.367 253.35 230.869C253.834 231.365 254.077 232.009 254.077 232.803V233.424C254.077 234.194 253.832 234.824 253.342 235.314C252.857 235.798 252.239 236.04 251.487 236.04C250.728 236.04 250.101 235.798 249.605 235.314C249.109 234.824 248.861 234.173 248.861 233.363V232.75ZM250.069 233.424C250.069 233.879 250.197 234.255 250.454 234.553C250.711 234.844 251.055 234.99 251.487 234.99C251.901 234.99 252.233 234.847 252.484 234.561C252.741 234.276 252.869 233.885 252.869 233.389V232.75C252.869 232.295 252.744 231.919 252.493 231.621C252.242 231.324 251.901 231.175 251.469 231.175C251.037 231.175 250.696 231.324 250.445 231.621C250.194 231.919 250.069 232.307 250.069 232.785V233.424ZM255.065 239.916C255.065 239.152 255.307 238.525 255.792 238.035C256.282 237.539 256.909 237.291 257.673 237.291C258.437 237.291 259.064 237.536 259.554 238.026C260.044 238.516 260.289 239.167 260.289 239.978V240.599C260.289 241.363 260.044 241.993 259.554 242.489C259.07 242.979 258.449 243.224 257.69 243.224C256.932 243.224 256.305 242.982 255.809 242.498C255.313 242.008 255.065 241.357 255.065 240.546V239.916ZM256.273 240.599C256.273 241.06 256.401 241.439 256.658 241.737C256.915 242.028 257.259 242.174 257.69 242.174C258.11 242.174 258.446 242.031 258.697 241.745C258.947 241.454 259.073 241.06 259.073 240.564V239.916C259.073 239.456 258.945 239.079 258.688 238.788C258.437 238.496 258.099 238.35 257.673 238.35C257.259 238.35 256.92 238.496 256.658 238.788C256.401 239.074 256.273 239.461 256.273 239.951V240.599ZM251.854 242.078L250.935 241.5L257.157 231.543L258.075 232.12L251.854 242.078Z" fill="white"/>
<path d="M244.861 361.807C245.121 358.561 171.102 104.754 171.102 104.754L321.736 30.8842L283.948 372.323L244.861 361.807Z" fill="url(#paint0_linear)"/>
<path d="M248.497 361.807C248.757 358.561 193.178 104.754 193.178 104.754L306.153 30.8842L277.715 372.323L248.497 361.807Z" fill="url(#paint1_linear)"/>
<path d="M259.924 354.407C260.054 351.161 239.017 97.3544 239.017 97.3544L281.87 23.4842L271.092 364.923L259.924 354.407Z" fill="url(#paint2_linear)"/>
<path d="M465.748 796.59C465.748 796.59 465.358 640.151 464.839 599.905C464.449 571.344 460.034 485.79 460.034 485.79L444.841 490.983C416.532 468.912 298.232 495.267 298.232 495.267C298.232 495.267 298.492 514.221 299.271 541.354L297.323 542.004C297.323 542.004 295.635 596.14 297.063 614.186C299.92 649.239 320.827 774.779 321.736 779.453C338.747 865.397 347.837 1017.42 347.188 1051.95C346.798 1070.78 363.42 1068.18 364.329 1061.95C381.99 931.867 405.234 866.954 375.757 792.954L376.276 630.154L410.948 789.968C413.155 797.368 416.142 812.688 417.051 819.439C426.141 891.361 434.192 1070.26 434.192 1070.26C434.192 1070.26 447.178 1080.65 447.697 1075.45C458.086 963.414 498.082 874.225 465.748 796.59Z" fill="#202020"/>
<path d="M110.609 304.629L122.742 306.858L126.825 284.641L114.692 282.413L110.609 304.629Z" fill="white" stroke="white" stroke-miterlimit="10"/>
<path d="M103.316 378.165C109.42 379.333 115.263 375.049 116.172 368.947L125.522 301.698L109.679 298.842L94.6159 365.053C93.3173 371.025 97.213 376.997 103.316 378.165Z" fill="#6E311E"/>
<path d="M85.396 260.674C102.667 285.73 136.949 292.091 162.142 274.825C172.92 267.425 180.192 256.779 183.698 245.095C184.996 240.94 185.646 236.786 185.905 232.502C186.035 229.905 186.035 227.309 185.776 224.582C185.126 216.793 182.659 209.004 178.503 201.863C177.724 200.695 177.075 199.396 176.166 198.228C158.895 173.172 124.483 166.811 99.4205 184.077C98.2518 184.856 97.0831 185.765 95.9144 186.674C89.4215 191.867 84.487 198.358 81.1107 205.368C79.942 207.835 79.033 210.302 78.124 212.768C76.8254 216.923 76.0462 221.077 75.6567 225.361C74.8775 237.305 77.8642 249.898 85.396 260.674Z" fill="#9DCAF3"/>
<path d="M89.0322 198.877L167.985 268.203C167.985 268.203 181.231 251.846 181.75 246.523C182.27 241.2 178.634 211.47 177.075 209.004C175.517 206.537 154.61 184.986 148.767 183.039C142.923 181.091 131.496 177.586 125.392 179.274C119.289 180.961 89.0322 198.877 89.0322 198.877Z" fill="url(#paint3_linear)"/>
<path d="M163.7 283.653C150.844 291.442 135.131 294.818 119.289 291.832C84.7469 285.47 61.892 252.235 68.255 217.832C71.3716 201.084 80.7213 186.674 94.7458 176.937C108.77 167.33 125.652 163.695 142.274 166.811C159.025 169.926 173.439 179.274 183.179 193.295C192.788 207.316 196.424 224.193 193.307 240.811C189.801 259.375 178.634 274.565 163.7 283.653ZM106.563 189.4C105.784 189.919 105.005 190.439 104.225 190.958C93.9667 198.098 87.0843 208.744 84.7469 220.947C82.5393 233.151 85.1364 245.614 92.2786 255.87C99.4207 266.126 110.069 273.007 122.276 275.344C147.598 280.018 172.011 263.14 176.686 237.825C178.893 225.621 176.296 213.158 169.154 202.902C162.012 192.646 151.364 185.765 139.157 183.428C127.859 181.351 116.302 183.428 106.563 189.4Z" fill="#FF4D00"/>
<path d="M146.819 385.954C146.819 385.954 126.95 374.27 120.977 369.596C110.199 361.158 86.1752 330.13 86.1752 330.13C86.1752 330.13 93.3174 315.589 111.368 341.035C111.368 341.035 120.458 337.4 116.951 330.26C113.575 322.989 103.187 310.526 103.187 310.526C103.187 310.526 82.4094 314.681 75.0075 307.021C67.6057 299.361 95.1354 293.909 103.187 296.505C111.238 299.102 130.067 310.137 135.651 317.926C141.235 325.716 159.545 371.544 159.545 371.544L146.819 385.954Z" fill="#F5C7B0"/>
<path d="M325.243 304.944C323.944 304.944 309.4 309.228 309.4 309.228C309.4 309.228 291.48 323.898 286.026 357.653C280.702 391.407 228.239 467.095 228.239 467.095L258.496 505.782C258.496 505.782 325.632 432.172 330.307 410.491C335.112 388.94 325.243 304.944 325.243 304.944Z" fill="#52C798"/>
<path d="M439.517 158.502C439.517 158.502 430.297 234.449 428.998 236.656C423.804 244.965 397.313 264.958 379.523 265.996C361.732 267.035 349.266 240.681 350.564 221.856C350.694 220.428 350.824 218.87 350.954 217.053C351.473 209.782 352.123 199.656 352.772 189.53C353.551 177.975 354.2 166.421 354.72 158.632C355.109 152.789 355.239 149.154 355.239 149.154C355.239 149.154 354.59 144.351 356.798 139.028C360.434 129.94 372.64 119.425 411.078 130.849C441.464 140.067 439.517 158.502 439.517 158.502Z" fill="#F5C7B0"/>
<path d="M369.913 212.119C369.783 214.975 366.018 221.597 363.81 223.414C361.473 225.232 357.317 224.193 354.46 223.284C353.421 222.895 351.733 217.702 350.824 217.183C351.344 209.912 351.993 199.786 352.642 189.66C352.512 192.386 356.278 194.982 358.356 196.281C360.434 197.579 368.095 197.968 369.394 200.175C370.692 202.512 370.043 209.263 369.913 212.119Z" fill="url(#paint4_linear)"/>
<path d="M436.01 166.291C435.621 160.709 434.192 155.256 431.076 150.712C425.882 143.182 417.051 139.288 408.351 136.561C397.053 133.056 385.236 130.979 373.419 130.46C371.991 130.46 370.433 130.33 369.004 130.979C367.965 131.498 367.056 132.277 366.147 133.056C363.29 135.393 359.914 137.211 356.668 139.288C354.59 144.481 355.109 149.414 355.109 149.414C354.98 152.53 354.46 155.646 354.59 158.761C354.59 158.372 363.031 156.684 363.55 156.554C367.835 155.775 372.51 155.516 376.796 156.814C380.561 157.853 382.899 163.046 387.054 162.916C389.522 162.786 391.21 160.579 393.028 159.151C398.352 154.867 404.325 157.463 409.26 160.968C413.545 164.084 418.739 167.2 421.337 172.003C423.025 175.119 422.765 182.649 422.635 186.025C422.505 186.933 421.207 191.347 419.908 196.021C419.519 196.411 419.129 196.8 418.739 197.06C416.662 198.747 414.324 200.175 411.857 201.214C406.793 203.291 401.209 203.681 396.014 202.253C394.586 201.863 393.028 201.344 391.599 201.603C389.651 201.993 388.223 203.551 387.184 205.239C384.587 208.874 382.639 213.418 383.808 217.702C384.457 220.039 386.015 222.116 387.574 223.933C388.742 225.232 390.041 226.53 391.599 227.179C393.028 227.828 394.586 227.828 396.144 227.828C399.391 227.828 402.637 227.958 405.754 226.919C411.078 225.232 414.974 220.558 417.83 215.754C420.038 211.989 421.726 207.965 423.025 203.811C425.232 201.863 427.44 200.175 428.089 200.565C430.297 201.474 430.556 191.867 432.115 189.919C433.543 187.972 434.192 185.505 434.582 183.168C435.491 177.326 436.27 171.744 436.01 166.291Z" fill="url(#paint5_linear)"/>
<path d="M466.267 392.186C466.267 392.186 467.176 414.905 466.267 453.982C465.618 480.337 466.397 512.533 463.151 551.87C379.003 591.077 297.323 542.263 297.323 542.263C292.518 505.133 310.958 401.014 310.958 401.014L292.518 374.14C292.518 374.14 290.441 335.582 309.4 309.228C320.048 294.298 370.562 278.979 370.562 278.979C370.562 278.979 363.94 303.256 402.377 300.14C426.791 298.193 442.503 272.098 442.503 272.098C442.503 272.098 486.265 280.147 498.602 287.418C501.199 288.975 505.484 294.168 506.263 295.337C526.131 325.716 466.267 392.186 466.267 392.186Z" fill="#52C798"/>
<path d="M345.11 288.326L378.484 275.863L379.522 265.997L428.349 236.526L428.868 268.593L452.242 274.825C452.242 274.825 409.519 312.863 392.378 310.267C375.237 307.54 345.11 288.326 345.11 288.326Z" fill="#52C798"/>
<path opacity="0.6" d="M428.738 254.312L428.349 238.344L379.393 265.997L379.133 268.074C396.404 270.151 412.766 267.295 428.738 254.312Z" fill="#46A57C"/>
<path d="M442.504 187.712C442.504 187.712 437.439 188.232 434.712 192.256L431.725 208.225C431.725 208.225 429.518 207.316 426.661 205.888C427.31 197.189 428.089 167.849 428.089 167.849C428.089 167.849 416.662 162.396 416.013 143.572C416.013 143.312 416.013 143.053 416.013 142.923C416.013 142.923 399.001 145.779 379.912 144.351C379.912 144.351 328.099 144.87 351.474 123.449C351.474 123.449 397.313 79.6982 436.27 129.421C436.27 129.421 436.27 129.421 436.4 129.421C437.829 129.811 451.074 133.835 451.723 146.688C452.762 165.382 442.504 187.712 442.504 187.712Z" fill="#6E311E"/>
<path d="M442.503 187.712C442.503 187.712 437.439 188.232 434.712 192.256L431.725 208.225C431.725 208.225 429.518 207.316 426.661 205.888C427.31 197.189 428.089 167.849 428.089 167.849C428.089 167.849 416.662 162.397 416.013 143.572C420.038 140.716 429.518 134.225 436.4 129.551C437.829 129.94 451.074 133.965 451.723 146.818C452.762 165.382 442.503 187.712 442.503 187.712Z" fill="url(#paint6_linear)"/>
<path d="M434.582 186.025C436.4 184.986 436.919 183.818 438.477 182.519C440.166 181.221 442.373 180.182 444.451 180.961C445.879 181.61 446.918 183.039 447.697 184.337C450.814 189.66 453.021 196.151 450.554 201.733C448.996 205.239 446.009 207.705 442.503 209.393C439.127 210.951 436.4 211.211 432.764 211.989" fill="#F5C7B0"/>
<path d="M436.14 190.568C437.179 189.66 438.088 188.491 439.127 187.842C440.166 187.063 441.594 186.803 442.763 187.712C444.191 188.881 444.84 191.218 445.23 193.295C445.62 195.112 445.879 196.93 446.269 198.618C446.399 199.137 446.399 199.786 446.399 200.305C446.269 201.084 446.009 201.733 445.62 202.253C443.931 204.33 441.464 204.979 438.997 203.811C438.607 203.551 438.218 203.291 437.828 202.902C437.568 202.382 437.439 201.604 437.309 200.954C436.919 197.319 435.621 190.958 436.14 190.568Z" fill="#E99B8D"/>
<path d="M434.191 187.712C436.009 186.674 436.788 183.947 438.476 182.519C440.164 181.221 442.372 180.182 444.449 180.961C445.878 181.61 446.917 183.039 447.696 184.337C450.812 189.66 453.02 196.151 450.553 201.733C448.994 205.239 446.008 207.705 442.501 209.393C439.125 210.951 436.528 210.821 432.892 211.6" fill="url(#paint7_linear)"/>
<path d="M432.894 201.474V236.526C432.894 236.526 413.545 256.389 392.768 263.53C388.353 264.958 383.808 265.997 379.523 265.997C357.187 266.386 351.863 245.095 351.863 245.095C351.863 245.095 344.981 230.944 351.863 200.954C351.863 200.954 349.266 221.596 358.096 223.154C361.862 223.804 365.368 219 374.069 218.74C383.159 218.481 389.002 222.765 393.677 221.207C394.586 220.947 395.625 220.428 396.794 219.649C406.923 213.677 427.18 194.593 427.18 194.593L432.894 201.474Z" fill="#6E311E"/>
<path d="M384.457 184.986C383.808 196.54 383.678 204.719 380.302 214.456C380.042 215.235 379.652 216.014 379.133 216.663C377.705 217.961 369.913 217.572 368.095 217.053C367.576 216.923 366.927 216.663 366.537 216.274C365.498 215.235 366.277 213.547 366.927 212.379C372.51 202.642 377.315 192.386 381.081 181.74C381.341 181.091 381.6 180.442 382.12 180.182C384.847 178.365 384.587 183.688 384.457 184.986Z" fill="#E99B8D"/>
<path d="M375.757 161.098C375.887 160.189 375.757 158.891 374.848 158.632C373.809 158.372 373.03 159.41 372.77 160.449C372.51 161.488 372.9 157.593 371.991 158.112C371.082 157.333 370.303 161.228 370.433 160.06C370.433 159.67 370.563 159.411 370.433 159.021C370.303 158.761 369.913 158.632 369.654 158.632C362.122 157.723 354.201 162.267 351.344 169.147C351.084 169.796 351.214 170.705 351.863 170.575C353.162 169.277 354.59 167.979 355.889 166.681C357.187 165.382 358.616 164.084 360.304 163.305C362.511 162.267 365.238 162.396 367.576 163.305C368.745 163.695 372.77 167.2 373.679 167.2C375.108 167.07 375.627 162.267 375.757 161.098Z" fill="#602A1C"/>
<path d="M397.183 161.877C397.313 160.968 397.703 159.67 398.612 159.67C399.65 159.54 400.17 160.968 400.17 162.007C400.17 163.046 400.819 159.151 401.468 159.93C402.507 159.411 402.377 163.305 402.507 162.137C402.507 161.747 402.507 161.358 402.767 161.228C403.027 160.968 403.286 160.968 403.676 161.098C411.208 161.877 417.83 168.109 419.129 175.509C419.259 176.158 418.869 177.067 418.35 176.807C417.311 175.249 416.272 173.691 415.363 172.003C414.324 170.446 413.285 168.888 411.857 167.719C409.909 166.161 407.312 165.772 404.845 166.032C403.546 166.161 399.001 168.758 398.092 168.368C396.534 167.849 397.053 163.046 397.183 161.877Z" fill="#602A1C"/>
<path d="M405.234 184.207C404.974 187.193 403.546 189.53 402.247 189.4C400.819 189.27 399.91 186.674 400.17 183.688C400.429 180.702 401.858 178.365 403.156 178.495C404.715 178.625 405.624 181.221 405.234 184.207Z" fill="#202020"/>
<path d="M368.614 183.039C368.355 186.025 366.926 188.361 365.628 188.232C364.199 188.102 363.29 185.505 363.55 182.519C363.81 179.533 365.238 177.197 366.537 177.326C367.965 177.456 368.874 180.053 368.614 183.039Z" fill="#202020"/>
<path d="M366.537 235.228C373.809 240.551 384.198 240.94 391.859 236.267" stroke="#E99B8D" stroke-miterlimit="10" stroke-linecap="round" stroke-linejoin="round"/>
<path d="M418.22 177.326L440.945 182.909" stroke="#F5F1F0" stroke-miterlimit="10" stroke-linecap="round" stroke-linejoin="round"/>
<path d="M418.22 180.182L440.945 182.909" stroke="#F5F1F0" stroke-miterlimit="10" stroke-linecap="round" stroke-linejoin="round"/>
<path opacity="0.26" d="M411.597 197.19H394.976C391.34 197.19 388.483 194.204 388.483 190.698V179.274C388.483 175.639 391.47 172.782 394.976 172.782H411.597C415.233 172.782 418.09 175.768 418.09 179.274V190.698C418.22 194.204 415.233 197.19 411.597 197.19Z" fill="#F5F1F0"/>
<path opacity="0.26" d="M369.264 197.19H352.642C349.006 197.19 346.149 194.204 346.149 190.698V179.274C346.149 175.639 349.136 172.782 352.642 172.782H369.264C372.9 172.782 375.757 175.768 375.757 179.274V190.698C375.757 194.204 372.9 197.19 369.264 197.19Z" fill="#F5F1F0"/>
<path d="M411.597 197.189H394.976C391.34 197.189 388.483 194.204 388.483 190.698V179.274C388.483 175.639 391.47 172.782 394.976 172.782H411.597C415.233 172.782 418.09 175.768 418.09 179.274V190.698C418.22 194.204 415.233 197.189 411.597 197.189Z" stroke="white" stroke-miterlimit="10"/>
<path d="M369.264 197.189H352.642C349.006 197.189 346.149 194.204 346.149 190.698V179.274C346.149 175.639 349.136 172.782 352.642 172.782H369.264C372.9 172.782 375.757 175.768 375.757 179.274V190.698C375.757 194.204 372.9 197.189 369.264 197.189Z" stroke="white" stroke-miterlimit="10"/>
<path d="M375.757 178.495H388.613" stroke="white" stroke-miterlimit="10"/>
<path d="M432.894 201.474V236.526C432.894 236.526 413.545 256.389 392.768 263.53C397.703 256 409.52 234.319 396.794 219.779C406.922 213.807 427.18 194.723 427.18 194.723L432.894 201.474Z" fill="url(#paint8_linear)"/>
<path d="M130.457 379.593L160.583 369.077L270.053 492.67C270.053 492.67 252.522 520.842 231.485 514.221C210.319 507.6 130.457 379.593 130.457 379.593Z" fill="#52C798"/>
<path d="M501.588 387.642C496.783 405.168 478.474 438.014 466.267 453.982C446.399 480.077 427.44 505.912 427.44 505.912L394.456 470.73C394.456 470.73 447.308 391.537 452.762 357.782C458.216 324.028 454.45 301.568 466.916 292.87C474.708 287.418 484.317 278.719 499.64 287.418C518.08 297.933 512.756 346.228 501.588 387.642Z" fill="#60D8A4"/>
<path d="M304.855 402.572C304.855 402.572 301.608 381.54 298.622 374.53C293.298 361.937 267.196 329.221 267.196 329.221C267.196 329.221 251.224 332.207 270.962 356.484C270.962 356.484 265.119 364.274 259.015 358.951C252.912 353.758 243.692 340.516 243.692 340.516C243.692 340.516 253.302 321.561 247.848 312.344C242.394 303.126 229.927 328.312 230.187 336.751C230.577 345.189 236.161 366.351 242.134 373.751C248.107 381.281 287.454 411.14 287.454 411.14L304.855 402.572Z" fill="#F5C7B0"/>
<path d="M304.855 402.572C304.855 402.572 301.608 381.54 298.622 374.53C293.298 361.937 267.196 329.221 267.196 329.221C267.196 329.221 251.224 332.207 270.962 356.484C270.962 356.484 265.119 364.274 259.015 358.951C252.912 353.758 243.692 340.516 243.692 340.516C243.692 340.516 253.302 321.561 247.848 312.344C242.394 303.126 229.927 328.312 230.187 336.751C230.577 345.189 236.161 366.351 242.134 373.751C248.107 381.281 287.454 411.14 287.454 411.14L304.855 402.572Z" fill="url(#paint9_linear)"/>
<path d="M277.325 406.077L305.374 391.018L433.024 495.786C433.024 495.786 420.168 526.425 398.352 523.179C376.536 519.933 277.325 406.077 277.325 406.077Z" fill="#60D8A4"/>
<path d="M499.641 287.418C484.318 278.719 474.708 287.418 466.917 292.87C454.45 301.568 458.216 324.028 452.762 357.782C448.087 386.863 408.221 449.698 397.313 466.446L305.374 391.018L277.325 406.077C277.325 406.077 376.536 519.933 398.352 523.179C411.727 525.126 421.726 514.481 427.44 505.912C427.44 505.912 446.269 479.947 466.267 453.982C478.474 438.014 496.914 405.168 501.589 387.642C512.756 346.228 518.08 297.933 499.641 287.418Z" fill="url(#paint10_linear)"/>
<path d="M102.537 330.779L112.147 338.049L111.367 341.035C111.367 341.035 112.147 342.593 114.354 343.891C116.562 345.19 120.457 340.905 120.717 335.582C120.977 330.26 124.873 305.593 124.873 305.593L109.679 298.842L106.173 314.291L102.537 330.779Z" fill="#6E311E"/>
</g>
<defs>
<linearGradient id="paint0_linear" x1="241.862" y1="6.98333" x2="269.767" y2="378.283" gradientUnits="userSpaceOnUse">
<stop stop-color="#C4E9FB" stop-opacity="0"/>
<stop offset="0.1486" stop-color="#C0E8FB" stop-opacity="0.1189"/>
<stop offset="0.292" stop-color="#B5E4FA" stop-opacity="0.2336"/>
<stop offset="0.4332" stop-color="#A1DEF9" stop-opacity="0.3466"/>
<stop offset="0.5733" stop-color="#86D6F7" stop-opacity="0.4586"/>
<stop offset="0.7124" stop-color="#63CCF5" stop-opacity="0.57"/>
<stop offset="0.851" stop-color="#38BFF2" stop-opacity="0.6808"/>
<stop offset="0.9865" stop-color="#05B0EF" stop-opacity="0.7892"/>
<stop offset="1" stop-color="#00AEEF" stop-opacity="0.8"/>
</linearGradient>
<linearGradient id="paint1_linear" x1="244.998" y1="5.51358" x2="272.962" y2="377.593" gradientUnits="userSpaceOnUse">
<stop stop-color="white" stop-opacity="0"/>
<stop offset="0.9798" stop-color="white" stop-opacity="0.4899"/>
<stop offset="1" stop-color="white" stop-opacity="0.5"/>
</linearGradient>
<linearGradient id="paint2_linear" x1="255.477" y1="-4.6597" x2="283.55" y2="368.871" gradientUnits="userSpaceOnUse">
<stop stop-color="white" stop-opacity="0"/>
<stop offset="0.9798" stop-color="white" stop-opacity="0.4899"/>
<stop offset="1" stop-color="white" stop-opacity="0.5"/>
</linearGradient>
<linearGradient id="paint3_linear" x1="137.717" y1="233.739" x2="130.363" y2="183.862" gradientUnits="userSpaceOnUse">
<stop stop-color="white" stop-opacity="0"/>
<stop offset="0.9798" stop-color="white" stop-opacity="0.4899"/>
<stop offset="1" stop-color="white" stop-opacity="0.5"/>
</linearGradient>
<linearGradient id="paint4_linear" x1="378.727" y1="205.299" x2="353.08" y2="207.191" gradientUnits="userSpaceOnUse">
<stop stop-color="white" stop-opacity="0"/>
<stop offset="0.9798" stop-color="white" stop-opacity="0.4899"/>
<stop offset="1" stop-color="white" stop-opacity="0.5"/>
</linearGradient>
<linearGradient id="paint5_linear" x1="354.512" y1="178.885" x2="436.041" y2="178.885" gradientUnits="userSpaceOnUse">
<stop stop-color="white" stop-opacity="0"/>
<stop offset="0.9798" stop-color="white" stop-opacity="0.4899"/>
<stop offset="1" stop-color="white" stop-opacity="0.5"/>
</linearGradient>
<linearGradient id="paint6_linear" x1="415.93" y1="168.736" x2="451.764" y2="168.736" gradientUnits="userSpaceOnUse">
<stop stop-color="#6E311E" stop-opacity="0.5"/>
<stop offset="1" stop-color="#592719"/>
</linearGradient>
<linearGradient id="paint7_linear" x1="432.891" y1="196.218" x2="451.563" y2="196.218" gradientUnits="userSpaceOnUse">
<stop stop-color="white" stop-opacity="0"/>
<stop offset="0.9798" stop-color="white" stop-opacity="0.4899"/>
<stop offset="1" stop-color="white" stop-opacity="0.5"/>
</linearGradient>
<linearGradient id="paint8_linear" x1="392.764" y1="229.085" x2="432.89" y2="229.085" gradientUnits="userSpaceOnUse">
<stop stop-color="#6E311E" stop-opacity="0.5"/>
<stop offset="1" stop-color="#592719"/>
</linearGradient>
<linearGradient id="paint9_linear" x1="230.36" y1="360.705" x2="304.914" y2="360.705" gradientUnits="userSpaceOnUse">
<stop stop-color="white" stop-opacity="0"/>
<stop offset="0.9798" stop-color="white" stop-opacity="0.4899"/>
<stop offset="1" stop-color="white" stop-opacity="0.5"/>
</linearGradient>
<linearGradient id="paint10_linear" x1="277.307" y1="403.582" x2="511.766" y2="403.582" gradientUnits="userSpaceOnUse">
<stop stop-color="white" stop-opacity="0"/>
<stop offset="0.9798" stop-color="white" stop-opacity="0.4899"/>
<stop offset="1" stop-color="white" stop-opacity="0.5"/>
</linearGradient>
</defs>
</svg>
