<?xml version="1.0" encoding="utf-8"?>
<svg width="1302" height="176" viewBox="0 0 1302 176" fill="none" xmlns="http://www.w3.org/2000/svg">
<path d="M63.0391 107.258H29.9922V173H0.34375V2.375H60.3438C80.0312 2.375 95.2266 6.78906 105.93 15.6172C116.633 24.4453 121.984 37.2188 121.984 53.9375C121.984 65.3438 119.211 74.9141 113.664 82.6484C108.195 90.3047 100.539 96.2031 90.6953 100.344L129.016 171.477V173H97.2578L63.0391 107.258ZM29.9922 83.4688H60.4609C70.4609 83.4688 78.2734 80.9688 83.8984 75.9688C89.5234 70.8906 92.3359 63.9766 92.3359 55.2266C92.3359 46.0859 89.7188 39.0156 84.4844 34.0156C79.3281 29.0156 71.5938 26.4375 61.2812 26.2812H29.9922V83.4688ZM307.436 96.8281H237.358V149.328H319.272V173H207.709V2.375H318.452V26.2812H237.358V73.3906H307.436V96.8281ZM490.192 129.055C490.192 121.555 487.536 115.773 482.223 111.711C476.989 107.648 467.497 103.547 453.747 99.4062C439.997 95.2656 429.059 90.6562 420.934 85.5781C405.388 75.8125 397.614 63.0781 397.614 47.375C397.614 33.625 403.2 22.2969 414.372 13.3906C425.622 4.48438 440.192 0.03125 458.083 0.03125C469.958 0.03125 480.544 2.21875 489.841 6.59375C499.138 10.9687 506.442 17.2188 511.755 25.3438C517.067 33.3906 519.723 42.3359 519.723 52.1797H490.192C490.192 43.2734 487.38 36.3203 481.755 31.3203C476.208 26.2422 468.239 23.7031 457.848 23.7031C448.161 23.7031 440.622 25.7734 435.231 29.9141C429.919 34.0547 427.263 39.8359 427.263 47.2578C427.263 53.5078 430.153 58.7422 435.934 62.9609C441.716 67.1016 451.247 71.1641 464.528 75.1484C477.809 79.0547 488.473 83.5469 496.52 88.625C504.567 93.625 510.466 99.4062 514.216 105.969C517.966 112.453 519.841 120.07 519.841 128.82C519.841 143.039 514.372 154.367 503.434 162.805C492.575 171.164 477.809 175.344 459.138 175.344C446.794 175.344 435.427 173.078 425.036 168.547C414.723 163.938 406.677 157.609 400.895 149.562C395.192 141.516 392.341 132.141 392.341 121.438H421.989C421.989 131.125 425.192 138.625 431.598 143.938C438.005 149.25 447.184 151.906 459.138 151.906C469.45 151.906 477.184 149.836 482.341 145.695C487.575 141.477 490.192 135.93 490.192 129.055ZM728.261 2.375V116.398C728.261 134.523 722.441 148.898 710.8 159.523C699.238 170.07 683.808 175.344 664.511 175.344C644.98 175.344 629.472 170.148 617.988 159.758C606.503 149.289 600.761 134.797 600.761 116.281V2.375H630.292V116.516C630.292 127.922 633.183 136.633 638.964 142.648C644.745 148.664 653.261 151.672 664.511 151.672C687.323 151.672 698.73 139.641 698.73 115.578V2.375H728.261ZM847.267 149.328H924.728V173H817.619V2.375H847.267V149.328ZM1104.2 26.2812H1051V173H1021.59V26.2812H968.852V2.375H1104.2V26.2812ZM1271.61 129.055C1271.61 121.555 1268.95 115.773 1263.64 111.711C1258.4 107.648 1248.91 103.547 1235.16 99.4062C1221.41 95.2656 1210.48 90.6562 1202.35 85.5781C1186.8 75.8125 1179.03 63.0781 1179.03 47.375C1179.03 33.625 1184.62 22.2969 1195.79 13.3906C1207.04 4.48438 1221.61 0.03125 1239.5 0.03125C1251.37 0.03125 1261.96 2.21875 1271.26 6.59375C1280.55 10.9687 1287.86 17.2188 1293.17 25.3438C1298.48 33.3906 1301.14 42.3359 1301.14 52.1797H1271.61C1271.61 43.2734 1268.8 36.3203 1263.17 31.3203C1257.62 26.2422 1249.65 23.7031 1239.26 23.7031C1229.58 23.7031 1222.04 25.7734 1216.65 29.9141C1211.33 34.0547 1208.68 39.8359 1208.68 47.2578C1208.68 53.5078 1211.57 58.7422 1217.35 62.9609C1223.13 67.1016 1232.66 71.1641 1245.94 75.1484C1259.23 79.0547 1269.89 83.5469 1277.94 88.625C1285.98 93.625 1291.88 99.4062 1295.63 105.969C1299.38 112.453 1301.26 120.07 1301.26 128.82C1301.26 143.039 1295.79 154.367 1284.85 162.805C1273.99 171.164 1259.23 175.344 1240.55 175.344C1228.21 175.344 1216.84 173.078 1206.45 168.547C1196.14 163.938 1188.09 157.609 1182.31 149.562C1176.61 141.516 1173.76 132.141 1173.76 121.438H1203.4C1203.4 131.125 1206.61 138.625 1213.01 143.938C1219.42 149.25 1228.6 151.906 1240.55 151.906C1250.87 151.906 1258.6 149.836 1263.76 145.695C1268.99 141.477 1271.61 135.93 1271.61 129.055Z" fill="#FFAF50" fill-opacity="0.15"/>
</svg>
